<?xml version="1.0" encoding="utf-8"?>
<!-- Generator: Adobe Illustrator 24.0.3, SVG Export Plug-In . SVG Version: 6.00 Build 0)  -->
<svg version="1.1" id="Calque_1" xmlns="http://www.w3.org/2000/svg" xmlns:xlink="http://www.w3.org/1999/xlink" x="0px" y="0px"
	 viewBox="0 0 600 479.5" style="enable-background:new 0 0 600 479.5;" xml:space="preserve">
<style type="text/css">
	.st0{fill:#FFFFFF;}
	.st1{fill:#E3234A;}
	.st2{fill:none;stroke:#FFFFFF;stroke-width:0.5;stroke-miterlimit:10;}
	.st3{fill:none;stroke:#000000;stroke-width:2;stroke-miterlimit:10;}
	.st4{fill:none;stroke:#FFFFFF;stroke-width:3;stroke-linecap:round;stroke-linejoin:round;}
	.st5{fill:#1D1D1B;}
	.st6{fill:#FFFFFF;stroke:#000000;stroke-width:2;stroke-miterlimit:10;}
	.st7{fill:none;stroke:#000000;stroke-width:0.5;stroke-miterlimit:10;stroke-dasharray:5,2;}
</style>
<title>LIB-2020-05-07-LIB-2020-05-07-tues-route-2</title>
<g id="FOND">
	<rect id="Fond_blanc" y="0" class="st0" width="600" height="479.5"/>
</g>
<g id="Calque_1_1_">
	<g id="EXPRESSION_LIBRE">
		<polygon class="st1" points="559.2,447.8 39.2,447.8 39.2,20.4 54.5,15.7 69.8,17.3 85.1,17.8 100.4,22.3 115.7,21.8 131,20.1 
			146.3,25.6 161.6,28.8 176.9,27.1 192.2,31 207.5,30.6 222.8,34.2 238.1,38.3 253.4,40.2 268.7,46.4 284,43.4 299.2,48.9 
			314.5,49.4 329.8,50.1 345.1,49.1 360.4,44.7 375.7,42.2 391,48.5 406.3,51.7 421.6,51.4 436.9,51.6 452.2,46.1 467.5,47.4 
			482.8,49.5 498.1,50.8 513.4,51.2 528.7,48.4 544,52.3 559.2,64.7 		"/>
		<path d="M43.6,465.4h-3.9v-1.6h1V457h-1v-1.6h4.1l2.2,6.1l2.2-6.1h4v1.6h-1v6.8h1v1.6h-4.2v-1.6h1v-5.9l-2.8,7.5h-0.7l-2.9-7.5
			v5.9h1L43.6,465.4z"/>
		<path d="M55.3,465.5c-1.2,0.2-2.3-0.6-2.4-1.8c0-0.1,0-0.2,0-0.3c0-1.8,1.6-2.3,3.8-2.3h0.8v-0.3c0-0.9-0.3-1.3-1.2-1.3
			c-0.6-0.1-1.1,0.3-1.2,0.9c0,0,0,0.1,0,0.1h-1.9c0.1-1.8,1.5-2.5,3.2-2.5s3,0.7,3,2.7v3.3h0.8v1.5h-2.7v-1
			C57,465.1,56.2,465.6,55.3,465.5z M57.5,462.8v-0.6h-0.8c-1.2,0-1.8,0.3-1.8,1c0,0.5,0.3,0.9,1,0.9S57.5,463.6,57.5,462.8z"/>
		<path d="M60.8,465.4v-1.4h0.8v-4.4h-0.8V458h2.8v5.9h0.8v1.4H60.8z M61.4,455.9c0-0.7,0.5-1.2,1.1-1.2s1.2,0.5,1.2,1.1
			c0,0.7-0.5,1.2-1.1,1.2c0,0,0,0,0,0C61.9,457.1,61.4,456.6,61.4,455.9C61.4,455.9,61.4,455.9,61.4,455.9L61.4,455.9z"/>
		<path d="M45.4,476.5h1.8v2.9h-7.6v-1.2l3.5-3.3c1.2-1.1,1.6-1.8,1.6-2.6c0.1-0.7-0.4-1.2-1.1-1.3c-0.1,0-0.1,0-0.2,0
			c-0.9,0-1.4,0.5-1.6,1.8h-2.1c-0.1-1.9,1.4-3.5,3.3-3.6c0.1,0,0.3,0,0.4,0c2.2,0,3.5,1.2,3.5,2.9c0,1.4-0.8,2.4-2.1,3.5l-2.4,2.2
			h2.9L45.4,476.5z"/>
		<path d="M48.2,474.6v-0.5c0-3.1,1.8-4.9,4.4-4.9s4.4,1.8,4.4,4.9v0.5c0,3.1-1.7,5-4.4,5S48.2,477.6,48.2,474.6z M54.6,474.6v-0.5
			c0-2-0.7-3.2-2.1-3.2s-2.1,1.1-2.1,3.2v0.5c0,2.1,0.7,3.2,2.2,3.2S54.6,476.6,54.6,474.6L54.6,474.6z"/>
		<path d="M58.1,479.4v-1.6h1.8v-6.2l-1.9,1.3v-2l2.2-1.5h2v8.4h1.7v1.6H58.1z"/>
		<path d="M66,472.4h-1.8v-3h7.3v1.2l-3.3,8.8h-2.3l3.2-8.4H66V472.4z"/>
		<line class="st2" x1="39.2" y1="-10.5" x2="39.2" y2="447.8"/>
		<line class="st2" x1="54.5" y1="-10.5" x2="54.5" y2="447.8"/>
		<line class="st2" x1="69.8" y1="-10.5" x2="69.8" y2="447.8"/>
		<line class="st2" x1="85.1" y1="-10.5" x2="85.1" y2="447.8"/>
		<line class="st2" x1="100.4" y1="-10.5" x2="100.4" y2="447.8"/>
		<line class="st2" x1="115.7" y1="-10.5" x2="115.7" y2="447.8"/>
		<line class="st2" x1="131" y1="-10.5" x2="131" y2="447.8"/>
		<line class="st2" x1="146.3" y1="-10.5" x2="146.3" y2="447.8"/>
		<line class="st2" x1="161.6" y1="-10.5" x2="161.6" y2="447.8"/>
		<line class="st2" x1="176.9" y1="-10.5" x2="176.9" y2="447.8"/>
		<line class="st2" x1="192.2" y1="-10.5" x2="192.2" y2="447.8"/>
		<line class="st2" x1="207.5" y1="-10.5" x2="207.5" y2="447.8"/>
		<line class="st2" x1="222.8" y1="-10.5" x2="222.8" y2="447.8"/>
		<line class="st2" x1="238.1" y1="-10.5" x2="238.1" y2="447.8"/>
		<line class="st2" x1="253.4" y1="-10.5" x2="253.4" y2="447.8"/>
		<line class="st2" x1="268.7" y1="-10.5" x2="268.7" y2="447.8"/>
		<line class="st2" x1="284" y1="-10.5" x2="284" y2="447.8"/>
		<line class="st2" x1="299.3" y1="-10.5" x2="299.3" y2="447.8"/>
		<line class="st2" x1="314.6" y1="-10.5" x2="314.6" y2="447.8"/>
		<line class="st2" x1="329.9" y1="-10.5" x2="329.9" y2="447.8"/>
		<line class="st2" x1="345.2" y1="-10.5" x2="345.2" y2="447.8"/>
		<line class="st2" x1="360.5" y1="-10.5" x2="360.5" y2="447.8"/>
		<line class="st2" x1="375.8" y1="-10.5" x2="375.8" y2="447.8"/>
		<line class="st2" x1="391.1" y1="-10.5" x2="391.1" y2="447.8"/>
		<line class="st2" x1="406.4" y1="-10.5" x2="406.4" y2="447.8"/>
		<line class="st2" x1="421.7" y1="-10.5" x2="421.7" y2="447.8"/>
		<line class="st2" x1="437" y1="-10.5" x2="437" y2="447.8"/>
		<line class="st2" x1="452.3" y1="-10.5" x2="452.3" y2="447.8"/>
		<line class="st2" x1="467.6" y1="-10.5" x2="467.6" y2="447.8"/>
		<line class="st2" x1="482.9" y1="-10.5" x2="482.9" y2="447.8"/>
		<line class="st2" x1="498.1" y1="-10.5" x2="498.1" y2="447.8"/>
		<line class="st2" x1="513.5" y1="-10.5" x2="513.5" y2="447.8"/>
		<line class="st2" x1="528.8" y1="-10.5" x2="528.8" y2="447.8"/>
		<line class="st2" x1="544" y1="-10.5" x2="544" y2="447.8"/>
		<line class="st2" x1="559.3" y1="-10.5" x2="559.3" y2="447.8"/>
		<line class="st3" x1="39.2" y1="447.8" x2="559.2" y2="447.8"/>
		<path d="M529.5,465.4h-3.9v-1.6h1V457h-1v-1.6h4.1l2.2,6.1l2.2-6.1h4v1.6h-1v6.8h1v1.6h-4.2v-1.6h1v-5.9l-2.8,7.5h-0.7l-2.9-7.5
			v5.9h1L529.5,465.4z"/>
		<path d="M541.2,465.5c-1.2,0.2-2.3-0.6-2.4-1.8c0-0.1,0-0.2,0-0.4c0-1.8,1.6-2.3,3.8-2.3h0.8v-0.3c0-0.9-0.3-1.3-1.2-1.3
			c-0.6-0.1-1.1,0.3-1.2,0.9c0,0,0,0.1,0,0.1H539c0.1-1.8,1.5-2.5,3.2-2.5s3.1,0.7,3.1,2.7v3.3h0.8v1.5h-2.7v-1
			C542.9,465.1,542.1,465.6,541.2,465.5z M543.3,462.8v-0.6h-0.8c-1.2,0-1.8,0.3-1.8,1c0,0.5,0.3,0.9,1,0.9S543.3,463.6,543.3,462.8
			z"/>
		<path d="M546.7,465.4v-1.4h0.8v-4.4h-0.8V458h2.8v1.5c0.4-1,1.4-1.7,2.5-1.6v1.9c-1.6,0-2.5,0.5-2.5,1.8v2.2h0.9v1.4H546.7z"/>
		<path d="M554.2,464.6v0.8h-1.5v-2.4h1.5c0.1,0.8,0.8,1.3,1.5,1.3c0.8,0,1.2-0.3,1.2-0.9s-0.5-0.8-1.5-0.9c-1.9-0.3-2.7-1-2.7-2.3
			c0-1.2,1-2.2,2.2-2.2c0.1,0,0.2,0,0.3,0c1.2,0,1.7,0.4,1.9,0.8V458h1.4v2.2h-1.4c-0.2-0.7-0.8-1.1-1.5-1.1c-0.6,0-1,0.3-1,0.8
			s0.3,0.7,1.4,0.9c1.8,0.2,2.8,0.8,2.8,2.3s-1,2.4-2.7,2.4C555.4,465.6,554.6,465.3,554.2,464.6z"/>
		<path d="M529.1,476.5h1.8v2.9h-7.5v-1.2l3.5-3.3c1.2-1.1,1.6-1.8,1.6-2.6c0.1-0.7-0.4-1.2-1.1-1.3c-0.1,0-0.2,0-0.2,0
			c-0.9,0-1.4,0.5-1.6,1.8h-2.1c-0.1-1.9,1.4-3.5,3.3-3.6c0.1,0,0.3,0,0.4,0c2.2,0,3.5,1.2,3.5,2.9c0,1.4-0.8,2.4-2.1,3.5l-2.4,2.2
			h2.9V476.5z"/>
		<path d="M531.9,474.6v-0.5c0-3.1,1.8-4.9,4.4-4.9s4.4,1.8,4.4,4.9v0.5c0,3.1-1.7,5-4.4,5S531.9,477.6,531.9,474.6z M538.4,474.6
			v-0.5c0-2-0.7-3.2-2.1-3.2s-2.1,1.1-2.1,3.2v0.5c0,2.1,0.7,3.2,2.1,3.2S538.4,476.6,538.4,474.6L538.4,474.6z"/>
		<path d="M547.2,476.5h1.8v2.9h-7.5v-1.2l3.5-3.3c1.2-1.1,1.6-1.8,1.6-2.6c0.1-0.7-0.4-1.2-1.1-1.3c-0.1,0-0.2,0-0.2,0
			c-0.9,0-1.4,0.5-1.6,1.8h-2.1c-0.1-1.9,1.4-3.5,3.3-3.6c0.1,0,0.3,0,0.4,0c2.2,0,3.5,1.2,3.5,2.9c0,1.4-0.8,2.4-2.1,3.5l-2.4,2.2
			h2.9L547.2,476.5z"/>
		<path d="M550,474.6v-0.5c0-3.1,1.8-4.9,4.4-4.9s4.4,1.8,4.4,4.9v0.5c0,3.1-1.7,5-4.4,5S550,477.6,550,474.6z M556.5,474.6v-0.5
			c0-2-0.7-3.2-2.1-3.2s-2.1,1.1-2.1,3.2v0.5c0,2.1,0.7,3.2,2.1,3.2S556.5,476.6,556.5,474.6L556.5,474.6z"/>
		<path class="st4" d="M529.5,465.4h-3.9v-1.6h1V457h-1v-1.6h4.1l2.2,6.1l2.2-6.1h4v1.6h-1v6.8h1v1.6h-4.2v-1.6h1v-5.9l-2.8,7.5
			h-0.7l-2.9-7.5v5.9h1L529.5,465.4z"/>
		<path class="st4" d="M541.2,465.5c-1.2,0.2-2.3-0.6-2.4-1.8c0-0.1,0-0.2,0-0.4c0-1.8,1.6-2.3,3.8-2.3h0.8v-0.3
			c0-0.9-0.3-1.3-1.2-1.3c-0.6-0.1-1.1,0.3-1.2,0.9c0,0,0,0.1,0,0.1H539c0.1-1.8,1.5-2.5,3.2-2.5s3.1,0.7,3.1,2.7v3.3h0.8v1.5h-2.7
			v-1C542.9,465.1,542.1,465.6,541.2,465.5z M543.3,462.8v-0.6h-0.8c-1.2,0-1.8,0.3-1.8,1c0,0.5,0.3,0.9,1,0.9
			S543.3,463.6,543.3,462.8z"/>
		<path class="st4" d="M546.7,465.4v-1.4h0.8v-4.4h-0.8V458h2.8v1.5c0.4-1,1.4-1.7,2.5-1.6v1.9c-1.6,0-2.5,0.5-2.5,1.8v2.2h0.9v1.4
			H546.7z"/>
		<path class="st4" d="M554.2,464.6v0.8h-1.5v-2.4h1.5c0.1,0.8,0.8,1.3,1.5,1.3c0.8,0,1.2-0.3,1.2-0.9s-0.5-0.8-1.5-0.9
			c-1.9-0.3-2.7-1-2.7-2.3c0-1.2,1-2.2,2.2-2.2c0.1,0,0.2,0,0.3,0c1.2,0,1.7,0.4,1.9,0.8V458h1.4v2.2h-1.4c-0.2-0.7-0.8-1.1-1.5-1.1
			c-0.6,0-1,0.3-1,0.8s0.3,0.7,1.4,0.9c1.8,0.2,2.8,0.8,2.8,2.3s-1,2.4-2.7,2.4C555.4,465.6,554.6,465.3,554.2,464.6z"/>
		<path class="st4" d="M529.1,476.5h1.8v2.9h-7.5v-1.2l3.5-3.3c1.2-1.1,1.6-1.8,1.6-2.6c0.1-0.7-0.4-1.2-1.1-1.3c-0.1,0-0.2,0-0.2,0
			c-0.9,0-1.4,0.5-1.6,1.8h-2.1c-0.1-1.9,1.4-3.5,3.3-3.6c0.1,0,0.3,0,0.4,0c2.2,0,3.5,1.2,3.5,2.9c0,1.4-0.8,2.4-2.1,3.5l-2.4,2.2
			h2.9V476.5z"/>
		<path class="st4" d="M531.9,474.6v-0.5c0-3.1,1.8-4.9,4.4-4.9s4.4,1.8,4.4,4.9v0.5c0,3.1-1.7,5-4.4,5S531.9,477.6,531.9,474.6z
			 M538.4,474.6v-0.5c0-2-0.7-3.2-2.1-3.2s-2.1,1.1-2.1,3.2v0.5c0,2.1,0.7,3.2,2.1,3.2S538.4,476.6,538.4,474.6L538.4,474.6z"/>
		<path class="st4" d="M547.2,476.5h1.8v2.9h-7.5v-1.2l3.5-3.3c1.2-1.1,1.6-1.8,1.6-2.6c0.1-0.7-0.4-1.2-1.1-1.3c-0.1,0-0.2,0-0.2,0
			c-0.9,0-1.4,0.5-1.6,1.8h-2.1c-0.1-1.9,1.4-3.5,3.3-3.6c0.1,0,0.3,0,0.4,0c2.2,0,3.5,1.2,3.5,2.9c0,1.4-0.8,2.4-2.1,3.5l-2.4,2.2
			h2.9L547.2,476.5z"/>
		<path class="st4" d="M550,474.6v-0.5c0-3.1,1.8-4.9,4.4-4.9s4.4,1.8,4.4,4.9v0.5c0,3.1-1.7,5-4.4,5S550,477.6,550,474.6z
			 M556.5,474.6v-0.5c0-2-0.7-3.2-2.1-3.2s-2.1,1.1-2.1,3.2v0.5c0,2.1,0.7,3.2,2.1,3.2S556.5,476.6,556.5,474.6L556.5,474.6z"/>
		<path class="st5" d="M529.5,465.4h-3.9v-1.6h1V457h-1v-1.6h4.1l2.2,6.1l2.2-6.1h4v1.6h-1v6.8h1v1.6h-4.2v-1.6h1v-5.9l-2.8,7.5
			h-0.7l-2.9-7.5v5.9h1L529.5,465.4z"/>
		<path class="st5" d="M541.2,465.5c-1.2,0.2-2.3-0.6-2.4-1.8c0-0.1,0-0.2,0-0.4c0-1.8,1.6-2.3,3.8-2.3h0.8v-0.3
			c0-0.9-0.3-1.3-1.2-1.3c-0.6-0.1-1.1,0.3-1.2,0.9c0,0,0,0.1,0,0.1H539c0.1-1.8,1.5-2.5,3.2-2.5s3.1,0.7,3.1,2.7v3.3h0.8v1.5h-2.7
			v-1C542.9,465.1,542.1,465.6,541.2,465.5z M543.3,462.8v-0.6h-0.8c-1.2,0-1.8,0.3-1.8,1c0,0.5,0.3,0.9,1,0.9
			S543.3,463.6,543.3,462.8z"/>
		<path class="st5" d="M546.7,465.4v-1.4h0.8v-4.4h-0.8V458h2.8v1.5c0.4-1,1.4-1.7,2.5-1.6v1.9c-1.6,0-2.5,0.5-2.5,1.8v2.2h0.9v1.4
			H546.7z"/>
		<path class="st5" d="M554.2,464.6v0.8h-1.5v-2.4h1.5c0.1,0.8,0.8,1.3,1.5,1.3c0.8,0,1.2-0.3,1.2-0.9s-0.5-0.8-1.5-0.9
			c-1.9-0.3-2.7-1-2.7-2.3c0-1.2,1-2.2,2.2-2.2c0.1,0,0.2,0,0.3,0c1.2,0,1.7,0.4,1.9,0.8V458h1.4v2.2h-1.4c-0.2-0.7-0.8-1.1-1.5-1.1
			c-0.6,0-1,0.3-1,0.8s0.3,0.7,1.4,0.9c1.8,0.2,2.8,0.8,2.8,2.3s-1,2.4-2.7,2.4C555.4,465.6,554.6,465.3,554.2,464.6z"/>
		<path class="st5" d="M529.1,476.5h1.8v2.9h-7.5v-1.2l3.5-3.3c1.2-1.1,1.6-1.8,1.6-2.6c0.1-0.7-0.4-1.2-1.1-1.3c-0.1,0-0.2,0-0.2,0
			c-0.9,0-1.4,0.5-1.6,1.8h-2.1c-0.1-1.9,1.4-3.5,3.3-3.6c0.1,0,0.3,0,0.4,0c2.2,0,3.5,1.2,3.5,2.9c0,1.4-0.8,2.4-2.1,3.5l-2.4,2.2
			h2.9V476.5z"/>
		<path class="st5" d="M531.9,474.6v-0.5c0-3.1,1.8-4.9,4.4-4.9s4.4,1.8,4.4,4.9v0.5c0,3.1-1.7,5-4.4,5S531.9,477.6,531.9,474.6z
			 M538.4,474.6v-0.5c0-2-0.7-3.2-2.1-3.2s-2.1,1.1-2.1,3.2v0.5c0,2.1,0.7,3.2,2.1,3.2S538.4,476.6,538.4,474.6L538.4,474.6z"/>
		<path class="st5" d="M547.2,476.5h1.8v2.9h-7.5v-1.2l3.5-3.3c1.2-1.1,1.6-1.8,1.6-2.6c0.1-0.7-0.4-1.2-1.1-1.3c-0.1,0-0.2,0-0.2,0
			c-0.9,0-1.4,0.5-1.6,1.8h-2.1c-0.1-1.9,1.4-3.5,3.3-3.6c0.1,0,0.3,0,0.4,0c2.2,0,3.5,1.2,3.5,2.9c0,1.4-0.8,2.4-2.1,3.5l-2.4,2.2
			h2.9L547.2,476.5z"/>
		<path class="st5" d="M550,474.6v-0.5c0-3.1,1.8-4.9,4.4-4.9s4.4,1.8,4.4,4.9v0.5c0,3.1-1.7,5-4.4,5S550,477.6,550,474.6z
			 M556.5,474.6v-0.5c0-2-0.7-3.2-2.1-3.2s-2.1,1.1-2.1,3.2v0.5c0,2.1,0.7,3.2,2.1,3.2S556.5,476.6,556.5,474.6L556.5,474.6z"/>
		<polygon class="st6" points="70.6,95.5 70.6,58.3 49.2,58.3 39.2,48.3 29.2,58.3 7.9,58.3 7.9,95.5 		"/>
		<path d="M19,82.6v-2.2h3.1v1.4c0,1.7,0.2,2.1,0.7,2.1s0.8-0.4,0.8-2.2v-2.4c0-1.7-0.2-2.1-0.6-2.1h-2v-3.1h1.9
			c0.4,0,0.6-0.3,0.6-2.1v-1.3c0-1.7-0.2-2.1-0.6-2.1s-0.6,0.3-0.6,2.1v1.4H19V70c0-3.4,0.8-4.4,3.8-4.4s3.7,1,3.7,4.4v2.8
			c0,1.5-0.5,2.2-2,2.4c1.6,0.3,2.1,1.2,2.1,3.3v4.1c0,3.4-0.9,4.4-3.9,4.4S19,86.1,19,82.6z"/>
		<path d="M40.4,82.6v4.3h-3.1v-4.3h-4.1v-1.9l2-15h5.2v13.7h0.6v3.1L40.4,82.6z M37.2,79.5V68.8l-1.1,10.6L37.2,79.5z"/>
		<path d="M42.5,82.6V81h3.1v0.9c0,1.7,0.2,2.1,0.6,2.1s0.6-0.3,0.6-2.1v-6.5c0,3.4-0.6,4.4-2.2,4.4c-1.7,0-2.2-1-2.2-4.4V70
			c0-3.4,0.8-4.4,3.7-4.4s3.7,1,3.7,4.4v12.6c0,3.4-0.8,4.4-3.7,4.4S42.5,86.1,42.5,82.6z M46.9,74.6v-3.8c0-1.7-0.2-2.1-0.6-2.1
			s-0.6,0.3-0.6,2.1v3.8c0,1.7,0.2,2.1,0.6,2.1S46.9,76.4,46.9,74.6L46.9,74.6z"/>
		<path d="M55.7,87c-2.9,0-3.7-1-3.7-4.4V70c0-3.4,0.8-4.4,3.7-4.4s3.8,1,3.8,4.4v12.6C59.5,86.1,58.6,87,55.7,87z M55.7,68.7
			c-0.4,0-0.6,0.3-0.6,2.1v11.1c0,1.7,0.2,2.1,0.6,2.1s0.6-0.3,0.6-2.1V70.8C56.3,69,56.1,68.7,55.7,68.7L55.7,68.7z"/>
		<line class="st7" x1="552.1" y1="27.7" x2="552.1" y2="452.3"/>
		<polygon class="st6" points="590.6,177.3 590.6,118.3 569.2,118.3 559.2,108.3 549.2,118.3 527.9,118.3 527.9,177.3 		"/>
		<path d="M540.3,142.6v-2.2h3.1v1.4c0,1.7,0.2,2.1,0.7,2.1s0.8-0.4,0.8-2.2v-2.4c0-1.7-0.2-2.1-0.6-2.1h-2.1v-3.1h1.9
			c0.5,0,0.6-0.3,0.6-2.1v-1.3c0-1.7-0.2-2.1-0.6-2.1s-0.6,0.3-0.6,2.1v1.4h-3.1V130c0-3.4,0.8-4.4,3.7-4.4s3.8,1,3.8,4.4v2.8
			c0,1.5-0.5,2.2-2,2.4c1.6,0.3,2.1,1.2,2.1,3.3v4.1c0,3.4-0.9,4.4-3.9,4.4S540.3,146.1,540.3,142.6z"/>
		<path d="M556.3,146.9v-17.1l-2.1,0.9v-3.1l4.2-1.8h1v21.2H556.3z"/>
		<path d="M561.4,144.1c4.3-11.1,4.4-11.2,4.4-12.4v-0.8c0-1.7-0.2-2.1-0.6-2.1s-0.6,0.3-0.6,2.1v1.4h-3.1V130
			c0-3.4,0.8-4.4,3.7-4.4s3.8,1,3.8,4.4v0.9c0,1.8-0.1,2-4.2,12.9h4.2v3.1h-7.5V144.1z"/>
		<path d="M570.7,142.6V141h3.1v0.9c0,1.7,0.2,2.1,0.6,2.1s0.6-0.3,0.6-2.1v-6.5c0,3.4-0.6,4.4-2.2,4.4c-1.7,0-2.2-1-2.2-4.4V130
			c0-3.4,0.8-4.4,3.8-4.4s3.7,1,3.7,4.4v12.6c0,3.4-0.8,4.4-3.7,4.4S570.7,146.1,570.7,142.6z M575,134.6v-3.8
			c0-1.7-0.2-2.1-0.6-2.1s-0.6,0.3-0.6,2.1v3.8c0,1.7,0.2,2.1,0.6,2.1S575,136.4,575,134.6L575,134.6z"/>
		<path d="M538.5,161.4v-0.7h1v-6.4h-1v-0.8h3.2c1.5,0,2.8,0.7,2.8,2.3l0,0c0,1.7-1.2,2.3-2.8,2.3h-1.3v2.5h1.1v0.8H538.5z
			 M541.8,157.4c1.1,0,1.7-0.6,1.7-1.6l0,0c0-1.1-0.7-1.6-1.7-1.6h-1.3v3.1L541.8,157.4z"/>
		<path d="M545.1,161.4v-0.7h0.8v-7h-0.8v-0.8h1.8v7.8h0.8v0.7H545.1z"/>
		<path d="M550.8,161.5c-1.1,0-2-0.6-2-2.3v-2.9H548v-0.8h1.7v3.6c0,1,0.4,1.4,1.3,1.4c0.8,0,1.5-0.6,1.5-1.4c0,0,0-0.1,0-0.1v-2.7
			h-0.8v-0.8h1.7v5h0.8v0.8h-1.7v-1C552.3,161,551.6,161.5,550.8,161.5z"/>
		<path d="M555.8,160.7v0.7H555v-1.9h0.8c0.1,0.8,0.8,1.3,1.5,1.3c0.8,0,1.2-0.3,1.2-0.9s-0.5-0.8-1.3-1c-1.5-0.3-2-0.8-2-1.8
			c0-0.9,0.8-1.6,1.7-1.5c0,0,0.1,0,0.1,0c0.8,0,1.2,0.3,1.4,0.7v-0.6h0.8v1.7h-0.7c-0.1-0.6-0.7-1.1-1.4-1c-0.7,0-1,0.2-1,0.8
			s0.3,0.8,1.3,1s2,0.5,2,1.7c0,1-0.7,1.7-2.1,1.7C556.6,161.6,556.1,161.3,555.8,160.7z"/>
		<path d="M564.4,160.4v1h-1.7v-0.7h0.8v-7h-0.8V153h1.7v3.8c0.4-0.7,1.1-1.1,1.9-1.1c1.4,0,2.6,1.2,2.6,2.6c0,0.1,0,0.2,0,0.3v0.1
			c0,1.8-1,3-2.6,3C565.5,161.6,564.7,161.2,564.4,160.4z M568,158.6L568,158.6c0-1.5-0.8-2.3-1.8-2.3s-1.9,0.7-1.9,2.2v0.1
			c0,1.5,0.8,2.2,1.9,2.2S568,160,568,158.6L568,158.6z"/>
		<path d="M571.6,161.5c-0.9,0.1-1.7-0.5-1.9-1.4c0-0.1,0-0.2,0-0.3c0-1.3,1.4-1.8,2.8-1.8h0.8v-0.4c0-1-0.4-1.3-1.2-1.3
			s-1.2,0.3-1.3,1H570c0.1-1.4,1.2-1.8,2.2-1.8c1-0.1,1.9,0.5,2.1,1.5c0,0.2,0,0.3,0,0.5v3.1h0.7v0.7h-1.7v-0.8
			C572.9,161.2,572.3,161.5,571.6,161.5z M573.4,159.4v-0.7h-0.8c-1.1,0-2,0.3-2,1.1c-0.1,0.5,0.3,0.9,0.8,1c0.1,0,0.1,0,0.2,0
			C572.6,160.8,573.3,160.3,573.4,159.4L573.4,159.4z"/>
		<path d="M576.5,160.7v0.7h-0.8v-1.9h0.8c0.1,0.8,0.8,1.3,1.5,1.3c0.8,0,1.2-0.3,1.2-0.9s-0.5-0.8-1.4-1c-1.5-0.3-2-0.8-2-1.8
			c0-0.9,0.8-1.6,1.7-1.5c0,0,0.1,0,0.1,0c0.6-0.1,1.2,0.2,1.4,0.7v-0.6h0.8v1.7h-0.8c-0.1-0.6-0.7-1.1-1.4-1c-0.7,0-1,0.2-1,0.8
			s0.3,0.8,1.3,1s2,0.5,2,1.7c0,1-0.7,1.7-2.1,1.7C577.4,161.7,576.8,161.3,576.5,160.7z"/>
		<path d="M533.2,172.4v-0.7h0.8v-7h-0.8v-0.8h1.7v3.7c0.4-0.7,1-1.1,1.8-1.1c1.2,0,2,0.6,2,2.3v2.9h0.8v0.7H537v-0.7h0.8v-2.9
			c0-1-0.4-1.4-1.3-1.4c-0.8,0-1.5,0.6-1.6,1.4c0,0,0,0.1,0,0.1v2.8h0.8v0.7H533.2z"/>
		<path d="M540.1,172.4v-0.7h0.8v-4.3h-0.8v-0.8h1.7v5h0.8v0.8H540.1z M540.7,164.8c0-0.3,0.3-0.6,0.6-0.6s0.6,0.3,0.6,0.6l0,0
			c0,0.3-0.3,0.6-0.6,0.6S540.7,165.1,540.7,164.8z"/>
		<path d="M544.1,171.7v0.7h-0.8v-1.9h0.8c0.1,0.8,0.8,1.3,1.5,1.3c0.8,0,1.2-0.3,1.2-1s-0.5-0.8-1.3-1c-1.5-0.3-2-0.8-2-1.8
			c0-0.9,0.8-1.6,1.7-1.5c0,0,0.1,0,0.1,0c0.6-0.1,1.2,0.2,1.4,0.7v-0.6h0.8v1.7h-0.8c-0.1-0.6-0.7-1.1-1.4-1
			c-0.7,0-1.1,0.2-1.1,0.8s0.3,0.8,1.3,1s2,0.5,2,1.7c0,1-0.7,1.7-2.1,1.7C544.9,172.6,544.3,172.3,544.1,171.7z"/>
		<path d="M549.2,171v-3.5h-0.8v-0.8h0.8v-1.3h0.9v1.3h1.5v0.8h-1.5v3.5c-0.1,0.4,0.2,0.8,0.6,0.8c0.1,0,0.1,0,0.2,0
			c0.3,0,0.5,0,0.7-0.1v0.8c-0.3,0.1-0.5,0.1-0.8,0.1C549.7,172.5,549.2,171.9,549.2,171z"/>
		<path d="M552.3,169.6L552.3,169.6c0-1.7,1.3-2.9,2.8-2.9c1.6,0,2.8,1.3,2.8,2.8c0,0,0,0,0,0v0.1c0,1.6-1.3,2.8-2.8,2.8
			C553.6,172.4,552.3,171.2,552.3,169.6C552.3,169.6,552.3,169.6,552.3,169.6z M557,169.6L557,169.6c0-1.4-0.7-2.3-1.9-2.3
			s-1.9,0.9-1.9,2.2v0.1c0,1.3,0.7,2.2,1.9,2.2c1,0,1.9-0.9,1.9-1.9C557,169.7,557,169.7,557,169.6L557,169.6z"/>
		<path d="M558.8,172.4v-0.7h0.8v-4.3h-0.8v-0.8h1.7v1.1c0.4-0.8,1.2-1.3,2.1-1.2v0.9c-1.2,0-2.1,0.4-2.1,1.8v2.4h0.9v0.7H558.8z"/>
		<path d="M563.3,172.4v-0.7h0.8v-4.3h-0.8v-0.8h1.7v5h0.8v0.8H563.3z M563.9,164.8c0-0.3,0.3-0.6,0.6-0.6s0.6,0.3,0.6,0.6l0,0
			c0,0.3-0.3,0.6-0.6,0.6S563.9,165.1,563.9,164.8z"/>
		<path d="M570.2,174.4v-0.7h0.9v-2.3c-0.4,0.7-1.2,1.1-2,1.1c-1.4,0-2.6-1.1-2.6-2.5c0-0.1,0-0.2,0-0.3v-0.1
			c-0.1-1.5,0.9-2.8,2.4-3c0.1,0,0.2,0,0.2,0c0.8,0,1.5,0.3,1.9,1v-0.9h1.7v0.7H572v6.3h0.8v0.7L570.2,174.4z M571.1,169.6
			L571.1,169.6c0-1.6-0.7-2.3-1.8-2.3s-1.8,0.8-1.8,2.2v0.1c0,1.5,0.8,2.1,1.8,2.1S571.1,171,571.1,169.6z"/>
		<path d="M576.1,172.5c-1.1,0-2-0.6-2-2.3v-2.9h-0.8v-0.8h1.7v3.6c0,1,0.5,1.5,1.3,1.5c0.8,0,1.5-0.6,1.5-1.4c0,0,0-0.1,0-0.1v-2.7
			H577v-0.8h1.7v5h0.8v0.8h-1.7v-1C577.5,172,576.8,172.5,576.1,172.5z"/>
		<path d="M580.2,169.6L580.2,169.6c-0.1-1.6,1-2.9,2.5-3c0.1,0,0.2,0,0.2,0c1.4-0.1,2.6,1,2.6,2.4c0,0.1,0,0.3,0,0.4v0.3h-4.3
			c0,1.3,0.7,2,1.8,2c0.9,0,1.4-0.3,1.5-1h0.9c-0.2,1.1-1.3,1.9-2.5,1.8c-1.5,0.1-2.7-1.1-2.8-2.6
			C580.2,169.8,580.2,169.7,580.2,169.6z M584.5,169c-0.1-1.2-0.7-1.7-1.7-1.7c-0.9,0-1.7,0.7-1.7,1.7H584.5z"/>
	</g>
	<rect x="498" y="-4" class="st0" width="103.1" height="31.5"/>
	<path d="M532.7,0h3.2c0.6,0,1.2,0.1,1.7,0.3c0.5,0.2,0.9,0.5,1.3,0.9c0.4,0.4,0.7,0.9,0.8,1.4c0.2,0.6,0.3,1.2,0.3,1.8
		c0,0.6-0.1,1.2-0.3,1.8c-0.2,0.5-0.5,1-0.8,1.4c-0.4,0.4-0.8,0.7-1.3,0.9c-0.5,0.2-1.1,0.3-1.7,0.3h-3.2V0z M535.9,7.7
		c0.4,0,0.8-0.1,1.1-0.2c0.3-0.2,0.6-0.4,0.9-0.7c0.2-0.3,0.4-0.6,0.6-1c0.1-0.4,0.2-0.9,0.2-1.3c0-0.5-0.1-0.9-0.2-1.3
		c-0.1-0.4-0.3-0.7-0.6-1c-0.5-0.6-1.2-0.9-2-0.9H534v6.6L535.9,7.7z"/>
	<path d="M547.3,6.7c0,0.3-0.1,0.6-0.2,0.9c-0.1,0.3-0.3,0.5-0.6,0.7c-0.3,0.2-0.5,0.4-0.9,0.5c-0.4,0.1-0.7,0.2-1.1,0.2
		c-0.5,0-0.9-0.1-1.4-0.2c-0.4-0.1-0.7-0.4-0.9-0.7c-0.3-0.3-0.4-0.6-0.5-1c-0.1-0.4-0.2-0.9-0.2-1.4c0-0.5,0.1-0.9,0.2-1.3
		c0.1-0.4,0.3-0.7,0.6-1.1c0.3-0.3,0.6-0.5,0.9-0.7c0.8-0.3,1.8-0.3,2.6,0c0.3,0.1,0.6,0.4,0.9,0.7c0.2,0.3,0.4,0.6,0.5,1
		c0.1,0.5,0.2,0.9,0.2,1.4v0.2h-4.5c0,0.6,0.1,1.1,0.5,1.6c0.3,0.3,0.7,0.5,1.2,0.5c0.4,0,0.8-0.1,1.1-0.3c0.3-0.3,0.5-0.6,0.5-1
		L547.3,6.7z M546.1,5c0-0.4-0.1-0.9-0.4-1.2c-0.3-0.3-0.7-0.5-1.1-0.5c-0.4,0-0.8,0.1-1.2,0.4c-0.3,0.3-0.5,0.8-0.5,1.3H546.1z
		 M545.2,0h1.6L545,1.7h-1L545.2,0z"/>
	<path d="M549.2,0h1.3v3.4l0,0c0.2-0.3,0.5-0.6,0.8-0.8c0.4-0.2,0.8-0.3,1.3-0.3c0.4,0,0.8,0.1,1.2,0.2c0.3,0.2,0.6,0.4,0.8,0.7
		c0.2,0.3,0.4,0.6,0.5,1c0.1,0.4,0.2,0.9,0.2,1.3c0,0.5-0.1,0.9-0.2,1.4c-0.1,0.4-0.3,0.7-0.5,1.1c-0.2,0.3-0.5,0.5-0.9,0.7
		c-0.4,0.2-0.8,0.2-1.2,0.2c-0.4,0-0.9-0.1-1.2-0.3c-0.3-0.2-0.6-0.5-0.8-0.8l0,0v1h-1.3V0z M552.2,8c0.5,0,1-0.2,1.3-0.6
		c0.4-0.5,0.5-1.1,0.5-1.8c0-0.6-0.1-1.2-0.5-1.7c-0.3-0.4-0.8-0.6-1.3-0.6c-0.5,0-1,0.2-1.3,0.6c-0.3,0.5-0.4,1.1-0.4,1.7
		c0,0.6,0.1,1.2,0.4,1.7C551.1,7.8,551.6,8,552.2,8L552.2,8z"/>
	<path d="M556.9,2.4h1.3v3.8c0,0.4,0.1,0.8,0.3,1.2c0.2,0.3,0.6,0.4,0.9,0.4c0.4,0,0.9-0.1,1.2-0.5c0.3-0.4,0.5-0.8,0.4-1.3V2.4h1.3
		v6.4H561v-1l0,0c-0.2,0.3-0.5,0.6-0.8,0.8C559.8,8.9,559.4,9,559,9c-0.6,0.1-1.2-0.2-1.6-0.6c-0.3-0.5-0.5-1.1-0.5-1.7L556.9,2.4z"
		/>
	<path d="M564.4,3.5h-0.9V2.4h0.9V0.8h1.3v1.7h1.5v1.1h-1.5v3.4c0,0.3,0.1,0.5,0.2,0.7c0.2,0.2,0.4,0.2,0.7,0.2h0.3h0.3v1.1L566.8,9
		c-0.2,0-0.3,0-0.5,0c-1,0.1-1.9-0.5-2-1.5c0-0.2,0-0.3,0-0.5L564.4,3.5z"/>
	<path d="M508.2,19.8L508.2,19.8c-0.2,0.3-0.5,0.6-0.8,0.8c-0.4,0.2-0.8,0.3-1.3,0.3c-0.4,0-0.8-0.1-1.2-0.2
		c-0.3-0.2-0.6-0.4-0.9-0.7c-0.2-0.3-0.4-0.6-0.5-1c-0.1-0.4-0.2-0.9-0.2-1.3c0-0.5,0.1-0.9,0.2-1.4c0.1-0.4,0.3-0.7,0.5-1.1
		c0.2-0.3,0.5-0.5,0.9-0.7c0.4-0.2,0.8-0.3,1.2-0.2c0.4,0,0.9,0.1,1.3,0.3c0.3,0.2,0.6,0.5,0.8,0.8l0,0V12h1.3v8.9h-1.3L508.2,19.8z
		 M506.5,20c0.5,0,1-0.2,1.3-0.6c0.3-0.5,0.4-1.1,0.4-1.8c0-0.6-0.1-1.2-0.4-1.7c-0.3-0.4-0.8-0.7-1.3-0.6c-0.5,0-1,0.2-1.3,0.6
		c-0.6,1.1-0.6,2.4,0,3.5C505.5,19.8,506,20,506.5,20z"/>
	<path d="M511.6,14.4h1.3v3.8c0,0.4,0.1,0.8,0.3,1.2c0.2,0.3,0.6,0.4,0.9,0.4c0.4,0,0.9-0.1,1.2-0.5c0.3-0.4,0.5-0.8,0.4-1.3v-3.7
		h1.3v6.4h-1.3v-1l0,0c-0.2,0.3-0.5,0.6-0.8,0.8c-0.4,0.2-0.8,0.3-1.2,0.3c-0.6,0.1-1.2-0.2-1.6-0.6c-0.3-0.5-0.5-1.1-0.5-1.7
		L511.6,14.4z"/>
	<path d="M528,18.5c0,0.7-0.3,1.4-0.8,1.8c-0.6,0.4-1.3,0.7-2,0.6c-0.5,0-0.9-0.1-1.3-0.2c-0.4-0.1-0.7-0.4-1-0.7
		c-0.3-0.3-0.4-0.7-0.6-1.1c-0.3-0.9-0.3-1.8,0-2.7c0.1-0.4,0.3-0.7,0.6-1.1c0.3-0.3,0.6-0.5,1-0.7c0.4-0.2,0.9-0.3,1.3-0.2
		c0.7,0,1.4,0.2,2,0.7c0.5,0.5,0.8,1.2,0.8,1.9h-1.3c0-0.4-0.2-0.8-0.5-1.1c-0.3-0.3-0.7-0.4-1.1-0.4c-0.5,0-1,0.2-1.3,0.6
		c-0.6,1.1-0.6,2.4,0,3.4c0.3,0.4,0.8,0.6,1.3,0.6c0.8,0.1,1.4-0.5,1.5-1.2c0-0.1,0-0.1,0-0.2L528,18.5z"/>
	<path d="M532.6,21c-0.5,0-0.9-0.1-1.3-0.2c-0.4-0.2-0.7-0.4-1-0.7c-0.3-0.3-0.5-0.6-0.6-1c-0.2-0.4-0.2-0.9-0.2-1.4
		c0-0.5,0.1-0.9,0.2-1.4c0.1-0.4,0.4-0.7,0.6-1c0.3-0.3,0.6-0.5,1-0.7c0.4-0.2,0.9-0.2,1.3-0.2c0.5,0,0.9,0.1,1.3,0.2
		c0.8,0.3,1.4,0.9,1.7,1.7c0.2,0.4,0.2,0.9,0.2,1.4c0,0.5-0.1,0.9-0.2,1.4c-0.3,0.8-0.9,1.4-1.7,1.7C533.5,21,533.1,21,532.6,21z
		 M532.6,20c0.5,0,1-0.2,1.4-0.6c0.7-1,0.7-2.4,0-3.4c-0.7-0.8-1.9-0.8-2.7-0.2c-0.1,0-0.1,0.1-0.2,0.2c-0.7,1-0.7,2.4,0,3.4
		C531.5,19.8,532.1,20,532.6,20z"/>
	<path d="M537.5,14.4h1.3v1l0,0c0.2-0.3,0.5-0.6,0.8-0.8c0.4-0.2,0.8-0.3,1.3-0.3c0.6-0.1,1.2,0.2,1.6,0.6c0.3,0.5,0.5,1.1,0.5,1.7
		v4.2h-1.3V17c0-0.4-0.1-0.8-0.3-1.2c-0.2-0.3-0.6-0.5-1-0.4c-0.5,0-0.9,0.2-1.2,0.5c-0.3,0.3-0.5,0.8-0.5,1.3v3.7h-1.3L537.5,14.4z
		"/>
	<path d="M545.2,15.5h-0.8v-1.1h0.8v-0.6c-0.1-0.6,0.1-1.1,0.5-1.6c0.4-0.3,0.9-0.5,1.4-0.5h0.4c0.1,0,0.3,0,0.4,0.1V13h-0.3h-0.3
		c-0.2,0-0.5,0.1-0.7,0.2c-0.2,0.2-0.2,0.4-0.2,0.7v0.6h1.4v1.1h-1.4v5.4h-1.3V15.5z"/>
	<path d="M549.8,13.3c-0.4,0-0.8-0.3-0.8-0.7c0,0,0-0.1,0-0.1c0-0.2,0.1-0.4,0.2-0.6c0.3-0.3,0.9-0.3,1.2,0c0.2,0.2,0.2,0.4,0.2,0.6
		c0,0.2-0.1,0.4-0.2,0.6C550.3,13.2,550,13.3,549.8,13.3z M549.2,14.4h1.3v6.4h-1.3V14.4z"/>
	<path d="M552.5,14.4h1.3v1l0,0c0.4-0.7,1.2-1.2,2.1-1.1c0.6-0.1,1.2,0.2,1.6,0.6c0.3,0.5,0.5,1.1,0.5,1.7v4.2h-1.3V17
		c0-0.4-0.1-0.8-0.3-1.2c-0.2-0.3-0.6-0.5-1-0.4c-0.5,0-0.9,0.2-1.2,0.5c-0.3,0.3-0.5,0.8-0.5,1.3v3.7h-1.3L552.5,14.4z"/>
	<path d="M565.5,18.7c0,0.3-0.1,0.6-0.2,0.9c-0.1,0.3-0.3,0.5-0.6,0.7c-0.3,0.2-0.5,0.4-0.9,0.5c-0.4,0.1-0.7,0.2-1.1,0.2
		c-0.5,0-0.9-0.1-1.4-0.2c-0.4-0.2-0.7-0.4-0.9-0.7c-0.3-0.3-0.4-0.6-0.5-1c-0.1-0.4-0.2-0.9-0.2-1.4c0-0.5,0.1-0.9,0.2-1.3
		c0.1-0.4,0.3-0.7,0.6-1.1c0.3-0.3,0.6-0.5,0.9-0.7c0.8-0.3,1.8-0.3,2.6,0c0.3,0.1,0.6,0.4,0.9,0.7c0.2,0.3,0.4,0.6,0.5,1
		c0.1,0.5,0.2,0.9,0.2,1.4v0.2H561c0,0.6,0.1,1.1,0.5,1.6c0.3,0.3,0.7,0.5,1.2,0.5c0.4,0,0.8-0.1,1.1-0.3c0.3-0.2,0.5-0.6,0.5-1
		L565.5,18.7z M564.2,17c0-0.4-0.1-0.9-0.4-1.2c-0.3-0.3-0.7-0.5-1.1-0.5c-0.4,0-0.8,0.1-1.2,0.4c-0.3,0.3-0.5,0.8-0.5,1.3H564.2z"
		/>
	<path d="M567.3,14.4h1.3v1l0,0c0.2-0.3,0.4-0.6,0.7-0.8c0.3-0.2,0.7-0.3,1.2-0.3c0.4,0,0.8,0.1,1.2,0.3c0.3,0.2,0.5,0.5,0.6,0.9
		l0,0c0.2-0.4,0.5-0.7,0.8-0.9c0.4-0.2,0.8-0.3,1.2-0.3c0.6,0,1.1,0.2,1.5,0.6c0.4,0.5,0.5,1.1,0.5,1.8v4.2H575V17
		c0-0.4-0.1-0.8-0.3-1.2c-0.2-0.3-0.5-0.4-0.8-0.4c-0.4,0-0.8,0.1-1.1,0.4c-0.3,0.3-0.4,0.8-0.4,1.2v3.8h-1.3V17
		c0-0.4-0.1-0.8-0.2-1.2c-0.2-0.3-0.5-0.4-0.9-0.4c-0.4,0-0.8,0.2-1.1,0.5c-0.3,0.4-0.4,0.8-0.4,1.3v3.7h-1.3L567.3,14.4z"/>
	<path d="M583.8,18.7c0,0.3-0.1,0.6-0.2,0.9c-0.1,0.3-0.3,0.5-0.6,0.7c-0.3,0.2-0.5,0.4-0.9,0.5c-0.4,0.1-0.7,0.2-1.1,0.2
		c-0.5,0-0.9-0.1-1.3-0.2c-0.4-0.1-0.7-0.4-0.9-0.7c-0.3-0.3-0.4-0.6-0.5-1c-0.1-0.4-0.2-0.9-0.2-1.4c0-0.5,0.1-0.9,0.2-1.3
		c0.1-0.4,0.3-0.7,0.6-1.1c0.3-0.3,0.6-0.5,0.9-0.7c0.8-0.3,1.8-0.3,2.6,0c0.3,0.1,0.6,0.4,0.9,0.7c0.2,0.3,0.4,0.6,0.5,1
		c0.1,0.5,0.2,0.9,0.2,1.4v0.2h-4.5c0,0.6,0.1,1.1,0.5,1.6c0.3,0.3,0.7,0.5,1.2,0.5c0.4,0,0.8-0.1,1.1-0.3c0.3-0.2,0.5-0.6,0.5-1
		L583.8,18.7z M582.5,17c0-0.4-0.1-0.9-0.4-1.2c-0.3-0.3-0.7-0.5-1.1-0.4c-0.4,0-0.8,0.1-1.2,0.4c-0.3,0.3-0.5,0.8-0.5,1.3L582.5,17
		z"/>
	<path d="M585.6,14.4h1.3v1l0,0c0.2-0.3,0.5-0.6,0.8-0.8c0.4-0.2,0.8-0.3,1.3-0.3c0.6-0.1,1.2,0.2,1.6,0.6c0.3,0.5,0.5,1.1,0.5,1.7
		v4.2h-1.3V17c0-0.4-0.1-0.8-0.3-1.2c-0.2-0.3-0.6-0.5-1-0.4c-0.5,0-0.9,0.2-1.2,0.5c-0.3,0.3-0.5,0.8-0.5,1.3v3.7h-1.3L585.6,14.4z
		"/>
	<path d="M593.2,15.5h-0.9v-1.1h0.9v-1.7h1.3v1.7h1.5v1.1h-1.5v3.4c0,0.3,0.1,0.5,0.2,0.7c0.2,0.2,0.4,0.2,0.7,0.2h0.3h0.3v1.1
		l-0.4,0.1c-0.1,0-0.3,0-0.5,0c-0.5,0-1-0.1-1.5-0.5c-0.4-0.4-0.6-1-0.5-1.6L593.2,15.5z"/>
</g>
</svg>
