<?xml version="1.0" encoding="utf-8"?>
<!-- Generator: Adobe Illustrator 24.0.3, SVG Export Plug-In . SVG Version: 6.00 Build 0)  -->
<svg version="1.1" id="Calque_1" xmlns="http://www.w3.org/2000/svg" xmlns:xlink="http://www.w3.org/1999/xlink" x="0px" y="0px"
	 viewBox="0 0 600 554.4" style="enable-background:new 0 0 600 554.4;" xml:space="preserve">
<style type="text/css">
	.st0{fill:none;stroke:#000000;stroke-width:0.75;stroke-miterlimit:10;}
	.st1{fill:#E3234A;}
	.st2{fill:none;stroke:#231F20;stroke-width:0.5;stroke-miterlimit:10;stroke-dasharray:5,2;}
	.st3{fill:none;}
	.st4{fill:none;stroke:#FFFFFF;stroke-width:0.5;stroke-miterlimit:10;}
	.st5{fill:#231F20;}
	.st6{fill:#FFFFFF;}
	.st7{fill:none;stroke:#000000;stroke-width:2;stroke-miterlimit:10;}
	.st8{fill:#FFFFFF;stroke:#000000;stroke-width:2;stroke-miterlimit:10;}
</style>
<title>LIB-2020-05-07-comage-cat-A</title>
<g id="EXPRESSION_LIBRE">
	<line class="st0" x1="52.9" y1="13.3" x2="541.4" y2="13.3"/>
	<polygon points="56.7,17.9 57.4,17.1 53.4,13.3 57.4,9.6 56.7,8.7 51.7,13.3 	"/>
	<polygon points="537.6,17.9 536.9,17.1 540.9,13.3 536.9,9.6 537.6,8.7 542.6,13.3 	"/>
	<path d="M510.4,540.3v-1.4h0.8v-4.4h-0.8v-1.5h2.8v1.2c0.4-0.9,1.3-1.4,2.2-1.4c0.9,0,1.7,0.5,2,1.4c0.5-0.9,1.4-1.4,2.4-1.4
		c1.3,0,2.4,0.8,2.4,2.8v3.2h0.8v1.4h-3.6v-1.4h0.8v-3.1c0-0.9-0.4-1.4-1.1-1.4c-0.8,0-1.4,0.6-1.4,1.4c0,0.1,0,0.1,0,0.2v2.9h0.8
		v1.4h-3.6v-1.4h0.8v-3.1c0-0.9-0.4-1.4-1.1-1.4c-0.8,0-1.4,0.6-1.4,1.4c0,0,0,0.1,0,0.1v2.9h0.8v1.4H510.4z"/>
	<path d="M526,540.4c-1.2,0.2-2.3-0.6-2.4-1.8c0-0.1,0-0.2,0-0.4c0-1.8,1.6-2.3,3.8-2.3h0.8v-0.3c0-0.9-0.3-1.3-1.2-1.3
		c-0.6-0.1-1.1,0.3-1.2,0.9c0,0,0,0.1,0,0.1h-1.9c0.1-1.8,1.5-2.5,3.2-2.5s3,0.7,3,2.7v3.3h0.8v1.4h-2.7v-1
		C527.8,540,526.9,540.5,526,540.4z M528.2,537.7v-0.6h-0.8c-1.2,0-1.8,0.3-1.8,1c0,0.5,0.3,0.9,1,0.9S528.2,538.5,528.2,537.7
		L528.2,537.7z"/>
	<path d="M531.5,540.3v-1.4h0.8v-4.4h-0.8v-1.5h2.8v1.5c0.4-1,1.4-1.7,2.5-1.6v1.9c-1.6,0-2.5,0.5-2.5,1.8v2.2h0.9v1.4L531.5,540.3z
		"/>
	<path d="M539,539.5v0.8h-1.5v-2.4h1.5c0.1,0.8,0.8,1.3,1.5,1.3c0.8,0,1.2-0.3,1.2-0.9s-0.5-0.8-1.5-0.9c-2-0.3-2.7-1-2.7-2.3
		c0-1.2,1-2.2,2.2-2.2c0.1,0,0.2,0,0.3,0c1.2,0,1.7,0.4,1.9,0.8v-0.7h1.4v2.2H542c-0.2-0.7-0.8-1.1-1.5-1.1c-0.6,0-1,0.2-1,0.8
		s0.3,0.7,1.4,0.9c1.8,0.2,2.8,0.8,2.8,2.3s-1,2.4-2.7,2.4C540.3,540.5,539.5,540.2,539,539.5z"/>
	<path d="M514,551.4h1.8v2.8h-7.5v-1.2l3.5-3.3c1.2-1.1,1.6-1.8,1.6-2.6c0.1-0.7-0.4-1.2-1.1-1.3c-0.1,0-0.1,0-0.2,0
		c-0.9,0-1.4,0.5-1.6,1.8h-2.1c-0.1-1.9,1.4-3.5,3.3-3.6c0.1,0,0.3,0,0.4,0c2.2,0,3.5,1.1,3.5,2.9c0,1.4-0.8,2.4-2.1,3.5l-2.4,2.2
		h2.9V551.4z"/>
	<path d="M516.8,549.5V549c0-3.1,1.8-4.9,4.4-4.9s4.4,1.8,4.4,4.9v0.5c0,3.1-1.7,5-4.4,5S516.8,552.6,516.8,549.5z M523.3,549.5V549
		c0-2-0.7-3.2-2.1-3.2s-2.1,1.1-2.1,3.2v0.5c0,2.1,0.7,3.2,2.1,3.2S523.3,551.6,523.3,549.5L523.3,549.5z"/>
	<path d="M532.1,551.4h1.8v2.8h-7.5v-1.2l3.5-3.3c1.2-1.1,1.6-1.8,1.6-2.6c0.1-0.7-0.4-1.2-1.1-1.3c-0.1,0-0.1,0-0.2,0
		c-0.9,0-1.4,0.5-1.6,1.8h-2.1c-0.1-1.9,1.4-3.5,3.3-3.6c0.1,0,0.3,0,0.4,0c2.2,0,3.5,1.1,3.5,2.9c0,1.4-0.8,2.4-2.1,3.5l-2.4,2.2
		h2.9L532.1,551.4z"/>
	<path d="M534.8,549.5V549c0-3.1,1.8-4.9,4.4-4.9s4.4,1.8,4.4,4.9v0.5c0,3.1-1.7,5-4.4,5S534.8,552.6,534.8,549.5z M541.3,549.5V549
		c0-2-0.7-3.2-2.1-3.2s-2.1,1.1-2.1,3.2v0.5c0,2.1,0.7,3.2,2.1,3.2S541.3,551.6,541.3,549.5L541.3,549.5z"/>
	<polygon class="st1" points="544.1,524.7 51.1,524.7 51.1,69.8 92.2,70.9 133.3,71.4 174.4,70.8 215.5,71.7 256.5,74.3 297.6,77.7 
		338.7,78.9 379.8,82.1 420.9,83.9 462,86.8 503,89.8 544.1,59 	"/>
	<line class="st2" x1="523" y1="75.5" x2="523" y2="524.7"/>
	<ellipse class="st3" cx="10.6" cy="69.8" rx="1.1" ry="1"/>
	<ellipse class="st3" cx="92.2" cy="70.8" rx="1.1" ry="1"/>
	<ellipse class="st3" cx="133.3" cy="71.4" rx="1.1" ry="1"/>
	<ellipse class="st3" cx="174.4" cy="70.8" rx="1.1" ry="1"/>
	<ellipse class="st3" cx="215.5" cy="71.8" rx="1.1" ry="1"/>
	<ellipse class="st3" cx="256.5" cy="74.5" rx="1.1" ry="1"/>
	<ellipse class="st3" cx="297.6" cy="77.8" rx="1.1" ry="1"/>
	<ellipse class="st3" cx="338.7" cy="78.8" rx="1.1" ry="1"/>
	<ellipse class="st3" cx="379.8" cy="82.2" rx="1.1" ry="1"/>
	<ellipse class="st3" cx="420.9" cy="84.2" rx="1.1" ry="1"/>
	<ellipse class="st3" cx="462" cy="86.8" rx="1.1" ry="1"/>
	<ellipse class="st3" cx="503" cy="89.8" rx="1.1" ry="1"/>
	<ellipse class="st3" cx="543.7" cy="59.1" rx="1.1" ry="1"/>
	<line class="st4" x1="51.1" y1="524.7" x2="51.1" y2="35.2"/>
	<line class="st4" x1="92.2" y1="524.7" x2="92.2" y2="35.2"/>
	<line class="st4" x1="133.3" y1="524.7" x2="133.3" y2="35.2"/>
	<line class="st4" x1="174.4" y1="524.7" x2="174.4" y2="35.2"/>
	<line class="st4" x1="215.5" y1="524.7" x2="215.5" y2="35.2"/>
	<line class="st4" x1="256.5" y1="524.7" x2="256.5" y2="35.2"/>
	<line class="st4" x1="297.6" y1="524.7" x2="297.6" y2="35.2"/>
	<line class="st4" x1="338.7" y1="524.7" x2="338.7" y2="35.2"/>
	<line class="st4" x1="379.8" y1="524.7" x2="379.8" y2="35.2"/>
	<line class="st4" x1="420.9" y1="524.7" x2="420.9" y2="35.2"/>
	<line class="st4" x1="462" y1="524.7" x2="462" y2="35.2"/>
	<line class="st4" x1="503" y1="524.7" x2="503" y2="35.2"/>
	<line class="st4" x1="544.1" y1="524.7" x2="544.1" y2="35.2"/>
	<path d="M513.6,32.7v3.3h-1.3v-3.3h-3.1v-1.3h3.1v-3.3h1.3v3.3h3.1v1.3L513.6,32.7z"/>
	<path d="M517.8,42.3c0-10.2,2.2-14.2,3.1-18.1h-4.4v-3.1h7.6v2.7c-1.2,4.7-3.2,8.4-3.2,18.5L517.8,42.3z"/>
	<path d="M523.5,43.6l0.9-1.3h-0.9v-2.8h3v2.8l-0.9,1.3H523.5z"/>
	<path d="M528.5,42.3V25.2l-2.1,0.9v-3.1l4.2-1.8h1v21.2L528.5,42.3z"/>
	<path d="M533.7,27.4v-3.8c0-2.1,0.4-2.6,2.1-2.6s2.1,0.6,2.1,2.6v3.8c0,2.1-0.5,2.6-2.1,2.6S533.7,29.5,533.7,27.4z M541.7,21.1
		l-6.9,21.2H534l6.9-21.2H541.7z M536.1,27.6v-4.2c0-0.6-0.1-0.7-0.3-0.7s-0.3,0.2-0.3,0.6v4.4c0,0.4,0.1,0.6,0.3,0.6
		S536.1,28.2,536.1,27.6L536.1,27.6z M537.9,39.6v-3.8c0-2.1,0.4-2.6,2.1-2.6s2.1,0.6,2.1,2.6v3.8c0,2.1-0.5,2.6-2.1,2.6
		S537.9,41.7,537.9,39.6L537.9,39.6z M540.2,39.8v-4.2c0-0.6-0.1-0.7-0.3-0.7s-0.3,0.2-0.3,0.6v4.4c0,0.4,0.1,0.6,0.3,0.6
		S540.3,40.4,540.2,39.8L540.2,39.8z"/>
	<path class="st5" d="M491.5,53.5L491.5,53.5c-0.1-1.6,1-3,2.6-3.1c0.1,0,0.2,0,0.3,0c1.4-0.1,2.7,1,2.8,2.4c0,0.2,0,0.3,0,0.5v0.3
		h-4.6c-0.1,1,0.7,1.9,1.7,2c0.1,0,0.2,0,0.3,0c1,0,1.5-0.3,1.6-1h1c-0.2,1.2-1.2,1.8-2.6,1.8c-1.5,0.1-2.9-1-3-2.6
		C491.5,53.6,491.5,53.5,491.5,53.5z M496.1,52.8c0.1-0.9-0.6-1.6-1.5-1.7c-0.1,0-0.2,0-0.3,0c-1,0-1.8,0.7-1.8,1.7H496.1z"/>
	<path class="st5" d="M498,56.3v-0.7h0.9v-4.3H498v-0.7h1.9v1c0.4-0.7,1.1-1.1,1.9-1.1c1.2,0,2.1,0.6,2.1,2.3v2.9h0.9v0.7H502v-0.7
		h0.9v-2.9c0.1-0.7-0.4-1.3-1.1-1.4c-0.1,0-0.3,0-0.4,0c-0.9-0.1-1.6,0.6-1.7,1.4c0,0,0,0.1,0,0.1v2.8h0.9v0.7L498,56.3z"/>
	<path class="st5" d="M508.3,56.3v-0.8h1.7v-6.2l-1.9,1.3v-0.9l2-1.3h0.9v7.1h1.7v0.8H508.3z"/>
	<path class="st5" d="M516.1,56.3v-0.7h0.9v-4.3H516v-0.7h1.9v0.9c0.4-0.6,1.1-1,1.8-1c0.8-0.1,1.5,0.4,1.8,1.2
		c0.4-0.7,1.2-1.2,2-1.2c1.1,0,2,0.6,2,2.3v2.8h0.9v0.7h-2.7v-0.7h0.9v-2.9c0-1-0.4-1.4-1.3-1.4c-0.8-0.1-1.5,0.6-1.6,1.4
		c0,0,0,0.1,0,0.1v2.8h0.9v0.7h-2.7v-0.7h0.9v-2.9c0-1-0.4-1.4-1.3-1.4c-0.8-0.1-1.5,0.6-1.6,1.4c0,0,0,0.1,0,0.1v2.8h0.9v0.7
		L516.1,56.3z"/>
	<path class="st5" d="M527.1,53.4L527.1,53.4c0-1.8,1.4-3.1,3-3.1c1.7,0,3,1.4,3,3v0.1c0,1.7-1.4,3-3,3
		C528.4,56.5,527.1,55.1,527.1,53.4L527.1,53.4z M532.1,53.4L532.1,53.4c0-1.2-0.9-2.1-2-2.1s-2,0.9-2,2v0.1c0,1.1,0.9,2,2,2
		S532.1,54.6,532.1,53.4L532.1,53.4z"/>
	<path class="st5" d="M534,56.3v-0.7h0.9v-4.3H534v-0.7h1.9v5h0.9v0.7L534,56.3z M534.6,48.7c0-0.4,0.4-0.6,0.8-0.6
		c0.3,0,0.6,0.3,0.6,0.6c0,0.4-0.4,0.6-0.8,0.6C534.9,49.3,534.7,49,534.6,48.7z"/>
	<path class="st5" d="M538.3,55.6v0.7h-0.8v-1.9h0.8c0.2,0.8,0.9,1.3,1.7,1.3c0.8,0,1.3-0.3,1.3-0.9s-0.5-0.8-1.5-1
		c-1.6-0.3-2.1-0.8-2.1-1.8s0.9-1.5,1.9-1.5c0.9,0,1.3,0.3,1.5,0.7v-0.6h0.8v1.7h-0.8c-0.2-0.6-0.8-1.1-1.5-1
		c-0.7,0-1.1,0.3-1.1,0.8s0.3,0.8,1.4,1s2.2,0.5,2.2,1.7c0,1-0.8,1.7-2.2,1.7C539.2,56.5,538.6,56.2,538.3,55.6z"/>
	<rect x="505.7" y="284.6" class="st1" width="28.3" height="30.6"/>
	<path d="M51.5,540.3v-1.4h0.8v-4.4h-0.8v-1.5h2.8v1.2c0.4-0.9,1.3-1.4,2.2-1.4c0.9,0,1.7,0.5,2,1.4c0.5-0.9,1.4-1.4,2.4-1.4
		c1.3,0,2.4,0.8,2.4,2.8v3.2H64v1.4h-3.6v-1.4h0.8v-3.1c0-0.9-0.4-1.4-1.1-1.4c-0.8,0-1.4,0.6-1.4,1.4c0,0.1,0,0.1,0,0.2v2.9h0.8
		v1.4H56v-1.5h0.8v-3.1c0-0.9-0.4-1.4-1.1-1.4c-0.8,0-1.4,0.6-1.4,1.3c0,0.1,0,0.2,0,0.2v2.9H55v1.4L51.5,540.3z"/>
	<path d="M67.1,540.4c-1.2,0.2-2.2-0.6-2.4-1.8c0-0.1,0-0.3,0-0.4c0-1.8,1.6-2.3,3.8-2.3h0.8v-0.3c0-0.9-0.3-1.3-1.2-1.3
		c-0.6-0.1-1.1,0.3-1.2,0.9c0,0,0,0.1,0,0.1H65c0.1-1.8,1.5-2.5,3.2-2.5s3,0.7,3,2.7v3.3H72v1.4h-2.7v-1
		C68.9,540,68,540.5,67.1,540.4z M69.3,537.7v-0.6h-0.8c-1.2,0-1.8,0.3-1.8,1c0,0.5,0.3,0.9,1,0.9C68.6,539,69.3,538.5,69.3,537.7z"
		/>
	<path d="M72.6,540.3v-1.4h0.8v-4.4h-0.8v-1.5h2.8v1.5c0.4-1,1.4-1.7,2.5-1.6v1.9c-1.6,0-2.5,0.5-2.5,1.8v2.2h0.9v1.4L72.6,540.3z"
		/>
	<path d="M80.1,539.5v0.8h-1.5v-2.4h1.5c0.1,0.8,0.8,1.3,1.6,1.3c0.8,0,1.2-0.3,1.2-0.9s-0.5-0.8-1.5-0.9c-1.9-0.3-2.7-1-2.7-2.3
		c0-1.2,1-2.2,2.2-2.2c0.1,0,0.2,0,0.3,0c1.2,0,1.7,0.4,1.9,0.8v-0.7h1.4v2.2h-1.4c-0.2-0.7-0.8-1.1-1.5-1.1c-0.6,0-1,0.2-1,0.8
		s0.3,0.7,1.4,0.9c1.8,0.2,2.8,0.8,2.8,2.3s-1,2.4-2.7,2.4C81.3,540.5,80.6,540.2,80.1,539.5z"/>
	<path d="M57.3,551.4H59v2.8h-7.5v-1.2l3.5-3.3c1.2-1.1,1.6-1.8,1.6-2.6c0.1-0.7-0.4-1.2-1.1-1.3c-0.1,0-0.1,0-0.2,0
		c-0.9,0-1.4,0.5-1.6,1.8h-2.1c-0.1-1.9,1.4-3.5,3.3-3.6c0.1,0,0.3,0,0.4,0c2.2,0,3.5,1.1,3.5,2.9c0,1.4-0.8,2.4-2.1,3.5l-2.4,2.2
		h2.9L57.3,551.4z"/>
	<path d="M60,549.5V549c0-3.1,1.8-4.9,4.4-4.9c2.6,0,4.4,1.8,4.4,4.9v0.5c0,3.1-1.7,5-4.4,5S60,552.6,60,549.5z M66.5,549.5V549
		c0-2-0.7-3.2-2.1-3.2s-2.1,1.1-2.1,3.2v0.5c0,2.1,0.7,3.2,2.1,3.2S66.5,551.6,66.5,549.5L66.5,549.5z"/>
	<path d="M70,554.3v-1.6h1.8v-6.2l-2,1.3v-2l2.2-1.5h2v8.4h1.7v1.6H70z"/>
	<path d="M76.4,551.6h2.1c0.1,0.7,0.8,1.2,1.5,1.1c0,0,0,0,0,0c1.3,0,2-1,2-3.1c-0.5,0.8-1.4,1.3-2.4,1.2c-1.7,0.1-3.2-1.1-3.3-2.9
		c0-0.1,0-0.3,0-0.4c0-2.1,1.5-3.5,3.9-3.5c2.8,0,4.1,1.9,4.1,4.8v0.5c0,3.3-1.5,5.1-4.2,5.1C77.9,554.4,76.6,553.4,76.4,551.6z
		 M81.9,547.6c0.1-0.9-0.6-1.8-1.5-1.9c-0.1,0-0.1,0-0.2,0c-1,0-1.8,0.7-1.8,1.7c0,1,0.7,1.8,1.7,1.8
		C81,549.3,81.8,548.6,81.9,547.6z"/>
	<rect x="273.8" y="5.2" class="st6" width="45.6" height="24.3"/>
	<path d="M282,11.6v3.2h-1.3v-3.2h-3.1v-1.3h3.1V7h1.3v3.3h3.1v1.3L282,11.6z"/>
	<path d="M284.9,18.3c4.3-11.2,4.4-11.2,4.4-12.4V5.1c0-1.7-0.2-2.1-0.6-2.1S288,3.3,288,5.1v1.4h-3.1V4.3c0-3.4,0.8-4.4,3.8-4.4
		s3.7,1,3.7,4.4v0.9c0,1.8-0.1,2-4.2,12.9h4.2v3.1h-7.5V18.3z"/>
	<path d="M294.3,22.5l0.9-1.3h-0.9v-2.8h3v2.8l-0.9,1.3H294.3z"/>
	<path d="M304.8,16.9v4.3h-3.1v-4.3h-4.1V15l2-15h5.2v13.8h0.6v3.1H304.8z M301.7,13.8V3.1l-1.1,10.6H301.7z"/>
	<path d="M306.9,6.4V2.5c0-2,0.4-2.6,2.1-2.6s2.1,0.6,2.1,2.6v3.8c0,2-0.4,2.6-2.1,2.6S306.9,8.4,306.9,6.4z M315,0l-6.9,21.2h-0.9
		l7-21.2H315z M309.3,6.5V2.3c0-0.6-0.1-0.7-0.3-0.7s-0.3,0.2-0.3,0.6v4.4c0,0.4,0.1,0.6,0.3,0.6S309.3,7.1,309.3,6.5z M311.1,18.5
		v-3.8c0-2,0.4-2.6,2.1-2.6s2.1,0.6,2.1,2.6v3.8c0,2-0.4,2.6-2.1,2.6S311.1,20.6,311.1,18.5L311.1,18.5z M313.5,18.7v-4.2
		c0-0.6-0.1-0.7-0.3-0.7s-0.3,0.2-0.3,0.6v4.4c0,0.4,0.1,0.6,0.3,0.6S313.5,19.3,313.5,18.7L313.5,18.7z"/>
	<path class="st5" d="M277.8,32.4L277.8,32.4c-0.1-1.6,1.1-2.9,2.6-3c0.1,0,0.2,0,0.3,0c1.4-0.1,2.7,1,2.8,2.4c0,0.1,0,0.3,0,0.5
		v0.3h-4.6c-0.1,1,0.7,1.9,1.7,2c0.1,0,0.2,0,0.3,0c1,0,1.5-0.3,1.6-1h1c-0.2,1.2-1.2,1.8-2.6,1.8c-1.5,0.1-2.9-1-3-2.5
		C277.8,32.6,277.8,32.5,277.8,32.4z M282.4,31.8c0-0.9-0.6-1.6-1.5-1.7c-0.1,0-0.2,0-0.3,0c-1,0-1.8,0.7-1.8,1.7H282.4z"/>
	<path class="st5" d="M284.2,35.2v-0.7h0.9v-4.3h-0.9v-0.8h1.9v1c0.4-0.7,1.1-1.1,1.9-1.1c1.2,0,2.1,0.6,2.1,2.3v2.9h0.9v0.7h-2.7
		v-0.7h0.9v-2.9c0.1-0.7-0.4-1.3-1.1-1.4c-0.1,0-0.3,0-0.4,0c-0.9-0.1-1.6,0.6-1.7,1.4c0,0,0,0.1,0,0.1v2.8h0.9v0.7L284.2,35.2z"/>
	<path class="st5" d="M294.5,35.2v-0.7h1.7v-6.2l-1.9,1.3v-0.9l2-1.3h1v7.1h1.6v0.7H294.5z"/>
	<path class="st5" d="M304.4,35.3c-1.1,0-2-0.5-2-1.7c0-1.3,1.5-1.8,3-1.8h0.9v-0.4c0-1-0.4-1.3-1.3-1.3s-1.3,0.3-1.4,1h-1
		c0.1-1.3,1.2-1.8,2.4-1.8s2.2,0.4,2.2,2.1v3.1h0.8v0.7h-1.8v-0.8C305.9,35,305.2,35.3,304.4,35.3z M306.3,33.2v-0.7h-0.8
		c-1.2,0-2.1,0.3-2.1,1.1c0,0.5,0.3,1,1.1,1C305.5,34.6,306.3,34.1,306.3,33.2z"/>
	<path class="st5" d="M308.8,35.2v-0.7h0.9v-4.3h-0.9v-0.8h1.9v1c0.4-0.7,1.1-1.1,1.9-1.1c1.1-0.1,2.1,0.7,2.2,1.8
		c0,0.1,0,0.3,0,0.4v2.9h0.9v0.7h-2.7v-0.7h0.9v-3c0.1-0.7-0.4-1.3-1-1.4c-0.1,0-0.3,0-0.4,0c-0.9-0.1-1.6,0.6-1.7,1.4
		c0,0,0,0.1,0,0.1v2.8h0.9v0.7L308.8,35.2z"/>
	<line class="st7" x1="51.1" y1="524.7" x2="544.1" y2="524.7"/>
</g>
<g id="Calque_1_1_">
	<rect x="471.5" y="284.3" class="st3" width="103.1" height="31.5"/>
	<path d="M506.2,288.3h3.2c0.6,0,1.2,0.1,1.7,0.3c0.5,0.2,0.9,0.5,1.3,0.9c0.4,0.4,0.7,0.9,0.8,1.4c0.2,0.6,0.3,1.2,0.3,1.8
		c0,0.6-0.1,1.2-0.3,1.8c-0.2,0.5-0.5,1-0.8,1.4c-0.4,0.4-0.8,0.7-1.3,0.9c-0.5,0.2-1.1,0.3-1.7,0.3h-3.2L506.2,288.3z M509.4,296
		c0.4,0,0.8-0.1,1.1-0.2c0.3-0.2,0.6-0.4,0.9-0.7c0.2-0.3,0.4-0.6,0.6-1c0.3-0.9,0.3-1.8,0-2.7c-0.1-0.4-0.3-0.7-0.6-1
		c-0.5-0.6-1.2-0.9-2-0.9h-1.9v6.6L509.4,296z"/>
	<path d="M520.8,295c0,0.3-0.1,0.6-0.2,0.9c-0.1,0.3-0.3,0.5-0.6,0.7c-0.3,0.2-0.5,0.4-0.9,0.5c-0.4,0.1-0.7,0.2-1.1,0.2
		c-0.5,0-0.9-0.1-1.4-0.2c-0.4-0.1-0.7-0.4-0.9-0.7c-0.3-0.3-0.4-0.7-0.5-1c-0.2-0.9-0.2-1.8,0-2.7c0.1-0.4,0.3-0.7,0.6-1.1
		c0.3-0.3,0.6-0.5,0.9-0.7c0.8-0.3,1.8-0.3,2.6,0c0.3,0.1,0.6,0.4,0.9,0.7c0.2,0.3,0.4,0.7,0.5,1c0.1,0.5,0.2,0.9,0.2,1.4v0.2h-4.5
		c0,0.6,0.1,1.1,0.5,1.6c0.3,0.3,0.7,0.5,1.2,0.5c0.4,0,0.8-0.1,1.1-0.3c0.3-0.2,0.5-0.6,0.5-1L520.8,295z M519.5,293.4
		c0-0.4-0.1-0.9-0.4-1.2c-0.3-0.3-0.7-0.5-1.1-0.5c-0.4,0-0.8,0.1-1.2,0.4c-0.3,0.3-0.5,0.8-0.5,1.3H519.5z M518.7,288.4h1.6
		l-1.8,1.7h-1L518.7,288.4z"/>
	<path d="M522.6,288.3h1.3v3.5l0,0c0.2-0.3,0.5-0.6,0.8-0.8c0.4-0.2,0.8-0.3,1.3-0.3c0.4,0,0.8,0.1,1.2,0.2c0.3,0.2,0.6,0.4,0.8,0.7
		c0.2,0.3,0.4,0.7,0.5,1c0.1,0.4,0.2,0.9,0.2,1.3c0,0.5-0.1,0.9-0.2,1.4c-0.1,0.4-0.3,0.7-0.5,1.1c-0.2,0.3-0.5,0.5-0.9,0.7
		c-0.4,0.2-0.8,0.2-1.2,0.2c-0.4,0-0.9-0.1-1.2-0.3c-0.3-0.2-0.6-0.5-0.8-0.8l0,0v1h-1.3V288.3z M525.6,296.3c0.5,0,1-0.2,1.3-0.6
		c0.4-0.5,0.5-1.1,0.5-1.8c0-0.6-0.1-1.2-0.5-1.7c-0.3-0.4-0.8-0.6-1.3-0.6c-0.5,0-1,0.2-1.3,0.6c-0.3,0.5-0.4,1.1-0.4,1.7
		c0,0.6,0.1,1.2,0.4,1.7C524.6,296.1,525.1,296.4,525.6,296.3L525.6,296.3z"/>
	<path d="M530.4,290.8h1.3v3.9c0,0.4,0.1,0.8,0.3,1.2c0.2,0.3,0.6,0.4,0.9,0.4c0.4,0,0.9-0.2,1.2-0.5c0.3-0.4,0.5-0.8,0.4-1.3v-3.7
		h1.3v6.4h-1.3v-1l0,0c-0.2,0.3-0.5,0.6-0.8,0.8c-0.4,0.2-0.8,0.3-1.2,0.3c-0.6,0.1-1.2-0.2-1.6-0.6c-0.3-0.5-0.5-1.1-0.5-1.7
		L530.4,290.8z"/>
	<path d="M537.9,291.8H537v-1.1h0.9v-1.6h1.3v1.6h1.5v1.1h-1.5v3.4c0,0.3,0.1,0.5,0.2,0.7c0.2,0.2,0.4,0.2,0.7,0.2h0.3h0.3v1.1
		l-0.4,0.1c-0.2,0-0.3,0-0.5,0c-1,0.1-1.9-0.5-2-1.5c0-0.2,0-0.3,0-0.5L537.9,291.8z"/>
	<path d="M481.7,308.2L481.7,308.2c-0.2,0.3-0.5,0.6-0.8,0.8c-0.4,0.2-0.8,0.3-1.3,0.3c-0.4,0-0.8-0.1-1.2-0.2
		c-0.3-0.2-0.6-0.4-0.9-0.7c-0.2-0.3-0.4-0.7-0.5-1.1c-0.1-0.4-0.2-0.9-0.2-1.3c0-0.5,0.1-0.9,0.2-1.4c0.1-0.4,0.3-0.7,0.5-1.1
		c0.2-0.3,0.5-0.5,0.9-0.7c0.4-0.2,0.8-0.3,1.2-0.2c0.4,0,0.9,0.1,1.3,0.3c0.3,0.2,0.6,0.5,0.8,0.8l0,0v-3.5h1.3v8.9h-1.3V308.2z
		 M480,308.3c0.5,0,1-0.2,1.3-0.6c0.3-0.5,0.5-1.1,0.4-1.8c0-0.6-0.1-1.2-0.4-1.7c-0.3-0.4-0.8-0.7-1.3-0.6c-0.5,0-1,0.2-1.3,0.6
		c-0.4,0.5-0.5,1.1-0.5,1.8c0,0.6,0.1,1.2,0.5,1.7C479,308.1,479.5,308.4,480,308.3z"/>
	<path d="M485.1,302.8h1.3v3.9c0,0.4,0.1,0.8,0.3,1.2c0.2,0.3,0.6,0.4,0.9,0.4c0.4,0,0.9-0.2,1.2-0.5c0.3-0.4,0.5-0.8,0.4-1.3v-3.7
		h1.3v6.4h-1.3v-1l0,0c-0.2,0.3-0.5,0.6-0.8,0.8c-0.4,0.2-0.8,0.3-1.2,0.3c-0.6,0.1-1.2-0.2-1.6-0.6c-0.3-0.5-0.5-1.1-0.5-1.7
		L485.1,302.8z"/>
	<path d="M501.5,306.8c0,0.7-0.3,1.4-0.8,1.9c-0.6,0.4-1.3,0.7-2,0.6c-0.5,0-0.9-0.1-1.3-0.2c-0.4-0.1-0.7-0.4-1-0.7
		c-0.3-0.3-0.4-0.7-0.6-1c-0.1-0.4-0.2-0.9-0.2-1.4c0-0.5,0.1-0.9,0.2-1.4c0.1-0.4,0.3-0.7,0.6-1.1c0.3-0.3,0.6-0.5,1-0.7
		c0.4-0.2,0.9-0.3,1.3-0.2c0.7,0,1.4,0.2,2,0.6c0.5,0.5,0.8,1.2,0.8,1.9h-1.3c0-0.4-0.2-0.8-0.5-1.1c-0.3-0.3-0.7-0.4-1.1-0.4
		c-0.5,0-1,0.2-1.3,0.6c-0.3,0.5-0.5,1.1-0.4,1.7c0,0.6,0.1,1.2,0.4,1.7c0.3,0.4,0.8,0.6,1.3,0.6c0.8,0.1,1.4-0.5,1.5-1.2
		c0-0.1,0-0.1,0-0.2L501.5,306.8z"/>
	<path d="M506.1,309.3c-0.5,0-0.9-0.1-1.3-0.2c-0.4-0.1-0.7-0.4-1-0.7c-0.3-0.3-0.5-0.7-0.6-1c-0.2-0.4-0.2-0.9-0.2-1.4
		c0-0.5,0.1-0.9,0.2-1.4c0.1-0.4,0.4-0.7,0.6-1c0.3-0.3,0.6-0.5,1-0.7c0.4-0.2,0.9-0.2,1.3-0.2c0.5,0,0.9,0.1,1.3,0.2
		c0.4,0.2,0.7,0.4,1,0.7c0.3,0.3,0.5,0.7,0.6,1c0.2,0.4,0.2,0.9,0.2,1.4c0,0.5-0.1,0.9-0.2,1.4c-0.1,0.4-0.4,0.7-0.6,1
		c-0.3,0.3-0.6,0.5-1,0.7C507,309.2,506.5,309.3,506.1,309.3z M506.1,308.3c0.5,0,1.1-0.2,1.4-0.6c0.4-0.5,0.5-1.1,0.5-1.7
		c0-0.6-0.1-1.2-0.5-1.7c-0.7-0.8-1.9-0.8-2.7-0.2c-0.1,0-0.1,0.1-0.2,0.2c-0.4,0.5-0.5,1.1-0.5,1.7c0,0.6,0.1,1.2,0.5,1.7
		C505,308.1,505.5,308.3,506.1,308.3z"/>
	<path d="M511,302.8h1.3v1l0,0c0.2-0.3,0.5-0.6,0.8-0.8c0.4-0.2,0.8-0.3,1.3-0.3c0.6-0.1,1.2,0.2,1.6,0.6c0.3,0.5,0.5,1.1,0.5,1.7
		v4.2h-1.3v-3.9c0-0.4-0.1-0.8-0.3-1.2c-0.2-0.3-0.6-0.5-1-0.4c-0.5,0-0.9,0.2-1.2,0.5c-0.3,0.4-0.5,0.8-0.5,1.3v3.7H511V302.8z"/>
	<path d="M518.7,303.9h-0.8v-1.1h0.8v-0.6c-0.1-0.6,0.1-1.1,0.5-1.6c0.4-0.3,0.9-0.5,1.4-0.5h0.4l0.4,0.1v1.1c-0.1,0-0.2,0-0.3,0
		h-0.3c-0.2,0-0.5,0.1-0.7,0.2c-0.2,0.2-0.2,0.4-0.2,0.7v0.6h1.4v1.1H520v5.4h-1.3L518.7,303.9z"/>
	<path d="M523.3,301.6c-0.2,0-0.4-0.1-0.6-0.2c-0.1-0.2-0.2-0.4-0.2-0.6c0-0.2,0.1-0.4,0.2-0.6c0.2-0.2,0.4-0.3,0.6-0.2
		c0.4,0,0.8,0.3,0.8,0.8c0,0,0,0,0,0.1c0,0.2-0.1,0.4-0.2,0.6C523.7,301.6,523.5,301.7,523.3,301.6z M522.7,302.8h1.3v6.4h-1.3
		V302.8z"/>
	<path d="M526,302.8h1.3v1l0,0c0.2-0.3,0.5-0.6,0.8-0.8c0.4-0.2,0.8-0.3,1.3-0.3c0.6-0.1,1.2,0.2,1.6,0.6c0.3,0.5,0.5,1.1,0.5,1.7
		v4.2h-1.3v-3.9c0-0.4-0.1-0.8-0.3-1.2c-0.2-0.3-0.6-0.4-1-0.4c-0.5,0-0.9,0.2-1.2,0.5c-0.3,0.4-0.5,0.8-0.5,1.3v3.7H526V302.8z"/>
	<path d="M539,307c0,0.3-0.1,0.6-0.2,0.9c-0.1,0.3-0.3,0.5-0.6,0.7c-0.3,0.2-0.5,0.4-0.9,0.5c-0.4,0.1-0.7,0.2-1.1,0.2
		c-0.5,0-0.9-0.1-1.4-0.2c-0.4-0.1-0.7-0.4-0.9-0.7c-0.3-0.3-0.4-0.7-0.5-1c-0.1-0.4-0.2-0.9-0.2-1.4c0-0.5,0.1-0.9,0.2-1.4
		c0.1-0.4,0.3-0.7,0.6-1.1c0.3-0.3,0.6-0.5,0.9-0.7c0.8-0.3,1.8-0.3,2.6,0c0.3,0.1,0.6,0.4,0.9,0.7c0.2,0.3,0.4,0.7,0.5,1
		c0.1,0.5,0.2,0.9,0.2,1.4v0.2h-4.5c0,0.6,0.1,1.1,0.5,1.6c0.3,0.3,0.7,0.5,1.2,0.5c0.4,0,0.8-0.1,1.1-0.3c0.3-0.2,0.5-0.6,0.5-1
		L539,307z M537.8,305.4c0-0.4-0.2-0.9-0.4-1.2c-0.3-0.3-0.7-0.5-1.1-0.5c-0.4,0-0.8,0.1-1.2,0.4c-0.3,0.3-0.5,0.8-0.5,1.3H537.8z"
		/>
	<path d="M540.8,302.8h1.3v1l0,0c0.2-0.3,0.4-0.6,0.7-0.8c0.3-0.2,0.7-0.3,1.2-0.3c0.4,0,0.8,0.1,1.2,0.3c0.3,0.2,0.5,0.5,0.7,0.9
		l0,0c0.2-0.4,0.5-0.7,0.8-0.9c0.4-0.2,0.8-0.3,1.2-0.3c0.6-0.1,1.1,0.2,1.5,0.6c0.4,0.5,0.5,1.1,0.5,1.7v4.2h-1.3v-3.9
		c0-0.4-0.1-0.8-0.3-1.2c-0.2-0.3-0.5-0.4-0.8-0.4c-0.4,0-0.8,0.1-1.1,0.4c-0.3,0.3-0.4,0.8-0.4,1.2v3.8h-1.3v-3.9
		c0-0.4-0.1-0.8-0.2-1.2c-0.2-0.3-0.5-0.4-0.9-0.4c-0.4,0-0.8,0.2-1.1,0.5c-0.3,0.4-0.4,0.8-0.4,1.3v3.7h-1.3L540.8,302.8z"/>
	<path d="M557.3,307c0,0.3-0.1,0.6-0.2,0.9c-0.1,0.3-0.3,0.5-0.6,0.7c-0.3,0.2-0.5,0.4-0.8,0.5c-0.4,0.1-0.8,0.2-1.1,0.2
		c-0.5,0-0.9-0.1-1.3-0.2c-0.4-0.1-0.7-0.4-0.9-0.7c-0.3-0.3-0.4-0.7-0.5-1c-0.1-0.4-0.2-0.9-0.2-1.4c0-0.5,0.1-0.9,0.2-1.4
		c0.1-0.4,0.3-0.7,0.6-1.1c0.3-0.3,0.6-0.5,0.9-0.7c0.8-0.3,1.8-0.3,2.6,0c0.3,0.1,0.6,0.4,0.9,0.7c0.2,0.3,0.4,0.7,0.5,1
		c0.1,0.5,0.2,0.9,0.2,1.4v0.2h-4.5c0,0.6,0.1,1.1,0.5,1.6c0.3,0.3,0.7,0.5,1.2,0.5c0.4,0,0.8-0.1,1.1-0.3c0.3-0.2,0.5-0.6,0.5-1
		L557.3,307z M556,305.4c0-0.4-0.1-0.9-0.4-1.2c-0.3-0.3-0.7-0.5-1.1-0.5c-0.4,0-0.8,0.1-1.2,0.4c-0.3,0.3-0.5,0.8-0.5,1.3H556z"/>
	<path d="M559.1,302.8h1.3v1l0,0c0.2-0.3,0.5-0.6,0.8-0.8c0.4-0.2,0.8-0.3,1.3-0.3c0.6-0.1,1.2,0.2,1.6,0.6c0.3,0.5,0.5,1.1,0.5,1.7
		v4.2h-1.3v-3.9c0-0.4-0.1-0.8-0.3-1.2c-0.2-0.3-0.6-0.4-1-0.4c-0.5,0-0.9,0.2-1.2,0.5c-0.3,0.3-0.5,0.8-0.5,1.3v3.7H559
		L559.1,302.8z"/>
	<path d="M566.7,303.8h-0.9v-1.1h0.9v-1.6h1.3v1.6h1.5v1.1H568v3.4c-0.1,0.4,0.2,0.9,0.7,0.9c0.1,0,0.2,0,0.2,0h0.3h0.3v1.1
		l-0.4,0.1c-0.1,0-0.3,0-0.5,0c-0.5,0-1-0.1-1.5-0.5c-0.4-0.4-0.6-1-0.5-1.6L566.7,303.8z"/>
	<polygon class="st8" points="585.5,154.6 585.5,115.6 554.1,115.6 544.1,105.6 534.1,115.6 502.8,115.6 502.8,154.6 	"/>
	<path d="M507.7,141.9v-2.2h3.1v1.4c0,1.8,0.2,2.1,0.7,2.1s0.8-0.4,0.8-2.2v-2.4c0-1.7-0.2-2.1-0.6-2.1h-2v-3.1h1.9
		c0.4,0,0.6-0.3,0.6-2.1v-1.3c0-1.7-0.2-2.1-0.6-2.1s-0.6,0.3-0.6,2.1v1.4h-3.1v-2.2c0-3.4,0.8-4.4,3.7-4.4c2.9,0,3.7,1,3.7,4.4v2.8
		c0,1.5-0.5,2.2-2,2.4c1.6,0.3,2.1,1.2,2.1,3.3v4.1c0,3.4-0.9,4.4-3.9,4.4S507.7,145.4,507.7,141.9z"/>
	<path d="M523.1,146.2c0-10.2,2.2-14.2,3.1-18.1h-4.4V125h7.6v2.7c-1.2,4.7-3.2,8.4-3.2,18.5H523.1z"/>
	<path d="M530.9,141.9v-2.2h3.1v1.4c0,1.8,0.2,2.1,0.7,2.1s0.8-0.4,0.8-2.2v-2.4c0-1.7-0.2-2.1-0.6-2.1h-2.1v-3.1h1.9
		c0.5,0,0.6-0.3,0.6-2.1v-1.3c0-1.7-0.2-2.1-0.6-2.1s-0.6,0.3-0.6,2.1v1.4h-3.1v-2.2c0-3.4,0.8-4.4,3.7-4.4s3.8,1,3.8,4.4v2.8
		c0,1.5-0.5,2.2-2,2.4c1.6,0.3,2.1,1.2,2.1,3.3v4.1c0,3.4-0.9,4.4-3.9,4.4S530.9,145.4,530.9,141.9z"/>
	<path d="M540.2,143.3c4.3-11.1,4.4-11.2,4.4-12.4v-0.8c0-1.8-0.2-2.1-0.6-2.1s-0.6,0.3-0.6,2.1v1.4h-3.1v-2.2
		c0-3.4,0.8-4.4,3.8-4.4s3.7,1,3.7,4.4v0.9c0,1.8-0.1,2-4.2,12.9h4.2v3.1h-7.5V143.3z"/>
	<path d="M554.3,141.9v-2.2h3.1v1.4c0,1.8,0.2,2.1,0.6,2.1s0.6-0.3,0.6-2.1v-4.1c0-1.7-0.2-2.1-0.6-2.1s-0.6,0.3-0.6,2.1h-2.6v-12
		h6.7v3.1h-4.1v8.1c0-3.4,0.6-4.4,2.2-4.4c1.7,0,2.2,1,2.2,4.4v5.6c0,3.4-0.8,4.4-3.7,4.4S554.3,145.4,554.3,141.9z"/>
	<path d="M567.4,146.3c-2.9,0-3.7-1-3.7-4.4v-12.6c0-3.4,0.8-4.4,3.7-4.4s3.7,1,3.7,4.4v12.6C571.2,145.4,570.3,146.3,567.4,146.3z
		 M567.4,128c-0.4,0-0.6,0.3-0.6,2.1v11.1c0,1.8,0.2,2.1,0.6,2.1s0.6-0.3,0.6-2.1v-11.1C568.1,128.3,567.9,128,567.4,128z"/>
	<path d="M576.8,146.3c-2.9,0-3.7-1-3.7-4.4v-12.6c0-3.4,0.8-4.4,3.7-4.4s3.8,1,3.8,4.4v12.6C580.6,145.4,579.8,146.3,576.8,146.3z
		 M576.8,128c-0.4,0-0.6,0.3-0.6,2.1v11.1c0,1.8,0.2,2.1,0.6,2.1s0.6-0.3,0.6-2.1v-11.1C577.5,128.3,577.3,128,576.8,128z"/>
	<polygon class="st8" points="93,164.6 93,125.6 61.7,125.6 51.7,115.6 41.7,125.6 10.4,125.6 10.4,164.6 	"/>
	<path d="M15.1,151.9v-2.2h3.1v1.4c0,1.8,0.2,2.1,0.7,2.1s0.8-0.4,0.8-2.2v-2.4c0-1.7-0.2-2.1-0.6-2.1h-2.1v-3.1h1.9
		c0.5,0,0.6-0.3,0.6-2.1v-1.3c0-1.7-0.2-2.1-0.6-2.1s-0.6,0.3-0.6,2.1v1.4h-3.1v-2.2c0-3.4,0.8-4.4,3.7-4.4s3.8,1,3.8,4.4v2.8
		c0,1.5-0.5,2.2-2,2.4c1.6,0.3,2.1,1.2,2.1,3.3v4.1c0,3.4-0.9,4.4-3.9,4.4S15.1,155.4,15.1,151.9z"/>
	<path d="M34.4,142.1c1.7,0,2.2,1,2.2,4.4v5.4c0,3.4-0.8,4.4-3.7,4.4s-3.8-1-3.8-4.4v-12.6c0-3.4,0.8-4.4,3.8-4.4s3.7,1,3.7,4.4v1.9
		h-3.1v-1.1c0-1.8-0.2-2.1-0.6-2.1s-0.6,0.3-0.6,2.1v6.4C32.3,143.1,32.9,142.1,34.4,142.1z M32.3,151.1c0,1.8,0.2,2.1,0.6,2.1
		s0.6-0.3,0.6-2.1v-3.8c0-1.7-0.2-2.1-0.6-2.1s-0.6,0.3-0.6,2.1V151.1z"/>
	<path d="M45.8,151.9v4.4h-3.1v-4.4h-4.1V150l2-15h5.2v13.7h0.6v3.1L45.8,151.9z M42.7,148.7v-10.6l-1.1,10.6H42.7z"/>
	<path d="M53.2,142.1c1.7,0,2.2,1,2.2,4.4v5.4c0,3.4-0.8,4.4-3.7,4.4s-3.7-1-3.7-4.4v-12.6c0-3.4,0.8-4.4,3.7-4.4s3.7,1,3.7,4.4v1.9
		h-3.2v-1.1c0-1.8-0.2-2.1-0.6-2.1s-0.6,0.3-0.6,2.1v6.4C51.1,143.1,51.7,142.1,53.2,142.1z M51.1,151.1c0,1.8,0.2,2.1,0.6,2.1
		s0.6-0.3,0.6-2.1v-3.8c0-1.7-0.2-2.1-0.6-2.1s-0.6,0.3-0.6,2.1V151.1z"/>
	<path d="M69.3,151.9v4.4h-3.1v-4.4H62V150l2-15h5.2v13.7h0.6v3.1L69.3,151.9z M66.2,148.7v-10.6L65,148.7H66.2z"/>
	<path d="M75.2,156.3c-2.9,0-3.7-1-3.7-4.4v-12.6c0-3.4,0.8-4.4,3.7-4.4s3.8,1,3.8,4.4v12.6C79,155.4,78.1,156.3,75.2,156.3z
		 M75.2,138c-0.4,0-0.6,0.3-0.6,2.1v11.1c0,1.8,0.2,2.1,0.6,2.1s0.6-0.3,0.6-2.1v-11.1C75.8,138.3,75.7,138,75.2,138z"/>
	<path d="M84.6,156.3c-2.9,0-3.7-1-3.7-4.4v-12.6c0-3.4,0.8-4.4,3.7-4.4s3.8,1,3.8,4.4v12.6C88.4,155.4,87.5,156.3,84.6,156.3z
		 M84.6,138c-0.4,0-0.6,0.3-0.6,2.1v11.1c0,1.8,0.2,2.1,0.6,2.1s0.6-0.3,0.6-2.1v-11.1C85.2,138.3,85.1,138,84.6,138z"/>
</g>
</svg>
