<svg xmlns="http://www.w3.org/2000/svg" viewBox="0 0 600 531.4"><defs><style>.cls-1,.cls-11,.cls-12,.cls-2,.cls-3,.cls-4,.cls-6,.cls-8{fill:none;}.cls-2{stroke:#c6c6c6;}.cls-11,.cls-2,.cls-3,.cls-4,.cls-6,.cls-8{stroke-miterlimit:10;}.cls-2,.cls-8{stroke-width:0.5px;}.cls-3{stroke:#000;}.cls-4{stroke:#f4a7b7;}.cls-5{fill:#f4a7b7;}.cls-6{stroke:#e94f6e;}.cls-7{fill:#e94f6e;}.cls-11,.cls-8{stroke:#231f20;}.cls-8{stroke-dasharray:5 2;}.cls-9{fill:#f7bdc8;}.cls-10{fill:#eb6581;}.cls-11{stroke-width:2px;}.cls-12{stroke:#e3234a;stroke-linecap:round;stroke-linejoin:round;stroke-width:4px;}.cls-13{fill:#f191a4;}.cls-14{fill:#fff;}.cls-15{fill:#e3234a;}</style></defs><title>LIB-2020-05-07-deces</title><g id="FOND"><rect class="cls-1" y="-84.73" width="600" height="650"/></g><g id="CHARTE"><line class="cls-2" x1="66.71" y1="9.08" x2="567.1" y2="9.08"/><line class="cls-2" x1="65.84" y1="92.74" x2="566.23" y2="92.74"/><line class="cls-2" x1="65.41" y1="175.09" x2="565.8" y2="175.09"/><line class="cls-2" x1="66.28" y1="258.75" x2="566.67" y2="258.75"/><line class="cls-2" x1="65.41" y1="424.75" x2="565.8" y2="424.75"/><line class="cls-2" x1="65.41" y1="342.41" x2="565.8" y2="342.41"/><line class="cls-3" x1="559.49" y1="409.78" x2="559.49" y2="441.57"/><polygon points="555.4 438.25 556.13 437.57 559.49 441.18 562.85 437.57 563.58 438.25 559.49 442.65 555.4 438.25"/><line class="cls-4" x1="186.52" y1="293.11" x2="210.31" y2="293.11"/><polygon class="cls-5" points="207 297.2 206.32 296.47 209.93 293.11 206.32 289.75 207 289.02 211.4 293.11 207 297.2"/><line class="cls-6" x1="176.89" y1="355.17" x2="200.67" y2="355.17"/><polygon class="cls-7" points="197.36 359.26 196.68 358.53 200.29 355.17 196.68 351.81 197.36 351.08 201.76 355.17 197.36 359.26"/></g><g id="HABILLAGE"><line class="cls-8" x1="71.62" y1="506.91" x2="71.62" y2="52.24"/><path d="M52,512v-.44c0-2.33,1.18-3.82,3.1-3.82s3.07,1.55,3.07,3.79v.44c0,2.29-1.11,3.83-3,3.83S52,514.24,52,512Zm5.2,0v-.44c0-1.82-.77-3-2.1-3s-2.12,1.1-2.12,3v.43c0,2,.84,3,2.14,3S57.19,513.91,57.19,511.92Z"/><path d="M43.87,430.64h.89v2H39.38v-.41l3-3.1a3.21,3.21,0,0,0,1.14-2.27,1.29,1.29,0,0,0-1.4-1.41c-.9,0-1.5.52-1.65,1.75h-.89a2.46,2.46,0,0,1,2.54-2.52,2.14,2.14,0,0,1,2.36,2.21A4.28,4.28,0,0,1,43,429.77l-2.16,2.13h3.08Z"/><path d="M45.69,430.54h.91A1.49,1.49,0,0,0,48.29,432,1.67,1.67,0,0,0,50,430.11a1.62,1.62,0,0,0-1.65-1.8,2.24,2.24,0,0,0-1.86.76h-.35V424.8h4.42v1.63h-.89v-.84H47v2.49a2.32,2.32,0,0,1,1.61-.54A2.38,2.38,0,0,1,51,430.11a2.56,2.56,0,0,1-2.69,2.65A2.32,2.32,0,0,1,45.69,430.54Z"/><path d="M52,429v-.44c0-2.33,1.18-3.82,3.1-3.82s3.07,1.55,3.07,3.79v.44c0,2.29-1.11,3.83-3,3.83S52,431.24,52,429Zm5.2,0v-.44c0-1.82-.77-3-2.1-3s-2.12,1.1-2.12,3v.43c0,2,.84,3,2.15,3S57.19,430.91,57.19,428.92Z"/><path d="M38.42,347.54h.91A1.48,1.48,0,0,0,41,349a1.67,1.67,0,0,0,1.73-1.88,1.62,1.62,0,0,0-1.65-1.8,2.24,2.24,0,0,0-1.86.76h-.35V341.8h4.42v1.63h-.89v-.84H39.68v2.49a2.32,2.32,0,0,1,1.61-.54,2.38,2.38,0,0,1,2.44,2.57A2.56,2.56,0,0,1,41,349.76,2.32,2.32,0,0,1,38.42,347.54Z"/><path d="M44.72,346v-.44c0-2.33,1.18-3.82,3.1-3.82s3.07,1.55,3.07,3.79v.44c0,2.29-1.11,3.83-3,3.83S44.72,348.24,44.72,346Zm5.2,0v-.44c0-1.82-.77-3-2.1-3s-2.12,1.1-2.12,3v.43c0,2,.83,3,2.14,3S49.92,347.91,49.92,345.92Z"/><path d="M52,346v-.44c0-2.33,1.18-3.82,3.1-3.82s3.07,1.55,3.07,3.79v.44c0,2.29-1.11,3.83-3,3.83S52,348.24,52,346Zm5.2,0v-.44c0-1.82-.77-3-2.1-3s-2.12,1.1-2.12,3v.43c0,2,.84,3,2.14,3S57.19,347.91,57.19,345.92Z"/><path d="M40.61,260.79h-.9v-2h5.37v.33l-2.87,7.53h-1L44,259.57H40.61Z"/><path d="M45.69,264.54h.91A1.49,1.49,0,0,0,48.29,266,1.67,1.67,0,0,0,50,264.11a1.62,1.62,0,0,0-1.65-1.8,2.24,2.24,0,0,0-1.86.76h-.35V258.8h4.42v1.63h-.89v-.84H47v2.49a2.32,2.32,0,0,1,1.61-.54A2.38,2.38,0,0,1,51,264.11a2.56,2.56,0,0,1-2.69,2.65A2.32,2.32,0,0,1,45.69,264.54Z"/><path d="M52,263v-.44c0-2.33,1.18-3.82,3.1-3.82s3.07,1.55,3.07,3.79v.44c0,2.29-1.11,3.83-3,3.83S52,265.24,52,263Zm5.2,0v-.44c0-1.82-.77-3-2.1-3s-2.12,1.1-2.12,3v.43c0,2,.84,3,2.14,3S57.19,264.91,57.19,262.92Z"/><path d="M32.65,183.66v-.74h1.59v-6.18L32.48,178v-.89l1.82-1.32h.89v7.12h1.54v.74Z"/><path d="M37.45,180v-.44c0-2.33,1.18-3.82,3.1-3.82s3.07,1.55,3.07,3.79v.44c0,2.29-1.11,3.83-3,3.83S37.45,182.24,37.45,180Zm5.2,0v-.44c0-1.82-.77-3-2.1-3s-2.12,1.1-2.12,3v.43c0,2,.83,3,2.14,3S42.65,181.91,42.65,179.92Z"/><path d="M44.72,180v-.44c0-2.33,1.18-3.82,3.1-3.82s3.07,1.55,3.07,3.79v.44c0,2.29-1.11,3.83-3,3.83S44.72,182.24,44.72,180Zm5.2,0v-.44c0-1.82-.77-3-2.1-3s-2.12,1.1-2.12,3v.43c0,2,.83,3,2.14,3S49.92,181.91,49.92,179.92Z"/><path d="M52,180v-.44c0-2.33,1.18-3.82,3.1-3.82s3.07,1.55,3.07,3.79v.44c0,2.29-1.11,3.83-3,3.83S52,182.24,52,180Zm5.2,0v-.44c0-1.82-.77-3-2.1-3s-2.12,1.1-2.12,3v.43c0,2,.84,3,2.14,3S57.19,181.91,57.19,179.92Z"/><path d="M34.65,100.66v-.74h1.59V93.74L34.48,95v-.89L36.3,92.8h.9v7.12h1.54v.74Z"/><path d="M43.87,98.64h.89v2H39.38v-.41l3-3.1a3.21,3.21,0,0,0,1.14-2.27,1.29,1.29,0,0,0-1.4-1.41c-.9,0-1.5.52-1.65,1.75h-.89a2.46,2.46,0,0,1,2.54-2.52,2.14,2.14,0,0,1,2.36,2.21A4.28,4.28,0,0,1,43,97.77l-2.16,2.14h3.08Z"/><path d="M45.69,98.54h.91A1.49,1.49,0,0,0,48.29,100,1.67,1.67,0,0,0,50,98.11a1.62,1.62,0,0,0-1.65-1.8,2.24,2.24,0,0,0-1.86.76h-.35V92.8h4.42v1.63h-.89v-.84H47v2.49a2.32,2.32,0,0,1,1.61-.54A2.38,2.38,0,0,1,51,98.11a2.56,2.56,0,0,1-2.69,2.65A2.32,2.32,0,0,1,45.69,98.54Z"/><path d="M52,97v-.44c0-2.32,1.18-3.82,3.1-3.82s3.07,1.55,3.07,3.79v.44c0,2.29-1.11,3.83-3,3.83S52,99.24,52,97Zm5.2,0v-.44c0-1.82-.77-3-2.1-3s-2.12,1.1-2.12,3V97c0,2,.84,3,2.14,3S57.19,98.91,57.19,96.92Z"/><path d="M33.75,17.66v-.74h1.59V10.74L33.58,12v-.89L35.4,9.8h.89v7.12h1.54v.74Z"/><path d="M38.42,15.54h.91A1.48,1.48,0,0,0,41,17a1.67,1.67,0,0,0,1.73-1.88,1.62,1.62,0,0,0-1.65-1.8,2.24,2.24,0,0,0-1.86.76h-.35V9.8h4.42v1.63h-.89v-.84H39.68v2.49a2.32,2.32,0,0,1,1.61-.54,2.38,2.38,0,0,1,2.44,2.57A2.56,2.56,0,0,1,41,17.76,2.32,2.32,0,0,1,38.42,15.54Z"/><path d="M44.72,14v-.44c0-2.32,1.18-3.82,3.1-3.82s3.07,1.55,3.07,3.79v.44c0,2.29-1.11,3.83-3,3.83S44.72,16.24,44.72,14Zm5.2,0v-.44c0-1.82-.77-3-2.1-3s-2.12,1.1-2.12,3V14c0,2,.84,3,2.14,3S49.92,15.92,49.92,13.92Z"/><path d="M52,14v-.44c0-2.32,1.18-3.82,3.1-3.82s3.07,1.55,3.07,3.79v.44c0,2.29-1.11,3.83-3,3.83S52,16.24,52,14Zm5.2,0v-.44c0-1.82-.77-3-2.1-3s-2.12,1.1-2.12,3V14c0,2,.84,3,2.15,3S57.19,15.92,57.19,13.92Z"/><rect class="cls-9" x="211.06" y="214.75" width="7.76" height="123.17"/><rect class="cls-9" x="220.63" y="180.22" width="7.76" height="170.32"/><rect class="cls-9" x="230.21" y="135.07" width="7.76" height="176.62"/><rect class="cls-9" x="239.79" y="157.31" width="7.76" height="203.18"/><rect class="cls-9" x="249.36" y="334.93" width="7.76" height="53.45"/><rect class="cls-9" x="258.94" y="230.35" width="7.76" height="75.7"/><rect class="cls-9" x="268.52" y="36.47" width="7.76" height="272.24"/><rect class="cls-9" x="287.67" y="61.7" width="7.76" height="308.43"/><rect class="cls-9" x="297.25" y="179.23" width="7.76" height="143.76"/><rect class="cls-9" x="306.83" y="296.09" width="7.76" height="96.28"/><rect class="cls-9" x="316.4" y="320.66" width="7.76" height="83.33"/><rect class="cls-9" x="325.98" y="316.34" width="7.76" height="79.35"/><rect class="cls-9" x="335.56" y="253.93" width="7.76" height="73.37"/><rect class="cls-9" x="345.13" y="29.49" width="7.76" height="306.77"/><rect class="cls-9" x="354.71" y="259.24" width="7.76" height="111.55"/><rect class="cls-9" x="364.29" y="251.93" width="7.76" height="113.88"/><rect class="cls-9" x="373.86" y="293.77" width="7.76" height="92.3"/><rect class="cls-9" x="383.44" y="375.77" width="7.76" height="55.78"/><rect class="cls-9" x="393.02" y="325.31" width="7.76" height="34.2"/><rect class="cls-9" x="402.59" y="330.62" width="7.76" height="47.81"/><rect class="cls-9" x="412.17" y="326.3" width="7.76" height="69.06"/><rect class="cls-9" x="421.75" y="335.6" width="7.76" height="68.06"/><rect class="cls-9" x="431.33" y="377.76" width="7.76" height="27.89"/><rect class="cls-9" x="440.9" y="384.4" width="7.76" height="56.77"/><rect class="cls-9" x="450.48" y="426.57" width="7.76" height="29.88"/><rect class="cls-9" x="460.06" y="361.83" width="7.76" height="47.14"/><rect class="cls-9" x="469.63" y="385.07" width="7.76" height="17.93"/><rect class="cls-9" x="479.21" y="365.15" width="7.76" height="61.09"/><rect class="cls-9" x="488.79" y="410.96" width="7.76" height="32.54"/><rect class="cls-9" x="498.36" y="434.53" width="7.76" height="30.88"/><rect class="cls-9" x="507.94" y="451.8" width="7.76" height="15.94"/><rect class="cls-9" x="517.52" y="462.09" width="7.76" height="12.95"/><rect class="cls-9" x="527.09" y="405.32" width="7.76" height="20.92"/><rect class="cls-9" x="536.67" y="397.35" width="7.76" height="31.87"/><rect class="cls-9" x="546.25" y="414.61" width="7.76" height="33.53"/><rect class="cls-9" x="555.83" y="447.81" width="7.76" height="9.63"/><rect class="cls-10" x="67.4" y="497.95" width="7.76" height="8.96"/><rect class="cls-10" x="76.98" y="484" width="7.76" height="22.91"/><rect class="cls-10" x="86.56" y="464.41" width="7.76" height="42.5"/><rect class="cls-10" x="96.13" y="481.01" width="7.76" height="25.9"/><rect class="cls-10" x="105.71" y="469.73" width="7.76" height="37.18"/><rect class="cls-10" x="115.29" y="469.73" width="7.76" height="37.18"/><rect class="cls-10" x="124.86" y="445.16" width="7.76" height="61.75"/><rect class="cls-10" x="134.44" y="427.23" width="7.76" height="79.68"/><rect class="cls-10" x="144.02" y="430.22" width="7.76" height="76.69"/><rect class="cls-10" x="153.59" y="386.06" width="7.76" height="120.85"/><rect class="cls-10" x="163.17" y="407.31" width="7.76" height="99.6"/><rect class="cls-10" x="172.75" y="401" width="7.76" height="105.91"/><rect class="cls-10" x="182.33" y="409.97" width="7.76" height="96.94"/><rect class="cls-10" x="191.9" y="368.13" width="7.76" height="138.78"/><rect class="cls-10" x="201.48" y="341.24" width="7.76" height="165.67"/><rect class="cls-10" x="211.06" y="337.92" width="7.76" height="168.99"/><rect class="cls-10" x="220.63" y="350.54" width="7.76" height="156.37"/><rect class="cls-10" x="230.21" y="311.69" width="7.76" height="195.22"/><rect class="cls-10" x="239.79" y="360.5" width="7.76" height="146.41"/><rect class="cls-10" x="249.36" y="388.39" width="7.76" height="118.52"/><rect class="cls-10" x="258.94" y="306.05" width="7.76" height="200.86"/><rect class="cls-10" x="268.52" y="308.71" width="7.76" height="198.2"/><rect class="cls-10" x="278.09" y="327.3" width="7.76" height="179.61"/><rect class="cls-10" x="287.67" y="370.13" width="7.76" height="136.78"/><rect class="cls-10" x="297.25" y="322.98" width="7.76" height="183.93"/><rect class="cls-10" x="306.83" y="392.37" width="7.76" height="114.54"/><rect class="cls-10" x="316.4" y="403.99" width="7.76" height="102.92"/><rect class="cls-10" x="325.98" y="395.69" width="7.76" height="111.22"/><rect class="cls-10" x="335.56" y="327.3" width="7.76" height="179.61"/><rect class="cls-10" x="345.13" y="336.26" width="7.76" height="170.65"/><rect class="cls-10" x="354.71" y="370.79" width="7.76" height="136.12"/><rect class="cls-10" x="364.29" y="365.81" width="7.76" height="141.1"/><rect class="cls-10" x="373.86" y="386.06" width="7.76" height="120.85"/><rect class="cls-10" x="383.44" y="431.55" width="7.76" height="75.36"/><rect class="cls-10" x="393.02" y="359.5" width="7.76" height="147.41"/><rect class="cls-10" x="402.59" y="378.43" width="7.76" height="128.48"/><rect class="cls-10" x="412.17" y="395.36" width="7.76" height="111.55"/><rect class="cls-10" x="421.75" y="403.66" width="7.76" height="103.25"/><rect class="cls-10" x="431.33" y="405.65" width="7.76" height="101.26"/><rect class="cls-10" x="440.9" y="441.17" width="7.76" height="65.74"/><rect class="cls-10" x="450.48" y="456.45" width="7.76" height="50.46"/><rect class="cls-10" x="460.06" y="408.97" width="7.76" height="97.94"/><rect class="cls-10" x="469.63" y="402.99" width="7.76" height="103.92"/><rect class="cls-10" x="479.21" y="426.23" width="7.76" height="80.68"/><rect class="cls-10" x="488.79" y="443.5" width="7.76" height="63.41"/><rect class="cls-10" x="498.36" y="465.41" width="7.76" height="41.5"/><rect class="cls-10" x="507.94" y="467.73" width="7.76" height="39.18"/><rect class="cls-10" x="517.52" y="475.04" width="7.76" height="31.87"/><rect class="cls-10" x="527.09" y="426.23" width="7.76" height="80.68"/><rect class="cls-10" x="536.67" y="429.22" width="7.76" height="77.69"/><rect class="cls-10" x="546.25" y="448.15" width="7.76" height="58.76"/><rect class="cls-10" x="555.83" y="457.44" width="7.76" height="49.47"/><path d="M68,527v-1.62H69.8v-6.15l-2,1.29v-2L70.08,517h2v8.39h1.68V527Z"/><path d="M75.89,520H74.1V517h7.35v1.14L78.12,527H75.81L79,518.6H75.89Z"/><path d="M84.85,527v-1.44h.8v-4.39h-.82v-1.49h2.83v1.21a2.41,2.41,0,0,1,2.2-1.38,2,2,0,0,1,2,1.38,2.76,2.76,0,0,1,2.4-1.38c1.33,0,2.36.85,2.36,2.8v3.25h.8V527H93.86v-1.44h.77v-3.08c0-.94-.4-1.38-1.11-1.38a1.37,1.37,0,0,0-1.37,1.52v2.94h.77V527H89.36v-1.44h.78v-3.08c0-.94-.4-1.38-1.12-1.38a1.37,1.37,0,0,0-1.36,1.52v2.94h.77V527Z"/><path d="M100.5,527.12a2.14,2.14,0,0,1-2.44-2.19c0-1.75,1.57-2.35,3.79-2.35h.81v-.3c0-.91-.29-1.34-1.18-1.34a1,1,0,0,0-1.2,1H98.36c.11-1.76,1.47-2.5,3.25-2.5s3,.68,3,2.71v3.34h.77V527H102.7v-1A2.37,2.37,0,0,1,100.5,527.12Zm2.16-2.74v-.58h-.77c-1.16,0-1.82.28-1.82,1,0,.49.28.87,1,.87C102,525.69,102.66,525.22,102.66,524.38Z"/><path d="M106,527v-1.44h.8v-4.39H106v-1.49h2.83v1.48a2.44,2.44,0,0,1,2.51-1.6v1.92c-1.59-.05-2.51.45-2.51,1.85v2.23h.88V527Z"/><path d="M113.52,526.2V527H112v-2.44h1.48a1.5,1.5,0,0,0,1.56,1.29c.8,0,1.17-.32,1.17-.89s-.46-.76-1.48-.91c-2-.3-2.68-1-2.68-2.33a2.22,2.22,0,0,1,2.5-2.21c1.17,0,1.65.4,1.89.85v-.68h1.43v2.17h-1.45a1.4,1.4,0,0,0-1.47-1.07c-.63,0-1,.25-1,.76s.32.7,1.39.89c1.8.26,2.83.78,2.83,2.34s-1,2.39-2.72,2.39A2,2,0,0,1,113.52,526.2Z"/><path d="M532.91,520h-1.8V517h7.36v1.14L535.13,527h-2.31l3.2-8.36h-3.11Z"/><path d="M541.87,527v-1.44h.79v-4.39h-.81v-1.49h2.83v1.21a2.4,2.4,0,0,1,2.2-1.38,2,2,0,0,1,2,1.38,2.74,2.74,0,0,1,2.39-1.38c1.33,0,2.37.85,2.37,2.8v3.25h.8V527h-3.59v-1.44h.77v-3.08c0-.94-.39-1.38-1.1-1.38a1.37,1.37,0,0,0-1.38,1.52v2.94h.77V527h-3.55v-1.44h.78v-3.08c0-.94-.41-1.38-1.12-1.38a1.37,1.37,0,0,0-1.36,1.52v2.94h.77V527Z"/><path d="M557.52,527.12a2.14,2.14,0,0,1-2.44-2.19c0-1.75,1.57-2.35,3.78-2.35h.82v-.3c0-.91-.3-1.34-1.18-1.34a1.06,1.06,0,0,0-1.21,1h-1.91c.11-1.76,1.47-2.5,3.25-2.5s3,.68,3,2.71v3.34h.77V527h-2.73v-1A2.38,2.38,0,0,1,557.52,527.12Zm2.16-2.74v-.58h-.77c-1.17,0-1.83.28-1.83,1,0,.49.29.87,1,.87S559.68,525.22,559.68,524.38Z"/><path d="M563,527v-1.44h.8v-4.39H563v-1.49h2.81v5.88h.81V527Zm.59-9.44a1.18,1.18,0,1,1,1.17,1.13A1.14,1.14,0,0,1,563.61,517.52Z"/><line class="cls-11" x1="67.44" y1="506.91" x2="563.49" y2="506.91"/><path d="M336.91,24.27V10.44l-1.68.71V8.63l3.38-1.47h.82V24.27Z"/><path d="M350.6,20.77v3.5h-2.52v-3.5h-3.34V19.26l1.64-12.1h4.22V18.25h.46v2.52Zm-2.52-2.52V9.68l-.93,8.57Z"/><path d="M352.36,20.81V19.07h2.52v1.11c0,1.41.17,1.68.55,1.68s.61-.29.61-1.78V18.14c0-1.4-.15-1.68-.51-1.68h-1.65V13.94h1.51c.35,0,.5-.27.5-1.68v-1c0-1.41-.15-1.68-.5-1.68s-.51.27-.51,1.68v1.13h-2.52V10.61c0-2.78.68-3.57,3-3.57s3,.79,3,3.57v2.28c0,1.2-.38,1.77-1.57,2,1.3.23,1.72,1,1.72,2.64v3.3c0,2.77-.7,3.57-3.13,3.57S352.36,23.58,352.36,20.81Z"/><path d="M359.82,20.81V18.1c0-1.78.48-2.81,2-3.08A2.29,2.29,0,0,1,360,12.43V10.61c0-2.78.68-3.55,3-3.55s3,.77,3,3.55v1.82A2.29,2.29,0,0,1,364.12,15c1.56.27,2,1.3,2,3.08v2.71c0,2.77-.74,3.57-3.17,3.57S359.82,23.58,359.82,20.81Zm2.52-2.67v1.94c0,1.49.21,1.78.65,1.78s.65-.29.65-1.78V18.14c0-1.4-.29-1.68-.65-1.68S362.34,16.74,362.34,18.14Zm1.15-5.88v-1c0-1.41-.14-1.68-.5-1.68s-.51.27-.51,1.68v1c0,1.41.15,1.68.51,1.68S363.49,13.67,363.49,12.26Z"/><path d="M552.33,405.21V391.38l-1.67.71v-2.52L554,388.1h.81v17.11Z"/><path d="M557.46,405.21c0-8.23,1.76-11.46,2.48-14.59h-3.53V388.1h6.17v2.21c-1,3.82-2.6,6.78-2.6,14.9Z"/><path d="M563.65,401.75V399c0-1.78.49-2.81,2-3.09a2.27,2.27,0,0,1-1.89-2.58v-1.82c0-2.78.67-3.55,3-3.55s3,.77,3,3.55v1.82A2.27,2.27,0,0,1,568,396c1.55.28,2,1.31,2,3.09v2.71c0,2.77-.73,3.57-3.17,3.57S563.65,404.52,563.65,401.75Zm2.52-2.67V401c0,1.5.21,1.79.65,1.79s.65-.29.65-1.79v-1.93c0-1.4-.29-1.68-.65-1.68S566.17,397.68,566.17,399.08Zm1.16-5.88v-1c0-1.41-.15-1.68-.51-1.68s-.5.27-.5,1.68v1c0,1.41.15,1.68.5,1.68S567.33,394.61,567.33,393.2Z"/><path class="cls-1" d="M51.85,512.19v-.44c0-2.32,1.18-3.82,3.11-3.82S58,509.48,58,511.72v.45C58,514.45,56.92,516,55,516S51.85,514.48,51.85,512.19Zm5.21,0v-.44c0-1.82-.77-3-2.1-3s-2.13,1.1-2.13,3v.44c0,2,.84,3,2.15,3S57.06,514.15,57.06,512.15Z"/><path class="cls-1" d="M43.74,430.87h.89v2H39.25v-.41l3-3.09a3.23,3.23,0,0,0,1.13-2.28A1.29,1.29,0,0,0,42,425.7c-.9,0-1.49.52-1.65,1.75h-.89A2.46,2.46,0,0,1,42,424.93a2.15,2.15,0,0,1,2.37,2.21A4.3,4.3,0,0,1,42.81,430l-2.15,2.14h3.08Z"/><path class="cls-1" d="M45.55,430.77h.91a1.5,1.5,0,0,0,1.7,1.45,1.67,1.67,0,0,0,1.73-1.88,1.62,1.62,0,0,0-1.65-1.8,2.21,2.21,0,0,0-1.86.76H46V425h4.43v1.63h-.89v-.84H46.82v2.49a2.29,2.29,0,0,1,1.6-.54,2.39,2.39,0,0,1,2.45,2.57,2.56,2.56,0,0,1-2.7,2.65A2.33,2.33,0,0,1,45.55,430.77Z"/><path class="cls-1" d="M51.85,429.19v-.44c0-2.32,1.18-3.82,3.11-3.82S58,426.48,58,428.72v.45C58,431.45,56.92,433,55,433S51.85,431.48,51.85,429.19Zm5.21,0v-.44c0-1.82-.77-3-2.1-3s-2.13,1.1-2.13,3v.44c0,2,.84,3,2.15,3S57.06,431.15,57.06,429.15Z"/><path class="cls-1" d="M38.28,347.77h.91a1.5,1.5,0,0,0,1.7,1.45,1.67,1.67,0,0,0,1.73-1.88,1.63,1.63,0,0,0-1.66-1.8,2.2,2.2,0,0,0-1.85.76h-.36V342h4.43v1.63h-.89v-.84H39.55v2.49a2.27,2.27,0,0,1,1.6-.54,2.38,2.38,0,0,1,2.44,2.57A2.56,2.56,0,0,1,40.9,350,2.32,2.32,0,0,1,38.28,347.77Z"/><path class="cls-1" d="M44.58,346.19v-.44c0-2.32,1.18-3.82,3.11-3.82s3.07,1.55,3.07,3.79v.45c0,2.28-1.12,3.82-3,3.82S44.58,348.47,44.58,346.19Zm5.21,0v-.44c0-1.82-.77-3-2.1-3s-2.13,1.1-2.13,3v.44c0,2,.84,3,2.15,3S49.79,348.15,49.79,346.15Z"/><path class="cls-1" d="M51.85,346.19v-.44c0-2.32,1.18-3.82,3.11-3.82S58,343.48,58,345.72v.45C58,348.45,56.92,350,55,350S51.85,348.47,51.85,346.19Zm5.21,0v-.44c0-1.82-.77-3-2.1-3s-2.13,1.1-2.13,3v.44c0,2,.84,3,2.15,3S57.06,348.15,57.06,346.15Z"/><path class="cls-1" d="M40.47,261h-.89v-2H45v.33l-2.87,7.53h-1l2.74-7.09H40.47Z"/><path class="cls-1" d="M45.55,264.77h.91a1.5,1.5,0,0,0,1.7,1.45,1.67,1.67,0,0,0,1.73-1.88,1.62,1.62,0,0,0-1.65-1.8,2.21,2.21,0,0,0-1.86.76H46V259h4.43v1.63h-.89v-.84H46.82v2.49a2.29,2.29,0,0,1,1.6-.54,2.39,2.39,0,0,1,2.45,2.57,2.56,2.56,0,0,1-2.7,2.65A2.33,2.33,0,0,1,45.55,264.77Z"/><path class="cls-1" d="M51.85,263.19v-.44c0-2.32,1.18-3.82,3.11-3.82S58,260.48,58,262.72v.45C58,265.45,56.92,267,55,267S51.85,265.47,51.85,263.19Zm5.21,0v-.44c0-1.82-.77-3-2.1-3s-2.13,1.1-2.13,3v.44c0,2,.84,3,2.15,3S57.06,265.15,57.06,263.15Z"/><path class="cls-1" d="M32.52,183.89v-.74H34.1V177l-1.76,1.27v-.89L34.17,176h.89v7.12H36.6v.74Z"/><path class="cls-1" d="M37.31,180.19v-.44c0-2.32,1.18-3.82,3.1-3.82s3.07,1.55,3.07,3.79v.45c0,2.28-1.11,3.82-3,3.82S37.31,182.47,37.31,180.19Zm5.21,0v-.44c0-1.82-.77-3-2.11-3s-2.12,1.1-2.12,3v.44c0,2,.84,3,2.15,3S42.52,182.15,42.52,180.15Z"/><path class="cls-1" d="M44.58,180.19v-.44c0-2.32,1.18-3.82,3.11-3.82s3.07,1.55,3.07,3.79v.45c0,2.28-1.12,3.82-3,3.82S44.58,182.47,44.58,180.19Zm5.21,0v-.44c0-1.82-.77-3-2.1-3s-2.13,1.1-2.13,3v.44c0,2,.84,3,2.15,3S49.79,182.15,49.79,180.15Z"/><path class="cls-1" d="M51.85,180.19v-.44c0-2.32,1.18-3.82,3.11-3.82S58,177.48,58,179.72v.45C58,182.45,56.92,184,55,184S51.85,182.47,51.85,180.19Zm5.21,0v-.44c0-1.82-.77-3-2.1-3s-2.13,1.1-2.13,3v.44c0,2,.84,3,2.15,3S57.06,182.15,57.06,180.15Z"/><path class="cls-1" d="M34.52,100.89v-.74H36.1V94l-1.76,1.27v-.89L36.17,93h.89v7.12H38.6v.74Z"/><path class="cls-1" d="M43.74,98.87h.89v2H39.25v-.41l3-3.09a3.23,3.23,0,0,0,1.13-2.28A1.29,1.29,0,0,0,42,93.7c-.9,0-1.49.52-1.65,1.75h-.89A2.46,2.46,0,0,1,42,92.93a2.15,2.15,0,0,1,2.37,2.21A4.3,4.3,0,0,1,42.81,98l-2.15,2.14h3.08Z"/><path class="cls-1" d="M45.55,98.77h.91a1.5,1.5,0,0,0,1.7,1.45,1.67,1.67,0,0,0,1.73-1.88,1.62,1.62,0,0,0-1.65-1.8,2.21,2.21,0,0,0-1.86.76H46V93h4.43v1.63h-.89v-.84H46.82v2.49a2.29,2.29,0,0,1,1.6-.54,2.39,2.39,0,0,1,2.45,2.57,2.56,2.56,0,0,1-2.7,2.65A2.33,2.33,0,0,1,45.55,98.77Z"/><path class="cls-1" d="M51.85,97.19v-.44c0-2.32,1.18-3.82,3.11-3.82S58,94.48,58,96.73v.44C58,99.45,56.92,101,55,101S51.85,99.48,51.85,97.19Zm5.21,0v-.44c0-1.82-.77-3-2.1-3s-2.13,1.1-2.13,3v.44c0,2,.84,3,2.15,3S57.06,99.15,57.06,97.15Z"/><path class="cls-1" d="M33.62,17.89v-.74H35.2V11l-1.76,1.27v-.89L35.27,10h.89v7.12H37.7v.74Z"/><path class="cls-1" d="M38.28,15.77h.91a1.5,1.5,0,0,0,1.7,1.45,1.67,1.67,0,0,0,1.73-1.88A1.63,1.63,0,0,0,41,13.54a2.2,2.2,0,0,0-1.85.76h-.36V10h4.43v1.63h-.89v-.84H39.55v2.49a2.27,2.27,0,0,1,1.6-.54,2.38,2.38,0,0,1,2.44,2.57A2.56,2.56,0,0,1,40.9,18,2.32,2.32,0,0,1,38.28,15.77Z"/><path class="cls-1" d="M44.58,14.19v-.44c0-2.32,1.18-3.82,3.11-3.82s3.07,1.55,3.07,3.8v.44c0,2.28-1.12,3.82-3,3.82S44.58,16.48,44.58,14.19Zm5.21,0v-.44c0-1.82-.77-3-2.1-3s-2.13,1.1-2.13,3v.44c0,2,.84,3,2.15,3S49.79,16.15,49.79,14.15Z"/><path class="cls-1" d="M51.85,14.19v-.44c0-2.32,1.18-3.82,3.11-3.82S58,11.48,58,13.73v.44C58,16.45,56.92,18,55,18S51.85,16.48,51.85,14.19Zm5.21,0v-.44c0-1.82-.77-3-2.1-3s-2.13,1.1-2.13,3v.44c0,2,.84,3,2.15,3S57.06,16.15,57.06,14.15Z"/><line class="cls-12" x1="138.18" y1="463.32" x2="128.61" y2="473.28"/><line class="cls-12" x1="147.76" y1="455.68" x2="138.18" y2="463.32"/><line class="cls-12" x1="157.34" y1="444.39" x2="147.76" y2="455.68"/><line class="cls-12" x1="166.91" y1="433.77" x2="157.34" y2="444.39"/><line class="cls-12" x1="176.49" y1="424.14" x2="166.91" y2="433.77"/><line class="cls-12" x1="186.07" y1="415.51" x2="176.49" y2="424.14"/><line class="cls-12" x1="195.64" y1="404.55" x2="186.07" y2="415.51"/><line class="cls-12" x1="205.22" y1="392.27" x2="195.64" y2="404.55"/><line class="cls-12" x1="214.8" y1="361.39" x2="205.22" y2="392.27"/><line class="cls-12" x1="224.38" y1="332.18" x2="214.8" y2="361.39"/><line class="cls-12" x1="233.95" y1="293" x2="224.38" y2="332.18"/><line class="cls-12" x1="243.53" y1="258.47" x2="233.95" y2="293"/><line class="cls-12" x1="253.11" y1="247.52" x2="243.53" y2="258.47"/><line class="cls-12" x1="262.68" y1="227.93" x2="253.11" y2="247.52"/><line class="cls-12" x1="272.26" y1="184.44" x2="262.68" y2="227.93"/><line class="cls-12" x1="281.84" y1="200.37" x2="272.26" y2="184.44"/><line class="cls-12" x1="291.41" y1="183.44" x2="281.84" y2="200.37"/><line class="cls-12" x1="300.99" y1="189.75" x2="291.41" y2="183.44"/><line class="cls-12" x1="310.57" y1="209.67" x2="300.99" y2="189.75"/><line class="cls-12" x1="320.14" y1="207.68" x2="310.57" y2="209.67"/><line class="cls-12" x1="329.72" y1="219.96" x2="320.14" y2="207.68"/><line class="cls-12" x1="339.3" y1="250.84" x2="329.72" y2="219.96"/><line class="cls-12" x1="348.88" y1="208.34" x2="339.3" y2="250.84"/><line class="cls-12" x1="358.45" y1="236.56" x2="348.88" y2="208.34"/><line class="cls-12" x1="368.03" y1="247.18" x2="358.45" y2="236.56"/><line class="cls-12" x1="377.61" y1="246.85" x2="368.03" y2="247.18"/><line class="cls-12" x1="387.18" y1="254.49" x2="377.61" y2="246.85"/><line class="cls-12" x1="396.76" y1="255.82" x2="387.18" y2="254.49"/><line class="cls-12" x1="406.34" y1="266.77" x2="396.76" y2="255.82"/><line class="cls-12" x1="415.91" y1="309.27" x2="406.34" y2="266.77"/><line class="cls-12" x1="425.49" y1="320.22" x2="415.91" y2="309.27"/><line class="cls-12" x1="435.07" y1="338.15" x2="425.49" y2="320.22"/><line class="cls-12" x1="444.64" y1="351.1" x2="435.07" y2="338.15"/><line class="cls-12" x1="454.22" y1="358.4" x2="444.64" y2="351.1"/><line class="cls-12" x1="463.8" y1="363.38" x2="454.22" y2="358.4"/><line class="cls-12" x1="473.38" y1="371.35" x2="463.8" y2="363.38"/><line class="cls-12" x1="482.95" y1="377" x2="473.38" y2="371.35"/><line class="cls-12" x1="492.53" y1="387.62" x2="482.95" y2="377"/><line class="cls-12" x1="502.11" y1="395.59" x2="492.53" y2="387.62"/><line class="cls-12" x1="511.68" y1="405.22" x2="502.11" y2="395.59"/><line class="cls-12" x1="521.26" y1="410.53" x2="511.68" y2="405.22"/><line class="cls-12" x1="530.84" y1="416.5" x2="521.26" y2="410.53"/><line class="cls-12" x1="540.41" y1="418.5" x2="530.84" y2="416.5"/><line class="cls-12" x1="549.99" y1="425.47" x2="540.41" y2="418.5"/><line class="cls-12" x1="559.57" y1="430.78" x2="549.99" y2="425.47"/><path class="cls-13" d="M100.5,295.6h1v-6.37h-1v-.75h3.07a3.6,3.6,0,0,1,4,3.86v.1a3.64,3.64,0,0,1-4,3.91h-3Zm3,0c2,0,3-1.21,3-3.14v-.09a2.75,2.75,0,0,0-3-3.09h-1.07v6.32Z"/><path class="cls-13" d="M108.41,293.53v-.09a2.71,2.71,0,0,1,2.7-2.95c1.33,0,2.58.81,2.58,2.86v.3h-4.33c0,1.31.67,2,1.85,2,.89,0,1.4-.33,1.52-1h.92a2.23,2.23,0,0,1-2.46,1.76A2.71,2.71,0,0,1,108.41,293.53Zm4.35-.62c-.09-1.18-.71-1.66-1.65-1.66a1.72,1.72,0,0,0-1.72,1.66ZM111.37,288h1.14l-1.14,1.61h-.68Z"/><path class="cls-13" d="M119,290.59h.81v2H119a1.61,1.61,0,0,0-1.71-1.29,1.94,1.94,0,0,0-1.85,2.19v.09c0,1.41.77,2.16,1.88,2.16a1.56,1.56,0,0,0,1.65-1.41h.85a2.4,2.4,0,0,1-2.51,2.17,2.74,2.74,0,0,1-2.81-2.92v-.09a2.79,2.79,0,0,1,2.79-2.95,1.68,1.68,0,0,1,1.68.85Z"/><path class="cls-13" d="M120.73,293.53v-.09a2.71,2.71,0,0,1,2.7-2.95c1.33,0,2.58.81,2.58,2.86v.3h-4.33c0,1.31.67,2,1.85,2,.89,0,1.4-.33,1.52-1H126a2.23,2.23,0,0,1-2.46,1.76A2.71,2.71,0,0,1,120.73,293.53Zm4.35-.62c-.09-1.18-.71-1.66-1.65-1.66a1.72,1.72,0,0,0-1.72,1.66ZM122,288h1.14l.69,1.61h-.69Z"/><path class="cls-13" d="M127.6,295.64v.71h-.77v-1.92h.74a1.54,1.54,0,0,0,1.54,1.29c.8,0,1.18-.33,1.18-1s-.46-.81-1.35-1c-1.5-.28-2-.81-2-1.77a1.63,1.63,0,0,1,1.81-1.54,1.41,1.41,0,0,1,1.44.71v-.61H131v1.66h-.75a1.29,1.29,0,0,0-1.37-1c-.65,0-1.06.25-1.06.79s.29.76,1.34,1,2,.53,2,1.74c0,1-.7,1.73-2.07,1.73A1.5,1.5,0,0,1,127.6,295.64Z"/><path class="cls-13" d="M134.51,293.53v-.09a2.71,2.71,0,0,1,2.7-2.95c1.33,0,2.58.81,2.58,2.86v.3h-4.33c0,1.31.67,2,1.85,2,.89,0,1.41-.33,1.53-1h.91a2.22,2.22,0,0,1-2.45,1.76A2.71,2.71,0,0,1,134.51,293.53Zm4.35-.62c-.09-1.18-.7-1.66-1.65-1.66a1.73,1.73,0,0,0-1.72,1.66Z"/><path class="cls-13" d="M140.55,296.35v-.72h.81v-4.29h-.83v-.75h1.74v1a2,2,0,0,1,1.8-1.07c1.16,0,2,.62,2,2.28v2.86h.8v.72h-2.54v-.72h.82v-2.92c0-1-.44-1.42-1.33-1.42a1.49,1.49,0,0,0-1.56,1.55v2.79h.82v.72Z"/><path class="cls-13" d="M150,295.6h1v-6.37h-1v-.75h5.84v1.84h-.89v-1.09h-3v2.71h2.41v-.71h.79v2.19h-.79v-.7h-2.41v2.88h3.22v-1.27H156v2H150Z"/><path class="cls-13" d="M157,296.35v-.72h.81v-7h-.83v-.75h1.74v3.72a2,2,0,0,1,1.8-1.07c1.16,0,2,.62,2,2.28v2.86h.8v.72h-2.54v-.72h.82v-2.92c0-1-.44-1.42-1.33-1.42a1.49,1.49,0,0,0-1.56,1.55v2.79h.83v.72Z"/><path class="cls-13" d="M163.77,298.35v-.72h.81v-6.29h-.83v-.75h1.74v1a2.3,2.3,0,0,1,1.95-1.12,2.62,2.62,0,0,1,2.62,2.9v.09a2.66,2.66,0,0,1-2.62,3,2.16,2.16,0,0,1-1.95-1.07v2.25h.9v.72Zm5.34-4.83v-.09c0-1.45-.8-2.18-1.77-2.18s-1.88.72-1.88,2.18v.09c0,1.45.78,2.17,1.89,2.17S169.11,294.92,169.11,293.52Z"/><path class="cls-13" d="M172.72,296.45a1.64,1.64,0,0,1-1.87-1.7c0-1.34,1.38-1.78,2.84-1.78h.8v-.42c0-1-.39-1.3-1.21-1.3s-1.19.29-1.28,1h-.91a2,2,0,0,1,2.23-1.8,1.83,1.83,0,0,1,2.08,2.06v3.08h.77v.72h-1.68v-.8A1.94,1.94,0,0,1,172.72,296.45Zm1.77-2.12v-.71h-.77c-1.14,0-2,.3-2,1.13,0,.52.26,1,1.05,1C173.75,295.72,174.49,295.22,174.49,294.33Z"/><path class="cls-13" d="M179.37,296.45a2.57,2.57,0,0,1-2.59-2.86v-.09a2.74,2.74,0,0,1,2.68-3,2.06,2.06,0,0,1,1.88,1v-2.93h-.86v-.75h1.77v7.79h.81v.72h-1.72v-1A2.42,2.42,0,0,1,179.37,296.45Zm2-2.94v-.09c0-1.51-.7-2.2-1.82-2.2s-1.83.8-1.83,2.23v.09c0,1.48.78,2.18,1.75,2.18S181.37,295,181.37,293.51Z"/><path class="cls-7" d="M87.69,357.92h1v-6.37h-1v-.75h3.07a3.62,3.62,0,0,1,4,3.87v.09a3.65,3.65,0,0,1-4,3.91h-3Zm3,0a2.8,2.8,0,0,0,3-3.14v-.08a2.76,2.76,0,0,0-3.05-3.1H89.64v6.32Z"/><path class="cls-7" d="M95.6,355.85v-.08a2.71,2.71,0,0,1,2.7-2.95c1.33,0,2.58.8,2.58,2.86V356H96.55c0,1.31.67,2,1.85,2,.89,0,1.41-.33,1.53-1h.91a2.22,2.22,0,0,1-2.45,1.76A2.71,2.71,0,0,1,95.6,355.85Zm4.35-.61c-.09-1.19-.7-1.66-1.65-1.66a1.73,1.73,0,0,0-1.72,1.66Zm-1.39-4.93h1.15l-1.15,1.62h-.68Z"/><path class="cls-7" d="M106.19,352.92h.8v1.94h-.78a1.6,1.6,0,0,0-1.71-1.28,1.94,1.94,0,0,0-1.85,2.19v.08c0,1.41.77,2.16,1.89,2.16a1.56,1.56,0,0,0,1.65-1.41H107a2.4,2.4,0,0,1-2.51,2.17,2.73,2.73,0,0,1-2.81-2.92v-.08a2.79,2.79,0,0,1,2.79-2.95,1.7,1.7,0,0,1,1.69.84Z"/><path class="cls-7" d="M107.92,355.85v-.08a2.71,2.71,0,0,1,2.7-2.95,2.52,2.52,0,0,1,2.59,2.86V356h-4.34c0,1.31.67,2,1.85,2,.89,0,1.41-.33,1.53-1h.91a2.22,2.22,0,0,1-2.45,1.76A2.71,2.71,0,0,1,107.92,355.85Zm4.35-.61c-.09-1.19-.7-1.66-1.65-1.66a1.73,1.73,0,0,0-1.72,1.66Zm-3-4.93h1.15l.68,1.62h-.68Z"/><path class="cls-7" d="M114.79,358v.7H114v-1.91h.75a1.52,1.52,0,0,0,1.54,1.28c.79,0,1.17-.33,1.17-.94s-.46-.82-1.35-1c-1.5-.28-2-.81-2-1.76a1.62,1.62,0,0,1,1.81-1.54c.84,0,1.25.29,1.44.7v-.6h.77v1.66h-.74a1.3,1.3,0,0,0-1.38-1c-.65,0-1.06.26-1.06.8s.29.76,1.35,1,2,.53,2,1.74c0,1-.7,1.73-2.07,1.73A1.52,1.52,0,0,1,114.79,358Z"/><path class="cls-7" d="M121.71,355.85v-.08a2.71,2.71,0,0,1,2.69-2.95,2.52,2.52,0,0,1,2.59,2.86V356h-4.34c0,1.31.67,2,1.85,2,.89,0,1.41-.33,1.53-1h.91a2.21,2.21,0,0,1-2.45,1.76A2.7,2.7,0,0,1,121.71,355.85Zm4.34-.61c-.09-1.19-.7-1.66-1.65-1.66a1.72,1.72,0,0,0-1.71,1.66Z"/><path class="cls-7" d="M127.75,358.67V358h.8v-4.3h-.83v-.74h1.74v1a2,2,0,0,1,1.81-1.07c1.15,0,2,.61,2,2.28V358h.8v.71h-2.54V358h.83V355c0-1-.44-1.42-1.34-1.42a1.49,1.49,0,0,0-1.56,1.55V358h.83v.71Z"/><path class="cls-7" d="M137.14,358.67V358h.8v-7h-.82v-.74h1.74v3.72a2,2,0,0,1,1.8-1.07c1.15,0,2,.61,2,2.28V358h.8v.71h-2.54V358h.83V355c0-1-.44-1.42-1.33-1.42a1.49,1.49,0,0,0-1.56,1.55V358h.82v.71Z"/><path class="cls-7" d="M144.07,355.84v-.08a2.83,2.83,0,1,1,5.65,0v.09a2.83,2.83,0,1,1-5.65,0Zm4.71,0v-.07c0-1.34-.74-2.19-1.88-2.19s-1.88.85-1.88,2.18v.08c0,1.31.71,2.17,1.88,2.17A1.92,1.92,0,0,0,148.78,355.84Z"/><path class="cls-7" d="M150.38,360.67V360h.81v-6.3h-.83v-.74h1.74v1a2.29,2.29,0,0,1,2-1.11,2.62,2.62,0,0,1,2.62,2.89v.09a2.66,2.66,0,0,1-2.62,3,2.14,2.14,0,0,1-2-1.07V360h.9v.71Zm5.34-4.83v-.08c0-1.46-.8-2.18-1.77-2.18s-1.88.71-1.88,2.18v.08c0,1.46.78,2.17,1.89,2.17S155.72,357.24,155.72,355.84Z"/><path class="cls-7" d="M157.43,358.67V358h.81v-4.3h-.83v-.74h1.74v5H160v.71Zm.59-7.57a.63.63,0,0,1,1.25,0,.63.63,0,1,1-1.25,0Z"/><path class="cls-7" d="M161.23,357.23v-3.54h-.83v-.77h.83v-1.31h.91v1.31h1.49v.77h-1.49v3.45a.74.74,0,0,0,.83.84,2.69,2.69,0,0,0,.75-.13v.77a3,3,0,0,1-.83.13C161.74,358.75,161.23,358.13,161.23,357.23Z"/><path class="cls-7" d="M166.31,358.77a1.65,1.65,0,0,1-1.87-1.69c0-1.35,1.39-1.79,2.84-1.79h.8v-.41c0-1-.38-1.3-1.21-1.3s-1.19.28-1.27,1h-.92c.11-1.35,1.15-1.79,2.24-1.79a1.83,1.83,0,0,1,2.08,2.06V358h.77v.71h-1.69v-.79A1.93,1.93,0,0,1,166.31,358.77Zm1.77-2.11v-.72h-.77c-1.13,0-2,.3-2,1.14,0,.51.27,1,1.05,1C167.34,358,168.08,357.55,168.08,356.66Z"/><path class="cls-7" d="M170.36,358.67V358h.8v-7h-.82v-.74h1.75V358h.8v.71Z"/></g><g id="Calque_1" data-name="Calque 1"><rect class="cls-14" x="20.05" y="29.55" width="103.14" height="31.53"/><path d="M54.73,33.55H58a4.39,4.39,0,0,1,1.69.32,3.85,3.85,0,0,1,1.32.91,4.2,4.2,0,0,1,.85,1.4A5.5,5.5,0,0,1,62.13,38a5.56,5.56,0,0,1-.29,1.82,4,4,0,0,1-.85,1.4,3.69,3.69,0,0,1-1.32.9,4.39,4.39,0,0,1-1.69.32H54.73ZM58,41.26a2.49,2.49,0,0,0,1.1-.23,2.58,2.58,0,0,0,.87-.66,3.15,3.15,0,0,0,.56-1,4.35,4.35,0,0,0,0-2.67,3.1,3.1,0,0,0-.56-1,2.47,2.47,0,0,0-2-.92H56.12v6.55Z"/><path d="M69.38,40.23a2.37,2.37,0,0,1-.24.93,2.14,2.14,0,0,1-.56.74,2.64,2.64,0,0,1-.86.47,3.31,3.31,0,0,1-1.13.18,3.48,3.48,0,0,1-1.36-.24,2.4,2.4,0,0,1-.94-.68,2.76,2.76,0,0,1-.54-1.05,5.33,5.33,0,0,1,0-2.71,2.91,2.91,0,0,1,.56-1.06,2.59,2.59,0,0,1,.94-.68,3.31,3.31,0,0,1,1.32-.24,3.25,3.25,0,0,1,1.28.23,2.16,2.16,0,0,1,.88.66,2.7,2.7,0,0,1,.5,1,5.83,5.83,0,0,1,.15,1.38v.21H64.87A2.56,2.56,0,0,0,65.33,41a1.49,1.49,0,0,0,1.19.52,1.74,1.74,0,0,0,1.1-.33,1.36,1.36,0,0,0,.49-1Zm-1.26-1.65a1.92,1.92,0,0,0-.41-1.21,1.4,1.4,0,0,0-1.13-.47,1.64,1.64,0,0,0-1.16.41,2,2,0,0,0-.53,1.27Zm-.86-5h1.56L67,35.28H66Z"/><path d="M71.2,33.55h1.28V37h0a2.42,2.42,0,0,1,.79-.8,2.28,2.28,0,0,1,1.27-.31,2.79,2.79,0,0,1,1.2.25,2.59,2.59,0,0,1,.85.69,3,3,0,0,1,.51,1.05,4.7,4.7,0,0,1,.18,1.33,4.47,4.47,0,0,1-.19,1.36,3.2,3.2,0,0,1-.53,1.06,2.47,2.47,0,0,1-.86.68,2.72,2.72,0,0,1-1.17.24,2.34,2.34,0,0,1-1.25-.31,2.48,2.48,0,0,1-.8-.84h0v1H71.2Zm3,8A1.57,1.57,0,0,0,75.52,41,2.74,2.74,0,0,0,76,39.21a2.83,2.83,0,0,0-.47-1.72,1.56,1.56,0,0,0-1.33-.61,1.47,1.47,0,0,0-1.32.62,3.2,3.2,0,0,0-.41,1.74A3,3,0,0,0,72.89,41,1.48,1.48,0,0,0,74.21,41.57Z"/><path d="M79,36h1.29v3.85a2.12,2.12,0,0,0,.26,1.19,1,1,0,0,0,.93.4A1.51,1.51,0,0,0,82.62,41a1.81,1.81,0,0,0,.43-1.29V36h1.29v6.42H83.05v-1h0a2.63,2.63,0,0,1-.78.84,2.28,2.28,0,0,1-1.24.31,1.89,1.89,0,0,1-1.58-.61A2.8,2.8,0,0,1,79,40.21Z"/><path d="M86.43,37.07h-.89V36h.89V34.36h1.29V36h1.5v1.06h-1.5v3.37a1,1,0,0,0,.22.71,1,1,0,0,0,.69.23l.3,0,.33,0v1.13l-.4.07a3.23,3.23,0,0,1-.46,0,1.77,1.77,0,0,1-2-2Z"/><path d="M30.28,53.4h0a2.62,2.62,0,0,1-.79.83,2.26,2.26,0,0,1-1.28.32A2.59,2.59,0,0,1,27,54.3a2.35,2.35,0,0,1-.85-.68,3,3,0,0,1-.51-1.06,4.58,4.58,0,0,1-.18-1.32,4.94,4.94,0,0,1,.18-1.37,3.05,3.05,0,0,1,.53-1,2.39,2.39,0,0,1,.86-.68,2.57,2.57,0,0,1,1.16-.25,2.26,2.26,0,0,1,1.26.31,2.55,2.55,0,0,1,.8.8h0V45.55h1.29v8.88H30.28Zm-1.71.17A1.46,1.46,0,0,0,29.88,53a3.08,3.08,0,0,0,.41-1.75,3,3,0,0,0-.42-1.71,1.48,1.48,0,0,0-1.32-.61,1.55,1.55,0,0,0-1.3.61,2.78,2.78,0,0,0-.48,1.75A2.72,2.72,0,0,0,27.24,53,1.57,1.57,0,0,0,28.57,53.57Z"/><path d="M33.63,48h1.28v3.85a2.12,2.12,0,0,0,.27,1.19,1,1,0,0,0,.92.4A1.52,1.52,0,0,0,37.29,53a1.86,1.86,0,0,0,.43-1.29V48H39v6.42H37.72v-1h0a2.5,2.5,0,0,1-.77.84,2.3,2.3,0,0,1-1.24.31,1.89,1.89,0,0,1-1.58-.61,2.74,2.74,0,0,1-.47-1.73Z"/><path d="M50.05,52.07a2.48,2.48,0,0,1-.78,1.84,2.91,2.91,0,0,1-2,.64,3.45,3.45,0,0,1-1.34-.24,2.54,2.54,0,0,1-1-.68,3,3,0,0,1-.56-1.05,4.79,4.79,0,0,1-.19-1.35,4.46,4.46,0,0,1,.2-1.36A3.09,3.09,0,0,1,45,48.81a2.62,2.62,0,0,1,1-.68,3.29,3.29,0,0,1,1.31-.24,2.92,2.92,0,0,1,2,.65,2.52,2.52,0,0,1,.79,1.86H48.78a1.57,1.57,0,0,0-.47-1.08,1.73,1.73,0,0,0-2.34.19,3.52,3.52,0,0,0,0,3.41,1.53,1.53,0,0,0,1.28.57,1.57,1.57,0,0,0,1.07-.35,1.53,1.53,0,0,0,.46-1.07Z"/><path d="M54.65,54.55a3.45,3.45,0,0,1-1.32-.24,2.73,2.73,0,0,1-1-.68,2.94,2.94,0,0,1-.64-1.05,3.9,3.9,0,0,1-.23-1.35,4,4,0,0,1,.23-1.37,2.94,2.94,0,0,1,.64-1,2.86,2.86,0,0,1,1-.68,3.45,3.45,0,0,1,1.32-.24,3.54,3.54,0,0,1,1.33.24,2.86,2.86,0,0,1,1,.68,3,3,0,0,1,.65,1,4,4,0,0,1,.23,1.37,3.9,3.9,0,0,1-.23,1.35A3,3,0,0,1,57,53.63a2.73,2.73,0,0,1-1,.68A3.54,3.54,0,0,1,54.65,54.55Zm0-1a1.71,1.71,0,0,0,1.41-.63,2.66,2.66,0,0,0,.5-1.69,2.7,2.7,0,0,0-.5-1.71,1.88,1.88,0,0,0-2.81,0,2.7,2.7,0,0,0-.5,1.71,2.66,2.66,0,0,0,.5,1.69A1.71,1.71,0,0,0,54.65,53.55Z"/><path d="M59.52,48H60.8v1h0a2.3,2.3,0,0,1,.81-.83,2.46,2.46,0,0,1,1.29-.3,2,2,0,0,1,1.63.61A2.82,2.82,0,0,1,65,50.23v4.2H63.75V50.58a2,2,0,0,0-.29-1.19,1.1,1.1,0,0,0-1-.4,1.64,1.64,0,0,0-1.24.48,1.78,1.78,0,0,0-.46,1.29v3.67H59.52Z"/><path d="M67.26,49.1h-.85V48h.85v-.57a2.06,2.06,0,0,1,.51-1.56,1.94,1.94,0,0,1,1.41-.48l.42,0,.39.09v1.1a2,2,0,0,0-.31,0l-.27,0a1,1,0,0,0-.66.2.92.92,0,0,0-.21.69V48H70V49.1H68.54v5.39H67.26Z"/><path d="M71.87,46.88a.78.78,0,0,1-.6-.23.81.81,0,0,1-.22-.58.84.84,0,0,1,.22-.6.83.83,0,0,1,1.42.6.78.78,0,0,1-.24.58A.78.78,0,0,1,71.87,46.88ZM71.23,48h1.28v6.42H71.23Z"/><path d="M74.57,48h1.29v1h0A2.21,2.21,0,0,1,78,47.89a2,2,0,0,1,1.63.61,2.82,2.82,0,0,1,.47,1.73v4.2H78.8V50.58a2.13,2.13,0,0,0-.28-1.19,1.12,1.12,0,0,0-1-.4,1.64,1.64,0,0,0-1.24.48,1.78,1.78,0,0,0-.45,1.29v3.67H74.57Z"/><path d="M87.53,52.23a2.37,2.37,0,0,1-.24.93,2.14,2.14,0,0,1-.56.74,2.64,2.64,0,0,1-.86.47,3.31,3.31,0,0,1-1.13.18,3.48,3.48,0,0,1-1.36-.24,2.37,2.37,0,0,1-.93-.68,2.77,2.77,0,0,1-.55-1.05,5.2,5.2,0,0,1-.17-1.35,4.81,4.81,0,0,1,.18-1.36,2.93,2.93,0,0,1,.57-1.06,2.55,2.55,0,0,1,.93-.68,3.74,3.74,0,0,1,2.61,0,2.19,2.19,0,0,1,.87.66,2.7,2.7,0,0,1,.5,1,5.81,5.81,0,0,1,.16,1.38v.21H83A2.56,2.56,0,0,0,83.48,53a1.5,1.5,0,0,0,1.2.52,1.73,1.73,0,0,0,1.09-.33,1.36,1.36,0,0,0,.49-1Zm-1.26-1.65a1.92,1.92,0,0,0-.41-1.21,1.4,1.4,0,0,0-1.13-.47,1.64,1.64,0,0,0-1.16.41,2,2,0,0,0-.52,1.27Z"/><path d="M89.35,48h1.28v1h0a2.31,2.31,0,0,1,.72-.82,1.91,1.91,0,0,1,1.15-.31,2,2,0,0,1,1.18.31,1.75,1.75,0,0,1,.65.88h0a2.26,2.26,0,0,1,.79-.88,2.14,2.14,0,0,1,1.2-.31,1.84,1.84,0,0,1,1.53.6,2.69,2.69,0,0,1,.48,1.74v4.2H97.1V50.58a2.15,2.15,0,0,0-.27-1.21A1,1,0,0,0,96,49a1.4,1.4,0,0,0-1.06.42,1.73,1.73,0,0,0-.41,1.25v3.77H93.23V50.58A2.35,2.35,0,0,0,93,49.39a.94.94,0,0,0-.87-.4,1.36,1.36,0,0,0-1.1.47,2,2,0,0,0-.39,1.3v3.67H89.35Z"/><path d="M105.84,52.23a2.37,2.37,0,0,1-.24.93,2.3,2.3,0,0,1-.57.74,2.59,2.59,0,0,1-.85.47,3.37,3.37,0,0,1-1.14.18,3.46,3.46,0,0,1-1.35-.24,2.4,2.4,0,0,1-.94-.68,2.62,2.62,0,0,1-.54-1.05,4.79,4.79,0,0,1-.18-1.35,4.47,4.47,0,0,1,.19-1.36,2.91,2.91,0,0,1,.56-1.06,2.5,2.5,0,0,1,.94-.68,3.71,3.71,0,0,1,2.6,0,2.16,2.16,0,0,1,.88.66,2.85,2.85,0,0,1,.5,1,5.83,5.83,0,0,1,.15,1.38v.21h-4.52a2.5,2.5,0,0,0,.46,1.58,1.49,1.49,0,0,0,1.19.52,1.71,1.71,0,0,0,1.09-.33,1.37,1.37,0,0,0,.5-1Zm-1.26-1.65a2,2,0,0,0-.41-1.21A1.41,1.41,0,0,0,103,48.9a1.62,1.62,0,0,0-1.15.41,2,2,0,0,0-.53,1.27Z"/><path d="M107.66,48h1.28v1h0a2.22,2.22,0,0,1,2.11-1.13,1.94,1.94,0,0,1,1.62.61,2.76,2.76,0,0,1,.47,1.73v4.2h-1.28V50.58a2.05,2.05,0,0,0-.28-1.19,1.12,1.12,0,0,0-1-.4,1.6,1.6,0,0,0-1.23.48,1.74,1.74,0,0,0-.46,1.29v3.67h-1.28Z"/><path d="M115.24,49.07h-.9V48h.9V46.36h1.28V48H118v1.06h-1.5v3.37a1,1,0,0,0,.23.71.94.94,0,0,0,.69.23l.3,0,.32,0v1.13l-.4.07a3.09,3.09,0,0,1-.45,0,2.06,2.06,0,0,1-1.45-.48,2,2,0,0,1-.52-1.56Z"/><rect class="cls-15" x="392.7" y="271.53" width="170.79" height="16.1"/><path class="cls-14" d="M397,277.63v8.53h-1.88V273.94h2.77l1.41,6.63,1.43-6.63h2.75v12.22h-1.87v-8.53l-1.71,8.53h-1.2Z"/><path class="cls-14" d="M407.64,286.24c-2.22,0-3.16-1.22-3.16-3.75V277.6c0-2.51.93-3.74,3.16-3.74s3.15,1.22,3.15,3.74v4.89C410.79,285,409.81,286.24,407.64,286.24Zm0-10.31c-.83,0-1.21.41-1.21,1.91v4.42c0,1.5.38,1.89,1.21,1.89s1.2-.39,1.2-1.89v-4.42C408.84,276.34,408.47,275.93,407.64,275.93Z"/><path class="cls-14" d="M413,286.16V282l-2-8h1.9l1.08,4.62,1.09-4.62H417l-2,8v4.21Z"/><path class="cls-14" d="M417.87,273.94h4.8v2.13h-2.85v2.77h2.72v2h-2.72V284h2.85v2.13h-4.8Z"/><path class="cls-14" d="M425.48,279.35v6.81h-1.79V273.94h1.69l2.49,6.88v-6.88h1.79v12.22H428Z"/><path class="cls-14" d="M432.5,279.35v6.81h-1.8V273.94h1.69l2.49,6.88v-6.88h1.79v12.22H435Z"/><path class="cls-14" d="M437.72,273.94h4.8v2.13h-2.85v2.77h2.72v2h-2.72V284h2.85v2.13h-4.8Z"/><path class="cls-14" d="M446.31,273.94h2.92c2.33,0,3.16,1.08,3.16,3.81v4.6c0,2.73-.83,3.81-3.16,3.81h-2.92Zm1.95,2.05v8.12h1c.84,0,1.22-.42,1.22-2V278c0-1.62-.38-2-1.22-2Z"/><path class="cls-14" d="M453.39,282.31v-8.37h1.95V282c0,1.65.32,2.13,1,2.13s1-.46,1-2.13v-8.08h1.95v8.37c0,2.92-.74,3.93-3,3.93S453.39,285.26,453.39,282.31Z"/><path class="cls-14" d="M466.74,276.17v10h-1.95v-10h-1.66v-2.23h5.27v2.23Z"/><path class="cls-14" d="M472.21,286.24c-2.21,0-3.16-1.22-3.16-3.75V277.6c0-2.51.93-3.74,3.16-3.74s3.15,1.22,3.15,3.74v4.89C475.36,285,474.38,286.24,472.21,286.24Zm0-10.31c-.83,0-1.21.41-1.21,1.91v4.42c0,1.5.38,1.89,1.21,1.89s1.2-.39,1.2-1.89v-4.42C473.41,276.34,473.05,275.93,472.21,275.93Z"/><path class="cls-14" d="M479.63,276.17v10h-1.95v-10H476v-2.23h5.28v2.23Z"/><path class="cls-14" d="M485,283.19h-1.66l-.34,3h-1.9l1.56-12.22h3l1.56,12.22h-1.9Zm-.82-7.14-.63,5.33h1.24Z"/><path class="cls-14" d="M488.13,273.94h1.95V284h2.85v2.13h-4.8Z"/><path class="cls-14" d="M502.7,283.34c0,2-.95,2.9-3.05,2.9s-3-.86-3-3.17v-1.33h1.95v1.14c0,1.05.38,1.39,1.12,1.39s1.08-.25,1.08-1.06v-1.07c0-.7-.25-.85-1.52-1.17-1.94-.55-2.63-1.05-2.63-2.94v-1.27c0-2.06.91-2.9,3-2.9s3.05,1,3.05,3.14v1.3h-1.95v-1.14c0-.93-.37-1.3-1.13-1.3s-1.09.3-1.09,1.05v1c0,.66.23.84,1.6,1.16,1.91.49,2.57,1.08,2.57,2.94Z"/><path class="cls-14" d="M503.69,282.31v-8.37h1.95V282c0,1.65.31,2.13,1,2.13s1-.46,1-2.13v-8.08h2v8.37c0,2.92-.75,3.93-3,3.93S503.69,285.26,503.69,282.31Z"/><path class="cls-14" d="M510.7,286.16V273.94h2.86c2.12,0,2.72.7,2.72,2.89v1.68a2.61,2.61,0,0,1-.92,2.37l1.09,5.28h-2l-.94-4.87h-.83v4.87ZM512.65,276v3.36h.91c.55,0,.77-.18.77-1.11V277.1c0-.93-.22-1.11-.77-1.11Z"/><path class="cls-14" d="M521.08,286.16A24,24,0,0,1,523.89,276H520v-2.05h6.09v1.68a22.78,22.78,0,0,0-2.91,10.56Z"/><path class="cls-14" d="M529.58,284h.51c.7,0,1.1-.42,1.1-1.46v-8.56h1.94v9.12c0,2.41-1.07,3.09-2.59,3.1h-1Z"/><path class="cls-14" d="M537.29,286.24c-2.21,0-3.15-1.22-3.15-3.75V277.6c0-2.51.93-3.74,3.15-3.74s3.16,1.22,3.16,3.74v4.89C540.45,285,539.46,286.24,537.29,286.24Zm0-10.31c-.82,0-1.2.41-1.2,1.91v4.42c0,1.5.38,1.89,1.2,1.89s1.21-.39,1.21-1.89v-4.42C538.5,276.34,538.13,275.93,537.29,275.93Z"/><path class="cls-14" d="M541.45,282.31v-8.37h1.95V282c0,1.65.31,2.13,1,2.13s1-.46,1-2.13v-8.08h1.95v8.37c0,2.92-.75,3.93-3,3.93S541.45,285.26,541.45,282.31Z"/><path class="cls-14" d="M548.46,286.16V273.94h2.86c2.12,0,2.72.7,2.72,2.89v1.68a2.58,2.58,0,0,1-.92,2.37l1.09,5.28h-2l-.94-4.87h-.82v4.87Zm2-10.17v3.36h.9c.55,0,.77-.18.77-1.11V277.1c0-.93-.22-1.11-.77-1.11Z"/><path class="cls-14" d="M561.12,283.34c0,2-.94,2.9-3,2.9s-3.05-.86-3.05-3.17v-1.33h2v1.14c0,1.05.38,1.39,1.12,1.39s1.08-.25,1.08-1.06v-1.07c0-.7-.25-.85-1.52-1.17-1.94-.55-2.63-1.05-2.63-2.94v-1.27c0-2.06.91-2.9,3.05-2.9s3,1,3,3.14v1.3h-2v-1.14c0-.93-.37-1.3-1.13-1.3s-1.08.3-1.08,1.05v1c0,.66.22.84,1.59,1.16,1.91.49,2.57,1.08,2.57,2.94Z"/></g></svg>