<?xml version="1.0" encoding="utf-8"?>
<!-- Generator: Adobe Illustrator 24.0.3, SVG Export Plug-In . SVG Version: 6.00 Build 0)  -->
<svg version="1.1" id="Calque_1" xmlns="http://www.w3.org/2000/svg" xmlns:xlink="http://www.w3.org/1999/xlink" x="0px" y="0px"
	 viewBox="0 0 600 524.5" style="enable-background:new 0 0 600 524.5;" xml:space="preserve">
<style type="text/css">
	.st0{fill:#FFFFFF;}
	.st1{enable-background:new    ;}
	.st2{fill:#231F20;}
	.st3{fill:none;}
	.st4{fill:#E3234A;}
	.st5{fill:none;stroke:#000000;stroke-width:2;stroke-miterlimit:10;}
	.st6{fill:none;stroke:#000000;stroke-width:0.5;stroke-miterlimit:10;stroke-dasharray:5,2;}
	.st7{fill:none;stroke:#FFFFFF;stroke-width:0.5;stroke-linejoin:round;}
</style>
<title>LIB-2020-05-07-salaries-activite-partielle</title>
<g id="FOND">
	<rect id="Fond_blanc" y="-51.3" class="st0" width="600" height="600"/>
</g>
<path d="M6.7,524.3v-1.6h1.8v-6.2l-1.9,1.3v-2l2.2-1.6h2v8.5h1.7v1.6H6.7z"/>
<path d="M13,517.6L13,517.6c-0.1-1.2,0.9-2.2,2-2.3c0.1,0,0.1,0,0.2,0c1.1,0,2,0.8,2.1,1.9c0,0.1,0,0.2,0,0.3v0.3h-3.1
	c0.1,0.7,0.4,1.1,1.1,1.1s0.8-0.2,0.9-0.6h1.1c-0.1,0.9-0.9,1.4-2,1.4c-1.1,0.1-2.2-0.7-2.3-1.9C13,517.8,13,517.7,13,517.6z
	 M16.1,517c0-0.5-0.3-0.9-0.8-0.9h-0.1c-0.5,0-1,0.4-1,0.9H16.1z"/>
<path d="M17.7,519.6v-0.8h0.5v-2.6h-0.5v-0.9h1.6v0.9c0.2-0.6,0.8-1,1.5-0.9v1.1c-0.9,0-1.5,0.3-1.5,1.1v1.3h0.5v0.8L17.7,519.6
	L17.7,519.6z"/>
<path d="M24.2,524.3v-1.4H25v-4.4h-0.8V517H27v1.2c0.4-0.8,1.3-1.4,2.2-1.4c0.9,0,1.7,0.5,2,1.4c0.5-0.9,1.4-1.4,2.4-1.4
	c1.3,0,2.4,0.8,2.4,2.8v3.2h0.8v1.4h-3.6v-1.4H34v-3.1c0-0.9-0.4-1.4-1.1-1.4c-0.8,0-1.4,0.6-1.4,1.4c0,0.1,0,0.1,0,0.2v2.9h0.8v1.4
	h-3.6v-1.4h0.8v-3.1c0-0.9-0.4-1.4-1.1-1.4c-0.8,0-1.4,0.6-1.3,1.4v0.1v2.9h0.8v1.4h-3.7V524.3z"/>
<path d="M39.8,524.5c-1.2,0.2-2.2-0.6-2.4-1.8c0-0.1,0-0.3,0-0.4c0-1.8,1.6-2.3,3.8-2.3H42v-0.3c0-0.9-0.3-1.3-1.2-1.3
	c-0.5-0.1-1.1,0.2-1.2,0.8c0,0.1,0,0.1,0,0.2h-2c0.1-1.8,1.5-2.5,3.2-2.5s3,0.7,3,2.7v3.3h0.8v1.4H42v-1
	C41.6,524,40.7,524.5,39.8,524.5z M42,521.7v-0.6h-0.8c-1.2,0-1.8,0.3-1.8,1c0,0.5,0.3,0.9,1,0.9C41.3,523,42,522.6,42,521.7z"/>
<path d="M45.3,524.3v-1.4h0.8v-4.4h-0.8V517h2.8v1.5c0.4-1,1.4-1.7,2.5-1.6v1.9c-1.6,0-2.5,0.5-2.5,1.8v2.2H49v1.4L45.3,524.3z"/>
<path d="M52.8,523.5v0.8h-1.5v-2.4h1.5c0.1,0.8,0.8,1.3,1.6,1.3s1.2-0.3,1.2-0.9s-0.5-0.8-1.5-0.9c-2-0.3-2.7-1-2.7-2.3
	c0-1.2,1-2.2,2.2-2.2c0.1,0,0.2,0,0.3,0c1.2,0,1.7,0.4,1.9,0.8V517h1.4v2.2h-1.4c-0.2-0.7-0.8-1.1-1.5-1.1c-0.6,0-1,0.2-1,0.8
	s0.3,0.7,1.4,0.9c1.8,0.3,2.8,0.8,2.8,2.3s-1,2.4-2.7,2.4C54,524.6,53.2,524.2,52.8,523.5z"/>
<path d="M500.1,524.3v-1.6h1.1v-1h-4.7v-1.1l4.2-6.2h2.8v5.8h1.3v1.5h-1.3v1h1.1v1.6H500.1z M501.3,520.1v-4.3l-2.8,4.3H501.3z"/>
<path d="M508.3,524.3v-1.4h0.8v-4.4h-0.8V517h2.8v1.2c0.4-0.9,1.3-1.4,2.2-1.4s1.7,0.5,2,1.4c0.5-0.9,1.4-1.4,2.4-1.4
	c1.3,0,2.4,0.8,2.4,2.8v3.2h0.8v1.4h-3.6v-1.4h0.8v-3.1c0-0.9-0.4-1.4-1.1-1.4c-0.8,0-1.4,0.6-1.4,1.4c0,0.1,0,0.1,0,0.2v2.9h0.8
	v1.4h-3.6v-1.4h0.8v-3.1c0-0.9-0.4-1.4-1.1-1.4c-0.8,0-1.4,0.6-1.4,1.4v0.1v2.9h0.8v1.4h-3.6L508.3,524.3L508.3,524.3z"/>
<path d="M524,524.5c-1.2,0.2-2.3-0.6-2.4-1.8c0-0.1,0-0.2,0-0.4c0-1.8,1.6-2.3,3.8-2.3h0.8v-0.3c0-0.9-0.3-1.3-1.2-1.3
	c-0.6-0.1-1.1,0.3-1.2,0.9v0.1h-2c0.1-1.8,1.5-2.5,3.2-2.5s3.1,0.7,3.1,2.7v3.3h0.8v1.4h-2.7v-1C525.7,524,524.9,524.5,524,524.5z
	 M526.1,521.7v-0.6h-0.8c-1.2,0-1.8,0.3-1.8,1c0,0.5,0.3,0.9,1,0.9S526.1,522.6,526.1,521.7z"/>
<path d="M529.5,524.3v-1.4h0.8v-4.4h-0.8V517h2.8v5.9h0.8v1.4L529.5,524.3L529.5,524.3z M530,514.9c0-0.7,0.5-1.2,1.1-1.2
	s1.2,0.5,1.2,1.1c0,0.7-0.5,1.2-1.1,1.2c0,0,0,0-0.1,0C530.6,516,530,515.6,530,514.9L530,514.9L530,514.9z"/>
<g class="st1">
	<path d="M544.6,501.8v-0.4c0-1.9,1-3.1,2.7-3.1c1.7,0,2.7,1.3,2.7,3.1v0.4c0,1.9-1,3.1-2.7,3.1
		C545.7,504.9,544.6,503.7,544.6,501.8z M549.2,501.8v-0.4c0-1.5-0.7-2.5-1.9-2.5c-1.2,0-1.9,0.9-1.9,2.5v0.4c0,1.6,0.7,2.5,1.9,2.5
		C548.6,504.3,549.2,503.4,549.2,501.8z"/>
</g>
<g class="st1">
	<path d="M548.3,420.2h0.8v1.7h-4.8v-0.3l2.7-2.5c0.7-0.6,1-1.2,1-1.9c0-0.7-0.5-1.2-1.2-1.2c-0.8,0-1.3,0.4-1.5,1.4h-0.8
		c0.1-1.3,0.9-2.1,2.2-2.1c1.3,0,2.1,0.7,2.1,1.8c0,0.8-0.5,1.5-1.4,2.3l-1.9,1.7h2.7V420.2z"/>
	<path d="M552.1,421.8v-0.6h0.7v-3.5h-0.7v-0.6h1.5v0.8c0.2-0.5,0.8-0.9,1.5-0.9c0.7,0,1.2,0.3,1.5,1c0.3-0.7,1-1,1.7-1
		c0.9,0,1.7,0.5,1.7,1.9v2.3h0.7v0.6h-2.2v-0.6h0.7v-2.4c0-0.8-0.4-1.2-1-1.2c-0.7,0-1.3,0.4-1.3,1.3v2.3h0.7v0.6h-2.3v-0.6h0.7
		v-2.4c0-0.8-0.4-1.2-1-1.2c-0.7,0-1.3,0.4-1.3,1.3v2.3h0.7v0.6H552.1z"/>
	<path d="M561.2,421.8v-0.6h0.7v-3.5h-0.7v-0.6h1.5v4.1h0.7v0.6H561.2z M561.7,415.6c0-0.3,0.3-0.5,0.6-0.5c0.3,0,0.6,0.2,0.6,0.5
		c0,0.3-0.3,0.5-0.6,0.5C562,416.2,561.7,415.9,561.7,415.6z"/>
	<path d="M564,421.8v-0.6h0.7v-5.8H564v-0.6h1.5v6.4h0.7v0.6H564z"/>
	<path d="M566.7,421.8v-0.6h0.7v-5.8h-0.7v-0.6h1.5v6.4h0.7v0.6H566.7z"/>
	<path d="M569.5,421.8v-0.6h0.7v-3.5h-0.7v-0.6h1.5v4.1h0.7v0.6H569.5z M570,415.6c0-0.3,0.3-0.5,0.6-0.5c0.3,0,0.6,0.2,0.6,0.5
		c0,0.3-0.3,0.5-0.6,0.5C570.3,416.2,570,415.9,570,415.6z"/>
	<path d="M572.3,419.5L572.3,419.5c0-1.5,1.1-2.5,2.5-2.5s2.5,1,2.5,2.4v0.1c0,1.4-1.1,2.4-2.5,2.4S572.3,420.9,572.3,419.5z
		 M576.5,419.5L576.5,419.5c0-1.2-0.7-1.9-1.7-1.9c-1,0-1.7,0.7-1.7,1.8v0.1c0,1.1,0.6,1.8,1.7,1.8
		C575.8,421.3,576.5,420.6,576.5,419.5z"/>
	<path d="M578,421.8v-0.6h0.7v-3.5H578v-0.6h1.5v0.8c0.2-0.4,0.8-0.9,1.6-0.9c1,0,1.8,0.5,1.8,1.9v2.3h0.7v0.6h-2.2v-0.6h0.7v-2.4
		c0-0.8-0.4-1.2-1.2-1.2c-0.7,0-1.4,0.4-1.4,1.3v2.3h0.7v0.6H578z"/>
	<path d="M584.9,421.3v0.6h-0.7v-1.6h0.7c0.1,0.5,0.6,1.1,1.4,1.1c0.7,0,1-0.3,1-0.8c0-0.5-0.4-0.7-1.2-0.8
		c-1.3-0.2-1.8-0.7-1.8-1.4c0-0.8,0.7-1.3,1.6-1.3c0.7,0,1.1,0.2,1.3,0.6v-0.5h0.7v1.4h-0.7c-0.1-0.5-0.6-0.8-1.2-0.8
		c-0.6,0-0.9,0.2-0.9,0.6c0,0.4,0.3,0.6,1.2,0.8c1,0.2,1.8,0.4,1.8,1.4c0,0.8-0.6,1.4-1.8,1.4C585.4,421.9,585,421.5,584.9,421.3z"
		/>
</g>
<g class="st1">
	<path d="M546.9,338.8v-0.6h1v-0.9h-3.5V337l3.2-4.6h1.1v4.3h1v0.6h-1v0.9h0.9v0.6H546.9z M547.8,336.7V333l-2.6,3.7H547.8z"/>
	<path d="M552.5,338.8v-0.6h0.7v-3.5h-0.7v-0.6h1.5v0.8c0.2-0.5,0.8-0.9,1.5-0.9c0.7,0,1.2,0.3,1.5,1c0.3-0.7,1-1,1.7-1
		c0.9,0,1.7,0.5,1.7,1.9v2.3h0.7v0.6h-2.2v-0.6h0.7v-2.4c0-0.8-0.4-1.2-1-1.2c-0.7,0-1.3,0.4-1.3,1.3v2.3h0.7v0.6h-2.3v-0.6h0.7
		v-2.4c0-0.8-0.4-1.2-1-1.2c-0.7,0-1.3,0.4-1.3,1.3v2.3h0.7v0.6H552.5z"/>
	<path d="M561.5,338.8v-0.6h0.7v-3.5h-0.7v-0.6h1.5v4.1h0.7v0.6H561.5z M562.1,332.6c0-0.3,0.3-0.5,0.6-0.5c0.3,0,0.6,0.2,0.6,0.5
		c0,0.3-0.3,0.5-0.6,0.5C562.3,333.2,562.1,332.9,562.1,332.6z"/>
	<path d="M564.3,338.8v-0.6h0.7v-5.8h-0.7v-0.6h1.5v6.4h0.7v0.6H564.3z"/>
	<path d="M567.1,338.8v-0.6h0.7v-5.8h-0.7v-0.6h1.5v6.4h0.7v0.6H567.1z"/>
	<path d="M569.8,338.8v-0.6h0.7v-3.5h-0.7v-0.6h1.5v4.1h0.7v0.6H569.8z M570.4,332.6c0-0.3,0.3-0.5,0.6-0.5c0.3,0,0.6,0.2,0.6,0.5
		c0,0.3-0.3,0.5-0.6,0.5C570.6,333.2,570.4,332.9,570.4,332.6z"/>
	<path d="M572.7,336.5L572.7,336.5c0-1.5,1.1-2.5,2.5-2.5s2.5,1,2.5,2.4v0.1c0,1.4-1.1,2.4-2.5,2.4S572.7,337.9,572.7,336.5z
		 M576.8,336.5L576.8,336.5c0-1.2-0.7-1.9-1.7-1.9c-1,0-1.7,0.7-1.7,1.8v0.1c0,1.1,0.6,1.8,1.7,1.8
		C576.2,338.3,576.8,337.6,576.8,336.5z"/>
	<path d="M578.3,338.8v-0.6h0.7v-3.5h-0.7v-0.6h1.5v0.8c0.2-0.4,0.8-0.9,1.6-0.9c1,0,1.8,0.5,1.8,1.9v2.3h0.7v0.6h-2.2v-0.6h0.7
		v-2.4c0-0.8-0.4-1.2-1.2-1.2c-0.7,0-1.4,0.4-1.4,1.3v2.3h0.7v0.6H578.3z"/>
	<path d="M585.2,338.3v0.6h-0.7v-1.6h0.7c0.1,0.5,0.6,1.1,1.4,1.1c0.7,0,1-0.3,1-0.8c0-0.5-0.4-0.7-1.2-0.8
		c-1.3-0.2-1.8-0.7-1.8-1.4c0-0.8,0.7-1.3,1.6-1.3c0.7,0,1.1,0.2,1.3,0.6v-0.5h0.7v1.4h-0.7c-0.1-0.5-0.6-0.8-1.2-0.8
		c-0.6,0-0.9,0.2-0.9,0.6c0,0.4,0.3,0.6,1.2,0.8c1,0.2,1.8,0.4,1.8,1.4c0,0.8-0.6,1.4-1.8,1.4C585.8,338.9,585.4,338.5,585.2,338.3z
		"/>
</g>
<g class="st1">
	<path d="M547.1,255.9c-1.9,0-2.5-1.3-2.5-2.9v-0.2c0-2.3,1.1-3.5,2.7-3.5c1.1,0,1.8,0.5,2,1.6h-0.8c-0.2-0.6-0.5-0.9-1.3-0.9
		c-1,0-1.8,0.9-1.8,2.6c0.3-0.5,1-0.9,1.8-0.9c1.4,0,2.3,0.9,2.3,2.1C549.5,255.1,548.6,255.9,547.1,255.9z M548.7,253.8
		c0-0.9-0.6-1.5-1.5-1.5c-0.9,0-1.6,0.6-1.6,1.4c0,1.1,0.7,1.6,1.6,1.6C548,255.3,548.7,254.7,548.7,253.8z"/>
	<path d="M552.5,255.8v-0.6h0.7v-3.5h-0.7v-0.6h1.5v0.8c0.2-0.5,0.8-0.9,1.5-0.9c0.7,0,1.2,0.3,1.5,1c0.3-0.7,1-1,1.7-1
		c0.9,0,1.7,0.5,1.7,1.9v2.3h0.7v0.6h-2.2v-0.6h0.7v-2.4c0-0.8-0.4-1.2-1-1.2c-0.7,0-1.3,0.4-1.3,1.3v2.3h0.7v0.6h-2.3v-0.6h0.7
		v-2.4c0-0.8-0.4-1.2-1-1.2c-0.7,0-1.3,0.4-1.3,1.3v2.3h0.7v0.6H552.5z"/>
	<path d="M561.5,255.8v-0.6h0.7v-3.5h-0.7v-0.6h1.5v4.1h0.7v0.6H561.5z M562.1,249.6c0-0.3,0.3-0.5,0.6-0.5c0.3,0,0.6,0.2,0.6,0.5
		s-0.3,0.5-0.6,0.5C562.3,250.2,562.1,249.9,562.1,249.6z"/>
	<path d="M564.3,255.8v-0.6h0.7v-5.8h-0.7v-0.6h1.5v6.4h0.7v0.6H564.3z"/>
	<path d="M567.1,255.8v-0.6h0.7v-5.8h-0.7v-0.6h1.5v6.4h0.7v0.6H567.1z"/>
	<path d="M569.8,255.8v-0.6h0.7v-3.5h-0.7v-0.6h1.5v4.1h0.7v0.6H569.8z M570.4,249.6c0-0.3,0.3-0.5,0.6-0.5c0.3,0,0.6,0.2,0.6,0.5
		s-0.3,0.5-0.6,0.5C570.6,250.2,570.4,249.9,570.4,249.6z"/>
	<path d="M572.7,253.5L572.7,253.5c0-1.5,1.1-2.5,2.5-2.5s2.5,1,2.5,2.4v0.1c0,1.4-1.1,2.4-2.5,2.4S572.7,254.9,572.7,253.5z
		 M576.8,253.5L576.8,253.5c0-1.2-0.7-1.9-1.7-1.9c-1,0-1.7,0.7-1.7,1.8v0.1c0,1.1,0.6,1.8,1.7,1.8
		C576.2,255.3,576.8,254.6,576.8,253.5z"/>
	<path d="M578.3,255.8v-0.6h0.7v-3.5h-0.7v-0.6h1.5v0.8c0.2-0.4,0.8-0.9,1.6-0.9c1,0,1.8,0.5,1.8,1.9v2.3h0.7v0.6h-2.2v-0.6h0.7
		v-2.4c0-0.8-0.4-1.2-1.2-1.2c-0.7,0-1.4,0.4-1.4,1.3v2.3h0.7v0.6H578.3z"/>
	<path d="M585.2,255.3v0.6h-0.7v-1.6h0.7c0.1,0.5,0.6,1.1,1.4,1.1c0.7,0,1-0.3,1-0.8c0-0.5-0.4-0.7-1.2-0.8
		c-1.3-0.2-1.8-0.7-1.8-1.4c0-0.8,0.7-1.3,1.6-1.3c0.7,0,1.1,0.2,1.3,0.6v-0.5h0.7v1.4h-0.7c-0.1-0.5-0.6-0.8-1.2-0.8
		c-0.6,0-0.9,0.2-0.9,0.6c0,0.4,0.3,0.6,1.2,0.8c1,0.2,1.8,0.4,1.8,1.4c0,0.8-0.6,1.4-1.8,1.4C585.8,255.9,585.4,255.5,585.2,255.3z
		"/>
</g>
<g class="st1">
	<path d="M544.6,171c0-0.9,0.6-1.4,1.3-1.7c-0.7-0.2-1-0.7-1-1.4c0-1,1.1-1.7,2.1-1.7c1.1,0,2.1,0.6,2.1,1.7c0,0.6-0.4,1.1-1.1,1.4
		c0.8,0.3,1.3,0.8,1.3,1.7c0,1.3-1.2,1.9-2.4,1.9C545.9,172.9,544.6,172.3,544.6,171z M548.5,171c0-0.8-0.7-1.3-1.5-1.3
		s-1.6,0.4-1.6,1.3c0,0.8,0.7,1.3,1.5,1.3C547.9,172.3,548.5,171.8,548.5,171z M548.3,168c0-0.6-0.6-1.1-1.3-1.1
		c-0.7,0-1.3,0.4-1.3,1.1c0,0.7,0.6,1.1,1.3,1.1C547.8,169.1,548.3,168.7,548.3,168z"/>
	<path d="M552.3,172.8v-0.6h0.7v-3.5h-0.7v-0.6h1.5v0.8c0.2-0.5,0.8-0.9,1.5-0.9c0.7,0,1.2,0.3,1.5,1c0.3-0.7,1-1,1.7-1
		c0.9,0,1.7,0.5,1.7,1.9v2.3h0.7v0.6h-2.2v-0.6h0.7v-2.4c0-0.8-0.4-1.2-1-1.2c-0.7,0-1.3,0.4-1.3,1.3v2.3h0.7v0.6h-2.3v-0.6h0.7
		v-2.4c0-0.8-0.4-1.2-1-1.2c-0.7,0-1.3,0.4-1.3,1.3v2.3h0.7v0.6H552.3z"/>
	<path d="M561.4,172.8v-0.6h0.7v-3.5h-0.7v-0.6h1.5v4.1h0.7v0.6H561.4z M561.9,166.6c0-0.3,0.3-0.5,0.6-0.5c0.3,0,0.6,0.2,0.6,0.5
		s-0.3,0.5-0.6,0.5C562.2,167.2,561.9,166.9,561.9,166.6z"/>
	<path d="M564.2,172.8v-0.6h0.7v-5.8h-0.7v-0.6h1.5v6.4h0.7v0.6H564.2z"/>
	<path d="M567,172.8v-0.6h0.7v-5.8h-0.7v-0.6h1.5v6.4h0.7v0.6H567z"/>
	<path d="M569.7,172.8v-0.6h0.7v-3.5h-0.7v-0.6h1.5v4.1h0.7v0.6H569.7z M570.2,166.6c0-0.3,0.3-0.5,0.6-0.5c0.3,0,0.6,0.2,0.6,0.5
		s-0.3,0.5-0.6,0.5C570.5,167.2,570.2,166.9,570.2,166.6z"/>
	<path d="M572.6,170.5L572.6,170.5c0-1.5,1.1-2.5,2.5-2.5s2.5,1,2.5,2.4v0.1c0,1.4-1.1,2.4-2.5,2.4S572.6,171.9,572.6,170.5z
		 M576.7,170.5L576.7,170.5c0-1.2-0.7-1.9-1.7-1.9c-1,0-1.7,0.7-1.7,1.8v0.1c0,1.1,0.6,1.8,1.7,1.8
		C576.1,172.3,576.7,171.6,576.7,170.5z"/>
	<path d="M578.2,172.8v-0.6h0.7v-3.5h-0.7v-0.6h1.5v0.8c0.2-0.4,0.8-0.9,1.6-0.9c1,0,1.8,0.5,1.8,1.9v2.3h0.7v0.6h-2.2v-0.6h0.7
		v-2.4c0-0.8-0.4-1.2-1.2-1.2c-0.7,0-1.4,0.4-1.4,1.3v2.3h0.7v0.6H578.2z"/>
	<path d="M585.1,172.3v0.6h-0.7v-1.6h0.7c0.1,0.5,0.6,1.1,1.4,1.1c0.7,0,1-0.3,1-0.8c0-0.5-0.4-0.7-1.2-0.8
		c-1.3-0.2-1.8-0.7-1.8-1.4c0-0.8,0.7-1.3,1.6-1.3c0.7,0,1.1,0.2,1.3,0.6v-0.5h0.7v1.4h-0.7c-0.1-0.5-0.6-0.8-1.2-0.8
		c-0.6,0-0.9,0.2-0.9,0.6c0,0.4,0.3,0.6,1.2,0.8c1,0.2,1.8,0.4,1.8,1.4c0,0.8-0.6,1.4-1.8,1.4C585.7,172.9,585.3,172.5,585.1,172.3z
		"/>
</g>
<g class="st1">
	<path d="M544.7,89.8v-0.6h1.4v-5.1l-1.6,1v-0.7l1.6-1.1h0.8v5.8h1.4v0.6H544.7z"/>
</g>
<g class="st1">
	<path d="M548.9,86.8v-0.4c0-1.9,1-3.1,2.7-3.1c1.7,0,2.7,1.3,2.7,3.1v0.4c0,1.9-1,3.1-2.7,3.1C550,89.9,548.9,88.7,548.9,86.8z
		 M553.5,86.8v-0.4c0-1.5-0.7-2.5-1.9-2.5c-1.2,0-1.9,0.9-1.9,2.5v0.4c0,1.6,0.7,2.5,1.9,2.5C552.9,89.3,553.5,88.4,553.5,86.8z"/>
	<path d="M557.3,89.8v-0.6h0.7v-3.5h-0.7v-0.6h1.5v0.8c0.2-0.5,0.8-0.9,1.5-0.9c0.7,0,1.2,0.3,1.5,1c0.3-0.7,1-1,1.7-1
		c0.9,0,1.7,0.5,1.7,1.9v2.3h0.7v0.6h-2.2v-0.6h0.7v-2.4c0-0.8-0.4-1.2-1-1.2c-0.7,0-1.3,0.4-1.3,1.3v2.3h0.7v0.6h-2.3v-0.6h0.7
		v-2.4c0-0.8-0.4-1.2-1-1.2c-0.7,0-1.3,0.4-1.3,1.3v2.3h0.7v0.6H557.3z"/>
	<path d="M566.4,89.8v-0.6h0.7v-3.5h-0.7v-0.6h1.5v4.1h0.7v0.6H566.4z M566.9,83.6c0-0.3,0.3-0.5,0.6-0.5c0.3,0,0.6,0.2,0.6,0.5
		s-0.3,0.5-0.6,0.5C567.2,84.2,566.9,83.9,566.9,83.6z"/>
	<path d="M569.2,89.8v-0.6h0.7v-5.8h-0.7v-0.6h1.5v6.4h0.7v0.6H569.2z"/>
	<path d="M572,89.8v-0.6h0.7v-5.8h-0.7v-0.6h1.5v6.4h0.7v0.6H572z"/>
	<path d="M574.7,89.8v-0.6h0.7v-3.5h-0.7v-0.6h1.5v4.1h0.7v0.6H574.7z M575.2,83.6c0-0.3,0.3-0.5,0.6-0.5c0.3,0,0.6,0.2,0.6,0.5
		s-0.3,0.5-0.6,0.5C575.5,84.2,575.2,83.9,575.2,83.6z"/>
	<path d="M577.5,87.5L577.5,87.5c0-1.5,1.1-2.5,2.5-2.5s2.5,1,2.5,2.4v0.1c0,1.4-1.1,2.4-2.5,2.4S577.5,88.9,577.5,87.5z
		 M581.7,87.5L581.7,87.5c0-1.2-0.7-1.9-1.7-1.9c-1,0-1.7,0.7-1.7,1.8v0.1c0,1.1,0.6,1.8,1.7,1.8C581.1,89.3,581.7,88.6,581.7,87.5z
		"/>
	<path d="M583.2,89.8v-0.6h0.7v-3.5h-0.7v-0.6h1.5v0.8c0.2-0.4,0.8-0.9,1.6-0.9c1,0,1.8,0.5,1.8,1.9v2.3h0.7v0.6h-2.2v-0.6h0.7v-2.4
		c0-0.8-0.4-1.2-1.2-1.2c-0.7,0-1.4,0.4-1.4,1.3v2.3h0.7v0.6H583.2z"/>
	<path d="M590.1,89.3v0.6h-0.7v-1.6h0.7c0.1,0.5,0.6,1.1,1.4,1.1c0.7,0,1-0.3,1-0.8c0-0.5-0.4-0.7-1.2-0.8c-1.3-0.2-1.8-0.7-1.8-1.4
		c0-0.8,0.7-1.3,1.6-1.3c0.7,0,1.1,0.2,1.3,0.6v-0.5h0.7v1.4h-0.7c-0.1-0.5-0.6-0.8-1.2-0.8c-0.6,0-0.9,0.2-0.9,0.6
		c0,0.4,0.3,0.6,1.2,0.8c1,0.2,1.8,0.4,1.8,1.4c0,0.8-0.6,1.4-1.8,1.4C590.6,89.9,590.3,89.5,590.1,89.3z"/>
</g>
<g class="st1">
	<path class="st2" d="M544.7,6.8V6.2h1.4V1.2l-1.6,1V1.5l1.6-1.1h0.8v5.8h1.4v0.6H544.7z"/>
	<path class="st2" d="M552.8,5.2h0.8v1.7h-4.8V6.5l2.7-2.5c0.7-0.6,1-1.2,1-1.9c0-0.7-0.5-1.2-1.2-1.2c-0.8,0-1.3,0.4-1.5,1.4h-0.8
		c0.1-1.3,0.9-2.1,2.2-2.1c1.3,0,2.1,0.7,2.1,1.8c0,0.8-0.5,1.5-1.4,2.3l-1.9,1.7h2.7V5.2z"/>
	<path class="st2" d="M556.6,6.8V6.2h0.7V2.7h-0.7V2.1h1.5v0.8c0.2-0.5,0.8-0.9,1.5-0.9c0.7,0,1.2,0.3,1.5,1c0.3-0.7,1-1,1.7-1
		c0.9,0,1.7,0.5,1.7,1.9v2.3h0.7v0.6h-2.2V6.2h0.7V3.9c0-0.8-0.4-1.2-1-1.2c-0.7,0-1.3,0.4-1.3,1.3v2.3h0.7v0.6h-2.3V6.2h0.7V3.9
		c0-0.8-0.4-1.2-1-1.2c-0.7,0-1.3,0.4-1.3,1.3v2.3h0.7v0.6H556.6z"/>
	<path class="st2" d="M565.7,6.8V6.2h0.7V2.7h-0.7V2.1h1.5v4.1h0.7v0.6H565.7z M566.2,0.6c0-0.3,0.3-0.5,0.6-0.5
		c0.3,0,0.6,0.2,0.6,0.5s-0.3,0.5-0.6,0.5C566.4,1.2,566.2,0.9,566.2,0.6z"/>
	<path class="st2" d="M568.4,6.8V6.2h0.7V0.5h-0.7v-0.6h1.5v6.4h0.7v0.6H568.4z"/>
	<path class="st2" d="M571.2,6.8V6.2h0.7V0.5h-0.7v-0.6h1.5v6.4h0.7v0.6H571.2z"/>
	<path class="st2" d="M574,6.8V6.2h0.7V2.7H574V2.1h1.5v4.1h0.7v0.6H574z M574.5,0.6c0-0.3,0.3-0.5,0.6-0.5c0.3,0,0.6,0.2,0.6,0.5
		s-0.3,0.5-0.6,0.5C574.7,1.2,574.5,0.9,574.5,0.6z"/>
	<path class="st2" d="M576.8,4.5L576.8,4.5c0-1.5,1.1-2.5,2.5-2.5s2.5,1,2.5,2.4v0.1c0,1.4-1.1,2.4-2.5,2.4S576.8,5.9,576.8,4.5z
		 M581,4.5L581,4.5c0-1.2-0.7-1.9-1.7-1.9c-1,0-1.7,0.7-1.7,1.8v0.1c0,1.1,0.6,1.8,1.7,1.8C580.3,6.3,581,5.6,581,4.5z"/>
	<path class="st2" d="M582.5,6.8V6.2h0.7V2.7h-0.7V2.1h1.5v0.8c0.2-0.4,0.8-0.9,1.6-0.9c1,0,1.8,0.5,1.8,1.9v2.3h0.7v0.6h-2.2V6.2
		h0.7V3.9c0-0.8-0.4-1.2-1.2-1.2c-0.7,0-1.4,0.4-1.4,1.3v2.3h0.7v0.6H582.5z"/>
	<path class="st2" d="M589.4,6.3v0.6h-0.7V5.3h0.7c0.1,0.5,0.6,1.1,1.4,1.1c0.7,0,1-0.3,1-0.8c0-0.5-0.4-0.7-1.2-0.8
		c-1.3-0.2-1.8-0.7-1.8-1.4c0-0.8,0.7-1.3,1.6-1.3c0.7,0,1.1,0.2,1.3,0.6V2.1h0.7v1.4h-0.7c-0.1-0.5-0.6-0.8-1.2-0.8
		c-0.6,0-0.9,0.2-0.9,0.6c0,0.4,0.3,0.6,1.2,0.8c1,0.2,1.8,0.4,1.8,1.4c0,0.8-0.6,1.4-1.8,1.4C589.9,6.9,589.5,6.5,589.4,6.3z"/>
</g>
<polygon class="st3" points="573.7,-1.9 643.1,6.1 643.1,55.9 573.7,47.9 "/>
<polygon class="st4" points="533.8,504.1 4.2,504.1 4.2,504.1 12.5,503.8 20.8,503.6 29,503.5 37.3,503.2 45.6,502.8 53.8,502.8 
	62.1,502.8 70.4,502.3 78.7,501.6 86.9,501 95.2,499.8 103.5,498.3 111.8,498 120,497.5 128.3,497.2 136.6,490.4 144.9,485.9 
	153.1,481.7 161.4,477.7 169.7,477.3 178,476.9 186.2,468.9 194.5,451.9 202.8,433.1 211.1,414.5 219.3,396 227.6,392.7 
	235.9,388.8 244.2,365.4 252.4,337.8 260.7,316.2 269,290.3 277.2,260 285.5,256.2 293.8,253.9 302.1,230.8 310.4,207 318.6,182 
	326.9,157.4 335.2,139.4 343.5,134.9 351.7,133.6 360,131.2 368.3,116.5 376.5,104.4 384.8,94.4 393.1,83.7 401.4,82.8 409.6,82.1 
	417.9,72.6 426.2,65 434.5,56.2 442.7,48.8 451,42.1 459.3,41.2 467.6,40.7 475.8,31.9 484.1,24.8 492.4,17.3 500.7,8.6 508.9,8.1 
	517.2,7.8 525.5,7.4 533.8,2.5 "/>
<line class="st5" x1="6.5" y1="503.4" x2="533.5" y2="503.4"/>
<line class="st6" x1="145.5" y1="147.4" x2="145.5" y2="524.4"/>
<rect x="93.9" y="115.8" class="st0" width="103.1" height="31.5"/>
<path d="M128.6,119.7h3.2c0.6,0,1.2,0.1,1.7,0.3c0.5,0.2,0.9,0.5,1.3,0.9c0.4,0.4,0.7,0.9,0.9,1.4c0.4,1.2,0.4,2.4,0,3.6
	c-0.2,0.5-0.5,1-0.9,1.4s-0.8,0.7-1.3,0.9s-1.1,0.3-1.7,0.3h-3.2V119.7z M131.8,127.4c0.4,0,0.8-0.1,1.1-0.2s0.6-0.4,0.9-0.7
	c0.2-0.3,0.4-0.6,0.6-1c0.1-0.4,0.2-0.9,0.2-1.4s-0.1-0.9-0.2-1.3c-0.1-0.4-0.3-0.7-0.6-1c-0.2-0.3-0.5-0.5-0.9-0.7
	c-0.3-0.2-0.7-0.2-1.1-0.2H130v6.6L131.8,127.4z"/>
<path d="M143.2,126.4c0,0.3-0.1,0.6-0.2,0.9c-0.1,0.3-0.3,0.5-0.6,0.7s-0.5,0.4-0.9,0.5s-0.7,0.2-1.1,0.2c-0.5,0-0.9-0.1-1.4-0.2
	c-0.4-0.1-0.7-0.4-0.9-0.7c-0.3-0.3-0.4-0.7-0.6-1.1c-0.1-0.4-0.2-0.9-0.2-1.4s0.1-0.9,0.2-1.4c0.1-0.4,0.3-0.7,0.6-1
	s0.6-0.5,0.9-0.7c0.8-0.3,1.8-0.3,2.6,0c0.3,0.1,0.6,0.4,0.9,0.7c0.2,0.3,0.4,0.7,0.5,1.1c0.1,0.5,0.2,0.9,0.2,1.4v0.2h-4.5
	c0,0.6,0.1,1.1,0.5,1.6c0.3,0.4,0.7,0.5,1.2,0.5c0.4,0,0.8-0.1,1.1-0.3c0.3-0.2,0.5-0.6,0.5-0.9L143.2,126.4z M142,124.8
	c0-0.4-0.2-0.9-0.4-1.2c-0.3-0.3-0.7-0.5-1.1-0.5c-0.4,0-0.8,0.1-1.1,0.4s-0.5,0.8-0.5,1.3C138.9,124.8,142,124.8,142,124.8z
	 M141.1,119.8h1.6l-1.8,1.7h-1L141.1,119.8z"/>
<path d="M145.1,119.7h1.3v3.5l0,0c0.2-0.3,0.5-0.6,0.8-0.8c0.4-0.2,0.8-0.3,1.3-0.3c0.4,0,0.8,0.1,1.2,0.2c0.3,0.2,0.6,0.4,0.9,0.7
	c0.2,0.3,0.4,0.6,0.5,1c0.2,0.9,0.2,1.8,0,2.7c-0.1,0.4-0.3,0.7-0.5,1.1c-0.2,0.3-0.5,0.5-0.9,0.7s-0.8,0.2-1.2,0.2
	s-0.9-0.1-1.3-0.3c-0.3-0.2-0.6-0.5-0.8-0.8l0,0v1h-1.3V119.7z M148.1,127.7c0.5,0,1-0.2,1.3-0.6c0.6-1.1,0.6-2.4,0-3.5
	c-0.3-0.4-0.8-0.6-1.3-0.6s-1,0.2-1.3,0.6c-0.3,0.5-0.5,1.1-0.4,1.7c0,0.6,0.1,1.2,0.4,1.7C147,127.6,147.5,127.8,148.1,127.7
	L148.1,127.7z"/>
<path d="M152.8,122.2h1.3v3.9c0,0.4,0.1,0.8,0.3,1.2c0.2,0.3,0.6,0.4,0.9,0.4c0.4,0,0.9-0.2,1.2-0.5c0.3-0.4,0.5-0.8,0.4-1.3v-3.7
	h1.3v6.4h-1.3v-1l0,0c-0.2,0.3-0.5,0.6-0.8,0.8c-0.4,0.2-0.8,0.3-1.2,0.3c-0.6,0.1-1.2-0.2-1.6-0.6c-0.3-0.5-0.5-1.1-0.5-1.7
	L152.8,122.2z"/>
<path d="M160.3,123.3h-0.9v-1.1h0.9v-1.6h1.3v1.6h1.5v1.1h-1.5v3.4c0,0.3,0.1,0.5,0.2,0.7c0.2,0.2,0.4,0.2,0.7,0.2h0.3h0.3v1.1
	l-0.4,0.1c-0.1,0-0.3,0-0.4,0c-0.5,0-1-0.1-1.4-0.5c-0.4-0.4-0.6-1-0.5-1.6L160.3,123.3z"/>
<path d="M104.2,139.6L104.2,139.6c-0.2,0.3-0.5,0.6-0.8,0.8c-0.4,0.2-0.8,0.3-1.3,0.3c-0.4,0-0.8-0.1-1.2-0.2
	c-0.3-0.2-0.6-0.4-0.8-0.7c-0.2-0.3-0.4-0.6-0.5-1s-0.2-0.9-0.2-1.3c0-0.5,0.1-0.9,0.2-1.4c0.1-0.4,0.3-0.7,0.5-1.1
	c0.2-0.3,0.5-0.5,0.9-0.7s0.8-0.2,1.2-0.2c0.4,0,0.9,0.1,1.3,0.3c0.3,0.2,0.6,0.5,0.8,0.8l0,0v-3.5h1.3v8.9h-1.3L104.2,139.6z
	 M102.4,139.8c0.5,0,1-0.2,1.3-0.6c0.3-0.5,0.4-1.1,0.4-1.7c0-0.6-0.1-1.2-0.4-1.7c-0.3-0.4-0.8-0.7-1.3-0.6c-0.5,0-1,0.2-1.3,0.6
	c-0.6,1.1-0.6,2.4,0,3.5C101.4,139.6,101.9,139.8,102.4,139.8z"/>
<path d="M107.5,134.2h1.3v3.9c0,0.4,0.1,0.8,0.3,1.2c0.2,0.3,0.6,0.4,0.9,0.4c0.4,0,0.9-0.1,1.2-0.5c0.3-0.4,0.5-0.8,0.4-1.3v-3.7
	h1.3v6.4h-1.3v-1l0,0c-0.2,0.3-0.5,0.6-0.8,0.8c-0.4,0.2-0.8,0.3-1.2,0.3c-0.6,0.1-1.2-0.2-1.6-0.6c-0.3-0.5-0.5-1.1-0.5-1.7
	L107.5,134.2z"/>
<path d="M123.9,138.3c0,0.7-0.3,1.4-0.8,1.9c-0.6,0.4-1.3,0.7-2,0.6c-0.5,0-0.9-0.1-1.3-0.2c-0.4-0.1-0.7-0.4-0.9-0.7
	c-0.3-0.3-0.5-0.7-0.6-1.1c-0.1-0.4-0.2-0.9-0.2-1.4s0.1-0.9,0.2-1.4c0.1-0.4,0.3-0.7,0.6-1c0.3-0.3,0.6-0.5,0.9-0.7
	c0.4-0.2,0.9-0.2,1.3-0.2c0.7,0,1.4,0.2,2,0.6c0.5,0.5,0.8,1.2,0.8,1.9h-1.3c0-0.4-0.2-0.8-0.5-1.1c-0.7-0.6-1.7-0.5-2.3,0.2
	c-0.3,0.5-0.5,1.1-0.4,1.7c0,0.6,0.1,1.2,0.4,1.7c0.3,0.4,0.8,0.6,1.3,0.6c0.4,0,0.8-0.1,1.1-0.4c0.3-0.3,0.4-0.7,0.5-1.1
	L123.9,138.3z"/>
<path d="M128.5,140.7c-0.5,0-0.9-0.1-1.3-0.2c-0.4-0.1-0.7-0.4-1-0.7s-0.5-0.7-0.6-1.1c-0.3-0.9-0.3-1.8,0-2.7
	c0.1-0.4,0.4-0.8,0.6-1.1c0.3-0.3,0.6-0.5,1-0.7s0.9-0.2,1.3-0.2c0.5,0,0.9,0.1,1.3,0.2c0.8,0.3,1.4,0.9,1.7,1.7
	c0.3,0.9,0.3,1.8,0,2.7c-0.1,0.4-0.4,0.7-0.6,1.1c-0.3,0.3-0.6,0.5-1,0.7C129.4,140.7,129,140.7,128.5,140.7z M128.5,139.7
	c0.5,0,1.1-0.2,1.4-0.6c0.7-1,0.7-2.4,0-3.4c-0.7-0.8-1.9-0.8-2.6-0.2c-0.1,0.1-0.1,0.1-0.2,0.2c-0.7,1-0.7,2.4,0,3.4
	C127.5,139.5,128,139.8,128.5,139.7z"/>
<path d="M133.4,134.2h1.3v1l0,0c0.2-0.3,0.5-0.6,0.8-0.8c0.4-0.2,0.8-0.3,1.3-0.3c0.6-0.1,1.2,0.2,1.6,0.6c0.3,0.5,0.5,1.1,0.5,1.7
	v4.2h-1.3v-3.9c0-0.4-0.1-0.8-0.3-1.2c-0.2-0.3-0.6-0.5-1-0.4c-0.5,0-0.9,0.1-1.2,0.5s-0.5,0.8-0.5,1.3v3.7h-1.3L133.4,134.2z"/>
<path d="M141.1,135.3h-0.9v-1.1h0.9v-0.5c-0.1-0.6,0.1-1.1,0.5-1.6c0.4-0.3,0.9-0.5,1.4-0.5c0.1,0,0.3,0,0.4,0c0.1,0,0.3,0,0.4,0.1
	v1.1c-0.1,0-0.2,0-0.3,0h-0.3c-0.2,0-0.5,0-0.6,0.2c-0.2,0.2-0.2,0.4-0.2,0.7v0.6h1.4v1.1h-1.4v5.3h-1.3L141.1,135.3L141.1,135.3z"
	/>
<path d="M145.7,133.1c-0.2,0-0.4-0.1-0.6-0.2c-0.2-0.2-0.2-0.4-0.2-0.6c0-0.2,0.1-0.4,0.2-0.6c0.2-0.2,0.4-0.3,0.6-0.2
	c0.2,0,0.4,0.1,0.6,0.2c0.3,0.3,0.3,0.8,0,1.2C146.2,133,146,133.1,145.7,133.1z M145.1,134.2h1.3v6.4h-1.3V134.2z"/>
<path d="M148.4,134.2h1.3v1l0,0c0.2-0.3,0.5-0.6,0.8-0.8c0.4-0.2,0.8-0.3,1.3-0.3c0.6-0.1,1.2,0.2,1.6,0.6c0.3,0.5,0.5,1.1,0.5,1.7
	v4.2h-1.3v-3.9c0-0.4-0.1-0.8-0.3-1.2c-0.2-0.3-0.6-0.5-1-0.4c-0.5,0-0.9,0.1-1.2,0.5s-0.5,0.8-0.5,1.3v3.7h-1.3L148.4,134.2z"/>
<path d="M161.4,138.4c0,0.3-0.1,0.6-0.2,0.9c-0.1,0.3-0.3,0.5-0.6,0.7s-0.5,0.4-0.9,0.5s-0.8,0.2-1.1,0.2c-0.5,0-0.9-0.1-1.4-0.2
	c-0.4-0.1-0.7-0.4-0.9-0.7c-0.3-0.3-0.4-0.7-0.5-1.1c-0.1-0.4-0.2-0.9-0.2-1.4s0.1-0.9,0.2-1.4c0.1-0.4,0.3-0.7,0.6-1
	s0.6-0.5,0.9-0.7c0.8-0.3,1.8-0.3,2.6,0c0.3,0.1,0.6,0.4,0.9,0.7c0.2,0.3,0.4,0.7,0.5,1.1c0.1,0.5,0.2,0.9,0.1,1.4v0.2h-4.5
	c0,0.6,0.1,1.1,0.5,1.6c0.3,0.3,0.7,0.5,1.2,0.5c0.4,0,0.8-0.1,1.1-0.3s0.5-0.6,0.5-0.9L161.4,138.4z M160.1,136.8
	c0-0.4-0.1-0.9-0.4-1.2c-0.3-0.3-0.7-0.5-1.1-0.5c-0.4,0-0.8,0.1-1.1,0.4c-0.3,0.3-0.5,0.8-0.5,1.3H160.1z"/>
<path d="M163.2,134.2h1.3v1l0,0c0.2-0.3,0.4-0.6,0.7-0.8s0.8-0.3,1.2-0.3s0.8,0.1,1.2,0.3c0.3,0.2,0.5,0.5,0.6,0.9l0,0
	c0.2-0.4,0.5-0.7,0.8-0.9c0.4-0.2,0.8-0.3,1.2-0.3c0.6-0.1,1.1,0.2,1.5,0.6c0.4,0.5,0.5,1.1,0.5,1.7v4.2H171v-3.9
	c0-0.4-0.1-0.8-0.3-1.2c-0.2-0.3-0.5-0.4-0.9-0.4s-0.8,0.1-1.1,0.4c-0.3,0.3-0.4,0.8-0.4,1.3v3.8H167v-3.9c0-0.4-0.1-0.8-0.2-1.2
	c-0.2-0.3-0.5-0.4-0.9-0.4s-0.8,0.1-1.1,0.5s-0.4,0.8-0.4,1.3v3.7h-1.3L163.2,134.2z"/>
<path d="M179.7,138.4c0,0.3-0.1,0.6-0.2,0.9c-0.1,0.3-0.3,0.5-0.6,0.7s-0.5,0.4-0.9,0.5s-0.7,0.2-1.1,0.2c-0.5,0-0.9-0.1-1.4-0.2
	c-0.4-0.1-0.7-0.4-0.9-0.7c-0.3-0.3-0.4-0.7-0.6-1.1c-0.2-0.9-0.2-1.8,0-2.7c0.1-0.4,0.3-0.7,0.6-1s0.6-0.5,0.9-0.7
	c0.4-0.2,0.9-0.3,1.3-0.2c0.4,0,0.9,0.1,1.3,0.2c0.3,0.2,0.6,0.4,0.9,0.7c0.2,0.3,0.4,0.7,0.5,1.1c0.1,0.5,0.2,0.9,0.2,1.4v0.2h-4.5
	c0,0.6,0.1,1.1,0.5,1.6c0.3,0.3,0.7,0.5,1.2,0.5c0.4,0,0.8-0.1,1.1-0.3s0.5-0.6,0.5-0.9L179.7,138.4z M178.4,136.8
	c0-0.4-0.1-0.9-0.4-1.2c-0.3-0.3-0.7-0.5-1.1-0.5c-0.4,0-0.8,0.1-1.2,0.4c-0.3,0.3-0.5,0.8-0.5,1.3H178.4z"/>
<path d="M181.5,134.2h1.3v1l0,0c0.2-0.3,0.5-0.6,0.8-0.8c0.4-0.2,0.8-0.3,1.3-0.3c0.6-0.1,1.2,0.2,1.6,0.6c0.3,0.5,0.5,1.1,0.5,1.7
	v4.2h-1.3v-3.9c0-0.4-0.1-0.8-0.3-1.2c-0.2-0.3-0.6-0.5-1-0.4c-0.5,0-0.9,0.1-1.2,0.5s-0.5,0.8-0.5,1.3v3.7h-1.3L181.5,134.2z"/>
<path d="M189.1,135.3h-0.9v-1.1h0.9v-1.6h1.3v1.6h1.5v1.1h-1.5v3.4c0,0.3,0.1,0.5,0.2,0.7c0.2,0.2,0.4,0.2,0.7,0.2h0.3h0.3v1.1
	l-0.4,0.1c-0.2,0-0.3,0-0.5,0c-0.5,0-1-0.1-1.4-0.5s-0.6-1-0.5-1.6L189.1,135.3L189.1,135.3z"/>
<line class="st7" x1="407.6" y1="5.8" x2="535.2" y2="5.8"/>
<line class="st7" x1="19.5" y1="88.9" x2="535.2" y2="88.9"/>
<line class="st7" x1="19.5" y1="172" x2="535.2" y2="172"/>
<line class="st7" x1="19.5" y1="255.1" x2="535.2" y2="255.1"/>
<line class="st7" x1="19.5" y1="338.1" x2="535.2" y2="338.1"/>
<line class="st7" x1="19.5" y1="421.1" x2="535.2" y2="421.1"/>
</svg>
