<svg xmlns="http://www.w3.org/2000/svg" width="600" height="486.35" viewBox="0 0 600 486.35">
  <defs>
    <style>
      .cls-1 {
        fill: #fff;
      }

      .cls-2, .cls-3, .cls-7, .cls-8, .cls-9 {
        fill: none;
      }

      .cls-2 {
        stroke: gray;
      }

      .cls-2, .cls-7, .cls-8, .cls-9 {
        stroke-miterlimit: 10;
      }

      .cls-2, .cls-7 {
        stroke-width: 0.5px;
      }

      .cls-4 {
        fill: #c6c6c6;
      }

      .cls-5 {
        fill: #e3234a;
      }

      .cls-6 {
        fill: #bdbdbd;
      }

      .cls-7 {
        stroke: #231f20;
        stroke-dasharray: 5 2;
      }

      .cls-8, .cls-9 {
        stroke: #000;
      }

      .cls-9 {
        stroke-width: 2px;
      }
    </style>
  </defs>
  <g id="FOND">
    <rect class="cls-1" y="-92.94" width="600" height="600"/>
  </g>
  <g id="NOUVEAU_NOUVEAU_GRAPHE" data-name="NOUVEAU NOUVEAU GRAPHE">
    <path class="cls-2" d="M38,338.61h554.4"/>
    <path class="cls-2" d="M38,208.62h554.4"/>
    <path class="cls-2" d="M38,79.73h554.4"/>
    <path class="cls-3" d="M48.26,468.05H40.77V422.17h7.49Z"/>
    <path class="cls-4" d="M48.26,468.05H40.77V422.17h7.49Z"/>
    <path class="cls-3" d="M57.62,422.17H50.13V408h7.49Z"/>
    <path class="cls-4" d="M57.62,422.17H50.13V408h7.49Z"/>
    <path class="cls-3" d="M68.86,408H61.37V394.86h7.49Z"/>
    <path class="cls-4" d="M68.86,408H61.37V394.86h7.49Z"/>
    <path class="cls-3" d="M80.1,394.86H72.61V383.94H80.1Z"/>
    <path class="cls-4" d="M80.1,394.86H72.61V383.94H80.1Z"/>
    <path class="cls-3" d="M89.46,383.94H82v-14.2h7.49Z"/>
    <path class="cls-4" d="M89.46,383.94H82v-14.2h7.49Z"/>
    <path class="cls-3" d="M100.7,369.74H93.21V354.45h7.49Z"/>
    <path class="cls-4" d="M100.7,369.74H93.21V354.45h7.49Z"/>
    <path class="cls-3" d="M110.07,354.45h-7.5V333.69h7.5Z"/>
    <path class="cls-4" d="M110.07,354.45h-7.5V333.69h7.5Z"/>
    <path class="cls-3" d="M121.3,333.69h-7.49v-28.4h7.49Z"/>
    <path class="cls-4" d="M121.3,333.69h-7.49v-28.4h7.49Z"/>
    <path class="cls-3" d="M130.67,305.29h-7.49V284.54h7.49Z"/>
    <path class="cls-4" d="M130.67,305.29h-7.49V284.54h7.49Z"/>
    <path class="cls-3" d="M141.91,284.54h-7.5v-35h7.5Z"/>
    <path class="cls-4" d="M141.91,284.54h-7.5v-35h7.5Z"/>
    <path class="cls-3" d="M153.14,249.59h-7.49V223.37h7.49Z"/>
    <path class="cls-4" d="M153.14,249.59h-7.49V223.37h7.49Z"/>
    <path class="cls-3" d="M162.51,223.37H155V193.88h7.49Z"/>
    <path class="cls-4" d="M162.51,223.37H155V193.88h7.49Z"/>
    <path class="cls-3" d="M173.75,193.88h-7.5V168.75h7.5Z"/>
    <path class="cls-4" d="M173.75,193.88h-7.5V168.75h7.5Z"/>
    <path class="cls-3" d="M183.11,168.75h-7.49v-28.4h7.49Z"/>
    <path class="cls-4" d="M183.11,168.75h-7.49v-28.4h7.49Z"/>
    <path class="cls-3" d="M194.35,140.35h-7.49V107.58h7.49Z"/>
    <path class="cls-4" d="M194.35,140.35h-7.49V107.58h7.49Z"/>
    <path class="cls-3" d="M203.71,107.58h-7.49V78.09h7.49Z"/>
    <path class="cls-4" d="M203.71,107.58h-7.49V78.09h7.49Z"/>
    <path class="cls-3" d="M215,78.09h-7.49v-24H215Z"/>
    <path class="cls-4" d="M215,78.09h-7.49v-24H215Z"/>
    <path class="cls-3" d="M224.32,54.06h-7.5V36.58h7.5Z"/>
    <path class="cls-4" d="M224.32,54.06h-7.5V36.58h7.5Z"/>
    <path class="cls-3" d="M235.55,36.58h-7.49V25.66h7.49Z"/>
    <path class="cls-4" d="M235.55,36.58h-7.49V25.66h7.49Z"/>
    <path class="cls-3" d="M246.79,25.66H239.3V16.92h7.49Z"/>
    <path class="cls-4" d="M246.79,25.66H239.3V16.92h7.49Z"/>
    <path class="cls-3" d="M256.16,16.92h-7.49V10.37h7.49Z"/>
    <path class="cls-4" d="M256.16,16.92h-7.49V10.37h7.49Z"/>
    <path class="cls-3" d="M267.4,10.37h-7.5V6h7.5Z"/>
    <path class="cls-4" d="M267.4,10.37h-7.5V6h7.5Z"/>
    <path class="cls-3" d="M276.76,6h-7.49V4.91h7.49Z"/>
    <path class="cls-4" d="M276.76,6h-7.49V4.91h7.49Z"/>
    <path class="cls-3" d="M288,4.91h-7.49v5.46H288Z"/>
    <path class="cls-5" d="M288,4.91h-7.49v5.46H288Z"/>
    <path class="cls-3" d="M297.36,10.37h-7.49v4.37h7.49Z"/>
    <path class="cls-5" d="M297.36,10.37h-7.49v4.37h7.49Z"/>
    <path class="cls-3" d="M308.6,14.74h-7.49v7.64h7.49Z"/>
    <path class="cls-5" d="M308.6,14.74h-7.49v7.64h7.49Z"/>
    <path class="cls-3" d="M319.84,22.38h-7.49v2.19h7.49Z"/>
    <path class="cls-5" d="M319.84,22.38h-7.49v2.19h7.49Z"/>
    <path class="cls-3" d="M329.2,24.57h-7.49v2.18h7.49Z"/>
    <path class="cls-5" d="M329.2,24.57h-7.49v2.18h7.49Z"/>
    <path class="cls-3" d="M340.44,26.75H333v5.46h7.49Z"/>
    <path class="cls-5" d="M340.44,26.75H333v5.46h7.49Z"/>
    <path class="cls-3" d="M349.81,32.21h-7.5V49.69h7.5Z"/>
    <path class="cls-5" d="M349.81,32.21h-7.5V49.69h7.5Z"/>
    <path class="cls-3" d="M361,49.69h-7.49v14.2H361Z"/>
    <path class="cls-5" d="M361,49.69h-7.49v14.2H361Z"/>
    <path class="cls-3" d="M370.41,63.89h-7.49v14.2h7.49Z"/>
    <path class="cls-5" d="M370.41,63.89h-7.49v14.2h7.49Z"/>
    <path class="cls-3" d="M381.65,78.09h-7.5v12h7.5Z"/>
    <path class="cls-5" d="M381.65,78.09h-7.5v12h7.5Z"/>
    <path class="cls-3" d="M391,90.11h-7.49v6.55H391Z"/>
    <path class="cls-5" d="M391,90.11h-7.49v6.55H391Z"/>
    <path class="cls-3" d="M402.25,96.66h-7.49v3.28h7.49Z"/>
    <path class="cls-5" d="M402.25,96.66h-7.49v3.28h7.49Z"/>
    <path class="cls-3" d="M413.49,99.94H406v16.38h7.49Z"/>
    <path class="cls-5" d="M413.49,99.94H406v16.38h7.49Z"/>
    <path class="cls-3" d="M422.85,116.32h-7.49v14.2h7.49Z"/>
    <path class="cls-5" d="M422.85,116.32h-7.49v14.2h7.49Z"/>
    <path class="cls-3" d="M434.09,130.52H426.6v10.93h7.49Z"/>
    <path class="cls-5" d="M434.09,130.52H426.6v10.93h7.49Z"/>
    <path class="cls-3" d="M443.45,141.45H436v10.92h7.49Z"/>
    <path class="cls-5" d="M443.45,141.45H436v10.92h7.49Z"/>
    <path class="cls-3" d="M454.69,152.37H447.2v9.83h7.49Z"/>
    <path class="cls-5" d="M454.69,152.37H447.2v9.83h7.49Z"/>
    <path class="cls-3" d="M464.06,162.2h-7.49v3.28h7.49Z"/>
    <path class="cls-5" d="M464.06,162.2h-7.49v3.28h7.49Z"/>
    <path class="cls-3" d="M475.3,165.48h-7.5v4.37h7.5Z"/>
    <path class="cls-5" d="M475.3,165.48h-7.5v4.37h7.5Z"/>
    <path class="cls-3" d="M484.66,169.85h-7.49v14.2h7.49Z"/>
    <path class="cls-5" d="M484.66,169.85h-7.49v14.2h7.49Z"/>
    <path class="cls-3" d="M495.9,184.05h-7.49v12h7.49Z"/>
    <path class="cls-5" d="M495.9,184.05h-7.49v12h7.49Z"/>
    <path class="cls-3" d="M507.14,196.06h-7.5v12h7.5Z"/>
    <path class="cls-5" d="M507.14,196.06h-7.5v12h7.5Z"/>
    <path class="cls-3" d="M516.5,208.08H509v8.74h7.49Z"/>
    <path class="cls-5" d="M516.5,208.08H509v8.74h7.49Z"/>
    <path class="cls-3" d="M527.74,216.82h-7.49v3.27h7.49Z"/>
    <path class="cls-5" d="M527.74,216.82h-7.49v3.27h7.49Z"/>
    <path class="cls-3" d="M537.1,220.09h-7.49v1.1h7.49Z"/>
    <path class="cls-5" d="M537.1,220.09h-7.49v1.1h7.49Z"/>
    <path class="cls-3" d="M548.34,221.19h-7.49v7.64h7.49Z"/>
    <path class="cls-5" d="M548.34,221.19h-7.49v7.64h7.49Z"/>
    <path class="cls-3" d="M557.71,228.83h-7.5v17.48h7.5Z"/>
    <path class="cls-5" d="M557.71,228.83h-7.5v17.48h7.5Z"/>
    <path class="cls-3" d="M568.94,246.31h-7.49v17.48h7.49Z"/>
    <path class="cls-5" d="M568.94,246.31h-7.49v17.48h7.49Z"/>
    <path class="cls-3" d="M580.18,263.79h-7.49v12h7.49Z"/>
    <path class="cls-5" d="M580.18,263.79h-7.49v12h7.49Z"/>
    <path class="cls-3" d="M589.55,468.05h-7.5V275.8h7.5Z"/>
    <path class="cls-6" d="M589.55,468.05h-7.5V275.8h7.5Z"/>
  </g>
  <g id="HABILLAGE">
    <line class="cls-7" x1="53.65" y1="468.05" x2="53.65" y2="40.56"/>
    <g>
      <line class="cls-8" x1="272.01" y1="42.54" x2="272.01" y2="23.03"/>
      <polygon points="276.1 26.34 275.37 27.02 272.01 23.41 268.65 27.02 267.92 26.34 272.01 21.94 276.1 26.34"/>
    </g>
    <g>
      <line class="cls-8" x1="576.31" y1="306.88" x2="576.31" y2="283.09"/>
      <polygon points="580.4 286.4 579.67 287.09 576.32 283.48 572.96 287.09 572.23 286.4 576.32 282.01 580.4 286.4"/>
    </g>
    <rect class="cls-1" x="501.52" y="331.15" width="80.54" height="16.2"/>
    <g>
      <path d="M546.41,326.74c3.46-9,3.53-9,3.53-10.06V316c0-1.41-.15-1.68-.51-1.68s-.5.27-.5,1.68v1.11h-2.52V315.4c0-2.77.67-3.57,3-3.57s3,.8,3,3.57v.73c0,1.45-.09,1.6-3.41,10.4h3.41v2.52h-6.05Z"/>
      <path d="M557.79,325.58v-1.34h2.52V325c0,1.41.15,1.68.5,1.68s.51-.27.51-1.68v-5.23c0,2.77-.51,3.57-1.75,3.57s-1.78-.8-1.78-3.57V315.4c0-2.77.67-3.57,3-3.57s3,.8,3,3.57v10.18c0,2.77-.67,3.57-3,3.57S557.79,328.35,557.79,325.58Zm3.53-6.49V316c0-1.41-.15-1.68-.51-1.68s-.5.27-.5,1.68v3.06c0,1.41.15,1.68.5,1.68S561.32,320.5,561.32,319.09Z"/>
      <path d="M569.65,317.67c1.39,0,1.79.79,1.79,3.56v4.35c0,2.77-.67,3.57-3,3.57s-3-.8-3-3.57V315.4c0-2.77.67-3.57,3-3.57s3,.8,3,3.57V317h-2.52V316c0-1.41-.15-1.68-.5-1.68s-.51.27-.51,1.68v5.2C567.91,318.46,568.42,317.67,569.65,317.67ZM567.91,325c0,1.41.15,1.68.51,1.68s.5-.27.5-1.68v-3.09c0-1.4-.15-1.68-.5-1.68s-.51.28-.51,1.68Z"/>
      <path d="M576,329.15c-2.35,0-3-.8-3-3.57v-10.2c0-2.77.68-3.57,3-3.57s3,.8,3,3.57v10.2C579,328.35,578.37,329.15,576,329.15Zm0-14.82c-.36,0-.51.27-.51,1.68V325c0,1.41.15,1.68.51,1.68s.5-.27.5-1.68V316C576.52,314.6,576.38,314.33,576,314.33Z"/>
      <path d="M525.37,342.05v-.72h.81V335h-.83v-.75h1.74v1a2.31,2.31,0,0,1,1.95-1.11,2.62,2.62,0,0,1,2.61,2.9v.08c0,1.76-1,3-2.61,3a2.16,2.16,0,0,1-1.95-1.06v2.25h.9v.72Zm5.34-4.83v-.09c0-1.45-.8-2.18-1.77-2.18s-1.88.72-1.88,2.18v.09c0,1.45.78,2.16,1.89,2.16S530.71,338.62,530.71,337.22Z"/>
      <path d="M532.49,337.23v-.09a2.71,2.71,0,0,1,2.69-2.95c1.34,0,2.59.81,2.59,2.86v.3h-4.33c0,1.31.67,2,1.84,2,.89,0,1.41-.33,1.53-1h.92a2.22,2.22,0,0,1-2.46,1.76A2.7,2.7,0,0,1,532.49,337.23Zm4.34-.62c-.08-1.19-.7-1.66-1.65-1.66a1.72,1.72,0,0,0-1.71,1.66Z"/>
      <path d="M538.53,340.05v-.72h.8V335h-.82v-.75h1.74v1.1a2.07,2.07,0,0,1,2.06-1.2v.9c-1.25,0-2.06.39-2.06,1.8v2.44h.87v.72Z"/>
      <path d="M543.74,339.34v.71H543v-1.92h.75a1.53,1.53,0,0,0,1.54,1.29c.79,0,1.18-.33,1.18-.95s-.46-.81-1.36-1c-1.49-.27-2-.8-2-1.76a1.63,1.63,0,0,1,1.82-1.54,1.42,1.42,0,0,1,1.44.71v-.61h.77V336h-.75a1.28,1.28,0,0,0-1.37-1c-.65,0-1.06.25-1.06.79s.29.76,1.34,1,2,.53,2,1.74c0,1-.71,1.72-2.07,1.72A1.54,1.54,0,0,1,543.74,339.34Z"/>
      <path d="M548.13,337.22v-.09a2.83,2.83,0,1,1,5.66,0v.09a2.83,2.83,0,1,1-5.66,0Zm4.71,0v-.08c0-1.33-.74-2.19-1.88-2.19s-1.88.86-1.88,2.18v.09c0,1.31.71,2.16,1.88,2.16A1.91,1.91,0,0,0,552.84,337.22Z"/>
      <path d="M554.55,340.05v-.72h.81V335h-.83v-.75h1.74v1a2,2,0,0,1,1.81-1.07c1.15,0,2,.62,2,2.28v2.86h.8v.72h-2.54v-.72h.83V336.4c0-1-.45-1.42-1.34-1.42a1.49,1.49,0,0,0-1.56,1.56v2.79h.83v.72Z"/>
      <path d="M561.47,340.05v-.72h.81V335h-.83v-.75h1.74v1a2,2,0,0,1,1.8-1.07c1.16,0,2,.62,2,2.28v2.86h.8v.72h-2.54v-.72h.82V336.4c0-1-.44-1.42-1.33-1.42a1.49,1.49,0,0,0-1.56,1.56v2.79H564v.72Z"/>
      <path d="M568.4,337.23v-.09a2.71,2.71,0,0,1,2.7-2.95,2.52,2.52,0,0,1,2.59,2.86v.3h-4.34c0,1.31.67,2,1.85,2,.89,0,1.41-.33,1.53-1h.91a2.21,2.21,0,0,1-2.45,1.76A2.7,2.7,0,0,1,568.4,337.23Zm4.35-.62c-.09-1.19-.7-1.66-1.65-1.66a1.74,1.74,0,0,0-1.72,1.66Z"/>
      <path d="M575.27,339.34v.71h-.77v-1.92h.75a1.53,1.53,0,0,0,1.54,1.29c.79,0,1.17-.33,1.17-.95s-.46-.81-1.35-1c-1.5-.27-2-.8-2-1.76a1.62,1.62,0,0,1,1.81-1.54c.84,0,1.25.3,1.44.71v-.61h.77V336h-.74a1.3,1.3,0,0,0-1.38-1c-.65,0-1,.25-1,.79s.28.76,1.34,1,2,.53,2,1.74c0,1-.7,1.72-2.07,1.72A1.52,1.52,0,0,1,575.27,339.34Z"/>
      <path d="M501.16,348.23v-.09a2.71,2.71,0,0,1,2.7-2.95c1.33,0,2.58.81,2.58,2.86v.3h-4.33c0,1.31.67,2,1.85,2,.89,0,1.4-.33,1.53-1h.91a2.21,2.21,0,0,1-2.45,1.76A2.7,2.7,0,0,1,501.16,348.23Zm4.35-.62c-.09-1.19-.71-1.66-1.65-1.66a1.72,1.72,0,0,0-1.72,1.66Z"/>
      <path d="M507.2,351.05v-.72h.8V346h-.82v-.75h1.74v1a2,2,0,0,1,1.8-1.07c1.16,0,2,.62,2,2.28v2.86h.81v.72H511v-.72h.82V347.4c0-1-.44-1.42-1.33-1.42a1.49,1.49,0,0,0-1.56,1.56v2.79h.82v.72Z"/>
      <path d="M516.59,351.05v-.72h.81V346h-.83v-.75h1.74v1.1a2.1,2.1,0,0,1,2.07-1.2v.9c-1.26,0-2.07.39-2.07,1.8v2.44h.88v.72Z"/>
      <path d="M520.94,348.23v-.09a2.71,2.71,0,0,1,2.69-2.95c1.34,0,2.59.81,2.59,2.86v.3h-4.33c0,1.31.67,2,1.84,2,.89,0,1.41-.33,1.53-1h.92a2.22,2.22,0,0,1-2.46,1.76A2.7,2.7,0,0,1,520.94,348.23Zm4.35-.62c-.09-1.19-.71-1.66-1.66-1.66a1.72,1.72,0,0,0-1.71,1.66Zm-1.39-4.93H525l-1.14,1.62h-.68Z"/>
      <path d="M528.93,351.14c-1,0-1.88-.51-1.88-1.69,0-1.34,1.39-1.78,2.84-1.78h.81v-.42c0-1-.39-1.3-1.21-1.3s-1.19.29-1.28,1h-.91a2,2,0,0,1,2.23-1.8,1.83,1.83,0,0,1,2.08,2.06v3.08h.77v.72H530.7v-.8A1.93,1.93,0,0,1,528.93,351.14ZM530.7,349v-.71h-.77c-1.14,0-2,.29-2,1.13a.9.9,0,0,0,1,1C530,350.42,530.7,349.92,530.7,349Z"/>
      <path d="M533,351.05v-.72h.81V346H533v-.75h1.74v1a2,2,0,0,1,1.8-1.07c1.16,0,2,.62,2,2.28v2.86h.8v.72h-2.54v-.72h.82V347.4c0-1-.44-1.42-1.33-1.42a1.49,1.49,0,0,0-1.56,1.56v2.79h.82v.72Z"/>
      <path d="M539.89,351.05v-.72h.81V346h-.83v-.75h1.74v5h.82v.72Zm.59-7.57a.61.61,0,0,1,.62-.62.62.62,0,0,1,.63.62.63.63,0,0,1-.63.62A.62.62,0,0,1,540.48,343.48Z"/>
      <path d="M543,351.05v-.72h.8V346H543v-.75h1.74v.95a1.82,1.82,0,0,1,1.69-1.05,1.64,1.64,0,0,1,1.68,1.17,2.11,2.11,0,0,1,1.9-1.17c1,0,1.91.62,1.91,2.29v2.85h.8v.72h-2.54v-.72H551v-2.91c0-1-.39-1.44-1.19-1.44a1.45,1.45,0,0,0-1.48,1.54v2.81h.82v.72h-2.56v-.72h.83v-2.91c0-1-.4-1.44-1.19-1.44a1.45,1.45,0,0,0-1.49,1.54v2.81h.83v.72Z"/>
      <path d="M555.26,351.14c-1,0-1.87-.51-1.87-1.69,0-1.34,1.39-1.78,2.84-1.78h.8v-.42c0-1-.38-1.3-1.21-1.3s-1.19.29-1.28,1h-.91a2,2,0,0,1,2.23-1.8,1.83,1.83,0,0,1,2.08,2.06v3.08h.77v.72H557v-.8A1.92,1.92,0,0,1,555.26,351.14ZM557,349v-.71h-.77c-1.13,0-2,.29-2,1.13a.91.91,0,0,0,1.05,1C556.29,350.42,557,349.92,557,349Z"/>
      <path d="M559.86,349.6v-3.54H559v-.77h.83V344h.91v1.31h1.49v.77h-1.49v3.46a.72.72,0,0,0,.83.83,2.27,2.27,0,0,0,.74-.13V351a2.52,2.52,0,0,1-.82.13C560.36,351.12,559.86,350.51,559.86,349.6Z"/>
      <path d="M563.1,351.05v-.72h.81V346h-.83v-.75h1.74v5h.82v.72Zm.59-7.57a.61.61,0,0,1,.62-.62.62.62,0,0,1,.63.62.63.63,0,0,1-.63.62A.62.62,0,0,1,563.69,343.48Z"/>
      <path d="M566.3,348.22v-.09a2.83,2.83,0,1,1,5.66,0v.09a2.83,2.83,0,1,1-5.66,0Zm4.71,0v-.08c0-1.33-.74-2.19-1.88-2.19s-1.88.86-1.88,2.18v.09c0,1.31.71,2.16,1.88,2.16A1.9,1.9,0,0,0,571,348.22Z"/>
      <path d="M572.73,351.05v-.72h.8V346h-.82v-.75h1.73v1a2,2,0,0,1,1.81-1.07c1.15,0,2,.62,2,2.28v2.86h.8v.72h-2.54v-.72h.83V347.4c0-1-.44-1.42-1.33-1.42a1.5,1.5,0,0,0-1.57,1.56v2.79h.83v.72Z"/>
    </g>
    <rect class="cls-1" x="231.74" y="71.63" width="80.54" height="16.2"/>
    <g id="Titre...">
      <path d="M258.31,65.65c0-7.84,1.68-10.92,2.36-13.9h-3.36v-2.4h5.88v2.1c-.94,3.64-2.48,6.46-2.48,14.2Z"/>
      <path d="M269.63,65.65V52.47l-1.6.68v-2.4l3.22-1.4H272v16.3Z"/>
      <path d="M279.07,62.31v3.34h-2.4V62.31h-3.18V60.87l1.56-11.52h4V59.91h.44v2.4Zm-2.4-2.4V51.75l-.88,8.16Z"/>
      <path d="M280.81,62.35V59.77c0-1.7.46-2.68,1.94-2.94a2.17,2.17,0,0,1-1.8-2.46V52.63c0-2.64.64-3.38,2.88-3.38s2.88.74,2.88,3.38v1.74a2.17,2.17,0,0,1-1.8,2.46c1.48.26,1.94,1.24,1.94,2.94v2.58c0,2.64-.7,3.4-3,3.4S280.81,65,280.81,62.35Zm2.4-2.54v1.84c0,1.42.2,1.7.62,1.7s.62-.28.62-1.7V59.81c0-1.34-.28-1.6-.62-1.6S283.21,58.47,283.21,59.81Zm1.1-5.6v-1c0-1.34-.14-1.6-.48-1.6s-.48.26-.48,1.6v1c0,1.34.14,1.6.48,1.6S284.31,55.55,284.31,54.21Z"/>
      <path d="M245.22,78.65v-.71H246V71.65h-.83V70.9h1.74v1a2.31,2.31,0,0,1,1.95-1.11,2.61,2.61,0,0,1,2.61,2.89v.09c0,1.76-1,3-2.61,3a2.14,2.14,0,0,1-1.95-1.07v2.26h.9v.71Zm5.34-4.83v-.08c0-1.46-.8-2.18-1.77-2.18s-1.88.71-1.88,2.18v.08c0,1.46.78,2.17,1.89,2.17S250.56,75.22,250.56,73.82Z"/>
      <path d="M252.34,73.84v-.09a2.71,2.71,0,0,1,2.7-3c1.33,0,2.58.8,2.58,2.86V74h-4.33c0,1.31.67,2,1.84,2,.9,0,1.41-.33,1.53-1h.92a2.22,2.22,0,0,1-2.46,1.76A2.7,2.7,0,0,1,252.34,73.84Zm4.35-.62C256.6,72,256,71.56,255,71.56a1.72,1.72,0,0,0-1.72,1.66Z"/>
      <path d="M258.38,76.65v-.71h.8V71.65h-.82V70.9h1.73V72a2.08,2.08,0,0,1,2.07-1.2v.9c-1.25,0-2.07.39-2.07,1.79v2.45H261v.71Z"/>
      <path d="M263.59,76v.7h-.77V74.74h.75A1.53,1.53,0,0,0,265.11,76c.79,0,1.18-.34,1.18-1s-.46-.82-1.36-1c-1.49-.28-2-.8-2-1.76a1.63,1.63,0,0,1,1.82-1.54,1.43,1.43,0,0,1,1.44.7v-.6H267v1.66h-.75a1.28,1.28,0,0,0-1.37-1c-.65,0-1.06.25-1.06.79s.29.76,1.34,1,2,.52,2,1.73c0,1-.71,1.73-2.07,1.73A1.54,1.54,0,0,1,263.59,76Z"/>
      <path d="M268,73.82v-.08a2.83,2.83,0,1,1,5.66,0v.08a2.83,2.83,0,1,1-5.66,0Zm4.71,0v-.07c0-1.33-.74-2.19-1.88-2.19s-1.88.86-1.88,2.18v.08c0,1.31.71,2.17,1.88,2.17A1.92,1.92,0,0,0,272.69,73.82Z"/>
      <path d="M274.41,76.65v-.71h.8V71.65h-.83V70.9h1.74v1a2,2,0,0,1,1.81-1.07c1.15,0,2,.62,2,2.28v2.86h.8v.71h-2.54v-.71H279V73c0-1-.44-1.42-1.34-1.42a1.49,1.49,0,0,0-1.56,1.55v2.8H277v.71Z"/>
      <path d="M281.33,76.65v-.71h.8V71.65h-.83V70.9H283v1a2,2,0,0,1,1.8-1.07c1.16,0,2,.62,2,2.28v2.86h.8v.71h-2.54v-.71h.82V73c0-1-.44-1.42-1.33-1.42A1.49,1.49,0,0,0,283,73.14v2.8h.83v.71Z"/>
      <path d="M288.25,73.84v-.09a2.71,2.71,0,0,1,2.7-3,2.52,2.52,0,0,1,2.59,2.86V74H289.2c0,1.31.67,2,1.85,2,.89,0,1.41-.33,1.53-1h.91A2.21,2.21,0,0,1,291,76.75,2.7,2.7,0,0,1,288.25,73.84Zm4.35-.62c-.09-1.19-.7-1.66-1.65-1.66a1.73,1.73,0,0,0-1.72,1.66Z"/>
      <path d="M295.12,76v.7h-.77V74.74h.75A1.53,1.53,0,0,0,296.64,76c.79,0,1.17-.34,1.17-1s-.46-.82-1.35-1c-1.5-.28-2-.8-2-1.76a1.62,1.62,0,0,1,1.81-1.54c.84,0,1.25.3,1.44.7v-.6h.77v1.66h-.74a1.3,1.3,0,0,0-1.38-1c-.65,0-1.06.25-1.06.79s.29.76,1.35,1,2,.52,2,1.73c0,1-.7,1.73-2.07,1.73A1.52,1.52,0,0,1,295.12,76Z"/>
      <path d="M233.15,84.84v-.09a2.71,2.71,0,0,1,2.7-3c1.33,0,2.58.8,2.58,2.86V85H234.1c0,1.31.67,2,1.85,2,.89,0,1.4-.33,1.52-1h.92a2.22,2.22,0,0,1-2.46,1.76A2.7,2.7,0,0,1,233.15,84.84Zm4.35-.62c-.09-1.19-.71-1.66-1.65-1.66a1.72,1.72,0,0,0-1.72,1.66Z"/>
      <path d="M239.19,87.65v-.71h.8V82.65h-.82V81.9h1.74v1a2,2,0,0,1,1.8-1.07c1.16,0,2,.62,2,2.28v2.86h.81v.71H243v-.71h.83V84c0-1-.44-1.42-1.33-1.42a1.49,1.49,0,0,0-1.56,1.55v2.8h.82v.71Z"/>
      <path d="M248.58,87.65v-.71h.81V82.65h-.83V81.9h1.74V83a2.08,2.08,0,0,1,2.07-1.2v.9c-1.26,0-2.07.39-2.07,1.79v2.45h.88v.71Z"/>
      <path d="M252.93,84.84v-.09a2.71,2.71,0,0,1,2.69-3,2.52,2.52,0,0,1,2.59,2.86V85h-4.34c0,1.31.67,2,1.85,2,.89,0,1.41-.33,1.53-1h.92a2.22,2.22,0,0,1-2.46,1.76A2.7,2.7,0,0,1,252.93,84.84Zm4.34-.62c-.08-1.19-.7-1.66-1.65-1.66a1.72,1.72,0,0,0-1.71,1.66Zm-1.38-4.93H257l-1.14,1.62h-.68Z"/>
      <path d="M260.91,87.75A1.65,1.65,0,0,1,259,86.06c0-1.35,1.39-1.79,2.84-1.79h.8v-.41c0-1-.38-1.3-1.21-1.3s-1.18.28-1.27,1h-.91c.11-1.35,1.14-1.79,2.23-1.79a1.82,1.82,0,0,1,2.08,2.06v3.08h.77v.71h-1.69v-.79A1.93,1.93,0,0,1,260.91,87.75Zm1.77-2.11v-.72h-.76c-1.14,0-2,.3-2,1.14a.91.91,0,0,0,1,1C262,87,262.68,86.53,262.68,85.64Z"/>
      <path d="M265,87.65v-.71h.8V82.65h-.82V81.9h1.74v1a2,2,0,0,1,1.8-1.07c1.16,0,2,.62,2,2.28v2.86h.81v.71h-2.54v-.71h.82V84c0-1-.44-1.42-1.33-1.42a1.49,1.49,0,0,0-1.56,1.55v2.8h.82v.71Z"/>
      <path d="M271.88,87.65v-.71h.8V82.65h-.82V81.9h1.74v5h.82v.71Zm.58-7.57a.63.63,0,0,1,1.26,0,.63.63,0,0,1-1.26,0Z"/>
      <path d="M275,87.65v-.71h.81V82.65H275V81.9h1.74v.94a1.81,1.81,0,0,1,1.69-1A1.64,1.64,0,0,1,280.1,83,2.08,2.08,0,0,1,282,81.8c1,0,1.9.62,1.9,2.29v2.85h.81v.71h-2.54v-.71H283V84c0-1-.39-1.43-1.19-1.43a1.44,1.44,0,0,0-1.48,1.54v2.81h.82v.71h-2.56v-.71h.82V84c0-1-.39-1.43-1.18-1.43a1.45,1.45,0,0,0-1.49,1.54v2.81h.83v.71Z"/>
      <path d="M287.25,87.75a1.64,1.64,0,0,1-1.87-1.69c0-1.35,1.38-1.79,2.84-1.79h.8v-.41c0-1-.39-1.3-1.21-1.3s-1.19.28-1.28,1h-.91c.11-1.35,1.14-1.79,2.23-1.79a1.82,1.82,0,0,1,2.08,2.06v3.08h.77v.71H289v-.79A2,2,0,0,1,287.25,87.75ZM289,85.64v-.72h-.77c-1.13,0-2,.3-2,1.14a.91.91,0,0,0,1,1C288.28,87,289,86.53,289,85.64Z"/>
      <path d="M291.85,86.21V82.67H291V81.9h.83V80.59h.91V81.9h1.48v.77h-1.48v3.45c0,.55.25.84.82.84a2.57,2.57,0,0,0,.75-.13v.77a2.82,2.82,0,0,1-.82.13C292.35,87.73,291.85,87.11,291.85,86.21Z"/>
      <path d="M295.09,87.65v-.71h.8V82.65h-.82V81.9h1.74v5h.82v.71Zm.58-7.57a.63.63,0,0,1,1.26,0,.63.63,0,0,1-1.26,0Z"/>
      <path d="M298.29,84.82v-.08a2.83,2.83,0,1,1,5.66,0v.08a2.83,2.83,0,1,1-5.66,0Zm4.71,0v-.07c0-1.33-.74-2.19-1.88-2.19s-1.88.86-1.88,2.18v.08c0,1.31.71,2.17,1.88,2.17A1.92,1.92,0,0,0,303,84.82Z"/>
      <path d="M304.72,87.65v-.71h.8V82.65h-.83V81.9h1.74v1a2,2,0,0,1,1.81-1.07c1.15,0,2,.62,2,2.28v2.86h.8v.71H308.5v-.71h.83V84c0-1-.45-1.42-1.34-1.42a1.49,1.49,0,0,0-1.56,1.55v2.8h.83v.71Z"/>
      <path d="M250.56,98.65v-.71h.8v-7h-.82v-.75h1.75v7.79h.8v.71Z"/>
      <path d="M253.69,95.84v-.09a2.71,2.71,0,0,1,2.7-3A2.52,2.52,0,0,1,259,95.66V96h-4.34c0,1.31.67,2,1.85,2,.89,0,1.41-.33,1.53-1h.91a2.21,2.21,0,0,1-2.45,1.76A2.7,2.7,0,0,1,253.69,95.84Zm4.35-.62c-.09-1.19-.7-1.66-1.65-1.66a1.74,1.74,0,0,0-1.72,1.66Z"/>
      <path d="M262.37,96.42a2.1,2.1,0,0,1,1.49-2,1.71,1.71,0,0,1-1.19-1.65,2.45,2.45,0,0,1,4.83,0,1.78,1.78,0,0,1-1.21,1.66,2.08,2.08,0,0,1,1.51,2,2.75,2.75,0,0,1-5.43,0Zm4.45-.06a1.54,1.54,0,0,0-1.71-1.56,1.59,1.59,0,1,0,0,3.17A1.57,1.57,0,0,0,266.82,96.36Zm-.29-3.64a1.45,1.45,0,0,0-2.89,0,1.34,1.34,0,0,0,1.48,1.3A1.27,1.27,0,0,0,266.53,92.72Z"/>
      <path d="M273.09,98.75a1.64,1.64,0,0,1-1.87-1.69c0-1.35,1.38-1.79,2.83-1.79h.81v-.41c0-1-.39-1.3-1.21-1.3s-1.19.28-1.28,1h-.91c.11-1.35,1.14-1.79,2.23-1.79a1.82,1.82,0,0,1,2.08,2.06v3.08h.77v.71h-1.68v-.79A2,2,0,0,1,273.09,98.75Zm1.77-2.11v-.72h-.77c-1.14,0-2,.3-2,1.14a.91.91,0,0,0,1,1C274.12,98,274.86,97.53,274.86,96.64Z"/>
      <path d="M282.12,93.65l-1.79,5h-1.12l-1.87-5h-.71V92.9h2.52v.75h-.82l1.49,4.14,1.41-4.14h-.83V92.9h2.42v.75Z"/>
      <path d="M283.35,98.65v-.71h.8V93.65h-.82V92.9h1.74V94a2.06,2.06,0,0,1,2.06-1.2v.9c-1.25,0-2.06.39-2.06,1.79v2.45H286v.71Z"/>
      <path d="M287.9,98.65v-.71h.81V93.65h-.83V92.9h1.74v5h.82v.71Zm.59-7.57a.61.61,0,0,1,.62-.61.62.62,0,0,1,.63.61.63.63,0,0,1-.63.63A.62.62,0,0,1,288.49,91.08Z"/>
      <path d="M291,98.65v-.71h.8v-7H291v-.75h1.74v7.79h.81v.71Z"/>
    </g>
  </g>
  <g id="EXPRESSION_LIBRE" data-name="EXPRESSION LIBRE">
    <g>
      <path d="M40.1,486.35v-1.62h1.78v-6.15l-1.94,1.29v-1.95l2.22-1.58h2v8.39h1.68v1.62Z"/>
      <path d="M50.61,486.51c-3,0-4.12-2.05-4.12-4.78v-.25c0-3.39,1.83-5.28,4.28-5.28,2,0,3.25.94,3.49,2.77H52.15a1.18,1.18,0,0,0-1.33-1.06c-1.25,0-2,1.09-2.08,3.15a2.63,2.63,0,0,1,2.43-1.25,3.11,3.11,0,0,1,3.3,3.24C54.47,485.12,53,486.51,50.61,486.51Zm1.64-3.42a1.69,1.69,0,1,0-3.38-.08,1.68,1.68,0,0,0,1.71,1.86A1.64,1.64,0,0,0,52.25,483.09Z"/>
      <path d="M58.05,486.35v-1.44h.8v-4.38H58V479h2.83v1.22a2.39,2.39,0,0,1,2.2-1.39,2,2,0,0,1,2,1.39,2.75,2.75,0,0,1,2.4-1.39c1.33,0,2.37.85,2.37,2.8v3.25h.8v1.44H67.06v-1.44h.77v-3.08c0-.94-.39-1.37-1.11-1.37A1.36,1.36,0,0,0,65.35,482v2.94h.77v1.44H62.56v-1.44h.79v-3.08c0-.94-.41-1.37-1.12-1.37A1.36,1.36,0,0,0,60.87,482v2.94h.77v1.44Z"/>
      <path d="M73.71,486.51c-1.34,0-2.44-.65-2.44-2.19,0-1.75,1.57-2.35,3.78-2.35h.81v-.3c0-.91-.29-1.34-1.17-1.34a1.06,1.06,0,0,0-1.21,1H71.56c.11-1.77,1.47-2.51,3.25-2.51s3.06.69,3.06,2.72v3.33h.77v1.44H75.9v-1A2.35,2.35,0,0,1,73.71,486.51Zm2.15-2.73v-.59h-.77c-1.16,0-1.82.28-1.82,1,0,.49.28.87,1,.87C75.19,485.08,75.86,484.62,75.86,483.78Z"/>
      <path d="M79.21,486.35v-1.44H80v-4.38h-.81V479H82v1.48a2.45,2.45,0,0,1,2.51-1.6v1.92c-1.58-.05-2.51.45-2.51,1.85v2.23h.88v1.44Z"/>
      <path d="M86.72,485.6v.75H85.24v-2.43h1.48a1.51,1.51,0,0,0,1.56,1.28c.8,0,1.18-.32,1.18-.89s-.47-.76-1.49-.91c-2-.3-2.67-1-2.67-2.33a2.21,2.21,0,0,1,2.49-2.21c1.18,0,1.65.4,1.89.85V479h1.43v2.17H89.67a1.41,1.41,0,0,0-1.47-1.07c-.64,0-1,.26-1,.76s.33.7,1.39.9c1.81.25,2.83.77,2.83,2.34s-1,2.38-2.72,2.38A2,2,0,0,1,86.72,485.6Z"/>
    </g>
    <g>
      <path d="M541.83,478.67H540v-3.08h7.36v1.14l-3.34,8.87h-2.31l3.2-8.36h-3.11Z"/>
      <path d="M550.79,485.6v-1.44h.79v-4.39h-.81v-1.5h2.83v1.22a2.4,2.4,0,0,1,2.2-1.38,2,2,0,0,1,2,1.38,2.74,2.74,0,0,1,2.39-1.38c1.33,0,2.37.85,2.37,2.8v3.25h.8v1.44h-3.59v-1.44h.77v-3.08c0-.94-.39-1.38-1.1-1.38a1.37,1.37,0,0,0-1.38,1.52v2.94h.77v1.44H555.3v-1.44h.78v-3.08c0-.94-.41-1.38-1.12-1.38a1.37,1.37,0,0,0-1.36,1.52v2.94h.77v1.44Z"/>
      <path d="M566.44,485.76a2.14,2.14,0,0,1-2.44-2.19c0-1.75,1.57-2.35,3.78-2.35h.82v-.3c0-.91-.3-1.34-1.18-1.34a1.06,1.06,0,0,0-1.21,1H564.3c.11-1.76,1.47-2.5,3.25-2.5s3.05.68,3.05,2.71v3.34h.77v1.44h-2.73v-1A2.38,2.38,0,0,1,566.44,485.76ZM568.6,483v-.59h-.77c-1.17,0-1.83.29-1.83,1,0,.49.29.87,1,.87S568.6,483.86,568.6,483Z"/>
      <path d="M571.94,485.6v-1.44h.8v-4.39h-.81v-1.5h2.81v5.89h.81v1.44Zm.59-9.44a1.18,1.18,0,1,1,1.18,1.13A1.14,1.14,0,0,1,572.53,476.16Z"/>
    </g>
  </g>
  <g id="Calque_1" data-name="Calque 1">
    <g>
      <path d="M8.88,81.54c-2.15,0-2.83-1.61-2.83-3.57v-.19c0-2.83,1.28-4.3,3.08-4.3a2.13,2.13,0,0,1,2.3,1.9h-.91a1.31,1.31,0,0,0-1.46-1.12c-1.18,0-2,1.07-2.06,3.14a2.29,2.29,0,0,1,2-1.06,2.47,2.47,0,0,1,2.57,2.57A2.5,2.5,0,0,1,8.88,81.54ZM10.61,79a1.69,1.69,0,0,0-1.74-1.87,1.7,1.7,0,0,0-1.81,1.73,1.76,1.76,0,0,0,1.82,2A1.68,1.68,0,0,0,10.61,79Z"/>
      <path d="M15.11,77.73v-.44c0-2.32,1.18-3.81,3.11-3.81s3.07,1.55,3.07,3.79v.44c0,2.29-1.12,3.83-3.05,3.83S15.11,80,15.11,77.73Zm5.21,0v-.44c0-1.82-.77-3-2.1-3s-2.13,1.1-2.13,3v.44c0,2,.84,3,2.15,3S20.32,79.69,20.32,77.7Z"/>
      <path d="M22.38,77.73v-.44c0-2.32,1.18-3.81,3.11-3.81s3.07,1.55,3.07,3.79v.44c0,2.29-1.12,3.83-3,3.83S22.38,80,22.38,77.73Zm5.21,0v-.44c0-1.82-.77-3-2.1-3s-2.13,1.1-2.13,3v.44c0,2,.84,3,2.15,3S27.59,79.69,27.59,77.7Z"/>
      <path d="M29.66,77.73v-.44c0-2.32,1.17-3.81,3.1-3.81s3.07,1.55,3.07,3.79v.44c0,2.29-1.11,3.83-3,3.83S29.66,80,29.66,77.73Zm5.2,0v-.44c0-1.82-.77-3-2.1-3s-2.13,1.1-2.13,3v.44c0,2,.84,3,2.15,3S34.86,79.69,34.86,77.7Z"/>
      <path d="M8.59,211.44v-.75H9.67v-1.11H5.72v-.4l3.61-5.6H10.6v5.26h1.09v.74H10.6v1.11h1v.75Zm1.08-2.6v-4.53l-2.89,4.53Z"/>
      <path d="M15.11,207.73v-.43c0-2.33,1.18-3.82,3.11-3.82s3.07,1.55,3.07,3.79v.44c0,2.29-1.12,3.83-3.05,3.83S15.11,210,15.11,207.73Zm5.21,0v-.44c0-1.82-.77-3-2.1-3s-2.13,1.1-2.13,3v.44c0,2,.84,3,2.15,3S20.32,209.69,20.32,207.7Z"/>
      <path d="M22.38,207.73v-.43c0-2.33,1.18-3.82,3.11-3.82s3.07,1.55,3.07,3.79v.44c0,2.29-1.12,3.83-3,3.83S22.38,210,22.38,207.73Zm5.21,0v-.44c0-1.82-.77-3-2.1-3s-2.13,1.1-2.13,3v.44c0,2,.84,3,2.15,3S27.59,209.69,27.59,207.7Z"/>
      <path d="M29.66,207.73v-.43c0-2.33,1.17-3.82,3.1-3.82s3.07,1.55,3.07,3.79v.44c0,2.29-1.11,3.83-3,3.83S29.66,210,29.66,207.73Zm5.2,0v-.44c0-1.82-.77-3-2.1-3s-2.13,1.1-2.13,3v.44c0,2,.84,3,2.15,3S34.86,209.69,34.86,207.7Z"/>
      <path d="M10.64,339.42h.89v2H6.15V341l3-3.09a3.19,3.19,0,0,0,1.13-2.27,1.29,1.29,0,0,0-1.4-1.41c-.9,0-1.49.51-1.65,1.75H6.39a2.46,2.46,0,0,1,2.54-2.52,2.15,2.15,0,0,1,2.37,2.21,4.3,4.3,0,0,1-1.59,2.86l-2.15,2.13h3.08Z"/>
      <path d="M15.11,337.73v-.43c0-2.33,1.18-3.82,3.11-3.82s3.07,1.55,3.07,3.79v.44c0,2.29-1.12,3.83-3.05,3.83S15.11,340,15.11,337.73Zm5.21,0v-.44c0-1.82-.77-3-2.1-3s-2.13,1.1-2.13,3v.44c0,2,.84,3,2.15,3S20.32,339.69,20.32,337.7Z"/>
      <path d="M22.38,337.73v-.43c0-2.33,1.18-3.82,3.11-3.82s3.07,1.55,3.07,3.79v.44c0,2.29-1.12,3.83-3,3.83S22.38,340,22.38,337.73Zm5.21,0v-.44c0-1.82-.77-3-2.1-3s-2.13,1.1-2.13,3v.44c0,2,.84,3,2.15,3S27.59,339.69,27.59,337.7Z"/>
      <path d="M29.66,337.73v-.43c0-2.33,1.17-3.82,3.1-3.82s3.07,1.55,3.07,3.79v.44c0,2.29-1.11,3.83-3,3.83S29.66,340,29.66,337.73Zm5.2,0v-.44c0-1.82-.77-3-2.1-3s-2.13,1.1-2.13,3v.44c0,2,.84,3,2.15,3S34.86,339.69,34.86,337.7Z"/>
      <path d="M29.66,467.73v-.43c0-2.33,1.17-3.82,3.1-3.82s3.07,1.55,3.07,3.79v.44c0,2.29-1.11,3.83-3,3.83S29.66,470,29.66,467.73Zm5.2,0v-.44c0-1.82-.77-3-2.1-3s-2.13,1.1-2.13,3v.44c0,2,.84,3,2.15,3S34.86,469.69,34.86,467.7Z"/>
    </g>
    <g>
      <rect class="cls-1" x="2.08" y="27.68" width="103.14" height="31.53"/>
      <path d="M36.76,31.68H40A4.39,4.39,0,0,1,41.7,32a3.85,3.85,0,0,1,1.32.91,4.2,4.2,0,0,1,.85,1.4,5.5,5.5,0,0,1,.29,1.81,5.56,5.56,0,0,1-.29,1.82,4.11,4.11,0,0,1-.85,1.4,3.69,3.69,0,0,1-1.32.9,4.39,4.39,0,0,1-1.69.32H36.76ZM40,39.39a2.49,2.49,0,0,0,2-.9,3,3,0,0,0,.56-1,4.05,4.05,0,0,0,.21-1.34,4,4,0,0,0-.21-1.33,3.1,3.1,0,0,0-.56-1,2.47,2.47,0,0,0-2-.92H38.15v6.55Z"/>
      <path d="M51.41,38.36a2.37,2.37,0,0,1-.24.93,2.14,2.14,0,0,1-.56.74,2.64,2.64,0,0,1-.86.47,3.31,3.31,0,0,1-1.13.18,3.48,3.48,0,0,1-1.36-.24,2.4,2.4,0,0,1-.94-.68,2.76,2.76,0,0,1-.54-1,5.33,5.33,0,0,1,0-2.71,2.91,2.91,0,0,1,.56-1.06,2.59,2.59,0,0,1,.94-.68A3.31,3.31,0,0,1,48.61,34a3.25,3.25,0,0,1,1.28.23,2.16,2.16,0,0,1,.88.66,2.63,2.63,0,0,1,.5,1.05,5.83,5.83,0,0,1,.15,1.38v.21H46.9a2.51,2.51,0,0,0,.46,1.57,1.47,1.47,0,0,0,1.19.53,1.74,1.74,0,0,0,1.1-.33,1.36,1.36,0,0,0,.49-1Zm-1.26-1.65a1.92,1.92,0,0,0-.41-1.21A1.4,1.4,0,0,0,48.61,35a1.64,1.64,0,0,0-1.16.41,2,2,0,0,0-.53,1.27Zm-.86-5h1.56l-1.78,1.73h-1Z"/>
      <path d="M53.23,31.68h1.28v3.45h0a2.42,2.42,0,0,1,.79-.8A2.28,2.28,0,0,1,56.6,34a2.65,2.65,0,0,1,1.2.25,2.59,2.59,0,0,1,.85.69,3,3,0,0,1,.51,1,4.7,4.7,0,0,1,.18,1.33,4.47,4.47,0,0,1-.19,1.36,3.2,3.2,0,0,1-.53,1.06,2.47,2.47,0,0,1-.86.68,2.72,2.72,0,0,1-1.17.24,2.34,2.34,0,0,1-1.25-.31,2.48,2.48,0,0,1-.8-.84h0v1H53.23Zm3,8a1.57,1.57,0,0,0,1.31-.61A2.76,2.76,0,0,0,58,37.34a2.83,2.83,0,0,0-.47-1.72A1.57,1.57,0,0,0,56.23,35a1.47,1.47,0,0,0-1.32.63,3.15,3.15,0,0,0-.41,1.74,3,3,0,0,0,.42,1.72A1.48,1.48,0,0,0,56.24,39.7Z"/>
      <path d="M61,34.14h1.29V38a2.12,2.12,0,0,0,.26,1.19,1,1,0,0,0,.93.4,1.51,1.51,0,0,0,1.18-.48,1.85,1.85,0,0,0,.43-1.29V34.14h1.29v6.42H65.08v-1h0a2.63,2.63,0,0,1-.78.84,2.25,2.25,0,0,1-1.24.31,1.89,1.89,0,0,1-1.58-.61A2.82,2.82,0,0,1,61,38.34Z"/>
      <path d="M68.46,35.2h-.89V34.14h.89V32.49h1.29v1.65h1.5V35.2h-1.5v3.37a.8.8,0,0,0,.91.93H71l.33,0v1.13l-.4.07a3.23,3.23,0,0,1-.46,0,1.77,1.77,0,0,1-2-2Z"/>
      <path d="M12.31,51.53h0a2.62,2.62,0,0,1-.79.83,2.26,2.26,0,0,1-1.28.32A2.59,2.59,0,0,1,9,52.43a2.35,2.35,0,0,1-.85-.68,3,3,0,0,1-.51-1.06,4.58,4.58,0,0,1-.18-1.32A4.94,4.94,0,0,1,7.68,48a3.05,3.05,0,0,1,.53-1,2.39,2.39,0,0,1,.86-.68A2.57,2.57,0,0,1,10.23,46a2.26,2.26,0,0,1,1.26.31,2.55,2.55,0,0,1,.8.8h0V43.68H13.6v8.88H12.31Zm-1.71.17a1.46,1.46,0,0,0,1.31-.62,3.1,3.1,0,0,0,.41-1.75,3,3,0,0,0-.42-1.71A1.49,1.49,0,0,0,10.58,47a1.56,1.56,0,0,0-1.3.62,2.78,2.78,0,0,0-.48,1.75,2.72,2.72,0,0,0,.47,1.71A1.57,1.57,0,0,0,10.6,51.7Z"/>
      <path d="M15.66,46.14h1.28V50a2.12,2.12,0,0,0,.27,1.19,1,1,0,0,0,.92.4,1.52,1.52,0,0,0,1.19-.48,1.89,1.89,0,0,0,.43-1.29V46.14H21v6.42H19.75v-1h0a2.63,2.63,0,0,1-.78.84,2.3,2.3,0,0,1-1.24.31,1.89,1.89,0,0,1-1.58-.61,2.76,2.76,0,0,1-.47-1.73Z"/>
      <path d="M32.08,50.2A2.48,2.48,0,0,1,31.3,52a2.91,2.91,0,0,1-2,.64A3.45,3.45,0,0,1,28,52.44a2.54,2.54,0,0,1-.95-.68,3,3,0,0,1-.56-1,4.8,4.8,0,0,1-.19-1.36,4.45,4.45,0,0,1,.2-1.35A3.09,3.09,0,0,1,27,46.94a2.62,2.62,0,0,1,.95-.68A3.29,3.29,0,0,1,29.29,46a2.92,2.92,0,0,1,2,.65,2.52,2.52,0,0,1,.79,1.86H30.81a1.57,1.57,0,0,0-.47-1.08,1.51,1.51,0,0,0-1.06-.37,1.55,1.55,0,0,0-1.28.55,3.54,3.54,0,0,0,0,3.42,1.53,1.53,0,0,0,1.28.57,1.57,1.57,0,0,0,1.07-.35,1.54,1.54,0,0,0,.46-1.07Z"/>
      <path d="M36.68,52.68a3.45,3.45,0,0,1-1.32-.24,2.73,2.73,0,0,1-1-.68,2.94,2.94,0,0,1-.64-1,3.92,3.92,0,0,1-.23-1.36A4,4,0,0,1,33.71,48a2.94,2.94,0,0,1,.64-1.05,2.86,2.86,0,0,1,1-.68A3.45,3.45,0,0,1,36.68,46a3.54,3.54,0,0,1,1.33.24,2.86,2.86,0,0,1,1,.68A3,3,0,0,1,39.67,48a4,4,0,0,1,.23,1.36,3.92,3.92,0,0,1-.23,1.36,3,3,0,0,1-.65,1,2.73,2.73,0,0,1-1,.68A3.54,3.54,0,0,1,36.68,52.68Zm0-1a1.71,1.71,0,0,0,1.41-.63,3.14,3.14,0,0,0,0-3.4,1.88,1.88,0,0,0-2.81,0,3.14,3.14,0,0,0,0,3.4A1.71,1.71,0,0,0,36.68,51.68Z"/>
      <path d="M41.55,46.14h1.28v1h0a2.3,2.3,0,0,1,.81-.83A2.46,2.46,0,0,1,45,46a1.94,1.94,0,0,1,1.63.61,2.82,2.82,0,0,1,.47,1.73v4.2H45.78V48.71a2,2,0,0,0-.29-1.19,1.08,1.08,0,0,0-1-.4,1.64,1.64,0,0,0-1.24.48,1.78,1.78,0,0,0-.46,1.29v3.67H41.55Z"/>
      <path d="M49.29,47.23h-.85V46.17h.85V45.6A2.06,2.06,0,0,1,49.8,44a1.94,1.94,0,0,1,1.41-.48l.42,0,.39.09v1.1a2,2,0,0,0-.31,0l-.27,0a1,1,0,0,0-.66.2.92.92,0,0,0-.21.69v.57H52v1.06H50.57v5.39H49.29Z"/>
      <path d="M53.9,45a.77.77,0,0,1-.82-.81.84.84,0,0,1,.22-.6.81.81,0,0,1,.6-.23.78.78,0,0,1,.58.23.81.81,0,0,1,.24.6.78.78,0,0,1-.24.58A.82.82,0,0,1,53.9,45Zm-.64,1.13h1.28v6.42H53.26Z"/>
      <path d="M56.6,46.14h1.29v1h0A2.21,2.21,0,0,1,60,46a1.93,1.93,0,0,1,1.63.61,2.82,2.82,0,0,1,.47,1.73v4.2H60.83V48.71a2.13,2.13,0,0,0-.28-1.19,1.1,1.1,0,0,0-1-.4,1.64,1.64,0,0,0-1.24.48,1.78,1.78,0,0,0-.45,1.29v3.67H56.6Z"/>
      <path d="M69.56,50.36a2.37,2.37,0,0,1-.24.93,2.14,2.14,0,0,1-.56.74,2.64,2.64,0,0,1-.86.47,3.31,3.31,0,0,1-1.13.18,3.48,3.48,0,0,1-1.36-.24,2.37,2.37,0,0,1-.93-.68,2.77,2.77,0,0,1-.55-1,5.22,5.22,0,0,1-.17-1.36A4.79,4.79,0,0,1,63.94,48a2.93,2.93,0,0,1,.57-1.06,2.55,2.55,0,0,1,.93-.68,3.74,3.74,0,0,1,2.61,0,2.19,2.19,0,0,1,.87.66,2.63,2.63,0,0,1,.5,1.05,5.81,5.81,0,0,1,.16,1.38v.21H65.05a2.51,2.51,0,0,0,.46,1.57,1.48,1.48,0,0,0,1.2.53,1.73,1.73,0,0,0,1.09-.33,1.36,1.36,0,0,0,.49-1Zm-1.25-1.65a2,2,0,0,0-.42-1.21A1.4,1.4,0,0,0,66.76,47a1.64,1.64,0,0,0-1.16.41,2,2,0,0,0-.52,1.27Z"/>
      <path d="M71.38,46.14h1.28v1h0a2.31,2.31,0,0,1,.72-.82A1.91,1.91,0,0,1,74.56,46a2,2,0,0,1,1.18.31,1.75,1.75,0,0,1,.65.88h0a2.26,2.26,0,0,1,.79-.88,2.14,2.14,0,0,1,1.2-.31,1.84,1.84,0,0,1,1.53.6,2.69,2.69,0,0,1,.48,1.74v4.2H79.13V48.71a2.15,2.15,0,0,0-.27-1.21,1,1,0,0,0-.85-.38,1.4,1.4,0,0,0-1.06.42,1.73,1.73,0,0,0-.41,1.25v3.77H75.26V48.71A2.35,2.35,0,0,0,75,47.52a.92.92,0,0,0-.87-.4,1.36,1.36,0,0,0-1.1.47,2,2,0,0,0-.39,1.3v3.67H71.38Z"/>
      <path d="M87.87,50.36a2.37,2.37,0,0,1-.24.93,2.3,2.3,0,0,1-.57.74,2.59,2.59,0,0,1-.85.47,3.37,3.37,0,0,1-1.14.18,3.46,3.46,0,0,1-1.35-.24,2.4,2.4,0,0,1-.94-.68,2.62,2.62,0,0,1-.54-1,4.81,4.81,0,0,1-.18-1.36A4.45,4.45,0,0,1,82.25,48a2.91,2.91,0,0,1,.56-1.06,2.5,2.5,0,0,1,.94-.68,3.71,3.71,0,0,1,2.6,0,2.16,2.16,0,0,1,.88.66,2.77,2.77,0,0,1,.5,1.05,5.83,5.83,0,0,1,.15,1.38v.21H83.36a2.45,2.45,0,0,0,.46,1.57,1.47,1.47,0,0,0,1.19.53,1.71,1.71,0,0,0,1.09-.33,1.37,1.37,0,0,0,.5-1Zm-1.26-1.65a2,2,0,0,0-.41-1.21A1.41,1.41,0,0,0,85.06,47a1.62,1.62,0,0,0-1.15.41,2,2,0,0,0-.53,1.27Z"/>
      <path d="M89.69,46.14H91v1h0A2.22,2.22,0,0,1,93.1,46a1.91,1.91,0,0,1,1.62.61,2.76,2.76,0,0,1,.47,1.73v4.2H93.91V48.71a2.05,2.05,0,0,0-.28-1.19,1.1,1.1,0,0,0-1-.4,1.6,1.6,0,0,0-1.23.48A1.74,1.74,0,0,0,91,48.89v3.67H89.69Z"/>
      <path d="M97.27,47.2h-.9V46.14h.9V44.49h1.28v1.65h1.5V47.2h-1.5v3.37a1,1,0,0,0,.23.71.94.94,0,0,0,.69.22h.3l.32,0v1.13l-.4.07a3.09,3.09,0,0,1-.45,0,2.06,2.06,0,0,1-1.45-.48,2,2,0,0,1-.52-1.56Z"/>
    </g>
    <path class="cls-9" d="M38,467.5h554.4"/>
  </g>
</svg>
