<?xml version="1.0" encoding="utf-8"?>
<!-- Generator: Adobe Illustrator 24.0.3, SVG Export Plug-In . SVG Version: 6.00 Build 0)  -->
<svg version="1.1" id="Calque_1" xmlns="http://www.w3.org/2000/svg" xmlns:xlink="http://www.w3.org/1999/xlink" x="0px" y="0px"
	 viewBox="0 0 600 300.2" style="enable-background:new 0 0 600 300.2;" xml:space="preserve">
<style type="text/css">
	.st0{fill:none;stroke:#C6C6C6;stroke-width:0.5;stroke-miterlimit:10;}
	.st1{fill:none;stroke:#231F20;stroke-width:0.5;stroke-miterlimit:10;stroke-dasharray:5,2;}
	.st2{fill:none;stroke:#231F20;stroke-width:0.25;stroke-miterlimit:10;}
	.st3{fill:none;stroke:#C6C6C6;stroke-width:2;stroke-linecap:round;stroke-miterlimit:10;}
	.st4{fill:none;stroke:#E3234A;stroke-width:2;stroke-linecap:round;stroke-miterlimit:10;}
	.st5{fill:none;stroke:#000000;stroke-width:2;stroke-miterlimit:10;}
	.st6{fill:none;stroke:#C6C6C6;stroke-miterlimit:10;}
	.st7{fill:none;stroke:#231F20;stroke-width:2;stroke-miterlimit:10;}
	.st8{fill:#E3234A;}
	.st9{fill:#FFFFFF;}
	.st10{fill:#C6C6C6;}
</style>
<g id="HABILLAGE">
	<path d="M11.8,280.9v-0.4c0-2.3,1.2-3.8,3.1-3.8s3.1,1.5,3.1,3.8v0.4c0,2.3-1.1,3.8-3,3.8S11.8,283.2,11.8,280.9z M17,280.9v-0.5
		c0-1.8-0.8-3-2.1-3s-2.1,1.1-2.1,3v0.4c0,2,0.8,3,2.1,3S17,282.9,17,280.9L17,280.9z"/>
	<path d="M10.9,220.3h0.9v2H6.4v-0.4l3.1-3.1c0.7-0.6,1.1-1.4,1.1-2.3c0.1-0.7-0.4-1.3-1.2-1.4c-0.1,0-0.2,0-0.2,0
		c-0.9,0-1.5,0.5-1.7,1.8H6.6c0-1.4,1-2.5,2.4-2.5h0.1c1.2-0.1,2.2,0.7,2.4,1.9c0,0.1,0,0.2,0,0.3c-0.1,1.1-0.7,2.1-1.6,2.9
		l-2.2,2.1h3.1v-1.3H10.9z"/>
	<path d="M12.7,220.2h0.9c0,0.8,0.7,1.5,1.5,1.5c0.1,0,0.1,0,0.2,0c0.9,0,1.7-0.7,1.7-1.6c0-0.1,0-0.1,0-0.2
		c0.1-0.9-0.5-1.7-1.4-1.8c-0.1,0-0.1,0-0.2,0c-0.7-0.1-1.4,0.2-1.9,0.8h-0.4v-4.3h4.4v1.6h-0.9v-0.8h-2.7v2.5
		c0.4-0.4,1-0.6,1.6-0.5c1.3,0,2.4,1,2.5,2.3c0,0.1,0,0.2,0,0.3c0.1,1.4-1.1,2.6-2.5,2.7c-0.1,0-0.2,0-0.2,0c-1.3,0.2-2.4-0.7-2.6-2
		C12.7,220.4,12.7,220.3,12.7,220.2z"/>
	<path d="M5.5,158h0.9c0,0.8,0.7,1.5,1.5,1.5c0.1,0,0.1,0,0.2,0c0.9,0,1.7-0.7,1.7-1.6c0-0.1,0-0.2,0-0.3c0.1-0.9-0.5-1.7-1.4-1.8
		c-0.1,0-0.1,0-0.2,0c-0.7-0.1-1.4,0.2-1.9,0.8H6v-4.3h4.4v1.6H9.5V153H6.8v2.5c0.4-0.4,1-0.6,1.6-0.5c1.3,0,2.4,1,2.4,2.3
		c0,0.1,0,0.2,0,0.3c0.1,1.4-1.1,2.6-2.5,2.7c-0.1,0-0.2,0-0.2,0c-1.3,0.2-2.4-0.7-2.6-2C5.5,158.1,5.5,158.1,5.5,158z"/>
	<path d="M11.8,156.4V156c0-2.3,1.2-3.8,3.1-3.8s3.1,1.6,3.1,3.8v0.4c0,2.3-1.1,3.8-3,3.8S11.8,158.7,11.8,156.4z M17,156.4V156
		c0-1.8-0.8-3-2.1-3s-2.1,1.1-2.1,3v0.4c0,2,0.8,3,2.1,3S17,158.4,17,156.4L17,156.4z"/>
	<path d="M7.6,92H6.7v-2h5.4v0.3l-2.9,7.5h-1l2.7-7.1H7.6V92z"/>
	<path d="M12.7,95.7h0.9c0,0.8,0.7,1.5,1.5,1.5c0.1,0,0.1,0,0.2,0c0.9,0,1.7-0.7,1.7-1.6c0-0.1,0-0.2,0-0.3c0.1-0.9-0.5-1.7-1.4-1.8
		c-0.1,0-0.1,0-0.2,0c-0.7-0.1-1.4,0.2-1.9,0.8h-0.4V90h4.4v1.6h-0.9v-0.8h-2.7v2.5c0.4-0.4,1-0.6,1.6-0.5c1.3,0,2.4,1,2.5,2.3
		c0,0.1,0,0.2,0,0.3c0.1,1.4-1.1,2.6-2.5,2.7c-0.1,0-0.2,0-0.2,0c-1.3,0.2-2.4-0.7-2.6-2C12.7,95.9,12.7,95.8,12.7,95.7z"/>
	<path d="M10.1,12.9v-1.7h1.2V3.9H9.5v1.6H7.6V2.1h9.9v3.3h-1.9V3.9h-1.8v7.2H15v1.7L10.1,12.9L10.1,12.9z"/>
	<path d="M23.9,13c-2.8,0-4.4-1.5-4.4-4.3V3.9h-1V2.1H23v1.7h-1.1v4.7c0,1.8,0.5,2.6,2,2.6S26,10.4,26,8.4V3.9h-1.1V2.1h4.5v1.7h-1
		v4.7C28.4,11.5,26.8,13,23.9,13z"/>
	<path d="M34.7,12.9h-4.3v-1.7h1.1V3.9h-1.1V2.1h3.8l4.2,7.2V3.9h-1.1V2.1h4.3v1.7h-1.1v9H38l-4.5-7.7v6h1.1L34.7,12.9z"/>
	<path d="M46.8,12.9h-4.3v-1.7h1.1V3.9h-1.1V2.1h3.8l4.2,7.2V3.9h-1.1V2.1h4.3v1.7h-1.1v9h-2.4l-4.5-7.7v6h1.1V12.9z"/>
	<path d="M54.6,11.1h1V3.9h-1V2.1h8.3v3H61V3.9h-3v2.6h3.6v1.8H58v2.8h3.2V9.8h2v3.1h-8.6V11.1z"/>
	<path d="M64.3,11.1h1.1V3.9h-1.1V2.1H69v1.7h-1.2V11h2.9V9.3h2v3.5h-8.5L64.3,11.1L64.3,11.1z"/>
	<path d="M82.4,13c-3.5,0-5.4-2.2-5.4-5.5V7.4C77,4.2,79.1,2,82,2c1.2-0.1,2.4,0.4,3.1,1.5V2.1H87v3.7h-2.2c-0.1-1.2-1.2-2.1-2.4-2
		c-1.7,0-2.8,1.3-2.8,3.6v0.1c0,2.2,1,3.5,2.8,3.5c1.2,0.1,2.3-0.8,2.4-2l0,0h2.4C86.9,11.7,85,13,82.4,13z"/>
	<path d="M88.2,12.9v-1.7h1.1V3.9h-1.1V2.1h5c2.5,0,4.1,1,4.1,3.2v0.1c0,1.3-0.9,2.5-2.2,2.8l1.9,2.9h1v1.7h-2.5l-2.7-4.2h-1.1v2.5
		h1.1v1.7L88.2,12.9L88.2,12.9z M93.1,7c1.2,0,1.8-0.5,1.8-1.6l0,0c0-1-0.7-1.5-1.8-1.5h-1.4V7H93.1z"/>
	<path d="M98.5,7.6V7.4c-0.1-2.9,2.2-5.4,5.2-5.5c0.1,0,0.3,0,0.4,0c2.9-0.2,5.3,2,5.5,4.9c0,0.2,0,0.3,0,0.5v0.1
		c-0.2,3-2.9,5.3-5.9,5.1C100.9,12.4,98.8,10.2,98.5,7.6L98.5,7.6z M107,7.6V7.4c0-2.1-1.1-3.5-3-3.5s-3,1.3-3,3.5v0.1
		c0,2.2,1.3,3.5,3,3.5S107,9.7,107,7.6L107,7.6z"/>
	<path d="M110.5,12.9v-1.7h1.1V3.9h-1.1V2.1h4.6v1.7H114V11h1.1v1.8L110.5,12.9L110.5,12.9z"/>
	<path d="M120.4,12.9h-4.3v-1.7h0.9l2.7-3.8l-2.5-3.5h-1V2.1h4.7v1.6h-1l1.7,2.4l1.7-2.4h-1V2.1h4.2v1.7h-1L123,7.2l2.7,3.8h0.9v1.8
		H122v-1.6h1.1l-1.8-2.6l-1.8,2.6h1.1L120.4,12.9z"/>
	<path d="M126.9,7.1h4.2v1.8h-4.2L126.9,7.1z"/>
	<path d="M132.4,12.9v-1.7h1.1V3.9h-1.1V2.1h5c2.5,0,4.1,1,4.1,3.2v0.1c0,1.3-0.9,2.5-2.2,2.8l1.9,2.9h0.9v1.7h-2.5L137,8.6h-1.1
		v2.5h1.1v1.7L132.4,12.9L132.4,12.9z M137.2,7c1.2,0,1.8-0.5,1.8-1.6l0,0c0-1-0.7-1.5-1.8-1.5h-1.4V7H137.2z"/>
	<path d="M142.7,7.6V7.4c-0.1-2.9,2.2-5.4,5.2-5.5c0.1,0,0.3,0,0.4,0c2.9-0.2,5.3,2,5.5,4.9c0,0.2,0,0.3,0,0.5v0.1
		c-0.2,3-2.9,5.3-5.9,5.1C145.1,12.4,143,10.2,142.7,7.6L142.7,7.6z M151.2,7.6V7.4c0-2.1-1.1-3.5-3-3.5s-3,1.3-3,3.5v0.1
		c0,2.2,1.3,3.5,3,3.5S151.2,9.7,151.2,7.6L151.2,7.6z"/>
	<path d="M160,13c-2.8,0-4.4-1.5-4.4-4.3V3.9h-1V2.1h4.5v1.7H158v4.7c0,1.8,0.5,2.6,2,2.6s2.1-0.7,2.1-2.7V3.9H161V2.1h4.5v1.7h-1
		v4.7C164.5,11.5,162.8,13,160,13z"/>
	<path d="M168.1,11.9v1h-1.9V9.5h2c0.2,1.1,1.2,1.9,2.3,1.8c0.8,0.1,1.5-0.5,1.6-1.3V9.9c0-0.9-0.5-1.3-1.9-1.5
		c-2.6-0.3-3.9-1.4-3.9-3.3c0-1.7,1.3-3.1,3-3.1c0.1,0,0.2,0,0.4,0c1-0.1,1.9,0.3,2.5,1.1v-1h1.8v3.1h-2c-0.2-0.9-1-1.6-1.9-1.5
		c-1,0-1.5,0.4-1.5,1.2s0.4,1.2,2,1.4c2.4,0.3,3.9,1.2,3.9,3.4c0,1.9-1.4,3.3-3.8,3.3C169.8,13.1,168.8,12.7,168.1,11.9z"/>
	<path d="M177.4,11.9v1h-1.9V9.5h2c0.2,1.1,1.2,1.9,2.3,1.8c0.8,0.1,1.5-0.5,1.6-1.3V9.9c0-0.9-0.5-1.3-1.9-1.5
		C177,8,175.7,7,175.7,5.1c0-1.7,1.3-3.1,3-3.1c0.1,0,0.2,0,0.4,0c1-0.1,1.9,0.3,2.5,1.1v-1h1.8v3.1h-2c-0.2-0.9-1-1.6-1.9-1.5
		c-1,0-1.5,0.4-1.5,1.2s0.4,1.2,2,1.4c2.4,0.3,3.9,1.2,3.9,3.4c0,1.9-1.4,3.3-3.8,3.3C179.1,13.1,178.1,12.7,177.4,11.9z"/>
	<path d="M184.9,11.1h1V3.9h-1V2.1h8.3v3h-1.9V3.9h-3v2.6h3.6v1.8h-3.6v2.8h3.2V9.8h2v3.1H185L184.9,11.1z"/>
	<path d="M195.1,13.5c0.7-0.1,1.1-0.3,1.1-0.8c-0.8,0-1.2-0.5-1.2-1.2s0.6-1.2,1.2-1.2l0,0c0.7,0,1.4,0.6,1.4,1.3c0,0.1,0,0.1,0,0.2
		v0.3c0,1.6-1,2.3-2.6,2.3v-0.9H195.1z"/>
	<path d="M9.6,26.9v1H7.8v-3.4h2c0.2,1.1,1.2,1.9,2.3,1.8c0.8,0.1,1.5-0.5,1.6-1.3v-0.1c0-0.9-0.5-1.3-1.9-1.5
		C9.2,23,7.9,22,7.9,20.1c0-1.7,1.3-3.1,3-3.1c0.1,0,0.2,0,0.4,0c1-0.1,1.9,0.3,2.5,1.1v-0.9h1.8v3.1h-2c-0.2-0.9-1-1.6-1.9-1.5
		c-1,0-1.5,0.4-1.5,1.2s0.4,1.2,2,1.4c2.4,0.3,3.8,1.2,3.8,3.4c0,1.9-1.4,3.3-3.8,3.3C11.2,28.1,10.3,27.7,9.6,26.9z"/>
	<path d="M17.1,22.6v-0.1c-0.1-2.9,2.2-5.4,5.1-5.5c0.1,0,0.3,0,0.4,0c2.9-0.2,5.3,2,5.5,4.9c0,0.2,0,0.3,0,0.5v0.1
		c0.1,2.9-2.1,5.4-5,5.5c-0.2,0-0.4,0-0.6,0c-2.9,0.2-5.3-2-5.5-4.9C17.1,22.9,17.1,22.7,17.1,22.6z M25.6,22.6v-0.1
		c0-2.1-1.1-3.5-3-3.5s-3,1.3-3,3.5v0.1c0,2.2,1.3,3.5,3,3.5S25.6,24.7,25.6,22.6L25.6,22.6z"/>
	<path d="M29,27.9v-1.7h1.1v-7.3H29v-1.7h5c2.5,0,4.1,1,4.1,3.2v0.1c0,1.3-0.9,2.5-2.2,2.8l2,2.9h0.9v1.7h-2.5l-2.7-4.2h-1.1v2.5
		h1.1v1.7C33.6,27.9,29,27.9,29,27.9z M33.9,22c1.2,0,1.8-0.5,1.8-1.6v-0.1c0-1-0.7-1.5-1.8-1.5h-1.3V22H33.9z"/>
	<path d="M41.7,27.9v-1.7h1.2V19H41v1.6h-1.9v-3.3H49v3.3h-1.9V19h-1.8v7.2h1.2v1.7C46.5,27.9,41.7,27.9,41.7,27.9z"/>
	<path d="M50.1,27.9v-1.7h1.1v-7.3h-1.1v-1.7h4.6v1.7h-1.1v7.2h1.1v1.8C54.7,27.9,50.1,27.9,50.1,27.9z"/>
	<path d="M55.7,26.1h1v-7.3h-1v-1.7H64v3h-1.9v-1.3h-3v2.6h3.6v1.8h-3.5V26h3.2v-1.3h2v3.1h-8.6L55.7,26.1L55.7,26.1z"/>
	<path d="M68.6,27.9v-1.7h1.1v-7.3h-1.1v-1.7h5c2.5,0,4.1,1,4.1,3.2v0.1c0,1.3-0.9,2.5-2.2,2.8l2,2.9h0.9v1.7h-2.5l-2.7-4.2h-1.1
		v2.5h1.1v1.7C73.2,27.9,68.6,27.9,68.6,27.9z M73.4,22c1.2,0,1.8-0.5,1.8-1.6v-0.1c0-1-0.7-1.5-1.8-1.5H72V22H73.4z"/>
	<path d="M79.2,27.9v-1.7h1.1v-7.3h-1.1v-1.7h4.7v1.7h-1.2v2.7H87v-2.7h-1.3v-1.7h4.7v1.7h-1.1v7.2h1.1v1.8h-4.7v-1.7H87v-2.7h-4.3
		v2.7h1.2v1.7C83.9,27.9,79.2,27.9,79.2,27.9z"/>
	<path d="M91.4,22.6v-0.1c-0.1-2.9,2.2-5.4,5.2-5.5c0.1,0,0.3,0,0.4,0c2.9-0.2,5.3,2,5.5,4.9c0,0.2,0,0.3,0,0.5v0.1
		c-0.2,3-2.9,5.3-5.9,5.1C93.9,27.4,91.7,25.2,91.4,22.6L91.4,22.6z M99.9,22.6v-0.1c0-2.1-1.1-3.5-3-3.5s-3,1.3-3,3.5v0.1
		c0,2.2,1.3,3.5,3,3.5S99.9,24.7,99.9,22.6L99.9,22.6z M96.1,14.4h1.8l1.6,2.1H98l-1-0.8l-1,0.8h-1.6L96.1,14.4z"/>
	<path d="M107.7,27.9h-4.3v-1.7h1.1v-7.3h-1.1v-1.7h3.8l4.2,7.2v-5.5h-1.1v-1.7h4.3v1.7h-1.1v9h-2.4l-4.5-7.7v6h1.1V27.9z"/>
	<path d="M115.5,26.1h1v-7.3h-1v-1.7h8.3v3h-1.9v-1.3h-3v2.6h3.6v1.8H119V26h3.2v-1.3h2v3.1h-8.7V26.1z"/>
	<path d="M125.7,28.5c0.7-0.1,1.1-0.3,1.1-0.8c-0.8,0-1.2-0.5-1.2-1.2s0.6-1.2,1.2-1.2l0,0c0.8,0,1.4,0.6,1.4,1.3c0,0.1,0,0.1,0,0.2
		v0.3c0,1.6-1,2.3-2.6,2.3L125.7,28.5L125.7,28.5z"/>
	<path d="M132.8,26.1h1.1v-7.3h-1.1v-1.7h4.7v1.7h-1.2V26h2.9v-1.7h2v3.5h-8.5L132.8,26.1z"/>
	<path d="M143.4,27.9v-1.7h1.1v-2.7l-2.8-4.5h-0.9v-1.7h4.5V19h-1l1.8,3l1.7-3h-1.1v-1.7h4V19h-1l-2.7,4.5v2.8h1.2V28L143.4,27.9
		L143.4,27.9z"/>
	<path d="M150.8,22.6v-0.1c-0.1-2.9,2.2-5.4,5.1-5.5c0.1,0,0.3,0,0.4,0c2.9-0.2,5.3,2,5.5,4.9c0,0.2,0,0.3,0,0.5v0.1
		c-0.2,3-2.9,5.3-5.9,5.1C153.2,27.4,151.1,25.2,150.8,22.6L150.8,22.6z M159.3,22.6v-0.1c0-2.1-1.1-3.5-3-3.5s-3,1.3-3,3.5v0.1
		c0,2.2,1.3,3.5,3,3.5S159.3,24.7,159.3,22.6L159.3,22.6z"/>
	<path d="M167.1,27.9h-4.3v-1.7h1.1v-7.3h-1.1v-1.7h3.8l4.2,7.2v-5.5h-1.1v-1.7h4.3v1.7h-1.1v9h-2.4l-4.4-7.7v6h1.1L167.1,27.9z"/>
	<path d="M300.4,13.5v-1.7h1.1V4.6h-1.1V2.8h4.9c2.5,0,4,1.2,4,3.4v0.1c0,2.2-1.6,3.3-4,3.3h-1.4v2.2h1.2v1.7
		C305.1,13.5,300.4,13.5,300.4,13.5z M305.2,7.8c1.1,0,1.8-0.6,1.8-1.6v0c0-1.1-0.6-1.6-1.8-1.6h-1.3v3.2H305.2z"/>
	<path d="M310.2,11.8h1.1V4.6h-1.1V2.8h4.7v1.8h-1.2v7.2h2.9V10h2v3.5h-8.5L310.2,11.8z"/>
	<path d="M319.5,13.5v-1.7h0.9l3-9h3.1l2.9,9h0.9v1.7h-4.4v-1.7h1l-0.4-1.4h-3.6l-0.4,1.4h1v1.7H319.5z M324.7,4.6l-1.3,4.3h2.6
		L324.7,4.6z"/>
	<path d="M335.9,13.7c-3.5,0-5.4-2.2-5.4-5.5V8.1c0-3.2,2.1-5.5,5-5.5c1.2-0.1,2.4,0.4,3.1,1.4V2.8h1.9v3.7h-2.2
		c-0.1-1.2-1.2-2.1-2.4-2c-1.7,0-2.8,1.3-2.8,3.6v0.1c0,2.2,1,3.5,2.8,3.5c1.2,0.1,2.3-0.8,2.4-2l0,0h2.4
		C340.5,12.3,338.5,13.7,335.9,13.7z"/>
	<path d="M341.7,11.8h1V4.6h-1V2.8h8.3v3h-1.9V4.6h-3v2.6h3.6V9h-3.6v2.8h3.2v-1.4h2v3.1h-8.6V11.8z"/>
	<path d="M354.6,11.8h1.1V4.6h-1.1V2.8h4.6c3.8,0,5.6,2,5.6,5.2v0.1c0,3.2-1.9,5.3-5.6,5.3h-4.6V11.8z M359.1,11.6
		c2.2,0,3.2-1.2,3.2-3.4V8.1c0-2.2-1-3.4-3.2-3.4h-1v6.9H359.1z"/>
	<path d="M365.8,11.8h1V4.6h-1V2.8h8.3v3h-1.9V4.6h-3v2.6h3.6V9h-3.6v2.8h3.2v-1.4h2v3.1h-8.6V11.8z"/>
	<path d="M378.6,11.8h1.1V4.6h-1.1V2.8h4.7v1.8h-1.2v7.2h2.9V10h2v3.5h-8.5v-1.7H378.6z"/>
	<path d="M387.1,5.6c0.7-0.1,1-0.3,1-0.8c-0.5,0.1-1-0.3-1.1-0.9c0-0.1,0-0.1,0-0.2c0-0.6,0.5-1.1,1.2-1.1c0,0,0,0,0.1,0
		c0.7,0,1.3,0.6,1.3,1.3V4v0.2c0,1.4-0.9,2.2-2.4,2.2L387.1,5.6z"/>
	<path d="M390.1,8.2L390.1,8.2c-0.1-3,2.2-5.5,5.2-5.6c0.1,0,0.3,0,0.4,0c2.9-0.2,5.3,2,5.5,4.9c0,0.2,0,0.3,0,0.5v0.1
		c-0.2,3-2.9,5.3-5.9,5.1C392.5,13,390.4,10.9,390.1,8.2L390.1,8.2z M398.6,8.2L398.6,8.2c0-2.2-1.1-3.6-3-3.6s-3,1.3-3,3.5v0.1
		c0,2.2,1.3,3.5,3,3.5S398.6,10.4,398.6,8.2L398.6,8.2z"/>
	<path d="M402.1,13.5v-1.7h1.1V4.6h-1.1V2.8h4.9c2.5,0,4,1.2,4,3.4v0.1c0,2.2-1.6,3.3-4,3.3h-1.4v2.2h1.2v1.7
		C406.8,13.5,402.1,13.5,402.1,13.5z M406.9,7.8c1.1,0,1.8-0.6,1.8-1.6v0c0-1.1-0.7-1.6-1.8-1.6h-1.3v3.2H406.9z"/>
	<path d="M411.8,11.8h1V4.6h-1V2.8h8.3v3h-1.9V4.6h-3v2.6h3.6V9h-3.6v2.8h3.2v-1.4h2v3.1h-8.6V11.8z M416.2,0h2.4l-1.5,2.1h-1.6
		L416.2,0z"/>
	<path d="M421.6,13.5v-1.7h1.1V4.6h-1.1V2.8h5c2.5,0,4.1,1,4.1,3.2v0.1c0,1.3-0.9,2.5-2.2,2.8l2,2.9h0.9v1.7h-2.5l-2.7-4.2h-1.1v2.5
		h1.1v1.7L421.6,13.5z M426.4,7.7c1.2,0,1.8-0.5,1.8-1.6V6c0-1-0.7-1.5-1.8-1.5H425v3.1L426.4,7.7z"/>
	<path d="M432,13.5v-1.7h0.9l3-9h3.1l2.9,9h0.9v1.7h-4.4v-1.7h1l-0.4-1.4h-3.6l-0.4,1.4h1v1.7H432z M437.2,4.6l-1.3,4.3h2.6
		L437.2,4.6z"/>
	<path d="M444.2,14.1c0.7-0.1,1.1-0.3,1.1-0.8c-0.6,0.1-1.2-0.4-1.2-1c0-0.1,0-0.1,0-0.2c0-0.7,0.6-1.2,1.2-1.2c0,0,0,0,0.1,0
		c0.7,0,1.4,0.6,1.4,1.3c0,0.1,0,0.1,0,0.2v0.2c0,1.6-1,2.3-2.6,2.3V14.1z"/>
	<path d="M451.3,13.5v-1.7h1.1V4.6h-1.1V2.8h4.9c2.5,0,4,1.2,4,3.4v0.1c0,2.2-1.6,3.3-4,3.3h-1.4v2.2h1.2v1.7
		C456,13.5,451.3,13.5,451.3,13.5z M456.1,7.8c1.1,0,1.8-0.6,1.8-1.6v0c0-1.1-0.7-1.6-1.8-1.6h-1.3v3.2H456.1z"/>
	<path d="M459.7,13.5v-1.7h0.9l3-9h3.1l2.9,9h0.9v1.7H466v-1.7h1l-0.4-1.4H463l-0.4,1.4h1v1.7H459.7z M464.8,4.6l-1.3,4.3h2.6
		L464.8,4.6z"/>
	<path d="M471.3,13.5v-1.7h1.1V4.6h-1.1V2.8h5c2.5,0,4.1,1,4.1,3.2v0.1c0,1.3-0.9,2.5-2.2,2.8l2,2.9h0.9v1.7h-2.5l-2.7-4.2h-1.1v2.5
		h1.1v1.7L471.3,13.5z M476.1,7.7c1.2,0,1.9-0.5,1.9-1.6V6c0-1-0.7-1.5-1.8-1.5h-1.4v3.1L476.1,7.7z"/>
	<path d="M481.9,13.5v-1.7h1.1V4.6h-1.1V2.8h4.6v1.8h-1.1v7.2h1.1v1.7C486.5,13.5,481.9,13.5,481.9,13.5z"/>
	<path d="M489.5,12.5v1h-1.9v-3.4h2c0.2,1.1,1.2,1.9,2.3,1.8c0.8,0.1,1.5-0.5,1.6-1.3v-0.1c0-0.8-0.5-1.3-1.9-1.5
		c-2.6-0.3-3.9-1.4-3.9-3.3c0-1.7,1.3-3.1,3-3.1c0.1,0,0.2,0,0.4,0c1-0.1,1.9,0.3,2.5,1.1V2.8h1.8v3.1h-2c-0.2-0.9-1-1.6-1.9-1.5
		c-1,0-1.5,0.4-1.5,1.2s0.4,1.2,2,1.4c2.4,0.3,3.9,1.2,3.9,3.4c0,1.9-1.4,3.3-3.8,3.3C491.1,13.7,490.2,13.3,489.5,12.5z"/>
</g>
<g id="EXPRESSION_LIBRE">
	<path d="M27.8,297.6V296h1.8v-6.1l-2,1.3v-2l2.2-1.6h2v8.4h1.7v1.6L27.8,297.6z"/>
	<path d="M34.1,290.9L34.1,290.9c-0.1-1.2,0.8-2.2,2-2.2c0.1,0,0.1,0,0.2,0c1.1-0.1,2,0.8,2.1,1.9c0,0.1,0,0.2,0,0.3v0.3h-3.1
		c0,0.7,0.4,1.1,1.1,1.1s0.8-0.2,0.9-0.6h1.1c-0.1,0.9-0.9,1.4-2,1.4c-1.1,0.1-2.1-0.7-2.3-1.9C34.1,291.1,34.1,291,34.1,290.9z
		 M37.3,290.3c0-0.6-0.4-0.9-0.9-0.9s-1,0.4-1,0.9H37.3z"/>
	<path d="M38.8,293v-0.8h0.5v-2.5h-0.5v-0.9h1.7v0.9c0.2-0.6,0.8-1,1.5-0.9v1.1c-0.9,0-1.5,0.3-1.5,1.1v1.3H41v0.8h-2.2V293z"/>
	<path d="M45.1,300.2v-1.5c0.7,0,1-0.4,1-1v-6h-0.8v-1.5h2.8v7.5C48.1,299.3,47.4,300.2,45.1,300.2z M45.9,288.2
		c0-0.6,0.5-1.1,1.1-1.1l0,0c0.6,0,1.1,0.5,1.1,1.1s-0.5,1.1-1.1,1.1l0,0C46.4,289.3,45.9,288.8,45.9,288.2L45.9,288.2z"/>
	<path d="M51.8,297.8c-1.3,0-2.4-0.6-2.4-2.2c0-1.8,1.6-2.4,3.8-2.4H54v-0.3c0-0.9-0.3-1.3-1.2-1.3c-0.6-0.1-1.1,0.3-1.2,0.9v0.1
		h-1.9c0.1-1.8,1.5-2.5,3.2-2.5s3,0.7,3,2.7v3.3h0.8v1.5H54v-1C53.5,297.4,52.7,297.8,51.8,297.8z M53.9,295v-0.6h-0.8
		c-1.2,0-1.8,0.3-1.8,1c0,0.5,0.3,0.9,1,0.9C53.2,296.3,53.9,295.9,53.9,295z"/>
	<path d="M57.3,297.6v-1.5h0.8v-4.4h-0.8v-1.5h2.8v1.2c0.4-0.9,1.3-1.4,2.3-1.4c1.4,0,2.4,0.8,2.4,2.8v3.3h0.8v1.5H62v-1.5h0.8v-3
		c0-1-0.4-1.4-1.2-1.4s-1.5,0.6-1.5,1.4c0,0.1,0,0.1,0,0.2v2.8h0.8v1.5H57.3z"/>
	<path d="M73,291.8l-2.1,5.8h-2.3l-2.2-5.8h-0.8v-1.5h3.7v1.5h-0.8l1.3,4l1.3-4h-0.8v-1.5h3.4v1.5H73z"/>
	<path d="M74.3,297.6v-1.5h0.8v-4.4h-0.8v-1.5h2.8v5.9h0.8v1.5H74.3z M74.9,288.2c0-0.7,0.5-1.2,1.1-1.2c0.7,0,1.2,0.5,1.2,1.1
		c0,0.7-0.5,1.2-1.1,1.2H76C75.4,289.3,74.9,288.8,74.9,288.2z"/>
	<path d="M78.5,294v-0.1c-0.1-2,1.5-3.7,3.5-3.8c0.1,0,0.2,0,0.3,0c1.9-0.1,3.5,1.3,3.6,3.2c0,0.2,0,0.4,0,0.6v0.6h-5.3
		c0.1,1.2,0.7,1.9,1.8,1.9c0.9,0,1.4-0.4,1.5-1h1.9c-0.2,1.6-1.5,2.5-3.5,2.5c-2,0.1-3.7-1.3-3.8-3.3
		C78.5,294.4,78.5,294.2,78.5,294z M83.9,293.1c0.1-0.8-0.6-1.5-1.4-1.6c-0.1,0-0.1,0-0.2,0c-0.9,0-1.6,0.7-1.7,1.6H83.9z"/>
	<path d="M86.6,297.6v-1.5h0.8v-4.4h-0.8v-1.5h2.8v1.5c0.4-1,1.4-1.7,2.5-1.6v1.9c-1.6-0.1-2.5,0.5-2.5,1.9v2.2h0.9v1.5H86.6z"/>
	<path d="M242.3,297.6V296h1.1v-1h-4.7v-1.1l4.2-6.2h2.8v5.8h1.3v1.5h-1.3v1h1.1v1.6L242.3,297.6z M243.5,293.4v-4.3l-2.8,4.3H243.5
		z"/>
	<path d="M250.4,297.6v-1.5h0.8v-4.4h-0.8v-1.5h2.8v1.2c0.4-0.9,1.3-1.4,2.2-1.4s1.7,0.5,2,1.4c0.5-0.9,1.4-1.4,2.4-1.4
		c1.3,0,2.4,0.9,2.4,2.8v3.2h0.8v1.5h-3.6V296h0.8v-3.1c0-0.9-0.4-1.4-1.1-1.4c-0.8,0-1.4,0.6-1.4,1.3c0,0.1,0,0.1,0,0.2v2.9h0.8
		v1.5h-3.6v-1.5h0.8v-3.1c0-0.9-0.4-1.4-1.1-1.4c-0.8,0-1.4,0.6-1.4,1.4c0,0.1,0,0.1,0,0.2v2.9h0.8v1.5L250.4,297.6z"/>
	<path d="M266.1,297.8c-1.3,0-2.4-0.6-2.4-2.2c0-1.8,1.6-2.4,3.8-2.4h0.8v-0.3c0-0.9-0.3-1.3-1.2-1.3c-0.6-0.1-1.1,0.3-1.2,0.9v0.1
		H264c0.1-1.8,1.5-2.5,3.2-2.5s3.1,0.7,3.1,2.7v3.3h0.8v1.5h-2.7v-1C267.8,297.4,267,297.8,266.1,297.8z M268.2,295v-0.6h-0.8
		c-1.2,0-1.8,0.3-1.8,1c0,0.5,0.3,0.9,1,0.9C267.6,296.3,268.2,295.9,268.2,295z"/>
	<path d="M271.6,297.6v-1.5h0.8v-4.4h-0.8v-1.5h2.8v5.9h0.8v1.5H271.6z M272.2,288.2c0-0.7,0.5-1.2,1.1-1.2c0.7,0,1.2,0.5,1.2,1.1
		s-0.5,1.2-1.1,1.2l0,0C272.7,289.3,272.2,288.8,272.2,288.2L272.2,288.2L272.2,288.2z"/>
	<path d="M327.3,296.3v-1.6h1.8v-6.2l-1.9,1.3v-1.9l2.2-1.6h2v8.4h1.7v1.6L327.3,296.3z"/>
	<path d="M333.7,289.5L333.7,289.5c-0.1-1.2,0.9-2.2,2-2.3c0.1,0,0.1,0,0.2,0c1.1,0,2,0.8,2.1,1.9c0,0.1,0,0.2,0,0.3v0.3h-3.1
		c0,0.7,0.4,1.1,1.1,1.1s0.8-0.2,0.9-0.6h1.2c-0.1,0.9-0.9,1.4-2,1.4c-1.1,0.1-2.2-0.7-2.3-1.8C333.7,289.8,333.7,289.6,333.7,289.5
		z M336.8,289c0-0.5-0.3-0.9-0.8-0.9h-0.1c-0.5,0-1,0.4-1,0.9H336.8z"/>
	<path d="M338.4,291.6v-0.8h0.5v-2.5h-0.5v-0.9h1.6v0.9c0.2-0.6,0.8-1,1.5-0.9v1.1c-0.9,0-1.5,0.3-1.5,1.1v1.3h0.5v0.8h-2.1V291.6z"
		/>
	<path d="M344.7,298.9v-1.5c0.7,0,1-0.4,1-1v-6h-0.8v-1.5h2.8v7.5C347.6,297.9,347,298.9,344.7,298.9z M345.4,286.8
		c0-0.6,0.5-1.1,1.1-1.1l0,0c0.6,0,1.1,0.5,1.1,1.1s-0.5,1.1-1.1,1.1C346,288,345.5,287.5,345.4,286.8L345.4,286.8z"/>
	<path d="M351.3,296.4c-1.3,0-2.4-0.6-2.4-2.2c0-1.8,1.6-2.3,3.8-2.3h0.8v-0.3c0-0.9-0.3-1.3-1.2-1.3c-0.6-0.1-1.1,0.3-1.2,0.9v0.1
		h-1.9c0.1-1.8,1.5-2.5,3.2-2.5s3.1,0.7,3.1,2.7v3.4h0.8v1.4h-2.7v-1C353,296.1,352.2,296.5,351.3,296.4z M353.5,293.7v-0.6h-0.8
		c-1.2,0-1.8,0.3-1.8,1c0,0.5,0.3,0.9,1,0.9C352.8,295,353.5,294.5,353.5,293.7z"/>
	<path d="M356.8,296.3v-1.4h0.8v-4.4h-0.8V289h2.8v1.2c0.4-0.9,1.4-1.4,2.3-1.4c1.4,0,2.4,0.8,2.4,2.8v3.3h0.8v1.4h-3.6v-1.4h0.8v-3
		c0-1-0.4-1.4-1.2-1.4c-0.8,0-1.5,0.6-1.5,1.4c0,0.1,0,0.1,0,0.2v2.8h0.8v1.4H356.8z"/>
	<path d="M372.5,290.4l-2.1,5.8h-2.3l-2.1-5.8h-0.8v-1.5h3.7v1.5h-0.8l1.4,4l1.3-4H370v-1.5h3.4v1.5H372.5z"/>
	<path d="M373.8,296.3v-1.4h0.8v-4.4h-0.8V289h2.8v5.9h0.8v1.4H373.8z M374.4,286.8c0-0.7,0.5-1.2,1.1-1.2c0.7,0,1.2,0.5,1.2,1.1
		c0,0.7-0.5,1.2-1.1,1.2l0,0C375,288,374.4,287.5,374.4,286.8C374.4,286.9,374.4,286.9,374.4,286.8L374.4,286.8z"/>
	<path d="M378.1,292.7v-0.1c-0.1-2,1.5-3.7,3.5-3.8c0.1,0,0.2,0,0.3,0c1.9-0.1,3.5,1.3,3.6,3.2c0,0.2,0,0.4,0,0.6v0.6h-5.3
		c0.1,1.2,0.7,1.9,1.8,1.9c0.9,0,1.4-0.4,1.5-1h1.9c-0.2,1.6-1.5,2.5-3.5,2.5c-2,0.2-3.7-1.3-3.8-3.3
		C378.1,293,378.1,292.8,378.1,292.7z M383.4,291.8c0.1-0.8-0.6-1.5-1.4-1.6c-0.1,0-0.1,0-0.2,0c-0.9,0-1.6,0.7-1.7,1.6H383.4z"/>
	<path d="M386.1,296.3v-1.4h0.8v-4.4h-0.8V289h2.9v1.5c0.4-1,1.4-1.7,2.5-1.6v1.9c-1.6-0.1-2.5,0.4-2.5,1.8v2.2h0.9v1.4L386.1,296.3
		z"/>
	<path d="M541.8,296.3v-1.6h1.2v-1h-4.7v-1.1l4.2-6.2h2.8v5.8h1.3v1.5h-1.3v1h1.1v1.6L541.8,296.3z M543,292.1v-4.2l-2.8,4.3
		L543,292.1z"/>
	<path d="M550,296.3v-1.4h0.8v-4.4H550V289h2.8v1.2c0.4-0.9,1.3-1.4,2.2-1.4s1.7,0.5,2,1.4c0.5-0.9,1.4-1.4,2.4-1.4
		c1.3,0,2.4,0.8,2.4,2.8v3.2h0.8v1.4H559v-1.4h0.8v-3.1c0-0.9-0.4-1.4-1.1-1.4c-0.8,0-1.4,0.6-1.4,1.3c0,0.1,0,0.1,0,0.2v2.9h0.8
		v1.4h-3.6v-1.4h0.8v-3.1c0-0.9-0.4-1.4-1.1-1.4c-0.8,0-1.4,0.6-1.4,1.3v0.1v3h0.8v1.4L550,296.3z"/>
	<path d="M565.6,296.4c-1.2,0.2-2.3-0.6-2.4-1.8c0-0.1,0-0.2,0-0.4c0-1.8,1.6-2.3,3.8-2.3h0.8v-0.3c0-0.9-0.3-1.3-1.2-1.3
		c-0.6-0.1-1.1,0.3-1.2,0.9v0.1h-1.9c0.1-1.8,1.5-2.5,3.2-2.5s3.1,0.7,3.1,2.7v3.4h0.8v1.4h-2.7v-1
		C567.4,296.1,566.5,296.5,565.6,296.4z M567.8,293.7v-0.6H567c-1.2,0-1.8,0.3-1.8,1c0,0.5,0.3,0.9,1,0.9
		C567.1,295,567.8,294.5,567.8,293.7L567.8,293.7z"/>
	<path d="M571.1,296.3v-1.4h0.8v-4.4h-0.8V289h2.8v5.9h0.8v1.4H571.1z M571.7,286.8c0.1-0.6,0.6-1.1,1.3-1.1c0.6,0.1,1,0.5,1.1,1.1
		c-0.1,0.6-0.6,1.1-1.3,1.1C572.2,287.8,571.8,287.4,571.7,286.8z"/>
	<line class="st0" x1="25.7" y1="281.9" x2="274.7" y2="281.9"/>
	<line class="st0" x1="25.7" y1="219.7" x2="274.7" y2="219.7"/>
	<line class="st0" x1="25.7" y1="157.4" x2="274.7" y2="157.4"/>
	<line class="st0" x1="25.7" y1="95.2" x2="274.7" y2="95.2"/>
	<line class="st1" x1="180.6" y1="111.1" x2="180.6" y2="292.5"/>
	<line class="st2" x1="29.7" y1="281.9" x2="278.7" y2="281.9"/>
	<line class="st3" x1="40.2" y1="218.6" x2="38.2" y2="225.1"/>
	<line class="st3" x1="42.2" y1="218.6" x2="40.2" y2="218.6"/>
	<line class="st3" x1="44.2" y1="218.8" x2="42.2" y2="218.6"/>
	<line class="st3" x1="46.2" y1="218.8" x2="44.2" y2="218.8"/>
	<line class="st3" x1="48.2" y1="217.6" x2="46.2" y2="218.8"/>
	<line class="st3" x1="50.2" y1="214.3" x2="48.2" y2="217.6"/>
	<line class="st3" x1="52.2" y1="214.6" x2="50.2" y2="214.3"/>
	<line class="st3" x1="54.3" y1="217.8" x2="52.2" y2="214.6"/>
	<line class="st3" x1="56.3" y1="209.4" x2="54.3" y2="217.8"/>
	<line class="st3" x1="58.3" y1="207.4" x2="56.3" y2="209.4"/>
	<line class="st3" x1="60.3" y1="206.9" x2="58.3" y2="207.4"/>
	<line class="st3" x1="62.3" y1="200.7" x2="60.3" y2="206.9"/>
	<line class="st3" x1="64.3" y1="190.7" x2="62.3" y2="200.7"/>
	<line class="st3" x1="66.3" y1="186.4" x2="64.3" y2="190.7"/>
	<line class="st3" x1="68.3" y1="183.2" x2="66.3" y2="186.4"/>
	<line class="st3" x1="70.3" y1="187.9" x2="68.3" y2="183.2"/>
	<line class="st3" x1="72.3" y1="188.4" x2="70.3" y2="187.9"/>
	<line class="st3" x1="74.3" y1="188.4" x2="72.3" y2="188.4"/>
	<line class="st3" x1="76.3" y1="190.9" x2="74.3" y2="188.4"/>
	<line class="st3" x1="78.4" y1="201.9" x2="76.3" y2="190.9"/>
	<line class="st3" x1="80.4" y1="207.4" x2="78.4" y2="201.9"/>
	<line class="st3" x1="82.4" y1="212.6" x2="80.4" y2="207.4"/>
	<line class="st3" x1="84.4" y1="216.8" x2="82.4" y2="212.6"/>
	<line class="st3" x1="86.4" y1="218.8" x2="84.4" y2="216.8"/>
	<line class="st3" x1="88.4" y1="221.3" x2="86.4" y2="218.8"/>
	<line class="st3" x1="90.4" y1="228.5" x2="88.4" y2="221.3"/>
	<line class="st3" x1="92.4" y1="231.5" x2="90.4" y2="228.5"/>
	<line class="st3" x1="94.4" y1="230" x2="92.4" y2="231.5"/>
	<line class="st3" x1="96.4" y1="224.6" x2="94.4" y2="230"/>
	<line class="st3" x1="98.4" y1="213.8" x2="96.4" y2="224.6"/>
	<line class="st3" x1="100.4" y1="221.1" x2="98.4" y2="213.8"/>
	<line class="st3" x1="102.5" y1="228.3" x2="100.4" y2="221.1"/>
	<line class="st3" x1="104.5" y1="227" x2="102.5" y2="228.3"/>
	<line class="st3" x1="106.5" y1="226.1" x2="104.5" y2="227"/>
	<line class="st3" x1="108.5" y1="230.5" x2="106.5" y2="226.1"/>
	<line class="st3" x1="110.5" y1="238" x2="108.5" y2="230.5"/>
	<line class="st3" x1="112.5" y1="243" x2="110.5" y2="238"/>
	<line class="st3" x1="114.5" y1="225.3" x2="112.5" y2="243"/>
	<line class="st3" x1="116.5" y1="203.6" x2="114.5" y2="225.3"/>
	<line class="st3" x1="118.5" y1="197.2" x2="116.5" y2="203.6"/>
	<line class="st3" x1="120.5" y1="193.7" x2="118.5" y2="197.2"/>
	<line class="st3" x1="122.5" y1="186.4" x2="120.5" y2="193.7"/>
	<line class="st3" x1="124.5" y1="179" x2="122.5" y2="186.4"/>
	<line class="st3" x1="126.6" y1="172.5" x2="124.5" y2="179"/>
	<line class="st3" x1="128.6" y1="166.5" x2="126.6" y2="172.5"/>
	<line class="st3" x1="130.6" y1="177" x2="128.6" y2="166.5"/>
	<line class="st3" x1="132.6" y1="180.2" x2="130.6" y2="177"/>
	<line class="st3" x1="134.6" y1="174" x2="132.6" y2="180.2"/>
	<line class="st3" x1="136.6" y1="164.8" x2="134.6" y2="174"/>
	<line class="st3" x1="138.6" y1="154.3" x2="136.6" y2="164.8"/>
	<line class="st3" x1="140.6" y1="151.8" x2="138.6" y2="154.3"/>
	<line class="st3" x1="142.6" y1="155.6" x2="140.6" y2="151.8"/>
	<line class="st3" x1="144.6" y1="159.1" x2="142.6" y2="155.6"/>
	<line class="st3" x1="146.6" y1="160.1" x2="144.6" y2="159.1"/>
	<line class="st3" x1="148.6" y1="166.3" x2="146.6" y2="160.1"/>
	<line class="st3" x1="150.6" y1="180" x2="148.6" y2="166.3"/>
	<line class="st3" x1="152.7" y1="194.7" x2="150.6" y2="180"/>
	<line class="st3" x1="154.7" y1="199.4" x2="152.7" y2="194.7"/>
	<line class="st3" x1="156.7" y1="210.1" x2="154.7" y2="199.4"/>
	<line class="st3" x1="158.7" y1="207.9" x2="156.7" y2="210.1"/>
	<line class="st3" x1="160.7" y1="209.6" x2="158.7" y2="207.9"/>
	<line class="st3" x1="162.7" y1="213.6" x2="160.7" y2="209.6"/>
	<line class="st3" x1="164.7" y1="215.8" x2="162.7" y2="213.6"/>
	<line class="st3" x1="166.7" y1="224.8" x2="164.7" y2="215.8"/>
	<line class="st3" x1="168.7" y1="241.7" x2="166.7" y2="224.8"/>
	<line class="st3" x1="170.7" y1="250.7" x2="168.7" y2="241.7"/>
	<line class="st3" x1="172.7" y1="260.9" x2="170.7" y2="250.7"/>
	<line class="st3" x1="174.8" y1="260.2" x2="172.7" y2="260.9"/>
	<line class="st3" x1="176.8" y1="261.2" x2="174.8" y2="260.2"/>
	<line class="st3" x1="178.8" y1="260.7" x2="176.8" y2="261.2"/>
	<line class="st3" x1="180.8" y1="255.7" x2="178.8" y2="260.7"/>
	<line class="st3" x1="182.8" y1="248.7" x2="180.8" y2="255.7"/>
	<line class="st3" x1="184.8" y1="239.5" x2="182.8" y2="248.7"/>
	<line class="st3" x1="186.8" y1="224.1" x2="184.8" y2="239.5"/>
	<line class="st3" x1="188.8" y1="222.8" x2="186.8" y2="224.1"/>
	<line class="st3" x1="190.8" y1="215.6" x2="188.8" y2="222.8"/>
	<line class="st3" x1="192.8" y1="211.1" x2="190.8" y2="215.6"/>
	<line class="st3" x1="194.8" y1="210.6" x2="192.8" y2="211.1"/>
	<line class="st3" x1="196.8" y1="211.1" x2="194.8" y2="210.6"/>
	<line class="st3" x1="198.8" y1="213.3" x2="196.8" y2="211.1"/>
	<line class="st3" x1="200.9" y1="216.6" x2="198.8" y2="213.3"/>
	<line class="st3" x1="202.9" y1="216.3" x2="200.9" y2="216.6"/>
	<line class="st3" x1="204.9" y1="219.6" x2="202.9" y2="216.3"/>
	<line class="st3" x1="206.9" y1="212.1" x2="204.9" y2="219.6"/>
	<line class="st3" x1="208.9" y1="203.9" x2="206.9" y2="212.1"/>
	<line class="st3" x1="210.9" y1="204.9" x2="208.9" y2="203.9"/>
	<line class="st3" x1="212.9" y1="206.6" x2="210.9" y2="204.9"/>
	<line class="st3" x1="214.9" y1="210.6" x2="212.9" y2="206.6"/>
	<line class="st3" x1="216.9" y1="212.1" x2="214.9" y2="210.6"/>
	<line class="st3" x1="218.9" y1="216.8" x2="216.9" y2="212.1"/>
	<line class="st3" x1="220.9" y1="227.3" x2="218.9" y2="216.8"/>
	<line class="st3" x1="222.9" y1="233.8" x2="220.9" y2="227.3"/>
	<line class="st3" x1="224.9" y1="232.5" x2="222.9" y2="233.8"/>
	<line class="st3" x1="227" y1="226.8" x2="224.9" y2="232.5"/>
	<line class="st3" x1="229" y1="226.3" x2="227" y2="226.8"/>
	<line class="st3" x1="231" y1="227" x2="229" y2="226.3"/>
	<line class="st3" x1="233" y1="225.8" x2="231" y2="227"/>
	<line class="st3" x1="235" y1="221.6" x2="233" y2="225.8"/>
	<line class="st3" x1="237" y1="220.1" x2="235" y2="221.6"/>
	<line class="st3" x1="239" y1="216.1" x2="237" y2="220.1"/>
	<line class="st3" x1="241" y1="216.8" x2="239" y2="216.1"/>
	<line class="st3" x1="243" y1="210.4" x2="241" y2="216.8"/>
	<line class="st3" x1="245" y1="210.6" x2="243" y2="210.4"/>
	<line class="st3" x1="247" y1="208.1" x2="245" y2="210.6"/>
	<line class="st3" x1="249" y1="209.6" x2="247" y2="208.1"/>
	<line class="st3" x1="251.1" y1="205.9" x2="249" y2="209.6"/>
	<line class="st3" x1="253.1" y1="206.9" x2="251.1" y2="205.9"/>
	<line class="st3" x1="255.1" y1="208.9" x2="253.1" y2="206.9"/>
	<line class="st3" x1="257.1" y1="218.6" x2="255.1" y2="208.9"/>
	<line class="st3" x1="259.1" y1="223.3" x2="257.1" y2="218.6"/>
	<line class="st3" x1="261.1" y1="228.5" x2="259.1" y2="223.3"/>
	<line class="st3" x1="263.1" y1="235.5" x2="261.1" y2="228.5"/>
	<line class="st3" x1="265.1" y1="242.5" x2="263.1" y2="235.5"/>
	<line class="st3" x1="267.1" y1="245.2" x2="265.1" y2="242.5"/>
	<line class="st3" x1="269.1" y1="245" x2="267.1" y2="245.2"/>
	<line class="st3" x1="271.1" y1="245" x2="269.1" y2="245"/>
	<line class="st3" x1="273.1" y1="245.7" x2="271.1" y2="245"/>
	<line class="st4" x1="28.1" y1="180.2" x2="26" y2="182.9"/>
	<line class="st4" x1="30.1" y1="171.9" x2="28.1" y2="180.2"/>
	<line class="st4" x1="32.1" y1="168.4" x2="30.1" y2="171.9"/>
	<line class="st4" x1="34.1" y1="169.4" x2="32.1" y2="168.4"/>
	<line class="st4" x1="36.1" y1="167.2" x2="34.1" y2="169.4"/>
	<line class="st4" x1="38.1" y1="174.2" x2="36.1" y2="167.2"/>
	<line class="st4" x1="40.1" y1="169.7" x2="38.1" y2="174.2"/>
	<line class="st4" x1="42.1" y1="169.9" x2="40.1" y2="169.7"/>
	<line class="st4" x1="44.1" y1="180.2" x2="42.1" y2="169.9"/>
	<line class="st4" x1="46.1" y1="181.9" x2="44.1" y2="180.2"/>
	<line class="st4" x1="48.1" y1="178.7" x2="46.1" y2="181.9"/>
	<line class="st4" x1="50.2" y1="176.9" x2="48.1" y2="178.7"/>
	<line class="st4" x1="52.2" y1="178.9" x2="50.2" y2="176.9"/>
	<line class="st4" x1="54.2" y1="184.6" x2="52.2" y2="178.9"/>
	<line class="st4" x1="56.2" y1="186.1" x2="54.2" y2="184.6"/>
	<line class="st4" x1="58.2" y1="183.4" x2="56.2" y2="186.1"/>
	<line class="st4" x1="60.2" y1="183.9" x2="58.2" y2="183.4"/>
	<line class="st4" x1="62.2" y1="190.9" x2="60.2" y2="183.9"/>
	<line class="st4" x1="64.2" y1="203.6" x2="62.2" y2="190.9"/>
	<line class="st4" x1="66.2" y1="202.1" x2="64.2" y2="203.6"/>
	<line class="st4" x1="68.2" y1="190.4" x2="66.2" y2="202.1"/>
	<line class="st4" x1="70.2" y1="176.4" x2="68.2" y2="190.4"/>
	<line class="st4" x1="72.2" y1="153.5" x2="70.2" y2="176.4"/>
	<line class="st4" x1="74.2" y1="133.1" x2="72.2" y2="153.5"/>
	<line class="st4" x1="76.2" y1="122.9" x2="74.2" y2="133.1"/>
	<line class="st4" x1="78.3" y1="113.9" x2="76.2" y2="122.9"/>
	<line class="st4" x1="80.3" y1="119.9" x2="78.3" y2="113.9"/>
	<line class="st4" x1="82.3" y1="131.6" x2="80.3" y2="119.9"/>
	<line class="st4" x1="84.3" y1="146.5" x2="82.3" y2="131.6"/>
	<line class="st4" x1="86.3" y1="163.7" x2="84.3" y2="146.5"/>
	<line class="st4" x1="88.3" y1="178.9" x2="86.3" y2="163.7"/>
	<line class="st4" x1="90.3" y1="183.9" x2="88.3" y2="178.9"/>
	<line class="st4" x1="92.3" y1="183.4" x2="90.3" y2="183.9"/>
	<line class="st4" x1="94.3" y1="185.1" x2="92.3" y2="183.4"/>
	<line class="st4" x1="96.3" y1="192.6" x2="94.3" y2="185.1"/>
	<line class="st4" x1="98.3" y1="193.3" x2="96.3" y2="192.6"/>
	<line class="st4" x1="100.3" y1="190.9" x2="98.3" y2="193.3"/>
	<line class="st4" x1="102.4" y1="191.1" x2="100.3" y2="190.9"/>
	<line class="st4" x1="104.4" y1="189.6" x2="102.4" y2="191.1"/>
	<line class="st4" x1="106.4" y1="195.3" x2="104.4" y2="189.6"/>
	<line class="st4" x1="108.4" y1="194.6" x2="106.4" y2="195.3"/>
	<line class="st4" x1="110.4" y1="194.1" x2="108.4" y2="194.6"/>
	<line class="st4" x1="112.4" y1="196.6" x2="110.4" y2="194.1"/>
	<line class="st4" x1="114.4" y1="210" x2="112.4" y2="196.6"/>
	<line class="st4" x1="116.4" y1="215" x2="114.4" y2="210"/>
	<line class="st4" x1="118.4" y1="221.2" x2="116.4" y2="215"/>
	<line class="st4" x1="120.4" y1="225.7" x2="118.4" y2="221.2"/>
	<line class="st4" x1="122.4" y1="224.7" x2="120.4" y2="225.7"/>
	<line class="st4" x1="124.4" y1="222.2" x2="122.4" y2="224.7"/>
	<line class="st4" x1="126.5" y1="222.2" x2="124.4" y2="222.2"/>
	<line class="st4" x1="128.5" y1="222" x2="126.5" y2="222.2"/>
	<line class="st4" x1="130.5" y1="219.5" x2="128.5" y2="222"/>
	<line class="st4" x1="132.5" y1="212.3" x2="130.5" y2="219.5"/>
	<line class="st4" x1="134.5" y1="219.8" x2="132.5" y2="212.3"/>
	<line class="st4" x1="136.5" y1="229.2" x2="134.5" y2="219.8"/>
	<line class="st4" x1="138.5" y1="238.7" x2="136.5" y2="229.2"/>
	<line class="st4" x1="140.5" y1="248.6" x2="138.5" y2="238.7"/>
	<line class="st4" x1="142.5" y1="256.1" x2="140.5" y2="248.6"/>
	<line class="st4" x1="144.5" y1="268.3" x2="142.5" y2="256.1"/>
	<line class="st4" x1="146.5" y1="281.5" x2="144.5" y2="268.3"/>
	<line class="st4" x1="148.5" y1="281.5" x2="146.5" y2="281.5"/>
	<line class="st4" x1="150.6" y1="281.5" x2="148.5" y2="281.5"/>
	<line class="st4" x1="152.6" y1="281.5" x2="150.6" y2="281.5"/>
	<line class="st4" x1="154.6" y1="278.3" x2="152.6" y2="281.5"/>
	<line class="st4" x1="156.6" y1="273.8" x2="154.6" y2="278.3"/>
	<line class="st4" x1="158.6" y1="267.3" x2="156.6" y2="273.8"/>
	<line class="st4" x1="160.6" y1="260.1" x2="158.6" y2="267.3"/>
	<line class="st4" x1="162.6" y1="255.4" x2="160.6" y2="260.1"/>
	<line class="st4" x1="164.6" y1="246.1" x2="162.6" y2="255.4"/>
	<line class="st4" x1="166.6" y1="238.7" x2="164.6" y2="246.1"/>
	<line class="st4" x1="168.6" y1="234.4" x2="166.6" y2="238.7"/>
	<line class="st4" x1="170.6" y1="234.9" x2="168.6" y2="234.4"/>
	<line class="st4" x1="172.6" y1="236.7" x2="170.6" y2="234.9"/>
	<line class="st4" x1="174.6" y1="237.7" x2="172.6" y2="236.7"/>
	<line class="st4" x1="176.7" y1="236.9" x2="174.6" y2="237.7"/>
	<line class="st4" x1="178.7" y1="236.9" x2="176.7" y2="236.9"/>
	<line class="st4" x1="180.7" y1="237.2" x2="178.7" y2="236.9"/>
	<line class="st4" x1="182.7" y1="234.9" x2="180.7" y2="237.2"/>
	<line class="st4" x1="184.7" y1="230" x2="182.7" y2="234.9"/>
	<line class="st4" x1="186.7" y1="226.2" x2="184.7" y2="230"/>
	<line class="st4" x1="188.7" y1="227" x2="186.7" y2="226.2"/>
	<line class="st4" x1="190.7" y1="226.7" x2="188.7" y2="227"/>
	<line class="st4" x1="192.7" y1="230.5" x2="190.7" y2="226.7"/>
	<line class="st4" x1="194.7" y1="230" x2="192.7" y2="230.5"/>
	<line class="st4" x1="196.7" y1="233.9" x2="194.7" y2="230"/>
	<line class="st4" x1="198.8" y1="233.9" x2="196.7" y2="233.9"/>
	<line class="st4" x1="200.8" y1="231.4" x2="198.8" y2="233.9"/>
	<line class="st4" x1="202.8" y1="228" x2="200.8" y2="231.4"/>
	<line class="st4" x1="204.8" y1="231.4" x2="202.8" y2="228"/>
	<line class="st4" x1="206.8" y1="232.9" x2="204.8" y2="231.4"/>
	<line class="st4" x1="208.8" y1="233.9" x2="206.8" y2="232.9"/>
	<line class="st4" x1="210.8" y1="231.7" x2="208.8" y2="233.9"/>
	<line class="st4" x1="212.8" y1="234.7" x2="210.8" y2="231.7"/>
	<line class="st4" x1="214.8" y1="240.4" x2="212.8" y2="234.7"/>
	<line class="st4" x1="216.8" y1="243.9" x2="214.8" y2="240.4"/>
	<line class="st4" x1="218.8" y1="238.9" x2="216.8" y2="243.9"/>
	<line class="st4" x1="220.8" y1="234.2" x2="218.8" y2="238.9"/>
	<line class="st4" x1="222.8" y1="231.2" x2="220.8" y2="234.2"/>
	<line class="st4" x1="224.9" y1="229.5" x2="222.8" y2="231.2"/>
	<line class="st4" x1="226.9" y1="226" x2="224.9" y2="229.5"/>
	<line class="st4" x1="228.9" y1="224.2" x2="226.9" y2="226"/>
	<line class="st4" x1="230.9" y1="223.2" x2="228.9" y2="224.2"/>
	<line class="st4" x1="232.9" y1="223.7" x2="230.9" y2="223.2"/>
	<line class="st4" x1="234.9" y1="226" x2="232.9" y2="223.7"/>
	<line class="st4" x1="236.9" y1="228.5" x2="234.9" y2="226"/>
	<line class="st4" x1="238.9" y1="230" x2="236.9" y2="228.5"/>
	<line class="st4" x1="240.9" y1="232.7" x2="238.9" y2="230"/>
	<line class="st4" x1="242.9" y1="233.2" x2="240.9" y2="232.7"/>
	<line class="st4" x1="244.9" y1="232.9" x2="242.9" y2="233.2"/>
	<line class="st4" x1="246.9" y1="231.2" x2="244.9" y2="232.9"/>
	<line class="st4" x1="248.9" y1="228.2" x2="246.9" y2="231.2"/>
	<line class="st4" x1="251" y1="227.2" x2="248.9" y2="228.2"/>
	<line class="st4" x1="253" y1="225.2" x2="251" y2="227.2"/>
	<line class="st4" x1="255" y1="222.5" x2="253" y2="225.2"/>
	<line class="st4" x1="257" y1="222.7" x2="255" y2="222.5"/>
	<line class="st4" x1="259" y1="225.5" x2="257" y2="222.7"/>
	<line class="st4" x1="261" y1="226.2" x2="259" y2="225.5"/>
	<line class="st4" x1="263" y1="231.7" x2="261" y2="226.2"/>
	<line class="st4" x1="265" y1="236.9" x2="263" y2="231.7"/>
	<line class="st4" x1="267" y1="242.7" x2="265" y2="236.9"/>
	<line class="st4" x1="269" y1="249.4" x2="267" y2="242.7"/>
	<line class="st4" x1="271" y1="251.1" x2="269" y2="249.4"/>
	<line class="st4" x1="273" y1="253.1" x2="271" y2="251.1"/>
	<line class="st5" x1="26.8" y1="281.6" x2="278.7" y2="281.6"/>
	<line class="st6" x1="325.3" y1="280.8" x2="574.3" y2="280.8"/>
	<line class="st6" x1="325.3" y1="218.5" x2="574.3" y2="218.5"/>
	<line class="st6" x1="325.3" y1="156.3" x2="574.3" y2="156.3"/>
	<line class="st6" x1="325.3" y1="94" x2="574.3" y2="94"/>
	<line class="st1" x1="480.2" y1="76.8" x2="480.2" y2="292.5"/>
	<line class="st7" x1="325.3" y1="280.8" x2="574.3" y2="280.8"/>
	<path d="M312.9,279.2v-0.4c0-2.3,1.2-3.8,3.1-3.8s3.1,1.5,3.1,3.8v0.4c0,2.3-1.1,3.8-3,3.8S312.9,281.5,312.9,279.2z M318.1,279.2
		v-0.4c0-1.8-0.8-3-2.1-3s-2.1,1.1-2.1,3v0.4c0,2,0.8,3,2.1,3S318.1,281.2,318.1,279.2L318.1,279.2z"/>
	<path d="M309.1,220.3v-0.7h1.6v-6.2l-1.8,1.3v-0.9l1.8-1.3h0.9v7.1h1.5v0.7L309.1,220.3z"/>
	<path d="M313.8,218.2h0.9c0,0.8,0.7,1.5,1.5,1.5c0.1,0,0.1,0,0.2,0c0.9,0,1.7-0.7,1.7-1.6c0-0.1,0-0.2,0-0.3
		c0.1-0.9-0.5-1.7-1.4-1.8c-0.1,0-0.1,0-0.2,0c-0.7-0.1-1.4,0.2-1.9,0.8h-0.4v-4.3h4.4v1.6h-0.9v-0.8H315v2.5c0.4-0.4,1-0.6,1.6-0.5
		c1.3,0,2.4,1,2.4,2.3c0,0.1,0,0.2,0,0.3c0.1,1.4-1.1,2.6-2.5,2.7c-0.1,0-0.2,0-0.2,0c-1.3,0.2-2.4-0.7-2.6-2
		C313.8,218.3,313.8,218.2,313.8,218.2z"/>
	<path d="M306.3,155.4h0.9c0,0.9,0.8,1.7,1.8,1.7h0.1c1.2,0,1.8-0.6,1.8-1.5s-0.5-1.5-1.7-1.5h-0.6v-0.8h0.5c1,0,1.5-0.5,1.5-1.4
		c0-0.7-0.5-1.3-1.2-1.3c-0.1,0-0.1,0-0.2,0c-0.9-0.1-1.7,0.6-1.7,1.5h-0.8c0.1-1.3,1.2-2.3,2.6-2.3c1.2-0.1,2.2,0.8,2.4,1.9v0.1
		c0,0.8-0.5,1.5-1.2,1.7c0.9,0.2,1.6,1,1.5,2c0,1.4-1.2,2.3-2.8,2.3c-1.4,0.1-2.6-0.9-2.7-2.3C306.3,155.5,306.3,155.4,306.3,155.4z
		"/>
	<path d="M312.9,154v-0.4c0-2.3,1.2-3.8,3.1-3.8s3.1,1.6,3.1,3.8v0.4c0,2.3-1.1,3.8-3,3.8S312.9,156.2,312.9,154z M318.1,154v-0.4
		c0-1.8-0.8-3-2.1-3s-2.1,1.1-2.1,3v0.4c0,2,0.8,3,2.1,3S318.1,155.9,318.1,154L318.1,154z"/>
	<path d="M309.8,95v-0.7h1.1v-1.1H307v-0.4l3.6-5.6h1.3v5.3h1.1v0.7h-1.1v1.1h1V95H309.8z M310.9,92.4v-4.5l-2.9,4.5H310.9z"/>
	<path d="M313.8,92.9h0.9c0,0.8,0.7,1.5,1.5,1.5c0.1,0,0.1,0,0.2,0c0.9,0,1.7-0.7,1.7-1.6c0-0.1,0-0.2,0-0.3
		c0.1-0.9-0.5-1.7-1.4-1.8c-0.1,0-0.1,0-0.2,0c-0.7-0.1-1.4,0.2-1.9,0.8h-0.4v-4.3h4.4v1.6h-0.9V88H315v2.5c0.4-0.4,1-0.6,1.6-0.5
		c1.3,0,2.4,1,2.4,2.3c0,0.1,0,0.2,0,0.3c0.1,1.4-1.1,2.6-2.5,2.7c-0.1,0-0.2,0-0.2,0c-1.3,0.2-2.4-0.7-2.6-2
		C313.8,93.1,313.8,93,313.8,92.9z"/>
	<line class="st3" x1="341.9" y1="165.9" x2="339.9" y2="166.7"/>
	<line class="st3" x1="344" y1="163.4" x2="341.9" y2="165.9"/>
	<line class="st3" x1="346" y1="164.6" x2="344" y2="163.4"/>
	<line class="st3" x1="348.1" y1="170.5" x2="346" y2="164.6"/>
	<line class="st3" x1="350.1" y1="183.4" x2="348.1" y2="170.5"/>
	<line class="st3" x1="352.2" y1="188.4" x2="350.1" y2="183.4"/>
	<line class="st3" x1="354.3" y1="186.3" x2="352.2" y2="188.4"/>
	<line class="st3" x1="356.3" y1="181.3" x2="354.3" y2="186.3"/>
	<line class="st3" x1="358.4" y1="186.7" x2="356.3" y2="181.3"/>
	<line class="st3" x1="360.4" y1="178" x2="358.4" y2="186.7"/>
	<line class="st3" x1="362.5" y1="172.1" x2="360.4" y2="178"/>
	<line class="st3" x1="364.5" y1="162.9" x2="362.5" y2="172.1"/>
	<line class="st3" x1="366.6" y1="137.5" x2="364.5" y2="162.9"/>
	<line class="st3" x1="368.6" y1="129.5" x2="366.6" y2="137.5"/>
	<line class="st3" x1="370.7" y1="135" x2="368.6" y2="129.5"/>
	<line class="st3" x1="372.7" y1="115.4" x2="370.7" y2="135"/>
	<line class="st3" x1="374.8" y1="120.4" x2="372.7" y2="115.4"/>
	<line class="st3" x1="376.8" y1="130.8" x2="374.8" y2="120.4"/>
	<line class="st3" x1="378.9" y1="141.6" x2="376.8" y2="130.8"/>
	<line class="st3" x1="381" y1="166.3" x2="378.9" y2="141.6"/>
	<line class="st3" x1="383" y1="171.7" x2="381" y2="166.3"/>
	<line class="st3" x1="385" y1="175.5" x2="383" y2="171.7"/>
	<line class="st3" x1="387.1" y1="194.3" x2="385" y2="175.5"/>
	<line class="st3" x1="389.2" y1="200.9" x2="387.1" y2="194.3"/>
	<line class="st3" x1="391.2" y1="193.8" x2="389.2" y2="200.9"/>
	<line class="st3" x1="393.3" y1="187.6" x2="391.2" y2="193.8"/>
	<line class="st3" x1="395.3" y1="182.1" x2="393.3" y2="187.6"/>
	<line class="st3" x1="397.4" y1="181.3" x2="395.3" y2="182.1"/>
	<line class="st3" x1="399.4" y1="170.9" x2="397.4" y2="181.3"/>
	<line class="st3" x1="401.5" y1="168.4" x2="399.4" y2="170.9"/>
	<line class="st3" x1="403.5" y1="167.5" x2="401.5" y2="168.4"/>
	<line class="st3" x1="405.6" y1="166.7" x2="403.5" y2="167.5"/>
	<line class="st3" x1="407.6" y1="174.6" x2="405.6" y2="166.7"/>
	<line class="st3" x1="409.7" y1="178.4" x2="407.6" y2="174.6"/>
	<line class="st3" x1="411.8" y1="182.6" x2="409.7" y2="178.4"/>
	<line class="st3" x1="413.8" y1="190.1" x2="411.8" y2="182.6"/>
	<line class="st3" x1="415.9" y1="193.8" x2="413.8" y2="190.1"/>
	<line class="st3" x1="417.9" y1="153.8" x2="415.9" y2="193.8"/>
	<line class="st3" x1="420" y1="108.7" x2="417.9" y2="153.8"/>
	<line class="st3" x1="422" y1="69" x2="420" y2="108.7"/>
	<line class="st3" x1="424.1" y1="44" x2="422" y2="69"/>
	<line class="st3" x1="426.1" y1="65.7" x2="424.1" y2="44"/>
	<line class="st3" x1="428.2" y1="61.9" x2="426.1" y2="65.7"/>
	<line class="st3" x1="430.2" y1="50.2" x2="428.2" y2="61.9"/>
	<line class="st3" x1="432.3" y1="38.5" x2="430.2" y2="50.2"/>
	<line class="st3" x1="434.3" y1="59" x2="432.3" y2="38.5"/>
	<line class="st3" x1="436.4" y1="69.4" x2="434.3" y2="59"/>
	<line class="st3" x1="438.4" y1="71.9" x2="436.4" y2="69.4"/>
	<line class="st3" x1="440.5" y1="59" x2="438.4" y2="71.9"/>
	<line class="st3" x1="442.5" y1="46.9" x2="440.5" y2="59"/>
	<line class="st3" x1="444.6" y1="62.7" x2="442.5" y2="46.9"/>
	<line class="st3" x1="446.6" y1="97" x2="444.6" y2="62.7"/>
	<line class="st3" x1="448.7" y1="102.8" x2="446.6" y2="97"/>
	<line class="st3" x1="450.8" y1="108.2" x2="448.7" y2="102.8"/>
	<line class="st3" x1="452.8" y1="125.4" x2="450.8" y2="108.2"/>
	<line class="st3" x1="454.9" y1="142.1" x2="452.8" y2="125.4"/>
	<line class="st3" x1="456.9" y1="174.6" x2="454.9" y2="142.1"/>
	<line class="st3" x1="459" y1="190.9" x2="456.9" y2="174.6"/>
	<line class="st3" x1="461" y1="190.1" x2="459" y2="190.9"/>
	<line class="st3" x1="463.1" y1="193.4" x2="461" y2="190.1"/>
	<line class="st3" x1="465.1" y1="193.8" x2="463.1" y2="193.4"/>
	<line class="st3" x1="467.2" y1="191.8" x2="465.1" y2="193.8"/>
	<line class="st3" x1="469.2" y1="190.1" x2="467.2" y2="191.8"/>
	<line class="st3" x1="471.3" y1="188" x2="469.2" y2="190.1"/>
	<line class="st3" x1="473.4" y1="191.3" x2="471.3" y2="188"/>
	<line class="st3" x1="475.4" y1="197.2" x2="473.4" y2="191.3"/>
	<line class="st3" x1="477.5" y1="198.8" x2="475.4" y2="197.2"/>
	<line class="st3" x1="479.5" y1="202.6" x2="477.5" y2="198.8"/>
	<line class="st3" x1="481.6" y1="201.8" x2="479.5" y2="202.6"/>
	<line class="st3" x1="483.6" y1="198.8" x2="481.6" y2="201.8"/>
	<line class="st3" x1="485.7" y1="190.1" x2="483.6" y2="198.8"/>
	<line class="st3" x1="487.7" y1="173" x2="485.7" y2="190.1"/>
	<line class="st3" x1="489.8" y1="150.4" x2="487.7" y2="173"/>
	<line class="st3" x1="491.8" y1="131.6" x2="489.8" y2="150.4"/>
	<line class="st3" x1="493.9" y1="114.1" x2="491.8" y2="131.6"/>
	<line class="st3" x1="495.9" y1="109.1" x2="493.9" y2="114.1"/>
	<line class="st3" x1="498" y1="102" x2="495.9" y2="109.1"/>
	<line class="st3" x1="500" y1="100.7" x2="498" y2="102"/>
	<line class="st3" x1="502.1" y1="99.1" x2="500" y2="100.7"/>
	<line class="st3" x1="504.1" y1="109.9" x2="502.1" y2="99.1"/>
	<line class="st3" x1="506.2" y1="118.3" x2="504.1" y2="109.9"/>
	<line class="st3" x1="508.2" y1="115.4" x2="506.2" y2="118.3"/>
	<line class="st3" x1="510.3" y1="98.2" x2="508.2" y2="115.4"/>
	<line class="st3" x1="512.4" y1="109.5" x2="510.3" y2="98.2"/>
	<line class="st3" x1="514.4" y1="127.5" x2="512.4" y2="109.5"/>
	<line class="st3" x1="516.5" y1="137.5" x2="514.4" y2="127.5"/>
	<line class="st3" x1="518.5" y1="147.9" x2="516.5" y2="137.5"/>
	<line class="st3" x1="520.6" y1="155.4" x2="518.5" y2="147.9"/>
	<line class="st3" x1="522.6" y1="173.8" x2="520.6" y2="155.4"/>
	<line class="st3" x1="524.7" y1="181.3" x2="522.6" y2="173.8"/>
	<line class="st3" x1="526.7" y1="183" x2="524.7" y2="181.3"/>
	<line class="st3" x1="528.8" y1="164.2" x2="526.7" y2="183"/>
	<line class="st3" x1="530.8" y1="152.9" x2="528.8" y2="164.2"/>
	<line class="st3" x1="532.9" y1="144.2" x2="530.8" y2="152.9"/>
	<line class="st3" x1="534.9" y1="144.2" x2="532.9" y2="144.2"/>
	<line class="st3" x1="537" y1="135.8" x2="534.9" y2="144.2"/>
	<line class="st3" x1="539" y1="132.9" x2="537" y2="135.8"/>
	<line class="st3" x1="541.1" y1="127.9" x2="539" y2="132.9"/>
	<line class="st3" x1="543.2" y1="138.3" x2="541.1" y2="127.9"/>
	<line class="st3" x1="545.2" y1="141.2" x2="543.2" y2="138.3"/>
	<line class="st3" x1="547.3" y1="144.2" x2="545.2" y2="141.2"/>
	<line class="st3" x1="549.3" y1="145" x2="547.3" y2="144.2"/>
	<line class="st3" x1="551.4" y1="144.2" x2="549.3" y2="145"/>
	<line class="st3" x1="553.4" y1="148.3" x2="551.4" y2="144.2"/>
	<line class="st3" x1="555.5" y1="146.2" x2="553.4" y2="148.3"/>
	<line class="st3" x1="557.5" y1="144.6" x2="555.5" y2="146.2"/>
	<line class="st3" x1="559.6" y1="152.5" x2="557.5" y2="144.6"/>
	<line class="st3" x1="561.6" y1="162.5" x2="559.6" y2="152.5"/>
	<line class="st3" x1="563.7" y1="162.5" x2="561.6" y2="162.5"/>
	<line class="st3" x1="565.7" y1="169.2" x2="563.7" y2="162.5"/>
	<line class="st3" x1="567.8" y1="173.8" x2="565.7" y2="169.2"/>
	<line class="st3" x1="569.8" y1="170.5" x2="567.8" y2="173.8"/>
	<line class="st3" x1="571.9" y1="162.5" x2="569.8" y2="170.5"/>
	<line class="st3" x1="574" y1="152.9" x2="571.9" y2="162.5"/>
	<line class="st3" x1="576" y1="148.8" x2="574" y2="152.9"/>
	<line class="st4" x1="330" y1="137.2" x2="328" y2="119.4"/>
	<line class="st4" x1="332" y1="146" x2="330" y2="137.2"/>
	<line class="st4" x1="334" y1="157.2" x2="332" y2="146"/>
	<line class="st4" x1="336.1" y1="157.2" x2="334" y2="157.2"/>
	<line class="st4" x1="338.1" y1="176.7" x2="336.1" y2="157.2"/>
	<line class="st4" x1="340.1" y1="180.1" x2="338.1" y2="176.7"/>
	<line class="st4" x1="342.1" y1="183.8" x2="340.1" y2="180.1"/>
	<line class="st4" x1="344.2" y1="185.5" x2="342.1" y2="183.8"/>
	<line class="st4" x1="346.2" y1="186.7" x2="344.2" y2="185.5"/>
	<line class="st4" x1="348.2" y1="184.6" x2="346.2" y2="186.7"/>
	<line class="st4" x1="350.3" y1="192.6" x2="348.2" y2="184.6"/>
	<line class="st4" x1="352.3" y1="200" x2="350.3" y2="192.6"/>
	<line class="st4" x1="354.3" y1="200.4" x2="352.3" y2="200"/>
	<line class="st4" x1="356.3" y1="190.5" x2="354.3" y2="200.4"/>
	<line class="st4" x1="358.4" y1="188.8" x2="356.3" y2="190.5"/>
	<line class="st4" x1="360.4" y1="188" x2="358.4" y2="188.8"/>
	<line class="st4" x1="362.4" y1="183.4" x2="360.4" y2="188"/>
	<line class="st4" x1="364.5" y1="170.9" x2="362.4" y2="183.4"/>
	<line class="st4" x1="366.5" y1="157.2" x2="364.5" y2="170.9"/>
	<line class="st4" x1="368.5" y1="153" x2="366.5" y2="157.2"/>
	<line class="st4" x1="370.5" y1="147.6" x2="368.5" y2="153"/>
	<line class="st4" x1="372.6" y1="115.6" x2="370.5" y2="147.6"/>
	<line class="st4" x1="374.6" y1="80.3" x2="372.6" y2="115.6"/>
	<line class="st4" x1="376.6" y1="60.3" x2="374.6" y2="80.3"/>
	<line class="st4" x1="378.7" y1="47.8" x2="376.6" y2="60.3"/>
	<line class="st4" x1="380.7" y1="67" x2="378.7" y2="47.8"/>
	<line class="st4" x1="382.7" y1="81.1" x2="380.7" y2="67"/>
	<line class="st4" x1="384.7" y1="95.2" x2="382.7" y2="81.1"/>
	<line class="st4" x1="386.8" y1="126.8" x2="384.7" y2="95.2"/>
	<line class="st4" x1="388.8" y1="170.1" x2="386.8" y2="126.8"/>
	<line class="st4" x1="390.8" y1="204.6" x2="388.8" y2="170.1"/>
	<line class="st4" x1="392.9" y1="201.3" x2="390.8" y2="204.6"/>
	<line class="st4" x1="394.9" y1="198.4" x2="392.9" y2="201.3"/>
	<line class="st4" x1="396.9" y1="203.8" x2="394.9" y2="198.4"/>
	<line class="st4" x1="398.9" y1="196.7" x2="396.9" y2="203.8"/>
	<line class="st4" x1="401" y1="187.6" x2="398.9" y2="196.7"/>
	<line class="st4" x1="403" y1="179.6" x2="401" y2="187.6"/>
	<line class="st4" x1="405" y1="175.9" x2="403" y2="179.6"/>
	<line class="st4" x1="407.1" y1="175.1" x2="405" y2="175.9"/>
	<line class="st4" x1="409.1" y1="177.6" x2="407.1" y2="175.1"/>
	<line class="st4" x1="411.1" y1="175.9" x2="409.1" y2="177.6"/>
	<line class="st4" x1="413.1" y1="183.4" x2="411.1" y2="175.9"/>
	<line class="st4" x1="415.2" y1="184.2" x2="413.1" y2="183.4"/>
	<line class="st4" x1="417.2" y1="181.3" x2="415.2" y2="184.2"/>
	<line class="st4" x1="419.2" y1="180.1" x2="417.2" y2="181.3"/>
	<line class="st4" x1="421.3" y1="185.1" x2="419.2" y2="180.1"/>
	<line class="st4" x1="423.3" y1="183.4" x2="421.3" y2="185.1"/>
	<line class="st4" x1="425.3" y1="184.6" x2="423.3" y2="183.4"/>
	<line class="st4" x1="427.3" y1="183.4" x2="425.3" y2="184.6"/>
	<line class="st4" x1="429.4" y1="187.1" x2="427.3" y2="183.4"/>
	<line class="st4" x1="431.4" y1="192.6" x2="429.4" y2="187.1"/>
	<line class="st4" x1="433.4" y1="194.6" x2="431.4" y2="192.6"/>
	<line class="st4" x1="435.5" y1="196.7" x2="433.4" y2="194.6"/>
	<line class="st4" x1="437.5" y1="197.1" x2="435.5" y2="196.7"/>
	<line class="st4" x1="439.5" y1="197.9" x2="437.5" y2="197.1"/>
	<line class="st4" x1="441.5" y1="200.4" x2="439.5" y2="197.9"/>
	<line class="st4" x1="443.6" y1="197.5" x2="441.5" y2="200.4"/>
	<line class="st4" x1="445.6" y1="188.8" x2="443.6" y2="197.5"/>
	<line class="st4" x1="447.6" y1="188" x2="445.6" y2="188.8"/>
	<line class="st4" x1="449.6" y1="187.1" x2="447.6" y2="188"/>
	<line class="st4" x1="451.7" y1="184.6" x2="449.6" y2="187.1"/>
	<line class="st4" x1="453.7" y1="182.1" x2="451.7" y2="184.6"/>
	<line class="st4" x1="455.7" y1="183" x2="453.7" y2="182.1"/>
	<line class="st4" x1="457.8" y1="189.2" x2="455.7" y2="183"/>
	<line class="st4" x1="459.8" y1="198.8" x2="457.8" y2="189.2"/>
	<line class="st4" x1="461.8" y1="194.6" x2="459.8" y2="198.8"/>
	<line class="st4" x1="463.9" y1="189.2" x2="461.8" y2="194.6"/>
	<line class="st4" x1="465.9" y1="193.4" x2="463.9" y2="189.2"/>
	<line class="st4" x1="467.9" y1="197.1" x2="465.9" y2="193.4"/>
	<line class="st4" x1="469.9" y1="195.5" x2="467.9" y2="197.1"/>
	<line class="st4" x1="472" y1="191.3" x2="469.9" y2="195.5"/>
	<line class="st4" x1="474" y1="192.1" x2="472" y2="191.3"/>
	<line class="st4" x1="476" y1="191.7" x2="474" y2="192.1"/>
	<line class="st4" x1="478" y1="191.3" x2="476" y2="191.7"/>
	<line class="st4" x1="480.1" y1="179.6" x2="478" y2="191.3"/>
	<line class="st4" x1="482.1" y1="172.6" x2="480.1" y2="179.6"/>
	<line class="st4" x1="484.1" y1="165.9" x2="482.1" y2="172.6"/>
	<line class="st4" x1="486.2" y1="158" x2="484.1" y2="165.9"/>
	<line class="st4" x1="488.2" y1="163" x2="486.2" y2="158"/>
	<line class="st4" x1="490.2" y1="166.8" x2="488.2" y2="163"/>
	<line class="st4" x1="492.2" y1="172.6" x2="490.2" y2="166.8"/>
	<line class="st4" x1="494.3" y1="185.5" x2="492.2" y2="172.6"/>
	<line class="st4" x1="496.3" y1="190.5" x2="494.3" y2="185.5"/>
	<line class="st4" x1="498.3" y1="194.6" x2="496.3" y2="190.5"/>
	<line class="st4" x1="500.4" y1="197.1" x2="498.3" y2="194.6"/>
	<line class="st4" x1="502.4" y1="165.9" x2="500.4" y2="197.1"/>
	<line class="st4" x1="504.4" y1="161.4" x2="502.4" y2="165.9"/>
	<line class="st4" x1="506.5" y1="161.8" x2="504.4" y2="161.4"/>
	<line class="st4" x1="508.5" y1="159.7" x2="506.5" y2="161.8"/>
	<line class="st4" x1="510.5" y1="159.7" x2="508.5" y2="159.7"/>
	<line class="st4" x1="512.5" y1="162.6" x2="510.5" y2="159.7"/>
	<line class="st4" x1="514.6" y1="173.8" x2="512.5" y2="162.6"/>
	<line class="st4" x1="516.6" y1="200.9" x2="514.6" y2="173.8"/>
	<line class="st4" x1="518.6" y1="204.2" x2="516.6" y2="200.9"/>
	<line class="st4" x1="520.7" y1="200.4" x2="518.6" y2="204.2"/>
	<line class="st4" x1="522.7" y1="195.5" x2="520.7" y2="200.4"/>
	<line class="st4" x1="524.7" y1="193.8" x2="522.7" y2="195.5"/>
	<line class="st4" x1="526.7" y1="183.8" x2="524.7" y2="193.8"/>
	<line class="st4" x1="528.8" y1="174.7" x2="526.7" y2="183.8"/>
	<line class="st4" x1="530.8" y1="168.8" x2="528.8" y2="174.7"/>
	<line class="st4" x1="532.8" y1="164.7" x2="530.8" y2="168.8"/>
	<line class="st4" x1="534.8" y1="165.1" x2="532.8" y2="164.7"/>
	<line class="st4" x1="536.9" y1="164.3" x2="534.8" y2="165.1"/>
	<line class="st4" x1="538.9" y1="163" x2="536.9" y2="164.3"/>
	<line class="st4" x1="540.9" y1="167.2" x2="538.9" y2="163"/>
	<line class="st4" x1="543" y1="175.5" x2="540.9" y2="167.2"/>
	<line class="st4" x1="545" y1="178" x2="543" y2="175.5"/>
	<line class="st4" x1="547" y1="153.5" x2="545" y2="178"/>
	<line class="st4" x1="549" y1="147.6" x2="547" y2="153.5"/>
	<line class="st4" x1="551.1" y1="158.4" x2="549" y2="147.6"/>
	<line class="st4" x1="553.1" y1="163" x2="551.1" y2="158.4"/>
	<line class="st4" x1="555.1" y1="164.7" x2="553.1" y2="163"/>
	<line class="st4" x1="557.2" y1="163" x2="555.1" y2="164.7"/>
	<line class="st4" x1="559.2" y1="166.4" x2="557.2" y2="163"/>
	<line class="st4" x1="561.2" y1="173" x2="559.2" y2="166.4"/>
	<line class="st4" x1="563.2" y1="179.6" x2="561.2" y2="173"/>
	<line class="st4" x1="565.3" y1="186.3" x2="563.2" y2="179.6"/>
	<line class="st4" x1="567.3" y1="195.9" x2="565.3" y2="186.3"/>
	<line class="st4" x1="569.3" y1="199.6" x2="567.3" y2="195.9"/>
	<line class="st4" x1="571.4" y1="212.9" x2="569.3" y2="199.6"/>
	<line class="st4" x1="573.4" y1="220.8" x2="571.4" y2="212.9"/>
	<line class="st4" x1="575.4" y1="227.9" x2="573.4" y2="220.8"/>
</g>
<g id="Calque_1_1_">
	<rect x="78.2" y="142.8" class="st8" width="38.2" height="20.7"/>
	<path class="st9" d="M80.8,157.4c4.8-6.5,4.9-6.6,4.9-7.7v-0.9c0-1-0.4-1.4-1.3-1.4S83,148,83,149.2v0.9h-2.3V149
		c0-2.7,1.1-4,3.7-4s3.6,1,3.6,3.4v0.8c0,1.7-0.2,2.2-4.2,8.1h4.3v2.5h-7.3C80.8,159.8,80.8,157.4,80.8,157.4z"/>
	<path class="st9" d="M93,159.9c-2.7,0-3.8-1.5-3.8-4.5v-5.9c0-3,1.1-4.5,3.8-4.5s3.8,1.4,3.8,4.5v5.9
		C96.8,158.4,95.6,159.9,93,159.9z M93,147.6c-1,0-1.4,0.5-1.4,2.3v5.3c0,1.8,0.4,2.3,1.4,2.3s1.4-0.5,1.4-2.3v-5.3
		C94.4,148,94,147.6,93,147.6z"/>
	<path class="st9" d="M98,157.4c4.8-6.5,4.9-6.6,4.9-7.7v-0.9c0-1-0.4-1.4-1.3-1.4s-1.4,0.5-1.4,1.8v0.9h-2.4V149c0-2.7,1.1-4,3.7-4
		s3.6,1,3.6,3.4v0.8c0,1.7-0.2,2.2-4.2,8.1h4.3v2.5H98V157.4z"/>
	<path class="st9" d="M110.2,159.9c-2.7,0-3.8-1.5-3.8-4.5v-5.9c0-3,1.1-4.5,3.8-4.5s3.8,1.4,3.8,4.5v5.9
		C114,158.4,112.8,159.9,110.2,159.9z M110.2,147.6c-1,0-1.4,0.5-1.4,2.3v5.3c0,1.8,0.5,2.3,1.4,2.3s1.4-0.5,1.4-2.3v-5.3
		C111.6,148,111.2,147.6,110.2,147.6z"/>
	<rect x="135.6" y="182.8" class="st10" width="38.2" height="20.7"/>
	<path class="st9" d="M139.7,197.5c4.8-6.5,4.9-6.6,4.9-7.7v-0.9c0-1-0.4-1.4-1.3-1.4s-1.4,0.5-1.4,1.8v0.9h-2.3v-1.1
		c0-2.7,1.1-4,3.7-4s3.6,1,3.6,3.4v0.8c0,1.7-0.2,2.2-4.2,8h4.3v2.5h-7.3V197.5z"/>
	<path class="st9" d="M151.9,200c-2.6,0-3.8-1.5-3.8-4.5v-5.9c0-3,1.1-4.5,3.8-4.5s3.8,1.5,3.8,4.5v5.9
		C155.7,198.5,154.5,200,151.9,200z M151.9,187.6c-1,0-1.4,0.5-1.4,2.3v5.3c0,1.8,0.5,2.3,1.4,2.3s1.4-0.5,1.4-2.3v-5.3
		C153.4,188.1,152.9,187.6,151.9,187.6L151.9,187.6z"/>
	<path class="st9" d="M158.6,199.9v-11.5l-1.8,0.9v-2.6l2.9-1.5h1.2v14.7L158.6,199.9L158.6,199.9z"/>
	<path class="st9" d="M162.3,196.4v-1.1h2.3v0.8c0,1.2,0.4,1.7,1.4,1.7s1.4-0.5,1.4-2.2v-4.1c0,2.2-0.7,3.2-2.4,3.2
		c-2,0-2.8-1.1-2.8-3.5v-2.3c0-2.6,1.2-3.7,3.7-3.7c2.7,0,3.8,1.2,3.8,4.1v6.7c0,2.7-1.1,4.1-3.8,4.1
		C163.4,200,162.3,198.8,162.3,196.4z M167.3,191.1v-1.9c0-1.2-0.4-1.6-1.4-1.6s-1.4,0.4-1.4,1.6v1.9c0,1.2,0.5,1.6,1.4,1.6
		S167.3,192.2,167.3,191.1L167.3,191.1z"/>
	<rect x="127.2" y="98.8" class="st9" width="103.1" height="31.5"/>
	<path d="M161.9,102.8h3.2c0.6,0,1.2,0.1,1.7,0.3c0.5,0.2,0.9,0.5,1.3,0.9c0.4,0.4,0.7,0.9,0.8,1.4c0.2,0.6,0.3,1.2,0.3,1.8
		c0,0.6-0.1,1.2-0.3,1.8c-0.2,0.5-0.5,1-0.8,1.4c-0.4,0.4-0.8,0.7-1.3,0.9c-0.5,0.2-1.1,0.3-1.7,0.3h-3.2V102.8z M165.1,110.5
		c0.4,0,0.8-0.1,1.1-0.2c0.3-0.2,0.6-0.4,0.9-0.7c0.2-0.3,0.4-0.6,0.6-1c0.3-0.9,0.3-1.8,0-2.7c-0.1-0.4-0.3-0.7-0.6-1
		c-0.5-0.6-1.2-0.9-2-0.9h-1.9v6.6L165.1,110.5z"/>
	<path d="M176.5,109.5c0,0.3-0.1,0.6-0.2,0.9c-0.1,0.3-0.3,0.5-0.6,0.7s-0.5,0.4-0.9,0.5s-0.7,0.2-1.1,0.2c-0.5,0-0.9-0.1-1.4-0.2
		c-0.4-0.1-0.7-0.4-0.9-0.7c-0.3-0.3-0.4-0.7-0.5-1.1c-0.2-0.9-0.2-1.8,0-2.7c0.1-0.4,0.3-0.7,0.6-1.1c0.3-0.3,0.6-0.5,0.9-0.7
		c0.4-0.2,0.9-0.3,1.3-0.2c0.4,0,0.9,0.1,1.3,0.2c0.3,0.1,0.6,0.4,0.9,0.7c0.2,0.3,0.4,0.7,0.5,1.1c0.1,0.5,0.2,0.9,0.1,1.4v0.2H172
		c0,0.6,0.1,1.1,0.5,1.6c0.3,0.3,0.7,0.5,1.2,0.5c0.4,0,0.8-0.1,1.1-0.3c0.3-0.3,0.5-0.6,0.5-1H176.5z M175.3,107.9
		c0-0.4-0.1-0.9-0.4-1.2c-0.3-0.3-0.7-0.5-1.1-0.5c-0.4,0-0.8,0.1-1.2,0.4c-0.3,0.3-0.5,0.8-0.6,1.3
		C172,107.9,175.3,107.9,175.3,107.9z M174.4,102.9h1.6l-1.8,1.7h-1L174.4,102.9z"/>
	<path d="M178.3,102.8h1.3v3.5l0,0c0.2-0.3,0.5-0.6,0.8-0.8c0.4-0.2,0.8-0.3,1.3-0.3c0.4,0,0.8,0.1,1.2,0.2c0.3,0.2,0.6,0.4,0.9,0.7
		c0.2,0.3,0.4,0.7,0.5,1.1s0.2,0.9,0.2,1.3c0,0.5-0.1,0.9-0.2,1.4c-0.1,0.4-0.3,0.7-0.5,1.1c-0.2,0.3-0.5,0.5-0.9,0.7
		s-0.8,0.2-1.2,0.2s-0.9-0.1-1.2-0.3c-0.3-0.2-0.6-0.5-0.8-0.8l0,0v1h-1.3v-9H178.3z M181.3,110.8c0.5,0,1-0.2,1.3-0.6
		c0.4-0.5,0.5-1.1,0.5-1.8c0-0.6-0.1-1.2-0.5-1.7c-0.3-0.4-0.8-0.6-1.3-0.6s-1,0.2-1.3,0.6c-0.3,0.5-0.4,1.1-0.4,1.7
		s0.1,1.2,0.4,1.7C180.3,110.6,180.8,110.9,181.3,110.8L181.3,110.8z"/>
	<path d="M186.1,105.3h1.3v3.9c0,0.4,0.1,0.8,0.3,1.2c0.2,0.3,0.6,0.4,0.9,0.4c0.4,0,0.9-0.2,1.2-0.5c0.3-0.4,0.5-0.8,0.4-1.3v-3.7
		h1.3v6.4h-1.3v-1l0,0c-0.2,0.3-0.5,0.6-0.8,0.8c-0.4,0.2-0.8,0.3-1.2,0.3c-0.6,0.1-1.2-0.2-1.6-0.6c-0.3-0.5-0.5-1.1-0.5-1.7
		L186.1,105.3z"/>
	<path d="M193.6,106.3h-0.9v-1.1h0.9v-1.6h1.3v1.6h1.5v1.1h-1.5v3.4c0,0.3,0.1,0.5,0.2,0.7c0.2,0.2,0.4,0.2,0.7,0.2h0.3h0.3v1.1
		l-0.4,0.1c-0.2,0-0.3,0-0.5,0c-1,0.1-1.9-0.5-2-1.5c0-0.2,0-0.3,0-0.5L193.6,106.3z"/>
	<path d="M137.4,122.6L137.4,122.6c-0.2,0.3-0.5,0.6-0.8,0.8c-0.4,0.2-0.8,0.3-1.3,0.3c-0.4,0-0.8-0.1-1.2-0.2
		c-0.3-0.2-0.6-0.4-0.9-0.7c-0.2-0.3-0.4-0.7-0.5-1.1s-0.2-0.9-0.2-1.3c0-0.5,0.1-0.9,0.2-1.4c0.1-0.4,0.3-0.7,0.5-1.1
		c0.2-0.3,0.5-0.5,0.9-0.7s0.8-0.3,1.2-0.2c0.4,0,0.9,0.1,1.3,0.3c0.3,0.2,0.6,0.5,0.8,0.8l0,0v-3.5h1.3v8.9h-1.3V122.6z
		 M135.7,122.8c0.5,0,1-0.2,1.3-0.6c0.3-0.5,0.5-1.1,0.4-1.8c0-0.6-0.1-1.2-0.4-1.7c-0.3-0.4-0.8-0.7-1.3-0.6c-0.5,0-1,0.2-1.3,0.6
		c-0.4,0.5-0.5,1.1-0.5,1.8c0,0.6,0.1,1.2,0.5,1.7C134.7,122.6,135.2,122.9,135.7,122.8L135.7,122.8z"/>
	<path d="M140.8,117.3h1.3v3.9c0,0.4,0.1,0.8,0.3,1.2c0.2,0.3,0.6,0.4,0.9,0.4c0.4,0,0.9-0.2,1.2-0.5c0.3-0.4,0.5-0.8,0.4-1.3v-3.7
		h1.3v6.4h-1.3v-1l0,0c-0.2,0.3-0.5,0.6-0.8,0.8c-0.4,0.2-0.8,0.3-1.2,0.3c-0.6,0.1-1.2-0.2-1.6-0.6c-0.3-0.5-0.5-1.1-0.5-1.7
		L140.8,117.3z"/>
	<path d="M157.2,121.3c0,0.7-0.3,1.4-0.8,1.9c-0.6,0.4-1.3,0.7-2,0.6c-0.5,0-0.9-0.1-1.3-0.2c-0.4-0.1-0.7-0.4-0.9-0.7
		c-0.3-0.3-0.4-0.7-0.6-1.1c-0.3-0.9-0.3-1.8,0-2.7c0.1-0.4,0.3-0.7,0.6-1.1c0.3-0.3,0.6-0.5,1-0.7s0.9-0.3,1.3-0.2
		c0.7,0,1.4,0.2,2,0.6c0.5,0.5,0.8,1.2,0.8,1.9H156c0-0.4-0.2-0.8-0.5-1.1c-0.7-0.6-1.7-0.5-2.3,0.2c-0.3,0.5-0.5,1.1-0.4,1.7
		c0,0.6,0.1,1.2,0.4,1.7c0.3,0.4,0.8,0.6,1.3,0.6c0.4,0,0.8-0.1,1.1-0.4s0.4-0.7,0.5-1.1L157.2,121.3z"/>
	<path d="M161.8,123.8c-0.5,0-0.9-0.1-1.3-0.2c-0.4-0.1-0.7-0.4-1-0.7c-0.3-0.3-0.5-0.7-0.6-1.1c-0.2-0.4-0.2-0.9-0.2-1.4
		s0.1-0.9,0.2-1.4c0.1-0.4,0.4-0.7,0.6-1.1c0.3-0.3,0.6-0.5,1-0.7s0.9-0.2,1.3-0.2c0.5,0,0.9,0.1,1.3,0.2c0.8,0.3,1.4,0.9,1.7,1.7
		c0.2,0.4,0.2,0.9,0.2,1.4s-0.1,0.9-0.2,1.4c-0.1,0.4-0.4,0.7-0.6,1.1c-0.3,0.3-0.6,0.5-1,0.7C162.7,123.7,162.2,123.8,161.8,123.8z
		 M161.8,122.8c0.5,0,1.1-0.2,1.4-0.6c0.4-0.5,0.5-1.1,0.5-1.7s-0.1-1.2-0.5-1.7c-0.7-0.8-1.9-0.8-2.7-0.2c-0.1,0-0.1,0.1-0.2,0.2
		c-0.4,0.5-0.5,1.1-0.5,1.7s0.1,1.2,0.5,1.7C160.7,122.6,161.2,122.8,161.8,122.8z"/>
	<path d="M166.7,117.3h1.3v1l0,0c0.2-0.3,0.5-0.6,0.8-0.8c0.4-0.2,0.8-0.3,1.3-0.3c0.6-0.1,1.2,0.2,1.6,0.6c0.3,0.5,0.5,1.1,0.5,1.7
		v4.2h-1.3v-3.8c0-0.4-0.1-0.8-0.3-1.2c-0.2-0.3-0.6-0.5-1-0.4c-0.5,0-0.9,0.2-1.2,0.5c-0.3,0.4-0.5,0.8-0.5,1.3v3.7h-1.3
		L166.7,117.3z"/>
	<path d="M174.4,118.4h-0.9v-1.1h0.9v-0.6c-0.1-0.6,0.1-1.1,0.5-1.6c0.4-0.3,0.9-0.5,1.4-0.5h0.4l0.4,0.1v1.1c-0.1,0-0.2,0-0.3,0
		h-0.3c-0.2,0-0.5,0.1-0.7,0.2c-0.2,0.2-0.2,0.4-0.2,0.7v0.6h1.4v1.1h-1.4v5.4h-1.3v-5.4H174.4z"/>
	<path d="M179,116.1c-0.2,0-0.4-0.1-0.6-0.2c-0.1-0.2-0.2-0.4-0.2-0.6s0.1-0.4,0.2-0.6c0.3-0.3,0.8-0.3,1.2,0
		c0.2,0.2,0.3,0.4,0.2,0.6c0,0.2-0.1,0.4-0.2,0.6C179.4,116.1,179.2,116.1,179,116.1z M178.4,117.3h1.3v6.4h-1.3V117.3z"/>
	<path d="M181.7,117.3h1.3v1l0,0c0.4-0.8,1.2-1.2,2.1-1.1c0.6-0.1,1.2,0.2,1.6,0.6c0.3,0.5,0.5,1.1,0.5,1.7v4.2h-1.3v-3.8
		c0-0.4-0.1-0.8-0.3-1.2c-0.2-0.3-0.6-0.4-1-0.4c-0.5,0-0.9,0.2-1.2,0.5c-0.3,0.4-0.5,0.8-0.4,1.3v3.7h-1.3L181.7,117.3z"/>
	<path d="M194.7,121.5c0,0.3-0.1,0.6-0.2,0.9c-0.1,0.3-0.3,0.5-0.6,0.7s-0.5,0.4-0.9,0.5s-0.7,0.2-1.1,0.2c-0.5,0-0.9-0.1-1.4-0.2
		c-0.4-0.1-0.7-0.4-0.9-0.7c-0.3-0.3-0.5-0.6-0.6-1s-0.2-0.9-0.2-1.4s0.1-0.9,0.2-1.4c0.1-0.4,0.3-0.7,0.6-1.1
		c0.3-0.3,0.6-0.5,0.9-0.7c0.8-0.3,1.8-0.3,2.6,0c0.3,0.1,0.6,0.4,0.9,0.7c0.2,0.3,0.4,0.7,0.5,1.1c0.1,0.5,0.2,0.9,0.2,1.4v0.2
		h-4.5c0,0.6,0.1,1.1,0.5,1.6c0.3,0.3,0.7,0.5,1.2,0.5c0.4,0,0.8-0.1,1.1-0.3c0.3-0.2,0.5-0.6,0.5-1L194.7,121.5z M193.4,119.9
		c0-0.4-0.1-0.9-0.4-1.2c-0.3-0.3-0.7-0.5-1.1-0.5c-0.4,0-0.8,0.1-1.2,0.4c-0.3,0.3-0.5,0.8-0.5,1.3
		C190.2,119.9,193.4,119.9,193.4,119.9z"/>
	<path d="M196.5,117.3h1.3v1l0,0c0.2-0.3,0.4-0.6,0.7-0.8c0.3-0.2,0.7-0.3,1.1-0.3c0.4,0,0.8,0.1,1.2,0.3c0.3,0.2,0.5,0.5,0.6,0.9
		l0,0c0.2-0.4,0.5-0.7,0.8-0.9c0.4-0.2,0.8-0.3,1.2-0.3c0.6-0.1,1.1,0.2,1.5,0.6c0.4,0.5,0.5,1.1,0.5,1.7v4.2h-1.3v-3.8
		c0-0.4-0.1-0.8-0.3-1.2c-0.2-0.3-0.5-0.4-0.9-0.4s-0.8,0.1-1.1,0.4s-0.4,0.8-0.4,1.2v3.8h-1.3v-3.8c0-0.4-0.1-0.8-0.2-1.2
		c-0.2-0.3-0.5-0.4-0.9-0.4s-0.8,0.2-1.1,0.5c-0.3,0.4-0.4,0.8-0.4,1.3v3.7h-1.3L196.5,117.3z"/>
	<path d="M213,121.5c0,0.3-0.1,0.6-0.2,0.9c-0.1,0.3-0.3,0.5-0.6,0.7s-0.5,0.4-0.9,0.5s-0.7,0.2-1.1,0.2c-0.5,0-0.9-0.1-1.4-0.2
		c-0.4-0.1-0.7-0.4-0.9-0.7c-0.3-0.3-0.4-0.7-0.5-1.1s-0.2-0.9-0.2-1.4s0.1-0.9,0.2-1.4c0.1-0.4,0.3-0.7,0.6-1.1
		c0.3-0.3,0.6-0.5,0.9-0.7c0.8-0.3,1.8-0.3,2.6,0c0.3,0.1,0.6,0.4,0.9,0.7c0.2,0.3,0.4,0.7,0.5,1.1c0.1,0.5,0.2,0.9,0.1,1.4v0.2
		h-4.5c0,0.6,0.1,1.1,0.5,1.6c0.3,0.3,0.7,0.5,1.2,0.5c0.4,0,0.8-0.1,1.1-0.3c0.3-0.2,0.5-0.6,0.5-1L213,121.5z M211.7,119.9
		c0-0.4-0.1-0.9-0.4-1.2c-0.3-0.3-0.7-0.5-1.1-0.5c-0.4,0-0.8,0.1-1.1,0.4s-0.5,0.8-0.5,1.3C208.6,119.9,211.7,119.9,211.7,119.9z"
		/>
	<path d="M214.8,117.3h1.3v1l0,0c0.2-0.3,0.5-0.6,0.8-0.8c0.4-0.2,0.8-0.3,1.3-0.3c0.6-0.1,1.2,0.2,1.6,0.6c0.3,0.5,0.5,1.1,0.5,1.7
		v4.2H219v-3.8c0-0.4-0.1-0.8-0.3-1.2c-0.2-0.3-0.6-0.4-1-0.4c-0.5,0-0.9,0.2-1.2,0.5s-0.5,0.8-0.5,1.3v3.7h-1.2V117.3z"/>
	<path d="M222.4,118.3h-0.9v-1.1h0.9v-1.6h1.3v1.6h1.5v1.1h-1.5v3.4c0,0.3,0.1,0.5,0.2,0.7c0.2,0.2,0.4,0.2,0.7,0.2h0.3h0.3v1.1
		l-0.4,0.1c-0.1,0-0.3,0-0.4,0c-0.5,0-1-0.1-1.4-0.5s-0.6-1-0.5-1.6v-3.4H222.4z"/>
</g>
</svg>
