<svg xmlns="http://www.w3.org/2000/svg" viewBox="0 0 600 486"><defs><style>.cls-1{fill:#fff;}.cls-2,.cls-3,.cls-4,.cls-5,.cls-6{fill:none;}.cls-2{stroke:gray;}.cls-2,.cls-3,.cls-4{stroke-miterlimit:10;}.cls-2,.cls-4{stroke-width:0.5px;}.cls-3,.cls-4{stroke:#000;}.cls-3{stroke-width:2px;}.cls-4{stroke-dasharray:5 2;}.cls-5{stroke:#c6c6c6;}.cls-5,.cls-6{stroke-linecap:round;stroke-linejoin:round;stroke-width:3px;}.cls-6{stroke:#e3234a;}.cls-7{fill:#e3234a;}.cls-8{fill:#c6c6c6;}</style></defs><title>LIB-2020-05-07-violences-conjugales</title><g id="FOND"><rect id="Fond_blanc" data-name="Fond blanc" class="cls-1" y="-87.96" width="600" height="600"/></g><g id="Calque_1" data-name="Calque 1"><path class="cls-2" d="M43.48,22.07H594M43.48,89.61H594M43.48,156.89H594M43.48,224.62H594M43.48,291.9H594M43.48,359.62H594"/><line class="cls-3" x1="43.48" y1="427.05" x2="594" y2="427.05"/><path d="M63.06,454.8h1V448h-1v-1.62h4.28c3.52,0,5.27,1.9,5.27,4.9v.11c0,3-1.75,5-5.27,5H63.06Zm4.2-.14c2,0,3-1.14,3-3.21v-.11c0-2.06-.9-3.17-3-3.17h-.89v6.49Z"/><path d="M76.51,456.59c-1.37,0-2.41-.84-2.41-2.8V450.6h-.77v-1.5h2.8v4.4c0,1,.41,1.44,1.25,1.44a1.43,1.43,0,0,0,1.44-1.61V450.6H78v-1.5h2.83V455h.8v1.44H78.82V455.2A2.51,2.51,0,0,1,76.51,456.59Z"/><path d="M90.81,453.58h1.76v2.84H85V455.2l3.52-3.32c1.19-1.09,1.58-1.76,1.58-2.57a1.2,1.2,0,0,0-1.3-1.31c-.87,0-1.43.52-1.6,1.84H85.16a3.45,3.45,0,0,1,3.74-3.57c2.23,0,3.49,1.15,3.49,2.91,0,1.36-.83,2.4-2.06,3.5l-2.41,2.16h2.89Z"/><path d="M72.39,470.58A2.14,2.14,0,0,1,70,468.39c0-1.75,1.57-2.35,3.78-2.35h.81v-.3c0-.91-.29-1.34-1.17-1.34a1.06,1.06,0,0,0-1.21,1H70.24c.12-1.77,1.48-2.51,3.25-2.51s3.06.69,3.06,2.72V469h.77v1.44H74.59v-.95A2.38,2.38,0,0,1,72.39,470.58Zm2.15-2.73v-.59h-.77c-1.16,0-1.82.28-1.82,1,0,.49.28.87,1,.87S74.54,468.69,74.54,467.85Z"/><path d="M80.84,470.59c-1.37,0-2.41-.84-2.41-2.8V464.6h-.77v-1.5h2.81v4.4c0,1,.4,1.44,1.24,1.44a1.43,1.43,0,0,0,1.45-1.61V464.6h-.8v-1.5h2.83V469H86v1.44H83.16V469.2A2.54,2.54,0,0,1,80.84,470.59Z"/><path d="M55.54,481.59a2.55,2.55,0,0,1,1.85-2.5A2.15,2.15,0,0,1,56,477c0-1.72,1.65-2.73,3.53-2.73S63,475.28,63,477a2.2,2.2,0,0,1-1.46,2.09,2.49,2.49,0,0,1,1.83,2.47c0,2-1.68,3-3.9,3S55.54,483.55,55.54,481.59Zm5.59-.22a1.49,1.49,0,0,0-1.65-1.53,1.55,1.55,0,1,0,0,3.08A1.51,1.51,0,0,0,61.13,481.37Zm-.22-4.23a1.42,1.42,0,1,0-1.42,1.32A1.29,1.29,0,0,0,60.91,477.14Z"/><path d="M67,484.42V483h.8V478.6h-.81v-1.5h2.83v1.22a2.39,2.39,0,0,1,2.2-1.39,2,2,0,0,1,2,1.39,2.72,2.72,0,0,1,2.39-1.39c1.33,0,2.37.85,2.37,2.8V483h.8v1.44H76V483h.77V479.9c0-.94-.39-1.37-1.11-1.37A1.36,1.36,0,0,0,74.25,480V483H75v1.44H71.46V483h.79V479.9c0-.94-.41-1.37-1.12-1.37A1.36,1.36,0,0,0,69.77,480V483h.77v1.44Z"/><path d="M82.61,484.58a2.14,2.14,0,0,1-2.44-2.19c0-1.75,1.57-2.35,3.78-2.35h.81v-.3c0-.91-.29-1.34-1.17-1.34a1.06,1.06,0,0,0-1.21,1H80.46c.12-1.77,1.48-2.51,3.25-2.51s3.06.69,3.06,2.72V483h.77v1.44H84.81v-.95A2.38,2.38,0,0,1,82.61,484.58Zm2.15-2.73v-.59H84c-1.16,0-1.82.28-1.82,1,0,.49.28.87,1,.87S84.76,482.69,84.76,481.85Z"/><path d="M88.11,484.42V483h.8V478.6h-.82v-1.5h2.83v1.48a2.45,2.45,0,0,1,2.51-1.6v1.92c-1.58,0-2.51.45-2.51,1.85V483h.89v1.44Z"/><path d="M95.63,483.67v.75H94.14V482h1.49a1.49,1.49,0,0,0,1.55,1.28c.8,0,1.18-.32,1.18-.89s-.46-.76-1.49-.91c-1.94-.3-2.67-1-2.67-2.33a2.21,2.21,0,0,1,2.49-2.21c1.18,0,1.65.4,1.89.85v-.68H100v2.17H98.57a1.41,1.41,0,0,0-1.47-1.07c-.63,0-1,.26-1,.76s.33.7,1.39.9c1.81.25,2.83.77,2.83,2.34s-1,2.38-2.72,2.38A2,2,0,0,1,95.63,483.67Z"/><path d="M123.3,454.8h1V448h-1v-1.62h4.29c3.51,0,5.27,1.9,5.27,4.9v.11c0,3-1.76,5-5.27,5H123.3Zm4.21-.14c2,0,3-1.14,3-3.21v-.11c0-2.06-.9-3.17-3-3.17h-.9v6.49Z"/><path d="M136.76,456.59c-1.37,0-2.41-.84-2.41-2.8V450.6h-.77v-1.5h2.8v4.4c0,1,.41,1.44,1.25,1.44a1.43,1.43,0,0,0,1.44-1.61V450.6h-.8v-1.5h2.83V455h.8v1.44h-2.83V455.2A2.51,2.51,0,0,1,136.76,456.59Z"/><path d="M145.51,453.72h2.1a1.31,1.31,0,0,0,1.5,1.12c1.33,0,2-1,2-3.1a2.61,2.61,0,0,1-2.4,1.24,3.12,3.12,0,0,1-3.35-3.25c0-2.08,1.49-3.48,3.88-3.48,2.76,0,4.11,1.87,4.11,4.75v.45c0,3.28-1.51,5.11-4.2,5.11C147,456.56,145.73,455.53,145.51,453.72Zm5.46-4a1.7,1.7,0,0,0-1.72-1.88,1.78,1.78,0,1,0,1.72,1.88Z"/><path d="M131.53,470.58a2.14,2.14,0,0,1-2.44-2.19c0-1.75,1.57-2.35,3.78-2.35h.82v-.3c0-.91-.3-1.34-1.18-1.34a1.05,1.05,0,0,0-1.2,1h-1.92c.11-1.77,1.47-2.51,3.25-2.51s3.05.69,3.05,2.72V469h.77v1.44h-2.73v-.95A2.38,2.38,0,0,1,131.53,470.58Zm2.16-2.73v-.59h-.77c-1.17,0-1.83.28-1.83,1,0,.49.29.87,1,.87S133.69,468.69,133.69,467.85Z"/><path d="M140,470.59c-1.38,0-2.41-.84-2.41-2.8V464.6h-.77v-1.5h2.8v4.4c0,1,.4,1.44,1.24,1.44a1.43,1.43,0,0,0,1.45-1.61V464.6h-.8v-1.5h2.83V469h.8v1.44H142.3V469.2A2.53,2.53,0,0,1,140,470.59Z"/><path d="M113.08,484.42V482.8h1.78v-6.15l-1.94,1.29V476l2.22-1.58h2v8.39h1.68v1.62Z"/><path d="M119.47,481.44h2.08a1.42,1.42,0,0,0,1.62,1.4c1,0,1.56-.71,1.56-1.76a1.54,1.54,0,0,0-1.62-1.73,2.33,2.33,0,0,0-1.92.8h-1.25l.13-5.74h6.36v2.45h-1.82V476h-2.83l-.06,2.66a2.73,2.73,0,0,1,2.23-.9,3,3,0,0,1,3.07,3.28c0,2.16-1.53,3.52-3.81,3.52C120.71,484.58,119.57,483.22,119.47,481.44Z"/><path d="M130.65,484.42V483h.8V478.6h-.81v-1.5h2.83v1.22a2.39,2.39,0,0,1,2.2-1.39,2,2,0,0,1,2,1.39,2.75,2.75,0,0,1,2.4-1.39c1.33,0,2.37.85,2.37,2.8V483h.8v1.44h-3.59V483h.77V479.9c0-.94-.39-1.37-1.11-1.37A1.36,1.36,0,0,0,138,480V483h.77v1.44h-3.56V483H136V479.9c0-.94-.41-1.37-1.12-1.37a1.36,1.36,0,0,0-1.36,1.51V483h.77v1.44Z"/><path d="M146.31,484.58a2.14,2.14,0,0,1-2.44-2.19c0-1.75,1.57-2.35,3.78-2.35h.81v-.3c0-.91-.29-1.34-1.17-1.34a1.06,1.06,0,0,0-1.21,1h-1.92c.11-1.77,1.47-2.51,3.25-2.51s3.06.69,3.06,2.72V483h.77v1.44h-2.73v-.95A2.38,2.38,0,0,1,146.31,484.58Zm2.15-2.73v-.59h-.77c-1.16,0-1.82.28-1.82,1,0,.49.28.87,1,.87C147.79,483.15,148.46,482.69,148.46,481.85Z"/><path d="M151.81,484.42V483h.79V478.6h-.81v-1.5h2.83v1.48a2.45,2.45,0,0,1,2.51-1.6v1.92c-1.58,0-2.51.45-2.51,1.85V483h.88v1.44Z"/><path d="M159.33,483.67v.75h-1.49V482h1.49a1.49,1.49,0,0,0,1.55,1.28c.8,0,1.18-.32,1.18-.89s-.47-.76-1.49-.91c-1.95-.3-2.67-1-2.67-2.33a2.21,2.21,0,0,1,2.49-2.21c1.18,0,1.65.4,1.89.85v-.68h1.43v2.17h-1.44a1.41,1.41,0,0,0-1.47-1.07c-.63,0-1,.26-1,.76s.33.7,1.39.9c1.81.25,2.83.77,2.83,2.34s-1,2.38-2.72,2.38A2,2,0,0,1,159.33,483.67Z"/><path d="M180.58,454.8h1V448h-1v-1.62h4.29c3.52,0,5.27,1.9,5.27,4.9v.11c0,3-1.75,5-5.27,5h-4.29Zm4.21-.14c2,0,3-1.14,3-3.21v-.11c0-2.06-.9-3.17-3-3.17h-.89v6.49Z"/><path d="M194,456.59c-1.37,0-2.41-.84-2.41-2.8V450.6h-.77v-1.5h2.8v4.4c0,1,.41,1.44,1.25,1.44a1.43,1.43,0,0,0,1.44-1.61V450.6h-.8v-1.5h2.83V455h.8v1.44h-2.83V455.2A2.51,2.51,0,0,1,194,456.59Z"/><path d="M202.86,456.42V454.8h1.78v-6.15l-1.95,1.29V448l2.23-1.58h2v8.39h1.68v1.62Z"/><path d="M213.36,456.58c-3,0-4.12-2.05-4.12-4.78v-.25c0-3.39,1.84-5.28,4.29-5.28,2,0,3.25.94,3.49,2.77H214.9a1.18,1.18,0,0,0-1.33-1.06c-1.25,0-2,1.09-2.07,3.15a2.62,2.62,0,0,1,2.42-1.25,3.11,3.11,0,0,1,3.31,3.24C217.23,455.19,215.74,456.58,213.36,456.58Zm1.64-3.42a1.69,1.69,0,1,0-3.38-.08,1.68,1.68,0,0,0,1.71,1.86A1.64,1.64,0,0,0,215,453.16Z"/><path d="M193.44,470.58a2.13,2.13,0,0,1-2.43-2.19c0-1.75,1.57-2.35,3.78-2.35h.81v-.3c0-.91-.29-1.34-1.18-1.34a1.05,1.05,0,0,0-1.2,1H191.3c.11-1.77,1.47-2.51,3.25-2.51s3,.69,3,2.72V469h.78v1.44h-2.74v-.95A2.37,2.37,0,0,1,193.44,470.58Zm2.16-2.73v-.59h-.77c-1.16,0-1.82.28-1.82,1,0,.49.28.87,1,.87C194.93,469.15,195.6,468.69,195.6,467.85Z"/><path d="M201.9,470.59c-1.37,0-2.41-.84-2.41-2.8V464.6h-.77v-1.5h2.8v4.4c0,1,.41,1.44,1.25,1.44a1.43,1.43,0,0,0,1.44-1.61V464.6h-.8v-1.5h2.83V469h.8v1.44h-2.83V469.2A2.51,2.51,0,0,1,201.9,470.59Z"/><path d="M178.24,481.58H180v2.84h-7.55V483.2l3.51-3.32c1.19-1.09,1.59-1.76,1.59-2.57a1.2,1.2,0,0,0-1.31-1.31c-.87,0-1.43.52-1.59,1.84H172.6a3.44,3.44,0,0,1,3.74-3.57c2.22,0,3.48,1.15,3.48,2.91,0,1.36-.82,2.4-2,3.5l-2.41,2.16h2.88Z"/><path d="M186.61,481.58h1.77v2.84h-7.55V483.2l3.51-3.32c1.2-1.09,1.59-1.76,1.59-2.57a1.2,1.2,0,0,0-1.31-1.31c-.86,0-1.42.52-1.59,1.84H181a3.44,3.44,0,0,1,3.74-3.57c2.23,0,3.49,1.15,3.49,2.91,0,1.36-.83,2.4-2.06,3.5l-2.41,2.16h2.88Z"/><path d="M192,484.42V483h.8V478.6H192v-1.5h2.83v1.22a2.39,2.39,0,0,1,2.2-1.39,2,2,0,0,1,2,1.39,2.73,2.73,0,0,1,2.4-1.39c1.33,0,2.36.85,2.36,2.8V483h.8v1.44H201V483h.77V479.9c0-.94-.4-1.37-1.11-1.37a1.36,1.36,0,0,0-1.37,1.51V483h.77v1.44h-3.56V483h.78V479.9c0-.94-.4-1.37-1.12-1.37a1.36,1.36,0,0,0-1.36,1.51V483h.77v1.44Z"/><path d="M207.68,484.58a2.14,2.14,0,0,1-2.44-2.19c0-1.75,1.57-2.35,3.79-2.35h.81v-.3c0-.91-.3-1.34-1.18-1.34a1.05,1.05,0,0,0-1.2,1h-1.92c.11-1.77,1.47-2.51,3.25-2.51s3.05.69,3.05,2.72V483h.77v1.44h-2.73v-.95A2.37,2.37,0,0,1,207.68,484.58Zm2.16-2.73v-.59h-.77c-1.16,0-1.82.28-1.82,1,0,.49.28.87,1,.87C209.17,483.15,209.84,482.69,209.84,481.85Z"/><path d="M213.18,484.42V483h.8V478.6h-.81v-1.5H216v1.48a2.44,2.44,0,0,1,2.51-1.6v1.92c-1.59,0-2.51.45-2.51,1.85V483h.88v1.44Z"/><path d="M220.7,483.67v.75h-1.48V482h1.48a1.5,1.5,0,0,0,1.56,1.28c.79,0,1.17-.32,1.17-.89s-.46-.76-1.48-.91c-1.95-.3-2.68-1-2.68-2.33a2.21,2.21,0,0,1,2.5-2.21c1.17,0,1.65.4,1.89.85v-.68h1.43v2.17h-1.45a1.4,1.4,0,0,0-1.47-1.07c-.63,0-1,.26-1,.76s.32.7,1.39.9c1.8.25,2.83.77,2.83,2.34s-1,2.38-2.72,2.38A2,2,0,0,1,220.7,483.67Z"/><path d="M240.27,454.8h1V448h-1v-1.62h4.29c3.51,0,5.27,1.9,5.27,4.9v.11c0,3-1.76,5-5.27,5h-4.29Zm4.2-.14c2,0,3-1.14,3-3.21v-.11c0-2.06-.9-3.17-3-3.17h-.9v6.49Z"/><path d="M253.73,456.59c-1.38,0-2.41-.84-2.41-2.8V450.6h-.77v-1.5h2.8v4.4c0,1,.41,1.44,1.25,1.44a1.43,1.43,0,0,0,1.44-1.61V450.6h-.8v-1.5h2.83V455h.8v1.44H256V455.2A2.53,2.53,0,0,1,253.73,456.59Z"/><path d="M268,453.58h1.77v2.84h-7.55V455.2l3.51-3.32c1.19-1.09,1.59-1.76,1.59-2.57A1.2,1.2,0,0,0,266,448c-.86,0-1.43.52-1.59,1.84h-2.06a3.44,3.44,0,0,1,3.74-3.57c2.23,0,3.49,1.15,3.49,2.91,0,1.36-.83,2.4-2.06,3.5l-2.41,2.16H268Z"/><path d="M270.71,453.26h2a1.64,1.64,0,0,0,1.82,1.64c1.12,0,1.67-.54,1.67-1.42s-.54-1.46-1.61-1.46h-.79v-1.51h.73c1.05,0,1.53-.47,1.53-1.31s-.47-1.25-1.39-1.25a1.55,1.55,0,0,0-1.65,1.5h-2a3.35,3.35,0,0,1,3.7-3.18c2.19,0,3.49,1.15,3.49,2.71a2.18,2.18,0,0,1-1.65,2.18,2.29,2.29,0,0,1,1.94,2.35c0,1.88-1.44,3.07-3.88,3.07S270.79,455.27,270.71,453.26Z"/><path d="M254,470.58a2.13,2.13,0,0,1-2.43-2.19c0-1.75,1.56-2.35,3.78-2.35h.81v-.3c0-.91-.29-1.34-1.18-1.34a1.05,1.05,0,0,0-1.2,1h-1.92c.11-1.77,1.47-2.51,3.25-2.51s3,.69,3,2.72V469h.77v1.44h-2.73v-.95A2.37,2.37,0,0,1,254,470.58Zm2.16-2.73v-.59h-.77c-1.16,0-1.82.28-1.82,1,0,.49.28.87,1,.87C255.46,469.15,256.13,468.69,256.13,467.85Z"/><path d="M262.43,470.59c-1.37,0-2.41-.84-2.41-2.8V464.6h-.77v-1.5h2.8v4.4c0,1,.41,1.44,1.25,1.44a1.43,1.43,0,0,0,1.44-1.61V464.6h-.8v-1.5h2.83V469h.8v1.44h-2.83V469.2A2.51,2.51,0,0,1,262.43,470.59Z"/><path d="M238.49,481.58h1.77v2.84h-7.55V483.2l3.51-3.32c1.19-1.09,1.58-1.76,1.58-2.57a1.2,1.2,0,0,0-1.3-1.31c-.87,0-1.43.52-1.6,1.84h-2.05a3.44,3.44,0,0,1,3.74-3.57c2.22,0,3.48,1.15,3.48,2.91,0,1.36-.82,2.4-2.06,3.5l-2.41,2.16h2.89Z"/><path d="M241.32,481.72h2.1a1.31,1.31,0,0,0,1.5,1.12c1.33,0,2-1,2-3.1a2.61,2.61,0,0,1-2.4,1.24,3.12,3.12,0,0,1-3.35-3.25c0-2.08,1.49-3.48,3.88-3.48,2.76,0,4.11,1.87,4.11,4.75v.45c0,3.28-1.52,5.11-4.2,5.11C242.81,484.56,241.54,483.53,241.32,481.72Zm5.46-4a1.7,1.7,0,0,0-1.72-1.88,1.78,1.78,0,1,0,1.72,1.88Z"/><path d="M252.84,484.42V483h.8V478.6h-.82v-1.5h2.83v1.22a2.39,2.39,0,0,1,2.2-1.39,2,2,0,0,1,2,1.39,2.73,2.73,0,0,1,2.39-1.39c1.33,0,2.37.85,2.37,2.8V483h.8v1.44h-3.59V483h.77V479.9c0-.94-.39-1.37-1.1-1.37a1.36,1.36,0,0,0-1.37,1.51V483h.77v1.44h-3.56V483h.78V479.9c0-.94-.4-1.37-1.12-1.37a1.36,1.36,0,0,0-1.36,1.51V483h.77v1.44Z"/><path d="M268.49,484.58a2.14,2.14,0,0,1-2.44-2.19c0-1.75,1.57-2.35,3.79-2.35h.81v-.3c0-.91-.3-1.34-1.18-1.34a1.05,1.05,0,0,0-1.2,1h-1.92c.11-1.77,1.47-2.51,3.25-2.51s3,.69,3,2.72V483h.77v1.44h-2.73v-.95A2.38,2.38,0,0,1,268.49,484.58Zm2.16-2.73v-.59h-.77c-1.17,0-1.82.28-1.82,1,0,.49.28.87,1,.87C270,483.15,270.65,482.69,270.65,481.85Z"/><path d="M274,484.42V483h.8V478.6H274v-1.5h2.83v1.48a2.44,2.44,0,0,1,2.5-1.6v1.92c-1.58,0-2.5.45-2.5,1.85V483h.88v1.44Z"/><path d="M281.51,483.67v.75H280V482h1.49a1.49,1.49,0,0,0,1.55,1.28c.8,0,1.18-.32,1.18-.89s-.46-.76-1.48-.91c-1.95-.3-2.68-1-2.68-2.33a2.21,2.21,0,0,1,2.49-2.21c1.18,0,1.66.4,1.9.85v-.68h1.42v2.17h-1.44A1.4,1.4,0,0,0,283,478.2c-.63,0-1,.26-1,.76s.32.7,1.38.9c1.81.25,2.83.77,2.83,2.34s-1,2.38-2.71,2.38A2,2,0,0,1,281.51,483.67Z"/><path d="M300.07,454.8h1V448h-1v-1.62h4.29c3.52,0,5.27,1.9,5.27,4.9v.11c0,3-1.75,5-5.27,5h-4.29Zm4.21-.14c2,0,3-1.14,3-3.21v-.11c0-2.06-.9-3.17-3-3.17h-.9v6.49Z"/><path d="M313.53,456.59c-1.37,0-2.41-.84-2.41-2.8V450.6h-.77v-1.5h2.8v4.4c0,1,.41,1.44,1.25,1.44a1.43,1.43,0,0,0,1.44-1.61V450.6H315v-1.5h2.83V455h.8v1.44h-2.83V455.2A2.51,2.51,0,0,1,313.53,456.59Z"/><path d="M322.14,453.26h2A1.64,1.64,0,0,0,326,454.9c1.12,0,1.67-.54,1.67-1.42S327.12,452,326,452h-.78v-1.51H326c1.05,0,1.53-.47,1.53-1.31s-.47-1.25-1.39-1.25a1.55,1.55,0,0,0-1.65,1.5h-2c.11-1.84,1.42-3.18,3.7-3.18s3.49,1.15,3.49,2.71a2.19,2.19,0,0,1-1.65,2.18,2.29,2.29,0,0,1,1.94,2.35c0,1.88-1.44,3.07-3.88,3.07S322.22,455.27,322.14,453.26Z"/><path d="M331,451.66v-.48c0-3.08,1.81-4.91,4.37-4.91s4.37,1.76,4.37,4.87v.45c0,3.08-1.67,5-4.38,5S331,454.73,331,451.66Zm6.47,0v-.46c0-2-.7-3.16-2.09-3.16s-2.11,1.1-2.11,3.17v.48c0,2.1.74,3.15,2.14,3.15S337.51,453.72,337.51,451.62Z"/><path d="M293.56,470.42V469h.8V464.6h-.81v-1.5h2.83v1.22a2.39,2.39,0,0,1,2.2-1.39,2,2,0,0,1,2,1.39,2.75,2.75,0,0,1,2.4-1.39c1.33,0,2.37.85,2.37,2.8V469h.8v1.44h-3.59V469h.77V465.9c0-.94-.39-1.37-1.11-1.37a1.36,1.36,0,0,0-1.37,1.51V469h.77v1.44h-3.56V469h.79V465.9c0-.94-.41-1.37-1.12-1.37a1.36,1.36,0,0,0-1.36,1.51V469h.77v1.44Z"/><path d="M309.22,470.58c-1.34,0-2.44-.65-2.44-2.19,0-1.75,1.57-2.35,3.78-2.35h.81v-.3c0-.91-.29-1.34-1.17-1.34a1.06,1.06,0,0,0-1.21,1h-1.92c.11-1.77,1.47-2.51,3.25-2.51s3.06.69,3.06,2.72V469h.77v1.44h-2.73v-.95A2.38,2.38,0,0,1,309.22,470.58Zm2.15-2.73v-.59h-.77c-1.16,0-1.82.28-1.82,1,0,.49.28.87,1,.87C310.7,469.15,311.37,468.69,311.37,467.85Z"/><path d="M314.72,470.42V469h.8V464.6h-.82v-1.5h2.83v1.48A2.45,2.45,0,0,1,320,463v1.92c-1.58,0-2.51.45-2.51,1.85V469h.89v1.44Z"/><path d="M322.24,469.67v.75h-1.49V468h1.49a1.49,1.49,0,0,0,1.55,1.28c.8,0,1.18-.32,1.18-.89s-.47-.76-1.49-.91c-1.94-.3-2.67-1-2.67-2.33a2.21,2.21,0,0,1,2.49-2.21c1.18,0,1.65.4,1.89.85v-.68h1.43v2.17h-1.44a1.41,1.41,0,0,0-1.47-1.07c-.63,0-1,.26-1,.76s.33.7,1.39.9c1.81.25,2.83.77,2.83,2.34s-1,2.38-2.72,2.38A2,2,0,0,1,322.24,469.67Z"/><path d="M332.93,470.58a2.14,2.14,0,0,1-2.44-2.19c0-1.75,1.57-2.35,3.79-2.35h.81v-.3c0-.91-.3-1.34-1.18-1.34a1.05,1.05,0,0,0-1.2,1h-1.92c.11-1.77,1.47-2.51,3.25-2.51s3,.69,3,2.72V469h.77v1.44h-2.73v-.95A2.38,2.38,0,0,1,332.93,470.58Zm2.16-2.73v-.59h-.77c-1.16,0-1.82.28-1.82,1,0,.49.28.87,1,.87C334.42,469.15,335.09,468.69,335.09,467.85Z"/><path d="M341.39,470.59c-1.37,0-2.41-.84-2.41-2.8V464.6h-.77v-1.5H341v4.4c0,1,.41,1.44,1.25,1.44a1.43,1.43,0,0,0,1.44-1.61V464.6h-.8v-1.5h2.83V469h.8v1.44H343.7V469.2A2.53,2.53,0,0,1,341.39,470.59Z"/><path d="M299.51,481.44h2.08a1.41,1.41,0,0,0,1.61,1.4c1,0,1.57-.71,1.57-1.76a1.54,1.54,0,0,0-1.62-1.73,2.31,2.31,0,0,0-1.92.8H300l.13-5.74h6.36v2.45h-1.82V476h-2.83l-.06,2.66a2.73,2.73,0,0,1,2.23-.9,3,3,0,0,1,3.07,3.28c0,2.16-1.53,3.52-3.81,3.52C300.75,484.58,299.6,483.22,299.51,481.44Z"/><path d="M313.2,484.58a2.14,2.14,0,0,1-2.44-2.19c0-1.75,1.57-2.35,3.78-2.35h.82v-.3c0-.91-.3-1.34-1.18-1.34a1.06,1.06,0,0,0-1.21,1h-1.91c.11-1.77,1.47-2.51,3.25-2.51s3.05.69,3.05,2.72V483h.77v1.44H315.4v-.95A2.38,2.38,0,0,1,313.2,484.58Zm2.16-2.73v-.59h-.77c-1.17,0-1.83.28-1.83,1,0,.49.28.87,1,.87S315.36,482.69,315.36,481.85Z"/><path d="M325.49,478.6l-2.11,5.82h-2.3l-2.17-5.82h-.76v-1.5h3.7v1.5H321l1.36,4,1.31-4h-.84v-1.5h3.37v1.5Z"/><path d="M326.78,484.42V483h.8V478.6h-.82v-1.5h2.83v1.48a2.45,2.45,0,0,1,2.51-1.6v1.92c-1.58,0-2.51.45-2.51,1.85V483h.89v1.44Z"/><path d="M332.85,484.42V483h.8V478.6h-.81v-1.5h2.82V483h.81v1.44Zm.59-9.44a1.18,1.18,0,1,1,1.18,1.14A1.14,1.14,0,0,1,333.44,475Z"/><path d="M337.05,484.42V483h.8v-7.7H337v-1.5h2.83V483h.8v1.44Z"/><path d="M365.42,454.8h1V448h-1v-1.62h4.28c3.52,0,5.27,1.9,5.27,4.9v.11c0,3-1.75,5-5.27,5h-4.28Zm4.2-.14c2,0,3-1.14,3-3.21v-.11c0-2.06-.89-3.17-3-3.17h-.89v6.49Z"/><path d="M378.87,456.59c-1.37,0-2.41-.84-2.41-2.8V450.6h-.77v-1.5h2.8v4.4c0,1,.41,1.44,1.25,1.44a1.43,1.43,0,0,0,1.44-1.61V450.6h-.8v-1.5h2.83V455h.8v1.44h-2.83V455.2A2.51,2.51,0,0,1,378.87,456.59Z"/><path d="M391.7,456.58c-3,0-4.12-2.05-4.12-4.78v-.25c0-3.39,1.83-5.28,4.29-5.28,2,0,3.24.94,3.48,2.77h-2.11a1.18,1.18,0,0,0-1.33-1.06c-1.25,0-2,1.09-2.08,3.15a2.63,2.63,0,0,1,2.43-1.25,3.11,3.11,0,0,1,3.3,3.24C395.56,455.19,394.08,456.58,391.7,456.58Zm1.64-3.42a1.69,1.69,0,1,0-3.38-.08,1.68,1.68,0,0,0,1.71,1.86A1.64,1.64,0,0,0,393.34,453.16Z"/><path d="M375,470.58a2.14,2.14,0,0,1-2.44-2.19c0-1.75,1.57-2.35,3.78-2.35h.82v-.3c0-.91-.3-1.34-1.18-1.34a1.06,1.06,0,0,0-1.21,1h-1.91c.11-1.77,1.47-2.51,3.25-2.51s3.05.69,3.05,2.72V469H380v1.44h-2.73v-.95A2.38,2.38,0,0,1,375,470.58Zm2.16-2.73v-.59h-.77c-1.17,0-1.83.28-1.83,1,0,.49.29.87,1,.87S377.19,468.69,377.19,467.85Z"/><path d="M383.49,470.59c-1.38,0-2.41-.84-2.41-2.8V464.6h-.77v-1.5h2.8v4.4c0,1,.4,1.44,1.24,1.44a1.43,1.43,0,0,0,1.45-1.61V464.6H385v-1.5h2.83V469h.8v1.44H385.8V469.2A2.53,2.53,0,0,1,383.49,470.59Z"/><path d="M356.92,484.42V482.8h1.78v-6.15l-1.95,1.29V476l2.23-1.58h2v8.39h1.68v1.62Z"/><path d="M369.17,481.58h1.77v2.84h-7.55V483.2l3.51-3.32c1.19-1.09,1.59-1.76,1.59-2.57a1.2,1.2,0,0,0-1.31-1.31c-.87,0-1.43.52-1.59,1.84h-2.06a3.44,3.44,0,0,1,3.74-3.57c2.22,0,3.48,1.15,3.48,2.91,0,1.36-.82,2.4-2.05,3.5l-2.41,2.16h2.88Z"/><path d="M377.09,484.58a2.13,2.13,0,0,1-2.43-2.19c0-1.75,1.57-2.35,3.78-2.35h.81v-.3c0-.91-.29-1.34-1.17-1.34a1.06,1.06,0,0,0-1.21,1H375c.11-1.77,1.47-2.51,3.25-2.51s3.05.69,3.05,2.72V483H382v1.44h-2.74v-.95A2.37,2.37,0,0,1,377.09,484.58Zm2.16-2.73v-.59h-.77c-1.16,0-1.82.28-1.82,1,0,.49.28.87,1,.87C378.58,483.15,379.25,482.69,379.25,481.85Z"/><path d="M389.39,478.6l-2.12,5.82H385l-2.17-5.82h-.76v-1.5h3.7v1.5h-.82l1.36,4,1.32-4h-.84v-1.5h3.36v1.5Z"/><path d="M390.67,484.42V483h.8V478.6h-.81v-1.5h2.83v1.48A2.44,2.44,0,0,1,396,477v1.92c-1.59,0-2.51.45-2.51,1.85V483h.88v1.44Z"/><path d="M396.75,484.42V483h.8V478.6h-.82v-1.5h2.82V483h.81v1.44Zm.59-9.44a1.18,1.18,0,0,1,2.35,0,1.18,1.18,0,0,1-2.35,0Z"/><path d="M401,484.42V483h.8v-7.7h-.82v-1.5h2.83V483h.8v1.44Z"/><path d="M422.76,454.8h1V448h-1v-1.62h4.29c3.51,0,5.26,1.9,5.26,4.9v.11c0,3-1.75,5-5.26,5h-4.29Zm4.2-.14c2,0,3-1.14,3-3.21v-.11c0-2.06-.9-3.17-3-3.17h-.9v6.49Z"/><path d="M436.22,456.59c-1.38,0-2.41-.84-2.41-2.8V450.6H433v-1.5h2.8v4.4c0,1,.4,1.44,1.24,1.44a1.43,1.43,0,0,0,1.45-1.61V450.6h-.8v-1.5h2.83V455h.8v1.44h-2.83V455.2A2.53,2.53,0,0,1,436.22,456.59Z"/><path d="M445,456.42V454.8h1.78v-6.15l-1.94,1.29V448l2.22-1.58h2v8.39h1.68v1.62Z"/><path d="M451.39,453.26h2a1.64,1.64,0,0,0,1.82,1.64c1.12,0,1.67-.54,1.67-1.42s-.53-1.46-1.61-1.46h-.79v-1.51h.73c1.05,0,1.53-.47,1.53-1.31s-.46-1.25-1.39-1.25a1.55,1.55,0,0,0-1.65,1.5h-2c.11-1.84,1.41-3.18,3.69-3.18s3.49,1.15,3.49,2.71a2.18,2.18,0,0,1-1.65,2.18,2.3,2.3,0,0,1,1.95,2.35c0,1.88-1.45,3.07-3.88,3.07S451.47,455.27,451.39,453.26Z"/><path d="M435.56,470.58a2.14,2.14,0,0,1-2.44-2.19c0-1.75,1.57-2.35,3.78-2.35h.81v-.3c0-.91-.29-1.34-1.17-1.34a1.06,1.06,0,0,0-1.21,1h-1.92c.12-1.77,1.47-2.51,3.25-2.51s3.06.69,3.06,2.72V469h.77v1.44h-2.73v-.95A2.38,2.38,0,0,1,435.56,470.58Zm2.15-2.73v-.59h-.77c-1.16,0-1.82.28-1.82,1,0,.49.28.87,1,.87S437.71,468.69,437.71,467.85Z"/><path d="M444,470.59c-1.37,0-2.41-.84-2.41-2.8V464.6h-.77v-1.5h2.81v4.4c0,1,.4,1.44,1.24,1.44a1.43,1.43,0,0,0,1.45-1.61V464.6h-.8v-1.5h2.83V469h.79v1.44h-2.82V469.2A2.54,2.54,0,0,1,444,470.59Z"/><path d="M417.31,484.42V482.8h1.78v-6.15l-1.95,1.29V476l2.23-1.58h2v8.39h1.68v1.62Z"/><path d="M423.73,481.72h2.1a1.31,1.31,0,0,0,1.5,1.12c1.33,0,2-1,2-3.1A2.62,2.62,0,0,1,427,481a3.12,3.12,0,0,1-3.35-3.25c0-2.08,1.49-3.48,3.88-3.48,2.76,0,4.11,1.87,4.11,4.75v.45c0,3.28-1.52,5.11-4.21,5.11C425.23,484.56,424,483.53,423.73,481.72Zm5.47-4a1.7,1.7,0,0,0-1.73-1.88,1.78,1.78,0,1,0,1.73,1.88Z"/><path d="M437.76,484.58a2.13,2.13,0,0,1-2.43-2.19c0-1.75,1.56-2.35,3.78-2.35h.81v-.3c0-.91-.3-1.34-1.18-1.34a1.05,1.05,0,0,0-1.2,1h-1.92c.11-1.77,1.47-2.51,3.25-2.51s3.05.69,3.05,2.72V483h.77v1.44H440v-.95A2.37,2.37,0,0,1,437.76,484.58Zm2.16-2.73v-.59h-.77c-1.16,0-1.82.28-1.82,1,0,.49.28.87,1,.87C439.25,483.15,439.92,482.69,439.92,481.85Z"/><path d="M450.06,478.6l-2.12,5.82h-2.3l-2.17-5.82h-.75v-1.5h3.7v1.5h-.82l1.36,4,1.32-4h-.84v-1.5h3.36v1.5Z"/><path d="M451.34,484.42V483h.8V478.6h-.81v-1.5h2.83v1.48a2.44,2.44,0,0,1,2.5-1.6v1.92c-1.58,0-2.5.45-2.5,1.85V483H455v1.44Z"/><path d="M457.42,484.42V483h.8V478.6h-.82v-1.5h2.82V483H461v1.44ZM458,475a1.18,1.18,0,0,1,2.35,0,1.18,1.18,0,0,1-2.35,0Z"/><path d="M461.62,484.42V483h.8v-7.7h-.82v-1.5h2.83V483h.8v1.44Z"/><path d="M481.88,454.8h1V448h-1v-1.62h4.28c3.52,0,5.27,1.9,5.27,4.9v.11c0,3-1.75,5-5.27,5h-4.28Zm4.2-.14c2,0,3-1.14,3-3.21v-.11c0-2.06-.89-3.17-3-3.17h-.89v6.49Z"/><path d="M495.33,456.59c-1.37,0-2.41-.84-2.41-2.8V450.6h-.77v-1.5H495v4.4c0,1,.41,1.44,1.25,1.44a1.43,1.43,0,0,0,1.44-1.61V450.6h-.8v-1.5h2.83V455h.8v1.44h-2.83V455.2A2.51,2.51,0,0,1,495.33,456.59Z"/><path d="M509.63,453.58h1.76v2.84h-7.55V455.2l3.52-3.32c1.19-1.09,1.58-1.76,1.58-2.57a1.2,1.2,0,0,0-1.3-1.31c-.87,0-1.43.52-1.6,1.84H504a3.45,3.45,0,0,1,3.74-3.57c2.23,0,3.49,1.15,3.49,2.91,0,1.36-.83,2.4-2.06,3.5l-2.41,2.16h2.89Z"/><path d="M512.41,451.66v-.48c0-3.08,1.81-4.91,4.37-4.91s4.37,1.76,4.37,4.87v.45c0,3.08-1.67,5-4.38,5S512.41,454.73,512.41,451.66Zm6.47,0v-.46c0-2-.7-3.16-2.09-3.16s-2.11,1.1-2.11,3.17v.48c0,2.1.74,3.15,2.14,3.15S518.88,453.72,518.88,451.62Z"/><path d="M496.09,470.58a2.14,2.14,0,0,1-2.44-2.19c0-1.75,1.57-2.35,3.78-2.35h.81v-.3c0-.91-.29-1.34-1.17-1.34a1.06,1.06,0,0,0-1.21,1h-1.92c.12-1.77,1.47-2.51,3.25-2.51s3.06.69,3.06,2.72V469H501v1.44h-2.73v-.95A2.38,2.38,0,0,1,496.09,470.58Zm2.15-2.73v-.59h-.77c-1.16,0-1.82.28-1.82,1,0,.49.28.87,1,.87C497.57,469.15,498.24,468.69,498.24,467.85Z"/><path d="M504.54,470.59c-1.37,0-2.41-.84-2.41-2.8V464.6h-.77v-1.5h2.81v4.4c0,1,.4,1.44,1.24,1.44a1.43,1.43,0,0,0,1.44-1.61V464.6h-.79v-1.5h2.83V469h.79v1.44h-2.83V469.2A2.51,2.51,0,0,1,504.54,470.59Z"/><path d="M482.41,481.58h1.77v2.84h-7.55V483.2l3.51-3.32c1.19-1.09,1.58-1.76,1.58-2.57a1.2,1.2,0,0,0-1.3-1.31c-.87,0-1.43.52-1.59,1.84h-2.06a3.44,3.44,0,0,1,3.74-3.57c2.22,0,3.48,1.15,3.48,2.91,0,1.36-.82,2.4-2.06,3.5l-2.4,2.16h2.88Z"/><path d="M489.24,484.58c-3,0-4.12-2.05-4.12-4.78v-.25c0-3.39,1.84-5.28,4.29-5.28,2,0,3.25.94,3.49,2.77h-2.12a1.18,1.18,0,0,0-1.33-1.06c-1.24,0-2,1.09-2.07,3.15a2.62,2.62,0,0,1,2.42-1.25,3.11,3.11,0,0,1,3.31,3.24C493.11,483.19,491.62,484.58,489.24,484.58Zm1.64-3.42a1.62,1.62,0,0,0-1.67-1.78,1.64,1.64,0,0,0-1.71,1.7,1.68,1.68,0,0,0,1.71,1.86A1.64,1.64,0,0,0,490.88,481.16Z"/><path d="M499.2,484.58c-1.34,0-2.44-.65-2.44-2.19,0-1.75,1.57-2.35,3.78-2.35h.81v-.3c0-.91-.29-1.34-1.17-1.34a1.06,1.06,0,0,0-1.21,1h-1.92c.11-1.77,1.47-2.51,3.25-2.51s3.06.69,3.06,2.72V483h.77v1.44h-2.74v-.95A2.35,2.35,0,0,1,499.2,484.58Zm2.15-2.73v-.59h-.77c-1.16,0-1.82.28-1.82,1,0,.49.28.87,1,.87C500.68,483.15,501.35,482.69,501.35,481.85Z"/><path d="M511.49,478.6l-2.12,5.82h-2.29l-2.17-5.82h-.76v-1.5h3.7v1.5H507l1.35,4,1.32-4h-.84v-1.5h3.36v1.5Z"/><path d="M512.77,484.42V483h.8V478.6h-.81v-1.5h2.83v1.48a2.45,2.45,0,0,1,2.51-1.6v1.92c-1.59,0-2.51.45-2.51,1.85V483h.88v1.44Z"/><path d="M518.85,484.42V483h.8V478.6h-.82v-1.5h2.82V483h.81v1.44Zm.59-9.44a1.18,1.18,0,1,1,1.17,1.14A1.14,1.14,0,0,1,519.44,475Z"/><path d="M523.05,484.42V483h.8v-7.7H523v-1.5h2.82V483h.8v1.44Z"/><path d="M543.31,454.8h1V448h-1v-1.62h4.28c3.52,0,5.27,1.9,5.27,4.9v.11c0,3-1.75,5-5.27,5h-4.28Zm4.2-.14c2,0,3-1.14,3-3.21v-.11c0-2.06-.89-3.17-3-3.17h-.89v6.49Z"/><path d="M556.76,456.59c-1.37,0-2.41-.84-2.41-2.8V450.6h-.77v-1.5h2.8v4.4c0,1,.41,1.44,1.25,1.44a1.43,1.43,0,0,0,1.44-1.61V450.6h-.8v-1.5h2.83V455h.8v1.44h-2.83V455.2A2.51,2.51,0,0,1,556.76,456.59Z"/><path d="M571.06,453.58h1.76v2.84h-7.55V455.2l3.52-3.32c1.19-1.09,1.58-1.76,1.58-2.57a1.2,1.2,0,0,0-1.3-1.31c-.87,0-1.43.52-1.6,1.84h-2.06a3.45,3.45,0,0,1,3.74-3.57c2.23,0,3.49,1.15,3.49,2.91,0,1.36-.83,2.4-2.06,3.5l-2.41,2.16h2.89Z"/><path d="M575.46,449.49h-1.79v-3.08H581v1.15l-3.34,8.86h-2.31l3.2-8.36h-3.12Z"/><path d="M540,470.58c-1.34,0-2.44-.65-2.44-2.19,0-1.75,1.57-2.35,3.78-2.35h.81v-.3c0-.91-.29-1.34-1.17-1.34a1.06,1.06,0,0,0-1.21,1h-1.92c.11-1.77,1.47-2.51,3.25-2.51s3.06.69,3.06,2.72V469h.77v1.44h-2.74v-.95A2.35,2.35,0,0,1,540,470.58Zm2.15-2.73v-.59h-.77c-1.16,0-1.82.28-1.82,1,0,.49.28.87,1,.87C541.44,469.15,542.11,468.69,542.11,467.85Z"/><path d="M552.25,464.6l-2.12,5.82h-2.29l-2.17-5.82h-.76v-1.5h3.7v1.5h-.82l1.36,4,1.32-4h-.84v-1.5H553v1.5Z"/><path d="M553.53,470.42V469h.8V464.6h-.81v-1.5h2.83v1.48a2.45,2.45,0,0,1,2.51-1.6v1.92c-1.59,0-2.51.45-2.51,1.85V469h.88v1.44Z"/><path d="M559.61,470.42V469h.8V464.6h-.81v-1.5h2.81V469h.81v1.44Zm.59-9.44a1.18,1.18,0,1,1,1.18,1.14A1.14,1.14,0,0,1,560.2,461Z"/><path d="M563.81,470.42V469h.8v-7.7h-.82v-1.5h2.83V469h.8v1.44Z"/><path d="M573.27,470.58a2.13,2.13,0,0,1-2.43-2.19c0-1.75,1.57-2.35,3.78-2.35h.81v-.3c0-.91-.29-1.34-1.18-1.34a1.05,1.05,0,0,0-1.2,1h-1.92c.11-1.77,1.47-2.51,3.25-2.51s3,.69,3,2.72V469h.78v1.44h-2.74v-.95A2.37,2.37,0,0,1,573.27,470.58Zm2.16-2.73v-.59h-.77c-1.16,0-1.82.28-1.82,1,0,.49.28.87,1,.87C574.76,469.15,575.43,468.69,575.43,467.85Z"/><path d="M581.73,470.59c-1.37,0-2.41-.84-2.41-2.8V464.6h-.77v-1.5h2.8v4.4c0,1,.41,1.44,1.25,1.44a1.43,1.43,0,0,0,1.44-1.61V464.6h-.8v-1.5h2.83V469h.8v1.44H584V469.2A2.51,2.51,0,0,1,581.73,470.59Z"/><path d="M544.1,481.26h2A1.64,1.64,0,0,0,548,482.9c1.12,0,1.67-.54,1.67-1.42S549.08,480,548,480h-.79v-1.51H548c1,0,1.53-.47,1.53-1.31S549,476,548.09,476a1.55,1.55,0,0,0-1.65,1.5h-2a3.35,3.35,0,0,1,3.7-3.18c2.19,0,3.49,1.15,3.49,2.71a2.18,2.18,0,0,1-1.65,2.18,2.29,2.29,0,0,1,1.94,2.35c0,1.88-1.44,3.07-3.88,3.07S544.18,483.27,544.1,481.26Z"/><path d="M555.56,484.42V483h.8V478.6h-.81v-1.5h2.83v1.22a2.39,2.39,0,0,1,2.2-1.39,2,2,0,0,1,2,1.39,2.72,2.72,0,0,1,2.39-1.39c1.33,0,2.37.85,2.37,2.8V483h.8v1.44h-3.59V483h.77V479.9c0-.94-.39-1.37-1.11-1.37a1.36,1.36,0,0,0-1.37,1.51V483h.77v1.44h-3.56V483h.79V479.9c0-.94-.41-1.37-1.12-1.37a1.36,1.36,0,0,0-1.36,1.51V483h.77v1.44Z"/><path d="M571.22,484.58a2.14,2.14,0,0,1-2.44-2.19c0-1.75,1.57-2.35,3.78-2.35h.81v-.3c0-.91-.29-1.34-1.17-1.34a1.06,1.06,0,0,0-1.21,1h-1.92c.12-1.77,1.47-2.51,3.25-2.51s3.06.69,3.06,2.72V483h.77v1.44h-2.73v-.95A2.38,2.38,0,0,1,571.22,484.58Zm2.15-2.73v-.59h-.77c-1.16,0-1.82.28-1.82,1,0,.49.28.87,1,.87C572.7,483.15,573.37,482.69,573.37,481.85Z"/><path d="M576.72,484.42V483h.8V478.6h-.82v-1.5h2.82V483h.81v1.44Zm.59-9.44a1.18,1.18,0,0,1,2.35,0,1.18,1.18,0,0,1-2.35,0Z"/><path d="M8.42,22.16H9.3a1.7,1.7,0,0,0,1.89,1.65c1.23,0,1.79-.59,1.79-1.52s-.55-1.53-1.66-1.53h-.59V20h.55c1,0,1.47-.48,1.47-1.34a1.27,1.27,0,0,0-1.43-1.32,1.61,1.61,0,0,0-1.73,1.48H8.75a2.42,2.42,0,0,1,2.57-2.26,2.16,2.16,0,0,1,2.37,2.08,1.79,1.79,0,0,1-1.24,1.71,1.89,1.89,0,0,1,1.51,2c0,1.43-1.16,2.29-2.79,2.29A2.51,2.51,0,0,1,8.42,22.16Z"/><path d="M17.54,20.77v-.44c0-2.32,1.17-3.81,3.1-3.81s3.07,1.55,3.07,3.79v.44c0,2.29-1.11,3.83-3.05,3.83S17.54,23.06,17.54,20.77Zm5.2,0V20.3c0-1.83-.77-3-2.1-3s-2.12,1.1-2.12,3v.44c0,2,.83,3,2.14,3S22.74,22.73,22.74,20.74Z"/><path d="M24.81,20.77v-.44c0-2.32,1.18-3.81,3.1-3.81S31,18.07,31,20.31v.44c0,2.29-1.11,3.83-3.05,3.83S24.81,23.06,24.81,20.77Zm5.2,0V20.3c0-1.83-.77-3-2.1-3s-2.12,1.1-2.12,3v.44c0,2,.83,3,2.14,3S30,22.73,30,20.74Z"/><path d="M32.08,20.77v-.44c0-2.32,1.18-3.81,3.1-3.81s3.07,1.55,3.07,3.79v.44c0,2.29-1.11,3.83-3,3.83S32.08,23.06,32.08,20.77Zm5.2,0V20.3c0-1.83-.77-3-2.1-3s-2.12,1.1-2.12,3v.44c0,2,.84,3,2.14,3S37.28,22.73,37.28,20.74Z"/><path d="M14.16,90.46h.89v2H9.67v-.42L12.72,89a3.19,3.19,0,0,0,1.13-2.28,1.28,1.28,0,0,0-1.39-1.4c-.91,0-1.5.51-1.65,1.75H9.92a2.46,2.46,0,0,1,2.54-2.52,2.13,2.13,0,0,1,2.36,2.21,4.28,4.28,0,0,1-1.58,2.86l-2.16,2.13h3.08Z"/><path d="M18.51,90.36h.91a1.48,1.48,0,0,0,1.69,1.45,1.67,1.67,0,0,0,1.73-1.88,1.63,1.63,0,0,0-1.65-1.81,2.26,2.26,0,0,0-1.86.76H19V84.62H23.4v1.62h-.89v-.83H19.77v2.48a2.5,2.5,0,0,1,4.05,2,2.56,2.56,0,0,1-2.7,2.65A2.32,2.32,0,0,1,18.51,90.36Z"/><path d="M24.81,88.77v-.44c0-2.32,1.18-3.81,3.1-3.81S31,86.07,31,88.31v.44c0,2.29-1.11,3.83-3.05,3.83S24.81,91.06,24.81,88.77Zm5.2,0V88.3c0-1.83-.77-3-2.1-3s-2.12,1.1-2.12,3v.44c0,2,.83,3,2.14,3S30,90.73,30,88.74Z"/><path d="M32.08,88.77v-.44c0-2.32,1.18-3.81,3.1-3.81s3.07,1.55,3.07,3.79v.44c0,2.29-1.11,3.83-3,3.83S32.08,91.06,32.08,88.77Zm5.2,0V88.3c0-1.83-.77-3-2.1-3s-2.12,1.1-2.12,3v.44c0,2,.84,3,2.14,3S37.28,90.73,37.28,88.74Z"/><path d="M13.06,158.46H14v2H8.57v-.42l3-3.09a3.19,3.19,0,0,0,1.13-2.28,1.28,1.28,0,0,0-1.39-1.4c-.91,0-1.5.51-1.65,1.75h-.9a2.47,2.47,0,0,1,2.55-2.52,2.13,2.13,0,0,1,2.36,2.21,4.28,4.28,0,0,1-1.58,2.86L10,159.72h3.08Z"/><path d="M17.54,156.77v-.44c0-2.32,1.17-3.81,3.1-3.81s3.07,1.55,3.07,3.79v.44c0,2.29-1.11,3.83-3.05,3.83S17.54,159.06,17.54,156.77Zm5.2,0v-.44c0-1.83-.77-3-2.1-3s-2.12,1.1-2.12,3v.44c0,2,.83,3,2.14,3S22.74,158.73,22.74,156.74Z"/><path d="M24.81,156.77v-.44c0-2.32,1.18-3.81,3.1-3.81S31,154.07,31,156.31v.44c0,2.29-1.11,3.83-3.05,3.83S24.81,159.06,24.81,156.77Zm5.2,0v-.44c0-1.83-.77-3-2.1-3s-2.12,1.1-2.12,3v.44c0,2,.83,3,2.14,3S30,158.73,30,156.74Z"/><path d="M32.08,156.77v-.44c0-2.32,1.18-3.81,3.1-3.81s3.07,1.55,3.07,3.79v.44c0,2.29-1.11,3.83-3,3.83S32.08,159.06,32.08,156.77Zm5.2,0v-.44c0-1.83-.77-3-2.1-3s-2.12,1.1-2.12,3v.44c0,2,.84,3,2.14,3S37.28,158.73,37.28,156.74Z"/><path d="M11.15,228.48v-.75h1.58v-6.17L11,222.83v-.89l1.83-1.32h.89v7.11h1.54v.75Z"/><path d="M18.51,226.36h.91a1.48,1.48,0,0,0,1.69,1.45,1.67,1.67,0,0,0,1.73-1.88,1.63,1.63,0,0,0-1.65-1.81,2.26,2.26,0,0,0-1.86.76H19v-4.26H23.4v1.62h-.89v-.83H19.77v2.48a2.5,2.5,0,0,1,4.05,2,2.56,2.56,0,0,1-2.7,2.65A2.32,2.32,0,0,1,18.51,226.36Z"/><path d="M24.81,224.77v-.44c0-2.32,1.18-3.81,3.1-3.81S31,222.07,31,224.31v.44c0,2.29-1.11,3.83-3.05,3.83S24.81,227.06,24.81,224.77Zm5.2,0v-.44c0-1.83-.77-3-2.1-3s-2.12,1.1-2.12,3v.44c0,2,.83,3,2.14,3S30,226.73,30,224.74Z"/><path d="M32.08,224.77v-.44c0-2.32,1.18-3.81,3.1-3.81s3.07,1.55,3.07,3.79v.44c0,2.29-1.11,3.83-3,3.83S32.08,227.06,32.08,224.77Zm5.2,0v-.44c0-1.83-.77-3-2.1-3s-2.12,1.1-2.12,3v.44c0,2,.84,3,2.14,3S37.28,226.73,37.28,224.74Z"/><path d="M10.05,296.48v-.75h1.58v-6.17l-1.76,1.27v-.89l1.83-1.32h.89v7.11h1.54v.75Z"/><path d="M17.54,292.77v-.44c0-2.32,1.17-3.81,3.1-3.81s3.07,1.55,3.07,3.79v.44c0,2.29-1.11,3.83-3.05,3.83S17.54,295.06,17.54,292.77Zm5.2,0v-.44c0-1.83-.77-3-2.1-3s-2.12,1.1-2.12,3v.44c0,2,.83,3,2.14,3S22.74,294.73,22.74,292.74Z"/><path d="M24.81,292.77v-.44c0-2.32,1.18-3.81,3.1-3.81S31,290.07,31,292.31v.44c0,2.29-1.11,3.83-3.05,3.83S24.81,295.06,24.81,292.77Zm5.2,0v-.44c0-1.83-.77-3-2.1-3s-2.12,1.1-2.12,3v.44c0,2,.83,3,2.14,3S30,294.73,30,292.74Z"/><path d="M32.08,292.77v-.44c0-2.32,1.18-3.81,3.1-3.81s3.07,1.55,3.07,3.79v.44c0,2.29-1.11,3.83-3,3.83S32.08,295.06,32.08,292.77Zm5.2,0v-.44c0-1.83-.77-3-2.1-3s-2.12,1.1-2.12,3v.44c0,2,.84,3,2.14,3S37.28,294.73,37.28,292.74Z"/><path d="M18.51,362.36h.91a1.48,1.48,0,0,0,1.69,1.45,1.67,1.67,0,0,0,1.73-1.88,1.63,1.63,0,0,0-1.65-1.81,2.26,2.26,0,0,0-1.86.76H19v-4.26H23.4v1.62h-.89v-.83H19.77v2.48a2.5,2.5,0,0,1,4.05,2,2.56,2.56,0,0,1-2.7,2.65A2.32,2.32,0,0,1,18.51,362.36Z"/><path d="M24.81,360.77v-.44c0-2.32,1.18-3.81,3.1-3.81S31,358.07,31,360.31v.44c0,2.29-1.11,3.83-3.05,3.83S24.81,363.06,24.81,360.77Zm5.2,0v-.44c0-1.83-.77-3-2.1-3s-2.12,1.1-2.12,3v.44c0,2,.83,3,2.14,3S30,362.73,30,360.74Z"/><path d="M32.08,360.77v-.44c0-2.32,1.18-3.81,3.1-3.81s3.07,1.55,3.07,3.79v.44c0,2.29-1.11,3.83-3,3.83S32.08,363.06,32.08,360.77Zm5.2,0v-.44c0-1.83-.77-3-2.1-3s-2.12,1.1-2.12,3v.44c0,2,.84,3,2.14,3S37.28,362.73,37.28,360.74Z"/><path d="M32.08,428.77v-.44c0-2.32,1.18-3.81,3.1-3.81s3.07,1.55,3.07,3.79v.44c0,2.29-1.11,3.83-3,3.83S32.08,431.06,32.08,428.77Zm5.2,0v-.44c0-1.83-.77-3-2.1-3s-2.12,1.1-2.12,3v.44c0,2,.84,3,2.14,3S37.28,430.73,37.28,428.74Z"/><line class="cls-4" x1="168.25" y1="9.46" x2="168.25" y2="446.4"/><rect class="cls-1" x="116.68" y="-7.96" width="103.14" height="39.53"/><polyline class="cls-5" points="77.89 147.97 138.25 123.52 198.65 80.97 258.87 123.52 319.26 167.24 379.66 141.38 440.06 140.44 500.45 139.97 560.71 150.79"/><polyline class="cls-6" points="77.89 98.13 138.25 65.46 198.65 162.54 258.87 216.13 319.26 228.35 379.66 134.8 440.06 116 500.45 91.55 560.71 159.25"/><rect class="cls-7" x="414.37" y="103.23" width="38" height="21"/><path class="cls-1" d="M416.8,118.1c4.84-6.49,4.9-6.58,4.9-7.69v-.9c0-1-.36-1.41-1.28-1.41s-1.39.52-1.39,1.78v.94h-2.34v-1.1c0-2.73,1.1-4,3.74-4s3.63,1,3.63,3.4V110c0,1.73-.19,2.16-4.24,8.05h4.27v2.46H416.8Z"/><path class="cls-1" d="M429,120.56c-2.65,0-3.78-1.46-3.78-4.5v-5.87c0-3,1.11-4.48,3.78-4.48s3.79,1.46,3.79,4.48v5.87C432.79,119.09,431.61,120.56,429,120.56Zm0-12.37c-1,0-1.44.49-1.44,2.29v5.31c0,1.8.46,2.27,1.44,2.27s1.45-.47,1.45-2.27v-5.31C430.45,108.68,430,108.19,429,108.19Z"/><path class="cls-1" d="M434,118.1c4.83-6.49,4.9-6.58,4.9-7.69v-.9c0-1-.36-1.41-1.29-1.41s-1.38.52-1.38,1.78v.94h-2.34v-1.1c0-2.73,1.1-4,3.73-4s3.63,1,3.63,3.4V110c0,1.73-.19,2.16-4.24,8.05h4.27v2.46H434Z"/><path class="cls-1" d="M446.2,120.56c-2.65,0-3.78-1.46-3.78-4.5v-5.87c0-3,1.11-4.48,3.78-4.48s3.78,1.46,3.78,4.48v5.87C450,119.09,448.81,120.56,446.2,120.56Zm0-12.37c-1,0-1.45.49-1.45,2.29v5.31c0,1.8.46,2.27,1.45,2.27s1.44-.47,1.44-2.27v-5.31C447.64,108.68,447.2,108.19,446.2,108.19Z"/><rect class="cls-8" x="238.17" y="113.57" width="38" height="21"/><path class="cls-1" d="M242.22,128.44c4.84-6.49,4.9-6.58,4.9-7.69v-.9c0-1-.36-1.41-1.29-1.41s-1.38.53-1.38,1.79v.93h-2.34v-1.1c0-2.73,1.1-4,3.74-4s3.63,1,3.63,3.4v.85c0,1.73-.19,2.16-4.24,8h4.27v2.46h-7.29Z"/><path class="cls-1" d="M254.42,130.9c-2.65,0-3.78-1.46-3.78-4.5v-5.87c0-3,1.11-4.48,3.78-4.48s3.79,1.46,3.79,4.48v5.87C258.21,129.43,257,130.9,254.42,130.9Zm0-12.37c-1,0-1.44.49-1.44,2.29v5.31c0,1.8.45,2.27,1.44,2.27s1.45-.47,1.45-2.27v-5.31C255.87,119,255.43,118.53,254.42,118.53Z"/><path class="cls-1" d="M261.05,130.81V119.33l-1.81.9v-2.58l2.91-1.51h1.24v14.67Z"/><path class="cls-1" d="M264.76,127.34v-1.12H267V127c0,1.24.42,1.67,1.36,1.67s1.4-.49,1.4-2.2v-4.1c0,2.21-.72,3.24-2.37,3.24-2,0-2.76-1.06-2.76-3.49v-2.34c0-2.6,1.24-3.73,3.69-3.73,2.65,0,3.78,1.15,3.78,4v6.68c0,2.72-1.07,4.12-3.75,4.12C265.89,130.9,264.76,129.68,264.76,127.34Zm5-5.37v-1.91c0-1.18-.44-1.62-1.41-1.62S267,118.86,267,120v1.91c0,1.22.47,1.62,1.39,1.62S269.78,123.09,269.78,122Z"/><rect class="cls-1" x="116.68" width="103.14" height="31.53"/><path d="M151.35,4h3.25a4.26,4.26,0,0,1,1.7.33,3.78,3.78,0,0,1,1.31.9,4,4,0,0,1,.85,1.41,5.19,5.19,0,0,1,.3,1.8,5.26,5.26,0,0,1-.3,1.82,3.87,3.87,0,0,1-.85,1.4,3.65,3.65,0,0,1-1.31.9,4.26,4.26,0,0,1-1.7.32h-3.25Zm3.25,7.72a2.57,2.57,0,0,0,1.11-.24,2.45,2.45,0,0,0,.87-.66,3.29,3.29,0,0,0,.56-1,4.35,4.35,0,0,0,.2-1.35,4.27,4.27,0,0,0-.2-1.33,3.29,3.29,0,0,0-.56-1,2.48,2.48,0,0,0-.87-.67,2.51,2.51,0,0,0-1.11-.24h-1.85v6.55Z"/><path d="M166,10.69a2.9,2.9,0,0,1-.24.93,2.26,2.26,0,0,1-.57.73,2.86,2.86,0,0,1-.86.48,3.58,3.58,0,0,1-1.13.17,3.4,3.4,0,0,1-1.35-.24,2.48,2.48,0,0,1-.94-.67,2.89,2.89,0,0,1-.55-1.06,5.14,5.14,0,0,1-.17-1.35,4.81,4.81,0,0,1,.18-1.36A3,3,0,0,1,161,7.27a2.46,2.46,0,0,1,.93-.69,3.38,3.38,0,0,1,1.32-.24,3.34,3.34,0,0,1,1.29.23,2.32,2.32,0,0,1,.88.66,2.83,2.83,0,0,1,.49,1A5.36,5.36,0,0,1,166,9.67v.2H161.5a2.44,2.44,0,0,0,.46,1.58,1.45,1.45,0,0,0,1.19.52,1.71,1.71,0,0,0,1.09-.33,1.41,1.41,0,0,0,.5-1ZM164.75,9a2,2,0,0,0-.42-1.2,1.36,1.36,0,0,0-1.13-.48,1.56,1.56,0,0,0-1.15.42A1.94,1.94,0,0,0,161.52,9Zm-.87-5h1.56l-1.78,1.73h-1Z"/><path d="M167.82,4h1.29V7.46h0a2.45,2.45,0,0,1,.79-.81,2.4,2.4,0,0,1,1.28-.31,2.61,2.61,0,0,1,1.19.26,2.35,2.35,0,0,1,.85.68,3.23,3.23,0,0,1,.52,1,4.78,4.78,0,0,1,.17,1.34,4.79,4.79,0,0,1-.18,1.35,3.42,3.42,0,0,1-.54,1.06,2.28,2.28,0,0,1-.86.68,2.7,2.7,0,0,1-1.16.24,2.28,2.28,0,0,1-1.26-.31,2.58,2.58,0,0,1-.8-.84h0v1h-1.29Zm3,8a1.58,1.58,0,0,0,1.31-.6,2.78,2.78,0,0,0,.48-1.75A2.79,2.79,0,0,0,172.16,8a1.56,1.56,0,0,0-1.34-.62,1.46,1.46,0,0,0-1.31.62,3.11,3.11,0,0,0-.42,1.74,3,3,0,0,0,.42,1.72A1.48,1.48,0,0,0,170.83,12Z"/><path d="M175.59,6.46h1.28v3.86a2.2,2.2,0,0,0,.26,1.18,1,1,0,0,0,.93.4,1.53,1.53,0,0,0,1.19-.48,1.85,1.85,0,0,0,.43-1.28V6.46H181v6.42h-1.29v-1h0a2.42,2.42,0,0,1-.78.84,2.16,2.16,0,0,1-1.23.31,1.86,1.86,0,0,1-1.58-.61,2.74,2.74,0,0,1-.47-1.73Z"/><path d="M183.06,7.52h-.9V6.46h.9V4.81h1.28V6.46h1.5V7.52h-1.5v3.37a1,1,0,0,0,.23.72,1,1,0,0,0,.68.22l.31,0,.32,0v1.14l-.4.06a3.09,3.09,0,0,1-.45,0,2.06,2.06,0,0,1-1.45-.48,2,2,0,0,1-.52-1.56Z"/><path d="M126.91,23.85h0a2.39,2.39,0,0,1-.78.83,2.23,2.23,0,0,1-1.28.32,2.78,2.78,0,0,1-1.19-.24,2.25,2.25,0,0,1-.84-.69,3,3,0,0,1-.52-1.05,4.7,4.7,0,0,1-.17-1.33,4.81,4.81,0,0,1,.18-1.36,2.92,2.92,0,0,1,.52-1.06,2.47,2.47,0,0,1,.86-.68,2.72,2.72,0,0,1,1.17-.25,2.35,2.35,0,0,1,1.26.31,2.45,2.45,0,0,1,.79.81h0V16h1.28v8.88h-1.28Zm-1.72.17a1.47,1.47,0,0,0,1.32-.62,3.17,3.17,0,0,0,.41-1.75,3,3,0,0,0-.42-1.71,1.48,1.48,0,0,0-1.32-.61,1.57,1.57,0,0,0-1.31.61,2.78,2.78,0,0,0-.48,1.75,2.81,2.81,0,0,0,.47,1.72A1.57,1.57,0,0,0,125.19,24Z"/><path d="M130.25,18.46h1.29v3.86a2.11,2.11,0,0,0,.26,1.18,1,1,0,0,0,.93.4,1.51,1.51,0,0,0,1.18-.48,1.8,1.8,0,0,0,.43-1.28V18.46h1.29v6.42h-1.29v-1h0a2.63,2.63,0,0,1-.78.84,2.17,2.17,0,0,1-1.24.31,1.86,1.86,0,0,1-1.58-.61,2.8,2.8,0,0,1-.47-1.73Z"/><path d="M146.68,22.52a2.48,2.48,0,0,1-.79,1.85,2.94,2.94,0,0,1-2,.63,3.48,3.48,0,0,1-1.34-.24,2.4,2.4,0,0,1-.94-.68,3,3,0,0,1-.57-1,4.79,4.79,0,0,1-.18-1.35,4.47,4.47,0,0,1,.19-1.36,3.13,3.13,0,0,1,.58-1.05,2.5,2.5,0,0,1,.94-.69,3.36,3.36,0,0,1,1.31-.24,2.94,2.94,0,0,1,2,.65,2.55,2.55,0,0,1,.79,1.86h-1.27a1.59,1.59,0,0,0-.47-1.07,1.49,1.49,0,0,0-1.07-.38,1.54,1.54,0,0,0-1.27.56,2.69,2.69,0,0,0-.45,1.71,2.73,2.73,0,0,0,.45,1.71,1.51,1.51,0,0,0,1.27.57,1.53,1.53,0,0,0,1.08-.36,1.61,1.61,0,0,0,.46-1.07Z"/><path d="M151.28,25a3.54,3.54,0,0,1-1.33-.24,2.93,2.93,0,0,1-1-.67A3.23,3.23,0,0,1,148.3,23a3.86,3.86,0,0,1-.22-1.35,3.92,3.92,0,0,1,.22-1.36,3,3,0,0,1,.64-1.06,3,3,0,0,1,1-.68,3.54,3.54,0,0,1,1.33-.24,3.49,3.49,0,0,1,1.32.24,2.83,2.83,0,0,1,1.66,1.74,3.7,3.7,0,0,1,.23,1.36,3.65,3.65,0,0,1-.23,1.35,3.07,3.07,0,0,1-.64,1.06,2.88,2.88,0,0,1-1,.67A3.49,3.49,0,0,1,151.28,25Zm0-1a1.68,1.68,0,0,0,1.4-.63,2.6,2.6,0,0,0,.51-1.69,2.64,2.64,0,0,0-.51-1.71,1.87,1.87,0,0,0-2.8,0,2.64,2.64,0,0,0-.51,1.71,2.6,2.6,0,0,0,.51,1.69A1.69,1.69,0,0,0,151.28,24Z"/><path d="M156.15,18.46h1.28v1h0a2.57,2.57,0,0,1,.81-.83,2.48,2.48,0,0,1,1.3-.3,1.91,1.91,0,0,1,1.62.62,2.71,2.71,0,0,1,.47,1.72v4.2h-1.28V21a2.07,2.07,0,0,0-.28-1.19,1.12,1.12,0,0,0-1-.39,1.6,1.6,0,0,0-1.23.47,1.77,1.77,0,0,0-.46,1.29v3.67h-1.28Z"/><path d="M163.89,19.56H163V18.5h.86v-.58a2.06,2.06,0,0,1,.5-1.56,2,2,0,0,1,1.42-.48,2.58,2.58,0,0,1,.42,0,2,2,0,0,1,.38.08V17.1a2,2,0,0,0-.31-.05H166a.74.74,0,0,0-.86.88v.58h1.41v1.06h-1.41v5.38h-1.28Z"/><path d="M168.49,17.34a.78.78,0,0,1-.59-.24.8.8,0,0,1-.23-.58.86.86,0,0,1,.22-.59.78.78,0,0,1,.6-.24.84.84,0,0,1,.59.23.81.81,0,0,1,.24.6.77.77,0,0,1-.24.58A.81.81,0,0,1,168.49,17.34Zm-.64,1.12h1.29v6.42h-1.29Z"/><path d="M171.2,18.46h1.28v1h0a2.5,2.5,0,0,1,.82-.83,2.41,2.41,0,0,1,1.29-.3,1.91,1.91,0,0,1,1.62.62,2.71,2.71,0,0,1,.48,1.72v4.2h-1.29V21a2.07,2.07,0,0,0-.28-1.19,1.12,1.12,0,0,0-1-.39,1.61,1.61,0,0,0-1.23.47,1.77,1.77,0,0,0-.46,1.29v3.67H171.2Z"/><path d="M184.16,22.69a2.46,2.46,0,0,1-.24.93,2.26,2.26,0,0,1-.57.73,2.81,2.81,0,0,1-.85.48,3.64,3.64,0,0,1-1.14.17,3.43,3.43,0,0,1-1.35-.24,2.48,2.48,0,0,1-.94-.67,2.73,2.73,0,0,1-.54-1.06,4.74,4.74,0,0,1-.18-1.35,4.47,4.47,0,0,1,.19-1.36,2.79,2.79,0,0,1,.56-1.05,2.42,2.42,0,0,1,.94-.69,3.71,3.71,0,0,1,2.6,0,2.25,2.25,0,0,1,.88.66,2.85,2.85,0,0,1,.5,1.05,5.86,5.86,0,0,1,.15,1.39v.2h-4.52a2.5,2.5,0,0,0,.46,1.58,1.46,1.46,0,0,0,1.19.52,1.71,1.71,0,0,0,1.09-.33,1.37,1.37,0,0,0,.5-.95ZM182.9,21a2,2,0,0,0-.41-1.2,1.38,1.38,0,0,0-1.14-.48,1.58,1.58,0,0,0-1.15.42,1.94,1.94,0,0,0-.53,1.26Z"/><path d="M186,18.46h1.28v1h0a2.4,2.4,0,0,1,.72-.82,2,2,0,0,1,1.16-.31,2.06,2.06,0,0,1,1.18.31,1.78,1.78,0,0,1,.64.88h0a2.42,2.42,0,0,1,.79-.88,2.23,2.23,0,0,1,1.2-.31,1.85,1.85,0,0,1,1.54.6,2.73,2.73,0,0,1,.48,1.74v4.2h-1.27V21a2,2,0,0,0-.28-1.2,1,1,0,0,0-.85-.38,1.42,1.42,0,0,0-1.06.41,1.75,1.75,0,0,0-.4,1.26v3.76h-1.29V21a2.38,2.38,0,0,0-.24-1.19.92.92,0,0,0-.86-.39,1.34,1.34,0,0,0-1.1.46,2,2,0,0,0-.39,1.3v3.67H186Z"/><path d="M202.46,22.69a2.46,2.46,0,0,1-.24.93,2.1,2.1,0,0,1-.56.73,2.86,2.86,0,0,1-.86.48,3.58,3.58,0,0,1-1.13.17,3.48,3.48,0,0,1-1.36-.24,2.45,2.45,0,0,1-.93-.67,2.89,2.89,0,0,1-.55-1.06,4.75,4.75,0,0,1-.17-1.35,4.81,4.81,0,0,1,.18-1.36,2.79,2.79,0,0,1,.56-1.05,2.58,2.58,0,0,1,.94-.69,3.74,3.74,0,0,1,2.61,0,2.29,2.29,0,0,1,.87.66,2.7,2.7,0,0,1,.5,1.05,5.84,5.84,0,0,1,.16,1.39v.2H198a2.56,2.56,0,0,0,.46,1.58,1.46,1.46,0,0,0,1.19.52,1.74,1.74,0,0,0,1.1-.33,1.36,1.36,0,0,0,.49-.95ZM201.2,21a1.89,1.89,0,0,0-.41-1.2,1.38,1.38,0,0,0-1.13-.48,1.6,1.6,0,0,0-1.16.42A1.94,1.94,0,0,0,198,21Z"/><path d="M204.28,18.46h1.28v1h0a2.39,2.39,0,0,1,.81-.83,2.44,2.44,0,0,1,1.29-.3,1.94,1.94,0,0,1,1.63.62,2.77,2.77,0,0,1,.47,1.72v4.2H208.5V21a2.07,2.07,0,0,0-.28-1.19,1.1,1.1,0,0,0-1-.39,1.64,1.64,0,0,0-1.24.47,1.82,1.82,0,0,0-.46,1.29v3.67h-1.28Z"/><path d="M211.86,19.52H211V18.46h.89V16.81h1.29v1.65h1.5v1.06h-1.5v3.37a1,1,0,0,0,.22.72,1,1,0,0,0,.69.22l.3,0,.33,0v1.14l-.4.06a3.23,3.23,0,0,1-.46,0,1.77,1.77,0,0,1-2-2Z"/></g></svg>