<?xml version="1.0" encoding="utf-8"?>
<!-- Generator: Adobe Illustrator 24.0.3, SVG Export Plug-In . SVG Version: 6.00 Build 0)  -->
<svg version="1.1" id="Calque_1" xmlns="http://www.w3.org/2000/svg" xmlns:xlink="http://www.w3.org/1999/xlink" x="0px" y="0px"
	 viewBox="0 0 600 315.4" style="enable-background:new 0 0 600 315.4;" xml:space="preserve">
<style type="text/css">
	.st0{fill:none;stroke:#C6C6C6;stroke-width:0.5;stroke-miterlimit:10;}
	.st1{fill:none;stroke:#C6C6C6;stroke-width:2;stroke-linecap:round;stroke-miterlimit:10;}
	.st2{fill:none;stroke:#E3234A;stroke-width:2;stroke-linecap:round;stroke-miterlimit:10;}
	.st3{fill:none;stroke:#231F20;stroke-width:0.5;stroke-miterlimit:10;stroke-dasharray:5,2;}
	.st4{fill:none;stroke:#231F20;stroke-width:2;stroke-miterlimit:10;}
	.st5{fill:#E3234A;}
	.st6{fill:#FFFFFF;}
	.st7{fill:#C6C6C6;}
</style>
<title>LIB-2020-05-07-NOx</title>
<g id="HABILLAGE">
	<line class="st0" x1="24.5" y1="283.8" x2="273.5" y2="283.8"/>
	<line class="st0" x1="24.5" y1="221.5" x2="273.5" y2="221.5"/>
	<line class="st0" x1="24.5" y1="159.3" x2="273.5" y2="159.3"/>
	<line class="st0" x1="24.5" y1="97" x2="273.5" y2="97"/>
	<path d="M11.8,282.8v-0.5c0-2.3,1.2-3.8,3.1-3.8s3.1,1.6,3.1,3.8v0.4c0,2.3-1.1,3.8-3,3.8S11.8,285,11.8,282.8z M17,282.8v-0.5
		c0-1.8-0.8-3-2.1-3s-2.1,1.1-2.1,3v0.4c0,2,0.8,3,2.1,3S17,284.7,17,282.8L17,282.8z"/>
	<path d="M10.9,222.2h0.9v2H6.4v-0.4l3.1-3.1c0.7-0.6,1.1-1.4,1.1-2.3c0.1-0.7-0.4-1.3-1.2-1.4c-0.1,0-0.2,0-0.2,0
		c-0.9,0-1.5,0.5-1.7,1.8H6.6c0-1.4,1-2.5,2.4-2.5c0,0,0.1,0,0.1,0c1.2-0.1,2.2,0.7,2.4,1.9c0,0.1,0,0.2,0,0.3
		c-0.1,1.1-0.7,2.2-1.6,2.9l-2.2,2.1h3.1V222.2z"/>
	<path d="M12.7,222.1h0.9c0,0.8,0.7,1.5,1.5,1.5c0.1,0,0.1,0,0.2,0c0.9,0,1.7-0.7,1.7-1.6c0-0.1,0-0.2,0-0.3
		c0.1-0.9-0.5-1.7-1.4-1.8c-0.1,0-0.1,0-0.2,0c-0.7-0.1-1.4,0.2-1.9,0.8h-0.4v-4.3h4.4v1.6h-0.9v-0.8h-2.7v2.5
		c0.4-0.4,1-0.6,1.6-0.5c1.3,0,2.4,1,2.5,2.3c0,0.1,0,0.2,0,0.3c0.1,1.4-1.1,2.6-2.5,2.7c-0.1,0-0.2,0-0.2,0c-1.3,0.2-2.4-0.7-2.6-2
		C12.7,222.2,12.7,222.2,12.7,222.1z"/>
	<path d="M5.5,159.8h0.9c0,0.8,0.7,1.5,1.5,1.5c0.1,0,0.1,0,0.2,0c0.9,0,1.7-0.7,1.7-1.6c0-0.1,0-0.2,0-0.3c0.1-0.9-0.5-1.7-1.4-1.8
		c-0.1,0-0.1,0-0.2,0c-0.7-0.1-1.4,0.2-1.9,0.8H6v-4.3h4.4v1.6H9.5v-0.8H6.8v2.5c0.4-0.4,1-0.6,1.6-0.5c1.3,0,2.4,1,2.4,2.3
		c0,0.1,0,0.2,0,0.3c0.1,1.4-1.1,2.6-2.5,2.7c-0.1,0-0.2,0-0.2,0c-1.3,0.2-2.4-0.7-2.6-2C5.5,160,5.5,159.9,5.5,159.8z"/>
	<path d="M11.8,158.3v-0.4c0-2.3,1.2-3.8,3.1-3.8s3.1,1.6,3.1,3.8v0.4c0,2.3-1.1,3.8-3,3.8S11.8,160.5,11.8,158.3z M17,158.3v-0.4
		c0-1.8-0.8-3-2.1-3s-2.1,1.1-2.1,3v0.4c0,2,0.8,3,2.1,3S17,160.2,17,158.3L17,158.3z"/>
	<path d="M7.6,93.8H6.7v-2h5.4v0.3l-2.9,7.6h-1l2.7-7.1H7.6V93.8z"/>
	<path d="M12.7,97.6h0.9c0,0.8,0.7,1.5,1.5,1.5c0.1,0,0.1,0,0.2,0c0.9,0,1.7-0.7,1.7-1.6c0-0.1,0-0.2,0-0.3c0.1-0.9-0.5-1.7-1.4-1.8
		c-0.1,0-0.1,0-0.2,0c-0.7-0.1-1.4,0.2-1.9,0.8h-0.4v-4.3h4.4v1.6h-0.9v-0.8h-2.7v2.5c0.4-0.4,1-0.6,1.6-0.5c1.3,0,2.4,1,2.5,2.3
		c0,0.1,0,0.2,0,0.3c0.1,1.4-1.1,2.6-2.5,2.7c-0.1,0-0.2,0-0.2,0c-1.3,0.2-2.5-0.7-2.6-2C12.7,97.7,12.7,97.6,12.7,97.6z"/>
	<line class="st1" x1="39.7" y1="146.4" x2="37.7" y2="160.8"/>
	<line class="st1" x1="41.8" y1="142.4" x2="39.7" y2="146.4"/>
	<line class="st1" x1="43.8" y1="141.2" x2="41.8" y2="142.4"/>
	<line class="st1" x1="45.9" y1="139.4" x2="43.8" y2="141.2"/>
	<line class="st1" x1="47.9" y1="129.5" x2="45.9" y2="139.4"/>
	<line class="st1" x1="49.9" y1="118.2" x2="47.9" y2="129.5"/>
	<line class="st1" x1="52" y1="111" x2="49.9" y2="118.2"/>
	<line class="st1" x1="54" y1="118.7" x2="52" y2="111"/>
	<line class="st1" x1="56.1" y1="103.1" x2="54" y2="118.7"/>
	<line class="st1" x1="58.1" y1="91.1" x2="56.1" y2="103.1"/>
	<line class="st1" x1="60.2" y1="83.9" x2="58.1" y2="91.1"/>
	<line class="st1" x1="62.2" y1="81.1" x2="60.2" y2="83.9"/>
	<line class="st1" x1="64.2" y1="74.9" x2="62.2" y2="81.1"/>
	<line class="st1" x1="66.3" y1="84.1" x2="64.2" y2="74.9"/>
	<line class="st1" x1="68.3" y1="82.1" x2="66.3" y2="84.1"/>
	<line class="st1" x1="70.3" y1="94.8" x2="68.3" y2="82.1"/>
	<line class="st1" x1="72.4" y1="108.5" x2="70.3" y2="94.8"/>
	<line class="st1" x1="74.4" y1="118.2" x2="72.4" y2="108.5"/>
	<line class="st1" x1="76.5" y1="118" x2="74.4" y2="118.2"/>
	<line class="st1" x1="78.5" y1="133.4" x2="76.5" y2="118"/>
	<line class="st1" x1="80.6" y1="133.9" x2="78.5" y2="133.4"/>
	<line class="st1" x1="82.6" y1="143.6" x2="80.6" y2="133.9"/>
	<line class="st1" x1="84.6" y1="150.6" x2="82.6" y2="143.6"/>
	<line class="st1" x1="86.7" y1="147.4" x2="84.6" y2="150.6"/>
	<line class="st1" x1="88.7" y1="138.2" x2="86.7" y2="147.4"/>
	<line class="st1" x1="90.8" y1="150.1" x2="88.7" y2="138.2"/>
	<line class="st1" x1="92.8" y1="158.6" x2="90.8" y2="150.1"/>
	<line class="st1" x1="94.8" y1="157.6" x2="92.8" y2="158.6"/>
	<line class="st1" x1="96.9" y1="151.1" x2="94.8" y2="157.6"/>
	<line class="st1" x1="98.9" y1="133.2" x2="96.9" y2="151.1"/>
	<line class="st1" x1="101" y1="118.7" x2="98.9" y2="133.2"/>
	<line class="st1" x1="103" y1="116.5" x2="101" y2="118.7"/>
	<line class="st1" x1="105.1" y1="110.8" x2="103" y2="116.5"/>
	<line class="st1" x1="107.1" y1="101.8" x2="105.1" y2="110.8"/>
	<line class="st1" x1="109.1" y1="107" x2="107.1" y2="101.8"/>
	<line class="st1" x1="111.2" y1="117.5" x2="109.1" y2="107"/>
	<line class="st1" x1="113.2" y1="130.7" x2="111.2" y2="117.5"/>
	<line class="st1" x1="115.2" y1="131.4" x2="113.2" y2="130.7"/>
	<line class="st1" x1="117.3" y1="119" x2="115.2" y2="131.4"/>
	<line class="st1" x1="119.3" y1="110.5" x2="117.3" y2="119"/>
	<line class="st1" x1="121.4" y1="103.6" x2="119.3" y2="110.5"/>
	<line class="st1" x1="123.4" y1="83.6" x2="121.4" y2="103.6"/>
	<line class="st1" x1="125.5" y1="68" x2="123.4" y2="83.6"/>
	<line class="st1" x1="127.5" y1="51.3" x2="125.5" y2="68"/>
	<line class="st1" x1="129.5" y1="43.5" x2="127.5" y2="51.3"/>
	<line class="st1" x1="131.6" y1="66.2" x2="129.5" y2="43.5"/>
	<line class="st1" x1="133.6" y1="80.6" x2="131.6" y2="66.2"/>
	<line class="st1" x1="135.7" y1="79.7" x2="133.6" y2="80.6"/>
	<line class="st1" x1="137.7" y1="81.4" x2="135.7" y2="79.7"/>
	<line class="st1" x1="139.7" y1="74.4" x2="137.7" y2="81.4"/>
	<line class="st1" x1="141.8" y1="73.9" x2="139.7" y2="74.4"/>
	<line class="st1" x1="143.8" y1="77.2" x2="141.8" y2="73.9"/>
	<line class="st1" x1="145.9" y1="71.7" x2="143.8" y2="77.2"/>
	<line class="st1" x1="147.9" y1="62.2" x2="145.9" y2="71.7"/>
	<line class="st1" x1="149.9" y1="66.5" x2="147.9" y2="62.2"/>
	<line class="st1" x1="152" y1="73.7" x2="149.9" y2="66.5"/>
	<line class="st1" x1="154" y1="83.9" x2="152" y2="73.7"/>
	<line class="st1" x1="156.1" y1="85.9" x2="154" y2="83.9"/>
	<line class="st1" x1="158.1" y1="91.6" x2="156.1" y2="85.9"/>
	<line class="st1" x1="160.1" y1="84.9" x2="158.1" y2="91.6"/>
	<line class="st1" x1="162.2" y1="86.1" x2="160.1" y2="84.9"/>
	<line class="st1" x1="164.2" y1="90.6" x2="162.2" y2="86.1"/>
	<line class="st1" x1="166.3" y1="100.6" x2="164.2" y2="90.6"/>
	<line class="st1" x1="168.3" y1="94.8" x2="166.3" y2="100.6"/>
	<line class="st1" x1="170.4" y1="109.8" x2="168.3" y2="94.8"/>
	<line class="st1" x1="172.4" y1="116.8" x2="170.4" y2="109.8"/>
	<line class="st1" x1="174.4" y1="119.2" x2="172.4" y2="116.8"/>
	<line class="st1" x1="176.5" y1="115.5" x2="174.4" y2="119.2"/>
	<line class="st1" x1="178.5" y1="112.3" x2="176.5" y2="115.5"/>
	<line class="st1" x1="180.6" y1="108.5" x2="178.5" y2="112.3"/>
	<line class="st1" x1="182.6" y1="126.5" x2="180.6" y2="108.5"/>
	<line class="st1" x1="184.6" y1="130.9" x2="182.6" y2="126.5"/>
	<line class="st1" x1="186.7" y1="132.4" x2="184.6" y2="130.9"/>
	<line class="st1" x1="188.7" y1="125.7" x2="186.7" y2="132.4"/>
	<line class="st1" x1="190.8" y1="134.2" x2="188.7" y2="125.7"/>
	<line class="st1" x1="192.8" y1="134.9" x2="190.8" y2="134.2"/>
	<line class="st1" x1="194.9" y1="142.9" x2="192.8" y2="134.9"/>
	<line class="st1" x1="196.9" y1="146.6" x2="194.9" y2="142.9"/>
	<line class="st1" x1="198.9" y1="151.4" x2="196.9" y2="146.6"/>
	<line class="st1" x1="201" y1="155.8" x2="198.9" y2="151.4"/>
	<line class="st1" x1="203" y1="156.8" x2="201" y2="155.8"/>
	<line class="st1" x1="205.1" y1="144.4" x2="203" y2="156.8"/>
	<line class="st1" x1="207.1" y1="137.7" x2="205.1" y2="144.4"/>
	<line class="st1" x1="209.1" y1="105.5" x2="207.1" y2="137.7"/>
	<line class="st1" x1="211.2" y1="78.7" x2="209.1" y2="105.5"/>
	<line class="st1" x1="213.2" y1="71.4" x2="211.2" y2="78.7"/>
	<line class="st1" x1="215.3" y1="65.2" x2="213.2" y2="71.4"/>
	<line class="st1" x1="217.3" y1="72.2" x2="215.3" y2="65.2"/>
	<line class="st1" x1="219.3" y1="73.4" x2="217.3" y2="72.2"/>
	<line class="st1" x1="221.4" y1="82.1" x2="219.3" y2="73.4"/>
	<line class="st1" x1="223.4" y1="104.3" x2="221.4" y2="82.1"/>
	<line class="st1" x1="225.5" y1="121.5" x2="223.4" y2="104.3"/>
	<line class="st1" x1="227.5" y1="124.5" x2="225.5" y2="121.5"/>
	<line class="st1" x1="229.6" y1="136.9" x2="227.5" y2="124.5"/>
	<line class="st1" x1="231.6" y1="148.9" x2="229.6" y2="136.9"/>
	<line class="st1" x1="233.6" y1="170" x2="231.6" y2="148.9"/>
	<line class="st1" x1="235.7" y1="180" x2="233.6" y2="170"/>
	<line class="st1" x1="237.7" y1="179" x2="235.7" y2="180"/>
	<line class="st1" x1="239.8" y1="166.1" x2="237.7" y2="179"/>
	<line class="st1" x1="241.8" y1="151.1" x2="239.8" y2="166.1"/>
	<line class="st1" x1="243.8" y1="128.7" x2="241.8" y2="151.1"/>
	<line class="st1" x1="245.9" y1="99.8" x2="243.8" y2="128.7"/>
	<line class="st1" x1="247.9" y1="85.6" x2="245.9" y2="99.8"/>
	<line class="st1" x1="250" y1="75.2" x2="247.9" y2="85.6"/>
	<line class="st1" x1="252" y1="75.7" x2="250" y2="75.2"/>
	<line class="st1" x1="254" y1="81.4" x2="252" y2="75.7"/>
	<line class="st1" x1="256.1" y1="84.9" x2="254" y2="81.4"/>
	<line class="st1" x1="258.1" y1="90.4" x2="256.1" y2="84.9"/>
	<line class="st1" x1="260.2" y1="111.8" x2="258.1" y2="90.4"/>
	<line class="st1" x1="262.2" y1="119.7" x2="260.2" y2="111.8"/>
	<line class="st1" x1="264.2" y1="126.7" x2="262.2" y2="119.7"/>
	<line class="st1" x1="266.3" y1="136.7" x2="264.2" y2="126.7"/>
	<line class="st1" x1="268.3" y1="152.6" x2="266.3" y2="136.7"/>
	<line class="st1" x1="270.4" y1="166.6" x2="268.3" y2="152.6"/>
	<line class="st1" x1="272.4" y1="170" x2="270.4" y2="166.6"/>
	<line class="st2" x1="27.9" y1="134.3" x2="25.9" y2="138.8"/>
	<line class="st2" x1="29.9" y1="119.4" x2="27.9" y2="134.3"/>
	<line class="st2" x1="31.9" y1="110.7" x2="29.9" y2="119.4"/>
	<line class="st2" x1="33.8" y1="103.7" x2="31.9" y2="110.7"/>
	<line class="st2" x1="35.8" y1="91.8" x2="33.8" y2="103.7"/>
	<line class="st2" x1="37.8" y1="91.3" x2="35.8" y2="91.8"/>
	<line class="st2" x1="39.8" y1="75.3" x2="37.8" y2="91.3"/>
	<line class="st2" x1="41.8" y1="70.4" x2="39.8" y2="75.3"/>
	<line class="st2" x1="43.8" y1="83.8" x2="41.8" y2="70.4"/>
	<line class="st2" x1="45.8" y1="83.8" x2="43.8" y2="83.8"/>
	<line class="st2" x1="47.8" y1="82.6" x2="45.8" y2="83.8"/>
	<line class="st2" x1="49.8" y1="83.5" x2="47.8" y2="82.6"/>
	<line class="st2" x1="51.8" y1="82.8" x2="49.8" y2="83.5"/>
	<line class="st2" x1="53.8" y1="82.1" x2="51.8" y2="82.8"/>
	<line class="st2" x1="55.8" y1="81.3" x2="53.8" y2="82.1"/>
	<line class="st2" x1="57.7" y1="72.8" x2="55.8" y2="81.3"/>
	<line class="st2" x1="59.7" y1="72.6" x2="57.7" y2="72.8"/>
	<line class="st2" x1="61.7" y1="88.3" x2="59.7" y2="72.6"/>
	<line class="st2" x1="63.7" y1="105.2" x2="61.7" y2="88.3"/>
	<line class="st2" x1="65.7" y1="108.2" x2="63.7" y2="105.2"/>
	<line class="st2" x1="67.7" y1="121.4" x2="65.7" y2="108.2"/>
	<line class="st2" x1="69.7" y1="138.1" x2="67.7" y2="121.4"/>
	<line class="st2" x1="71.7" y1="150.3" x2="69.7" y2="138.1"/>
	<line class="st2" x1="73.7" y1="152.5" x2="71.7" y2="150.3"/>
	<line class="st2" x1="75.7" y1="138.6" x2="73.7" y2="152.5"/>
	<line class="st2" x1="77.7" y1="134.1" x2="75.7" y2="138.6"/>
	<line class="st2" x1="79.7" y1="143.6" x2="77.7" y2="134.1"/>
	<line class="st2" x1="81.7" y1="141.8" x2="79.7" y2="143.6"/>
	<line class="st2" x1="83.6" y1="138.1" x2="81.7" y2="141.8"/>
	<line class="st2" x1="85.6" y1="136.6" x2="83.6" y2="138.1"/>
	<line class="st2" x1="87.6" y1="137.8" x2="85.6" y2="136.6"/>
	<line class="st2" x1="89.6" y1="143.3" x2="87.6" y2="137.8"/>
	<line class="st2" x1="91.6" y1="143.6" x2="89.6" y2="143.3"/>
	<line class="st2" x1="93.6" y1="148.8" x2="91.6" y2="143.6"/>
	<line class="st2" x1="95.6" y1="163.2" x2="93.6" y2="148.8"/>
	<line class="st2" x1="97.6" y1="163.7" x2="95.6" y2="163.2"/>
	<line class="st2" x1="99.6" y1="157.3" x2="97.6" y2="163.7"/>
	<line class="st2" x1="101.6" y1="152.3" x2="99.6" y2="157.3"/>
	<line class="st2" x1="103.6" y1="147.5" x2="101.6" y2="152.3"/>
	<line class="st2" x1="105.6" y1="143.6" x2="103.6" y2="147.5"/>
	<line class="st2" x1="107.5" y1="140.8" x2="105.6" y2="143.6"/>
	<line class="st2" x1="109.5" y1="136.3" x2="107.5" y2="140.8"/>
	<line class="st2" x1="111.5" y1="141.1" x2="109.5" y2="136.3"/>
	<line class="st2" x1="113.5" y1="156.3" x2="111.5" y2="141.1"/>
	<line class="st2" x1="115.5" y1="167.2" x2="113.5" y2="156.3"/>
	<line class="st2" x1="117.5" y1="181.4" x2="115.5" y2="167.2"/>
	<line class="st2" x1="119.5" y1="186.1" x2="117.5" y2="181.4"/>
	<line class="st2" x1="121.5" y1="185.4" x2="119.5" y2="186.1"/>
	<line class="st2" x1="123.5" y1="183.6" x2="121.5" y2="185.4"/>
	<line class="st2" x1="125.5" y1="181.7" x2="123.5" y2="183.6"/>
	<line class="st2" x1="127.5" y1="184.4" x2="125.5" y2="181.7"/>
	<line class="st2" x1="129.4" y1="180.2" x2="127.5" y2="184.4"/>
	<line class="st2" x1="131.4" y1="167.5" x2="129.4" y2="180.2"/>
	<line class="st2" x1="133.4" y1="170" x2="131.4" y2="167.5"/>
	<line class="st2" x1="135.4" y1="169.7" x2="133.4" y2="170"/>
	<line class="st2" x1="137.4" y1="176.9" x2="135.4" y2="169.7"/>
	<line class="st2" x1="139.4" y1="181.7" x2="137.4" y2="176.9"/>
	<line class="st2" x1="141.4" y1="178.7" x2="139.4" y2="181.7"/>
	<line class="st2" x1="143.4" y1="180.7" x2="141.4" y2="178.7"/>
	<line class="st2" x1="145.4" y1="187.6" x2="143.4" y2="180.7"/>
	<line class="st2" x1="147.4" y1="195.6" x2="145.4" y2="187.6"/>
	<line class="st2" x1="149.4" y1="199.3" x2="147.4" y2="195.6"/>
	<line class="st2" x1="151.4" y1="194.9" x2="149.4" y2="199.3"/>
	<line class="st2" x1="153.4" y1="194.9" x2="151.4" y2="194.9"/>
	<line class="st2" x1="155.4" y1="197.8" x2="153.4" y2="194.9"/>
	<line class="st2" x1="157.3" y1="206.3" x2="155.4" y2="197.8"/>
	<line class="st2" x1="159.3" y1="205.3" x2="157.3" y2="206.3"/>
	<line class="st2" x1="161.3" y1="203.8" x2="159.3" y2="205.3"/>
	<line class="st2" x1="163.3" y1="199.1" x2="161.3" y2="203.8"/>
	<line class="st2" x1="165.3" y1="199.6" x2="163.3" y2="199.1"/>
	<line class="st2" x1="167.3" y1="199.8" x2="165.3" y2="199.6"/>
	<line class="st2" x1="169.3" y1="204.1" x2="167.3" y2="199.8"/>
	<line class="st2" x1="171.3" y1="204.1" x2="169.3" y2="204.1"/>
	<line class="st2" x1="173.3" y1="209" x2="171.3" y2="204.1"/>
	<line class="st2" x1="175.3" y1="205.6" x2="173.3" y2="209"/>
	<line class="st2" x1="177.3" y1="211.5" x2="175.3" y2="205.6"/>
	<line class="st2" x1="179.2" y1="225" x2="177.3" y2="211.5"/>
	<line class="st2" x1="181.2" y1="224" x2="179.2" y2="225"/>
	<line class="st2" x1="183.2" y1="221" x2="181.2" y2="224"/>
	<line class="st2" x1="185.2" y1="228.2" x2="183.2" y2="221"/>
	<line class="st2" x1="187.2" y1="235.9" x2="185.2" y2="228.2"/>
	<line class="st2" x1="189.2" y1="250.6" x2="187.2" y2="235.9"/>
	<line class="st2" x1="191.2" y1="256.9" x2="189.2" y2="250.6"/>
	<line class="st2" x1="193.2" y1="250.6" x2="191.2" y2="256.9"/>
	<line class="st2" x1="195.2" y1="256.9" x2="193.2" y2="250.6"/>
	<line class="st2" x1="197.2" y1="260.6" x2="195.2" y2="256.9"/>
	<line class="st2" x1="199.2" y1="254.9" x2="197.2" y2="260.6"/>
	<line class="st2" x1="201.2" y1="252.1" x2="199.2" y2="254.9"/>
	<line class="st2" x1="203.2" y1="248.6" x2="201.2" y2="252.1"/>
	<line class="st2" x1="205.1" y1="249.1" x2="203.2" y2="248.6"/>
	<line class="st2" x1="207.1" y1="244.7" x2="205.1" y2="249.1"/>
	<line class="st2" x1="209.1" y1="242.2" x2="207.1" y2="244.7"/>
	<line class="st2" x1="211.1" y1="243.9" x2="209.1" y2="242.2"/>
	<line class="st2" x1="213.1" y1="243.4" x2="211.1" y2="243.9"/>
	<line class="st2" x1="215.1" y1="239.2" x2="213.1" y2="243.4"/>
	<line class="st2" x1="217.1" y1="232.2" x2="215.1" y2="239.2"/>
	<line class="st2" x1="219.1" y1="226.2" x2="217.1" y2="232.2"/>
	<line class="st2" x1="221.1" y1="222.7" x2="219.1" y2="226.2"/>
	<line class="st2" x1="223.1" y1="218.5" x2="221.1" y2="222.7"/>
	<line class="st2" x1="225.1" y1="208.8" x2="223.1" y2="218.5"/>
	<line class="st2" x1="227.1" y1="207.3" x2="225.1" y2="208.8"/>
	<line class="st2" x1="229.1" y1="207.6" x2="227.1" y2="207.3"/>
	<line class="st2" x1="231.1" y1="210.3" x2="229.1" y2="207.6"/>
	<line class="st2" x1="233" y1="218" x2="231.1" y2="210.3"/>
	<line class="st2" x1="235" y1="222" x2="233" y2="218"/>
	<line class="st2" x1="237" y1="225.2" x2="235" y2="222"/>
	<line class="st2" x1="239" y1="229.7" x2="237" y2="225.2"/>
	<line class="st2" x1="241" y1="230.7" x2="239" y2="229.7"/>
	<line class="st2" x1="243" y1="230.7" x2="241" y2="230.7"/>
	<line class="st2" x1="245" y1="230.2" x2="243" y2="230.7"/>
	<line class="st2" x1="247" y1="223" x2="245" y2="230.2"/>
	<line class="st2" x1="249" y1="223.2" x2="247" y2="223"/>
	<line class="st2" x1="251" y1="224.5" x2="249" y2="223.2"/>
	<line class="st2" x1="253" y1="224.2" x2="251" y2="224.5"/>
	<line class="st2" x1="254.9" y1="224" x2="253" y2="224.2"/>
	<line class="st2" x1="256.9" y1="226.7" x2="254.9" y2="224"/>
	<line class="st2" x1="258.9" y1="224.5" x2="256.9" y2="226.7"/>
	<line class="st2" x1="260.9" y1="226.5" x2="258.9" y2="224.5"/>
	<line class="st2" x1="262.9" y1="229" x2="260.9" y2="226.5"/>
	<line class="st2" x1="264.9" y1="228.2" x2="262.9" y2="229"/>
	<line class="st2" x1="266.9" y1="232.2" x2="264.9" y2="228.2"/>
	<line class="st2" x1="268.9" y1="231.2" x2="266.9" y2="232.2"/>
	<line class="st2" x1="270.9" y1="230.5" x2="268.9" y2="231.2"/>
	<line class="st2" x1="272.9" y1="232.7" x2="270.9" y2="230.5"/>
	<path d="M10.1,13.6v-1.7h1.2V4.7H9.5v1.6H7.6V2.9h9.9v3.4h-1.9V4.7h-1.8v7.2H15v1.7H10.1z"/>
	<path d="M23.9,13.8c-2.8,0-4.4-1.5-4.4-4.3V4.6h-1V2.9H23v1.7h-1.1v4.7c0,1.8,0.5,2.6,2,2.6S26,11.2,26,9.2V4.6h-1.1V2.9h4.5v1.7
		h-1v4.7C28.4,12.3,26.8,13.8,23.9,13.8z"/>
	<path d="M34.7,13.6h-4.3v-1.7h1.1V4.6h-1.1V2.9h3.8l4.2,7.2V4.6h-1.1V2.9h4.3v1.7h-1.1v9H38l-4.5-7.7v6h1.1L34.7,13.6z"/>
	<path d="M46.8,13.6h-4.3v-1.7h1.1V4.6h-1.1V2.9h3.8l4.2,7.2V4.6h-1.1V2.9h4.3v1.7h-1.1v9h-2.4l-4.5-7.7v6h1.1L46.8,13.6z"/>
	<path d="M54.6,11.9h1V4.6h-1V2.9h8.3v3H61V4.6h-3v2.7h3.6v1.8H58v2.8h3.2v-1.4h2v3.1h-8.6V11.9z"/>
	<path d="M64.3,11.9h1.1V4.6h-1.1V2.9h4.7v1.7h-1.2v7.2h2.9v-1.8h2v3.5h-8.5V11.9z"/>
	<path d="M82.4,13.8c-3.5,0-5.4-2.2-5.4-5.5V8.2c0-3.2,2.1-5.5,5-5.5c1.2-0.1,2.4,0.4,3.1,1.5V2.9H87v3.7h-2.2
		c-0.1-1.2-1.2-2.1-2.4-2c-1.7,0-2.8,1.3-2.8,3.6v0.1c0,2.2,1,3.5,2.8,3.5c1.2,0.1,2.3-0.8,2.4-2c0,0,0,0,0,0h2.4
		C86.9,12.4,85,13.8,82.4,13.8z"/>
	<path d="M88.2,13.6v-1.7h1.1V4.6h-1.1V2.9h5c2.5,0,4.1,1,4.1,3.2v0.1c0,1.3-0.9,2.5-2.2,2.8l1.9,2.9H98v1.7h-2.5l-2.7-4.2h-1.1v2.5
		h1.1v1.7L88.2,13.6z M93.1,7.8c1.2,0,1.8-0.5,1.8-1.6V6.1c0-1-0.7-1.5-1.8-1.5h-1.4v3.1L93.1,7.8z"/>
	<path d="M98.5,8.3L98.5,8.3c-0.1-3,2.2-5.5,5.2-5.6c0.1,0,0.3,0,0.4,0c2.9-0.2,5.3,2,5.5,4.9c0,0.2,0,0.3,0,0.5v0.2
		c-0.2,3-2.9,5.3-5.9,5.1C100.9,13.2,98.8,11,98.5,8.3L98.5,8.3z M107,8.3V8.2c0-2.1-1.1-3.5-3-3.5s-3,1.4-3,3.5v0.1
		c0,2.2,1.3,3.5,3,3.5S107,10.5,107,8.3z"/>
	<path d="M110.5,13.6v-1.7h1.1V4.6h-1.1V2.9h4.6v1.7H114v7.2h1.1v1.7H110.5z"/>
	<path d="M120.4,13.6h-4.3v-1.7h0.9l2.7-3.8l-2.5-3.5h-1V2.9h4.7v1.6h-1l1.7,2.4l1.7-2.4h-1V2.9h4.2v1.7h-1l-2.5,3.4l2.7,3.8h0.9
		v1.7h-4.6V12h1.1l-1.8-2.6l-1.8,2.6h1.1L120.4,13.6z"/>
	<path d="M126.9,7.8h4.2v1.8h-4.2L126.9,7.8z"/>
	<path d="M132.4,13.6v-1.7h1.1V4.6h-1.1V2.9h5c2.5,0,4.1,1,4.1,3.2v0.1c0,1.3-0.9,2.5-2.2,2.8l1.9,2.9h0.9v1.7h-2.5L137,9.4h-1.1
		v2.5h1.1v1.7L132.4,13.6z M137.2,7.8c1.2,0,1.8-0.5,1.8-1.6V6.1c0-1-0.7-1.5-1.8-1.5h-1.4v3.1L137.2,7.8z"/>
	<path d="M142.7,8.3L142.7,8.3c-0.1-3,2.2-5.5,5.2-5.6c0.1,0,0.3,0,0.4,0c2.9-0.2,5.3,2,5.5,4.9c0,0.2,0,0.3,0,0.5v0.2
		c-0.2,3-2.9,5.3-5.9,5.1C145.1,13.2,143,11,142.7,8.3L142.7,8.3z M151.2,8.3V8.2c0-2.1-1.1-3.5-3-3.5s-3,1.4-3,3.5v0.1
		c0,2.2,1.3,3.5,3,3.5S151.2,10.5,151.2,8.3L151.2,8.3z"/>
	<path d="M160,13.8c-2.8,0-4.4-1.5-4.4-4.3V4.6h-1V2.9h4.5v1.7H158v4.7c0,1.8,0.5,2.6,2,2.6s2.1-0.7,2.1-2.7V4.6H161V2.9h4.5v1.7h-1
		v4.7C164.5,12.3,162.8,13.8,160,13.8z"/>
	<path d="M168.1,12.6v1h-1.9v-3.4h2c0.2,1.1,1.2,1.9,2.3,1.8c1,0,1.7-0.6,1.7-1.4s-0.5-1.3-1.9-1.5c-2.6-0.3-3.9-1.4-3.9-3.3
		c0-1.7,1.4-3.1,3-3.1c0.1,0,0.2,0,0.3,0c1-0.1,1.9,0.3,2.5,1.1V2.9h1.8V6h-2c-0.2-0.9-1-1.6-1.9-1.5c-1,0-1.5,0.5-1.5,1.2
		s0.4,1.2,2,1.4c2.4,0.3,3.9,1.2,3.9,3.4c0,1.9-1.4,3.3-3.8,3.3C169.8,13.8,168.8,13.4,168.1,12.6z"/>
	<path d="M177.4,12.6v1h-1.9v-3.4h2c0.2,1.1,1.2,1.9,2.3,1.8c1,0,1.7-0.6,1.7-1.4s-0.5-1.3-1.9-1.5c-2.6-0.3-3.9-1.4-3.9-3.3
		c0-1.7,1.4-3.1,3-3.1c0.1,0,0.2,0,0.3,0c1-0.1,1.9,0.3,2.5,1.1V2.9h1.8V6h-2c-0.2-0.9-1-1.6-1.9-1.5c-1,0-1.5,0.5-1.5,1.2
		s0.4,1.2,2,1.4c2.4,0.3,3.9,1.2,3.9,3.4c0,1.9-1.4,3.3-3.8,3.3C179.1,13.8,178.1,13.4,177.4,12.6z"/>
	<path d="M184.9,11.9h1V4.6h-1V2.9h8.3v3h-1.9V4.6h-3v2.7h3.6v1.8h-3.6v2.8h3.2v-1.4h2v3.1H185L184.9,11.9z"/>
	<path d="M195.1,14.2c0.7-0.1,1.1-0.3,1.1-0.8c-0.8,0-1.2-0.5-1.2-1.2c0-0.7,0.6-1.2,1.2-1.2c0,0,0,0,0.1,0c0.7,0,1.4,0.6,1.4,1.3
		c0,0.1,0,0.1,0,0.2v0.2c0,1.6-1,2.3-2.6,2.3L195.1,14.2z"/>
	<path d="M9.6,27.6v1H7.8v-3.4h2c0.2,1.1,1.2,1.9,2.3,1.8c1,0,1.7-0.6,1.7-1.4s-0.5-1.3-1.9-1.5c-2.6-0.3-3.9-1.4-3.9-3.3
		c0-1.7,1.4-3.1,3-3.1c0.1,0,0.2,0,0.3,0c1-0.1,1.9,0.3,2.5,1.1v-0.9h1.8V21h-2c-0.2-0.9-1-1.6-1.9-1.5c-1,0-1.5,0.4-1.5,1.2
		s0.4,1.2,2,1.4c2.4,0.3,3.8,1.2,3.8,3.4c0,1.9-1.4,3.3-3.8,3.3C11.2,28.8,10.3,28.4,9.6,27.6z"/>
	<path d="M17.1,23.3L17.1,23.3c-0.1-3,2.2-5.5,5.2-5.6c0.1,0,0.3,0,0.4,0c2.9-0.2,5.3,2,5.5,4.9c0,0.2,0,0.3,0,0.5v0.2
		c0.1,2.9-2.1,5.4-5,5.5c-0.2,0-0.4,0-0.6,0c-2.9,0.2-5.3-2-5.5-4.9C17,23.7,17,23.5,17.1,23.3z M25.6,23.3v-0.1
		c0-2.1-1.1-3.5-3-3.5s-3,1.3-3,3.5v0.1c0,2.2,1.3,3.5,3,3.5S25.6,25.5,25.6,23.3z"/>
	<path d="M29,28.6v-1.7h1.1v-7.2H29v-1.7h5c2.5,0,4.1,1,4.1,3.2v0.1c0,1.3-0.9,2.5-2.2,2.8l2,2.9h0.9v1.7h-2.5l-2.7-4.2h-1.1v2.5
		h1.1v1.7L29,28.6z M33.9,22.8c1.2,0,1.8-0.5,1.8-1.6v-0.1c0-1-0.7-1.5-1.8-1.5h-1.3v3.1L33.9,22.8z"/>
	<path d="M41.7,28.6v-1.7h1.2v-7.2h-1.9v1.6h-1.9v-3.4h9.9v3.3h-1.9v-1.6h-1.8v7.2h1.2v1.7H41.7z"/>
	<path d="M50.1,28.6v-1.7h1.1v-7.2h-1.1v-1.7h4.6v1.7h-1.1v7.2h1.1v1.7L50.1,28.6z"/>
	<path d="M55.7,26.9h1v-7.2h-1v-1.7h8.3v3h-1.9v-1.3h-3v2.7h3.6v1.8h-3.5v2.8h3.2v-1.4h2v3.1h-8.6V26.9z"/>
	<path d="M68.6,28.6v-1.7h1.1v-7.2h-1.1v-1.7h5c2.5,0,4.1,1,4.1,3.2v0.1c0,1.3-0.9,2.5-2.2,2.8l2,2.9h0.9v1.7h-2.5l-2.7-4.2h-1.1
		v2.5h1.1v1.7L68.6,28.6z M73.4,22.8c1.2,0,1.8-0.5,1.8-1.6v-0.1c0-1-0.7-1.5-1.8-1.5h-1.4v3.1L73.4,22.8z"/>
	<path d="M79.2,28.6v-1.7h1.1v-7.2h-1.1v-1.7h4.7v1.7h-1.2v2.7H87v-2.7h-1.3v-1.7h4.7v1.7h-1.1v7.2h1.1v1.7h-4.7v-1.7H87v-2.7h-4.3
		v2.7h1.2v1.7H79.2z"/>
	<path d="M91.4,23.3L91.4,23.3c-0.1-3,2.2-5.5,5.2-5.6c0.1,0,0.3,0,0.4,0c2.9-0.2,5.3,2,5.5,4.9c0,0.2,0,0.3,0,0.5v0.2
		c-0.2,3-2.9,5.3-5.9,5.1C93.9,28.2,91.7,26,91.4,23.3L91.4,23.3z M99.9,23.3v-0.1c0-2.1-1.1-3.5-3-3.5s-3,1.3-3,3.5v0.1
		c0,2.2,1.3,3.5,3,3.5S99.9,25.5,99.9,23.3z M96.1,15.1h1.8l1.6,2.1H98l-1-0.8l-1,0.8h-1.6L96.1,15.1z"/>
	<path d="M107.7,28.6h-4.3v-1.7h1.1v-7.2h-1.1v-1.7h3.8l4.2,7.2v-5.5h-1.1v-1.7h4.3v1.7h-1.1v9h-2.4l-4.5-7.7v6h1.1V28.6z"/>
	<path d="M115.5,26.9h1v-7.2h-1v-1.7h8.3v3h-1.9v-1.3h-3v2.7h3.6v1.8H119v2.8h3.2v-1.4h2v3.1h-8.7V26.9z"/>
	<path d="M125.7,29.2c0.7-0.1,1.1-0.3,1.1-0.8c-0.8,0-1.2-0.5-1.2-1.2c0-0.7,0.6-1.2,1.2-1.2c0,0,0,0,0.1,0c0.7,0,1.4,0.5,1.4,1.3
		c0,0.1,0,0.1,0,0.2v0.2c0,1.6-1,2.3-2.6,2.3V29.2z"/>
	<path d="M132.8,26.9h1.1v-7.2h-1.1v-1.7h4.7v1.7h-1.2v7.2h2.9v-1.8h2v3.5h-8.5L132.8,26.9z"/>
	<path d="M143.4,28.6v-1.7h1.1v-2.8l-2.9-4.5h-0.9v-1.7h4.5v1.7h-1l1.8,3l1.7-3h-1.1v-1.7h4v1.7h-1l-2.7,4.5v2.8h1.2v1.7H143.4z"/>
	<path d="M150.8,23.3L150.8,23.3c-0.1-3,2.2-5.5,5.2-5.6c0.1,0,0.3,0,0.4,0c2.9-0.2,5.3,2,5.5,4.9c0,0.2,0,0.3,0,0.5v0.2
		c-0.2,3-2.9,5.3-5.9,5.1C153.2,28.2,151.1,26,150.8,23.3L150.8,23.3z M159.3,23.3v-0.1c0-2.1-1.1-3.5-3-3.5s-3,1.3-3,3.5v0.1
		c0,2.2,1.3,3.5,3,3.5S159.3,25.5,159.3,23.3z"/>
	<path d="M167.1,28.6h-4.3v-1.7h1.1v-7.2h-1.1v-1.7h3.8l4.2,7.2v-5.5h-1.1v-1.7h4.3v1.7h-1.1v9h-2.4l-4.4-7.7v6h1.1L167.1,28.6z"/>
	<path d="M300.4,14.3v-1.8h1.1V5.3h-1.1V3.6h4.9c2.5,0,4,1.2,4,3.4V7c0,2.2-1.6,3.3-4,3.3h-1.4v2.2h1.2v1.8H300.4z M305.2,8.6
		c1.1,0,1.8-0.6,1.8-1.6V7c0-1.1-0.7-1.6-1.8-1.6h-1.3v3.2L305.2,8.6z"/>
	<path d="M310.2,12.6h1.1V5.3h-1.1V3.6h4.7v1.7h-1.2v7.2h2.9v-1.8h2v3.5h-8.5L310.2,12.6z"/>
	<path d="M319.5,14.3v-1.8h0.9l3-9h3.1l2.9,9h0.9v1.8h-4.4v-1.8h1l-0.4-1.4h-3.6l-0.4,1.4h1v1.8H319.5z M324.7,5.4l-1.3,4.2h2.6
		L324.7,5.4z"/>
	<path d="M335.9,14.5c-3.5,0-5.4-2.2-5.4-5.5V8.9c0-3.2,2.1-5.5,5-5.5c1.2-0.1,2.4,0.4,3.1,1.5V3.6h1.9v3.7h-2.2
		c-0.1-1.2-1.2-2.1-2.4-2c-1.7,0-2.8,1.3-2.8,3.6V9c0,2.2,1,3.5,2.8,3.5c1.2,0.1,2.3-0.8,2.4-2c0,0,0,0,0,0h2.4
		C340.5,13.1,338.5,14.5,335.9,14.5z"/>
	<path d="M341.7,12.6h1V5.3h-1V3.6h8.3v3h-1.9V5.3h-3v2.6h3.6v1.8h-3.6v2.8h3.2v-1.4h2v3.1h-8.6L341.7,12.6z"/>
	<path d="M354.6,12.6h1.1V5.3h-1.1V3.6h4.6c3.8,0,5.6,2,5.6,5.2v0.1c0,3.2-1.9,5.4-5.6,5.4h-4.6V12.6z M359.1,12.4
		c2.2,0,3.2-1.2,3.2-3.4V8.8c0-2.2-1-3.4-3.2-3.4h-1v7H359.1z"/>
	<path d="M365.8,12.6h1V5.3h-1V3.6h8.3v3h-1.9V5.3h-3v2.6h3.6v1.8h-3.6v2.8h3.2v-1.4h2v3.1h-8.6L365.8,12.6z"/>
	<path d="M378.6,12.6h1.1V5.3h-1.1V3.6h4.7v1.7h-1.2v7.2h2.9v-1.8h2v3.5h-8.5V12.6z"/>
	<path d="M387.1,6.4c0.7-0.1,1-0.3,1-0.8c-0.6,0.1-1.1-0.4-1.1-1c0,0,0-0.1,0-0.1c0-0.6,0.5-1.1,1.1-1.1c0,0,0,0,0.1,0
		c0.7,0,1.3,0.6,1.3,1.3c0,0,0,0.1,0,0.1v0.2c0,1.4-0.9,2.2-2.4,2.2L387.1,6.4z"/>
	<path d="M390.1,9V8.9c-0.1-2.9,2.2-5.4,5.2-5.5c0.1,0,0.3,0,0.4,0c2.9-0.2,5.3,2,5.5,4.9c0,0.2,0,0.3,0,0.5v0.1
		c-0.2,3-2.9,5.3-5.9,5.1C392.5,13.8,390.4,11.7,390.1,9L390.1,9z M398.6,9V8.9c0-2.1-1.1-3.5-3-3.5s-3,1.3-3,3.5V9
		c0,2.2,1.3,3.5,3,3.5S398.6,11.1,398.6,9L398.6,9z"/>
	<path d="M402.1,14.3v-1.8h1.1V5.3h-1.1V3.6h4.9c2.5,0,4,1.2,4,3.4V7c0,2.2-1.6,3.3-4,3.3h-1.4v2.2h1.2v1.8H402.1z M406.9,8.6
		c1.1,0,1.8-0.6,1.8-1.6V7c0-1.1-0.7-1.6-1.8-1.6h-1.3v3.2L406.9,8.6z"/>
	<path d="M411.8,12.6h1V5.3h-1V3.6h8.3v3h-1.9V5.3h-3v2.6h3.6v1.8h-3.6v2.8h3.2v-1.4h2v3.1h-8.6L411.8,12.6z M416.2,0.8h2.4
		l-1.5,2.1h-1.6L416.2,0.8z"/>
	<path d="M421.6,14.3v-1.8h1.1V5.3h-1.1V3.6h5c2.5,0,4.1,1,4.1,3.2v0.1c0,1.3-0.9,2.5-2.2,2.8l2,2.9h0.9v1.8h-2.5l-2.7-4.2h-1.1v2.5
		h1.1v1.7H421.6z M426.4,8.4c1.2,0,1.8-0.5,1.8-1.6V6.8c0-1-0.7-1.5-1.8-1.5h-1.4v3.1L426.4,8.4z"/>
	<path d="M432,14.3v-1.8h0.9l3-9h3.1l2.9,9h0.9v1.8h-4.4v-1.8h1l-0.4-1.4h-3.6l-0.4,1.4h1v1.8H432z M437.2,5.4l-1.3,4.2h2.6
		L437.2,5.4z"/>
	<path d="M444.2,14.9c0.7-0.1,1.1-0.3,1.1-0.8c-0.8,0-1.2-0.5-1.2-1.2c0-0.7,0.6-1.2,1.2-1.2c0,0,0,0,0.1,0c0.7,0,1.4,0.6,1.4,1.3
		c0,0.1,0,0.1,0,0.2v0.2c0,1.6-1,2.3-2.6,2.3V14.9z"/>
	<path d="M451.3,14.3v-1.8h1.1V5.3h-1.1V3.6h4.9c2.5,0,4,1.2,4,3.4V7c0,2.2-1.6,3.3-4,3.3h-1.4v2.2h1.2v1.8H451.3z M456.1,8.6
		c1.1,0,1.8-0.6,1.8-1.6V7c0-1.1-0.7-1.6-1.8-1.6h-1.3v3.2L456.1,8.6z"/>
	<path d="M459.7,14.3v-1.8h0.9l3-9h3.1l2.9,9h0.9v1.8H466v-1.8h1l-0.4-1.4H463l-0.4,1.4h1v1.8H459.7z M464.8,5.4l-1.3,4.2h2.6
		L464.8,5.4z"/>
	<path d="M471.3,14.3v-1.8h1.1V5.3h-1.1V3.6h5c2.5,0,4.1,1,4.1,3.2v0.1c0,1.3-0.9,2.5-2.2,2.8l2,2.9h0.8v1.8h-2.5l-2.7-4.2h-1.1v2.5
		h1.1v1.7H471.3z M476.1,8.4c1.2,0,1.9-0.5,1.9-1.6V6.8c0-1-0.7-1.5-1.8-1.5h-1.4v3.1L476.1,8.4z"/>
	<path d="M481.9,14.3v-1.8h1.1V5.3h-1.1V3.6h4.6v1.7h-1.1v7.2h1.1v1.8H481.9z"/>
	<path d="M489.5,13.3v1h-1.9v-3.4h2c0.2,1.1,1.2,1.9,2.3,1.8c1,0,1.7-0.6,1.7-1.4s-0.5-1.3-1.9-1.5c-2.6-0.3-3.9-1.4-3.9-3.3
		c0-1.7,1.4-3.1,3-3.1c0.1,0,0.2,0,0.3,0c1-0.1,1.9,0.3,2.5,1.1V3.6h1.8v3.1h-2c-0.2-0.9-1-1.6-1.9-1.5c-1,0-1.5,0.5-1.5,1.2
		s0.4,1.2,2,1.4c2.4,0.3,3.9,1.2,3.9,3.4c0,1.9-1.4,3.3-3.8,3.3C491.1,14.5,490.2,14.1,489.5,13.3z"/>
</g>
<g id="EXPRESSION_LIBRE">
	<line class="st0" x1="327.1" y1="283.8" x2="576.1" y2="283.8"/>
	<line class="st0" x1="327.1" y1="221.6" x2="576.1" y2="221.6"/>
	<line class="st0" x1="327.1" y1="159.3" x2="576.1" y2="159.3"/>
	<line class="st0" x1="327.1" y1="97.1" x2="576.1" y2="97.1"/>
	<line class="st3" x1="180.5" y1="81.1" x2="180.5" y2="294.5"/>
	<line class="st4" x1="24.5" y1="283.8" x2="273.5" y2="283.8"/>
	<path d="M27.8,303v-1.6h1.8v-6.1l-2,1.3v-2l2.2-1.6h2v8.4h1.7v1.6L27.8,303z"/>
	<path d="M34.1,296.2L34.1,296.2c-0.1-1.2,0.8-2.2,2-2.3c0.1,0,0.1,0,0.2,0c1.1-0.1,2,0.8,2.1,1.9c0,0.1,0,0.2,0,0.3v0.4h-3.1
		c0,0.7,0.4,1.1,1.1,1.1s0.8-0.2,0.9-0.6h1.1c-0.1,0.9-0.9,1.4-2,1.4c-1.1,0.1-2.1-0.7-2.3-1.9C34.1,296.4,34.1,296.3,34.1,296.2z
		 M37.3,295.7c0-0.6-0.4-0.9-0.9-0.9c-0.5,0-1,0.4-1,0.9H37.3z"/>
	<path d="M38.8,298.3v-0.8h0.5v-2.6h-0.5V294h1.7v0.9c0.2-0.6,0.8-1,1.5-0.9v1.1c-0.9,0-1.5,0.3-1.5,1.1v1.3H41v0.8H38.8z"/>
	<path d="M45.1,305.6V304c0.7,0,1-0.4,1-1v-6h-0.8v-1.5h2.8v7.5C48.1,304.6,47.4,305.5,45.1,305.6z M45.9,293.5
		c0-0.6,0.5-1.1,1.1-1.1c0,0,0,0,0,0c0.6,0,1.1,0.5,1.1,1.1s-0.5,1.1-1.1,1.1l0,0C46.4,294.7,45.9,294.2,45.9,293.5
		C45.9,293.5,45.9,293.5,45.9,293.5z"/>
	<path d="M51.8,303.1c-1.2,0.2-2.2-0.6-2.4-1.8c0-0.1,0-0.3,0-0.4c0-1.8,1.6-2.4,3.8-2.4h0.8v-0.3c0-0.9-0.3-1.3-1.2-1.3
		c-0.6-0.1-1.1,0.3-1.2,0.9c0,0,0,0.1,0,0.1h-1.9c0.1-1.8,1.5-2.5,3.2-2.5s3,0.7,3,2.7v3.3h0.8v1.4H54v-1
		C53.5,302.8,52.7,303.2,51.8,303.1z M53.9,300.4v-0.6h-0.8c-1.2,0-1.8,0.3-1.8,1c0,0.5,0.3,0.9,1,0.9
		C53.2,301.7,53.9,301.2,53.9,300.4z"/>
	<path d="M57.3,303v-1.4h0.8v-4.4h-0.8v-1.5h2.8v1.2c0.4-0.9,1.3-1.4,2.3-1.4c1.4,0,2.4,0.8,2.4,2.8v3.3h0.8v1.4H62v-1.4h0.8v-3
		c0-1-0.4-1.4-1.2-1.4c-0.8,0-1.5,0.6-1.5,1.4c0,0.1,0,0.1,0,0.2v2.8h0.8v1.4L57.3,303z"/>
	<path d="M73,297.1l-2.1,5.8h-2.3l-2.2-5.8h-0.8v-1.5h3.7v1.5h-0.8l1.3,4l1.3-4h-0.8v-1.5h3.4v1.5H73z"/>
	<path d="M74.3,303v-1.4h0.8v-4.4h-0.8v-1.5h2.8v5.9h0.8v1.4H74.3z M74.9,293.5c0-0.7,0.5-1.2,1.1-1.2c0.7,0,1.2,0.5,1.2,1.1
		c0,0.7-0.5,1.2-1.1,1.2c0,0-0.1,0-0.1,0C75.4,294.7,74.9,294.1,74.9,293.5C74.9,293.5,74.9,293.5,74.9,293.5z"/>
	<path d="M78.5,299.4L78.5,299.4c-0.1-2.1,1.5-3.8,3.5-3.9c0.1,0,0.2,0,0.3,0c1.9-0.1,3.5,1.3,3.6,3.1c0,0.2,0,0.4,0,0.6v0.6h-5.3
		c0.1,1.2,0.7,1.9,1.8,1.9c0.9,0,1.4-0.4,1.5-1h1.9c-0.2,1.6-1.5,2.5-3.5,2.5c-2,0.1-3.7-1.3-3.8-3.3
		C78.5,299.7,78.5,299.5,78.5,299.4z M83.9,298.5c0.1-0.8-0.6-1.5-1.4-1.6c-0.1,0-0.1,0-0.2,0c-0.9,0-1.6,0.7-1.7,1.6H83.9z"/>
	<path d="M86.6,303v-1.4h0.8v-4.4h-0.8v-1.5h2.8v1.5c0.4-1,1.4-1.7,2.5-1.6v1.9c-1.6,0-2.5,0.5-2.5,1.9v2.2h0.9v1.4L86.6,303z"/>
	<path d="M242.3,303v-1.6h1.1v-1h-4.7v-1.1l4.2-6.2h2.8v5.8h1.3v1.5h-1.3v1h1.1v1.6L242.3,303z M243.5,298.8v-4.3l-2.8,4.3H243.5z"
		/>
	<path d="M250.4,303v-1.4h0.8v-4.4h-0.8v-1.5h2.8v1.2c0.4-0.9,1.3-1.4,2.2-1.4c0.9,0,1.7,0.5,2,1.4c0.5-0.9,1.4-1.4,2.4-1.4
		c1.3,0,2.4,0.9,2.4,2.8v3.2h0.8v1.4h-3.6v-1.4h0.8v-3.1c0-0.9-0.4-1.4-1.1-1.4c-0.8,0-1.4,0.6-1.4,1.4c0,0.1,0,0.1,0,0.2v2.9h0.8
		v1.4h-3.6v-1.4h0.8v-3.1c0-0.9-0.4-1.4-1.1-1.4c-0.8,0-1.4,0.6-1.4,1.4c0,0,0,0.1,0,0.1v2.9h0.8v1.4L250.4,303z"/>
	<path d="M266.1,303.1c-1.2,0.2-2.2-0.6-2.4-1.8c0-0.1,0-0.3,0-0.4c0-1.8,1.6-2.4,3.8-2.4h0.8v-0.3c0-0.9-0.3-1.3-1.2-1.3
		c-0.6-0.1-1.1,0.3-1.2,0.9c0,0,0,0.1,0,0.1h-1.9c0.1-1.8,1.5-2.5,3.2-2.5s3.1,0.7,3.1,2.7v3.3h0.8v1.4h-2.7v-1
		C267.8,302.7,267,303.2,266.1,303.1z M268.2,300.4v-0.6h-0.8c-1.2,0-1.8,0.3-1.8,1c0,0.5,0.3,0.9,1,0.9
		C267.6,301.7,268.2,301.2,268.2,300.4z"/>
	<path d="M271.6,303v-1.4h0.8v-4.4h-0.8v-1.5h2.8v5.9h0.8v1.4H271.6z M272.2,293.5c0-0.7,0.5-1.2,1.1-1.2c0.7,0,1.2,0.5,1.2,1.1
		c0,0.7-0.5,1.2-1.1,1.2c0,0,0,0,0,0C272.7,294.7,272.2,294.2,272.2,293.5C272.2,293.5,272.2,293.5,272.2,293.5L272.2,293.5z"/>
	<path d="M327.3,301.6V300h1.8v-6.1l-1.9,1.3v-1.9l2.2-1.6h2v8.4h1.7v1.6H327.3z"/>
	<path d="M333.7,294.9L333.7,294.9c-0.1-1.2,0.8-2.2,2-2.3c0.1,0,0.1,0,0.2,0c1.1,0,2,0.8,2.1,1.9c0,0.1,0,0.2,0,0.3v0.3h-3.1
		c0,0.7,0.4,1.1,1.1,1.1s0.8-0.2,0.9-0.6h1.2c-0.1,0.9-0.9,1.4-2,1.4c-1.1,0.1-2.2-0.7-2.3-1.8C333.7,295.1,333.7,295,333.7,294.9z
		 M336.8,294.3c0-0.6-0.4-0.9-0.9-0.9c-0.5,0-1,0.4-1,0.9H336.8z"/>
	<path d="M338.4,296.9v-0.8h0.5v-2.6h-0.5v-0.9h1.6v0.9c0.2-0.6,0.8-1,1.5-0.9v1.1c-0.9,0-1.5,0.3-1.5,1.1v1.3h0.5v0.8L338.4,296.9z
		"/>
	<path d="M344.7,304.2v-1.5c0.7,0,1-0.4,1-1v-6h-0.8v-1.4h2.8v7.5C347.6,303.3,347,304.2,344.7,304.2z M345.4,292.2
		c0-0.6,0.5-1.1,1.1-1.1c0,0,0,0,0,0c0.6-0.1,1.2,0.4,1.2,1c0.1,0.6-0.4,1.2-1,1.2c-0.1,0-0.1,0-0.2,0
		C346,293.3,345.5,292.8,345.4,292.2C345.5,292.2,345.4,292.2,345.4,292.2L345.4,292.2z"/>
	<path d="M351.3,301.8c-1.3,0-2.4-0.6-2.4-2.2c0-1.8,1.6-2.4,3.8-2.4h0.8v-0.3c0-0.9-0.3-1.3-1.2-1.3c-0.5-0.1-1.1,0.2-1.2,0.8
		c0,0.1,0,0.2,0,0.2h-1.9c0.1-1.8,1.5-2.5,3.2-2.5s3.1,0.7,3.1,2.7v3.3h0.8v1.4h-2.7v-1C353.1,301.4,352.2,301.8,351.3,301.8z
		 M353.5,299v-0.6h-0.8c-1.2,0-1.8,0.3-1.8,1c0,0.5,0.3,0.9,1,0.9C352.8,300.3,353.5,299.9,353.5,299z"/>
	<path d="M356.8,301.6v-1.4h0.8v-4.4h-0.8v-1.5h2.8v1.2c0.4-0.9,1.4-1.4,2.3-1.4c1.4,0,2.4,0.8,2.4,2.8v3.3h0.8v1.4h-3.6v-1.4h0.8
		v-3c0-1-0.4-1.4-1.2-1.4c-0.8,0-1.5,0.6-1.5,1.4c0,0.1,0,0.1,0,0.2v2.8h0.8v1.4L356.8,301.6z"/>
	<path d="M372.5,295.8l-2.1,5.8h-2.3l-2.1-5.8h-0.8v-1.5h3.7v1.5h-0.8l1.4,4l1.3-4H370v-1.5h3.4v1.5L372.5,295.8z"/>
	<path d="M373.8,301.6v-1.4h0.8v-4.4h-0.8v-1.5h2.8v5.9h0.8v1.4L373.8,301.6z M374.4,292.2c0-0.7,0.5-1.2,1.1-1.2
		c0.7,0,1.2,0.5,1.2,1.1c0,0.7-0.5,1.2-1.1,1.2c0,0,0,0,0,0C375,293.3,374.4,292.8,374.4,292.2C374.4,292.2,374.4,292.2,374.4,292.2
		L374.4,292.2z"/>
	<path d="M378.1,298v-0.1c-0.1-2,1.4-3.7,3.4-3.8c0.1,0,0.2,0,0.3,0c1.9-0.1,3.5,1.3,3.6,3.1c0,0.2,0,0.4,0,0.6v0.6h-5.3
		c0.1,1.2,0.7,1.9,1.8,1.9c0.9,0,1.4-0.4,1.5-1h1.9c-0.2,1.6-1.5,2.5-3.5,2.5c-2,0.2-3.7-1.3-3.8-3.3
		C378.1,298.4,378.1,298.2,378.1,298z M383.4,297.1c0.1-0.8-0.5-1.5-1.4-1.6c-0.1,0-0.2,0-0.2,0c-0.9,0-1.6,0.7-1.7,1.6H383.4z"/>
	<path d="M386.1,301.6v-1.4h0.8v-4.4h-0.8v-1.5h2.9v1.5c0.4-1,1.4-1.7,2.5-1.6v1.9c-1.6-0.1-2.5,0.5-2.5,1.9v2.2h0.9v1.4
		L386.1,301.6z"/>
	<path d="M541.8,301.6V300h1.2v-1h-4.7v-1.1l4.2-6.2h2.8v5.9h1.3v1.5h-1.3v1h1.1v1.6H541.8z M543,297.4v-4.3l-2.8,4.3H543z"/>
	<path d="M550,301.6v-1.4h0.8v-4.4H550v-1.5h2.8v1.2c0.4-0.9,1.3-1.4,2.2-1.4c0.9,0,1.7,0.5,2,1.4c0.5-0.9,1.4-1.4,2.4-1.4
		c1.3,0,2.4,0.9,2.4,2.8v3.2h0.8v1.4H559v-1.4h0.8v-3.1c0-0.9-0.4-1.4-1.1-1.4c-0.8,0-1.4,0.6-1.4,1.3c0,0.1,0,0.1,0,0.2v3h0.8v1.4
		h-3.6v-1.4h0.8v-3.1c0-0.9-0.4-1.4-1.1-1.4c-0.8,0-1.4,0.6-1.4,1.4c0,0.1,0,0.1,0,0.2v3h0.8v1.4L550,301.6z"/>
	<path d="M565.6,301.8c-1.3,0-2.4-0.6-2.4-2.2c0-1.8,1.6-2.4,3.8-2.4h0.8v-0.3c0-0.9-0.3-1.3-1.2-1.3c-0.5-0.1-1.1,0.2-1.2,0.8
		c0,0.1,0,0.2,0,0.2h-1.9c0.1-1.8,1.5-2.5,3.2-2.5s3.1,0.7,3.1,2.7v3.3h0.8v1.4h-2.7v-1C567.4,301.4,566.5,301.8,565.6,301.8z
		 M567.8,299v-0.6H567c-1.2,0-1.8,0.3-1.8,1c0,0.5,0.3,0.9,1,0.9C567.1,300.3,567.8,299.9,567.8,299L567.8,299z"/>
	<path d="M571.1,301.6v-1.4h0.8v-4.4h-0.8v-1.5h2.8v5.9h0.8v1.4L571.1,301.6z M571.7,292.2c0-0.7,0.5-1.2,1.1-1.2
		c0.7,0,1.2,0.5,1.2,1.1c0,0.7-0.5,1.2-1.1,1.2c0,0,0,0,0,0C572.3,293.3,571.8,292.8,571.7,292.2
		C571.7,292.2,571.7,292.2,571.7,292.2L571.7,292.2z"/>
	<path d="M314,283.5v-0.4c0-2.3,1.2-3.8,3.1-3.8s3.1,1.5,3.1,3.8v0.4c0,2.3-1.1,3.8-3,3.8S314,285.8,314,283.5z M319.2,283.5v-0.4
		c0-1.8-0.8-3-2.1-3s-2.1,1.1-2.1,3v0.4c0,2,0.8,3,2.1,3S319.2,285.4,319.2,283.5L319.2,283.5z"/>
	<path d="M301.9,224.9v-0.7h1.6V218l-1.8,1.3v-0.9l1.8-1.3h0.9v7.1h1.6v0.7L301.9,224.9z"/>
	<path d="M306.7,221.2v-0.4c0-2.3,1.2-3.8,3.1-3.8s3.1,1.5,3.1,3.8v0.4c0,2.3-1.1,3.8-3,3.8S306.7,223.5,306.7,221.2z M311.9,221.2
		v-0.4c0-1.8-0.8-3-2.1-3s-2.1,1.1-2.1,3v0.4c0,2,0.8,3,2.1,3S311.9,223.2,311.9,221.2L311.9,221.2z"/>
	<path d="M314,221.2v-0.4c0-2.3,1.2-3.8,3.1-3.8s3.1,1.5,3.1,3.8v0.4c0,2.3-1.1,3.8-3,3.8S314,223.5,314,221.2z M319.2,221.2v-0.4
		c0-1.8-0.8-3-2.1-3s-2.1,1.1-2.1,3v0.4c0,2,0.8,3,2.1,3S319.2,223.2,319.2,221.2L319.2,221.2z"/>
	<path d="M304.8,160.7h0.9v2h-5.4v-0.4l3-3.1c0.7-0.6,1.1-1.4,1.1-2.3c0.1-0.7-0.4-1.3-1.2-1.4c-0.1,0-0.2,0-0.2,0
		c-0.9,0-1.5,0.5-1.6,1.8h-0.9c0-1.4,1-2.5,2.4-2.5c0,0,0.1,0,0.1,0c1.2-0.1,2.2,0.7,2.4,1.9c0,0.1,0,0.2,0,0.3
		c-0.1,1.1-0.7,2.2-1.6,2.9l-2.2,2.1h3.1L304.8,160.7z"/>
	<path d="M306.7,159v-0.4c0-2.3,1.2-3.8,3.1-3.8s3.1,1.6,3.1,3.8v0.4c0,2.3-1.1,3.8-3,3.8S306.7,161.3,306.7,159z M311.9,159v-0.4
		c0-1.8-0.8-3-2.1-3s-2.1,1.1-2.1,3v0.4c0,2,0.8,3,2.1,3S311.9,160.9,311.9,159L311.9,159z"/>
	<path d="M314,159v-0.4c0-2.3,1.2-3.8,3.1-3.8s3.1,1.6,3.1,3.8v0.4c0,2.3-1.1,3.8-3,3.8S314,161.3,314,159z M319.2,159v-0.4
		c0-1.8-0.8-3-2.1-3s-2.1,1.1-2.1,3v0.4c0,2,0.8,3,2.1,3S319.2,160.9,319.2,159L319.2,159z"/>
	<path d="M300,98.1h0.9c0,0.9,0.8,1.7,1.7,1.7c0.1,0,0.1,0,0.2,0c1.2,0,1.8-0.6,1.8-1.5s-0.5-1.5-1.7-1.5h-0.6v-0.8h0.5
		c1,0,1.5-0.5,1.5-1.3c0-0.7-0.6-1.3-1.3-1.3c0,0-0.1,0-0.1,0c-0.9-0.1-1.7,0.6-1.7,1.5h-0.8c0.1-1.3,1.2-2.4,2.6-2.3
		c1.2-0.1,2.2,0.8,2.4,1.9c0,0,0,0.1,0,0.1c0,0.8-0.5,1.5-1.2,1.7c0.9,0.2,1.6,1,1.5,2c0,1.4-1.2,2.3-2.8,2.3
		c-1.4,0.1-2.6-0.9-2.8-2.2C300.1,98.3,300.1,98.2,300,98.1z"/>
	<path d="M306.7,96.7v-0.4c0-2.3,1.2-3.8,3.1-3.8s3.1,1.6,3.1,3.8v0.4c0,2.3-1.1,3.8-3,3.8S306.7,99,306.7,96.7z M311.9,96.7v-0.4
		c0-1.8-0.8-3-2.1-3s-2.1,1.1-2.1,3v0.4c0,2,0.8,3,2.1,3S311.9,98.7,311.9,96.7L311.9,96.7z"/>
	<path d="M314,96.7v-0.4c0-2.3,1.2-3.8,3.1-3.8s3.1,1.6,3.1,3.8v0.4c0,2.3-1.1,3.8-3,3.8S314,99,314,96.7z M319.2,96.7v-0.4
		c0-1.8-0.8-3-2.1-3s-2.1,1.1-2.1,3v0.4c0,2,0.8,3,2.1,3S319.2,98.7,319.2,96.7L319.2,96.7z"/>
	<line class="st1" x1="342.1" y1="188" x2="340.1" y2="189.1"/>
	<line class="st1" x1="344.2" y1="185.4" x2="342.1" y2="188"/>
	<line class="st1" x1="346.2" y1="181" x2="344.2" y2="185.4"/>
	<line class="st1" x1="348.2" y1="180.3" x2="346.2" y2="181"/>
	<line class="st1" x1="350.3" y1="185.3" x2="348.2" y2="180.3"/>
	<line class="st1" x1="352.3" y1="188.7" x2="350.3" y2="185.3"/>
	<line class="st1" x1="354.4" y1="183.5" x2="352.3" y2="188.7"/>
	<line class="st1" x1="356.4" y1="180.4" x2="354.4" y2="183.5"/>
	<line class="st1" x1="358.5" y1="182.6" x2="356.4" y2="180.4"/>
	<line class="st1" x1="360.5" y1="174.2" x2="358.5" y2="182.6"/>
	<line class="st1" x1="362.5" y1="165.8" x2="360.5" y2="174.2"/>
	<line class="st1" x1="364.6" y1="160.1" x2="362.5" y2="165.8"/>
	<line class="st1" x1="366.6" y1="147.6" x2="364.6" y2="160.1"/>
	<line class="st1" x1="368.7" y1="144.1" x2="366.6" y2="147.6"/>
	<line class="st1" x1="370.7" y1="144.9" x2="368.7" y2="144.1"/>
	<line class="st1" x1="372.7" y1="137.2" x2="370.7" y2="144.9"/>
	<line class="st1" x1="374.8" y1="142.4" x2="372.7" y2="137.2"/>
	<line class="st1" x1="376.8" y1="146.9" x2="374.8" y2="142.4"/>
	<line class="st1" x1="378.9" y1="151.6" x2="376.8" y2="146.9"/>
	<line class="st1" x1="380.9" y1="162.8" x2="378.9" y2="151.6"/>
	<line class="st1" x1="382.9" y1="163.3" x2="380.9" y2="162.8"/>
	<line class="st1" x1="385" y1="165.2" x2="382.9" y2="163.3"/>
	<line class="st1" x1="387" y1="170.7" x2="385" y2="165.2"/>
	<line class="st1" x1="389.1" y1="173.1" x2="387" y2="170.7"/>
	<line class="st1" x1="391.1" y1="176.4" x2="389.1" y2="173.1"/>
	<line class="st1" x1="393.1" y1="172.3" x2="391.1" y2="176.4"/>
	<line class="st1" x1="395.2" y1="165.6" x2="393.1" y2="172.3"/>
	<line class="st1" x1="397.2" y1="168.8" x2="395.2" y2="165.6"/>
	<line class="st1" x1="399.3" y1="160.5" x2="397.2" y2="168.8"/>
	<line class="st1" x1="401.3" y1="162" x2="399.3" y2="160.5"/>
	<line class="st1" x1="403.4" y1="169.3" x2="401.3" y2="162"/>
	<line class="st1" x1="405.4" y1="168.5" x2="403.4" y2="169.3"/>
	<line class="st1" x1="407.4" y1="173.5" x2="405.4" y2="168.5"/>
	<line class="st1" x1="409.5" y1="178.1" x2="407.4" y2="173.5"/>
	<line class="st1" x1="411.5" y1="170.6" x2="409.5" y2="178.1"/>
	<line class="st1" x1="413.6" y1="168.3" x2="411.5" y2="170.6"/>
	<line class="st1" x1="415.6" y1="158.1" x2="413.6" y2="168.3"/>
	<line class="st1" x1="417.6" y1="136.8" x2="415.6" y2="158.1"/>
	<line class="st1" x1="419.7" y1="112.2" x2="417.6" y2="136.8"/>
	<line class="st1" x1="421.7" y1="93.8" x2="419.7" y2="112.2"/>
	<line class="st1" x1="423.8" y1="84.5" x2="421.7" y2="93.8"/>
	<line class="st1" x1="425.8" y1="92.5" x2="423.8" y2="84.5"/>
	<line class="st1" x1="427.9" y1="86.6" x2="425.8" y2="92.5"/>
	<line class="st1" x1="429.9" y1="80.1" x2="427.9" y2="86.6"/>
	<line class="st1" x1="431.9" y1="83.9" x2="429.9" y2="80.1"/>
	<line class="st1" x1="434" y1="106" x2="431.9" y2="83.9"/>
	<line class="st1" x1="436" y1="117.7" x2="434" y2="106"/>
	<line class="st1" x1="438" y1="123.4" x2="436" y2="117.7"/>
	<line class="st1" x1="440.1" y1="116.6" x2="438" y2="123.4"/>
	<line class="st1" x1="442.1" y1="115.2" x2="440.1" y2="116.6"/>
	<line class="st1" x1="444.2" y1="130.2" x2="442.1" y2="115.2"/>
	<line class="st1" x1="446.2" y1="146.2" x2="444.2" y2="130.2"/>
	<line class="st1" x1="448.3" y1="147.2" x2="446.2" y2="146.2"/>
	<line class="st1" x1="450.3" y1="152.3" x2="448.3" y2="147.2"/>
	<line class="st1" x1="452.3" y1="161.2" x2="450.3" y2="152.3"/>
	<line class="st1" x1="454.4" y1="169.4" x2="452.3" y2="161.2"/>
	<line class="st1" x1="456.4" y1="182" x2="454.4" y2="169.4"/>
	<line class="st1" x1="458.5" y1="187.3" x2="456.4" y2="182"/>
	<line class="st1" x1="460.5" y1="187.6" x2="458.5" y2="187.3"/>
	<line class="st1" x1="462.5" y1="190.4" x2="460.5" y2="187.6"/>
	<line class="st1" x1="464.6" y1="193.2" x2="462.5" y2="190.4"/>
	<line class="st1" x1="466.6" y1="192.4" x2="464.6" y2="193.2"/>
	<line class="st1" x1="468.7" y1="195.1" x2="466.6" y2="192.4"/>
	<line class="st1" x1="470.7" y1="204.4" x2="468.7" y2="195.1"/>
	<line class="st1" x1="472.8" y1="204.6" x2="470.7" y2="204.4"/>
	<line class="st1" x1="474.8" y1="208" x2="472.8" y2="204.6"/>
	<line class="st1" x1="476.8" y1="211.3" x2="474.8" y2="208"/>
	<line class="st1" x1="478.9" y1="208.7" x2="476.8" y2="211.3"/>
	<line class="st1" x1="480.9" y1="206.2" x2="478.9" y2="208.7"/>
	<line class="st1" x1="483" y1="201.2" x2="480.9" y2="206.2"/>
	<line class="st1" x1="485" y1="188.1" x2="483" y2="201.2"/>
	<line class="st1" x1="487" y1="181.5" x2="485" y2="188.1"/>
	<line class="st1" x1="489.1" y1="167.5" x2="487" y2="181.5"/>
	<line class="st1" x1="491.1" y1="162.4" x2="489.1" y2="167.5"/>
	<line class="st1" x1="493.2" y1="161.2" x2="491.1" y2="162.4"/>
	<line class="st1" x1="495.2" y1="162.4" x2="493.2" y2="161.2"/>
	<line class="st1" x1="497.2" y1="166.9" x2="495.2" y2="162.4"/>
	<line class="st1" x1="499.3" y1="175.2" x2="497.2" y2="166.9"/>
	<line class="st1" x1="501.3" y1="177.9" x2="499.3" y2="175.2"/>
	<line class="st1" x1="503.4" y1="183.3" x2="501.3" y2="177.9"/>
	<line class="st1" x1="505.4" y1="174" x2="503.4" y2="183.3"/>
	<line class="st1" x1="507.4" y1="169.2" x2="505.4" y2="174"/>
	<line class="st1" x1="509.5" y1="167.4" x2="507.4" y2="169.2"/>
	<line class="st1" x1="511.5" y1="166.5" x2="509.5" y2="167.4"/>
	<line class="st1" x1="513.6" y1="167.6" x2="511.5" y2="166.5"/>
	<line class="st1" x1="515.6" y1="166.1" x2="513.6" y2="167.6"/>
	<line class="st1" x1="517.7" y1="168.8" x2="515.6" y2="166.1"/>
	<line class="st1" x1="519.7" y1="177.2" x2="517.7" y2="168.8"/>
	<line class="st1" x1="521.7" y1="179.7" x2="519.7" y2="177.2"/>
	<line class="st1" x1="523.8" y1="175" x2="521.7" y2="179.7"/>
	<line class="st1" x1="525.8" y1="175.1" x2="523.8" y2="175"/>
	<line class="st1" x1="527.8" y1="174.7" x2="525.8" y2="175.1"/>
	<line class="st1" x1="529.9" y1="178.7" x2="527.8" y2="174.7"/>
	<line class="st1" x1="531.9" y1="181.2" x2="529.9" y2="178.7"/>
	<line class="st1" x1="534" y1="182.6" x2="531.9" y2="181.2"/>
	<line class="st1" x1="536" y1="186" x2="534" y2="182.6"/>
	<line class="st1" x1="538.1" y1="189.1" x2="536" y2="186"/>
	<line class="st1" x1="540.1" y1="186.1" x2="538.1" y2="189.1"/>
	<line class="st1" x1="542.1" y1="182.1" x2="540.1" y2="186.1"/>
	<line class="st1" x1="544.2" y1="179" x2="542.1" y2="182.1"/>
	<line class="st1" x1="546.2" y1="174.1" x2="544.2" y2="179"/>
	<line class="st1" x1="548.3" y1="172.8" x2="546.2" y2="174.1"/>
	<line class="st1" x1="550.3" y1="169.4" x2="548.3" y2="172.8"/>
	<line class="st1" x1="552.3" y1="173.8" x2="550.3" y2="169.4"/>
	<line class="st1" x1="554.4" y1="173.7" x2="552.3" y2="173.8"/>
	<line class="st1" x1="556.4" y1="179.5" x2="554.4" y2="173.7"/>
	<line class="st1" x1="558.5" y1="181.5" x2="556.4" y2="179.5"/>
	<line class="st1" x1="560.5" y1="185.4" x2="558.5" y2="181.5"/>
	<line class="st1" x1="562.5" y1="189.8" x2="560.5" y2="185.4"/>
	<line class="st1" x1="564.6" y1="193.9" x2="562.5" y2="189.8"/>
	<line class="st1" x1="566.6" y1="191.2" x2="564.6" y2="193.9"/>
	<line class="st1" x1="568.7" y1="196.4" x2="566.6" y2="191.2"/>
	<line class="st1" x1="570.7" y1="202.4" x2="568.7" y2="196.4"/>
	<line class="st1" x1="572.8" y1="206.2" x2="570.7" y2="202.4"/>
	<line class="st1" x1="574.8" y1="208.7" x2="572.8" y2="206.2"/>
	<line class="st3" x1="481.9" y1="83.5" x2="481.9" y2="302.2"/>
	<line class="st4" x1="327.1" y1="283.8" x2="576.1" y2="283.8"/>
	<line class="st2" x1="330.4" y1="151.3" x2="328.3" y2="151.9"/>
	<line class="st2" x1="332.4" y1="149.5" x2="330.4" y2="151.3"/>
	<line class="st2" x1="334.4" y1="153.8" x2="332.4" y2="149.5"/>
	<line class="st2" x1="336.4" y1="167.9" x2="334.4" y2="153.8"/>
	<line class="st2" x1="338.5" y1="177.2" x2="336.4" y2="167.9"/>
	<line class="st2" x1="340.5" y1="175" x2="338.5" y2="177.2"/>
	<line class="st2" x1="342.5" y1="178.3" x2="340.5" y2="175"/>
	<line class="st2" x1="344.5" y1="178.9" x2="342.5" y2="178.3"/>
	<line class="st2" x1="346.5" y1="176.7" x2="344.5" y2="178.9"/>
	<line class="st2" x1="348.6" y1="177.7" x2="346.5" y2="176.7"/>
	<line class="st2" x1="350.6" y1="181" x2="348.6" y2="177.7"/>
	<line class="st2" x1="352.6" y1="189.4" x2="350.6" y2="181"/>
	<line class="st2" x1="354.6" y1="190" x2="352.6" y2="189.4"/>
	<line class="st2" x1="356.7" y1="184.9" x2="354.6" y2="190"/>
	<line class="st2" x1="358.7" y1="182.3" x2="356.7" y2="184.9"/>
	<line class="st2" x1="360.7" y1="183.5" x2="358.7" y2="182.3"/>
	<line class="st2" x1="362.7" y1="181.8" x2="360.7" y2="183.5"/>
	<line class="st2" x1="364.8" y1="179.8" x2="362.7" y2="181.8"/>
	<line class="st2" x1="366.8" y1="172.4" x2="364.8" y2="179.8"/>
	<line class="st2" x1="368.8" y1="169.6" x2="366.8" y2="172.4"/>
	<line class="st2" x1="370.8" y1="174" x2="368.8" y2="169.6"/>
	<line class="st2" x1="372.9" y1="169.3" x2="370.8" y2="174"/>
	<line class="st2" x1="374.9" y1="155.4" x2="372.9" y2="169.3"/>
	<line class="st2" x1="376.9" y1="150.6" x2="374.9" y2="155.4"/>
	<line class="st2" x1="378.9" y1="146.4" x2="376.9" y2="150.6"/>
	<line class="st2" x1="381" y1="155.1" x2="378.9" y2="146.4"/>
	<line class="st2" x1="383" y1="159.3" x2="381" y2="155.1"/>
	<line class="st2" x1="385" y1="158.3" x2="383" y2="159.3"/>
	<line class="st2" x1="387" y1="165.6" x2="385" y2="158.3"/>
	<line class="st2" x1="389.1" y1="187.4" x2="387" y2="165.6"/>
	<line class="st2" x1="391.1" y1="197.6" x2="389.1" y2="187.4"/>
	<line class="st2" x1="393.1" y1="198.3" x2="391.1" y2="197.6"/>
	<line class="st2" x1="395.1" y1="200.4" x2="393.1" y2="198.3"/>
	<line class="st2" x1="397.2" y1="202.2" x2="395.1" y2="200.4"/>
	<line class="st2" x1="399.2" y1="203.6" x2="397.2" y2="202.2"/>
	<line class="st2" x1="401.2" y1="198.5" x2="399.2" y2="203.6"/>
	<line class="st2" x1="403.2" y1="194" x2="401.2" y2="198.5"/>
	<line class="st2" x1="405.3" y1="197.8" x2="403.2" y2="194"/>
	<line class="st2" x1="407.3" y1="201.8" x2="405.3" y2="197.8"/>
	<line class="st2" x1="409.3" y1="200.4" x2="407.3" y2="201.8"/>
	<line class="st2" x1="411.3" y1="200.1" x2="409.3" y2="200.4"/>
	<line class="st2" x1="413.4" y1="206.2" x2="411.3" y2="200.1"/>
	<line class="st2" x1="415.4" y1="210" x2="413.4" y2="206.2"/>
	<line class="st2" x1="417.4" y1="212.6" x2="415.4" y2="210"/>
	<line class="st2" x1="419.4" y1="212.5" x2="417.4" y2="212.6"/>
	<line class="st2" x1="421.5" y1="210.4" x2="419.4" y2="212.5"/>
	<line class="st2" x1="423.5" y1="209.2" x2="421.5" y2="210.4"/>
	<line class="st2" x1="425.5" y1="211.1" x2="423.5" y2="209.2"/>
	<line class="st2" x1="427.5" y1="210.5" x2="425.5" y2="211.1"/>
	<line class="st2" x1="429.5" y1="212.5" x2="427.5" y2="210.5"/>
	<line class="st2" x1="431.6" y1="213.7" x2="429.5" y2="212.5"/>
	<line class="st2" x1="433.6" y1="212" x2="431.6" y2="213.7"/>
	<line class="st2" x1="435.6" y1="212.8" x2="433.6" y2="212"/>
	<line class="st2" x1="437.6" y1="211.8" x2="435.6" y2="212.8"/>
	<line class="st2" x1="439.7" y1="211.8" x2="437.6" y2="211.8"/>
	<line class="st2" x1="441.7" y1="209.9" x2="439.7" y2="211.8"/>
	<line class="st2" x1="443.7" y1="206.5" x2="441.7" y2="209.9"/>
	<line class="st2" x1="445.7" y1="207.9" x2="443.7" y2="206.5"/>
	<line class="st2" x1="447.8" y1="204.7" x2="445.7" y2="207.9"/>
	<line class="st2" x1="449.8" y1="201" x2="447.8" y2="204.7"/>
	<line class="st2" x1="451.8" y1="199.8" x2="449.8" y2="201"/>
	<line class="st2" x1="453.8" y1="194.8" x2="451.8" y2="199.8"/>
	<line class="st2" x1="455.9" y1="193.8" x2="453.8" y2="194.8"/>
	<line class="st2" x1="457.9" y1="198.4" x2="455.9" y2="193.8"/>
	<line class="st2" x1="459.9" y1="196" x2="457.9" y2="198.4"/>
	<line class="st2" x1="461.9" y1="198.9" x2="459.9" y2="196"/>
	<line class="st2" x1="464" y1="201.9" x2="461.9" y2="198.9"/>
	<line class="st2" x1="466" y1="204.4" x2="464" y2="201.9"/>
	<line class="st2" x1="468" y1="212.1" x2="466" y2="204.4"/>
	<line class="st2" x1="470" y1="216.9" x2="468" y2="212.1"/>
	<line class="st2" x1="472.1" y1="218.8" x2="470" y2="216.9"/>
	<line class="st2" x1="474.1" y1="220.8" x2="472.1" y2="218.8"/>
	<line class="st2" x1="476.1" y1="220.4" x2="474.1" y2="220.8"/>
	<line class="st2" x1="478.1" y1="220" x2="476.1" y2="220.4"/>
	<line class="st2" x1="480.2" y1="219.4" x2="478.1" y2="220"/>
	<line class="st2" x1="482.2" y1="220.7" x2="480.2" y2="219.4"/>
	<line class="st2" x1="484.2" y1="224.2" x2="482.2" y2="220.7"/>
	<line class="st2" x1="486.2" y1="231.1" x2="484.2" y2="224.2"/>
	<line class="st2" x1="488.3" y1="238.3" x2="486.2" y2="231.1"/>
	<line class="st2" x1="490.3" y1="244" x2="488.3" y2="238.3"/>
	<line class="st2" x1="492.3" y1="251.5" x2="490.3" y2="244"/>
	<line class="st2" x1="494.3" y1="259.8" x2="492.3" y2="251.5"/>
	<line class="st2" x1="496.4" y1="263.9" x2="494.3" y2="259.8"/>
	<line class="st2" x1="498.4" y1="266" x2="496.4" y2="263.9"/>
	<line class="st2" x1="500.4" y1="265.4" x2="498.4" y2="266"/>
	<line class="st2" x1="502.4" y1="263.8" x2="500.4" y2="265.4"/>
	<line class="st2" x1="504.5" y1="263.7" x2="502.4" y2="263.8"/>
	<line class="st2" x1="506.5" y1="263.9" x2="504.5" y2="263.7"/>
	<line class="st2" x1="508.5" y1="263.9" x2="506.5" y2="263.9"/>
	<line class="st2" x1="510.5" y1="263.7" x2="508.5" y2="263.9"/>
	<line class="st2" x1="512.5" y1="263.7" x2="510.5" y2="263.7"/>
	<line class="st2" x1="514.6" y1="264.5" x2="512.5" y2="263.7"/>
	<line class="st2" x1="516.6" y1="265.1" x2="514.6" y2="264.5"/>
	<line class="st2" x1="518.6" y1="263.9" x2="516.6" y2="265.1"/>
	<line class="st2" x1="520.7" y1="263.2" x2="518.6" y2="263.9"/>
	<line class="st2" x1="522.7" y1="262.2" x2="520.7" y2="263.2"/>
	<line class="st2" x1="524.7" y1="260.3" x2="522.7" y2="262.2"/>
	<line class="st2" x1="526.7" y1="257" x2="524.7" y2="260.3"/>
	<line class="st2" x1="528.7" y1="256.9" x2="526.7" y2="257"/>
	<line class="st2" x1="530.8" y1="256.5" x2="528.7" y2="256.9"/>
	<line class="st2" x1="532.8" y1="256" x2="530.8" y2="256.5"/>
	<line class="st2" x1="534.8" y1="257.4" x2="532.8" y2="256"/>
	<line class="st2" x1="536.8" y1="259.1" x2="534.8" y2="257.4"/>
	<line class="st2" x1="538.9" y1="261.2" x2="536.8" y2="259.1"/>
	<line class="st2" x1="540.9" y1="263.1" x2="538.9" y2="261.2"/>
	<line class="st2" x1="542.9" y1="262.5" x2="540.9" y2="263.1"/>
	<line class="st2" x1="544.9" y1="264.1" x2="542.9" y2="262.5"/>
	<line class="st2" x1="547" y1="265.6" x2="544.9" y2="264.1"/>
	<line class="st2" x1="549" y1="264.9" x2="547" y2="265.6"/>
	<line class="st2" x1="551" y1="264.2" x2="549" y2="264.9"/>
	<line class="st2" x1="553" y1="264.2" x2="551" y2="264.2"/>
	<line class="st2" x1="555.1" y1="264.7" x2="553" y2="264.2"/>
	<line class="st2" x1="557.1" y1="265" x2="555.1" y2="264.7"/>
	<line class="st2" x1="559.1" y1="264.5" x2="557.1" y2="265"/>
	<line class="st2" x1="561.1" y1="264.1" x2="559.1" y2="264.5"/>
	<line class="st2" x1="563.2" y1="262.8" x2="561.1" y2="264.1"/>
	<line class="st2" x1="565.2" y1="263.1" x2="563.2" y2="262.8"/>
	<line class="st2" x1="567.2" y1="264.4" x2="565.2" y2="263.1"/>
	<line class="st2" x1="569.2" y1="266" x2="567.2" y2="264.4"/>
	<line class="st2" x1="571.3" y1="268.5" x2="569.2" y2="266"/>
	<line class="st2" x1="573.3" y1="268.6" x2="571.3" y2="268.5"/>
	<line class="st2" x1="575.3" y1="268.4" x2="573.3" y2="268.6"/>
</g>
<g id="Calque_1_1_">
	<rect x="197.2" y="228.8" class="st5" width="38.2" height="20.7"/>
	<path class="st6" d="M199.7,243.5c4.8-6.5,4.9-6.6,4.9-7.7V235c0-1-0.4-1.4-1.3-1.4s-1.4,0.5-1.4,1.8v1h-2.3v-1.1
		c0-2.7,1.1-4,3.7-4s3.6,1,3.6,3.4v0.8c0,1.7-0.2,2.2-4.2,8h4.3v2.5h-7.3V243.5z"/>
	<path class="st6" d="M211.9,246c-2.6,0-3.8-1.5-3.8-4.5v-5.9c0-3,1.1-4.5,3.8-4.5s3.8,1.5,3.8,4.5v5.9
		C215.7,244.5,214.5,246,211.9,246z M211.9,233.6c-1,0-1.4,0.5-1.4,2.3v5.3c0,1.8,0.5,2.3,1.4,2.3s1.4-0.5,1.4-2.3v-5.3
		C213.4,234.1,212.9,233.6,211.9,233.6L211.9,233.6z"/>
	<path class="st6" d="M216.9,243.5c4.8-6.5,4.9-6.6,4.9-7.7V235c0-1-0.4-1.4-1.3-1.4s-1.4,0.5-1.4,1.8v1h-2.3v-1.1
		c0-2.7,1.1-4,3.7-4s3.6,1,3.6,3.4v0.8c0,1.7-0.2,2.2-4.2,8h4.3v2.5h-7.3V243.5z"/>
	<path class="st6" d="M229.1,246c-2.7,0-3.8-1.5-3.8-4.5v-5.9c0-3,1.1-4.5,3.8-4.5s3.8,1.5,3.8,4.5v5.9
		C232.9,244.5,231.7,246,229.1,246z M229.1,233.6c-1,0-1.4,0.5-1.4,2.3v5.3c0,1.8,0.5,2.3,1.4,2.3s1.4-0.5,1.4-2.3v-5.3
		C230.6,234.1,230.1,233.6,229.1,233.6L229.1,233.6z"/>
	<rect x="248.8" y="120.7" class="st7" width="38.2" height="20.7"/>
	<path class="st6" d="M253,135.4c4.8-6.5,4.9-6.6,4.9-7.7v-0.9c0-1-0.4-1.4-1.3-1.4s-1.4,0.5-1.4,1.8v0.9h-2.3v-1.1
		c0-2.7,1.1-4,3.7-4s3.6,1,3.6,3.4v0.8c0,1.7-0.2,2.2-4.2,8h4.3v2.5H253V135.4z"/>
	<path class="st6" d="M265.1,137.9c-2.6,0-3.8-1.5-3.8-4.5v-5.9c0-3,1.1-4.5,3.8-4.5s3.8,1.5,3.8,4.5v5.9
		C268.9,136.4,267.8,137.9,265.1,137.9z M265.1,125.5c-1,0-1.5,0.5-1.5,2.3v5.3c0,1.8,0.5,2.3,1.5,2.3s1.4-0.5,1.4-2.3v-5.3
		C266.6,126,266.1,125.5,265.1,125.5L265.1,125.5z"/>
	<path class="st6" d="M271.8,137.8v-11.5l-1.8,0.9v-2.6l2.9-1.5h1.2v14.7L271.8,137.8z"/>
	<path class="st6" d="M275.5,134.3v-1.1h2.3v0.8c0,1.2,0.4,1.7,1.4,1.7s1.4-0.5,1.4-2.2v-4.1c0,2.2-0.7,3.2-2.4,3.2
		c-2,0-2.8-1.1-2.8-3.5v-2.3c0-2.6,1.2-3.7,3.7-3.7c2.6,0,3.8,1.1,3.8,4v6.7c0,2.7-1.1,4.1-3.8,4.1
		C276.6,137.9,275.5,136.7,275.5,134.3z M280.5,128.9V127c0-1.2-0.4-1.6-1.4-1.6s-1.4,0.4-1.4,1.6v1.9c0,1.2,0.5,1.6,1.4,1.6
		S280.5,130.1,280.5,128.9L280.5,128.9z"/>
	<rect x="128.1" y="290.5" class="st6" width="103.1" height="31.5"/>
	<path d="M162.8,294.5h3.2c0.6,0,1.2,0.1,1.7,0.3c0.5,0.2,0.9,0.5,1.3,0.9c0.4,0.4,0.7,0.9,0.8,1.4c0.4,1.2,0.4,2.4,0,3.6
		c-0.2,0.5-0.5,1-0.8,1.4c-0.4,0.4-0.8,0.7-1.3,0.9c-0.5,0.2-1.1,0.3-1.7,0.3h-3.2V294.5z M166,302.2c0.4,0,0.8-0.1,1.1-0.2
		c0.3-0.1,0.7-0.4,0.9-0.7c0.2-0.3,0.4-0.6,0.6-1c0.1-0.4,0.2-0.9,0.2-1.4c0-0.5-0.1-0.9-0.2-1.3c-0.1-0.4-0.3-0.7-0.6-1
		c-0.2-0.3-0.5-0.5-0.9-0.7c-0.3-0.2-0.7-0.2-1.1-0.2h-1.9v6.5L166,302.2z"/>
	<path d="M177.4,301.2c0,0.3-0.1,0.6-0.2,0.9c-0.1,0.3-0.3,0.5-0.6,0.7c-0.3,0.2-0.5,0.4-0.9,0.5c-0.4,0.1-0.7,0.2-1.1,0.2
		c-0.5,0-0.9-0.1-1.4-0.2c-0.4-0.1-0.7-0.4-0.9-0.7c-0.2-0.3-0.4-0.6-0.5-1c-0.2-0.9-0.2-1.8,0-2.7c0.1-0.4,0.3-0.7,0.6-1
		c0.3-0.3,0.6-0.5,0.9-0.7c0.8-0.3,1.8-0.3,2.6,0c0.3,0.1,0.6,0.4,0.9,0.7c0.2,0.3,0.4,0.6,0.5,1c0.1,0.5,0.2,0.9,0.1,1.4v0.2h-4.5
		c0,0.6,0.1,1.1,0.5,1.6c0.3,0.3,0.7,0.5,1.2,0.5c0.4,0,0.8-0.1,1.1-0.3c0.3-0.2,0.5-0.6,0.5-1L177.4,301.2z M176.1,299.5
		c0-0.4-0.1-0.9-0.4-1.2c-0.3-0.3-0.7-0.5-1.1-0.5c-0.4,0-0.8,0.1-1.1,0.4c-0.3,0.3-0.5,0.8-0.5,1.3H176.1z M175.3,294.5h1.6
		l-1.8,1.7h-1L175.3,294.5z"/>
	<path d="M179.2,294.5h1.3v3.5l0,0c0.2-0.3,0.5-0.6,0.8-0.8c0.4-0.2,0.8-0.3,1.3-0.3c0.4,0,0.8,0.1,1.2,0.2c0.3,0.2,0.6,0.4,0.9,0.7
		c0.2,0.3,0.4,0.6,0.5,1c0.1,0.4,0.2,0.9,0.2,1.3c0,0.5-0.1,0.9-0.2,1.4c-0.1,0.4-0.3,0.7-0.5,1.1c-0.2,0.3-0.5,0.5-0.9,0.7
		c-0.4,0.2-0.8,0.2-1.2,0.2c-0.4,0-0.9-0.1-1.2-0.3c-0.3-0.2-0.6-0.5-0.8-0.8l0,0v1h-1.3V294.5z M182.2,302.5c0.5,0,1-0.2,1.3-0.6
		c0.6-1.1,0.6-2.4,0-3.5c-0.3-0.4-0.8-0.6-1.3-0.6c-0.5,0-1,0.2-1.3,0.6c-0.3,0.5-0.4,1.1-0.4,1.7c0,0.6,0.1,1.2,0.4,1.7
		C181.2,302.3,181.7,302.5,182.2,302.5L182.2,302.5z"/>
	<path d="M187,296.9h1.3v3.9c0,0.4,0.1,0.8,0.3,1.2c0.2,0.3,0.6,0.4,0.9,0.4c0.4,0,0.9-0.1,1.2-0.5c0.3-0.4,0.5-0.8,0.4-1.3v-3.7
		h1.3v6.4h-1.3v-1l0,0c-0.2,0.3-0.5,0.6-0.8,0.8c-0.4,0.2-0.8,0.3-1.2,0.3c-0.6,0.1-1.2-0.2-1.6-0.6c-0.3-0.5-0.5-1.1-0.5-1.7
		L187,296.9z"/>
	<path d="M194.4,298h-0.9v-1.1h0.9v-1.6h1.3v1.6h1.5v1.1h-1.5v3.4c0,0.3,0.1,0.5,0.2,0.7c0.2,0.2,0.4,0.2,0.7,0.2h0.3h0.3v1.1
		l-0.4,0.1c-0.2,0-0.3,0-0.5,0c-0.5,0-1-0.1-1.4-0.5c-0.4-0.4-0.6-1-0.5-1.6V298z"/>
	<path d="M138.3,314.3L138.3,314.3c-0.2,0.3-0.5,0.6-0.8,0.8c-0.4,0.2-0.8,0.3-1.3,0.3c-0.4,0-0.8-0.1-1.2-0.2
		c-0.3-0.2-0.6-0.4-0.9-0.7c-0.2-0.3-0.4-0.7-0.5-1c-0.1-0.4-0.2-0.9-0.2-1.3c0-0.5,0.1-0.9,0.2-1.4c0.1-0.4,0.3-0.7,0.5-1.1
		c0.2-0.3,0.5-0.5,0.9-0.7c0.4-0.2,0.8-0.2,1.2-0.2c0.4,0,0.9,0.1,1.3,0.3c0.3,0.2,0.6,0.5,0.8,0.8l0,0v-3.5h1.3v8.9h-1.3V314.3z
		 M136.6,314.5c0.5,0,1-0.2,1.3-0.6c0.3-0.5,0.4-1.1,0.4-1.7c0-0.6-0.1-1.2-0.4-1.7c-0.3-0.4-0.8-0.7-1.3-0.6c-0.5,0-1,0.2-1.3,0.6
		c-0.6,1.1-0.6,2.4,0,3.5C135.6,314.3,136.1,314.5,136.6,314.5L136.6,314.5z"/>
	<path d="M141.6,308.9h1.3v3.9c0,0.4,0.1,0.8,0.3,1.2c0.2,0.3,0.6,0.4,0.9,0.4c0.4,0,0.9-0.2,1.2-0.5c0.3-0.4,0.5-0.8,0.4-1.3v-3.7
		h1.3v6.4h-1.3v-1l0,0c-0.2,0.3-0.5,0.6-0.8,0.8c-0.4,0.2-0.8,0.3-1.2,0.3c-0.6,0.1-1.2-0.2-1.6-0.6c-0.3-0.5-0.5-1.1-0.5-1.7
		L141.6,308.9z"/>
	<path d="M158.1,313c0,0.7-0.3,1.4-0.8,1.9c-0.6,0.4-1.3,0.7-2,0.6c-0.5,0-0.9-0.1-1.3-0.2c-0.4-0.1-0.7-0.4-0.9-0.7
		c-0.3-0.3-0.4-0.7-0.6-1c-0.1-0.4-0.2-0.9-0.2-1.4c0-0.5,0.1-0.9,0.2-1.4c0.1-0.4,0.3-0.7,0.6-1c0.3-0.3,0.6-0.5,0.9-0.7
		c0.4-0.2,0.9-0.3,1.3-0.2c0.7,0,1.4,0.2,2,0.6c0.5,0.5,0.8,1.2,0.8,1.9h-1.3c0-0.4-0.2-0.8-0.5-1.1c-0.3-0.3-0.7-0.4-1.1-0.4
		c-0.5,0-1,0.2-1.3,0.6c-0.6,1.1-0.6,2.4,0,3.4c0.3,0.4,0.8,0.6,1.3,0.6c0.4,0,0.8-0.1,1.1-0.4c0.3-0.3,0.5-0.7,0.5-1.1L158.1,313z"
		/>
	<path d="M162.7,315.5c-0.5,0-0.9-0.1-1.3-0.2c-0.4-0.1-0.7-0.4-1-0.7c-0.3-0.3-0.5-0.6-0.6-1c-0.3-0.9-0.3-1.8,0-2.7
		c0.1-0.4,0.4-0.8,0.6-1.1c0.3-0.3,0.6-0.5,1-0.7c0.4-0.2,0.9-0.2,1.3-0.2c0.5,0,0.9,0.1,1.3,0.2c0.8,0.3,1.4,0.9,1.7,1.7
		c0.3,0.9,0.3,1.8,0,2.7c-0.2,0.4-0.4,0.7-0.6,1c-0.3,0.3-0.6,0.5-1,0.7C163.6,315.4,163.1,315.5,162.7,315.5z M162.7,314.5
		c0.5,0,1.1-0.2,1.4-0.6c0.7-1,0.7-2.4,0-3.4c-0.7-0.8-1.9-0.8-2.7-0.2c-0.1,0-0.1,0.1-0.2,0.2c-0.7,1-0.7,2.4,0,3.4
		C161.6,314.3,162.1,314.5,162.7,314.5L162.7,314.5z"/>
	<path d="M167.5,308.9h1.3v1l0,0c0.2-0.3,0.5-0.6,0.8-0.8c0.4-0.2,0.8-0.3,1.3-0.3c0.6-0.1,1.2,0.2,1.6,0.6c0.3,0.5,0.5,1.1,0.5,1.7
		v4.2h-1.3v-3.9c0-0.4-0.1-0.8-0.3-1.2c-0.2-0.3-0.6-0.5-1-0.4c-0.5,0-0.9,0.1-1.2,0.5c-0.3,0.4-0.5,0.8-0.5,1.3v3.7h-1.3
		L167.5,308.9z"/>
	<path d="M175.3,310h-0.9V309h0.9v-0.6c0-0.6,0.1-1.1,0.5-1.6c0.4-0.3,0.9-0.5,1.4-0.5c0.1,0,0.3,0,0.4,0c0.1,0,0.3,0,0.4,0.1v1.1
		c-0.1,0-0.2,0-0.3,0h-0.3c-0.2,0-0.5,0-0.6,0.2c-0.2,0.2-0.2,0.4-0.2,0.7v0.6h1.4v1.1h-1.4v5.4h-1.3L175.3,310z"/>
	<path d="M179.9,307.8c-0.2,0-0.4-0.1-0.6-0.2c-0.2-0.2-0.2-0.4-0.2-0.6c0-0.2,0.1-0.4,0.2-0.6c0.2-0.2,0.4-0.3,0.6-0.2
		c0.2,0,0.4,0.1,0.6,0.2c0.3,0.3,0.3,0.8,0,1.2C180.3,307.7,180.1,307.8,179.9,307.8z M179.2,308.9h1.3v6.4h-1.3V308.9z"/>
	<path d="M182.6,308.9h1.3v1l0,0c0.2-0.3,0.5-0.6,0.8-0.8c0.4-0.2,0.8-0.3,1.3-0.3c0.6-0.1,1.2,0.2,1.6,0.6c0.3,0.5,0.5,1.1,0.5,1.7
		v4.2h-1.3v-3.9c0-0.4-0.1-0.8-0.3-1.2c-0.2-0.3-0.6-0.5-1-0.4c-0.5,0-0.9,0.1-1.2,0.5c-0.3,0.4-0.5,0.8-0.5,1.3v3.7h-1.3
		L182.6,308.9z"/>
	<path d="M195.6,313.2c0,0.3-0.1,0.6-0.2,0.9c-0.1,0.3-0.3,0.5-0.6,0.7c-0.3,0.2-0.5,0.4-0.9,0.5c-0.4,0.1-0.7,0.2-1.1,0.2
		c-0.5,0-0.9-0.1-1.4-0.2c-0.4-0.1-0.7-0.4-0.9-0.7c-0.2-0.3-0.4-0.6-0.5-1c-0.2-0.9-0.2-1.8,0-2.7c0.1-0.4,0.3-0.7,0.6-1
		c0.3-0.3,0.6-0.5,0.9-0.7c0.4-0.2,0.9-0.3,1.3-0.2c0.4,0,0.9,0.1,1.3,0.2c0.3,0.2,0.6,0.4,0.9,0.7c0.2,0.3,0.4,0.6,0.5,1
		c0.1,0.5,0.2,0.9,0.1,1.4v0.2H191c0,0.6,0.1,1.1,0.5,1.6c0.3,0.3,0.7,0.5,1.2,0.5c0.4,0,0.8-0.1,1.1-0.3c0.3-0.2,0.5-0.6,0.5-1
		L195.6,313.2z M194.3,311.5c0-0.4-0.1-0.9-0.4-1.2c-0.3-0.3-0.7-0.5-1.1-0.5c-0.4,0-0.8,0.1-1.2,0.4c-0.3,0.3-0.5,0.8-0.5,1.3
		H194.3z"/>
	<path d="M197.4,308.9h1.3v1l0,0c0.2-0.3,0.4-0.6,0.7-0.8c0.3-0.2,0.7-0.3,1.1-0.3c0.4,0,0.8,0.1,1.2,0.3c0.3,0.2,0.5,0.5,0.6,0.9
		l0,0c0.2-0.4,0.5-0.7,0.8-0.9c0.4-0.2,0.8-0.3,1.2-0.3c0.6-0.1,1.1,0.2,1.5,0.6c0.4,0.5,0.5,1.1,0.5,1.7v4.2h-1.3v-3.9
		c0-0.4-0.1-0.8-0.3-1.2c-0.2-0.3-0.5-0.4-0.9-0.4c-0.4,0-0.8,0.1-1.1,0.4c-0.3,0.4-0.4,0.8-0.4,1.3v3.8h-1.3v-3.9
		c0-0.4,0-0.8-0.2-1.2c-0.2-0.3-0.5-0.4-0.9-0.4c-0.4,0-0.8,0.1-1.1,0.5c-0.3,0.4-0.4,0.8-0.4,1.3v3.7h-1.3L197.4,308.9z"/>
	<path d="M213.9,313.2c0,0.3-0.1,0.6-0.2,0.9c-0.1,0.3-0.3,0.5-0.6,0.7c-0.3,0.2-0.5,0.4-0.9,0.5c-0.4,0.1-0.7,0.2-1.1,0.2
		c-0.5,0-0.9-0.1-1.4-0.2c-0.4-0.1-0.7-0.4-0.9-0.7c-0.2-0.3-0.4-0.6-0.6-1c-0.1-0.4-0.2-0.9-0.2-1.4c0-0.5,0.1-0.9,0.2-1.4
		c0.1-0.4,0.3-0.7,0.6-1c0.3-0.3,0.6-0.5,0.9-0.7c0.4-0.2,0.9-0.3,1.3-0.2c0.4,0,0.9,0.1,1.3,0.2c0.3,0.1,0.6,0.4,0.9,0.7
		c0.2,0.3,0.4,0.6,0.5,1c0.1,0.5,0.2,0.9,0.2,1.4v0.2h-4.5c0,0.6,0.1,1.1,0.5,1.6c0.3,0.4,0.7,0.5,1.2,0.5c0.4,0,0.8-0.1,1.1-0.3
		c0.3-0.2,0.5-0.6,0.5-1L213.9,313.2z M212.6,311.5c0-0.4-0.2-0.9-0.4-1.2c-0.3-0.3-0.7-0.5-1.1-0.5c-0.4,0-0.8,0.1-1.1,0.4
		c-0.3,0.3-0.5,0.8-0.5,1.3H212.6z"/>
	<path d="M215.7,308.9h1.3v1l0,0c0.2-0.3,0.5-0.6,0.8-0.8c0.4-0.2,0.8-0.3,1.3-0.3c0.6-0.1,1.2,0.2,1.6,0.6c0.3,0.5,0.5,1.1,0.5,1.7
		v4.2h-1.3v-3.9c0-0.4-0.1-0.8-0.3-1.2c-0.2-0.3-0.6-0.5-1-0.4c-0.5,0-0.9,0.1-1.2,0.5c-0.3,0.4-0.5,0.8-0.4,1.3v3.7h-1.3
		L215.7,308.9z"/>
	<path d="M223.3,310h-0.9v-1.1h0.9v-1.6h1.3v1.6h1.5v1.1h-1.5v3.4c0,0.3,0.1,0.5,0.2,0.7c0.2,0.2,0.4,0.2,0.7,0.2h0.3h0.3v1.1
		l-0.4,0.1c-0.2,0-0.3,0-0.5,0c-0.5,0-1-0.1-1.4-0.5c-0.4-0.4-0.6-1-0.5-1.6L223.3,310z"/>
</g>
</svg>
