<?xml version="1.0" encoding="utf-8"?>
<!-- Generator: Adobe Illustrator 24.0.3, SVG Export Plug-In . SVG Version: 6.00 Build 0)  -->
<svg version="1.1" id="Calque_1" xmlns="http://www.w3.org/2000/svg" xmlns:xlink="http://www.w3.org/1999/xlink" x="0px" y="0px"
	 viewBox="0 0 600 524.5" style="enable-background:new 0 0 600 524.5;" xml:space="preserve">
<style type="text/css">
	.st0{fill:#FFFFFF;}
	.st1{font-family:'Produkt-Regular';}
	.st2{font-size:9px;}
	.st3{fill:#231F20;}
	.st4{fill:none;}
	.st5{fill:#E3234A;}
	.st6{fill:none;stroke:#000000;stroke-width:2;stroke-miterlimit:10;}
	.st7{fill:none;stroke:#000000;stroke-width:0.5;stroke-miterlimit:10;stroke-dasharray:5,2;}
	.st8{fill:none;stroke:#FFFFFF;stroke-width:0.5;stroke-linejoin:round;}
</style>
<title>LIB-2020-05-07-salaries-activite-partielle</title>
<g id="FOND">
	<rect id="Fond_blanc" y="-51.3" class="st0" width="600" height="600"/>
</g>
<path d="M6.7,524.3v-1.6h1.8v-6.2l-1.9,1.3v-2l2.2-1.6h2v8.5h1.7v1.6H6.7z"/>
<path d="M13,517.6L13,517.6c-0.1-1.2,0.9-2.2,2-2.3c0.1,0,0.1,0,0.2,0c1.1,0,2,0.8,2.1,1.9c0,0.1,0,0.2,0,0.3v0.3h-3.1
	c0.1,0.7,0.4,1.1,1.1,1.1s0.8-0.2,0.9-0.6h1.1c-0.1,0.9-0.9,1.4-2,1.4c-1.1,0.1-2.2-0.7-2.3-1.9C13,517.8,13,517.7,13,517.6z
	 M16.1,517c0-0.5-0.3-0.9-0.8-0.9h-0.1c-0.5,0-1,0.4-1,0.9H16.1z"/>
<path d="M17.7,519.6v-0.8h0.5v-2.6h-0.5v-0.9h1.6v0.9c0.2-0.6,0.8-1,1.5-0.9v1.1c-0.9,0-1.5,0.3-1.5,1.1v1.3h0.5v0.8L17.7,519.6
	L17.7,519.6z"/>
<path d="M24.2,524.3v-1.4H25v-4.4h-0.8V517H27v1.2c0.4-0.8,1.3-1.4,2.2-1.4c0.9,0,1.7,0.5,2,1.4c0.5-0.9,1.4-1.4,2.4-1.4
	c1.3,0,2.4,0.8,2.4,2.8v3.2h0.8v1.4h-3.6v-1.4H34v-3.1c0-0.9-0.4-1.4-1.1-1.4c-0.8,0-1.4,0.6-1.4,1.4c0,0.1,0,0.1,0,0.2v2.9h0.8v1.4
	h-3.6v-1.4h0.8v-3.1c0-0.9-0.4-1.4-1.1-1.4c-0.8,0-1.4,0.6-1.3,1.4v0.1v2.9h0.8v1.4h-3.7V524.3z"/>
<path d="M39.8,524.5c-1.2,0.2-2.2-0.6-2.4-1.8c0-0.1,0-0.3,0-0.4c0-1.8,1.6-2.3,3.8-2.3H42v-0.3c0-0.9-0.3-1.3-1.2-1.3
	c-0.5-0.1-1.1,0.2-1.2,0.8c0,0.1,0,0.1,0,0.2h-2c0.1-1.8,1.5-2.5,3.2-2.5s3,0.7,3,2.7v3.3h0.8v1.4H42v-1
	C41.6,524,40.7,524.5,39.8,524.5z M42,521.7v-0.6h-0.8c-1.2,0-1.8,0.3-1.8,1c0,0.5,0.3,0.9,1,0.9C41.3,523,42,522.6,42,521.7z"/>
<path d="M45.3,524.3v-1.4h0.8v-4.4h-0.8V517h2.8v1.5c0.4-1,1.4-1.7,2.5-1.6v1.9c-1.6,0-2.5,0.5-2.5,1.8v2.2H49v1.4L45.3,524.3z"/>
<path d="M52.8,523.5v0.8h-1.5v-2.4h1.5c0.1,0.8,0.8,1.3,1.6,1.3s1.2-0.3,1.2-0.9s-0.5-0.8-1.5-0.9c-2-0.3-2.7-1-2.7-2.3
	c0-1.2,1-2.2,2.2-2.2c0.1,0,0.2,0,0.3,0c1.2,0,1.7,0.4,1.9,0.8V517h1.4v2.2h-1.4c-0.2-0.7-0.8-1.1-1.5-1.1c-0.6,0-1,0.2-1,0.8
	s0.3,0.7,1.4,0.9c1.8,0.3,2.8,0.8,2.8,2.3s-1,2.4-2.7,2.4C54,524.6,53.2,524.2,52.8,523.5z"/>
<path d="M500.1,524.3v-1.6h1.1v-1h-4.7v-1.1l4.2-6.2h2.8v5.8h1.3v1.5h-1.3v1h1.1v1.6H500.1z M501.3,520.1v-4.3l-2.8,4.3H501.3z"/>
<path d="M508.3,524.3v-1.4h0.8v-4.4h-0.8V517h2.8v1.2c0.4-0.9,1.3-1.4,2.2-1.4s1.7,0.5,2,1.4c0.5-0.9,1.4-1.4,2.4-1.4
	c1.3,0,2.4,0.8,2.4,2.8v3.2h0.8v1.4h-3.6v-1.4h0.8v-3.1c0-0.9-0.4-1.4-1.1-1.4c-0.8,0-1.4,0.6-1.4,1.4c0,0.1,0,0.1,0,0.2v2.9h0.8
	v1.4h-3.6v-1.4h0.8v-3.1c0-0.9-0.4-1.4-1.1-1.4c-0.8,0-1.4,0.6-1.4,1.4v0.1v2.9h0.8v1.4h-3.6V524.3z"/>
<path d="M524,524.5c-1.2,0.2-2.3-0.6-2.4-1.8c0-0.1,0-0.2,0-0.4c0-1.8,1.6-2.3,3.8-2.3h0.8v-0.3c0-0.9-0.3-1.3-1.2-1.3
	c-0.6-0.1-1.1,0.3-1.2,0.9v0.1h-2c0.1-1.8,1.5-2.5,3.2-2.5s3.1,0.7,3.1,2.7v3.3h0.8v1.4h-2.7v-1C525.7,524,524.9,524.5,524,524.5z
	 M526.1,521.7v-0.6h-0.8c-1.2,0-1.8,0.3-1.8,1c0,0.5,0.3,0.9,1,0.9S526.1,522.6,526.1,521.7z"/>
<path d="M529.5,524.3v-1.4h0.8v-4.4h-0.8V517h2.8v5.9h0.8v1.4L529.5,524.3L529.5,524.3z M530,514.9c0-0.7,0.5-1.2,1.1-1.2
	s1.2,0.5,1.2,1.1c0,0.7-0.5,1.2-1.1,1.2c0,0,0,0-0.1,0C530.6,516,530,515.6,530,514.9L530,514.9L530,514.9z"/>
<text transform="matrix(1.08 0 0 1 544.1396 504.834)" class="st1 st2">0</text>
<text transform="matrix(1.08 0 0 1 544.1396 421.834)" class="st1 st2">2 millions</text>
<text transform="matrix(1.08 0 0 1 544.1396 338.834)" class="st1 st2">4 millions</text>
<text transform="matrix(1.08 0 0 1 544.1396 255.834)" class="st1 st2">6 millions</text>
<text transform="matrix(1.08 0 0 1 544.1396 172.834)" class="st1 st2">8 millions</text>
<text transform="matrix(1.08 0 0 1 544.1396 89.834)" class="st1 st2">1</text>
<text transform="matrix(1.08 0 0 1 548.417 89.834)" class="st1 st2">0 millions</text>
<text transform="matrix(1.08 0 0 1 544.1396 6.834)" class="st3 st1 st2">12 millions</text>
<polygon class="st4" points="573.7,-1.9 643.1,6.1 643.1,55.9 573.7,47.9 "/>
<polygon class="st5" points="533.8,504.1 4.2,504.1 4.2,504.1 12.5,503.8 20.8,503.6 29,503.5 37.3,503.2 45.6,502.8 53.8,502.8 
	62.1,502.8 70.4,502.3 78.7,501.6 86.9,501 95.2,499.8 103.5,498.3 111.8,498 120,497.5 128.3,497.2 136.6,490.4 144.9,485.9 
	153.1,481.7 161.4,477.7 169.7,477.3 178,476.9 186.2,468.9 194.5,451.9 202.8,433.1 211.1,414.5 219.3,396 227.6,392.7 
	235.9,388.8 244.2,365.4 252.4,337.8 260.7,316.2 269,290.3 277.2,260 285.5,256.2 293.8,253.9 302.1,230.8 310.4,207 318.6,182 
	326.9,157.4 335.2,139.4 343.5,134.9 351.7,133.6 360,131.2 368.3,116.5 376.5,104.4 384.8,94.4 393.1,83.7 401.4,82.8 409.6,82.1 
	417.9,72.6 426.2,65 434.5,56.2 442.7,48.8 451,42.1 459.3,41.2 467.6,40.7 475.8,31.9 484.1,24.8 492.4,17.3 500.7,8.6 508.9,8.1 
	517.2,7.8 525.5,7.4 533.8,2.5 "/>
<line class="st6" x1="6.5" y1="503.4" x2="533.5" y2="503.4"/>
<line class="st7" x1="145.5" y1="147.4" x2="145.5" y2="524.4"/>
<rect x="93.9" y="115.8" class="st0" width="103.1" height="31.5"/>
<path d="M128.6,119.7h3.2c0.6,0,1.2,0.1,1.7,0.3c0.5,0.2,0.9,0.5,1.3,0.9c0.4,0.4,0.7,0.9,0.9,1.4c0.4,1.2,0.4,2.4,0,3.6
	c-0.2,0.5-0.5,1-0.9,1.4s-0.8,0.7-1.3,0.9s-1.1,0.3-1.7,0.3h-3.2V119.7z M131.8,127.4c0.4,0,0.8-0.1,1.1-0.2s0.6-0.4,0.9-0.7
	c0.2-0.3,0.4-0.6,0.6-1c0.1-0.4,0.2-0.9,0.2-1.4s-0.1-0.9-0.2-1.3c-0.1-0.4-0.3-0.7-0.6-1c-0.2-0.3-0.5-0.5-0.9-0.7
	c-0.3-0.2-0.7-0.2-1.1-0.2H130v6.6L131.8,127.4z"/>
<path d="M143.2,126.4c0,0.3-0.1,0.6-0.2,0.9c-0.1,0.3-0.3,0.5-0.6,0.7s-0.5,0.4-0.9,0.5s-0.7,0.2-1.1,0.2c-0.5,0-0.9-0.1-1.4-0.2
	c-0.4-0.1-0.7-0.4-0.9-0.7c-0.3-0.3-0.4-0.7-0.6-1.1c-0.1-0.4-0.2-0.9-0.2-1.4s0.1-0.9,0.2-1.4c0.1-0.4,0.3-0.7,0.6-1
	s0.6-0.5,0.9-0.7c0.8-0.3,1.8-0.3,2.6,0c0.3,0.1,0.6,0.4,0.9,0.7c0.2,0.3,0.4,0.7,0.5,1.1c0.1,0.5,0.2,0.9,0.2,1.4v0.2h-4.5
	c0,0.6,0.1,1.1,0.5,1.6c0.3,0.4,0.7,0.5,1.2,0.5c0.4,0,0.8-0.1,1.1-0.3c0.3-0.2,0.5-0.6,0.5-0.9L143.2,126.4z M142,124.8
	c0-0.4-0.2-0.9-0.4-1.2c-0.3-0.3-0.7-0.5-1.1-0.5c-0.4,0-0.8,0.1-1.1,0.4s-0.5,0.8-0.5,1.3C138.9,124.8,142,124.8,142,124.8z
	 M141.1,119.8h1.6l-1.8,1.7h-1L141.1,119.8z"/>
<path d="M145.1,119.7h1.3v3.5l0,0c0.2-0.3,0.5-0.6,0.8-0.8c0.4-0.2,0.8-0.3,1.3-0.3c0.4,0,0.8,0.1,1.2,0.2c0.3,0.2,0.6,0.4,0.9,0.7
	c0.2,0.3,0.4,0.6,0.5,1c0.2,0.9,0.2,1.8,0,2.7c-0.1,0.4-0.3,0.7-0.5,1.1c-0.2,0.3-0.5,0.5-0.9,0.7s-0.8,0.2-1.2,0.2
	s-0.9-0.1-1.3-0.3c-0.3-0.2-0.6-0.5-0.8-0.8l0,0v1h-1.3V119.7z M148.1,127.7c0.5,0,1-0.2,1.3-0.6c0.6-1.1,0.6-2.4,0-3.5
	c-0.3-0.4-0.8-0.6-1.3-0.6s-1,0.2-1.3,0.6c-0.3,0.5-0.5,1.1-0.4,1.7c0,0.6,0.1,1.2,0.4,1.7C147,127.6,147.5,127.8,148.1,127.7
	L148.1,127.7z"/>
<path d="M152.8,122.2h1.3v3.9c0,0.4,0.1,0.8,0.3,1.2c0.2,0.3,0.6,0.4,0.9,0.4c0.4,0,0.9-0.2,1.2-0.5c0.3-0.4,0.5-0.8,0.4-1.3v-3.7
	h1.3v6.4h-1.3v-1l0,0c-0.2,0.3-0.5,0.6-0.8,0.8c-0.4,0.2-0.8,0.3-1.2,0.3c-0.6,0.1-1.2-0.2-1.6-0.6c-0.3-0.5-0.5-1.1-0.5-1.7
	L152.8,122.2z"/>
<path d="M160.3,123.3h-0.9v-1.1h0.9v-1.6h1.3v1.6h1.5v1.1h-1.5v3.4c0,0.3,0.1,0.5,0.2,0.7c0.2,0.2,0.4,0.2,0.7,0.2h0.3h0.3v1.1
	l-0.4,0.1c-0.1,0-0.3,0-0.4,0c-0.5,0-1-0.1-1.4-0.5c-0.4-0.4-0.6-1-0.5-1.6L160.3,123.3z"/>
<path d="M104.2,139.6L104.2,139.6c-0.2,0.3-0.5,0.6-0.8,0.8c-0.4,0.2-0.8,0.3-1.3,0.3c-0.4,0-0.8-0.1-1.2-0.2
	c-0.3-0.2-0.6-0.4-0.8-0.7c-0.2-0.3-0.4-0.6-0.5-1s-0.2-0.9-0.2-1.3c0-0.5,0.1-0.9,0.2-1.4c0.1-0.4,0.3-0.7,0.5-1.1
	c0.2-0.3,0.5-0.5,0.9-0.7s0.8-0.2,1.2-0.2c0.4,0,0.9,0.1,1.3,0.3c0.3,0.2,0.6,0.5,0.8,0.8l0,0v-3.5h1.3v8.9h-1.3L104.2,139.6z
	 M102.4,139.8c0.5,0,1-0.2,1.3-0.6c0.3-0.5,0.4-1.1,0.4-1.7c0-0.6-0.1-1.2-0.4-1.7c-0.3-0.4-0.8-0.7-1.3-0.6c-0.5,0-1,0.2-1.3,0.6
	c-0.6,1.1-0.6,2.4,0,3.5C101.4,139.6,101.9,139.8,102.4,139.8z"/>
<path d="M107.5,134.2h1.3v3.9c0,0.4,0.1,0.8,0.3,1.2c0.2,0.3,0.6,0.4,0.9,0.4c0.4,0,0.9-0.1,1.2-0.5c0.3-0.4,0.5-0.8,0.4-1.3v-3.7
	h1.3v6.4h-1.3v-1l0,0c-0.2,0.3-0.5,0.6-0.8,0.8c-0.4,0.2-0.8,0.3-1.2,0.3c-0.6,0.1-1.2-0.2-1.6-0.6c-0.3-0.5-0.5-1.1-0.5-1.7
	L107.5,134.2z"/>
<path d="M123.9,138.3c0,0.7-0.3,1.4-0.8,1.9c-0.6,0.4-1.3,0.7-2,0.6c-0.5,0-0.9-0.1-1.3-0.2c-0.4-0.1-0.7-0.4-0.9-0.7
	c-0.3-0.3-0.5-0.7-0.6-1.1c-0.1-0.4-0.2-0.9-0.2-1.4s0.1-0.9,0.2-1.4c0.1-0.4,0.3-0.7,0.6-1c0.3-0.3,0.6-0.5,0.9-0.7
	c0.4-0.2,0.9-0.2,1.3-0.2c0.7,0,1.4,0.2,2,0.6c0.5,0.5,0.8,1.2,0.8,1.9h-1.3c0-0.4-0.2-0.8-0.5-1.1c-0.7-0.6-1.7-0.5-2.3,0.2
	c-0.3,0.5-0.5,1.1-0.4,1.7c0,0.6,0.1,1.2,0.4,1.7c0.3,0.4,0.8,0.6,1.3,0.6c0.4,0,0.8-0.1,1.1-0.4c0.3-0.3,0.4-0.7,0.5-1.1
	L123.9,138.3z"/>
<path d="M128.5,140.7c-0.5,0-0.9-0.1-1.3-0.2c-0.4-0.1-0.7-0.4-1-0.7s-0.5-0.7-0.6-1.1c-0.3-0.9-0.3-1.8,0-2.7
	c0.1-0.4,0.4-0.8,0.6-1.1c0.3-0.3,0.6-0.5,1-0.7s0.9-0.2,1.3-0.2c0.5,0,0.9,0.1,1.3,0.2c0.8,0.3,1.4,0.9,1.7,1.7
	c0.3,0.9,0.3,1.8,0,2.7c-0.1,0.4-0.4,0.7-0.6,1.1c-0.3,0.3-0.6,0.5-1,0.7C129.4,140.7,129,140.7,128.5,140.7z M128.5,139.7
	c0.5,0,1.1-0.2,1.4-0.6c0.7-1,0.7-2.4,0-3.4c-0.7-0.8-1.9-0.8-2.6-0.2c-0.1,0.1-0.1,0.1-0.2,0.2c-0.7,1-0.7,2.4,0,3.4
	C127.5,139.5,128,139.8,128.5,139.7z"/>
<path d="M133.4,134.2h1.3v1l0,0c0.2-0.3,0.5-0.6,0.8-0.8c0.4-0.2,0.8-0.3,1.3-0.3c0.6-0.1,1.2,0.2,1.6,0.6c0.3,0.5,0.5,1.1,0.5,1.7
	v4.2h-1.3v-3.9c0-0.4-0.1-0.8-0.3-1.2c-0.2-0.3-0.6-0.5-1-0.4c-0.5,0-0.9,0.1-1.2,0.5s-0.5,0.8-0.5,1.3v3.7h-1.3L133.4,134.2z"/>
<path d="M141.1,135.3h-0.9v-1.1h0.9v-0.5c-0.1-0.6,0.1-1.1,0.5-1.6c0.4-0.3,0.9-0.5,1.4-0.5c0.1,0,0.3,0,0.4,0c0.1,0,0.3,0,0.4,0.1
	v1.1c-0.1,0-0.2,0-0.3,0h-0.3c-0.2,0-0.5,0-0.6,0.2c-0.2,0.2-0.2,0.4-0.2,0.7v0.6h1.4v1.1h-1.4v5.3h-1.3L141.1,135.3L141.1,135.3z"
	/>
<path d="M145.7,133.1c-0.2,0-0.4-0.1-0.6-0.2c-0.2-0.2-0.2-0.4-0.2-0.6c0-0.2,0.1-0.4,0.2-0.6c0.2-0.2,0.4-0.3,0.6-0.2
	c0.2,0,0.4,0.1,0.6,0.2c0.3,0.3,0.3,0.8,0,1.2C146.2,133,146,133.1,145.7,133.1z M145.1,134.2h1.3v6.4h-1.3V134.2z"/>
<path d="M148.4,134.2h1.3v1l0,0c0.2-0.3,0.5-0.6,0.8-0.8c0.4-0.2,0.8-0.3,1.3-0.3c0.6-0.1,1.2,0.2,1.6,0.6c0.3,0.5,0.5,1.1,0.5,1.7
	v4.2h-1.3v-3.9c0-0.4-0.1-0.8-0.3-1.2c-0.2-0.3-0.6-0.5-1-0.4c-0.5,0-0.9,0.1-1.2,0.5s-0.5,0.8-0.5,1.3v3.7h-1.3L148.4,134.2z"/>
<path d="M161.4,138.4c0,0.3-0.1,0.6-0.2,0.9c-0.1,0.3-0.3,0.5-0.6,0.7s-0.5,0.4-0.9,0.5s-0.8,0.2-1.1,0.2c-0.5,0-0.9-0.1-1.4-0.2
	c-0.4-0.1-0.7-0.4-0.9-0.7c-0.3-0.3-0.4-0.7-0.5-1.1c-0.1-0.4-0.2-0.9-0.2-1.4s0.1-0.9,0.2-1.4c0.1-0.4,0.3-0.7,0.6-1
	s0.6-0.5,0.9-0.7c0.8-0.3,1.8-0.3,2.6,0c0.3,0.1,0.6,0.4,0.9,0.7c0.2,0.3,0.4,0.7,0.5,1.1c0.1,0.5,0.2,0.9,0.1,1.4v0.2h-4.5
	c0,0.6,0.1,1.1,0.5,1.6c0.3,0.3,0.7,0.5,1.2,0.5c0.4,0,0.8-0.1,1.1-0.3s0.5-0.6,0.5-0.9L161.4,138.4z M160.1,136.8
	c0-0.4-0.1-0.9-0.4-1.2c-0.3-0.3-0.7-0.5-1.1-0.5c-0.4,0-0.8,0.1-1.1,0.4c-0.3,0.3-0.5,0.8-0.5,1.3H160.1z"/>
<path d="M163.2,134.2h1.3v1l0,0c0.2-0.3,0.4-0.6,0.7-0.8s0.8-0.3,1.2-0.3s0.8,0.1,1.2,0.3c0.3,0.2,0.5,0.5,0.6,0.9l0,0
	c0.2-0.4,0.5-0.7,0.8-0.9c0.4-0.2,0.8-0.3,1.2-0.3c0.6-0.1,1.1,0.2,1.5,0.6c0.4,0.5,0.5,1.1,0.5,1.7v4.2H171v-3.9
	c0-0.4-0.1-0.8-0.3-1.2c-0.2-0.3-0.5-0.4-0.9-0.4s-0.8,0.1-1.1,0.4c-0.3,0.3-0.4,0.8-0.4,1.3v3.8H167v-3.9c0-0.4-0.1-0.8-0.2-1.2
	c-0.2-0.3-0.5-0.4-0.9-0.4s-0.8,0.1-1.1,0.5s-0.4,0.8-0.4,1.3v3.7h-1.3L163.2,134.2z"/>
<path d="M179.7,138.4c0,0.3-0.1,0.6-0.2,0.9c-0.1,0.3-0.3,0.5-0.6,0.7s-0.5,0.4-0.9,0.5s-0.7,0.2-1.1,0.2c-0.5,0-0.9-0.1-1.4-0.2
	c-0.4-0.1-0.7-0.4-0.9-0.7c-0.3-0.3-0.4-0.7-0.6-1.1c-0.2-0.9-0.2-1.8,0-2.7c0.1-0.4,0.3-0.7,0.6-1s0.6-0.5,0.9-0.7
	c0.4-0.2,0.9-0.3,1.3-0.2c0.4,0,0.9,0.1,1.3,0.2c0.3,0.2,0.6,0.4,0.9,0.7c0.2,0.3,0.4,0.7,0.5,1.1c0.1,0.5,0.2,0.9,0.2,1.4v0.2h-4.5
	c0,0.6,0.1,1.1,0.5,1.6c0.3,0.3,0.7,0.5,1.2,0.5c0.4,0,0.8-0.1,1.1-0.3s0.5-0.6,0.5-0.9L179.7,138.4z M178.4,136.8
	c0-0.4-0.1-0.9-0.4-1.2c-0.3-0.3-0.7-0.5-1.1-0.5c-0.4,0-0.8,0.1-1.2,0.4c-0.3,0.3-0.5,0.8-0.5,1.3H178.4z"/>
<path d="M181.5,134.2h1.3v1l0,0c0.2-0.3,0.5-0.6,0.8-0.8c0.4-0.2,0.8-0.3,1.3-0.3c0.6-0.1,1.2,0.2,1.6,0.6c0.3,0.5,0.5,1.1,0.5,1.7
	v4.2h-1.3v-3.9c0-0.4-0.1-0.8-0.3-1.2c-0.2-0.3-0.6-0.5-1-0.4c-0.5,0-0.9,0.1-1.2,0.5s-0.5,0.8-0.5,1.3v3.7h-1.3L181.5,134.2z"/>
<path d="M189.1,135.3h-0.9v-1.1h0.9v-1.6h1.3v1.6h1.5v1.1h-1.5v3.4c0,0.3,0.1,0.5,0.2,0.7c0.2,0.2,0.4,0.2,0.7,0.2h0.3h0.3v1.1
	l-0.4,0.1c-0.2,0-0.3,0-0.5,0c-0.5,0-1-0.1-1.4-0.5s-0.6-1-0.5-1.6L189.1,135.3L189.1,135.3z"/>
<line class="st8" x1="407.6" y1="5.8" x2="535.2" y2="5.8"/>
<line class="st8" x1="19.5" y1="88.9" x2="535.2" y2="88.9"/>
<line class="st8" x1="19.5" y1="172" x2="535.2" y2="172"/>
<line class="st8" x1="19.5" y1="255.1" x2="535.2" y2="255.1"/>
<line class="st8" x1="19.5" y1="338.1" x2="535.2" y2="338.1"/>
<line class="st8" x1="19.5" y1="421.1" x2="535.2" y2="421.1"/>
</svg>
