<?xml version="1.0" encoding="utf-8"?>
<!-- Generator: Adobe Illustrator 24.0.3, SVG Export Plug-In . SVG Version: 6.00 Build 0)  -->
<svg version="1.1" id="Calque_1" xmlns="http://www.w3.org/2000/svg" xmlns:xlink="http://www.w3.org/1999/xlink" x="0px" y="0px"
	 viewBox="0 0 600 506.2" style="enable-background:new 0 0 600 506.2;" xml:space="preserve">
<style type="text/css">
	.st0{fill:#FFFFFF;}
	.st1{fill:none;stroke:#808080;stroke-width:0.5;stroke-miterlimit:10;}
	.st2{fill:none;stroke:#000000;stroke-miterlimit:10;}
	.st3{fill:#E3234A;}
	.st4{fill:#FFFFFF;stroke:#404040;stroke-width:2;stroke-miterlimit:10;}
	.st5{fill:#FFFFFF;stroke:#E3234A;stroke-width:2;stroke-miterlimit:10;}
	.st6{fill:none;stroke:#231F20;stroke-width:0.5;stroke-miterlimit:10;stroke-dasharray:5,2;}
	.st7{fill:none;stroke:#FFFFFF;stroke-width:3;stroke-linecap:round;stroke-linejoin:round;}
	.st8{fill:#1D1D1B;}
	.st9{fill:none;stroke:#000000;stroke-width:2;stroke-miterlimit:10;}
</style>
<title>LIB-2020-05-07-LIB-2020-05-07-tues-route-1</title>
<g id="FOND">
	<rect id="Fond_blanc" y="-80.3" class="st0" width="600" height="600"/>
</g>
<g id="HABILLAGE">
	<path d="M475,493.1v-0.8h1V486h-1v-0.8h3.2c1.5,0,2.8,0.7,2.8,2.3l0,0c0,1.7-1.3,2.3-2.8,2.3h-1.3v2.5h1.1v0.8L475,493.1z
		 M478.3,489.1c1.1,0,1.7-0.5,1.7-1.6l0,0c0-1.1-0.7-1.5-1.7-1.5h-1.4v3.2L478.3,489.1z"/>
	<path d="M481.5,493.1v-0.7h0.8v-7h-0.8v-0.8h1.8v7.8h0.8v0.7L481.5,493.1z"/>
	<path d="M487.3,493.2c-1.1,0-2-0.6-2-2.3v-2.8h-0.8v-0.8h1.7v3.6c0,1,0.4,1.5,1.3,1.5c0.8,0,1.5-0.6,1.5-1.4c0,0,0-0.1,0-0.1v-2.7
		h-0.8v-0.8h1.8v5h0.8v0.7h-1.7v-1C488.8,492.8,488,493.2,487.3,493.2z"/>
	<path d="M492.2,492.4v0.7h-0.8v-1.9h0.7c0.1,0.8,0.8,1.3,1.5,1.3c0.8,0,1.2-0.3,1.2-1s-0.5-0.8-1.4-1c-1.5-0.3-2-0.8-2-1.8
		c0-0.9,0.8-1.6,1.7-1.5c0,0,0.1,0,0.1,0c0.6-0.1,1.2,0.2,1.4,0.7v-0.6h0.8v1.7h-0.8c-0.1-0.6-0.7-1.1-1.4-1c-0.6,0-1.1,0.2-1.1,0.8
		s0.3,0.8,1.4,1s2,0.5,2,1.7c0,1-0.7,1.7-2.1,1.7C493.1,493.3,492.5,492.9,492.2,492.4z"/>
	<path d="M499.1,493.1v-0.7h0.8v-4.3h-0.8v-0.8h0.8v-0.9c0-1.2,0.6-1.8,1.7-1.8c0.2,0,0.5,0,0.7,0.1v0.8c-0.2-0.1-0.4-0.1-0.6-0.1
		c-0.6,0-0.8,0.4-0.8,1v1h1.4v0.8h-1.4v4.3h1v0.7L499.1,493.1z"/>
	<path d="M502.8,490.3L502.8,490.3c0-1.7,1.3-2.9,2.8-2.9c1.6,0,2.8,1.3,2.8,2.8v0.1c0,1.6-1.3,2.8-2.8,2.8
		C504,493.1,502.8,491.8,502.8,490.3z M507.5,490.3L507.5,490.3c0-1.4-0.7-2.3-1.9-2.3s-1.9,0.9-1.9,2.2v0.1c0,1.3,0.7,2.2,1.9,2.2
		c1.1,0,1.9-0.9,1.9-1.9C507.5,490.4,507.5,490.4,507.5,490.3L507.5,490.3z"/>
	<path d="M509.2,493.1v-0.7h0.8v-4.3h-0.8v-0.8h1.7v1.1c0.4-0.8,1.2-1.3,2.1-1.2v0.9c-1.2,0-2.1,0.4-2.1,1.8v2.4h0.9v0.7
		L509.2,493.1z"/>
	<path d="M514.5,491.7v-3.5h-0.8v-0.8h0.8v-1.3h0.9v1.3h1.5v0.8h-1.5v3.5c-0.1,0.4,0.2,0.8,0.6,0.8c0.1,0,0.2,0,0.2,0
		c0.3,0,0.5,0,0.7-0.1v0.8c-0.3,0.1-0.5,0.1-0.8,0.1C515,493.2,514.5,492.6,514.5,491.7z"/>
	<path d="M517.6,490.3L517.6,490.3c-0.2-1.6,0.9-2.9,2.4-3.1c0.1,0,0.2,0,0.3,0c1.3,0,2.6,0.8,2.6,2.9v0.3h-4.3c0,1.3,0.7,2,1.8,2
		c0.9,0,1.4-0.3,1.5-1h0.9c-0.2,1.1-1.3,1.9-2.5,1.8c-1.5,0-2.7-1.1-2.8-2.6C517.6,490.4,517.6,490.3,517.6,490.3z M522,489.7
		c-0.1-1.2-0.7-1.7-1.7-1.7c-0.9,0-1.7,0.7-1.7,1.7H522z"/>
	<path d="M527.8,492.1v1h-1.7v-0.7h0.8v-7h-0.8v-0.8h1.7v3.8c0.4-0.7,1.1-1.1,2-1.1c1.4,0,2.6,1.2,2.6,2.6c0,0.1,0,0.2,0,0.3v0.1
		c0.2,1.5-0.8,2.8-2.3,3c-0.1,0-0.2,0-0.3,0C529,493.3,528.2,492.9,527.8,492.1z M531.4,490.3L531.4,490.3c0-1.5-0.8-2.3-1.8-2.3
		s-1.9,0.7-1.9,2.2v0.1c0,1.5,0.8,2.2,1.9,2.2S531.4,491.7,531.4,490.3z"/>
	<path d="M535,493.2c-0.9,0.1-1.7-0.5-1.9-1.4c0-0.1,0-0.2,0-0.3c0-1.3,1.4-1.8,2.8-1.8h0.8v-0.4c0-1-0.4-1.3-1.2-1.3
		s-1.2,0.3-1.3,1h-0.9c0.1-1.1,1.1-1.9,2.2-1.8c0,0,0,0,0.1,0c1-0.1,1.9,0.5,2.1,1.5c0,0.2,0,0.3,0,0.5v3.1h0.8v0.7h-1.7v-0.8
		C536.4,492.9,535.8,493.2,535,493.2z M536.8,491.1v-0.7H536c-1.1,0-2,0.3-2,1.1c-0.1,0.5,0.3,0.9,0.8,1c0.1,0,0.1,0,0.2,0
		C536.1,492.5,536.8,492,536.8,491.1z"/>
	<path d="M539.1,493.1v-0.7h0.8v-4.3h-0.8v-0.8h1.7v5h0.8v0.7L539.1,493.1z M539.7,485.5c0-0.3,0.3-0.6,0.6-0.6
		c0.3,0,0.6,0.3,0.6,0.6c0,0.3-0.3,0.6-0.6,0.6c0,0,0,0,0,0C540,486.2,539.7,485.9,539.7,485.5C539.7,485.5,539.7,485.5,539.7,485.5
		L539.7,485.5z"/>
	<path d="M543.1,492.4v0.7h-0.8v-1.9h0.8c0.1,0.8,0.8,1.3,1.5,1.3c0.8,0,1.2-0.3,1.2-1s-0.5-0.8-1.4-1c-1.5-0.3-2-0.8-2-1.8
		c0-0.9,0.8-1.6,1.7-1.5c0,0,0.1,0,0.1,0c0.6-0.1,1.2,0.2,1.4,0.7v-0.6h0.8v1.7h-0.8c-0.1-0.6-0.7-1.1-1.4-1c-0.6,0-1,0.2-1,0.8
		s0.3,0.8,1.3,1s2,0.5,2,1.7c0,1-0.7,1.7-2.1,1.7C544,493.3,543.4,492.9,543.1,492.4z"/>
	<path d="M548.3,492.4v0.7h-0.8v-1.9h0.8c0.1,0.8,0.8,1.3,1.5,1.3c0.8,0,1.2-0.3,1.2-1s-0.5-0.8-1.3-1c-1.5-0.3-2-0.8-2-1.8
		c0-0.9,0.8-1.6,1.7-1.5c0,0,0.1,0,0.1,0c0.6-0.1,1.2,0.2,1.4,0.7v-0.6h0.8v1.7h-0.8c-0.1-0.6-0.7-1.1-1.4-1c-0.7,0-1.1,0.2-1.1,0.8
		s0.3,0.8,1.3,1s2,0.5,2,1.7c0,1-0.7,1.7-2.1,1.7C549.2,493.3,548.6,492.9,548.3,492.4z"/>
	<path d="M552.7,490.3L552.7,490.3c-0.2-1.6,0.9-2.9,2.4-3.1c0.1,0,0.2,0,0.3,0c1.3,0,2.6,0.8,2.6,2.9v0.3h-4.3c0,1.3,0.7,2,1.8,2
		c0.9,0,1.4-0.3,1.5-1h0.9c-0.2,1.1-1.3,1.9-2.5,1.8c-1.5,0-2.7-1.1-2.8-2.6C552.7,490.4,552.7,490.3,552.7,490.3z M557,489.7
		c-0.1-1.2-0.7-1.7-1.7-1.7c-0.9,0-1.7,0.7-1.7,1.7H557z"/>
	<path d="M413.5,504.2c-0.9,0.1-1.7-0.5-1.9-1.4c0-0.1,0-0.2,0-0.3c0-1.3,1.4-1.8,2.8-1.8h0.8v-0.4c0-1-0.4-1.3-1.2-1.3
		s-1.2,0.3-1.3,1h-0.9c0.1-1.1,1.1-1.9,2.2-1.8c0,0,0,0,0.1,0c1-0.1,1.9,0.5,2.1,1.5c0,0.2,0,0.3,0,0.5v3.1h0.8v0.7h-1.7v-0.8
		C414.8,503.9,414.2,504.2,413.5,504.2z M415.2,502.1v-0.7h-0.8c-1.1,0-2,0.3-2,1.1c-0.1,0.5,0.3,0.9,0.8,1c0.1,0,0.1,0,0.2,0
		C414.5,503.5,415.2,503,415.2,502.1L415.2,502.1z"/>
	<path d="M417.5,504.1v-0.7h0.8v-4.3h-0.8v-0.8h1.7v1c0.4-0.7,1-1.1,1.8-1.1c1.2,0,2,0.6,2,2.3v2.9h0.8v0.7h-2.5v-0.7h0.8v-2.9
		c0-1-0.4-1.4-1.3-1.4c-0.8,0-1.5,0.6-1.6,1.4c0,0,0,0.1,0,0.1v2.8h0.8v0.7L417.5,504.1z"/>
	<path d="M424.4,504.1v-0.7h0.8v-4.3h-0.8v-0.8h1.7v1c0.4-0.7,1-1.1,1.8-1.1c1.2,0,2,0.6,2,2.3v2.9h0.8v0.7h-2.5v-0.7h0.8v-2.9
		c0-1-0.4-1.4-1.3-1.4c-0.8,0-1.5,0.6-1.6,1.4c0,0,0,0.1,0,0.1v2.8h0.9v0.7L424.4,504.1z"/>
	<path d="M433.9,504.2c-1.1,0-2-0.6-2-2.3v-2.8h-0.8v-0.8h1.7v3.6c0,1,0.4,1.5,1.3,1.5c0.8,0,1.5-0.6,1.5-1.4c0,0,0-0.1,0-0.1v-2.7
		h-0.8v-0.8h1.7v5h0.8v0.7h-1.7v-1C435.3,503.7,434.6,504.2,433.9,504.2z"/>
	<path d="M438,501.3L438,501.3c-0.2-1.6,0.9-2.9,2.4-3.1c0.1,0,0.2,0,0.3,0c1.3,0,2.6,0.8,2.6,2.9v0.3h-4.4c0,1.3,0.7,2,1.9,2
		c0.9,0,1.4-0.3,1.5-1h0.9c-0.2,1.1-1.3,1.9-2.5,1.8c-1.5,0-2.7-1.2-2.7-2.7C438,501.4,438,501.3,438,501.3z M442.4,500.7
		c-0.1-1.2-0.7-1.7-1.6-1.7c-0.9,0-1.7,0.7-1.7,1.7H442.4z"/>
	<path d="M443.9,504.1v-0.7h0.8v-7h-0.8v-0.8h1.8v7.8h0.8v0.7L443.9,504.1z"/>
	<path d="M447,504.1v-0.7h0.8v-7H447v-0.8h1.8v7.8h0.8v0.7L447,504.1z"/>
	<path d="M450.1,501.3L450.1,501.3c-0.2-1.6,0.9-2.9,2.4-3.1c0.1,0,0.2,0,0.3,0c1.3,0,2.6,0.8,2.6,2.9v0.3h-4.3c0,1.3,0.7,2,1.8,2
		c0.9,0,1.4-0.3,1.5-1h0.9c-0.2,1.1-1.3,1.9-2.5,1.8c-1.5,0-2.7-1.1-2.8-2.6C450.1,501.4,450.1,501.3,450.1,501.3z M454.5,500.7
		c-0.1-1.2-0.7-1.7-1.7-1.7c-0.9,0-1.7,0.7-1.7,1.7H454.5z"/>
	<path d="M461.3,504.2c-1.4,0-2.6-1.1-2.6-2.5c0-0.1,0-0.2,0-0.3v-0.1c-0.1-1.5,1-2.8,2.5-3c0.1,0,0.1,0,0.2,0c0.8,0,1.5,0.3,1.9,1
		v-2.9h-0.9v-0.8h1.8v7.8h0.8v0.7h-1.7v-1C462.9,503.8,462.1,504.2,461.3,504.2z M463.3,501.3L463.3,501.3c0-1.6-0.7-2.3-1.8-2.3
		s-1.8,0.8-1.8,2.2v0.1c0,1.5,0.8,2.2,1.8,2.2S463.3,502.8,463.3,501.3z"/>
	<path d="M465.6,501.3L465.6,501.3c-0.2-1.6,0.9-2.9,2.4-3.1c0.1,0,0.2,0,0.3,0c1.3,0,2.6,0.8,2.6,2.9v0.3h-4.3c0,1.3,0.7,2,1.9,2
		c0.9,0,1.4-0.3,1.5-1h0.9c-0.2,1.1-1.3,1.9-2.5,1.8c-1.5,0-2.7-1.1-2.8-2.6C465.6,501.4,465.6,501.3,465.6,501.3z M470,500.7
		c-0.1-1.2-0.7-1.7-1.6-1.7c-0.9,0-1.7,0.7-1.8,1.7H470z"/>
	<path d="M471.6,506.1v-0.7h0.8v-6.3h-0.8v-0.8h1.7v1c0.4-0.7,1.1-1.1,1.9-1.1c1.4,0,2.6,1.2,2.6,2.6c0,0.1,0,0.2,0,0.3v0.1
		c0,1.8-1,3-2.6,3c-0.8,0-1.5-0.4-1.9-1.1v2.2h0.9v0.7L471.6,506.1z M476.9,501.3L476.9,501.3c0-1.5-0.8-2.3-1.8-2.3
		s-1.9,0.7-1.9,2.2v0.1c0,1.5,0.8,2.2,1.9,2.2S476.9,502.7,476.9,501.3L476.9,501.3z"/>
	<path d="M481.2,504.2c-1.1,0-2-0.6-2-2.3v-2.8h-0.8v-0.8h1.7v3.6c0,1,0.4,1.5,1.3,1.5c0.8,0,1.5-0.6,1.5-1.4c0,0,0-0.1,0-0.1v-2.7
		h-0.8v-0.8h1.7v5h0.8v0.7H483v-1C482.7,503.7,482,504.2,481.2,504.2z"/>
	<path d="M485.3,504.1v-0.7h0.8v-4.3h-0.8v-0.8h1.7v5h0.8v0.7L485.3,504.1z M485.9,496.5c0-0.3,0.3-0.6,0.6-0.6
		c0.3,0,0.6,0.3,0.6,0.6c0,0.3-0.3,0.6-0.6,0.6C486.2,497.2,485.9,496.9,485.9,496.5L485.9,496.5z"/>
	<path d="M489.3,503.4v0.7h-0.8v-1.9h0.8c0.1,0.8,0.8,1.3,1.5,1.3c0.8,0,1.2-0.3,1.2-1s-0.5-0.8-1.4-1c-1.5-0.3-2-0.8-2-1.8
		c0-0.9,0.8-1.6,1.7-1.5c0,0,0.1,0,0.1,0c0.6-0.1,1.2,0.2,1.4,0.7v-0.6h0.8v1.7h-0.8c-0.1-0.6-0.7-1.1-1.4-1c-0.6,0-1.1,0.2-1.1,0.8
		s0.3,0.8,1.3,1s2,0.5,2,1.7c0,1-0.7,1.7-2.1,1.7C490.2,504.3,489.6,503.9,489.3,503.4z"/>
	<path d="M496.1,506.2v-0.8c0.6-0.1,0.9-0.4,0.9-0.9v-5.4h-0.8v-0.8h1.7v6.1C497.9,505.6,497.4,506.2,496.1,506.2z M496.8,496.5
		c0-0.3,0.3-0.6,0.6-0.6s0.6,0.3,0.6,0.6c0,0.3-0.3,0.6-0.6,0.6c0,0,0,0,0,0C497,497.2,496.8,496.9,496.8,496.5z"/>
	<path d="M501.1,504.2c-0.9,0.1-1.7-0.5-1.9-1.4c0-0.1,0-0.2,0-0.3c0-1.3,1.4-1.8,2.8-1.8h0.8v-0.4c0-1-0.4-1.3-1.2-1.3
		s-1.2,0.3-1.3,1h-0.9c0.1-1.1,1.1-1.9,2.2-1.8c0,0,0,0,0.1,0c1-0.1,1.9,0.5,2.1,1.5c0,0.2,0,0.3,0,0.5v3.1h0.8v0.7h-1.7v-0.8
		C502.5,503.9,501.8,504.2,501.1,504.2z M502.8,502.1v-0.7h-0.8c-1.1,0-2,0.3-2,1.1c-0.1,0.5,0.3,0.9,0.8,1c0.1,0,0.2,0,0.2,0
		C502.1,503.5,502.8,503,502.8,502.1z"/>
	<path d="M505.1,504.1v-0.7h0.8v-4.3h-0.8v-0.8h1.7v1c0.4-0.7,1.1-1.1,1.8-1.1c1.1,0,2,0.6,2,2.3v2.9h0.8v0.7h-2.5v-0.7h0.8v-2.9
		c0-1-0.4-1.4-1.3-1.4c-0.8,0-1.5,0.6-1.6,1.4c0,0,0,0.1,0,0.1v2.8h0.8v0.7L505.1,504.1z"/>
	<path d="M517,499.1l-1.8,5h-1.1l-1.9-5h-0.7v-0.8h2.5v0.8h-0.8l1.5,4.2l1.4-4.2h-0.8v-0.8h2.4v0.8H517z"/>
	<path d="M518.2,504.1v-0.7h0.8v-4.3h-0.8v-0.8h1.8v5h0.8v0.7L518.2,504.1z M518.8,496.5c0-0.3,0.3-0.6,0.6-0.6
		c0.3,0,0.6,0.3,0.6,0.6c0,0.3-0.3,0.6-0.6,0.6c0,0,0,0,0,0C519.1,497.2,518.8,496.9,518.8,496.5L518.8,496.5z"/>
	<path d="M521.5,501.3L521.5,501.3c-0.2-1.6,0.9-2.9,2.4-3.1c0.1,0,0.2,0,0.3,0c1.3,0,2.6,0.8,2.6,2.9v0.3h-4.3c0,1.3,0.7,2,1.8,2
		c0.9,0,1.4-0.3,1.5-1h0.9c-0.2,1.1-1.3,1.9-2.5,1.8c-1.5,0-2.7-1.1-2.8-2.6C521.4,501.4,521.4,501.3,521.5,501.3z M525.8,500.7
		c-0.1-1.2-0.7-1.7-1.7-1.7c-0.9,0-1.7,0.7-1.7,1.7H525.8z"/>
	<path d="M527.5,504.1v-0.7h0.8v-4.3h-0.8v-0.8h1.7v1.1c0.4-0.8,1.2-1.3,2.1-1.2v0.9c-1.3,0-2.1,0.4-2.1,1.8v2.4h0.9v0.7
		L527.5,504.1z"/>
	<path d="M534.8,504.1v-0.8h1.6v-6.2l-1.8,1.3v-0.9l1.8-1.3h0.9v7.1h1.5v0.8H534.8z"/>
	<path d="M539.5,502.2h0.9c0.1,0.8,0.8,1.3,1.6,1.2c1.2,0,2-1,2-3.1c-0.4,0.7-1.2,1-2,1c-1.4,0.1-2.5-1-2.6-2.4c0-0.1,0-0.1,0-0.2
		c-0.1-1.4,1-2.6,2.4-2.6c0.1,0,0.2,0,0.3,0c1.8,0,2.8,1.3,2.8,3.5v0.5c0,2.6-1.1,4-3,4C540.8,504.2,539.7,503.4,539.5,502.2z
		 M544,498.9c0.1-1-0.6-1.9-1.5-2c-0.1,0-0.2,0-0.3,0c-1,0.1-1.8,1-1.7,2c0.1,0.9,0.8,1.7,1.7,1.7c0.9,0.1,1.7-0.6,1.8-1.5
		C544,499,544,498.9,544,498.9L544,498.9z"/>
	<path d="M546.6,498.2h-0.9v-2h5.4v0.3l-2.9,7.5h-1l2.7-7.1h-3.4L546.6,498.2z"/>
	<path d="M551.7,500.4V500c0-2.3,1.2-3.8,3.1-3.8s3.1,1.5,3.1,3.8v0.4c0,2.3-1.1,3.8-3,3.8S551.7,502.7,551.7,500.4z M556.9,500.4
		V500c0-1.8-0.8-3-2.1-3s-2.1,1.1-2.1,3v0.4c0,2,0.8,3,2.1,3S556.9,502.4,556.9,500.4L556.9,500.4z"/>
	<line class="st1" x1="44" y1="424.6" x2="568.5" y2="424.6"/>
	<line class="st1" x1="44" y1="355.3" x2="568.5" y2="355.3"/>
	<line class="st1" x1="44" y1="285.9" x2="568.5" y2="285.9"/>
	<line class="st1" x1="44" y1="216.5" x2="568.5" y2="216.5"/>
	<line class="st1" x1="44" y1="77.8" x2="568.5" y2="77.8"/>
	<line class="st1" x1="44" y1="8.4" x2="568.5" y2="8.4"/>
	<line class="st2" x1="44" y1="147.2" x2="568.5" y2="147.2"/>
</g>
<g id="Calque_1_1_">
	<g id="EXPRESSION_LIBRE">
		<polygon class="st3" points="554.9,442.8 502.5,442.8 502.5,479.1 562.3,479.1 562.3,435.4 		"/>
		<path class="st0" d="M508.2,460.9v-2.3h3.2v2.3H508.2z"/>
		<path class="st0" d="M513.8,466.7v-2.2h3.1v1.4c0,1.8,0.2,2.1,0.7,2.1s0.8-0.4,0.8-2.2v-2.4c0-1.7-0.2-2.1-0.6-2.1h-2.1v-3.1h1.9
			c0.4,0,0.6-0.3,0.6-2.1v-1.3c0-1.8-0.2-2.1-0.6-2.1s-0.6,0.3-0.6,2.1v1.4h-3.1v-2.1c0-3.4,0.8-4.4,3.8-4.4s3.7,1,3.7,4.4v2.8
			c0,1.5-0.5,2.2-2,2.4c1.6,0.3,2.1,1.2,2.1,3.3v4c0,3.4-0.9,4.4-3.9,4.4S513.8,470.2,513.8,466.7z"/>
		<path class="st0" d="M523.2,466.7V465h3.1v0.9c0,1.8,0.2,2.1,0.6,2.1s0.6-0.3,0.6-2.1v-6.5c0,3.4-0.6,4.4-2.2,4.4
			c-1.7,0-2.2-1-2.2-4.4v-5.4c0-3.4,0.8-4.4,3.8-4.4s3.7,1,3.7,4.4v12.6c0,3.4-0.8,4.4-3.7,4.4S523.2,470.2,523.2,466.7z
			 M527.5,458.7v-3.8c0-1.7-0.2-2.1-0.6-2.1s-0.6,0.3-0.6,2.1v3.8c0,1.7,0.2,2.1,0.6,2.1S527.5,460.4,527.5,458.7z"/>
		<path class="st0" d="M532.4,472.3l0.9-1.3h-0.9v-2.8h3v2.8l-0.9,1.3H532.4z"/>
		<path class="st0" d="M542.4,456.9c1.7,0,2.2,1,2.2,4.4v5.4c0,3.4-0.8,4.4-3.8,4.4s-3.7-1-3.7-4.4v-12.6c0-3.4,0.8-4.4,3.7-4.4
			s3.8,1,3.8,4.4v1.9h-3.1v-1.1c0-1.7-0.2-2.1-0.6-2.1s-0.6,0.3-0.6,2.1v6.5C540.3,457.9,540.9,456.9,542.4,456.9z M540.3,465.9
			c0,1.8,0.2,2.1,0.6,2.1s0.6-0.3,0.6-2.1v-3.8c0-1.7-0.2-2.1-0.6-2.1s-0.6,0.3-0.6,2.1V465.9z"/>
		<path class="st0" d="M548.6,456.2v-3.8c0-2.1,0.4-2.6,2.1-2.6s2.1,0.6,2.1,2.6v3.8c0,2-0.5,2.6-2.1,2.6S548.6,458.2,548.6,456.2z
			 M556.7,449.8l-6.9,21.2h-0.9l6.9-21.2H556.7z M551,456.4v-4.2c0-0.6-0.1-0.7-0.3-0.7s-0.3,0.2-0.3,0.6v4.4c0,0.4,0.1,0.6,0.3,0.6
			S551,456.9,551,456.4z M552.8,468.4v-3.8c0-2.1,0.4-2.6,2.1-2.6s2.1,0.6,2.1,2.6v3.8c0,2-0.5,2.6-2.1,2.6S552.8,470.4,552.8,468.4
			L552.8,468.4z M555.2,468.5v-4.2c0-0.6-0.1-0.7-0.3-0.7s-0.3,0.2-0.3,0.6v4.5c0,0.4,0.1,0.6,0.3,0.6S555.1,469.1,555.2,468.5
			L555.2,468.5z"/>
		<path d="M13.6,5h-2.1V4.3h2.1V2h0.8v2.2h2.1V5h-2.1v2.2h-0.8V5z"/>
		<path d="M21.6,6.4h0.9v2h-5.4V8l3-3.1c0.7-0.6,1.1-1.4,1.1-2.3c0.1-0.7-0.4-1.3-1.2-1.4c-0.1,0-0.2,0-0.2,0
			c-0.9,0-1.5,0.5-1.6,1.8h-0.9c0-1.4,1-2.5,2.4-2.5c0,0,0.1,0,0.1,0c1.2-0.1,2.2,0.7,2.4,1.9c0,0.1,0,0.2,0,0.4
			c-0.1,1.1-0.7,2.2-1.6,2.9l-2.1,2.1h3.1V6.4z"/>
		<path d="M23.5,4.7V4.3c0-2.3,1.2-3.8,3.1-3.8s3.1,1.6,3.1,3.8v0.5c0,2.3-1.1,3.8-3,3.8S23.5,7,23.5,4.7z M28.7,4.7V4.3
			c0-1.8-0.8-3-2.1-3s-2.1,1.1-2.1,3v0.4c0,2,0.8,3,2.1,3S28.7,6.7,28.7,4.7z"/>
		<path d="M30.5,2.4c0-1,0.8-1.9,1.8-1.9c0,0,0,0,0,0c1,0,1.9,0.8,1.9,1.8c0,1-0.8,1.9-1.8,1.9C31.4,4.2,30.5,3.4,30.5,2.4
			C30.5,2.4,30.5,2.4,30.5,2.4z M33.3,2.4c0-0.7-0.4-1.1-1-1.1s-1,0.4-1,1.2s0.4,1.1,1,1.1S33.3,3.1,33.3,2.4L33.3,2.4z M36.4,0.6
			h0.8l-4.8,7.9h-0.8L36.4,0.6z M34.8,6.7c0-1,0.8-1.9,1.8-1.9c0,0,0,0,0,0c1,0,1.9,0.8,1.9,1.8c0,1-0.8,1.9-1.8,1.9
			S34.8,7.7,34.8,6.7C34.8,6.7,34.8,6.7,34.8,6.7z M37.6,6.7c0-0.7-0.4-1.1-1-1.1s-1,0.4-1,1.2s0.4,1.1,1,1.1S37.6,7.4,37.6,6.7z"/>
		<path d="M13.6,74.4h-2.1v-0.8h2.1v-2.2h0.8v2.2h2.1v0.8h-2.1v2.2h-0.8V74.4z"/>
		<path d="M17.5,77.8v-0.7h1.6v-6.2l-1.8,1.3v-0.9l1.8-1.3h0.9v7.1h1.5v0.7L17.5,77.8z"/>
		<path d="M22.3,74.1v-0.4c0-2.3,1.2-3.8,3.1-3.8s3.1,1.6,3.1,3.8v0.4c0,2.3-1.1,3.8-3,3.8S22.3,76.4,22.3,74.1z M27.5,74.1v-0.4
			c0-1.8-0.8-3-2.1-3s-2.1,1.1-2.1,3v0.4c0,2,0.8,3,2.1,3S27.5,76.1,27.5,74.1L27.5,74.1z"/>
		<path d="M29.3,71.8c0-1,0.8-1.8,1.8-1.8c1,0,1.8,0.8,1.8,1.8c0,1-0.8,1.8-1.8,1.8C30.1,73.6,29.3,72.8,29.3,71.8z M32.1,71.8
			c0-0.7-0.4-1.1-1-1.1s-1,0.4-1,1.1s0.4,1.1,1,1.1S32.1,72.5,32.1,71.8L32.1,71.8z M35.2,70h0.8l-4.8,7.9h-0.8L35.2,70z M33.6,76.1
			c0-1,0.8-1.9,1.8-1.9c0,0,0,0,0,0c1,0,1.9,0.8,1.9,1.8s-0.8,1.9-1.8,1.9C34.5,77.9,33.6,77.1,33.6,76.1
			C33.6,76.1,33.6,76.1,33.6,76.1z M36.4,76.1c0-0.7-0.4-1.1-1-1.1s-1,0.4-1,1.1s0.4,1.1,1,1.1S36.4,76.8,36.4,76.1L36.4,76.1z"/>
		<path d="M11.6,143.5v-0.4c0-2.3,1.2-3.8,3.1-3.8s3.1,1.6,3.1,3.8v0.4c0,2.3-1.1,3.8-3,3.8S11.6,145.8,11.6,143.5z M16.8,143.5
			v-0.4c0-1.8-0.8-3-2.1-3s-2.1,1.1-2.1,3v0.4c0,2,0.8,3,2.1,3S16.8,145.5,16.8,143.5L16.8,143.5z"/>
		<path d="M11.7,213.2H14v0.9h-2.3V213.2z"/>
		<path d="M15.3,216.6v-0.7h1.6v-6.2l-1.8,1.3v-0.9l1.8-1.3h0.9v7.1h1.5v0.7L15.3,216.6z"/>
		<path d="M20.1,212.9v-0.4c0-2.3,1.2-3.8,3.1-3.8s3.1,1.5,3.1,3.8v0.5c0,2.3-1.1,3.8-3,3.8S20.1,215.2,20.1,212.9z M25.3,212.9
			v-0.4c0-1.8-0.8-3-2.1-3s-2.1,1.1-2.1,3v0.4c0,2,0.8,3,2.1,3S25.3,214.9,25.3,212.9L25.3,212.9z"/>
		<path d="M27.1,210.6c0-1,0.8-1.9,1.8-1.9c0,0,0,0,0,0c1,0,1.9,0.8,1.9,1.8c0,1-0.8,1.9-1.8,1.9S27.1,211.6,27.1,210.6
			C27.1,210.6,27.1,210.6,27.1,210.6L27.1,210.6z M29.8,210.6c0-0.7-0.4-1.1-1-1.1s-1,0.4-1,1.1s0.4,1.1,1,1.1
			S29.8,211.3,29.8,210.6L29.8,210.6z M33,208.8h0.8l-4.8,7.9h-0.8L33,208.8z M31.4,214.9c-0.1-1,0.7-1.9,1.7-1.9
			c1-0.1,1.9,0.7,1.9,1.7c0,0.1,0,0.2,0,0.3c0.1,1-0.7,1.9-1.7,1.9c-1,0.1-1.9-0.7-1.9-1.7C31.3,215,31.3,215,31.4,214.9z
			 M34.1,214.9c0-0.7-0.4-1.1-1-1.1s-1,0.4-1,1.1s0.4,1.1,1,1.1S34.1,215.6,34.1,214.9L34.1,214.9z"/>
		<path d="M11.7,282.6H14v0.9h-2.3V282.6z"/>
		<path d="M19.3,284h0.9v2h-5.4v-0.4l3-3.1c0.7-0.6,1.1-1.4,1.1-2.2c0.1-0.7-0.4-1.3-1.2-1.4c-0.1,0-0.2,0-0.2,0
			c-0.9,0-1.5,0.5-1.6,1.8h-0.9c0-1.4,1-2.5,2.4-2.5c0,0,0.1,0,0.1,0c1.2-0.1,2.2,0.7,2.4,1.9c0,0.1,0,0.2,0,0.3
			c-0.1,1.1-0.7,2.2-1.6,2.9l-2.1,2.1h3.1V284z"/>
		<path d="M21.2,282.3v-0.4c0-2.3,1.2-3.8,3.1-3.8s3.1,1.5,3.1,3.8v0.4c0,2.3-1.1,3.8-3,3.8S21.2,284.6,21.2,282.3z M26.4,282.3
			v-0.4c0-1.8-0.8-3-2.1-3s-2.1,1.1-2.1,3v0.4c0,2,0.8,3,2.1,3S26.4,284.3,26.4,282.3L26.4,282.3z"/>
		<path d="M28.2,280c0-1,0.8-1.9,1.8-1.9c1,0,1.9,0.8,1.9,1.8c0,1-0.8,1.9-1.8,1.9S28.2,281,28.2,280C28.2,280,28.2,280,28.2,280
			L28.2,280z M31,280c0-0.7-0.4-1.1-1-1.1s-1,0.4-1,1.1s0.4,1.1,1,1.1S31,280.7,31,280L31,280z M34.1,278.2H35l-4.8,7.9h-0.8
			L34.1,278.2z M32.5,284.3c0-1,0.8-1.9,1.8-1.9c0,0,0,0,0,0c1,0,1.9,0.8,1.9,1.8c0,1-0.8,1.9-1.8,1.9
			C33.4,286.1,32.5,285.3,32.5,284.3C32.5,284.3,32.5,284.3,32.5,284.3z M35.3,284.3c0-0.7-0.4-1.1-1-1.1s-1,0.4-1,1.1
			s0.4,1.1,1,1.1S35.3,285,35.3,284.3L35.3,284.3z"/>
		<path d="M11.7,352H14v0.9h-2.3V352z"/>
		<path d="M15.1,353.1H16c0,0.9,0.8,1.7,1.7,1.7c0.1,0,0.1,0,0.2,0c1.2,0,1.8-0.6,1.8-1.5s-0.5-1.5-1.7-1.5h-0.6v-0.8H18
			c1,0,1.5-0.5,1.5-1.3c0-0.7-0.5-1.3-1.2-1.3c-0.1,0-0.2,0-0.3,0c-0.9,0-1.6,0.6-1.7,1.5h-0.8c0.1-1.3,1.2-2.3,2.5-2.2
			c1.2-0.1,2.2,0.8,2.4,1.9c0,0,0,0.1,0,0.1c0,0.8-0.5,1.5-1.2,1.7c0.9,0.2,1.6,1,1.5,2c0,1.4-1.2,2.3-2.8,2.3
			c-1.4,0.1-2.6-0.9-2.7-2.3C15.1,353.2,15.1,353.1,15.1,353.1z"/>
		<path d="M21.8,351.7v-0.4c0-2.3,1.2-3.8,3.1-3.8s3.1,1.6,3.1,3.8v0.5c0,2.3-1.1,3.8-3,3.8S21.8,354,21.8,351.7z M27,351.7v-0.4
			c0-1.8-0.8-3-2.1-3s-2.1,1.1-2.1,3v0.4c0,2,0.8,3,2.1,3S27,353.7,27,351.7L27,351.7z"/>
		<path d="M28.8,349.4c0-1,0.8-1.9,1.8-1.9c0,0,0,0,0,0c1,0,1.9,0.8,1.9,1.8c0,1-0.8,1.9-1.8,1.9S28.8,350.4,28.8,349.4
			C28.8,349.4,28.8,349.4,28.8,349.4z M31.5,349.4c0-0.7-0.4-1.1-1-1.1s-1,0.4-1,1.1s0.4,1.1,1,1.1S31.5,350.1,31.5,349.4
			L31.5,349.4z M34.7,347.6h0.8l-4.8,7.9h-0.8L34.7,347.6z M33,353.7c0-1,0.8-1.9,1.8-1.9c0,0,0,0,0,0c1,0,1.9,0.8,1.9,1.8
			c0,1-0.8,1.9-1.8,1.9C33.9,355.5,33,354.7,33,353.7C33,353.7,33,353.7,33,353.7z M35.8,353.7c0-0.7-0.4-1.1-1-1.1s-1,0.4-1,1.1
			s0.4,1.1,1,1.1S35.8,354.4,35.8,353.7L35.8,353.7z"/>
		<path d="M11.7,421.4H14v0.9h-2.3V421.4z"/>
		<path d="M17.8,424.8v-0.7h1.1V423h-3.9v-0.4l3.6-5.6h1.3v5.3h1.1v0.8h-1.1v1.1h1v0.7H17.8z M18.9,422.2v-4.5l-2.9,4.5H18.9z"/>
		<path d="M21.8,421.1v-0.4c0-2.3,1.2-3.8,3.1-3.8s3.1,1.5,3.1,3.8v0.4c0,2.3-1.1,3.8-3,3.8S21.8,423.4,21.8,421.1z M27,421.1v-0.4
			c0-1.8-0.8-3-2.1-3s-2.1,1.1-2.1,3v0.4c0,2,0.8,3,2.1,3S27,423.1,27,421.1L27,421.1z"/>
		<path d="M28.8,418.8c0-1,0.8-1.8,1.8-1.8s1.8,0.8,1.8,1.8c0,1-0.8,1.8-1.8,1.8C29.6,420.6,28.8,419.8,28.8,418.8z M31.6,418.8
			c0-0.7-0.4-1.1-1-1.1s-1,0.4-1,1.1s0.4,1.1,1,1.1S31.6,419.5,31.6,418.8L31.6,418.8z M34.7,417h0.8l-4.8,7.9h-0.8L34.7,417z
			 M33.1,423.1c-0.1-1,0.7-1.9,1.7-1.9c1-0.1,1.9,0.7,1.9,1.7c0,0.1,0,0.2,0,0.3c0.1,1-0.7,1.9-1.7,1.9c-1,0.1-1.9-0.7-1.9-1.7
			C33.1,423.3,33.1,423.2,33.1,423.1z M35.9,423.1c0-0.7-0.4-1.1-1-1.1s-1,0.4-1,1.2s0.4,1.1,1,1.1S35.9,423.8,35.9,423.1
			L35.9,423.1z"/>
		<rect x="448.6" y="20.2" class="st4" width="15" height="126.9"/>
		<rect x="44" y="140.1" class="st4" width="15" height="7.1"/>
		<rect x="59" y="52.3" class="st4" width="15" height="94.9"/>
		<rect x="73.9" y="147.2" class="st5" width="15" height="25.3"/>
		<rect x="88.9" y="147.2" class="st5" width="15" height="9.2"/>
		<rect x="103.9" y="147.2" class="st5" width="15" height="76.9"/>
		<rect x="118.9" y="138.3" class="st4" width="15" height="8.8"/>
		<rect x="133.9" y="109.5" class="st4" width="15" height="37.7"/>
		<rect x="148.9" y="147.2" class="st5" width="15" height="92.6"/>
		<rect x="163.9" y="147.2" class="st5" width="15" height="70.8"/>
		<rect x="178.9" y="99.6" class="st4" width="15" height="47.6"/>
		<rect x="193.8" y="147.2" class="st5" width="15" height="83.2"/>
		<rect x="208.8" y="139.7" class="st4" width="15" height="7.4"/>
		<rect x="223.8" y="147.2" class="st5" width="15" height="67.7"/>
		<rect x="238.8" y="147.2" class="st5" width="15" height="72.8"/>
		<rect x="253.8" y="147.2" class="st5" width="15" height="30.3"/>
		<rect x="268.8" y="147.2" class="st5" width="15" height="119.1"/>
		<rect x="283.8" y="88.7" class="st4" width="15" height="58.4"/>
		<rect x="298.8" y="147.2" class="st5" width="15" height="97.9"/>
		<rect x="313.7" y="147.2" class="st5" width="15" height="10.2"/>
		<rect x="328.7" y="147.2" class="st5" width="15" height="14.2"/>
		<rect x="343.7" y="122.9" class="st4" width="15" height="24.2"/>
		<rect x="358.7" y="32.6" class="st4" width="15" height="114.5"/>
		<rect x="373.7" y="88.1" class="st4" width="15" height="59"/>
		<rect x="388.7" y="147.2" class="st5" width="15" height="124.9"/>
		<rect x="403.7" y="147.2" class="st5" width="15" height="67.3"/>
		<rect x="418.6" y="142.3" class="st4" width="15" height="4.9"/>
		<rect x="433.6" y="147.2" class="st5" width="15" height="2.1"/>
		<rect x="463.6" y="147.2" class="st5" width="15" height="23.6"/>
		<rect x="478.6" y="147.2" class="st5" width="15" height="43"/>
		<rect x="493.6" y="147.2" class="st5" width="15" height="28.4"/>
		<rect x="508.6" y="147.2" class="st5" width="15" height="6.9"/>
		<rect x="523.6" y="79.9" class="st4" width="15" height="67.3"/>
		<rect x="538.5" y="147.2" class="st5" width="15" height="87.4"/>
		<rect x="553.5" y="147.2" class="st5" width="15" height="274.7"/>
		<path d="M43.1,162.3h-3.9v-1.6h1v-6.8h-1v-1.6h4.1l2.2,6.1l2.2-6.1h4v1.6h-1v6.8h1v1.6h-4.2v-1.6h1v-5.9l-2.8,7.5h-0.7l-2.9-7.5
			v5.9h1L43.1,162.3z"/>
		<path d="M54.8,162.5c-1.2,0.2-2.3-0.6-2.4-1.8c0-0.1,0-0.2,0-0.4c0-1.8,1.6-2.4,3.8-2.4H57v-0.3c0-0.9-0.3-1.4-1.2-1.4
			c-0.6-0.1-1.1,0.3-1.2,0.9c0,0,0,0.1,0,0.1h-2c0.1-1.8,1.5-2.5,3.2-2.5s3,0.7,3,2.7v3.3h0.8v1.4H57v-1
			C56.6,162,55.7,162.5,54.8,162.5z M57,159.7v-0.6h-0.8c-1.2,0-1.8,0.3-1.8,1c0,0.5,0.3,0.9,1,0.9S57,160.6,57,159.7z"/>
		<path d="M60.3,162.3v-1.4h0.8v-4.4h-0.8V155h2.8v5.9h0.8v1.4H60.3z M60.9,152.9c0-0.7,0.5-1.2,1.1-1.2c0.7,0,1.2,0.5,1.2,1.1
			s-0.5,1.2-1.1,1.2c0,0,0,0,0,0C61.4,154,60.9,153.5,60.9,152.9C60.9,152.9,60.9,152.9,60.9,152.9z"/>
		<path d="M41.3,173.5h1.8v2.8h-7.5v-1.2l3.5-3.3c1.2-1.1,1.6-1.8,1.6-2.6c0.1-0.7-0.4-1.2-1.1-1.3c-0.1,0-0.2,0-0.2,0
			c-0.9,0-1.4,0.5-1.6,1.8h-2c-0.1-1.9,1.4-3.5,3.3-3.6c0.1,0,0.3,0,0.4,0c2.2,0,3.5,1.1,3.5,2.9c0,1.4-0.8,2.4-2.1,3.5l-2.4,2.1
			h2.9L41.3,173.5z"/>
		<path d="M44.1,171.5v-0.5c0-3.1,1.8-4.9,4.4-4.9s4.4,1.8,4.4,4.9v0.4c0,3.1-1.7,5-4.4,5S44.1,174.6,44.1,171.5z M50.6,171.5v-0.5
			c0-2-0.7-3.1-2.1-3.1s-2.1,1.1-2.1,3.2v0.5c0,2.1,0.7,3.1,2.1,3.1S50.6,173.6,50.6,171.5L50.6,171.5z"/>
		<path d="M54,176.3v-1.6h1.8v-6.1l-2,1.3v-1.9l2.2-1.6h2v8.4h1.7v1.6L54,176.3z"/>
		<path d="M61.9,169.4h-1.8v-3.1h7.4v1.1l-3.3,8.9h-2.3l3.2-8.4h-3.1V169.4z"/>
		<line class="st6" x1="560.5" y1="432.3" x2="560.5" y2="24.9"/>
		<path d="M547.3,128.3h-3.9v-1.6h1v-6.8h-1v-1.6h4.1l2.2,6.1l2.2-6.1h4v1.6h-1v6.8h1v1.6h-4.2v-1.6h1v-5.9l-2.8,7.5h-0.7l-2.8-7.5
			v5.9h1L547.3,128.3z"/>
		<path d="M559,128.5c-1.3,0-2.4-0.6-2.4-2.2c0-1.8,1.6-2.4,3.8-2.4h0.8v-0.2c0-0.9-0.3-1.4-1.2-1.4c-0.6-0.1-1.1,0.3-1.2,0.9
			c0,0,0,0.1,0,0.1h-1.9c0.1-1.8,1.5-2.5,3.2-2.5s3.1,0.7,3.1,2.7v3.3h0.8v1.4h-2.7v-1C560.7,128.1,559.9,128.5,559,128.5z
			 M561.2,125.7v-0.6h-0.8c-1.2,0-1.8,0.3-1.8,1c0,0.5,0.3,0.9,1,0.9C560.5,127,561.1,126.6,561.2,125.7L561.2,125.7z"/>
		<path d="M564.5,128.3v-1.4h0.8v-4.4h-0.8V121h2.8v1.5c0.4-1,1.4-1.7,2.5-1.6v1.9c-1.6-0.1-2.5,0.4-2.5,1.9v2.2h0.9v1.4
			L564.5,128.3z"/>
		<path d="M572,127.6v0.7h-1.5v-2.4h1.5c0.1,0.8,0.8,1.3,1.6,1.3c0.8,0,1.2-0.3,1.2-0.9s-0.5-0.8-1.5-0.9c-2-0.3-2.7-1-2.7-2.3
			c0-1.2,1-2.2,2.2-2.2c0.1,0,0.2,0,0.3,0c1.2,0,1.7,0.4,1.9,0.9V121h1.4v2.2H575c-0.2-0.7-0.8-1.1-1.5-1.1c-0.6,0-1,0.2-1,0.8
			s0.3,0.7,1.4,0.9c1.8,0.2,2.8,0.8,2.8,2.3s-1,2.4-2.7,2.4C573.2,128.6,572.4,128.2,572,127.6z"/>
		<path d="M548,139.5h1.8v2.8h-7.5v-1.2l3.5-3.3c1.2-1.1,1.6-1.8,1.6-2.6c0.1-0.7-0.4-1.2-1.1-1.3c-0.1,0-0.2,0-0.2,0
			c-0.9,0-1.4,0.5-1.6,1.8h-2.1c-0.1-1.9,1.4-3.5,3.3-3.6c0.1,0,0.3,0,0.4,0c2.2,0,3.5,1.1,3.5,2.9c0,1.4-0.8,2.4-2.1,3.5l-2.4,2.1
			h2.9V139.5z"/>
		<path d="M550.8,137.6v-0.5c0-3.1,1.8-4.9,4.4-4.9s4.4,1.8,4.4,4.9v0.4c0,3.1-1.7,5-4.4,5S550.8,140.6,550.8,137.6z M557.3,137.6
			v-0.5c0-2-0.7-3.1-2.1-3.1s-2.1,1.1-2.1,3.2v0.5c0,2.1,0.7,3.1,2.1,3.1S557.3,139.6,557.3,137.6L557.3,137.6z"/>
		<path d="M566.1,139.5h1.8v2.8h-7.5v-1.2l3.5-3.3c1.2-1.1,1.6-1.8,1.6-2.6c0.1-0.7-0.4-1.2-1.1-1.3c-0.1,0-0.2,0-0.2,0
			c-0.9,0-1.4,0.5-1.6,1.8h-2.1c-0.1-1.9,1.4-3.5,3.3-3.6c0.1,0,0.3,0,0.4,0c2.2,0,3.5,1.1,3.5,2.9c0,1.4-0.8,2.4-2.1,3.5l-2.4,2.1
			h2.9V139.5z"/>
		<path d="M568.9,137.6v-0.5c0-3.1,1.8-4.9,4.4-4.9s4.4,1.8,4.4,4.9v0.4c0,3.1-1.7,5-4.4,5S568.9,140.6,568.9,137.6z M575.3,137.6
			v-0.5c0-2-0.7-3.1-2.1-3.1s-2.1,1.1-2.1,3.2v0.5c0,2.1,0.7,3.1,2.1,3.1S575.3,139.6,575.3,137.6L575.3,137.6z"/>
		<path class="st7" d="M547.3,128.3h-3.9v-1.6h1v-6.8h-1v-1.6h4.1l2.2,6.1l2.2-6.1h4v1.6h-1v6.8h1v1.6h-4.2v-1.6h1v-5.9l-2.8,7.5
			h-0.7l-2.8-7.5v5.9h1L547.3,128.3z"/>
		<path class="st7" d="M559,128.5c-1.3,0-2.4-0.6-2.4-2.2c0-1.8,1.6-2.4,3.8-2.4h0.8v-0.2c0-0.9-0.3-1.4-1.2-1.4
			c-0.6-0.1-1.1,0.3-1.2,0.9c0,0,0,0.1,0,0.1h-1.9c0.1-1.8,1.5-2.5,3.2-2.5s3.1,0.7,3.1,2.7v3.3h0.8v1.4h-2.7v-1
			C560.7,128.1,559.9,128.5,559,128.5z M561.2,125.7v-0.6h-0.8c-1.2,0-1.8,0.3-1.8,1c0,0.5,0.3,0.9,1,0.9
			C560.5,127,561.1,126.6,561.2,125.7L561.2,125.7z"/>
		<path class="st7" d="M564.5,128.3v-1.4h0.8v-4.4h-0.8V121h2.8v1.5c0.4-1,1.4-1.7,2.5-1.6v1.9c-1.6-0.1-2.5,0.4-2.5,1.9v2.2h0.9
			v1.4L564.5,128.3z"/>
		<path class="st7" d="M572,127.6v0.7h-1.5v-2.4h1.5c0.1,0.8,0.8,1.3,1.6,1.3c0.8,0,1.2-0.3,1.2-0.9s-0.5-0.8-1.5-0.9
			c-2-0.3-2.7-1-2.7-2.3c0-1.2,1-2.2,2.2-2.2c0.1,0,0.2,0,0.3,0c1.2,0,1.7,0.4,1.9,0.9V121h1.4v2.2H575c-0.2-0.7-0.8-1.1-1.5-1.1
			c-0.6,0-1,0.2-1,0.8s0.3,0.7,1.4,0.9c1.8,0.2,2.8,0.8,2.8,2.3s-1,2.4-2.7,2.4C573.2,128.6,572.4,128.2,572,127.6z"/>
		<path class="st7" d="M548,139.5h1.8v2.8h-7.5v-1.2l3.5-3.3c1.2-1.1,1.6-1.8,1.6-2.6c0.1-0.7-0.4-1.2-1.1-1.3c-0.1,0-0.2,0-0.2,0
			c-0.9,0-1.4,0.5-1.6,1.8h-2.1c-0.1-1.9,1.4-3.5,3.3-3.6c0.1,0,0.3,0,0.4,0c2.2,0,3.5,1.1,3.5,2.9c0,1.4-0.8,2.4-2.1,3.5l-2.4,2.1
			h2.9V139.5z"/>
		<path class="st7" d="M550.8,137.6v-0.5c0-3.1,1.8-4.9,4.4-4.9s4.4,1.8,4.4,4.9v0.4c0,3.1-1.7,5-4.4,5S550.8,140.6,550.8,137.6z
			 M557.3,137.6v-0.5c0-2-0.7-3.1-2.1-3.1s-2.1,1.1-2.1,3.2v0.5c0,2.1,0.7,3.1,2.1,3.1S557.3,139.6,557.3,137.6L557.3,137.6z"/>
		<path class="st7" d="M566.1,139.5h1.8v2.8h-7.5v-1.2l3.5-3.3c1.2-1.1,1.6-1.8,1.6-2.6c0.1-0.7-0.4-1.2-1.1-1.3c-0.1,0-0.2,0-0.2,0
			c-0.9,0-1.4,0.5-1.6,1.8h-2.1c-0.1-1.9,1.4-3.5,3.3-3.6c0.1,0,0.3,0,0.4,0c2.2,0,3.5,1.1,3.5,2.9c0,1.4-0.8,2.4-2.1,3.5l-2.4,2.1
			h2.9V139.5z"/>
		<path class="st7" d="M568.9,137.6v-0.5c0-3.1,1.8-4.9,4.4-4.9s4.4,1.8,4.4,4.9v0.4c0,3.1-1.7,5-4.4,5S568.9,140.6,568.9,137.6z
			 M575.3,137.6v-0.5c0-2-0.7-3.1-2.1-3.1s-2.1,1.1-2.1,3.2v0.5c0,2.1,0.7,3.1,2.1,3.1S575.3,139.6,575.3,137.6L575.3,137.6z"/>
		<path class="st8" d="M547.3,128.3h-3.9v-1.6h1v-6.8h-1v-1.6h4.1l2.2,6.1l2.2-6.1h4v1.6h-1v6.8h1v1.6h-4.2v-1.6h1v-5.9l-2.8,7.5
			h-0.7l-2.8-7.5v5.9h1L547.3,128.3z"/>
		<path class="st8" d="M559,128.5c-1.3,0-2.4-0.6-2.4-2.2c0-1.8,1.6-2.4,3.8-2.4h0.8v-0.2c0-0.9-0.3-1.4-1.2-1.4
			c-0.6-0.1-1.1,0.3-1.2,0.9c0,0,0,0.1,0,0.1h-1.9c0.1-1.8,1.5-2.5,3.2-2.5s3.1,0.7,3.1,2.7v3.3h0.8v1.4h-2.7v-1
			C560.7,128.1,559.9,128.5,559,128.5z M561.2,125.7v-0.6h-0.8c-1.2,0-1.8,0.3-1.8,1c0,0.5,0.3,0.9,1,0.9
			C560.5,127,561.1,126.6,561.2,125.7L561.2,125.7z"/>
		<path class="st8" d="M564.5,128.3v-1.4h0.8v-4.4h-0.8V121h2.8v1.5c0.4-1,1.4-1.7,2.5-1.6v1.9c-1.6-0.1-2.5,0.4-2.5,1.9v2.2h0.9
			v1.4L564.5,128.3z"/>
		<path class="st8" d="M572,127.6v0.7h-1.5v-2.4h1.5c0.1,0.8,0.8,1.3,1.6,1.3c0.8,0,1.2-0.3,1.2-0.9s-0.5-0.8-1.5-0.9
			c-2-0.3-2.7-1-2.7-2.3c0-1.2,1-2.2,2.2-2.2c0.1,0,0.2,0,0.3,0c1.2,0,1.7,0.4,1.9,0.9V121h1.4v2.2H575c-0.2-0.7-0.8-1.1-1.5-1.1
			c-0.6,0-1,0.2-1,0.8s0.3,0.7,1.4,0.9c1.8,0.2,2.8,0.8,2.8,2.3s-1,2.4-2.7,2.4C573.2,128.6,572.4,128.2,572,127.6z"/>
		<path class="st8" d="M548,139.5h1.8v2.8h-7.5v-1.2l3.5-3.3c1.2-1.1,1.6-1.8,1.6-2.6c0.1-0.7-0.4-1.2-1.1-1.3c-0.1,0-0.2,0-0.2,0
			c-0.9,0-1.4,0.5-1.6,1.8h-2.1c-0.1-1.9,1.4-3.5,3.3-3.6c0.1,0,0.3,0,0.4,0c2.2,0,3.5,1.1,3.5,2.9c0,1.4-0.8,2.4-2.1,3.5l-2.4,2.1
			h2.9V139.5z"/>
		<path class="st8" d="M550.8,137.6v-0.5c0-3.1,1.8-4.9,4.4-4.9s4.4,1.8,4.4,4.9v0.4c0,3.1-1.7,5-4.4,5S550.8,140.6,550.8,137.6z
			 M557.3,137.6v-0.5c0-2-0.7-3.1-2.1-3.1s-2.1,1.1-2.1,3.2v0.5c0,2.1,0.7,3.1,2.1,3.1S557.3,139.6,557.3,137.6L557.3,137.6z"/>
		<path class="st8" d="M566.1,139.5h1.8v2.8h-7.5v-1.2l3.5-3.3c1.2-1.1,1.6-1.8,1.6-2.6c0.1-0.7-0.4-1.2-1.1-1.3c-0.1,0-0.2,0-0.2,0
			c-0.9,0-1.4,0.5-1.6,1.8h-2.1c-0.1-1.9,1.4-3.5,3.3-3.6c0.1,0,0.3,0,0.4,0c2.2,0,3.5,1.1,3.5,2.9c0,1.4-0.8,2.4-2.1,3.5l-2.4,2.1
			h2.9V139.5z"/>
		<path class="st8" d="M568.9,137.6v-0.5c0-3.1,1.8-4.9,4.4-4.9s4.4,1.8,4.4,4.9v0.4c0,3.1-1.7,5-4.4,5S568.9,140.6,568.9,137.6z
			 M575.3,137.6v-0.5c0-2-0.7-3.1-2.1-3.1s-2.1,1.1-2.1,3.2v0.5c0,2.1,0.7,3.1,2.1,3.1S575.3,139.6,575.3,137.6L575.3,137.6z"/>
		<line class="st9" x1="44" y1="147.2" x2="568.5" y2="147.2"/>
	</g>
	<rect x="498.6" y="-4" class="st0" width="103.1" height="31.5"/>
	<path d="M533.3,0h3.2c0.6,0,1.2,0.1,1.7,0.3c0.5,0.2,0.9,0.5,1.3,0.9c0.4,0.4,0.7,0.9,0.8,1.4c0.4,1.2,0.4,2.4,0,3.6
		c-0.2,0.5-0.5,1-0.8,1.4c-0.4,0.4-0.8,0.7-1.3,0.9c-0.5,0.2-1.1,0.3-1.7,0.3h-3.2V0z M536.5,7.7c0.4,0,0.8-0.1,1.1-0.2
		c0.3-0.2,0.6-0.4,0.9-0.7c0.2-0.3,0.4-0.6,0.6-1c0.3-0.9,0.3-1.8,0-2.7c-0.1-0.4-0.3-0.7-0.6-1c-0.5-0.6-1.2-0.9-2-0.9h-1.9v6.5
		H536.5z"/>
	<path d="M547.9,6.7c0,0.3-0.1,0.6-0.2,0.9c-0.1,0.3-0.3,0.5-0.6,0.7c-0.2,0.2-0.5,0.4-0.8,0.5C545.9,9,545.5,9,545.1,9
		c-0.5,0-0.9-0.1-1.3-0.2c-0.4-0.1-0.7-0.4-0.9-0.7c-0.3-0.3-0.4-0.7-0.5-1.1c-0.1-0.4-0.2-0.9-0.2-1.4c0-0.5,0.1-0.9,0.2-1.4
		c0.1-0.4,0.3-0.7,0.6-1c0.3-0.3,0.6-0.5,0.9-0.7c0.4-0.2,0.9-0.3,1.3-0.2c0.4,0,0.9,0.1,1.3,0.2c0.3,0.1,0.6,0.4,0.9,0.7
		c0.2,0.3,0.4,0.6,0.5,1c0.1,0.5,0.2,0.9,0.2,1.4v0.2h-4.5c0,0.6,0.1,1.1,0.5,1.6c0.3,0.3,0.7,0.5,1.2,0.5c0.4,0,0.8-0.1,1.1-0.3
		c0.3-0.2,0.5-0.6,0.5-1L547.9,6.7z M546.7,5c0-0.4-0.1-0.9-0.4-1.2c-0.3-0.3-0.7-0.5-1.1-0.5c-0.4,0-0.8,0.1-1.2,0.4
		c-0.3,0.3-0.5,0.8-0.5,1.3H546.7z M545.8,0h1.6l-1.8,1.7h-1L545.8,0z"/>
	<path d="M549.7,0h1.3v3.5l0,0c0.2-0.3,0.5-0.6,0.8-0.8c0.4-0.2,0.8-0.3,1.3-0.3c0.4,0,0.8,0.1,1.2,0.2c0.3,0.2,0.6,0.4,0.8,0.7
		c0.2,0.3,0.4,0.7,0.5,1.1c0.1,0.4,0.2,0.9,0.2,1.3c0,0.5-0.1,0.9-0.2,1.4c-0.1,0.4-0.3,0.7-0.5,1c-0.2,0.3-0.5,0.5-0.8,0.7
		c-0.4,0.2-0.8,0.2-1.2,0.2c-0.4,0-0.9-0.1-1.2-0.3c-0.3-0.2-0.6-0.5-0.8-0.8l0,0v1h-1.3L549.7,0z M552.7,8c0.5,0,1-0.2,1.3-0.6
		c0.4-0.5,0.5-1.1,0.5-1.8c0-0.6-0.1-1.2-0.5-1.7c-0.3-0.4-0.8-0.6-1.3-0.6c-0.5,0-1,0.2-1.3,0.6c-0.3,0.5-0.4,1.1-0.4,1.8
		c0,0.6,0.1,1.2,0.4,1.7C551.7,7.8,552.2,8.1,552.7,8L552.7,8z"/>
	<path d="M557.5,2.5h1.3v3.9c0,0.4,0.1,0.8,0.3,1.2c0.2,0.3,0.6,0.4,0.9,0.4c0.4,0,0.9-0.1,1.2-0.5c0.3-0.4,0.5-0.8,0.4-1.3V2.5h1.3
		v6.4h-1.3v-1l0,0c-0.2,0.3-0.5,0.6-0.8,0.8c-0.4,0.2-0.8,0.3-1.2,0.3c-0.6,0.1-1.2-0.2-1.6-0.6c-0.3-0.5-0.5-1.1-0.5-1.7V2.5z"/>
	<path d="M565,3.5h-0.9V2.5h0.9V0.8h1.3v1.7h1.5v1.1h-1.5v3.4c0,0.3,0.1,0.5,0.2,0.7c0.2,0.2,0.4,0.2,0.7,0.2c0.1,0,0.2,0,0.3,0h0.3
		V9L567.4,9c-0.2,0-0.3,0-0.5,0c-0.5,0-1-0.1-1.5-0.5c-0.4-0.4-0.6-1-0.5-1.6L565,3.5z"/>
	<path d="M508.8,19.9L508.8,19.9c-0.2,0.3-0.5,0.6-0.8,0.8c-0.4,0.2-0.8,0.3-1.3,0.3c-0.4,0-0.8-0.1-1.2-0.2
		c-0.3-0.2-0.6-0.4-0.9-0.7c-0.2-0.3-0.4-0.6-0.5-1c-0.1-0.4-0.2-0.9-0.2-1.4c0-0.5,0.1-0.9,0.2-1.4c0.1-0.4,0.3-0.7,0.5-1
		c0.2-0.3,0.5-0.5,0.9-0.7c0.4-0.2,0.8-0.2,1.2-0.2c0.4,0,0.9,0.1,1.3,0.3c0.3,0.2,0.6,0.5,0.8,0.8l0,0V12h1.3v8.9h-1.3L508.8,19.9z
		 M507.1,20c0.5,0,1-0.2,1.3-0.6c0.3-0.5,0.4-1.1,0.4-1.8c0-0.6-0.1-1.2-0.4-1.7c-0.3-0.4-0.8-0.6-1.3-0.6c-0.5,0-1,0.2-1.3,0.6
		c-0.4,0.5-0.5,1.1-0.5,1.8c0,0.6,0.1,1.2,0.5,1.7C506.1,19.8,506.6,20.1,507.1,20z"/>
	<path d="M512.2,14.5h1.3v3.9c0,0.4,0.1,0.8,0.3,1.2c0.2,0.3,0.6,0.4,0.9,0.4c0.4,0,0.9-0.2,1.2-0.5c0.3-0.4,0.5-0.8,0.4-1.3v-3.7
		h1.3v6.4h-1.3v-1l0,0c-0.2,0.3-0.5,0.6-0.8,0.8c-0.4,0.2-0.8,0.3-1.2,0.3c-0.6,0.1-1.2-0.2-1.6-0.6c-0.3-0.5-0.5-1.1-0.5-1.7
		L512.2,14.5z"/>
	<path d="M528.6,18.5c0,0.7-0.3,1.4-0.8,1.8c-0.6,0.4-1.3,0.7-2,0.6c-0.5,0-0.9-0.1-1.3-0.2c-0.4-0.1-0.7-0.4-1-0.7
		c-0.3-0.3-0.4-0.6-0.6-1c-0.1-0.4-0.2-0.9-0.2-1.3c0-0.5,0.1-0.9,0.2-1.4c0.1-0.4,0.3-0.7,0.6-1c0.3-0.3,0.6-0.5,1-0.7
		c0.4-0.2,0.9-0.2,1.3-0.2c0.7,0,1.4,0.2,2,0.6c0.5,0.5,0.8,1.2,0.8,1.9h-1.3c0-0.4-0.2-0.8-0.5-1.1c-0.3-0.3-0.7-0.4-1.1-0.4
		c-0.5,0-1,0.2-1.3,0.6c-0.3,0.5-0.5,1.1-0.4,1.7c0,0.6,0.1,1.2,0.4,1.7c0.3,0.4,0.8,0.6,1.3,0.6c0.8,0.1,1.5-0.5,1.5-1.3
		c0,0,0-0.1,0-0.1L528.6,18.5z"/>
	<path d="M533.2,21c-0.5,0-0.9-0.1-1.3-0.2c-0.4-0.2-0.7-0.4-1-0.7c-0.3-0.3-0.5-0.7-0.6-1.1c-0.2-0.4-0.2-0.9-0.2-1.3
		c0-0.5,0.1-0.9,0.2-1.4c0.1-0.4,0.4-0.8,0.6-1.1c0.3-0.3,0.6-0.5,1-0.7c0.4-0.2,0.9-0.2,1.3-0.2c0.5,0,0.9,0.1,1.3,0.2
		c0.4,0.2,0.7,0.4,1,0.7c0.3,0.3,0.5,0.7,0.7,1.1c0.2,0.4,0.2,0.9,0.2,1.4c0,0.5-0.1,0.9-0.2,1.4c-0.3,0.8-0.9,1.4-1.7,1.7
		C534.1,20.9,533.6,21,533.2,21z M533.2,20c0.5,0,1.1-0.2,1.4-0.6c0.7-1,0.7-2.4,0-3.4c-0.7-0.8-1.9-0.8-2.7-0.2
		c-0.1,0-0.1,0.1-0.2,0.2c-0.7,1-0.7,2.4,0,3.4C532.1,19.8,532.6,20,533.2,20L533.2,20z"/>
	<path d="M538.1,14.5h1.3v1l0,0c0.2-0.3,0.5-0.6,0.8-0.8c0.4-0.2,0.8-0.3,1.3-0.3c0.6-0.1,1.2,0.2,1.6,0.6c0.3,0.5,0.5,1.1,0.5,1.7
		v4.2h-1.3V17c0-0.4-0.1-0.8-0.3-1.2c-0.2-0.3-0.6-0.5-1-0.4c-0.5,0-0.9,0.1-1.2,0.5c-0.3,0.4-0.5,0.8-0.5,1.3v3.7H538L538.1,14.5z"
		/>
	<path d="M545.8,15.6h-0.9v-1.1h0.9v-0.6c-0.1-0.6,0.1-1.1,0.5-1.6c0.4-0.3,0.9-0.5,1.4-0.5c0.1,0,0.3,0,0.4,0c0.1,0,0.3,0,0.4,0.1
		v1.1h-0.3h-0.3c-0.2,0-0.5,0.1-0.7,0.2c-0.2,0.2-0.2,0.4-0.2,0.7v0.6h1.4v1.1h-1.4V21h-1.3V15.6z"/>
	<path d="M550.4,13.3c-0.2,0-0.4-0.1-0.6-0.2c-0.2-0.2-0.2-0.4-0.2-0.6c0-0.2,0.1-0.4,0.2-0.6c0.2-0.2,0.4-0.3,0.6-0.2
		c0.2,0,0.4,0.1,0.6,0.2c0.3,0.3,0.3,0.9,0,1.2C550.8,13.3,550.6,13.3,550.4,13.3z M549.8,14.5h1.3v6.4h-1.3V14.5z"/>
	<path d="M553.1,14.5h1.3v1l0,0c0.2-0.3,0.5-0.6,0.8-0.8c0.4-0.2,0.8-0.3,1.3-0.3c0.6-0.1,1.2,0.2,1.6,0.6c0.3,0.5,0.5,1.1,0.5,1.7
		v4.2h-1.3V17c0-0.4-0.1-0.8-0.3-1.2c-0.2-0.3-0.6-0.5-1-0.4c-0.5,0-0.9,0.1-1.2,0.5c-0.3,0.4-0.5,0.8-0.5,1.3v3.7H553L553.1,14.5z"
		/>
	<path d="M566.1,18.7c0,0.3-0.1,0.6-0.2,0.9c-0.1,0.3-0.3,0.5-0.6,0.7c-0.3,0.2-0.5,0.4-0.9,0.5c-0.4,0.1-0.7,0.2-1.1,0.2
		c-0.5,0-0.9-0.1-1.4-0.2c-0.4-0.1-0.7-0.4-0.9-0.7c-0.3-0.3-0.4-0.7-0.5-1.1c-0.2-0.9-0.2-1.8,0-2.7c0.1-0.4,0.3-0.7,0.6-1
		c0.3-0.3,0.6-0.5,0.9-0.7c0.4-0.2,0.9-0.3,1.3-0.2c0.4,0,0.9,0.1,1.3,0.2c0.3,0.1,0.6,0.4,0.9,0.7c0.2,0.3,0.4,0.6,0.5,1
		c0.1,0.5,0.2,0.9,0.2,1.4v0.2h-4.5c0,0.6,0.1,1.1,0.5,1.6c0.3,0.3,0.7,0.5,1.2,0.5c0.4,0,0.8-0.1,1.1-0.3c0.3-0.2,0.5-0.6,0.5-1
		L566.1,18.7z M564.8,17c0-0.4-0.1-0.9-0.4-1.2c-0.3-0.3-0.7-0.5-1.1-0.5c-0.4,0-0.8,0.1-1.2,0.4c-0.3,0.3-0.5,0.8-0.5,1.3H564.8z"
		/>
	<path d="M567.9,14.5h1.3v1l0,0c0.2-0.3,0.4-0.6,0.7-0.8c0.3-0.2,0.7-0.3,1.2-0.3c0.4,0,0.8,0.1,1.2,0.3c0.3,0.2,0.5,0.5,0.6,0.9
		l0,0c0.2-0.4,0.5-0.7,0.8-0.9c0.4-0.2,0.8-0.3,1.2-0.3c0.6,0,1.1,0.2,1.5,0.6c0.4,0.5,0.5,1.1,0.5,1.8v4.2h-1.3V17
		c0-0.4-0.1-0.8-0.3-1.2c-0.2-0.3-0.5-0.4-0.8-0.4c-0.4,0-0.8,0.1-1.1,0.4c-0.3,0.4-0.4,0.8-0.4,1.3v3.8h-1.3V17
		c0-0.4-0.1-0.8-0.2-1.2c-0.2-0.3-0.5-0.4-0.9-0.4c-0.4,0-0.8,0.2-1.1,0.5c-0.3,0.4-0.4,0.8-0.4,1.3v3.7h-1.3L567.9,14.5z"/>
	<path d="M584.4,18.7c0,0.3-0.1,0.6-0.2,0.9c-0.1,0.3-0.3,0.5-0.6,0.7c-0.3,0.2-0.5,0.4-0.9,0.5c-0.4,0.1-0.7,0.2-1.1,0.2
		c-0.5,0-0.9-0.1-1.3-0.2c-0.4-0.1-0.7-0.4-0.9-0.7c-0.3-0.3-0.4-0.7-0.5-1.1c-0.1-0.4-0.2-0.9-0.2-1.4c0-0.5,0.1-0.9,0.2-1.4
		c0.1-0.4,0.3-0.7,0.6-1c0.3-0.3,0.6-0.5,0.9-0.7c0.4-0.2,0.9-0.2,1.3-0.2c0.4,0,0.9,0.1,1.3,0.2c0.3,0.1,0.6,0.4,0.9,0.7
		c0.2,0.3,0.4,0.6,0.5,1c0.1,0.5,0.2,0.9,0.2,1.4v0.2h-4.5c0,0.6,0.1,1.1,0.5,1.6c0.3,0.4,0.7,0.5,1.2,0.5c0.4,0,0.8-0.1,1.1-0.3
		c0.3-0.2,0.5-0.6,0.5-1L584.4,18.7z M583.1,17c0-0.4-0.2-0.9-0.4-1.2c-0.3-0.3-0.7-0.5-1.1-0.5c-0.4,0-0.8,0.1-1.2,0.4
		c-0.3,0.3-0.5,0.8-0.5,1.3H583.1z"/>
	<path d="M586.2,14.5h1.3v1l0,0c0.4-0.7,1.2-1.2,2.1-1.1c0.6-0.1,1.2,0.2,1.6,0.6c0.4,0.5,0.5,1.1,0.5,1.7v4.2h-1.3V17
		c0-0.4-0.1-0.8-0.3-1.2c-0.2-0.3-0.6-0.5-1-0.4c-0.5,0-0.9,0.1-1.2,0.5c-0.3,0.4-0.5,0.8-0.5,1.3v3.7h-1.3L586.2,14.5z"/>
	<path d="M593.8,15.5h-0.9v-1.1h0.9v-1.6h1.3v1.7h1.5v1.1h-1.5v3.4c0,0.3,0.1,0.5,0.2,0.7c0.2,0.2,0.4,0.2,0.7,0.2
		c0.1,0,0.2,0,0.3,0h0.3V21l-0.4,0.1c-0.2,0-0.3,0-0.5,0c-0.5,0-1-0.1-1.4-0.5c-0.4-0.4-0.6-1-0.5-1.6L593.8,15.5z"/>
</g>
</svg>
