<svg xmlns="http://www.w3.org/2000/svg" viewBox="0 0 600 326.62"><defs><style>.cls-1,.cls-12,.cls-13,.cls-3{fill:none;stroke-miterlimit:10;}.cls-1{stroke:#c6c6c6;stroke-width:0.5px;}.cls-2{opacity:0.3;}.cls-3{stroke:#e3234a;stroke-linecap:round;}.cls-12,.cls-3{stroke-width:2px;}.cls-4{fill:#e3234a;}.cls-5{opacity:0.2;}.cls-6{opacity:0.9;}.cls-7{opacity:0.6;}.cls-8{opacity:0.7;}.cls-9{opacity:0.4;}.cls-10{opacity:0.5;}.cls-11{fill:#231f20;}.cls-12,.cls-13{stroke:#000;}.cls-13{stroke-width:0.55px;}</style></defs><title>LIB-2020-05-07-rea-departements</title><g id="HABILLAGE"><line class="cls-1" x1="18.75" y1="48.12" x2="232.54" y2="48.12"/><g class="cls-2"><line class="cls-3" x1="26.49" y1="257.81" x2="21.51" y2="262.66"/><line class="cls-3" x1="31.47" y1="251.25" x2="26.49" y2="257.81"/><line class="cls-3" x1="36.45" y1="245.55" x2="31.47" y2="251.25"/><line class="cls-3" x1="41.43" y1="236.99" x2="36.45" y2="245.55"/><line class="cls-3" x1="46.41" y1="229.01" x2="41.43" y2="236.99"/><line class="cls-3" x1="51.39" y1="211.61" x2="46.41" y2="229.01"/><line class="cls-3" x1="56.37" y1="199.07" x2="51.39" y2="211.61"/><line class="cls-3" x1="61.35" y1="185.66" x2="56.37" y2="199.07"/><line class="cls-3" x1="66.33" y1="166.84" x2="61.35" y2="185.66"/><line class="cls-3" x1="71.31" y1="144.88" x2="66.33" y2="166.84"/><line class="cls-3" x1="76.29" y1="130.05" x2="71.31" y2="144.88"/><line class="cls-3" x1="81.27" y1="122.36" x2="76.29" y2="130.05"/><line class="cls-3" x1="86.25" y1="103.53" x2="81.27" y2="122.36"/><line class="cls-3" x1="91.23" y1="87.28" x2="86.25" y2="103.53"/><line class="cls-3" x1="96.21" y1="69.6" x2="91.23" y2="87.28"/><line class="cls-3" x1="101.19" y1="69.31" x2="96.21" y2="69.6"/><line class="cls-3" x1="106.17" y1="61.9" x2="101.19" y2="69.31"/><line class="cls-3" x1="111.15" y1="53.63" x2="106.17" y2="61.9"/><line class="cls-3" x1="116.13" y1="53.63" x2="111.15" y2="53.63"/><line class="cls-3" x1="121.11" y1="50.49" x2="116.13" y2="53.63"/><line class="cls-3" x1="126.09" y1="48.78" x2="121.11" y2="50.49"/><line class="cls-3" x1="131.07" y1="55.62" x2="126.09" y2="48.78"/><line class="cls-3" x1="136.05" y1="52.77" x2="131.07" y2="55.62"/><line class="cls-3" x1="141.03" y1="61.33" x2="136.05" y2="52.77"/><line class="cls-3" x1="146.01" y1="62.47" x2="141.03" y2="61.33"/><line class="cls-3" x1="150.99" y1="65.61" x2="146.01" y2="62.47"/><line class="cls-3" x1="155.97" y1="67.32" x2="150.99" y2="65.61"/><line class="cls-3" x1="160.95" y1="78.72" x2="155.97" y2="67.32"/><line class="cls-3" x1="165.93" y1="85.28" x2="160.95" y2="78.72"/><line class="cls-3" x1="170.91" y1="93.84" x2="165.93" y2="85.28"/><line class="cls-3" x1="175.89" y1="97.26" x2="170.91" y2="93.84"/><line class="cls-3" x1="180.87" y1="104.1" x2="175.89" y2="97.26"/><line class="cls-3" x1="185.85" y1="109.52" x2="180.87" y2="104.1"/><line class="cls-3" x1="190.83" y1="117.51" x2="185.85" y2="109.52"/><line class="cls-3" x1="195.81" y1="124.64" x2="190.83" y2="117.51"/><line class="cls-3" x1="200.79" y1="132.05" x2="195.81" y2="124.64"/><line class="cls-3" x1="205.77" y1="133.76" x2="200.79" y2="132.05"/><line class="cls-3" x1="210.75" y1="138.61" x2="205.77" y2="133.76"/><line class="cls-3" x1="215.73" y1="143.46" x2="210.75" y2="138.61"/><line class="cls-3" x1="220.71" y1="146.31" x2="215.73" y2="143.46"/><line class="cls-3" x1="225.69" y1="149.45" x2="220.71" y2="146.31"/><line class="cls-3" x1="230.67" y1="159.14" x2="225.69" y2="149.45"/><line class="cls-3" x1="235.65" y1="162.85" x2="230.67" y2="159.14"/><line class="cls-3" x1="240.63" y1="168.55" x2="235.65" y2="162.85"/><line class="cls-3" x1="245.61" y1="170.26" x2="240.63" y2="168.55"/><line class="cls-3" x1="250.59" y1="169.98" x2="245.61" y2="170.26"/><line class="cls-3" x1="255.57" y1="172.83" x2="250.59" y2="169.98"/><line class="cls-3" x1="260.55" y1="177.39" x2="255.57" y2="172.83"/><line class="cls-3" x1="265.53" y1="186.23" x2="260.55" y2="177.39"/><path class="cls-4" d="M268.81,184.39a3.76,3.76,0,1,1-5.12-1.43A3.76,3.76,0,0,1,268.81,184.39Z"/></g><g class="cls-5"><line class="cls-3" x1="26.54" y1="242.34" x2="21.56" y2="252.61"/><line class="cls-3" x1="31.52" y1="224.36" x2="26.54" y2="242.34"/><line class="cls-3" x1="36.5" y1="217.94" x2="31.52" y2="224.36"/><line class="cls-3" x1="41.48" y1="205.1" x2="36.5" y2="217.94"/><line class="cls-3" x1="46.46" y1="185.84" x2="41.48" y2="205.1"/><line class="cls-3" x1="51.44" y1="165.29" x2="46.46" y2="185.84"/><line class="cls-3" x1="56.42" y1="149.88" x2="51.44" y2="165.29"/><line class="cls-3" x1="61.4" y1="148.6" x2="56.42" y2="149.88"/><line class="cls-3" x1="66.38" y1="144.74" x2="61.4" y2="148.6"/><line class="cls-3" x1="71.36" y1="142.18" x2="66.38" y2="144.74"/><line class="cls-3" x1="76.34" y1="121.63" x2="71.36" y2="142.18"/><line class="cls-3" x1="81.32" y1="113.92" x2="76.34" y2="121.63"/><line class="cls-3" x1="86.3" y1="103.65" x2="81.32" y2="113.92"/><line class="cls-3" x1="91.28" y1="97.23" x2="86.3" y2="103.65"/><line class="cls-3" x1="96.26" y1="92.09" x2="91.28" y2="97.23"/><line class="cls-3" x1="101.24" y1="95.95" x2="96.26" y2="92.09"/><line class="cls-3" x1="106.22" y1="84.39" x2="101.24" y2="95.95"/><line class="cls-3" x1="111.2" y1="76.68" x2="106.22" y2="84.39"/><line class="cls-3" x1="116.18" y1="77.97" x2="111.2" y2="76.68"/><line class="cls-3" x1="121.16" y1="67.69" x2="116.18" y2="77.97"/><line class="cls-3" x1="126.14" y1="75.4" x2="121.16" y2="67.69"/><line class="cls-3" x1="131.12" y1="48.43" x2="126.14" y2="75.4"/><line class="cls-3" x1="136.1" y1="59.99" x2="131.12" y2="48.43"/><line class="cls-3" x1="141.08" y1="65.13" x2="136.1" y2="59.99"/><line class="cls-3" x1="146.06" y1="59.99" x2="141.08" y2="65.13"/><line class="cls-3" x1="151.04" y1="61.27" x2="146.06" y2="59.99"/><line class="cls-3" x1="156.02" y1="58.71" x2="151.04" y2="61.27"/><line class="cls-3" x1="161" y1="58.71" x2="156.02" y2="58.71"/><line class="cls-3" x1="165.98" y1="67.69" x2="161" y2="58.71"/><line class="cls-3" x1="170.96" y1="74.12" x2="165.98" y2="67.69"/><line class="cls-3" x1="175.94" y1="80.54" x2="170.96" y2="74.12"/><line class="cls-3" x1="180.92" y1="89.53" x2="175.94" y2="80.54"/><line class="cls-3" x1="185.9" y1="99.8" x2="180.92" y2="89.53"/><line class="cls-3" x1="190.88" y1="106.22" x2="185.9" y2="99.8"/><line class="cls-3" x1="195.86" y1="111.36" x2="190.88" y2="106.22"/><line class="cls-3" x1="200.84" y1="120.34" x2="195.86" y2="111.36"/><line class="cls-3" x1="205.82" y1="134.47" x2="200.84" y2="120.34"/><line class="cls-3" x1="210.8" y1="131.9" x2="205.82" y2="134.47"/><line class="cls-3" x1="215.78" y1="137.04" x2="210.8" y2="131.9"/><line class="cls-3" x1="220.76" y1="139.61" x2="215.78" y2="137.04"/><line class="cls-3" x1="225.74" y1="142.18" x2="220.76" y2="139.61"/><line class="cls-3" x1="230.72" y1="160.15" x2="225.74" y2="142.18"/><line class="cls-3" x1="235.7" y1="170.43" x2="230.72" y2="160.15"/><line class="cls-3" x1="240.68" y1="171.71" x2="235.7" y2="170.43"/><line class="cls-3" x1="245.66" y1="172.99" x2="240.68" y2="171.71"/><line class="cls-3" x1="250.64" y1="174.28" x2="245.66" y2="172.99"/><line class="cls-3" x1="255.62" y1="176.85" x2="250.64" y2="174.28"/><line class="cls-3" x1="260.6" y1="193.54" x2="255.62" y2="176.85"/><line class="cls-3" x1="265.58" y1="205.1" x2="260.6" y2="193.54"/><path class="cls-4" d="M269,203.61a3.76,3.76,0,1,1-4.94-2A3.76,3.76,0,0,1,269,203.61Z"/></g><line class="cls-3" x1="26.42" y1="255.49" x2="21.44" y2="265.95"/><line class="cls-3" x1="31.4" y1="246.43" x2="26.42" y2="255.49"/><line class="cls-3" x1="36.38" y1="241.55" x2="31.4" y2="246.43"/><line class="cls-3" x1="41.36" y1="233.88" x2="36.38" y2="241.55"/><line class="cls-3" x1="46.34" y1="216.45" x2="41.36" y2="233.88"/><line class="cls-3" x1="51.32" y1="201.11" x2="46.34" y2="216.45"/><line class="cls-3" x1="56.3" y1="187.17" x2="51.32" y2="201.11"/><line class="cls-3" x1="61.28" y1="182.29" x2="56.3" y2="187.17"/><line class="cls-3" x1="66.26" y1="178.11" x2="61.28" y2="182.29"/><line class="cls-3" x1="71.24" y1="166.95" x2="66.26" y2="178.11"/><line class="cls-3" x1="76.22" y1="164.86" x2="71.24" y2="166.95"/><line class="cls-3" x1="81.2" y1="158.59" x2="76.22" y2="164.86"/><line class="cls-3" x1="86.18" y1="156.49" x2="81.2" y2="158.59"/><line class="cls-3" x1="91.16" y1="120.24" x2="86.18" y2="156.49"/><line class="cls-3" x1="96.14" y1="113.27" x2="91.16" y2="120.24"/><line class="cls-3" x1="101.12" y1="90.96" x2="96.14" y2="113.27"/><line class="cls-3" x1="106.1" y1="85.38" x2="101.12" y2="90.96"/><line class="cls-3" x1="111.08" y1="86.08" x2="106.1" y2="85.38"/><line class="cls-3" x1="116.06" y1="84.69" x2="111.08" y2="86.08"/><line class="cls-3" x1="121.04" y1="77.71" x2="116.06" y2="84.69"/><line class="cls-3" x1="126.02" y1="54.71" x2="121.04" y2="77.71"/><line class="cls-3" x1="131" y1="52.62" x2="126.02" y2="54.71"/><line class="cls-3" x1="135.98" y1="59.59" x2="131" y2="52.62"/><line class="cls-3" x1="140.96" y1="67.95" x2="135.98" y2="59.59"/><line class="cls-3" x1="145.94" y1="67.26" x2="140.96" y2="67.95"/><line class="cls-3" x1="150.92" y1="63.07" x2="145.94" y2="67.26"/><line class="cls-3" x1="155.9" y1="49.13" x2="150.92" y2="63.07"/><line class="cls-3" x1="160.88" y1="48.43" x2="155.9" y2="49.13"/><line class="cls-3" x1="165.86" y1="60.28" x2="160.88" y2="48.43"/><line class="cls-3" x1="170.84" y1="55.4" x2="165.86" y2="60.28"/><line class="cls-3" x1="175.82" y1="54.01" x2="170.84" y2="55.4"/><line class="cls-3" x1="180.8" y1="56.1" x2="175.82" y2="54.01"/><line class="cls-3" x1="185.78" y1="55.4" x2="180.8" y2="56.1"/><line class="cls-3" x1="190.76" y1="63.07" x2="185.78" y2="55.4"/><line class="cls-3" x1="195.74" y1="77.71" x2="190.76" y2="63.07"/><line class="cls-3" x1="200.72" y1="82.59" x2="195.74" y2="77.71"/><line class="cls-3" x1="205.7" y1="90.96" x2="200.72" y2="82.59"/><line class="cls-3" x1="210.68" y1="80.5" x2="205.7" y2="90.96"/><line class="cls-3" x1="215.66" y1="83.99" x2="210.68" y2="80.5"/><line class="cls-3" x1="220.64" y1="91.66" x2="215.66" y2="83.99"/><line class="cls-3" x1="225.62" y1="97.23" x2="220.64" y2="91.66"/><line class="cls-3" x1="230.6" y1="110.48" x2="225.62" y2="97.23"/><line class="cls-3" x1="235.58" y1="117.45" x2="230.6" y2="110.48"/><line class="cls-3" x1="240.56" y1="123.73" x2="235.58" y2="117.45"/><line class="cls-3" x1="245.54" y1="120.94" x2="240.56" y2="123.73"/><line class="cls-3" x1="250.52" y1="120.24" x2="245.54" y2="120.94"/><line class="cls-3" x1="255.5" y1="122.33" x2="250.52" y2="120.24"/><line class="cls-3" x1="260.48" y1="129.3" x2="255.5" y2="122.33"/><line class="cls-3" x1="265.46" y1="138.37" x2="260.48" y2="129.3"/><path class="cls-4" d="M268.75,136.56a3.76,3.76,0,1,1-5.1-1.49A3.75,3.75,0,0,1,268.75,136.56Z"/><g class="cls-6"><line class="cls-3" x1="26.16" y1="249.59" x2="21.18" y2="261.33"/><line class="cls-3" x1="31.14" y1="232.96" x2="26.16" y2="249.59"/><line class="cls-3" x1="36.12" y1="229.05" x2="31.14" y2="232.96"/><line class="cls-3" x1="41.1" y1="220.25" x2="36.12" y2="229.05"/><line class="cls-3" x1="46.08" y1="210.47" x2="41.1" y2="220.25"/><line class="cls-3" x1="51.06" y1="195.8" x2="46.08" y2="210.47"/><line class="cls-3" x1="56.04" y1="194.82" x2="51.06" y2="195.8"/><line class="cls-3" x1="61.02" y1="176.24" x2="56.04" y2="194.82"/><line class="cls-3" x1="66" y1="163.52" x2="61.02" y2="176.24"/><line class="cls-3" x1="70.98" y1="152.77" x2="66" y2="163.52"/><line class="cls-3" x1="75.96" y1="148.85" x2="70.98" y2="152.77"/><line class="cls-3" x1="80.94" y1="134.18" x2="75.96" y2="148.85"/><line class="cls-3" x1="85.92" y1="107.78" x2="80.94" y2="134.18"/><line class="cls-3" x1="90.9" y1="70.61" x2="85.92" y2="107.78"/><line class="cls-3" x1="95.88" y1="77.46" x2="90.9" y2="70.61"/><line class="cls-3" x1="100.86" y1="74.52" x2="95.88" y2="77.46"/><line class="cls-3" x1="105.84" y1="70.61" x2="100.86" y2="74.52"/><line class="cls-3" x1="110.82" y1="69.63" x2="105.84" y2="70.61"/><line class="cls-3" x1="115.8" y1="63.77" x2="110.82" y2="69.63"/><line class="cls-3" x1="120.78" y1="57.9" x2="115.8" y2="63.77"/><line class="cls-3" x1="125.76" y1="56.92" x2="120.78" y2="57.9"/><line class="cls-3" x1="130.74" y1="52.03" x2="125.76" y2="56.92"/><line class="cls-3" x1="135.72" y1="48.12" x2="130.74" y2="52.03"/><line class="cls-3" x1="140.7" y1="54.96" x2="135.72" y2="48.12"/><line class="cls-3" x1="145.68" y1="55.94" x2="140.7" y2="54.96"/><line class="cls-3" x1="150.66" y1="53.99" x2="145.68" y2="55.94"/><line class="cls-3" x1="155.64" y1="58.88" x2="150.66" y2="53.99"/><line class="cls-3" x1="160.62" y1="62.79" x2="155.64" y2="58.88"/><line class="cls-3" x1="165.6" y1="56.92" x2="160.62" y2="62.79"/><line class="cls-3" x1="170.58" y1="69.63" x2="165.6" y2="56.92"/><line class="cls-3" x1="175.56" y1="76.48" x2="170.58" y2="69.63"/><line class="cls-3" x1="180.54" y1="75.5" x2="175.56" y2="76.48"/><line class="cls-3" x1="185.52" y1="75.5" x2="180.54" y2="75.5"/><line class="cls-3" x1="190.5" y1="85.28" x2="185.52" y2="75.5"/><line class="cls-3" x1="195.48" y1="85.28" x2="190.5" y2="85.28"/><line class="cls-3" x1="200.46" y1="84.3" x2="195.48" y2="85.28"/><line class="cls-3" x1="205.44" y1="98" x2="200.46" y2="84.3"/><line class="cls-3" x1="210.42" y1="105.82" x2="205.44" y2="98"/><line class="cls-3" x1="215.4" y1="104.84" x2="210.42" y2="105.82"/><line class="cls-3" x1="220.38" y1="99.95" x2="215.4" y2="104.84"/><line class="cls-3" x1="225.36" y1="105.82" x2="220.38" y2="99.95"/><line class="cls-3" x1="230.34" y1="107.78" x2="225.36" y2="105.82"/><line class="cls-3" x1="235.32" y1="114.62" x2="230.34" y2="107.78"/><line class="cls-3" x1="240.3" y1="119.51" x2="235.32" y2="114.62"/><line class="cls-3" x1="245.28" y1="120.49" x2="240.3" y2="119.51"/><line class="cls-3" x1="250.26" y1="119.51" x2="245.28" y2="120.49"/><line class="cls-3" x1="255.24" y1="124.4" x2="250.26" y2="119.51"/><line class="cls-3" x1="260.22" y1="129.29" x2="255.24" y2="124.4"/><line class="cls-3" x1="265.2" y1="136.14" x2="260.22" y2="129.29"/><circle class="cls-4" cx="265.2" cy="136.14" r="3.76" transform="translate(79.9 369.65) rotate(-78.74)"/></g><g class="cls-7"><line class="cls-3" x1="26.18" y1="261.63" x2="21.2" y2="264.81"/><line class="cls-3" x1="31.16" y1="251" x2="26.18" y2="261.63"/><line class="cls-3" x1="36.14" y1="247.29" x2="31.16" y2="251"/><line class="cls-3" x1="41.12" y1="239.85" x2="36.14" y2="247.29"/><line class="cls-3" x1="46.1" y1="223.39" x2="41.12" y2="239.85"/><line class="cls-3" x1="51.08" y1="205.86" x2="46.1" y2="223.39"/><line class="cls-3" x1="56.06" y1="190.99" x2="51.08" y2="205.86"/><line class="cls-3" x1="61.04" y1="172.93" x2="56.06" y2="190.99"/><line class="cls-3" x1="66.02" y1="166.03" x2="61.04" y2="172.93"/><line class="cls-3" x1="71" y1="153.28" x2="66.02" y2="166.03"/><line class="cls-3" x1="75.98" y1="143.72" x2="71" y2="153.28"/><line class="cls-3" x1="80.96" y1="134.69" x2="75.98" y2="143.72"/><line class="cls-3" x1="85.94" y1="118.23" x2="80.96" y2="134.69"/><line class="cls-3" x1="90.92" y1="101.76" x2="85.94" y2="118.23"/><line class="cls-3" x1="95.9" y1="99.11" x2="90.92" y2="101.76"/><line class="cls-3" x1="100.88" y1="87.95" x2="95.9" y2="99.11"/><line class="cls-3" x1="105.86" y1="83.7" x2="100.88" y2="87.95"/><line class="cls-3" x1="110.84" y1="70.96" x2="105.86" y2="83.7"/><line class="cls-3" x1="115.82" y1="62.99" x2="110.84" y2="70.96"/><line class="cls-3" x1="120.8" y1="56.62" x2="115.82" y2="62.99"/><line class="cls-3" x1="125.78" y1="48.12" x2="120.8" y2="56.62"/><line class="cls-3" x1="130.76" y1="57.15" x2="125.78" y2="48.12"/><line class="cls-3" x1="135.74" y1="59.8" x2="130.76" y2="57.15"/><line class="cls-3" x1="140.72" y1="56.08" x2="135.74" y2="59.8"/><line class="cls-3" x1="145.7" y1="50.77" x2="140.72" y2="56.08"/><line class="cls-3" x1="150.68" y1="58.74" x2="145.7" y2="50.77"/><line class="cls-3" x1="155.66" y1="65.64" x2="150.68" y2="58.74"/><line class="cls-3" x1="160.64" y1="69.36" x2="155.66" y2="65.64"/><line class="cls-3" x1="165.62" y1="74.67" x2="160.64" y2="69.36"/><line class="cls-3" x1="170.6" y1="81.58" x2="165.62" y2="74.67"/><line class="cls-3" x1="175.58" y1="83.17" x2="170.6" y2="81.58"/><line class="cls-3" x1="180.56" y1="82.64" x2="175.58" y2="83.17"/><line class="cls-3" x1="185.54" y1="86.36" x2="180.56" y2="82.64"/><line class="cls-3" x1="190.52" y1="96.45" x2="185.54" y2="86.36"/><line class="cls-3" x1="195.5" y1="104.42" x2="190.52" y2="96.45"/><line class="cls-3" x1="200.48" y1="102.82" x2="195.5" y2="104.42"/><line class="cls-3" x1="205.46" y1="106.01" x2="200.48" y2="102.82"/><line class="cls-3" x1="210.44" y1="118.23" x2="205.46" y2="106.01"/><line class="cls-3" x1="215.42" y1="116.1" x2="210.44" y2="118.23"/><line class="cls-3" x1="220.4" y1="117.69" x2="215.42" y2="116.1"/><line class="cls-3" x1="225.38" y1="124.07" x2="220.4" y2="117.69"/><line class="cls-3" x1="230.36" y1="142.13" x2="225.38" y2="124.07"/><line class="cls-3" x1="235.34" y1="152.22" x2="230.36" y2="142.13"/><line class="cls-3" x1="240.32" y1="152.75" x2="235.34" y2="152.22"/><line class="cls-3" x1="245.3" y1="156.47" x2="240.32" y2="152.75"/><line class="cls-3" x1="250.28" y1="159.12" x2="245.3" y2="156.47"/><line class="cls-3" x1="255.26" y1="162.31" x2="250.28" y2="159.12"/><line class="cls-3" x1="260.24" y1="172.4" x2="255.26" y2="162.31"/><line class="cls-3" x1="265.22" y1="177.71" x2="260.24" y2="172.4"/><path class="cls-4" d="M268,175.14a3.76,3.76,0,1,1-5.31-.17A3.76,3.76,0,0,1,268,175.14Z"/></g><g class="cls-8"><line class="cls-3" x1="26.32" y1="266.86" x2="21.34" y2="272.83"/><line class="cls-3" x1="31.3" y1="260.88" x2="26.32" y2="266.86"/><line class="cls-3" x1="36.28" y1="253.91" x2="31.3" y2="260.88"/><line class="cls-3" x1="41.26" y1="241.96" x2="36.28" y2="253.91"/><line class="cls-3" x1="46.24" y1="223.03" x2="41.26" y2="241.96"/><line class="cls-3" x1="51.22" y1="219.05" x2="46.24" y2="223.03"/><line class="cls-3" x1="56.2" y1="210.08" x2="51.22" y2="219.05"/><line class="cls-3" x1="61.18" y1="196.14" x2="56.2" y2="210.08"/><line class="cls-3" x1="66.16" y1="189.17" x2="61.18" y2="196.14"/><line class="cls-3" x1="71.14" y1="163.27" x2="66.16" y2="189.17"/><line class="cls-3" x1="76.12" y1="161.28" x2="71.14" y2="163.27"/><line class="cls-3" x1="81.1" y1="148.33" x2="76.12" y2="161.28"/><line class="cls-3" x1="86.08" y1="128.41" x2="81.1" y2="148.33"/><line class="cls-3" x1="91.06" y1="117.46" x2="86.08" y2="128.41"/><line class="cls-3" x1="96.04" y1="106.5" x2="91.06" y2="117.46"/><line class="cls-3" x1="101.02" y1="104.51" x2="96.04" y2="106.5"/><line class="cls-3" x1="106" y1="97.54" x2="101.02" y2="104.51"/><line class="cls-3" x1="110.98" y1="91.56" x2="106" y2="97.54"/><line class="cls-3" x1="115.96" y1="83.59" x2="110.98" y2="91.56"/><line class="cls-3" x1="120.94" y1="74.63" x2="115.96" y2="83.59"/><line class="cls-3" x1="125.92" y1="67.66" x2="120.94" y2="74.63"/><line class="cls-3" x1="130.9" y1="65.66" x2="125.92" y2="67.66"/><line class="cls-3" x1="135.88" y1="56.7" x2="130.9" y2="65.66"/><line class="cls-3" x1="140.86" y1="53.71" x2="135.88" y2="56.7"/><line class="cls-3" x1="145.84" y1="55.7" x2="140.86" y2="53.71"/><line class="cls-3" x1="150.82" y1="52.72" x2="145.84" y2="55.7"/><line class="cls-3" x1="155.8" y1="58.69" x2="150.82" y2="52.72"/><line class="cls-3" x1="160.78" y1="89.57" x2="155.8" y2="58.69"/><line class="cls-3" x1="165.76" y1="89.57" x2="160.78" y2="89.57"/><line class="cls-3" x1="170.74" y1="102.52" x2="165.76" y2="89.57"/><line class="cls-3" x1="175.72" y1="107.5" x2="170.74" y2="102.52"/><line class="cls-3" x1="180.7" y1="108.49" x2="175.72" y2="107.5"/><line class="cls-3" x1="185.68" y1="103.51" x2="180.7" y2="108.49"/><line class="cls-3" x1="190.66" y1="108.49" x2="185.68" y2="103.51"/><line class="cls-3" x1="195.64" y1="106.5" x2="190.66" y2="108.49"/><line class="cls-3" x1="200.62" y1="114.47" x2="195.64" y2="106.5"/><line class="cls-3" x1="205.6" y1="122.44" x2="200.62" y2="114.47"/><line class="cls-3" x1="210.58" y1="120.44" x2="205.6" y2="122.44"/><line class="cls-3" x1="215.56" y1="122.44" x2="210.58" y2="120.44"/><line class="cls-3" x1="220.54" y1="126.42" x2="215.56" y2="122.44"/><line class="cls-3" x1="225.52" y1="132.4" x2="220.54" y2="126.42"/><line class="cls-3" x1="230.5" y1="136.38" x2="225.52" y2="132.4"/><line class="cls-3" x1="235.48" y1="143.35" x2="230.5" y2="136.38"/><line class="cls-3" x1="240.46" y1="145.34" x2="235.48" y2="143.35"/><line class="cls-3" x1="245.44" y1="145.34" x2="240.46" y2="145.34"/><line class="cls-3" x1="250.42" y1="142.36" x2="245.44" y2="145.34"/><line class="cls-3" x1="255.4" y1="150.32" x2="250.42" y2="142.36"/><line class="cls-3" x1="260.38" y1="159.29" x2="255.4" y2="150.32"/><line class="cls-3" x1="265.36" y1="167.26" x2="260.38" y2="159.29"/><path class="cls-4" d="M268.55,165.26a3.76,3.76,0,1,1-5.18-1.19A3.76,3.76,0,0,1,268.55,165.26Z"/></g><g class="cls-9"><line class="cls-3" x1="26.42" y1="263.82" x2="21.44" y2="266.31"/><line class="cls-3" x1="31.4" y1="247.63" x2="26.42" y2="263.82"/><line class="cls-3" x1="36.38" y1="240.16" x2="31.4" y2="247.63"/><line class="cls-3" x1="41.36" y1="235.18" x2="36.38" y2="240.16"/><line class="cls-3" x1="46.34" y1="227.71" x2="41.36" y2="235.18"/><line class="cls-3" x1="51.32" y1="199.08" x2="46.34" y2="227.71"/><line class="cls-3" x1="56.3" y1="180.4" x2="51.32" y2="199.08"/><line class="cls-3" x1="61.28" y1="164.22" x2="56.3" y2="180.4"/><line class="cls-3" x1="66.26" y1="164.22" x2="61.28" y2="164.22"/><line class="cls-3" x1="71.24" y1="140.56" x2="66.26" y2="164.22"/><line class="cls-3" x1="76.22" y1="133.09" x2="71.24" y2="140.56"/><line class="cls-3" x1="81.2" y1="118.15" x2="76.22" y2="133.09"/><line class="cls-3" x1="86.18" y1="92.01" x2="81.2" y2="118.15"/><line class="cls-3" x1="91.16" y1="67.11" x2="86.18" y2="92.01"/><line class="cls-3" x1="96.14" y1="64.62" x2="91.16" y2="67.11"/><line class="cls-3" x1="101.12" y1="58.39" x2="96.14" y2="64.62"/><line class="cls-3" x1="106.1" y1="53.41" x2="101.12" y2="58.39"/><line class="cls-3" x1="111.08" y1="58.39" x2="106.1" y2="53.41"/><line class="cls-3" x1="116.06" y1="59.64" x2="111.08" y2="58.39"/><line class="cls-3" x1="121.04" y1="53.41" x2="116.06" y2="59.64"/><line class="cls-3" x1="126.02" y1="48.43" x2="121.04" y2="53.41"/><line class="cls-3" x1="131" y1="57.15" x2="126.02" y2="48.43"/><line class="cls-3" x1="135.98" y1="50.92" x2="131" y2="57.15"/><line class="cls-3" x1="140.96" y1="52.17" x2="135.98" y2="50.92"/><line class="cls-3" x1="145.94" y1="54.66" x2="140.96" y2="52.17"/><line class="cls-3" x1="150.92" y1="60.88" x2="145.94" y2="54.66"/><line class="cls-3" x1="155.9" y1="60.88" x2="150.92" y2="60.88"/><line class="cls-3" x1="160.88" y1="70.84" x2="155.9" y2="60.88"/><line class="cls-3" x1="165.86" y1="85.78" x2="160.88" y2="70.84"/><line class="cls-3" x1="170.84" y1="96.99" x2="165.86" y2="85.78"/><line class="cls-3" x1="175.82" y1="114.42" x2="170.84" y2="96.99"/><line class="cls-3" x1="180.8" y1="115.66" x2="175.82" y2="114.42"/><line class="cls-3" x1="185.78" y1="119.4" x2="180.8" y2="115.66"/><line class="cls-3" x1="190.76" y1="119.4" x2="185.78" y2="119.4"/><line class="cls-3" x1="195.74" y1="125.62" x2="190.76" y2="119.4"/><line class="cls-3" x1="200.72" y1="133.09" x2="195.74" y2="125.62"/><line class="cls-3" x1="205.7" y1="133.09" x2="200.72" y2="133.09"/><line class="cls-3" x1="210.68" y1="138.07" x2="205.7" y2="133.09"/><line class="cls-3" x1="215.66" y1="136.83" x2="210.68" y2="138.07"/><line class="cls-3" x1="220.64" y1="145.54" x2="215.66" y2="136.83"/><line class="cls-3" x1="225.62" y1="150.52" x2="220.64" y2="145.54"/><line class="cls-3" x1="230.6" y1="159.24" x2="225.62" y2="150.52"/><line class="cls-3" x1="235.58" y1="170.44" x2="230.6" y2="159.24"/><line class="cls-3" x1="240.56" y1="171.69" x2="235.58" y2="170.44"/><line class="cls-3" x1="245.54" y1="175.42" x2="240.56" y2="171.69"/><line class="cls-3" x1="250.52" y1="175.42" x2="245.54" y2="175.42"/><line class="cls-3" x1="255.5" y1="177.91" x2="250.52" y2="175.42"/><line class="cls-3" x1="260.48" y1="186.63" x2="255.5" y2="177.91"/><line class="cls-3" x1="265.46" y1="195.34" x2="260.48" y2="186.63"/><path class="cls-4" d="M268.72,193.48a3.76,3.76,0,1,1-5.13-1.4A3.75,3.75,0,0,1,268.72,193.48Z"/></g><g class="cls-10"><line class="cls-3" x1="26.27" y1="275.82" x2="21.29" y2="275.82"/><line class="cls-3" x1="31.25" y1="254.94" x2="26.27" y2="275.82"/><line class="cls-3" x1="36.23" y1="249.14" x2="31.25" y2="254.94"/><line class="cls-3" x1="41.21" y1="243.34" x2="36.23" y2="249.14"/><line class="cls-3" x1="46.19" y1="228.25" x2="41.21" y2="243.34"/><line class="cls-3" x1="51.17" y1="214.33" x2="46.19" y2="228.25"/><line class="cls-3" x1="56.15" y1="200.41" x2="51.17" y2="214.33"/><line class="cls-3" x1="61.13" y1="177.21" x2="56.15" y2="200.41"/><line class="cls-3" x1="66.11" y1="163.29" x2="61.13" y2="177.21"/><line class="cls-3" x1="71.09" y1="156.33" x2="66.11" y2="163.29"/><line class="cls-3" x1="76.07" y1="159.81" x2="71.09" y2="156.33"/><line class="cls-3" x1="81.05" y1="130.8" x2="76.07" y2="159.81"/><line class="cls-3" x1="86.03" y1="120.36" x2="81.05" y2="130.8"/><line class="cls-3" x1="91.01" y1="105.28" x2="86.03" y2="120.36"/><line class="cls-3" x1="95.99" y1="93.68" x2="91.01" y2="105.28"/><line class="cls-3" x1="100.97" y1="78.6" x2="95.99" y2="93.68"/><line class="cls-3" x1="105.95" y1="84.4" x2="100.97" y2="78.6"/><line class="cls-3" x1="110.93" y1="73.96" x2="105.95" y2="84.4"/><line class="cls-3" x1="115.91" y1="71.64" x2="110.93" y2="73.96"/><line class="cls-3" x1="120.89" y1="68.15" x2="115.91" y2="71.64"/><line class="cls-3" x1="125.87" y1="61.19" x2="120.89" y2="68.15"/><line class="cls-3" x1="130.85" y1="57.71" x2="125.87" y2="61.19"/><line class="cls-3" x1="135.83" y1="49.59" x2="130.85" y2="57.71"/><line class="cls-3" x1="140.81" y1="54.23" x2="135.83" y2="49.59"/><line class="cls-3" x1="145.79" y1="50.75" x2="140.81" y2="54.23"/><line class="cls-3" x1="150.77" y1="51.91" x2="145.79" y2="50.75"/><line class="cls-3" x1="155.75" y1="48.43" x2="150.77" y2="51.91"/><line class="cls-3" x1="160.73" y1="66.99" x2="155.75" y2="48.43"/><line class="cls-3" x1="165.71" y1="80.92" x2="160.73" y2="66.99"/><line class="cls-3" x1="170.69" y1="83.24" x2="165.71" y2="80.92"/><line class="cls-3" x1="175.67" y1="87.88" x2="170.69" y2="83.24"/><line class="cls-3" x1="180.65" y1="93.68" x2="175.67" y2="87.88"/><line class="cls-3" x1="185.63" y1="108.76" x2="180.65" y2="93.68"/><line class="cls-3" x1="190.61" y1="115.72" x2="185.63" y2="108.76"/><line class="cls-3" x1="195.59" y1="119.2" x2="190.61" y2="115.72"/><line class="cls-3" x1="200.57" y1="118.04" x2="195.59" y2="119.2"/><line class="cls-3" x1="205.55" y1="120.36" x2="200.57" y2="118.04"/><line class="cls-3" x1="210.53" y1="121.52" x2="205.55" y2="120.36"/><line class="cls-3" x1="215.51" y1="121.52" x2="210.53" y2="121.52"/><line class="cls-3" x1="220.49" y1="121.52" x2="215.51" y2="121.52"/><line class="cls-3" x1="225.47" y1="131.96" x2="220.49" y2="121.52"/><line class="cls-3" x1="230.45" y1="140.08" x2="225.47" y2="131.96"/><line class="cls-3" x1="235.43" y1="133.12" x2="230.45" y2="140.08"/><line class="cls-3" x1="240.41" y1="138.92" x2="235.43" y2="133.12"/><line class="cls-3" x1="245.39" y1="142.4" x2="240.41" y2="138.92"/><line class="cls-3" x1="250.37" y1="144.72" x2="245.39" y2="142.4"/><line class="cls-3" x1="255.35" y1="159.81" x2="250.37" y2="144.72"/><line class="cls-3" x1="260.33" y1="166.77" x2="255.35" y2="159.81"/><line class="cls-3" x1="265.31" y1="170.25" x2="260.33" y2="166.77"/><path class="cls-4" d="M267.47,167.17a3.76,3.76,0,1,1-5.24.92A3.75,3.75,0,0,1,267.47,167.17Z"/></g><g class="cls-10"><line class="cls-3" x1="337.17" y1="260.04" x2="332.29" y2="265.44"/><line class="cls-3" x1="342.05" y1="255.99" x2="337.17" y2="260.04"/><line class="cls-3" x1="346.94" y1="243.85" x2="342.05" y2="255.99"/><line class="cls-3" x1="351.82" y1="214.15" x2="346.94" y2="243.85"/><line class="cls-3" x1="356.7" y1="216.85" x2="351.82" y2="214.15"/><line class="cls-3" x1="361.58" y1="184.45" x2="356.7" y2="216.85"/><line class="cls-3" x1="366.47" y1="179.05" x2="361.58" y2="184.45"/><line class="cls-3" x1="371.35" y1="165.55" x2="366.47" y2="179.05"/><line class="cls-3" x1="376.23" y1="143.96" x2="371.35" y2="165.55"/><line class="cls-3" x1="381.11" y1="114.26" x2="376.23" y2="143.96"/><line class="cls-3" x1="385.99" y1="112.91" x2="381.11" y2="114.26"/><line class="cls-3" x1="390.88" y1="94.01" x2="385.99" y2="112.91"/><line class="cls-3" x1="395.76" y1="88.61" x2="390.88" y2="94.01"/><line class="cls-3" x1="400.64" y1="80.51" x2="395.76" y2="88.61"/><line class="cls-3" x1="405.52" y1="54.87" x2="400.64" y2="80.51"/><line class="cls-3" x1="410.41" y1="48.12" x2="405.52" y2="54.87"/><line class="cls-3" x1="415.29" y1="50.82" x2="410.41" y2="48.12"/><line class="cls-3" x1="420.17" y1="54.87" x2="415.29" y2="50.82"/><line class="cls-3" x1="425.05" y1="60.27" x2="420.17" y2="54.87"/><line class="cls-3" x1="429.94" y1="57.57" x2="425.05" y2="60.27"/><line class="cls-3" x1="434.82" y1="71.07" x2="429.94" y2="57.57"/><line class="cls-3" x1="439.7" y1="75.11" x2="434.82" y2="71.07"/><line class="cls-3" x1="444.58" y1="87.26" x2="439.7" y2="75.11"/><line class="cls-3" x1="449.47" y1="88.61" x2="444.58" y2="87.26"/><line class="cls-3" x1="454.35" y1="94.01" x2="449.47" y2="88.61"/><line class="cls-3" x1="459.23" y1="89.96" x2="454.35" y2="94.01"/><line class="cls-3" x1="464.11" y1="92.66" x2="459.23" y2="89.96"/><line class="cls-3" x1="468.99" y1="104.81" x2="464.11" y2="92.66"/><line class="cls-3" x1="473.88" y1="114.26" x2="468.99" y2="104.81"/><line class="cls-3" x1="478.76" y1="119.66" x2="473.88" y2="114.26"/><line class="cls-3" x1="483.64" y1="131.81" x2="478.76" y2="119.66"/><line class="cls-3" x1="488.52" y1="139.91" x2="483.64" y2="131.81"/><line class="cls-3" x1="493.41" y1="138.56" x2="488.52" y2="139.91"/><line class="cls-3" x1="498.29" y1="135.86" x2="493.41" y2="138.56"/><line class="cls-3" x1="503.17" y1="146.66" x2="498.29" y2="135.86"/><line class="cls-3" x1="508.05" y1="145.31" x2="503.17" y2="146.66"/><line class="cls-3" x1="512.94" y1="145.31" x2="508.05" y2="145.31"/><line class="cls-3" x1="517.82" y1="148.01" x2="512.94" y2="145.31"/><line class="cls-3" x1="522.7" y1="143.96" x2="517.82" y2="148.01"/><line class="cls-3" x1="527.58" y1="142.61" x2="522.7" y2="143.96"/><line class="cls-3" x1="532.47" y1="152.06" x2="527.58" y2="142.61"/><line class="cls-3" x1="537.35" y1="172.3" x2="532.47" y2="152.06"/><line class="cls-3" x1="542.23" y1="176.35" x2="537.35" y2="172.3"/><line class="cls-3" x1="547.11" y1="177.7" x2="542.23" y2="176.35"/><line class="cls-3" x1="551.99" y1="181.75" x2="547.11" y2="177.7"/><line class="cls-3" x1="556.88" y1="181.75" x2="551.99" y2="181.75"/><line class="cls-3" x1="561.76" y1="180.4" x2="556.88" y2="181.75"/><line class="cls-3" x1="566.64" y1="199.3" x2="561.76" y2="180.4"/><line class="cls-3" x1="571.52" y1="218.2" x2="566.64" y2="199.3"/><line class="cls-3" x1="576.41" y1="227.65" x2="571.52" y2="218.2"/><path class="cls-4" d="M579.75,225.92a3.76,3.76,0,1,1-5.07-1.61A3.76,3.76,0,0,1,579.75,225.92Z"/></g><line class="cls-3" x1="337.17" y1="230.55" x2="332.29" y2="246.77"/><line class="cls-3" x1="342.05" y1="210.28" x2="337.17" y2="230.55"/><line class="cls-3" x1="346.94" y1="206.23" x2="342.05" y2="210.28"/><line class="cls-3" x1="351.82" y1="195.42" x2="346.94" y2="206.23"/><line class="cls-3" x1="356.7" y1="180.55" x2="351.82" y2="195.42"/><line class="cls-3" x1="361.58" y1="156.23" x2="356.7" y2="180.55"/><line class="cls-3" x1="366.47" y1="137.31" x2="361.58" y2="156.23"/><line class="cls-3" x1="371.35" y1="130.55" x2="366.47" y2="137.31"/><line class="cls-3" x1="376.23" y1="121.09" x2="371.35" y2="130.55"/><line class="cls-3" x1="381.11" y1="96.77" x2="376.23" y2="121.09"/><line class="cls-3" x1="385.99" y1="75.14" x2="381.11" y2="96.77"/><line class="cls-3" x1="390.88" y1="62.98" x2="385.99" y2="75.14"/><line class="cls-3" x1="395.76" y1="49.47" x2="390.88" y2="62.98"/><line class="cls-3" x1="400.64" y1="48.12" x2="395.76" y2="49.47"/><line class="cls-3" x1="405.52" y1="68.39" x2="400.64" y2="48.12"/><line class="cls-3" x1="410.41" y1="65.68" x2="405.52" y2="68.39"/><line class="cls-3" x1="415.29" y1="67.04" x2="410.41" y2="65.68"/><line class="cls-3" x1="420.17" y1="65.68" x2="415.29" y2="67.04"/><line class="cls-3" x1="425.05" y1="58.93" x2="420.17" y2="65.68"/><line class="cls-3" x1="429.94" y1="58.93" x2="425.05" y2="58.93"/><line class="cls-3" x1="434.82" y1="67.04" x2="429.94" y2="58.93"/><line class="cls-3" x1="439.7" y1="68.39" x2="434.82" y2="67.04"/><line class="cls-3" x1="444.58" y1="76.5" x2="439.7" y2="68.39"/><line class="cls-3" x1="449.47" y1="76.5" x2="444.58" y2="76.5"/><line class="cls-3" x1="454.35" y1="77.85" x2="449.47" y2="76.5"/><line class="cls-3" x1="459.23" y1="71.09" x2="454.35" y2="77.85"/><line class="cls-3" x1="464.11" y1="73.79" x2="459.23" y2="71.09"/><line class="cls-3" x1="468.99" y1="77.85" x2="464.11" y2="73.79"/><line class="cls-3" x1="473.88" y1="84.6" x2="468.99" y2="77.85"/><line class="cls-3" x1="478.76" y1="83.25" x2="473.88" y2="84.6"/><line class="cls-3" x1="483.64" y1="90.01" x2="478.76" y2="83.25"/><line class="cls-3" x1="488.52" y1="92.71" x2="483.64" y2="90.01"/><line class="cls-3" x1="493.41" y1="99.47" x2="488.52" y2="92.71"/><line class="cls-3" x1="498.29" y1="103.52" x2="493.41" y2="99.47"/><line class="cls-3" x1="503.17" y1="107.58" x2="498.29" y2="103.52"/><line class="cls-3" x1="508.05" y1="103.52" x2="503.17" y2="107.58"/><line class="cls-3" x1="512.94" y1="106.23" x2="508.05" y2="103.52"/><line class="cls-3" x1="517.82" y1="117.04" x2="512.94" y2="106.23"/><line class="cls-3" x1="522.7" y1="117.04" x2="517.82" y2="117.04"/><line class="cls-3" x1="527.58" y1="123.79" x2="522.7" y2="117.04"/><line class="cls-3" x1="532.47" y1="121.09" x2="527.58" y2="123.79"/><line class="cls-3" x1="537.35" y1="135.96" x2="532.47" y2="121.09"/><line class="cls-3" x1="542.23" y1="152.17" x2="537.35" y2="135.96"/><line class="cls-3" x1="547.11" y1="172.44" x2="542.23" y2="152.17"/><line class="cls-3" x1="551.99" y1="172.44" x2="547.11" y2="172.44"/><line class="cls-3" x1="556.88" y1="172.44" x2="551.99" y2="172.44"/><line class="cls-3" x1="561.76" y1="173.79" x2="556.88" y2="172.44"/><line class="cls-3" x1="566.64" y1="181.9" x2="561.76" y2="173.79"/><line class="cls-3" x1="571.52" y1="194.07" x2="566.64" y2="181.9"/><line class="cls-3" x1="576.41" y1="196.77" x2="571.52" y2="194.07"/><path class="cls-4" d="M578.23,193.48a3.76,3.76,0,1,1-5.11,1.47A3.77,3.77,0,0,1,578.23,193.48Z"/><g class="cls-2"><line class="cls-3" x1="337.17" y1="250.92" x2="332.29" y2="241.91"/><line class="cls-3" x1="342.05" y1="210.36" x2="337.17" y2="250.92"/><line class="cls-3" x1="346.94" y1="203.6" x2="342.05" y2="210.36"/><line class="cls-3" x1="351.82" y1="212.61" x2="346.94" y2="203.6"/><line class="cls-3" x1="356.7" y1="190.08" x2="351.82" y2="212.61"/><line class="cls-3" x1="361.58" y1="196.84" x2="356.7" y2="190.08"/><line class="cls-3" x1="366.47" y1="176.56" x2="361.58" y2="196.84"/><line class="cls-3" x1="371.35" y1="147.26" x2="366.47" y2="176.56"/><line class="cls-3" x1="376.23" y1="126.98" x2="371.35" y2="147.26"/><line class="cls-3" x1="381.11" y1="120.22" x2="376.23" y2="126.98"/><line class="cls-3" x1="385.99" y1="108.96" x2="381.11" y2="120.22"/><line class="cls-3" x1="390.88" y1="102.2" x2="385.99" y2="108.96"/><line class="cls-3" x1="395.76" y1="63.89" x2="390.88" y2="102.2"/><line class="cls-3" x1="400.64" y1="61.64" x2="395.76" y2="63.89"/><line class="cls-3" x1="405.52" y1="52.62" x2="400.64" y2="61.64"/><line class="cls-3" x1="410.41" y1="48.12" x2="405.52" y2="52.62"/><line class="cls-3" x1="415.29" y1="77.41" x2="410.41" y2="48.12"/><line class="cls-3" x1="420.17" y1="77.41" x2="415.29" y2="77.41"/><line class="cls-3" x1="425.05" y1="97.69" x2="420.17" y2="77.41"/><line class="cls-3" x1="429.94" y1="77.41" x2="425.05" y2="97.69"/><line class="cls-3" x1="434.82" y1="72.9" x2="429.94" y2="77.41"/><line class="cls-3" x1="439.7" y1="93.18" x2="434.82" y2="72.9"/><line class="cls-3" x1="444.58" y1="117.97" x2="439.7" y2="93.18"/><line class="cls-3" x1="449.47" y1="102.2" x2="444.58" y2="117.97"/><line class="cls-3" x1="454.35" y1="95.44" x2="449.47" y2="102.2"/><line class="cls-3" x1="459.23" y1="99.94" x2="454.35" y2="95.44"/><line class="cls-3" x1="464.11" y1="99.94" x2="459.23" y2="99.94"/><line class="cls-3" x1="468.99" y1="115.72" x2="464.11" y2="99.94"/><line class="cls-3" x1="473.88" y1="111.21" x2="468.99" y2="115.72"/><line class="cls-3" x1="478.76" y1="113.46" x2="473.88" y2="111.21"/><line class="cls-3" x1="483.64" y1="131.49" x2="478.76" y2="113.46"/><line class="cls-3" x1="488.52" y1="147.26" x2="483.64" y2="131.49"/><line class="cls-3" x1="493.41" y1="140.5" x2="488.52" y2="147.26"/><line class="cls-3" x1="498.29" y1="154.02" x2="493.41" y2="140.5"/><line class="cls-3" x1="503.17" y1="151.77" x2="498.29" y2="154.02"/><line class="cls-3" x1="508.05" y1="154.02" x2="503.17" y2="151.77"/><line class="cls-3" x1="512.94" y1="145.01" x2="508.05" y2="154.02"/><line class="cls-3" x1="517.82" y1="147.26" x2="512.94" y2="145.01"/><line class="cls-3" x1="522.7" y1="145.01" x2="517.82" y2="147.26"/><line class="cls-3" x1="527.58" y1="165.29" x2="522.7" y2="145.01"/><line class="cls-3" x1="532.47" y1="187.83" x2="527.58" y2="165.29"/><line class="cls-3" x1="537.35" y1="183.32" x2="532.47" y2="187.83"/><line class="cls-3" x1="542.23" y1="190.08" x2="537.35" y2="183.32"/><line class="cls-3" x1="547.11" y1="187.83" x2="542.23" y2="190.08"/><line class="cls-3" x1="551.99" y1="185.57" x2="547.11" y2="187.83"/><line class="cls-3" x1="556.88" y1="205.85" x2="551.99" y2="185.57"/><line class="cls-3" x1="561.76" y1="212.61" x2="556.88" y2="205.85"/><line class="cls-3" x1="566.64" y1="205.85" x2="561.76" y2="212.61"/><line class="cls-3" x1="571.52" y1="228.39" x2="566.64" y2="205.85"/><line class="cls-3" x1="576.41" y1="246.41" x2="571.52" y2="228.39"/><path class="cls-4" d="M580,245.43a3.76,3.76,0,1,1-4.62-2.65A3.77,3.77,0,0,1,580,245.43Z"/></g><g class="cls-8"><line class="cls-3" x1="337.17" y1="256.28" x2="332.29" y2="281.13"/><line class="cls-3" x1="342.05" y1="245.92" x2="337.17" y2="256.28"/><line class="cls-3" x1="346.94" y1="229.35" x2="342.05" y2="245.92"/><line class="cls-3" x1="351.82" y1="227.28" x2="346.94" y2="229.35"/><line class="cls-3" x1="356.7" y1="197.25" x2="351.82" y2="227.28"/><line class="cls-3" x1="361.58" y1="172.39" x2="356.7" y2="197.25"/><line class="cls-3" x1="366.47" y1="150.64" x2="361.58" y2="172.39"/><line class="cls-3" x1="371.35" y1="129.93" x2="366.47" y2="150.64"/><line class="cls-3" x1="376.23" y1="110.25" x2="371.35" y2="129.93"/><line class="cls-3" x1="381.11" y1="109.22" x2="376.23" y2="110.25"/><line class="cls-3" x1="385.99" y1="97.83" x2="381.11" y2="109.22"/><line class="cls-3" x1="390.88" y1="83.33" x2="385.99" y2="97.83"/><line class="cls-3" x1="395.76" y1="78.15" x2="390.88" y2="83.33"/><line class="cls-3" x1="400.64" y1="64.69" x2="395.76" y2="78.15"/><line class="cls-3" x1="405.52" y1="59.51" x2="400.64" y2="64.69"/><line class="cls-3" x1="410.41" y1="48.12" x2="405.52" y2="59.51"/><line class="cls-3" x1="415.29" y1="54.33" x2="410.41" y2="48.12"/><line class="cls-3" x1="420.17" y1="63.65" x2="415.29" y2="54.33"/><line class="cls-3" x1="425.05" y1="64.69" x2="420.17" y2="63.65"/><line class="cls-3" x1="429.94" y1="66.76" x2="425.05" y2="64.69"/><line class="cls-3" x1="434.82" y1="57.44" x2="429.94" y2="66.76"/><line class="cls-3" x1="439.7" y1="63.65" x2="434.82" y2="57.44"/><line class="cls-3" x1="444.58" y1="65.72" x2="439.7" y2="63.65"/><line class="cls-3" x1="449.47" y1="70.9" x2="444.58" y2="65.72"/><line class="cls-3" x1="454.35" y1="70.9" x2="449.47" y2="70.9"/><line class="cls-3" x1="459.23" y1="76.08" x2="454.35" y2="70.9"/><line class="cls-3" x1="464.11" y1="82.29" x2="459.23" y2="76.08"/><line class="cls-3" x1="468.99" y1="98.86" x2="464.11" y2="82.29"/><line class="cls-3" x1="473.88" y1="109.22" x2="468.99" y2="98.86"/><line class="cls-3" x1="478.76" y1="121.65" x2="473.88" y2="109.22"/><line class="cls-3" x1="483.64" y1="127.86" x2="478.76" y2="121.65"/><line class="cls-3" x1="488.52" y1="128.9" x2="483.64" y2="127.86"/><line class="cls-3" x1="493.41" y1="126.82" x2="488.52" y2="128.9"/><line class="cls-3" x1="498.29" y1="132" x2="493.41" y2="126.82"/><line class="cls-3" x1="503.17" y1="140.29" x2="498.29" y2="132"/><line class="cls-3" x1="508.05" y1="148.57" x2="503.17" y2="140.29"/><line class="cls-3" x1="512.94" y1="159.96" x2="508.05" y2="148.57"/><line class="cls-3" x1="517.82" y1="162.03" x2="512.94" y2="159.96"/><line class="cls-3" x1="522.7" y1="166.18" x2="517.82" y2="162.03"/><line class="cls-3" x1="527.58" y1="164.11" x2="522.7" y2="166.18"/><line class="cls-3" x1="532.47" y1="173.43" x2="527.58" y2="164.11"/><line class="cls-3" x1="537.35" y1="172.39" x2="532.47" y2="173.43"/><line class="cls-3" x1="542.23" y1="180.68" x2="537.35" y2="172.39"/><line class="cls-3" x1="547.11" y1="182.75" x2="542.23" y2="180.68"/><line class="cls-3" x1="551.99" y1="188.96" x2="547.11" y2="182.75"/><line class="cls-3" x1="556.88" y1="194.14" x2="551.99" y2="188.96"/><line class="cls-3" x1="561.76" y1="195.17" x2="556.88" y2="194.14"/><line class="cls-3" x1="566.64" y1="206.57" x2="561.76" y2="195.17"/><line class="cls-3" x1="571.52" y1="216.92" x2="566.64" y2="206.57"/><line class="cls-3" x1="576.41" y1="223.14" x2="571.52" y2="216.92"/><path class="cls-4" d="M579.36,220.81a3.76,3.76,0,1,1-5.28-.63A3.76,3.76,0,0,1,579.36,220.81Z"/></g><path class="cls-11" d="M321.12,321.67l.91-1.22-1.35-.32.24-.73,1.3.52-.08-1.47h.8l-.07,1.47,1.28-.52.25.73-1.37.32.92,1.22-.62.45-.82-1.32-.77,1.32Z"/><path class="cls-11" d="M328.1,326.62h-2.86v-.74h1v-6.37h-1v-.75h2.48l2.28,6.08,2.24-6.08h2.42v.75h-1v6.37h1v.74h-2.94v-.74h1v-6.12l-2.6,6.86h-.3l-2.7-6.86v6.12h1Z"/><path class="cls-11" d="M335.35,323.81v-.09a2.71,2.71,0,0,1,2.7-3c1.33,0,2.58.8,2.58,2.86v.3H336.3c0,1.31.67,2,1.85,2,.89,0,1.4-.33,1.53-1h.91a2.21,2.21,0,0,1-2.45,1.76A2.7,2.7,0,0,1,335.35,323.81Zm4.35-.62c-.09-1.19-.71-1.66-1.65-1.66a1.72,1.72,0,0,0-1.72,1.66Z"/><path class="cls-11" d="M344.06,326.72c-1.13,0-2-.61-2-2.27v-2.83h-.8v-.75H343v3.61c0,1,.44,1.45,1.31,1.45a1.49,1.49,0,0,0,1.54-1.58v-2.73H345v-.75h1.72v5h.8v.71h-1.71v-1A2,2,0,0,1,344.06,326.72Z"/><path class="cls-11" d="M348.16,326.62v-.71h.8v-4.29h-.83v-.75h1.74V322a2.1,2.1,0,0,1,2.07-1.2v.9c-1.25,0-2.07.39-2.07,1.8v2.44h.88v.71Z"/><path class="cls-11" d="M353.42,325.18v-3.54h-.82v-.77h.82v-1.31h.92v1.31h1.48v.77h-1.48v3.45c0,.55.25.84.82.84a2.32,2.32,0,0,0,.75-.13v.77a2.52,2.52,0,0,1-.82.13C353.93,326.7,353.42,326.09,353.42,325.18Z"/><path class="cls-11" d="M356.61,326.62v-.71h.81v-7h-.83v-.75h1.74v3.72a2,2,0,0,1,1.81-1.07c1.15,0,2,.62,2,2.28v2.86h.8v.71H360.4v-.71h.82V323c0-1-.44-1.42-1.33-1.42a1.49,1.49,0,0,0-1.56,1.55v2.8h.83v.71Z"/><path class="cls-11" d="M363.54,323.81v-.09a2.71,2.71,0,0,1,2.7-3c1.33,0,2.58.8,2.58,2.86v.3h-4.33c0,1.31.67,2,1.85,2,.89,0,1.41-.33,1.53-1h.91a2.21,2.21,0,0,1-2.45,1.76A2.7,2.7,0,0,1,363.54,323.81Zm4.35-.62c-.09-1.19-.7-1.66-1.65-1.66a1.73,1.73,0,0,0-1.72,1.66Z"/><path class="cls-11" d="M369.89,323.17h2.36V324h-2.36Z"/><path class="cls-11" d="M373.32,323.81v-.09a2.71,2.71,0,0,1,2.7-3c1.33,0,2.58.8,2.58,2.86v.3h-4.33c0,1.31.67,2,1.85,2,.89,0,1.41-.33,1.53-1h.91a2.21,2.21,0,0,1-2.45,1.76A2.7,2.7,0,0,1,373.32,323.81Zm4.35-.62c-.09-1.19-.7-1.66-1.65-1.66a1.73,1.73,0,0,0-1.72,1.66Z"/><path class="cls-11" d="M380,325.18v-3.54h-.82v-.77H380v-1.31h.92v1.31h1.48v.77h-1.48v3.45c0,.55.25.84.82.84a2.37,2.37,0,0,0,.75-.13v.77a2.58,2.58,0,0,1-.83.13C380.53,326.7,380,326.09,380,325.18Z"/><path class="cls-11" d="M383.47,323.17h2.35V324h-2.35Z"/><path class="cls-11" d="M389.72,326.62h-2.86v-.74h1v-6.37h-1v-.75h2.48l2.28,6.08,2.24-6.08h2.42v.75h-1v6.37h1v.74h-2.94v-.74h1v-6.12l-2.6,6.86h-.3l-2.7-6.86v6.12h1Z"/><path class="cls-11" d="M397,323.8v-.09a2.83,2.83,0,1,1,5.66,0v.09a2.83,2.83,0,1,1-5.66,0Zm4.71,0v-.08c0-1.33-.73-2.19-1.88-2.19s-1.88.86-1.88,2.18v.09c0,1.31.71,2.16,1.88,2.16A1.91,1.91,0,0,0,401.68,323.8Z"/><path class="cls-11" d="M404.22,325.92v.7h-.77v-1.91h.75a1.53,1.53,0,0,0,1.54,1.29c.79,0,1.18-.33,1.18-.95s-.46-.81-1.36-1c-1.49-.27-2-.8-2-1.76a1.63,1.63,0,0,1,1.82-1.54,1.42,1.42,0,0,1,1.44.71v-.61h.77v1.66h-.75a1.28,1.28,0,0,0-1.37-1c-.65,0-1.06.25-1.06.79s.29.76,1.34,1,2,.53,2,1.74c0,1-.71,1.72-2.07,1.72A1.54,1.54,0,0,1,404.22,325.92Z"/><path class="cls-11" d="M408.61,323.81v-.09a2.71,2.71,0,0,1,2.7-3c1.33,0,2.58.8,2.58,2.86v.3h-4.33c0,1.31.67,2,1.85,2,.89,0,1.4-.33,1.53-1h.91a2.21,2.21,0,0,1-2.45,1.76A2.7,2.7,0,0,1,408.61,323.81Zm4.35-.62c-.09-1.19-.71-1.66-1.65-1.66a1.72,1.72,0,0,0-1.72,1.66Z"/><path class="cls-11" d="M414.54,326.62v-.71h.8v-7h-.82v-.75h1.75v7.79h.8v.71Z"/><path class="cls-11" d="M417.66,326.62v-.71h.81v-7h-.83v-.75h1.75v7.79h.8v.71Z"/><path class="cls-11" d="M420.8,323.81v-.09a2.71,2.71,0,0,1,2.69-3c1.34,0,2.59.8,2.59,2.86v.3h-4.33c0,1.31.67,2,1.84,2,.9,0,1.41-.33,1.53-1H426a2.22,2.22,0,0,1-2.46,1.76A2.7,2.7,0,0,1,420.8,323.81Zm4.35-.62c-.09-1.19-.71-1.66-1.66-1.66a1.72,1.72,0,0,0-1.71,1.66Z"/><path class="cls-11" d="M427,327.19c.47-.07.68-.26.68-.6a.63.63,0,0,1-.71-.66.68.68,0,0,1,.69-.66.72.72,0,0,1,.72.8v.21a1.32,1.32,0,0,1-1.38,1.43Z"/><path class="cls-11" d="M435,326.62h-2.86v-.74h1v-6.37h-1v-.75h2.47l2.28,6.08,2.25-6.08h2.42v.75h-1v6.37h1v.74H438.6v-.74h1v-6.12L437,326.62h-.3L434,319.76v6.12h1Z"/><path class="cls-11" d="M442.23,323.8v-.09a2.83,2.83,0,1,1,5.65,0v.09a2.83,2.83,0,1,1-5.65,0Zm4.71,0v-.08c0-1.33-.74-2.19-1.89-2.19s-1.88.86-1.88,2.18v.09c0,1.31.72,2.16,1.88,2.16A1.91,1.91,0,0,0,446.94,323.8Z"/><path class="cls-11" d="M449.48,325.92v.7h-.77v-1.91h.74A1.54,1.54,0,0,0,451,326c.8,0,1.18-.33,1.18-.95s-.46-.81-1.35-1c-1.5-.27-2-.8-2-1.76a1.62,1.62,0,0,1,1.81-1.54,1.41,1.41,0,0,1,1.44.71v-.61h.77v1.66h-.74a1.3,1.3,0,0,0-1.38-1c-.65,0-1.06.25-1.06.79s.29.76,1.35,1,2,.53,2,1.74c0,1-.7,1.72-2.07,1.72A1.52,1.52,0,0,1,449.48,325.92Z"/><path class="cls-11" d="M453.87,323.81v-.09a2.71,2.71,0,0,1,2.69-3,2.52,2.52,0,0,1,2.59,2.86v.3h-4.34c.05,1.31.67,2,1.85,2,.89,0,1.41-.33,1.53-1h.91a2.21,2.21,0,0,1-2.45,1.76A2.7,2.7,0,0,1,453.87,323.81Zm4.34-.62c-.09-1.19-.7-1.66-1.65-1.66a1.74,1.74,0,0,0-1.72,1.66Z"/><path class="cls-11" d="M459.79,326.62v-.71h.81v-7h-.83v-.75h1.75v7.79h.8v.71Z"/><path class="cls-11" d="M462.92,326.62v-.71h.8v-7h-.82v-.75h1.75v7.79h.8v.71Z"/><path class="cls-11" d="M466.05,323.81v-.09a2.71,2.71,0,0,1,2.7-3c1.33,0,2.58.8,2.58,2.86v.3H467c0,1.31.67,2,1.85,2,.89,0,1.41-.33,1.53-1h.91a2.21,2.21,0,0,1-2.45,1.76A2.7,2.7,0,0,1,466.05,323.81Zm4.35-.62c-.09-1.19-.7-1.66-1.65-1.66a1.73,1.73,0,0,0-1.72,1.66Z"/><path class="cls-11" d="M472.28,327.19c.47-.07.68-.26.68-.6a.63.63,0,0,1-.7-.66.68.68,0,0,1,.68-.66.72.72,0,0,1,.73.8v.21a1.33,1.33,0,0,1-1.39,1.43Z"/><path class="cls-11" d="M477.37,325.88h1v-6.37h-1v-.75h3.36c1.46,0,2.53.48,2.53,2v0a1.62,1.62,0,0,1-1.19,1.66,1.73,1.73,0,0,1,1.57,1.88v0c0,1.49-1,2.2-2.58,2.2h-3.69Zm3.36-3.69c1.15,0,1.59-.42,1.59-1.39v0c0-.89-.51-1.25-1.61-1.25H479.3v2.68Zm.31,3.69c1.14,0,1.67-.51,1.67-1.47v0c0-1-.54-1.43-1.81-1.43h-1.6v2.94Z"/><path class="cls-11" d="M486.36,326.72c-1.05,0-1.87-.51-1.87-1.69,0-1.34,1.39-1.78,2.84-1.78h.8v-.42c0-1-.38-1.3-1.21-1.3s-1.19.29-1.28,1h-.91a2,2,0,0,1,2.23-1.79,1.83,1.83,0,0,1,2.08,2.06v3.08h.77v.71h-1.68v-.79A1.92,1.92,0,0,1,486.36,326.72Zm1.77-2.11v-.71h-.77c-1.13,0-2,.29-2,1.13a.91.91,0,0,0,1.05,1C487.39,326,488.13,325.5,488.13,324.61Z"/><path class="cls-11" d="M491.29,325.92v.7h-.77v-1.91h.74a1.54,1.54,0,0,0,1.55,1.29c.79,0,1.17-.33,1.17-.95s-.46-.81-1.35-1c-1.5-.27-2-.8-2-1.76a1.62,1.62,0,0,1,1.81-1.54c.84,0,1.25.3,1.44.71v-.61h.77v1.66h-.74a1.3,1.3,0,0,0-1.38-1c-.65,0-1.06.25-1.06.79s.29.76,1.35,1,2,.53,2,1.74c0,1-.7,1.72-2.07,1.72A1.52,1.52,0,0,1,491.29,325.92Z"/><path class="cls-11" d="M496,323.17h2.36V324H496Z"/><path class="cls-11" d="M499.37,326.62v-.74h1v-6.37h-1v-.75h3.41c1.49,0,2.7.61,2.7,2.19v0a2.12,2.12,0,0,1-2,2.14l1.9,2.75h.71v.74h-1.26l-2.34-3.42h-1.21v2.68h1.08v.74Zm3.42-4.18c1.13,0,1.73-.47,1.73-1.48v0c0-1-.66-1.4-1.73-1.4h-1.47v2.93Z"/><path class="cls-11" d="M506.7,326.62v-.71h.8v-7h-.82v-.75h1.73v3.72a2,2,0,0,1,1.81-1.07c1.15,0,2,.62,2,2.28v2.86h.8v.71h-2.54v-.71h.83V323c0-1-.44-1.42-1.33-1.42a1.49,1.49,0,0,0-1.57,1.55v2.8h.83v.71Z"/><path class="cls-11" d="M513.62,326.62v-.71h.8v-4.29h-.82v-.75h1.73v5h.83v.71Zm.58-7.57a.62.62,0,0,1,.63-.61.61.61,0,0,1,.62.61.62.62,0,0,1-.62.63A.63.63,0,0,1,514.2,319.05Z"/><path class="cls-11" d="M516.75,326.62v-.71h.8v-4.29h-.82v-.75h1.74v1a2,2,0,0,1,1.8-1.07c1.16,0,2,.62,2,2.28v2.86h.81v.71h-2.54v-.71h.82V323c0-1-.44-1.42-1.33-1.42a1.49,1.49,0,0,0-1.56,1.55v2.8h.82v.71Z"/><path class="cls-11" d="M524.19,327.19c.47-.07.68-.26.68-.6a.63.63,0,0,1-.7-.66.67.67,0,0,1,.68-.66.72.72,0,0,1,.72.8v.21a1.32,1.32,0,0,1-1.38,1.43Z"/><path class="cls-11" d="M529.28,326.62v-.74h1v-6.37h-1v-.75h3v.75h-1.07v2.81h4.13v-2.81H534.3v-.75h3v.75h-1v6.37h1v.74h-3v-.74h1.06v-2.75h-4.13v2.75h1.07v.74Z"/><path class="cls-11" d="M539.89,326.72c-1,0-1.88-.51-1.88-1.69,0-1.34,1.39-1.78,2.84-1.78h.81v-.42c0-1-.39-1.3-1.21-1.3s-1.19.29-1.28,1h-.91c.11-1.35,1.14-1.79,2.23-1.79a1.83,1.83,0,0,1,2.08,2.06v3.08h.77v.71h-1.68v-.79A1.93,1.93,0,0,1,539.89,326.72Zm1.77-2.11v-.71h-.77c-1.14,0-2,.29-2,1.13a.9.9,0,0,0,1,1C540.92,326,541.66,325.5,541.66,324.61Z"/><path class="cls-11" d="M546.44,326.72c-1.13,0-2-.61-2-2.27v-2.83h-.8v-.75h1.71v3.61c0,1,.44,1.45,1.31,1.45a1.49,1.49,0,0,0,1.54-1.58v-2.73h-.8v-.75h1.72v5h.8v.71h-1.72v-1A2,2,0,0,1,546.44,326.72Z"/><path class="cls-11" d="M551.25,325.18v-3.54h-.83v-.77h.83v-1.31h.91v1.31h1.49v.77h-1.49v3.45a.73.73,0,0,0,.83.84,2.27,2.27,0,0,0,.74-.13v.77a2.52,2.52,0,0,1-.82.13C551.75,326.7,551.25,326.09,551.25,325.18Z"/><path class="cls-11" d="M554.69,323.17h2.36V324h-2.36Z"/><path class="cls-11" d="M558.09,326.62v-.74h1v-6.37h-1v-.75h3.41c1.49,0,2.7.61,2.7,2.19v0a2.12,2.12,0,0,1-2,2.14l1.9,2.75h.7v.74h-1.25l-2.34-3.42H560v2.68h1.08v.74Zm3.42-4.18c1.12,0,1.73-.47,1.73-1.48v0c0-1-.66-1.4-1.73-1.4H560v2.93Z"/><path class="cls-11" d="M565.42,326.62v-.71h.8v-7h-.83v-.75h1.74v3.72a2,2,0,0,1,1.81-1.07c1.15,0,2,.62,2,2.28v2.86h.8v.71H569.2v-.71H570V323c0-1-.45-1.42-1.34-1.42a1.49,1.49,0,0,0-1.56,1.55v2.8H568v.71Z"/><path class="cls-11" d="M572.33,326.62v-.71h.81v-4.29h-.83v-.75h1.74v5h.83v.71Zm.59-7.57a.63.63,0,0,1,1.25,0,.63.63,0,1,1-1.25,0Z"/><path class="cls-11" d="M575.47,326.62v-.71h.8v-4.29h-.82v-.75h1.74v1a2,2,0,0,1,1.8-1.07c1.16,0,2,.62,2,2.28v2.86h.81v.71h-2.55v-.71h.83V323c0-1-.44-1.42-1.33-1.42a1.49,1.49,0,0,0-1.56,1.55v2.8H578v.71Z"/><path d="M102,.49l-.54.5H99.91l.92-1.11h2.39L104.13,1h-1.57Zm-1.33,1h2.68V16.17h-2.68Z"/><path d="M104.81,1.5h2.68V13.62h3.93v2.55h-6.61Z"/><path d="M112.78,1.5h6.61V4.05h-3.92V7.39h3.74V9.82h-3.74v3.8h3.92v2.55h-6.61Z"/><path d="M120.56,9.58v-2h3.09v2Z"/><path d="M125,1.5h4c3.2,0,4.34,1.29,4.34,4.57V11.6c0,3.28-1.14,4.57-4.34,4.57h-4ZM127.69,4v9.75H129c1.15,0,1.68-.51,1.68-2.45V6.4c0-1.95-.53-2.44-1.68-2.44Z"/><path d="M134.74,1.5h6.61V4.05h-3.93V7.39h3.75V9.82h-3.75v3.8h3.93v2.55h-6.61Z"/><path d="M142.52,9.58v-2h3.09v2Z"/><path d="M149.65,10.27v5.9H147V1.5h6.61V4.18h-3.92V7.71h3.74v2.56Z"/><path d="M154.94,16.17V1.5h3.92c2.92,0,3.75.84,3.75,3.47V7a3,3,0,0,1-1.26,2.84l1.49,6.34h-2.79l-1.3-5.85h-1.13v5.85ZM157.62,4V8h1.24c.76,0,1.06-.22,1.06-1.33V5.3c0-1.12-.3-1.34-1.06-1.34Z"/><path d="M169.19,12.61h-2.28l-.47,3.56h-2.61L166,1.5h4.16l2.14,14.67h-2.61ZM168.06,4l-.86,6.39h1.71Z"/><path d="M176,8v8.17h-2.47V1.5h2.33l3.42,8.26V1.5h2.46V16.17H179.4Z"/><path d="M183.12,5.87c0-3,1.23-4.46,4.33-4.46s4.32,1.31,4.33,4.23V7.73H189.1V5.89c0-1.48-.52-2-1.65-2s-1.64.49-1.64,2.27v5.29c0,1.75.48,2.29,1.64,2.29s1.63-.45,1.65-2V9.6h2.68V12c0,3.08-1.33,4.28-4.33,4.28s-4.33-1.19-4.33-4.52Z"/><path d="M193.17,1.5h6.61V4.05h-3.93V7.39h3.75V9.82h-3.75v3.8h3.93v2.55h-6.61Z"/><path class="cls-11" d="M18.75,308.27v-1.62h1.78V300.5l-2,1.29v-2l2.23-1.58h2v8.39h1.68v1.62Z"/><path class="cls-11" d="M25.13,305.45A2.56,2.56,0,0,1,27,302.94a2.15,2.15,0,0,1-1.44-2.09c0-1.72,1.65-2.73,3.53-2.73s3.51,1,3.51,2.72a2.18,2.18,0,0,1-1.45,2.08A2.51,2.51,0,0,1,33,305.39c0,2-1.68,3-3.91,3S25.13,307.41,25.13,305.45Zm5.59-.23a1.49,1.49,0,0,0-1.65-1.53,1.55,1.55,0,1,0,1.65,1.53ZM30.5,301a1.43,1.43,0,1,0-1.42,1.32A1.3,1.3,0,0,0,30.5,301Z"/><path class="cls-11" d="M36.54,308.27v-1.44h.8v-4.38h-.81V301h2.83v1.22a2.39,2.39,0,0,1,2.2-1.39,2,2,0,0,1,2,1.39,2.75,2.75,0,0,1,2.4-1.39c1.33,0,2.36.85,2.36,2.8v3.25h.8v1.44H45.55v-1.44h.77v-3.08c0-.94-.39-1.37-1.11-1.37a1.36,1.36,0,0,0-1.37,1.51v2.94h.77v1.44H41.05v-1.44h.79v-3.08c0-.94-.41-1.37-1.13-1.37a1.36,1.36,0,0,0-1.35,1.51v2.94h.77v1.44Z"/><path class="cls-11" d="M52.19,308.43a2.13,2.13,0,0,1-2.43-2.19c0-1.75,1.57-2.35,3.78-2.35h.81v-.29c0-.91-.29-1.35-1.18-1.35a1.05,1.05,0,0,0-1.2,1H50.05c.11-1.77,1.47-2.51,3.25-2.51s3.05.69,3.05,2.72v3.33h.77v1.44H54.39v-.95A2.37,2.37,0,0,1,52.19,308.43Zm2.16-2.73v-.59h-.77c-1.16,0-1.82.28-1.82,1,0,.49.28.87,1,.87C53.68,307,54.35,306.54,54.35,305.7Z"/><path class="cls-11" d="M57.69,308.27v-1.44h.8v-4.38h-.81V301h2.83v1.48A2.44,2.44,0,0,1,63,300.84v1.92c-1.59-.06-2.51.44-2.51,1.84v2.23h.88v1.44Z"/><path class="cls-11" d="M65.21,307.52v.75H63.73v-2.43h1.48a1.52,1.52,0,0,0,1.56,1.29c.8,0,1.17-.33,1.17-.9s-.46-.76-1.48-.91c-1.95-.3-2.68-1-2.68-2.33a2.22,2.22,0,0,1,2.5-2.21c1.17,0,1.65.41,1.89.85V301H69.6v2.17H68.16a1.42,1.42,0,0,0-1.48-1.07c-.63,0-1,.26-1,.76s.32.7,1.39.9c1.81.25,2.83.77,2.83,2.34s-1,2.38-2.72,2.38A2,2,0,0,1,65.21,307.52Z"/><path class="cls-11" d="M234.11,301.34h-1.79v-3.08h7.35v1.15l-3.33,8.86H234l3.2-8.36h-3.11Z"/><path class="cls-11" d="M243.07,308.27v-1.44h.8v-4.38h-.82V301h2.83v1.22a2.39,2.39,0,0,1,2.2-1.39,2,2,0,0,1,2,1.39,2.73,2.73,0,0,1,2.39-1.39c1.34,0,2.37.85,2.37,2.8v3.25h.8v1.44h-3.59v-1.44h.78v-3.08c0-.94-.4-1.37-1.11-1.37a1.36,1.36,0,0,0-1.37,1.51v2.94h.77v1.44h-3.56v-1.44h.78v-3.08c0-.94-.4-1.37-1.12-1.37a1.36,1.36,0,0,0-1.36,1.51v2.94h.77v1.44Z"/><path class="cls-11" d="M258.72,308.43a2.14,2.14,0,0,1-2.44-2.19c0-1.75,1.57-2.35,3.79-2.35h.81v-.29c0-.91-.3-1.35-1.18-1.35a1.05,1.05,0,0,0-1.2,1h-1.92c.11-1.77,1.47-2.51,3.25-2.51s3.05.69,3.05,2.72v3.33h.77v1.44h-2.73v-.95A2.38,2.38,0,0,1,258.72,308.43Zm2.16-2.73v-.59h-.77c-1.16,0-1.82.28-1.82,1,0,.49.28.87,1,.87C260.21,307,260.88,306.54,260.88,305.7Z"/><path class="cls-11" d="M264.22,308.27v-1.44h.8v-4.38h-.81V301H267v5.88h.82v1.44Zm.59-9.44A1.18,1.18,0,1,1,266,300,1.14,1.14,0,0,1,264.81,298.83Z"/><line class="cls-12" x1="18.75" y1="289.78" x2="268" y2="289.78"/><path d="M409.34,1.5H416V4.05H412V7.38h3.75V9.82H412v3.79H416v2.56h-6.61ZM411.7,1,412-.12h2.45L413.39,1Z"/><path d="M420,11.2v5h-2.68V1.5h4c2.91,0,3.9,1,3.9,3.62V7.73c0,2.46-1,3.47-3.9,3.47ZM420,4V8.9h1.32c.86,0,1.24-.29,1.24-1.57V5.58c0-1.31-.38-1.62-1.24-1.62Z"/><path d="M426.62,1.5h2.68V16.17h-2.68Z"/><path d="M430.71,5.87c0-3,1.22-4.46,4.32-4.46s4.32,1.31,4.34,4.23V7.73h-2.68V5.89c0-1.48-.53-2-1.66-2s-1.64.49-1.64,2.27v5.29c0,1.75.49,2.29,1.64,2.29s1.64-.45,1.66-2V9.6h2.68V12c0,3.08-1.33,4.28-4.34,4.28s-4.32-1.19-4.32-4.52Z"/><path d="M440.75,1.5h6.61V4.05h-3.93V7.38h3.75V9.82h-3.75v3.79h3.93v2.56h-6.61Z"/><path d="M451.23,8v8.17h-2.47V1.5h2.32l3.43,8.26V1.5H457V16.17h-2.32Z"/><path d="M463.31,4.18v12h-2.69v-12h-2.28V1.5h7.25V4.18Z"/><path d="M467,16.17V1.5h3.92c2.92,0,3.75.84,3.75,3.47V7a3,3,0,0,1-1.26,2.84l1.49,6.34h-2.79l-1.29-5.85h-1.14v5.85ZM469.64,4V8h1.24c.76,0,1.07-.22,1.07-1.34V5.3c0-1.12-.31-1.34-1.07-1.34Z"/><path d="M476.05,1.5h6.61V4.05h-3.93V7.38h3.75V9.82h-3.75v3.79h3.93v2.56h-6.61Z"/><path d="M487.87,1.5h6.61V4.05h-3.92V7.38h3.74V9.82h-3.74v3.79h3.92v2.56h-6.61Z"/><path d="M504,12.79c0,2.45-1.3,3.47-4.19,3.47s-4.2-1-4.2-3.8v-1.6h2.68v1.37c0,1.26.53,1.67,1.55,1.67s1.48-.3,1.48-1.28V11.35c0-.85-.34-1-2.09-1.41-2.67-.66-3.62-1.26-3.62-3.53V4.88c0-2.46,1.26-3.47,4.2-3.47S504,2.6,504,5.17V6.74h-2.68V5.37c0-1.12-.51-1.57-1.55-1.57s-1.49.36-1.49,1.26V6.3c0,.8.3,1,2.19,1.39,2.63.6,3.53,1.3,3.53,3.53Z"/><path d="M510,4.18v12H507.3v-12H505V1.5h7.26V4.18Z"/><path d="M515.72,4.27,515,5.58l-1-.72,1-1.06-1.48-.29.4-1.18,1.29.61-.14-1.44h1.22L516.17,3l1.32-.64.37,1.18-1.47.29,1.06,1.06-1,.72Z"/><line class="cls-13" x1="329.85" y1="289.88" x2="578.85" y2="289.88"/><path class="cls-11" d="M329.72,308.27v-1.62h1.78V300.5l-1.95,1.29v-2l2.23-1.58h2v8.39h1.68v1.62Z"/><path class="cls-11" d="M336.1,305.44a2.56,2.56,0,0,1,1.85-2.5,2.15,2.15,0,0,1-1.44-2.09c0-1.72,1.65-2.73,3.53-2.73s3.51,1,3.51,2.72a2.18,2.18,0,0,1-1.45,2.08,2.51,2.51,0,0,1,1.83,2.47c0,2-1.68,3-3.91,3S336.1,307.41,336.1,305.44Zm5.59-.22a1.49,1.49,0,0,0-1.65-1.53,1.55,1.55,0,1,0,0,3.08A1.51,1.51,0,0,0,341.69,305.22Zm-.22-4.23a1.43,1.43,0,1,0-1.42,1.32A1.3,1.3,0,0,0,341.47,301Z"/><path class="cls-11" d="M347.51,308.27v-1.44h.8v-4.38h-.81V301h2.83v1.22a2.39,2.39,0,0,1,2.2-1.39,2,2,0,0,1,2,1.39,2.75,2.75,0,0,1,2.4-1.39c1.33,0,2.37.85,2.37,2.8v3.25h.79v1.44h-3.58v-1.44h.77v-3.08c0-.94-.39-1.37-1.11-1.37a1.36,1.36,0,0,0-1.37,1.51v2.94h.77v1.44H352v-1.44h.79v-3.08c0-.94-.41-1.37-1.12-1.37a1.36,1.36,0,0,0-1.36,1.51v2.94h.77v1.44Z"/><path class="cls-11" d="M363.16,308.43a2.13,2.13,0,0,1-2.43-2.19c0-1.75,1.57-2.35,3.78-2.35h.81v-.3c0-.91-.29-1.34-1.17-1.34a1.06,1.06,0,0,0-1.21,1H361c.11-1.77,1.47-2.51,3.25-2.51s3.05.69,3.05,2.72v3.33h.78v1.44h-2.74v-.95A2.35,2.35,0,0,1,363.16,308.43Zm2.16-2.73v-.59h-.77c-1.16,0-1.82.28-1.82,1,0,.49.28.87,1,.87C364.65,307,365.32,306.54,365.32,305.7Z"/><path class="cls-11" d="M368.66,308.27v-1.44h.8v-4.38h-.81V301h2.83v1.48a2.44,2.44,0,0,1,2.51-1.59v1.91c-1.58-.05-2.51.45-2.51,1.85v2.23h.88v1.44Z"/><path class="cls-11" d="M376.18,307.52v.75H374.7v-2.43h1.48a1.52,1.52,0,0,0,1.56,1.29c.8,0,1.18-.33,1.18-.9s-.47-.76-1.49-.91c-1.95-.3-2.67-1-2.67-2.33a2.21,2.21,0,0,1,2.49-2.21c1.18,0,1.65.41,1.89.85V301h1.43v2.17h-1.44a1.42,1.42,0,0,0-1.48-1.07c-.63,0-1,.26-1,.76s.32.7,1.39.9c1.81.25,2.83.77,2.83,2.34s-1,2.38-2.72,2.38A2,2,0,0,1,376.18,307.52Z"/><path class="cls-11" d="M545.08,301.34h-1.79v-3.08h7.35v1.15l-3.33,8.86H545l3.19-8.36h-3.11Z"/><path class="cls-11" d="M554,308.27v-1.44h.8v-4.38H554V301h2.83v1.22a2.39,2.39,0,0,1,2.2-1.39,2,2,0,0,1,2,1.39,2.73,2.73,0,0,1,2.4-1.39c1.33,0,2.36.85,2.36,2.8v3.25h.8v1.44h-3.58v-1.44h.77v-3.08c0-.94-.4-1.37-1.11-1.37a1.36,1.36,0,0,0-1.37,1.51v2.94h.77v1.44h-3.56v-1.44h.78v-3.08c0-.94-.4-1.37-1.12-1.37a1.36,1.36,0,0,0-1.36,1.51v2.94h.77v1.44Z"/><path class="cls-11" d="M569.69,308.43a2.14,2.14,0,0,1-2.44-2.19c0-1.75,1.57-2.35,3.79-2.35h.81v-.29c0-.91-.3-1.35-1.18-1.35a1.05,1.05,0,0,0-1.2,1h-1.92c.11-1.77,1.47-2.51,3.25-2.51s3.05.69,3.05,2.72v3.33h.77v1.44h-2.73v-.95A2.37,2.37,0,0,1,569.69,308.43Zm2.16-2.73v-.59h-.77c-1.16,0-1.82.28-1.82,1,0,.49.28.87,1,.87C571.18,307,571.85,306.54,571.85,305.7Z"/><path class="cls-11" d="M575.19,308.27v-1.44h.8v-4.38h-.81V301H578v5.88h.82v1.44Zm.59-9.44A1.18,1.18,0,1,1,577,300,1.14,1.14,0,0,1,575.78,298.83Z"/><path class="cls-11" d="M253.92,44.07h-2.87v-.75h1V37h-1v-.74h2.23l3.9,6.55V37h-1v-.74H259V37h-1v7.12H257l-4.06-6.76v6h1Z"/><path class="cls-11" d="M259.64,44.07v-.71h.8V39.07h-.82v-.75h1.74v5h.82v.71Zm.58-7.57a.63.63,0,0,1,1.26,0,.63.63,0,0,1-1.26,0Z"/><path class="cls-11" d="M267.93,39.07l-1.8,5H265l-1.87-5h-.71v-.75H265v.75h-.81l1.49,4.14,1.4-4.14h-.82v-.75h2.42v.75Z"/><path class="cls-11" d="M268.89,41.26v-.09a2.71,2.71,0,0,1,2.7-3c1.33,0,2.58.8,2.58,2.86v.3h-4.33c0,1.31.67,2,1.85,2,.89,0,1.4-.33,1.53-1h.91a2.21,2.21,0,0,1-2.45,1.76A2.7,2.7,0,0,1,268.89,41.26Zm4.35-.62c-.09-1.19-.71-1.66-1.65-1.66a1.73,1.73,0,0,0-1.72,1.66Z"/><path class="cls-11" d="M276.88,44.17A1.64,1.64,0,0,1,275,42.48c0-1.34,1.38-1.78,2.84-1.78h.8v-.42c0-1-.39-1.3-1.21-1.3s-1.19.29-1.28,1h-.91c.11-1.35,1.14-1.79,2.23-1.79a1.83,1.83,0,0,1,2.08,2.06v3.08h.77v.71h-1.68v-.79A2,2,0,0,1,276.88,44.17Zm1.77-2.11v-.72h-.77c-1.13,0-2,.3-2,1.14a.92.92,0,0,0,1.05,1C277.91,43.45,278.65,43,278.65,42.06Z"/><path class="cls-11" d="M283.43,44.17c-1.13,0-2-.61-2-2.28V39.07h-.8v-.75h1.72v3.61c0,1,.44,1.45,1.31,1.45a1.49,1.49,0,0,0,1.54-1.58V39.07h-.81v-.75h1.72v5h.8v.71h-1.71v-1A2,2,0,0,1,283.43,44.17Z"/><path class="cls-11" d="M290,44.07v-.71h.8v-7H290v-.75h1.75v7.79h.8v.71Z"/><path class="cls-11" d="M293.14,41.26v-.09a2.71,2.71,0,0,1,2.69-3,2.52,2.52,0,0,1,2.59,2.86v.3h-4.34c.05,1.31.67,2,1.85,2,.89,0,1.41-.33,1.53-1h.91a2.21,2.21,0,0,1-2.45,1.76A2.7,2.7,0,0,1,293.14,41.26Zm4.34-.62c-.09-1.19-.7-1.66-1.65-1.66a1.74,1.74,0,0,0-1.72,1.66Z"/><path class="cls-11" d="M301.65,46.08v-.72h.8V39.07h-.82v-.75h1.74v1a2.31,2.31,0,0,1,1.94-1.11,2.62,2.62,0,0,1,2.62,2.89v.09c0,1.76-1,3-2.62,3a2.14,2.14,0,0,1-1.94-1.07v2.26h.9v.72ZM307,41.25v-.09c0-1.45-.81-2.18-1.78-2.18s-1.88.71-1.88,2.18v.09c0,1.45.78,2.16,1.9,2.16S307,42.64,307,41.25Z"/><path class="cls-11" d="M308.65,44.07v-.71h.8v-7h-.83v-.75h1.75v7.79h.81v.71Z"/><path class="cls-11" d="M314.39,44.17c-1.14,0-2-.61-2-2.28V39.07h-.81v-.75h1.72v3.61c0,1,.44,1.45,1.31,1.45a1.49,1.49,0,0,0,1.54-1.58V39.07h-.8v-.75h1.71v5h.81v.71h-1.72v-1A2,2,0,0,1,314.39,44.17Z"/><path class="cls-11" d="M319.36,43.37v.7h-.77V42.16h.75a1.53,1.53,0,0,0,1.54,1.29c.79,0,1.18-.33,1.18-1s-.47-.81-1.36-1c-1.49-.27-2-.8-2-1.76a1.62,1.62,0,0,1,1.81-1.54,1.43,1.43,0,0,1,1.45.7v-.6h.77V40H322a1.29,1.29,0,0,0-1.38-1c-.65,0-1.05.25-1.05.79s.28.76,1.34,1,2,.52,2,1.73c0,1-.7,1.73-2.06,1.73A1.53,1.53,0,0,1,319.36,43.37Z"/><path class="cls-11" d="M326.21,44.07v-.71H327v-7h-.83v-.75h1.74v3.72a2,2,0,0,1,1.8-1.07c1.16,0,2,.62,2,2.28v2.86h.8v.71H330v-.71h.82V40.43c0-1-.44-1.42-1.33-1.42a1.49,1.49,0,0,0-1.56,1.55v2.8h.82v.71Z"/><path class="cls-11" d="M335.08,44.17a1.64,1.64,0,0,1-1.87-1.69c0-1.34,1.39-1.78,2.84-1.78h.8v-.42c0-1-.38-1.3-1.21-1.3s-1.19.29-1.28,1h-.91a2,2,0,0,1,2.23-1.79,1.83,1.83,0,0,1,2.08,2.06v3.08h.77v.71h-1.68v-.79A1.94,1.94,0,0,1,335.08,44.17Zm1.77-2.11v-.72h-.77c-1.13,0-2,.3-2,1.14a.92.92,0,0,0,1.05,1C336.11,43.45,336.85,43,336.85,42.06Z"/><path class="cls-11" d="M341.64,44.17c-1.14,0-2-.61-2-2.28V39.07h-.8v-.75h1.72v3.61c0,1,.44,1.45,1.31,1.45a1.49,1.49,0,0,0,1.54-1.58V39.07h-.81v-.75h1.72v5h.8v.71h-1.71v-1A2,2,0,0,1,341.64,44.17Z"/><path class="cls-11" d="M346.44,42.63V39.09h-.82v-.77h.82V37h.91v1.31h1.49v.77h-1.49v3.45a.74.74,0,0,0,.83.84,2.37,2.37,0,0,0,.75-.13V44a2.89,2.89,0,0,1-.83.13C347,44.15,346.44,43.53,346.44,42.63Z"/><path class="cls-11" d="M246.3,55.17a2.58,2.58,0,0,1-2.6-2.86v-.09a2.73,2.73,0,0,1,2.69-3,2.07,2.07,0,0,1,1.88,1V47.32h-.86v-.75h1.77v7.79h.8v.71h-1.71v-1A2.42,2.42,0,0,1,246.3,55.17Zm2-2.94v-.08c0-1.51-.7-2.2-1.83-2.2s-1.82.8-1.82,2.23v.09c0,1.47.78,2.18,1.75,2.18S248.3,53.73,248.3,52.23Z"/><path class="cls-11" d="M250.6,52.26v-.09a2.71,2.71,0,0,1,2.69-3c1.34,0,2.59.8,2.59,2.86v.3h-4.33c0,1.31.67,2,1.84,2,.89,0,1.41-.33,1.53-1h.92a2.22,2.22,0,0,1-2.46,1.76A2.7,2.7,0,0,1,250.6,52.26Zm4.35-.62c-.09-1.19-.71-1.66-1.66-1.66a1.72,1.72,0,0,0-1.71,1.66Z"/><path class="cls-11" d="M259.11,55.07v-.71h.81v-7h-.83v-.75h1.75v7.79h.8v.71Z"/><path class="cls-11" d="M262.24,55.07v-.71h.8V50.07h-.82v-.75H264v5h.83v.71Zm.58-7.57a.62.62,0,0,1,.63-.61.61.61,0,0,1,.62.61.62.62,0,0,1-.62.63A.63.63,0,0,1,262.82,47.5Z"/><path class="cls-11" d="M266,53.63V50.09h-.82v-.77H266V48H267v1.31h1.48v.77H267v3.45c0,.55.25.84.82.84a2.37,2.37,0,0,0,.75-.13V55a2.89,2.89,0,0,1-.83.13C266.54,55.15,266,54.53,266,53.63Z"/><path class="cls-11" d="M270.16,54.37v.7h-.77V53.16h.75a1.52,1.52,0,0,0,1.54,1.29c.79,0,1.17-.33,1.17-1s-.46-.81-1.35-1c-1.5-.27-2-.8-2-1.76a1.62,1.62,0,0,1,1.81-1.54c.84,0,1.25.3,1.44.7v-.6h.77V51h-.74a1.3,1.3,0,0,0-1.38-1c-.65,0-1.06.25-1.06.79s.29.76,1.35,1,2,.52,2,1.73c0,1-.7,1.73-2.07,1.73A1.52,1.52,0,0,1,270.16,54.37Z"/><path class="cls-11" d="M277.08,52.25v-.09a2.83,2.83,0,1,1,5.65,0v.08a2.83,2.83,0,1,1-5.65,0Zm4.7,0v-.08c0-1.33-.73-2.19-1.88-2.19s-1.88.86-1.88,2.18v.09a1.9,1.9,0,1,0,3.76,0Z"/><path class="cls-11" d="M288,49.32h.81v2h-.78A1.61,1.61,0,0,0,286.36,50a2,2,0,0,0-1.85,2.19v.09c0,1.4.77,2.15,1.88,2.15A1.55,1.55,0,0,0,288,53h.85a2.4,2.4,0,0,1-2.51,2.17,2.73,2.73,0,0,1-2.81-2.91v-.09a2.79,2.79,0,0,1,2.79-3,1.68,1.68,0,0,1,1.68.85Z"/><path class="cls-11" d="M294.26,49.32h.8v2h-.78a1.61,1.61,0,0,0-1.7-1.29,1.94,1.94,0,0,0-1.85,2.19v.09c0,1.4.77,2.15,1.88,2.15A1.56,1.56,0,0,0,294.26,53h.85a2.41,2.41,0,0,1-2.51,2.17,2.73,2.73,0,0,1-2.82-2.91v-.09a2.8,2.8,0,0,1,2.8-3,1.69,1.69,0,0,1,1.68.85Z"/><path class="cls-11" d="M298.66,55.17c-1.14,0-2-.61-2-2.28V50.07h-.81v-.75h1.72v3.61c0,1,.44,1.45,1.31,1.45a1.49,1.49,0,0,0,1.54-1.58V50.07h-.8v-.75h1.71v5h.81v.71h-1.72v-1A2,2,0,0,1,298.66,55.17Z"/><path class="cls-11" d="M302.75,57.08v-.72h.8V50.07h-.82v-.75h1.74v1a2.31,2.31,0,0,1,1.94-1.11A2.62,2.62,0,0,1,309,52.11v.09c0,1.76-1,3-2.62,3a2.14,2.14,0,0,1-1.94-1.07v2.26h.9v.72Zm5.34-4.83v-.09c0-1.45-.81-2.18-1.78-2.18s-1.88.71-1.88,2.18v.09c0,1.45.78,2.16,1.9,2.16S308.09,53.64,308.09,52.25Z"/><path class="cls-11" d="M309.87,52.26v-.09a2.71,2.71,0,0,1,2.69-3,2.52,2.52,0,0,1,2.59,2.86v.3h-4.34c.05,1.31.67,2,1.85,2,.89,0,1.41-.33,1.53-1h.91a2.2,2.2,0,0,1-2.45,1.76A2.7,2.7,0,0,1,309.87,52.26Zm4.34-.62c-.09-1.19-.7-1.66-1.65-1.66a1.72,1.72,0,0,0-1.71,1.66Zm-1.38-4.93H314l-1.14,1.62h-.69Z"/><path class="cls-11" d="M316.73,54.37v.7H316V53.16h.75a1.53,1.53,0,0,0,1.54,1.29c.79,0,1.18-.33,1.18-1s-.47-.81-1.36-1c-1.49-.27-2-.8-2-1.76a1.63,1.63,0,0,1,1.82-1.54,1.43,1.43,0,0,1,1.44.7v-.6h.77V51h-.75A1.29,1.29,0,0,0,318,50c-.65,0-1.05.25-1.05.79s.28.76,1.34,1,2,.52,2,1.73c0,1-.71,1.73-2.07,1.73A1.54,1.54,0,0,1,316.73,54.37Z"/><path class="cls-11" d="M325.53,55.17a1.65,1.65,0,0,1-1.87-1.69c0-1.34,1.39-1.78,2.84-1.78h.8v-.42c0-1-.38-1.3-1.21-1.3s-1.19.29-1.27,1h-.92c.11-1.35,1.15-1.79,2.24-1.79a1.83,1.83,0,0,1,2.08,2.06v3.08H329v.71H327.3v-.79A1.93,1.93,0,0,1,325.53,55.17Zm1.77-2.11v-.72h-.77c-1.13,0-2,.3-2,1.14a.92.92,0,0,0,1.05,1C326.57,54.45,327.3,54,327.3,53.06Z"/><path class="cls-11" d="M330.13,53.63V50.09h-.83v-.77h.83V48H331v1.31h1.49v.77H331v3.45a.73.73,0,0,0,.83.84,2.37,2.37,0,0,0,.75-.13V55a3,3,0,0,1-.83.13C330.64,55.15,330.13,54.53,330.13,53.63Z"/><path class="cls-11" d="M334,53.63V50.09h-.82v-.77H334V48H335v1.31h1.48v.77H335v3.45c0,.55.25.84.82.84a2.32,2.32,0,0,0,.75-.13V55a2.89,2.89,0,0,1-.83.13C334.54,55.15,334,54.53,334,53.63Z"/><path class="cls-11" d="M337.18,52.26v-.09a2.71,2.71,0,0,1,2.69-3c1.34,0,2.59.8,2.59,2.86v.3h-4.33c0,1.31.67,2,1.84,2,.9,0,1.41-.33,1.53-1h.92A2.22,2.22,0,0,1,340,55.17,2.7,2.7,0,0,1,337.18,52.26Zm4.35-.62c-.09-1.19-.71-1.66-1.66-1.66a1.72,1.72,0,0,0-1.71,1.66Z"/><path class="cls-11" d="M343.22,55.07v-.71h.8V50.07h-.82v-.75h1.73v5h.83v.71Zm.58-7.57a.63.63,0,0,1,1.26,0,.63.63,0,0,1-1.26,0Z"/><path class="cls-11" d="M346.35,55.07v-.71h.81V50.07h-.83v-.75h1.74v1a2,2,0,0,1,1.8-1.07c1.16,0,2,.62,2,2.28v2.86h.8v.71h-2.54v-.71H351V51.43c0-1-.44-1.42-1.33-1.42a1.49,1.49,0,0,0-1.56,1.55v2.8h.82v.71Z"/><path class="cls-11" d="M353.82,53.63V50.09H353v-.77h.82V48h.92v1.31h1.48v.77h-1.48v3.45c0,.55.25.84.82.84a2.37,2.37,0,0,0,.75-.13V55a2.89,2.89,0,0,1-.83.13C354.33,55.15,353.82,54.53,353.82,53.63Z"/><path class="cls-11" d="M253.31,62.64a7.65,7.65,0,0,1,1.83-5.07h.91a8.1,8.1,0,0,0,0,10.13h-.91A7.62,7.62,0,0,1,253.31,62.64Z"/><path class="cls-11" d="M256.62,68.08v-.72h.81V61.07h-.83v-.75h1.74v1a2.31,2.31,0,0,1,2-1.11,2.61,2.61,0,0,1,2.61,2.89v.09c0,1.76-1,3-2.61,3a2.14,2.14,0,0,1-2-1.07v2.26h.9v.72ZM262,63.25v-.09c0-1.45-.81-2.18-1.77-2.18s-1.89.71-1.89,2.18v.09c0,1.45.79,2.16,1.9,2.16S262,64.64,262,63.25Z"/><path class="cls-11" d="M265.57,66.17a1.64,1.64,0,0,1-1.87-1.69c0-1.34,1.38-1.78,2.83-1.78h.81v-.42c0-1-.39-1.3-1.21-1.3s-1.19.29-1.28,1h-.91c.11-1.35,1.14-1.79,2.23-1.79a1.83,1.83,0,0,1,2.08,2.06v3.08H269v.71h-1.68v-.79A2,2,0,0,1,265.57,66.17Zm1.77-2.11v-.72h-.77c-1.14,0-2,.3-2,1.14a.91.91,0,0,0,1,1C266.6,65.45,267.34,65,267.34,64.06Z"/><path class="cls-11" d="M269.61,66.07v-.71h.81V61.07h-.83v-.75h1.74v1.1a2.07,2.07,0,0,1,2.07-1.2v.9c-1.26,0-2.07.39-2.07,1.8v2.44h.88v.71Z"/><path class="cls-11" d="M279.3,66.17a2.57,2.57,0,0,1-2.59-2.86v-.09a2.73,2.73,0,0,1,2.68-3,2.06,2.06,0,0,1,1.88,1V58.32h-.86v-.75h1.78v7.79h.8v.71h-1.72v-1A2.42,2.42,0,0,1,279.3,66.17Zm2-2.94v-.08c0-1.51-.71-2.2-1.83-2.2s-1.83.8-1.83,2.23v.09c0,1.47.78,2.18,1.75,2.18S281.31,64.73,281.31,63.23Z"/><path class="cls-11" d="M283.6,63.26v-.09a2.71,2.71,0,0,1,2.7-3,2.52,2.52,0,0,1,2.59,2.86v.3h-4.34c0,1.31.67,2,1.85,2,.89,0,1.41-.33,1.53-1h.91a2.21,2.21,0,0,1-2.45,1.76A2.7,2.7,0,0,1,283.6,63.26Zm4.35-.62c-.09-1.19-.7-1.66-1.65-1.66a1.73,1.73,0,0,0-1.72,1.66Zm-1.39-4.93h1.15l-1.15,1.62h-.68Z"/><path class="cls-11" d="M289.59,68.08v-.72h.8V61.07h-.82v-.75h1.73v1a2.34,2.34,0,0,1,1.95-1.11,2.62,2.62,0,0,1,2.62,2.89v.09c0,1.76-1,3-2.62,3a2.17,2.17,0,0,1-1.95-1.07v2.26h.91v.72Zm5.33-4.83v-.09c0-1.45-.8-2.18-1.77-2.18s-1.88.71-1.88,2.18v.09c0,1.45.78,2.16,1.89,2.16S294.92,64.64,294.92,63.25Z"/><path class="cls-11" d="M298.53,66.17a1.65,1.65,0,0,1-1.87-1.69c0-1.34,1.39-1.78,2.84-1.78h.8v-.42c0-1-.38-1.3-1.21-1.3s-1.18.29-1.27,1h-.92c.11-1.35,1.15-1.79,2.24-1.79a1.83,1.83,0,0,1,2.08,2.06v3.08H302v.71H300.3v-.79A1.93,1.93,0,0,1,298.53,66.17Zm1.77-2.11v-.72h-.77c-1.13,0-2,.3-2,1.14a.92.92,0,0,0,1.05,1C299.57,65.45,300.3,65,300.3,64.06Z"/><path class="cls-11" d="M302.58,66.07v-.71h.8V61.07h-.82v-.75h1.74v1.1a2.06,2.06,0,0,1,2.06-1.2v.9c-1.25,0-2.06.39-2.06,1.8v2.44h.88v.71Z"/><path class="cls-11" d="M307.85,64.63V61.09H307v-.77h.83V59h.91v1.31h1.49v.77h-1.49v3.45a.73.73,0,0,0,.83.84,2.27,2.27,0,0,0,.74-.13V66a2.82,2.82,0,0,1-.82.13C308.35,66.15,307.85,65.53,307.85,64.63Z"/><path class="cls-11" d="M311,63.26v-.09a2.71,2.71,0,0,1,2.7-3,2.52,2.52,0,0,1,2.59,2.86v.3h-4.34c0,1.31.67,2,1.85,2,.89,0,1.41-.33,1.53-1h.91a2.21,2.21,0,0,1-2.45,1.76A2.7,2.7,0,0,1,311,63.26Zm4.35-.62c-.09-1.19-.7-1.66-1.65-1.66A1.73,1.73,0,0,0,312,62.64Z"/><path class="cls-11" d="M317,66.07v-.71h.81V61.07H317v-.75h1.74v1a1.8,1.8,0,0,1,1.68-1.05,1.65,1.65,0,0,1,1.69,1.17,2.07,2.07,0,0,1,1.9-1.17c1,0,1.9.62,1.9,2.29v2.85h.81v.71h-2.55v-.71H325V62.44c0-1-.4-1.43-1.19-1.43a1.44,1.44,0,0,0-1.48,1.54v2.81h.82v.71H320.6v-.71h.82V62.44c0-1-.39-1.43-1.18-1.43a1.45,1.45,0,0,0-1.49,1.54v2.81h.82v.71Z"/><path class="cls-11" d="M327.33,63.26v-.09a2.71,2.71,0,0,1,2.69-3c1.34,0,2.59.8,2.59,2.86v.3h-4.33c0,1.31.67,2,1.84,2,.89,0,1.41-.33,1.53-1h.92a2.22,2.22,0,0,1-2.46,1.76A2.7,2.7,0,0,1,327.33,63.26Zm4.35-.62C331.59,61.45,331,61,330,61a1.72,1.72,0,0,0-1.71,1.66Z"/><path class="cls-11" d="M333.37,66.07v-.71h.8V61.07h-.82v-.75h1.73v1a2,2,0,0,1,1.81-1.07c1.15,0,2,.62,2,2.28v2.86h.8v.71h-2.54v-.71H338V62.43c0-1-.44-1.42-1.33-1.42a1.49,1.49,0,0,0-1.57,1.55v2.8h.83v.71Z"/><path class="cls-11" d="M340.84,64.63V61.09H340v-.77h.83V59h.91v1.31h1.49v.77h-1.49v3.45a.73.73,0,0,0,.83.84,2.27,2.27,0,0,0,.74-.13V66a2.82,2.82,0,0,1-.82.13C341.34,66.15,340.84,65.53,340.84,64.63Z"/><path class="cls-11" d="M345.73,62.6A7.68,7.68,0,0,0,344,57.54h.91a7.92,7.92,0,0,1,0,10.13H344A7.73,7.73,0,0,0,345.73,62.6Z"/><line class="cls-1" x1="362.5" y1="48.12" x2="578.98" y2="48.12"/><line class="cls-12" x1="329.72" y1="289.78" x2="578.98" y2="289.78"/></g></svg>