<?xml version="1.0" encoding="utf-8"?>
<!-- Generator: Adobe Illustrator 24.1.2, SVG Export Plug-In . SVG Version: 6.00 Build 0)  -->
<svg version="1.1" id="Calque_1" xmlns="http://www.w3.org/2000/svg" xmlns:xlink="http://www.w3.org/1999/xlink" x="0px" y="0px"
	 viewBox="0 0 600 502.3" style="enable-background:new 0 0 600 502.3;" xml:space="preserve">
<style type="text/css">
	.st0{fill:#FFFFFF;}
	.st1{fill:none;stroke:#000000;stroke-miterlimit:10;}
	.st2{fill:none;stroke:#E3234A;stroke-miterlimit:10;}
	.st3{fill:#E3234A;}
	.st4{fill:none;stroke:#C6C6C6;stroke-width:0.5;stroke-miterlimit:10;}
	.st5{fill:none;stroke:#000000;stroke-width:2;stroke-miterlimit:10;}
</style>
<g id="FOND">
	<rect id="Fond_blanc" y="-97.7" class="st0" width="600" height="600"/>
</g>
<g id="CHARTE">
	<line class="st1" x1="118.3" y1="74.7" x2="142.1" y2="74.7"/>
	<polygon points="138.8,78.8 138.1,78.1 141.7,74.7 138.1,71.4 138.8,70.7 143.2,74.7 	"/>
	<line class="st2" x1="118.3" y1="188.1" x2="142.1" y2="188.1"/>
	<polygon class="st3" points="138.8,192.2 138.1,191.5 141.7,188.1 138.1,184.8 138.8,184 143.2,188.1 	"/>
	<path d="M64.7,75h1v-6.4h-1v-0.8h3.1c2-0.2,3.8,1.2,4,3.2c0,0.2,0,0.4,0,0.7v0.1c0.2,2-1.3,3.7-3.3,3.9c-0.2,0-0.4,0-0.7,0h-3
		L64.7,75z M67.7,75c1.5,0.1,2.9-1,3-2.6c0-0.2,0-0.4,0-0.6v-0.1c0.2-1.5-0.9-2.9-2.4-3.1c-0.2,0-0.4,0-0.6,0h-1.1V75H67.7z"/>
	<path d="M72.6,72.9L72.6,72.9c-0.2-1.6,0.9-2.9,2.4-3.1c0.1,0,0.2,0,0.3,0c1.4-0.1,2.6,1,2.6,2.4c0,0.1,0,0.3,0,0.4V73h-4.3
		c0,1.3,0.7,2,1.8,2c0.9,0,1.4-0.3,1.5-1h0.9c-0.2,1.1-1.3,1.9-2.4,1.8c-1.5,0-2.7-1.1-2.8-2.6C72.6,73.1,72.6,73,72.6,72.9z
		 M76.9,72.3c-0.1-1.2-0.7-1.7-1.7-1.7c-0.9,0-1.7,0.7-1.7,1.7H76.9z M75.5,67.4h1.1L75.5,69h-0.7L75.5,67.4z"/>
	<path d="M78.6,77.8V77h0.8v-6.3h-0.8V70h1.7v1c0.4-0.7,1.2-1.1,2-1.1c1.4,0,2.6,1.2,2.6,2.6c0,0.1,0,0.2,0,0.3v0.1c0,1.8-1,3-2.6,3
		c-0.8,0.1-1.6-0.4-2-1.1v2.2h0.9v0.7L78.6,77.8z M83.9,72.9L83.9,72.9c0-1.5-0.8-2.3-1.8-2.3s-1.9,0.7-1.9,2.2v0.1
		c0,1.4,0.8,2.2,1.9,2.2S83.9,74.3,83.9,72.9z"/>
	<path d="M85.7,72.9L85.7,72.9c-0.2-1.6,0.9-2.9,2.4-3.1c0.1,0,0.2,0,0.3,0c1.3,0,2.6,0.8,2.6,2.9V73h-4.3c0,1.3,0.7,2,1.8,2
		c0.9,0,1.4-0.3,1.5-1h0.9c-0.2,1.1-1.3,1.9-2.5,1.8c-1.5,0-2.7-1.1-2.8-2.6C85.7,73.1,85.7,73,85.7,72.9z M90,72.3
		c-0.1-1.2-0.7-1.7-1.7-1.7c-0.9,0-1.7,0.7-1.7,1.7H90z"/>
	<path d="M91.7,75.7V75h0.8v-4.3h-0.8V70h1.7v1c0.4-0.7,1.1-1.1,1.8-1.1c1.2,0,2,0.6,2,2.3v2.9H98v0.7h-2.5v-0.7h0.8v-2.9
		c0-1-0.4-1.4-1.3-1.4c-0.8,0-1.5,0.6-1.6,1.4c0,0,0,0.1,0,0.1v2.8h0.8v0.7L91.7,75.7z"/>
	<path d="M99.5,75v0.7h-0.8v-1.9h0.7c0.1,0.8,0.8,1.3,1.5,1.3c0.8,0,1.2-0.3,1.2-1s-0.5-0.8-1.3-1c-1.5-0.3-2-0.8-2-1.8
		c0-0.9,0.8-1.6,1.7-1.5c0,0,0.1,0,0.1,0c0.6-0.1,1.1,0.2,1.4,0.7v-0.6h0.8v1.7h-0.8c-0.1-0.6-0.7-1.1-1.4-1c-0.7,0-1.1,0.2-1.1,0.8
		s0.3,0.8,1.3,1s2,0.5,2,1.7c0,1-0.7,1.7-2.1,1.7C100.4,75.9,99.8,75.6,99.5,75z"/>
	<path d="M103.9,72.9L103.9,72.9c-0.2-1.6,0.9-2.9,2.4-3.1c0.1,0,0.2,0,0.3,0c1.4-0.1,2.6,1,2.6,2.4c0,0.1,0,0.3,0,0.4V73h-4.3
		c0,1.3,0.7,2,1.8,2c0.9,0,1.4-0.3,1.5-1h0.9c-0.2,1.1-1.3,1.9-2.4,1.8c-1.5,0-2.7-1.1-2.8-2.6C103.9,73.1,103.9,73,103.9,72.9z
		 M108.2,72.3c-0.1-1.2-0.7-1.7-1.7-1.7c-0.9,0-1.7,0.7-1.7,1.7H108.2z"/>
	<path d="M110.8,75v0.7H110v-1.9h0.8c0.1,0.8,0.8,1.3,1.5,1.3c0.8,0,1.2-0.3,1.2-1s-0.5-0.8-1.4-1c-1.5-0.3-2-0.8-2-1.8
		c0-0.9,0.8-1.6,1.7-1.5c0,0,0.1,0,0.1,0c0.6-0.1,1.2,0.2,1.4,0.7v-0.6h0.8v1.7h-0.8c-0.1-0.6-0.7-1.1-1.4-1c-0.7,0-1,0.2-1,0.8
		s0.3,0.8,1.3,1s2,0.5,2,1.7c0,1-0.7,1.7-2.1,1.7C111.7,75.9,111.1,75.6,110.8,75z"/>
	<path d="M49.1,83.9L49.1,83.9c-0.2-1.6,0.9-2.9,2.4-3.1c0.1,0,0.2,0,0.3,0c1.3,0,2.6,0.8,2.6,2.9V84H50c0,1.3,0.7,2,1.8,2
		c0.9,0,1.4-0.3,1.5-1h0.9c-0.2,1.1-1.3,1.9-2.5,1.8c-1.5,0-2.7-1.2-2.8-2.6C49.1,84.1,49.1,84,49.1,83.9z M53.4,83.3
		c-0.1-1.2-0.7-1.7-1.7-1.7c-0.9,0-1.7,0.7-1.7,1.7H53.4z"/>
	<path d="M55.1,86.7V86h0.8v-4.3h-0.8V81h1.7v1c0.4-0.7,1-1.1,1.8-1.1c1.2,0,2,0.6,2,2.3v2.9h0.8v0.7h-2.5v-0.7h0.8v-2.9
		c0-1-0.4-1.4-1.3-1.4c-0.8,0-1.5,0.6-1.6,1.4c0,0,0,0.1,0,0.1v2.8h0.8v0.7L55.1,86.7z"/>
	<path d="M64.5,86.7V86h0.8v-4.3h-0.8V81h1.7v1c0.3-0.7,1-1.1,1.7-1.1c0.8-0.1,1.5,0.4,1.7,1.2c0.4-0.7,1.1-1.2,1.9-1.2
		c1,0,1.9,0.6,1.9,2.3v2.9h0.8v0.7h-2.5v-0.7h0.8v-2.9c0-1-0.4-1.4-1.2-1.4c-0.8,0-1.5,0.6-1.5,1.4c0,0,0,0.1,0,0.1v2.8h0.8v0.7
		h-2.6v-0.7h0.8v-2.9c0-1-0.4-1.4-1.2-1.4c-0.8,0-1.5,0.6-1.5,1.4c0,0,0,0.1,0,0.1v2.8h0.8v0.7L64.5,86.7z"/>
	<path d="M76.8,86.8c-1.1,0-1.9-0.5-1.9-1.7c0-1.3,1.4-1.8,2.8-1.8h0.8V83c0-1-0.4-1.3-1.2-1.3s-1.2,0.3-1.3,1h-0.9
		c0.1-1.4,1.1-1.8,2.2-1.8c1-0.1,1.9,0.5,2.1,1.5c0,0.2,0,0.3,0,0.5V86h0.8v0.7h-1.7v-0.8C78.2,86.5,77.5,86.9,76.8,86.8z
		 M78.5,84.7V84h-0.8c-1.1,0-2,0.3-2,1.1c-0.1,0.5,0.3,0.9,0.8,1c0.1,0,0.1,0,0.2,0C77.8,86.1,78.5,85.6,78.5,84.7z"/>
	<path d="M80.8,86.7V86h0.8v-4.3h-0.8V81h1.7v1.1c0.4-0.8,1.2-1.3,2.1-1.2v0.9c-1.2,0-2.1,0.4-2.1,1.8V86h0.9v0.7L80.8,86.7z"/>
	<path d="M86,86v0.7h-0.8v-1.9H86c0.1,0.8,0.8,1.3,1.5,1.3c0.8,0,1.2-0.3,1.2-1s-0.5-0.8-1.4-1c-1.5-0.3-2-0.8-2-1.8
		c0-0.9,0.8-1.6,1.7-1.5c0,0,0.1,0,0.1,0c0.6-0.1,1.1,0.2,1.4,0.7v-0.6h0.8v1.7h-0.8c-0.1-0.6-0.7-1.1-1.4-1c-0.7,0-1.1,0.2-1.1,0.8
		s0.3,0.8,1.3,1s2,0.5,2,1.7c0,1-0.7,1.7-2.1,1.7C86.9,86.9,86.3,86.6,86,86z"/>
	<path d="M97.3,84.7h0.9v2h-5.4v-0.4l3-3.1c0.7-0.6,1.1-1.4,1.2-2.2c0.1-0.7-0.4-1.3-1.2-1.4c-0.1,0-0.2,0-0.2,0
		c-0.9,0-1.5,0.5-1.7,1.8H93c0-1.4,1-2.5,2.4-2.5c0,0,0.1,0,0.1,0c1.2-0.1,2.2,0.7,2.4,1.9c0,0.1,0,0.2,0,0.3
		c-0.1,1.1-0.7,2.2-1.6,2.9L94.2,86h3.1L97.3,84.7z"/>
	<path d="M99.2,83v-0.4c0-2.3,1.2-3.8,3.1-3.8s3.1,1.6,3.1,3.8V83c0,2.3-1.1,3.8-3,3.8S99.2,85.3,99.2,83z M104.4,83v-0.4
		c0-1.8-0.8-3-2.1-3s-2.1,1.1-2.1,3V83c0,2,0.8,3,2.2,3S104.4,85,104.4,83L104.4,83z"/>
	<path d="M106.5,86.7V86h1.6v-6.2l-1.8,1.3v-0.9l1.8-1.3h0.9V86h1.5v0.7H106.5z"/>
	<path d="M111.2,84.8h0.9c0.1,0.8,0.8,1.3,1.6,1.2c0,0,0,0,0,0c1.3,0,2-1,2-3.1c-0.5,0.7-1.2,1-2,1c-1.4,0.1-2.5-1-2.6-2.4
		c0-0.1,0-0.1,0-0.2c-0.1-1.4,1-2.6,2.4-2.6c0.1,0,0.2,0,0.4,0c1.9,0,2.8,1.2,2.8,3.5v0.5c0,2.6-1.1,4-3,4
		C112.5,86.9,111.4,86,111.2,84.8z M115.7,81.5c0.1-1-0.6-1.9-1.5-2c-0.1,0-0.2,0-0.3,0c-1,0-1.9,0.8-1.9,1.8c0,1,0.8,1.9,1.8,1.9
		C114.8,83.2,115.6,82.5,115.7,81.5z"/>
	<path class="st3" d="M64.7,187.4h1V181h-1v-0.7h3.1c2-0.2,3.8,1.2,4,3.2c0,0.2,0,0.4,0,0.7v0.1c0.2,2-1.3,3.7-3.3,3.9
		c-0.2,0-0.4,0-0.7,0h-3L64.7,187.4z M67.7,187.4c1.5,0.1,2.9-1,3-2.6c0-0.2,0-0.4,0-0.6v-0.1c0.2-1.5-0.9-2.9-2.4-3.1
		c-0.2,0-0.4,0-0.6,0h-1.1v6.3H67.7z"/>
	<path class="st3" d="M72.6,185.3L72.6,185.3c-0.1-1.6,1-2.9,2.5-3c0.1,0,0.1,0,0.2,0c1.4-0.1,2.6,1,2.6,2.4c0,0.1,0,0.3,0,0.4v0.3
		h-4.3c0,1.3,0.7,2,1.8,2c0.9,0,1.4-0.3,1.5-1h0.9c-0.2,1.1-1.3,1.9-2.4,1.8c-1.5,0-2.7-1.1-2.8-2.6
		C72.6,185.5,72.6,185.4,72.6,185.3z M76.9,184.6c-0.1-1.2-0.7-1.7-1.7-1.7c-0.9,0-1.7,0.7-1.7,1.7H76.9z M75.5,179.7h1.1l-1.1,1.6
		h-0.7L75.5,179.7z"/>
	<path class="st3" d="M78.6,190.1v-0.7h0.8v-6.3h-0.8v-0.8h1.7v1c0.4-0.7,1.2-1.1,2-1.1c1.4,0,2.6,1.2,2.6,2.6c0,0.1,0,0.2,0,0.3
		v0.1c0,1.8-1,3-2.6,3c-0.8,0.1-1.6-0.4-2-1.1v2.3h0.9v0.7L78.6,190.1z M83.9,185.3L83.9,185.3c0-1.5-0.8-2.3-1.8-2.3
		s-1.9,0.7-1.9,2.2v0.1c0,1.5,0.8,2.2,1.9,2.2S83.9,186.7,83.9,185.3z"/>
	<path class="st3" d="M85.7,185.3L85.7,185.3c-0.1-1.6,1-2.9,2.5-3c0.1,0,0.1,0,0.2,0c1.3,0,2.6,0.8,2.6,2.9v0.3h-4.3
		c0,1.3,0.7,2,1.8,2c0.9,0,1.4-0.3,1.5-1h0.9c-0.2,1.1-1.3,1.9-2.5,1.8c-1.5,0-2.7-1.1-2.8-2.6C85.7,185.5,85.7,185.4,85.7,185.3z
		 M90,184.6c-0.1-1.2-0.7-1.7-1.7-1.7c-0.9,0-1.7,0.7-1.7,1.7H90z"/>
	<path class="st3" d="M91.7,188.1v-0.7h0.8v-4.3h-0.8v-0.8h1.7v1c0.3-0.7,1-1.1,1.8-1.1c1.2,0,2,0.6,2,2.3v2.9H98v0.7h-2.5v-0.7h0.8
		v-2.9c0-1-0.4-1.4-1.3-1.4c-0.8,0-1.5,0.6-1.6,1.4c0,0,0,0.1,0,0.1v2.8h0.8v0.7L91.7,188.1z"/>
	<path class="st3" d="M99.5,187.4v0.7h-0.8v-1.9h0.7c0.1,0.8,0.8,1.3,1.5,1.3c0.8,0,1.2-0.3,1.2-1s-0.5-0.8-1.3-1
		c-1.5-0.3-2-0.8-2-1.8c0-0.9,0.8-1.6,1.7-1.5c0,0,0.1,0,0.1,0c0.6-0.1,1.1,0.2,1.4,0.7v-0.6h0.8v1.7h-0.8c-0.1-0.6-0.7-1.1-1.4-1
		c-0.7,0-1.1,0.2-1.1,0.8s0.3,0.8,1.3,1s2,0.5,2,1.7c0,1-0.7,1.7-2.1,1.7C100.4,188.2,99.8,187.9,99.5,187.4z"/>
	<path class="st3" d="M103.9,185.3L103.9,185.3c-0.1-1.6,1-2.9,2.5-3c0.1,0,0.2,0,0.2,0c1.4-0.1,2.6,1,2.6,2.4c0,0.1,0,0.3,0,0.4
		v0.3h-4.3c0,1.3,0.7,2,1.8,2c0.9,0,1.4-0.3,1.5-1h0.9c-0.2,1.1-1.3,1.9-2.4,1.8c-1.5,0-2.7-1.1-2.8-2.6
		C103.9,185.4,103.9,185.4,103.9,185.3z M108.2,184.6c-0.1-1.2-0.7-1.7-1.7-1.7c-0.9,0-1.7,0.7-1.7,1.7H108.2z"/>
	<path class="st3" d="M110.8,187.4v0.7H110v-1.9h0.8c0.1,0.8,0.8,1.3,1.5,1.3c0.8,0,1.2-0.3,1.2-1s-0.5-0.8-1.4-1
		c-1.5-0.3-2-0.8-2-1.8c0-0.9,0.8-1.6,1.7-1.5c0,0,0.1,0,0.1,0c0.6-0.1,1.2,0.2,1.4,0.7v-0.6h0.8v1.7h-0.8c-0.1-0.6-0.7-1.1-1.4-1
		c-0.7,0-1,0.2-1,0.8s0.3,0.8,1.3,1s2,0.5,2,1.7c0,1-0.7,1.7-2.1,1.7C111.7,188.3,111.1,188,110.8,187.4z"/>
	<path class="st3" d="M47.3,196.3L47.3,196.3c-0.1-1.6,1-2.9,2.5-3c0.1,0,0.2,0,0.2,0c1.4-0.1,2.6,1,2.6,2.4c0,0.1,0,0.3,0,0.4v0.3
		h-4.4c0,1.3,0.7,2,1.8,2c0.9,0,1.4-0.3,1.5-1h0.9c-0.2,1.1-1.3,1.9-2.5,1.8c-1.5,0-2.7-1.1-2.8-2.6
		C47.3,196.5,47.3,196.4,47.3,196.3z M51.6,195.6c-0.1-1.2-0.7-1.7-1.7-1.7c-0.9,0-1.7,0.7-1.7,1.7H51.6z"/>
	<path class="st3" d="M53.3,199.1v-0.7h0.8v-4.3h-0.8v-0.8H55v1c0.3-0.7,1.1-1.1,1.8-1.1c1.2,0,2,0.6,2,2.3v2.9h0.8v0.7h-2.5v-0.7
		h0.8v-2.9c0-1-0.4-1.4-1.3-1.4c-0.8-0.1-1.5,0.6-1.6,1.4c0,0.1,0,0.1,0,0.2v2.8h0.8v0.7L53.3,199.1z"/>
	<path class="st3" d="M62.7,199.1v-0.7h0.8v-4.3h-0.8v-0.8h1.7v1c0.3-0.7,1-1.1,1.7-1.1c0.8-0.1,1.5,0.4,1.7,1.2
		c0.4-0.7,1.1-1.2,1.9-1.2c1,0,1.9,0.6,1.9,2.3v2.9h0.8v0.7h-2.5v-0.7h0.8v-2.9c0-1-0.4-1.4-1.2-1.4c-0.8,0-1.5,0.6-1.5,1.4
		c0,0,0,0.1,0,0.1v2.8h0.8v0.7h-2.6v-0.7h0.8v-2.9c0-1-0.4-1.4-1.2-1.4c-0.8,0-1.5,0.6-1.5,1.4c0,0,0,0.1,0,0.1v2.8h0.8v0.7H62.7z"
		/>
	<path class="st3" d="M74.9,199.2c-0.9,0.1-1.7-0.5-1.9-1.4c0-0.1,0-0.2,0-0.3c0-1.3,1.4-1.8,2.8-1.8h0.8v-0.4c0-1-0.4-1.3-1.2-1.3
		s-1.2,0.3-1.3,1h-0.9c0.1-1.4,1.2-1.8,2.2-1.8c1-0.1,1.9,0.5,2.1,1.5c0,0.2,0,0.3,0,0.5v3.1h0.8v0.7h-1.7v-0.8
		C76.3,198.9,75.6,199.3,74.9,199.2z M76.7,197.1v-0.7h-0.8c-1.1,0-2,0.3-2,1.1c-0.1,0.5,0.3,0.9,0.8,1c0.1,0,0.1,0,0.2,0
		C76,198.5,76.7,198,76.7,197.1L76.7,197.1z"/>
	<path class="st3" d="M79,199.1v-0.7h0.8v-4.3H79v-0.8h1.7v1.1c0.4-0.8,1.2-1.3,2.1-1.2v0.9c-1.3,0-2.1,0.4-2.1,1.8v2.4h0.9v0.7
		L79,199.1z"/>
	<path class="st3" d="M84.2,198.4v0.7h-0.8v-1.9h0.8c0.1,0.8,0.8,1.3,1.5,1.3c0.8,0,1.2-0.3,1.2-1s-0.5-0.8-1.3-1
		c-1.5-0.3-2-0.8-2-1.8c0.1-0.9,0.9-1.6,1.8-1.5c0,0,0,0,0,0c0.6-0.1,1.1,0.2,1.4,0.7v-0.6h0.8v1.7h-0.8c-0.1-0.6-0.7-1.1-1.4-1
		c-0.7,0-1.1,0.2-1.1,0.8s0.3,0.8,1.3,1s2,0.5,2,1.7c0,1-0.7,1.7-2.1,1.7C85,199.3,84.5,199,84.2,198.4z"/>
	<path class="st3" d="M95.4,197.1h0.9v2H91v-0.4l3-3.1c0.7-0.6,1.1-1.4,1.1-2.3c0.1-0.7-0.4-1.3-1.2-1.4c-0.1,0-0.2,0-0.2,0
		c-0.9,0-1.5,0.5-1.7,1.8h-0.9c0-1.4,1-2.5,2.4-2.5c0,0,0.1,0,0.1,0c1.2-0.1,2.2,0.7,2.4,1.9c0,0.1,0,0.2,0,0.3
		c-0.1,1.1-0.7,2.2-1.6,2.9l-2.2,2.1h3.1V197.1z"/>
	<path class="st3" d="M97.3,195.4V195c0-2.3,1.2-3.8,3.1-3.8s3.1,1.5,3.1,3.8v0.4c0,2.3-1.1,3.8-3.1,3.8S97.3,197.7,97.3,195.4z
		 M102.5,195.4V195c0-1.8-0.8-3-2.1-3s-2.1,1.1-2.1,3v0.4c0,2,0.8,3,2.1,3S102.5,197.4,102.5,195.4L102.5,195.4z"/>
	<path class="st3" d="M108.7,197.1h0.9v2h-5.4v-0.4l3-3.1c0.7-0.6,1.1-1.4,1.1-2.3c0.1-0.7-0.4-1.3-1.2-1.4c-0.1,0-0.2,0-0.2,0
		c-0.9,0-1.5,0.5-1.7,1.8h-0.9c0-1.4,1-2.5,2.4-2.5c0,0,0.1,0,0.1,0c1.2-0.1,2.2,0.7,2.4,1.9c0,0.1,0,0.2,0,0.3
		c-0.1,1.1-0.7,2.2-1.6,2.9l-2.2,2.1h3.1L108.7,197.1z"/>
	<path class="st3" d="M110.5,195.4V195c0-2.3,1.2-3.8,3.1-3.8s3.1,1.5,3.1,3.8v0.4c0,2.3-1.1,3.8-3,3.8S110.5,197.7,110.5,195.4z
		 M115.7,195.4V195c0-1.8-0.8-3-2.1-3s-2.1,1.1-2.1,3v0.4c0,2,0.8,3,2.1,3S115.7,197.4,115.7,195.4L115.7,195.4z"/>
</g>
<g id="EXPRESSION_LIBRE">
	<line class="st4" x1="395.6" y1="471.7" x2="535.7" y2="471.7"/>
	<line class="st4" x1="395.6" y1="389.6" x2="535.7" y2="389.6"/>
	<line class="st4" x1="395.6" y1="307.4" x2="535.7" y2="307.4"/>
	<line class="st4" x1="395.2" y1="220.8" x2="535.7" y2="220.8"/>
	<line class="st4" x1="395.2" y1="138.6" x2="535.7" y2="138.6"/>
	<line class="st4" x1="395.2" y1="56.4" x2="535.7" y2="56.4"/>
	<line class="st4" x1="130.6" y1="471.7" x2="270.7" y2="471.7"/>
	<line class="st4" x1="130.6" y1="389.6" x2="270.7" y2="389.6"/>
	<line class="st4" x1="130.6" y1="307.4" x2="270.7" y2="307.4"/>
	<line class="st4" x1="130.2" y1="220.8" x2="270.7" y2="220.8"/>
	<line class="st4" x1="130.2" y1="138.6" x2="270.7" y2="138.6"/>
	<line class="st4" x1="130.2" y1="56.4" x2="270.7" y2="56.4"/>
	<line class="st5" x1="130.2" y1="471.1" x2="270.7" y2="471.1"/>
	<rect x="145.4" y="347.6" class="st3" width="56.4" height="124.4"/>
	<path d="M199.8,309.7v160.4h-52.4V309.7H199.8 M201.8,307.7h-56.4v164.4h56.4V307.7z"/>
	<path d="M111.3,260.7h1.2v-8h-1.2v-1.9h9.2v3.3h-2.1v-1.4h-3.3v2.9h3.9v2h-3.9v3.1h3.5v-1.5h2.2v3.4h-9.5V260.7z M116.2,247.6h2.6
		l-1.7,2.3h-1.8L116.2,247.6z"/>
	<path d="M126.9,262.6h-4.8v-1.9h1.2v-8h-1.2v-1.9h4.2l4.7,8v-6.1h-1.2v-1.9h4.8v1.9h-1.2v10h-2.7l-5-8.5v6.6h1.2L126.9,262.6z"/>
	<path d="M135.5,260.7h1.1v-8h-1.1v-1.9h9.2v3.3h-2.1v-1.4h-3.3v2.9h3.9v2h-3.9v3.1h3.5v-1.5h2.2v3.4h-9.6L135.5,260.7z"/>
	<path d="M146.3,262.6v-1.9h1.2v-8h-1.2v-1.9h5.5c2.8,0,4.5,1.1,4.5,3.5v0.1c0,1.5-1,2.8-2.4,3.1l2.2,3.2h1v1.9h-2.7l-3-4.7h-1.2
		v2.8h1.2v1.9L146.3,262.6z M151.7,256.1c1.4,0,2-0.6,2-1.8v-0.1c0-1.1-0.7-1.6-2-1.6h-1.5v3.5L151.7,256.1z"/>
	<path d="M167,261c-0.7,1.3-2.2,2-3.6,1.8c-3.6,0-5.7-2.5-5.7-6v-0.1c0-3.5,2.3-6.1,5.7-6.1c1.8,0,2.9,0.6,3.4,1.6v-1.4h2.2v4h-2.5
		c-0.2-1.3-1.4-2.1-2.7-2c-2.1,0-3.3,1.5-3.3,4v0.1c0,2.3,1,3.9,3.3,3.9c1.4,0.2,2.7-0.8,2.9-2.2c0-0.1,0-0.2,0-0.3H164v-2h5.3v6.4
		H167V261z"/>
	<path d="M170.9,262.6v-1.9h1.2v-8h-1.2v-1.9h5.1v1.9h-1.2v8h1.2v1.9H170.9z"/>
	<path d="M177.1,260.7h1.1v-8h-1.1v-1.9h9.2v3.3h-2.1v-1.4h-3.3v2.9h4v2h-4v3.1h3.5v-1.5h2.2v3.4h-9.6V260.7z"/>
	<path d="M191.9,256.5c0-0.8,0.6-1.5,1.5-1.5c0.8,0,1.5,0.6,1.5,1.5c0,0.8-0.6,1.5-1.5,1.5c0,0,0,0,0,0
		C192.5,258,191.9,257.3,191.9,256.5C191.9,256.5,191.9,256.5,191.9,256.5z M191.9,261.3c0-0.8,0.6-1.5,1.5-1.5
		c0.8,0,1.5,0.6,1.5,1.5c0,0.8-0.6,1.5-1.5,1.5c0,0,0,0,0,0C192.5,262.8,191.9,262.1,191.9,261.3
		C191.9,261.3,191.9,261.3,191.9,261.3L191.9,261.3z"/>
	<path d="M111.3,279.3v-2h1.2v-8h-1.2v-1.9h5.4c2.8,0,4.5,1.3,4.5,3.8v0.1c0,2.4-1.8,3.6-4.4,3.6h-1.6v2.5h1.3v2H111.3z M116.6,273
		c1.2,0,2-0.6,2-1.8v-0.1c0-1.2-0.7-1.7-2-1.7h-1.4v3.5L116.6,273z"/>
	<path d="M122.1,279.3v-2h1.2v-8h-1.2v-1.9h5.5c2.8,0,4.5,1.1,4.5,3.5v0.1c0,1.5-1,2.8-2.4,3.1l2.2,3.2h1v2h-2.7l-3-4.7H126v2.7h1.2
		v2H122.1z M127.5,272.8c1.3,0,2-0.6,2-1.8v-0.1c0-1.1-0.7-1.6-2-1.6H126v3.5H127.5z"/>
	<path d="M133.5,273.4v-0.1c-0.1-3.2,2.5-5.9,5.7-6c0.1,0,0.3,0,0.4,0c3.2-0.2,5.9,2.2,6.1,5.4c0,0.2,0,0.4,0,0.6l0,0
		c0,3.4-2.7,6.1-6.1,6.1C136.3,279.4,133.5,276.7,133.5,273.4L133.5,273.4L133.5,273.4z M142.9,273.4v-0.1c0-2.3-1.2-3.9-3.3-3.9
		s-3.3,1.5-3.3,3.9v0.1c0,2.4,1.4,3.9,3.3,3.9S142.9,275.7,142.9,273.4L142.9,273.4z"/>
	<path d="M146.8,277.3h1.2v-8h-1.2v-1.9h5.1c4.2,0,6.2,2.3,6.2,5.8v0.1c0,3.5-2.1,5.9-6.2,5.9h-5.1L146.8,277.3z M151.8,277.1
		c2.4,0,3.5-1.3,3.5-3.8v-0.1c0-2.4-1.1-3.8-3.6-3.8h-1.1v7.7H151.8z"/>
	<path d="M165,279.4c-3.1,0-4.9-1.7-4.9-4.8v-5.3H159v-1.9h5v1.9h-1.2v5.1c0,2,0.6,2.8,2.2,2.8s2.3-0.8,2.3-2.9v-5h-1.2v-1.9h5v1.9
		H170v5.2C170,277.7,168.2,279.4,165,279.4z"/>
	<path d="M172.1,279.3v-2h1.2v-8h-1.2v-1.9h5.1v1.9h-1.2v8h1.2v2H172.1z"/>
	<path d="M181.2,279.3v-2h1.3v-8h-2.1v1.7h-2v-3.7h10.9v3.7h-2.1v-1.7h-2.1v8h1.3v2H181.2z"/>
	<path d="M192.5,278.1v1.2h-2.1v-3.7h2.2c0.2,1.2,1.3,2.1,2.5,2c1.1,0,1.9-0.6,1.9-1.5s-0.5-1.5-2.1-1.7c-2.9-0.4-4.3-1.6-4.3-3.7
		s1.5-3.4,3.7-3.4c1.1-0.1,2.1,0.3,2.7,1.2v-1h2v3.4h-2.2c-0.2-1-1.1-1.7-2.1-1.7c-1.1,0-1.7,0.5-1.7,1.3s0.5,1.3,2.2,1.6
		c2.7,0.4,4.3,1.3,4.3,3.8c0,2.1-1.5,3.6-4.2,3.6C194.2,279.5,193.1,279,192.5,278.1z"/>
	<path d="M204.2,279.3v-2h1.2v-8h-1.2v-1.9h5.5c2.8,0,4.5,1.1,4.5,3.5v0.1c0,1.5-1,2.8-2.4,3.1l2.2,3.2h1v2h-2.7l-3-4.7h-1.2v2.7
		h1.2v2H204.2z M209.6,272.8c1.3,0,2-0.6,2-1.8v-0.1c0-1.1-0.8-1.6-2-1.6h-1.5v3.5H209.6z"/>
	<path d="M215.8,279.3v-2h1l3.3-10h3.4l3.3,10h1v2h-4.9v-2h1.1l-0.5-1.5h-4l-0.5,1.5h1.1v2H215.8z M221.5,269.4L220,274h2.9
		L221.5,269.4z"/>
	<path d="M228.6,279.3v-2h1.1v-8h-1.1v-1.9h9.2v3.3h-2.1v-1.4h-3.3v3.1h3.8v2h-3.8v2.9h1.4v2H228.6z"/>
	<path d="M239.1,279.3v-2h1.1v-8h-1.1v-1.9h9.2v3.3h-2.1v-1.4H243v3.1h3.8v2H243v2.9h1.4v2H239.1z"/>
	<path d="M249.6,279.3v-2h1.2v-8h-1.2v-1.9h5.1v1.9h-1.2v8h1.2v2H249.6z"/>
	<path d="M260.6,279.3h-4.8v-2h1.2v-8h-1.2v-1.9h4.2l4.6,8v-6.1h-1.2v-1.9h4.8v1.9H267v10h-2.7l-5-8.5v6.5h1.2L260.6,279.3z"/>
	<path d="M269.2,277.3h1.1v-8h-1.1v-1.9h9.2v3.3h-2.1v-1.3H273v2.9h4v2h-4v3.1h3.5v-1.5h2.2v3.5h-9.5L269.2,277.3z M274.1,264.3h2.6
		l-1.7,2.3h-1.8L274.1,264.3z"/>
	<path d="M282.1,278.1v1.2h-2.1v-3.7h2.2c0.2,1.2,1.3,2.1,2.5,2c1.1,0,1.9-0.6,1.9-1.5s-0.5-1.5-2.1-1.7c-2.9-0.4-4.3-1.6-4.3-3.7
		s1.5-3.4,3.7-3.4c1.1-0.1,2.1,0.3,2.7,1.2v-1h2v3.4h-2.2c-0.2-1-1.1-1.7-2.1-1.7c-1.1,0-1.7,0.5-1.7,1.3s0.5,1.3,2.2,1.6
		c2.7,0.4,4.3,1.3,4.3,3.8c0,2.1-1.5,3.6-4.2,3.6C283.9,279.5,282.8,279,282.1,278.1z"/>
	<line class="st5" x1="130.2" y1="220.2" x2="270.7" y2="220.2"/>
	<path d="M120.9,221.8v-0.5c0-2.3,1.2-3.8,3.1-3.8s3.1,1.6,3.1,3.8v0.4c0,2.3-1.1,3.8-3,3.8S120.9,224,120.9,221.8z M126.1,221.8
		v-0.5c0-1.8-0.8-3-2.1-3s-2.1,1.1-2.1,3v0.4c0,2,0.8,3,2.2,3S126.1,223.7,126.1,221.8L126.1,221.8z"/>
	<path d="M114.6,141.1h0.9c0,0.8,0.7,1.5,1.5,1.5c0.1,0,0.1,0,0.2,0c0.9,0,1.7-0.7,1.7-1.6c0-0.1,0-0.2,0-0.3
		c0.1-0.9-0.5-1.7-1.4-1.8c-0.1,0-0.1,0-0.2,0c-0.7-0.1-1.4,0.2-1.8,0.8h-0.4v-4.3h4.4v1.6h-0.9v-0.8h-2.7v2.5
		c0.4-0.4,1-0.6,1.6-0.5c1.3,0,2.4,1,2.4,2.3c0,0.1,0,0.2,0,0.3c0.1,1.4-1.1,2.6-2.5,2.7c-0.1,0-0.2,0-0.2,0c-1.3,0.2-2.4-0.7-2.6-2
		C114.6,141.3,114.6,141.2,114.6,141.1z"/>
	<path d="M120.9,139.6v-0.4c0-2.3,1.2-3.8,3.1-3.8s3.1,1.5,3.1,3.8v0.4c0,2.3-1.1,3.8-3,3.8S120.9,141.9,120.9,139.6z M126.1,139.6
		v-0.4c0-1.8-0.8-3-2.1-3s-2.1,1.1-2.1,3v0.4c0,2,0.8,3,2.2,3S126.1,141.5,126.1,139.6L126.1,139.6z"/>
	<path d="M108.9,61.1v-0.8h1.6v-6.2l-1.8,1.3v-0.9l1.8-1.3h0.9v7.1h1.6v0.8H108.9z"/>
	<path d="M113.7,57.4v-0.4c0-2.3,1.2-3.8,3.1-3.8s3.1,1.6,3.1,3.8v0.4c0,2.3-1.1,3.8-3,3.8S113.7,59.7,113.7,57.4z M118.9,57.4v-0.4
		c0-1.8-0.8-3-2.1-3s-2.1,1.1-2.1,3v0.4c0,2,0.8,3,2.2,3S118.9,59.3,118.9,57.4L118.9,57.4z"/>
	<path d="M120.9,57.4v-0.4c0-2.3,1.2-3.8,3.1-3.8s3.1,1.6,3.1,3.8v0.4c0,2.3-1.1,3.8-3,3.8S120.9,59.7,120.9,57.4z M126.1,57.4v-0.4
		c0-1.8-0.8-3-2.1-3s-2.1,1.1-2.1,3v0.4c0,2,0.8,3,2.2,3S126.1,59.3,126.1,57.4L126.1,57.4z"/>
	<rect x="145.4" y="155.7" class="st3" width="56.4" height="64.9"/>
	<path d="M199.8,58.8v160.4h-52.4V58.8H199.8 M201.8,56.8h-56.4v164.4h56.4V56.8z"/>
	<path d="M111.3,32.9V31h1.2v-8h-1.2v-1.9h5.2V23h-1.4v3h4.7v-3h-1.3v-1.9h5.2V23h-1.2v8h1.2v1.9h-5.2V31h1.3v-3h-4.7v3h1.3v1.9
		H111.3z"/>
	<path d="M124.8,32.9V31h1L129,21h3.4l3.2,9.9h1v1.9h-4.8V31h1.1l-0.5-1.5h-4l-0.5,1.5h1.1v1.9H124.8z M130.5,23l-1.5,4.7h2.9
		L130.5,23z"/>
	<path d="M137.6,31h1.2v-8h-1.2v-1.9h5.9c2.6,0,4,1.1,4,3.1v0.1c0.1,1.2-0.8,2.3-1.9,2.5c1.4,0.1,2.5,1.4,2.4,2.8c0,0,0,0,0,0v0.1
		c0,2.2-1.4,3.3-4.2,3.3h-6.1L137.6,31z M143,25.9c1.3,0,1.8-0.4,1.8-1.5v-0.1c0-1-0.6-1.4-1.8-1.4h-1.6v3L143,25.9z M143.3,31
		c1.3,0,1.9-0.6,1.9-1.7l0,0c0-1.1-0.6-1.6-2.1-1.6h-1.7V31L143.3,31z"/>
	<path d="M149,32.9V31h1.2v-8H149v-1.9h5.1V23h-1.2v8h1.2v1.9H149z"/>
	<path d="M155.2,31h1.2v-8h-1.2v-1.9h5.2V23h-1.3v8h3.2v-1.9h2.2V33h-9.4L155.2,31z"/>
	<path d="M165.6,31h1.2v-8h-1.2v-1.9h5.2V23h-1.3v8h3.2v-1.9h2.2V33h-9.4L165.6,31z"/>
	<path d="M176.1,31h1.1v-8h-1.1v-1.9h9.2v3.3h-2.1V23h-3.3v2.9h4v2h-4V31h3.5v-1.5h2.2v3.4h-9.5L176.1,31z"/>
	<path d="M191.6,32.9h-4.7V31h1.2v-8h-1.2v-1.9h4.9l2.6,7.3l2.6-7.3h4.8V23h-1.2v8h1.2v1.9h-5V31h1.3v-7l-3.3,8.9h-0.9l-3.4-8.9v7
		h1.2L191.6,32.9z"/>
	<path d="M202.8,31h1.2v-8h-1.2v-1.9h9.2v3.3h-2.1V23h-3.3v2.9h3.9v2h-3.9V31h3.5v-1.5h2.2v3.4h-9.5V31z"/>
	<path d="M218.4,32.9h-4.8V31h1.2v-8h-1.2v-1.9h4.2l4.6,8V23h-1.2V21h4.8V23h-1.2v9.9h-2.7l-5-8.5V31h1.2L218.4,32.9z"/>
	<path d="M229.8,32.9V31h1.3v-8h-2.1v1.8h-2V21H238v3.7h-2.1V23h-2v8h1.3v1.9H229.8z"/>
	<line class="st5" x1="394.7" y1="220.2" x2="535.1" y2="220.2"/>
	<rect x="409.9" y="108.7" class="st3" width="56.4" height="112.4"/>
	<path d="M464.3,58.8v160.4h-52.4V58.8H464.3 M466.3,56.8h-56.4v164.4h56.4V56.8z"/>
	<path d="M379.6,13h1.1V5h-1.1V3.1h9.2v3.3h-2.1V5h-3.3v2.9h4v2h-4V13h3.5v-1.5h2.2v3.4h-9.5L379.6,13z M384.5,0h2.6l-1.7,2.3h-1.8
		L384.5,0z"/>
	<path d="M399.6,14.2c-0.9,0.6-2.1,0.9-3.2,0.9c-3.2,0.2-5.9-2.3-6.1-5.5c0-0.2,0-0.4,0-0.5V9c-0.1-3.2,2.5-5.9,5.7-6
		c0.1,0,0.3,0,0.4,0c3.2-0.2,5.9,2.2,6.1,5.4c0,0.2,0,0.4,0,0.6v0.1c0,1.4-0.5,2.8-1.4,3.9l0,0l0.1,0.1h1.9V15h-2.7L399.6,14.2z
		 M398.1,12.6l-1.5-1.5l1.5-1.4l1.3,1.4c0.3-0.7,0.4-1.4,0.4-2.1V8.9c0-2.3-1.2-3.9-3.3-3.9s-3.3,1.5-3.3,3.9v0.1
		c0,2.4,1.4,3.9,3.3,3.9C397,13,397.6,12.9,398.1,12.6z"/>
	<path d="M409.5,15.1c-3.1,0-4.9-1.7-4.9-4.8V5h-1.1V3h5V5h-1.2v5.2c0,2,0.6,2.8,2.2,2.8s2.3-0.8,2.3-2.9V5h-1.2V3h5V5h-1.1v5.2
		C414.5,13.4,412.7,15.1,409.5,15.1z"/>
	<path d="M416.7,14.9V13h1.2V5h-1.2V3.1h5.1V5h-1.2v8h1.2v1.9H416.7z"/>
	<path d="M422.9,14.9V13h1.2V5h-1.2V3.1h5.4c2.8,0,4.5,1.3,4.5,3.8v0.1c0,2.4-1.7,3.6-4.4,3.6h-1.6V13h1.4v1.9L422.9,14.9z
		 M428.2,8.6c1.2,0,1.9-0.6,1.9-1.8V6.8c0-1.2-0.7-1.7-1.9-1.7h-1.4v3.6H428.2z"/>
	<path d="M433.7,13h1.1V5h-1.1V3.1h9.2v3.3h-2.1V5h-3.3v2.9h4v2h-4V13h3.5v-1.5h2.2v3.4h-9.5V13z"/>
	<path d="M449.2,14.9h-4.7V13h1.2V5h-1.2V3.1h4.9l2.6,7.3l2.6-7.3h4.8V5h-1.2v8h1.2v1.9h-5V13h1.2V6l-3.3,8.9h-0.9L447.9,6v7h1.2
		L449.2,14.9z"/>
	<path d="M460.4,13h1.1V5h-1.1V3.1h9.2v3.3h-2.1V5h-3.3v2.9h4v2h-4V13h3.5v-1.5h2.2v3.4h-9.5V13z"/>
	<path d="M476,14.9h-4.8V13h1.2V5h-1.2V3.1h4.2l4.6,8V5h-1.2V3.1h4.8V5h-1.2v9.9h-2.7l-5-8.5V13h1.3V14.9z"/>
	<path d="M487.4,14.9V13h1.3V5h-2.1v1.8h-2V3h10.9v3.7h-2.1V5h-2v8h1.3v1.9H487.4z"/>
	<path d="M379.6,29.6h1.2v-8h-1.2v-1.9h5.1c4.2,0,6.2,2.3,6.2,5.8v0.1c0,3.6-2.1,5.9-6.2,5.9h-5.1V29.6z M384.6,29.4
		c2.4,0,3.5-1.3,3.5-3.8v-0.1c0-2.4-1.1-3.8-3.5-3.8h-1.1v7.7L384.6,29.4z"/>
	<path d="M397.9,31.7c-3.1,0-4.9-1.7-4.9-4.8v-5.3h-1.1v-1.9h5v1.9h-1.2v5.2c0,2,0.6,2.8,2.2,2.8s2.3-0.8,2.3-2.9v-5H399v-1.9h5v1.9
		h-1.1v5.2C402.9,30,401,31.7,397.9,31.7z"/>
	<path d="M408.5,29.6h1.2v-8h-1.2v-1.9h5.2v1.9h-1.4v8h3.3v-1.9h2.2v3.9h-9.4L408.5,29.6z"/>
	<path d="M418.9,25.7v-0.1c-0.1-3.2,2.5-5.9,5.7-6c0.1,0,0.3,0,0.4,0c3.2-0.2,5.9,2.3,6.1,5.4c0,0.2,0,0.4,0,0.6v0.1
		c0,3.4-2.7,6.1-6.1,6.1C421.7,31.8,419,29.1,418.9,25.7L418.9,25.7z M428.4,25.7v-0.1c0-2.3-1.2-3.9-3.3-3.9s-3.3,1.5-3.3,3.9v0.1
		c0,2.4,1.4,3.9,3.3,3.9S428.4,28,428.4,25.7L428.4,25.7z"/>
	<path d="M441.8,29.9c-0.7,1.3-2.2,2-3.6,1.8c-3.6,0-5.7-2.5-5.7-6v-0.1c0-3.5,2.3-6.1,5.7-6.1c1.8,0,2.9,0.6,3.5,1.6v-1.4h2.1v4
		h-2.5c-0.2-1.3-1.4-2.1-2.7-2c-2.1,0-3.3,1.5-3.3,4v0.1c0,2.3,1,3.9,3.3,3.9c1.4,0.2,2.7-0.8,2.9-2.2c0-0.1,0-0.2,0-0.3h-2.7v-2
		h5.2v6.4h-2.2L441.8,29.9z"/>
	<path d="M445.6,29.6h1.1v-8h-1.1v-1.9h9.2v3.3h-2.1v-1.3h-3.3v2.9h4v2h-4v3.1h3.5v-1.5h2.2v3.4h-9.5V29.6z"/>
	<path d="M461.1,31.5h-4.7v-1.9h1.2v-8h-1.2v-1.9h4.9l2.6,7.3l2.6-7.3h4.7v1.9H470v8h1.2v1.9h-5v-1.9h1.2v-7l-3.3,8.9h-0.9l-3.4-8.9
		v7h1.2L461.1,31.5z"/>
	<path d="M472.3,29.6h1.1v-8h-1.1v-1.9h9.2v3.3h-2.1v-1.3h-3.3v2.9h4v2h-4v3.1h3.5v-1.5h2.2v3.4h-9.5V29.6z"/>
	<path d="M487.9,31.5h-4.8v-1.9h1.2v-8h-1.2v-1.9h4.2l4.6,8v-6.1h-1.2v-1.9h4.8v1.9h-1.2v9.9h-2.7l-5-8.5v6.6h1.2L487.9,31.5z"/>
	<path d="M499.3,31.5v-1.9h1.3v-8h-2.1v1.7h-2v-3.7h10.9v3.7h-2.1v-1.7h-2v8h1.3v1.9H499.3z"/>
	<line class="st5" x1="394.7" y1="471.1" x2="535.1" y2="471.1"/>
	<path d="M120.9,472.3v-0.4c0-2.3,1.2-3.8,3.1-3.8s3.1,1.5,3.1,3.8v0.5c0,2.3-1.1,3.8-3,3.8S120.9,474.5,120.9,472.3z M126.1,472.3
		v-0.4c0-1.8-0.8-3-2.1-3s-2.1,1.1-2.1,3v0.4c0,2,0.8,3,2.2,3S126.1,474.2,126.1,472.3L126.1,472.3z"/>
	<path d="M114.6,391.6h0.9c0,0.8,0.7,1.5,1.5,1.5c0.1,0,0.1,0,0.2,0c0.9,0,1.7-0.7,1.7-1.6c0-0.1,0-0.2,0-0.3
		c0.1-0.9-0.5-1.7-1.4-1.8c-0.1,0-0.1,0-0.2,0c-0.7-0.1-1.4,0.2-1.8,0.8h-0.4v-4.3h4.4v1.6h-0.9v-0.8h-2.7v2.5
		c0.4-0.4,1-0.6,1.6-0.5c1.3,0,2.4,1,2.4,2.3c0,0.1,0,0.2,0,0.3c0.1,1.4-1.1,2.6-2.5,2.7c-0.1,0-0.2,0-0.2,0c-1.3,0.2-2.4-0.7-2.6-2
		C114.6,391.8,114.6,391.7,114.6,391.6z"/>
	<path d="M120.9,390v-0.4c0-2.3,1.2-3.8,3.1-3.8s3.1,1.5,3.1,3.8v0.4c0,2.3-1.1,3.8-3,3.8S120.9,392.3,120.9,390z M126.1,390v-0.4
		c0-1.8-0.8-3-2.1-3s-2.1,1.1-2.1,3v0.4c0,2,0.8,3,2.2,3S126.1,392,126.1,390L126.1,390z"/>
	<path d="M108.9,311.6v-0.8h1.6v-6.2l-1.8,1.3V305l1.8-1.3h0.9v7.1h1.6v0.8L108.9,311.6z"/>
	<path d="M113.7,307.9v-0.4c0-2.3,1.2-3.8,3.1-3.8s3.1,1.5,3.1,3.8v0.4c0,2.3-1.1,3.8-3,3.8S113.7,310.1,113.7,307.9z M118.9,307.9
		v-0.4c0-1.8-0.8-3-2.1-3s-2.1,1.1-2.1,3v0.4c0,2,0.8,3,2.2,3S118.9,309.8,118.9,307.9L118.9,307.9z"/>
	<path d="M120.9,307.9v-0.4c0-2.3,1.2-3.8,3.1-3.8s3.1,1.5,3.1,3.8v0.4c0,2.3-1.1,3.8-3,3.8S120.9,310.1,120.9,307.9z M126.1,307.9
		v-0.4c0-1.8-0.8-3-2.1-3s-2.1,1.1-2.1,3v0.4c0,2,0.8,3,2.2,3S126.1,309.8,126.1,307.9L126.1,307.9z"/>
	<path d="M385.9,221.8v-0.5c0-2.3,1.2-3.8,3.1-3.8s3.1,1.6,3.1,3.8v0.4c0,2.3-1.1,3.8-3,3.8S385.9,224,385.9,221.8z M391.1,221.8
		v-0.5c0-1.8-0.8-3-2.1-3s-2.1,1.1-2.1,3v0.4c0,2,0.8,3,2.1,3S391.1,223.7,391.1,221.8L391.1,221.8z"/>
	<path d="M379.6,141.1h0.9c0,0.8,0.7,1.5,1.5,1.5c0.1,0,0.1,0,0.2,0c0.9,0,1.7-0.7,1.7-1.6c0-0.1,0-0.2,0-0.3
		c0.1-0.9-0.5-1.7-1.4-1.8c-0.1,0-0.1,0-0.2,0c-0.7-0.1-1.4,0.2-1.9,0.8h-0.4v-4.3h4.4v1.6h-0.9v-0.8h-2.7v2.5
		c1.1-0.9,2.7-0.7,3.5,0.4c0.4,0.5,0.5,1,0.5,1.6c0.1,1.4-1.1,2.6-2.5,2.7c-0.1,0-0.2,0-0.2,0c-1.3,0.2-2.4-0.7-2.6-2
		C379.6,141.3,379.6,141.2,379.6,141.1z"/>
	<path d="M385.9,139.6v-0.4c0-2.3,1.2-3.8,3.1-3.8s3.1,1.5,3.1,3.8v0.4c0,2.3-1.1,3.8-3,3.8S385.9,141.9,385.9,139.6z M391.1,139.6
		v-0.4c0-1.8-0.8-3-2.1-3s-2.1,1.1-2.1,3v0.4c0,2,0.8,3,2.1,3S391.1,141.5,391.1,139.6L391.1,139.6z"/>
	<path d="M373.9,61.1v-0.8h1.6v-6.2l-1.8,1.3v-0.9l1.8-1.3h0.9v7.1h1.6v0.8H373.9z"/>
	<path d="M378.7,57.4v-0.4c0-2.3,1.2-3.8,3.1-3.8s3.1,1.6,3.1,3.8v0.4c0,2.3-1.1,3.8-3,3.8S378.7,59.7,378.7,57.4z M383.9,57.4v-0.4
		c0-1.8-0.8-3-2.1-3s-2.1,1.1-2.1,3v0.4c0,2,0.8,3,2.1,3S383.9,59.3,383.9,57.4L383.9,57.4z"/>
	<path d="M385.9,57.4v-0.4c0-2.3,1.2-3.8,3.1-3.8s3.1,1.6,3.1,3.8v0.4c0,2.3-1.1,3.8-3,3.8S385.9,59.7,385.9,57.4z M391.1,57.4v-0.4
		c0-1.8-0.8-3-2.1-3s-2.1,1.1-2.1,3v0.4c0,2,0.8,3,2.1,3S391.1,59.3,391.1,57.4L391.1,57.4z"/>
	<path d="M385.9,472.3v-0.4c0-2.3,1.2-3.8,3.1-3.8s3.1,1.5,3.1,3.8v0.5c0,2.3-1.1,3.8-3,3.8S385.9,474.5,385.9,472.3z M391.1,472.3
		v-0.4c0-1.8-0.8-3-2.1-3s-2.1,1.1-2.1,3v0.4c0,2,0.8,3,2.1,3S391.1,474.2,391.1,472.3L391.1,472.3z"/>
	<path d="M379.6,391.6h0.9c0,0.8,0.7,1.5,1.5,1.5c0.1,0,0.1,0,0.2,0c0.9,0,1.7-0.7,1.7-1.6c0-0.1,0-0.2,0-0.3
		c0.1-0.9-0.5-1.7-1.4-1.8c-0.1,0-0.1,0-0.2,0c-0.7-0.1-1.4,0.2-1.9,0.8h-0.4v-4.3h4.4v1.6h-0.9v-0.8h-2.7v2.5
		c0.4-0.4,1-0.6,1.6-0.5c1.3,0,2.4,1,2.4,2.3c0,0.1,0,0.2,0,0.3c0.1,1.4-1.1,2.6-2.5,2.7c-0.1,0-0.2,0-0.2,0c-1.3,0.2-2.4-0.7-2.6-2
		C379.6,391.8,379.6,391.7,379.6,391.6z"/>
	<path d="M385.9,390v-0.4c0-2.3,1.2-3.8,3.1-3.8s3.1,1.5,3.1,3.8v0.4c0,2.3-1.1,3.8-3,3.8S385.9,392.3,385.9,390z M391.1,390v-0.4
		c0-1.8-0.8-3-2.1-3s-2.1,1.1-2.1,3v0.4c0,2,0.8,3,2.1,3S391.1,392,391.1,390L391.1,390z"/>
	<path d="M373.9,311.6v-0.8h1.6v-6.2l-1.8,1.3V305l1.8-1.3h0.9v7.1h1.6v0.8L373.9,311.6z"/>
	<path d="M378.7,307.9v-0.4c0-2.3,1.2-3.8,3.1-3.8s3.1,1.5,3.1,3.8v0.4c0,2.3-1.1,3.8-3,3.8S378.7,310.1,378.7,307.9z M383.9,307.9
		v-0.4c0-1.8-0.8-3-2.1-3s-2.1,1.1-2.1,3v0.4c0,2,0.8,3,2.1,3S383.9,309.8,383.9,307.9L383.9,307.9z"/>
	<path d="M385.9,307.9v-0.4c0-2.3,1.2-3.8,3.1-3.8s3.1,1.5,3.1,3.8v0.4c0,2.3-1.1,3.8-3,3.8S385.9,310.1,385.9,307.9z M391.1,307.9
		v-0.4c0-1.8-0.8-3-2.1-3s-2.1,1.1-2.1,3v0.4c0,2,0.8,3,2.1,3S391.1,309.8,391.1,307.9L391.1,307.9z"/>
	<rect x="409.9" y="291.6" class="st3" width="56.4" height="180.5"/>
	<path d="M464.3,309.7v160.4h-52.4V309.7H464.3 M466.3,307.7h-56.4v164.4h56.4V307.7z"/>
	<path d="M379.5,262.6v-1.9h1l3.3-9.9h3.4l3.2,9.9h1v1.9h-4.8v-1.9h1.1l-0.5-1.5h-4l-0.5,1.5h1.1v1.9H379.5z M385.2,252.7l-1.5,4.7
		h2.9L385.2,252.7z"/>
	<path d="M392.3,260.7h1.2v-8h-1.2v-1.9h5.2v1.9h-1.3v8h3.2v-1.9h2.2v3.9h-9.4V260.7z"/>
	<path d="M402.8,262.6v-1.9h1.2v-8h-1.2v-1.9h5.1v1.9h-1.2v8h1.2v1.9H402.8z"/>
	<path d="M413.7,262.6H409v-1.9h1.2v-8H409v-1.9h4.9l2.6,7.3l2.6-7.3h4.8v1.9h-1.2v8h1.2v1.9h-5v-1.9h1.2v-7l-3.3,8.9h-0.9l-3.4-8.9
		v7h1.2L413.7,262.6z"/>
	<path d="M424.9,260.7h1.1v-8h-1.1v-1.9h9.2v3.3H432v-1.4h-3.3v2.9h4v2h-4v3.1h3.5v-1.5h2.2v3.4h-9.5L424.9,260.7z"/>
	<path d="M440.5,262.6h-4.8v-1.9h1.2v-8h-1.2v-1.9h4.2l4.6,8v-6.1h-1.2v-1.9h4.8v1.9h-1.2v10h-2.7l-5-8.5v6.6h1.2L440.5,262.6z"/>
	<path d="M452,262.6v-1.9h1.3v-8h-2.1v1.7h-2v-3.7h10.9v3.7H458v-1.7h-2v8h1.3v1.9H452z"/>
	<path d="M459.7,262.6v-1.9h1l3.3-9.9h3.4l3.2,9.9h1v1.9h-4.8v-1.9h1.1l-0.5-1.5h-4l-0.5,1.5h1.1v1.9H459.7z M465.4,252.7l-1.5,4.7
		h2.9L465.4,252.7z"/>
	<path d="M472.5,262.6v-1.9h1.2v-8h-1.2v-1.9h5.1v1.9h-1.2v8h1.2v1.9H472.5z"/>
	<path d="M478.7,262.6v-1.9h1.2v-8h-1.2v-1.9h5.5c2.8,0,4.5,1.1,4.5,3.5v0.1c0,1.5-1,2.8-2.4,3.1l2.2,3.2h1v1.9h-2.7l-3-4.7h-1.2
		v2.8h1.2v1.9L478.7,262.6z M484.1,256.1c1.3,0,2-0.6,2-1.8v-0.1c0-1.1-0.8-1.6-2-1.6h-1.5v3.5L484.1,256.1z"/>
	<path d="M490.5,260.7h1.1v-8h-1.1v-1.9h9.2v3.3h-2.1v-1.4h-3.3v2.9h4v2h-4v3.1h3.5v-1.5h2.2v3.4h-9.5V260.7z"/>
	<path d="M379.6,279.3v-2h1.2v-8h-1.2v-1.9h5.2v1.9h-1.3v3h4.7v-3h-1.3v-1.9h5.2v1.9h-1.2v8h1.2v2h-5.2v-2h1.3v-3h-4.7v3h1.3v2
		H379.6z"/>
	<path d="M393.2,273.4v-0.1c-0.1-3.2,2.5-5.9,5.7-6c0.1,0,0.3,0,0.4,0c3.2-0.2,5.9,2.2,6.1,5.4c0,0.2,0,0.4,0,0.6l0,0
		c-0.1,3.4-2.9,6-6.3,5.9C395.9,279,393.3,276.5,393.2,273.4L393.2,273.4z M402.6,273.4v-0.1c0-2.3-1.2-3.9-3.3-3.9
		s-3.3,1.5-3.3,3.9v0.1c0,2.4,1.4,3.9,3.3,3.9S402.6,275.7,402.6,273.4L402.6,273.4z"/>
	<path d="M406.4,279.3v-2h1.2v-8h-1.2v-1.9h5.6c2.8,0,4.5,1.1,4.5,3.5v0.1c0,1.5-1,2.8-2.4,3.1l2.2,3.2h1v2h-2.7l-3-4.7h-1.2v2.7
		h1.2v2H406.4z M411.8,272.8c1.4,0,2-0.6,2-1.8v-0.1c0-1.1-0.8-1.6-2-1.6h-1.5v3.5H411.8z"/>
	<path d="M420.3,278.1v1.2h-2.1v-3.7h2.2c0.2,1.2,1.3,2.1,2.5,2c1.1,0,1.9-0.6,1.9-1.5s-0.5-1.5-2.1-1.7c-2.9-0.4-4.3-1.6-4.3-3.7
		s1.5-3.4,3.7-3.4c1.1-0.1,2.1,0.3,2.7,1.2v-1h2v3.4h-2.2c-0.2-1-1.1-1.7-2.1-1.7c-1.1,0-1.7,0.5-1.7,1.3s0.5,1.3,2.2,1.6
		c2.7,0.4,4.3,1.3,4.3,3.8c0,2.1-1.5,3.6-4.2,3.6C422.1,279.5,421,279,420.3,278.1z"/>
	<path d="M434.9,279.3v-2h1.3v-8h-2.1v1.7h-2v-3.7H443v3.7h-2v-1.7h-2v8h1.3v2H434.9z"/>
	<path d="M442.6,279.3v-2h1l3.3-10h3.4l3.2,10h1v2h-4.9v-2h1.1l-0.5-1.5h-4l-0.5,1.5h1.1v2H442.6z M448.3,269.4l-1.5,4.7h2.9
		L448.3,269.4z"/>
	<path d="M455.5,277.3h1.2v-8h-1.2v-1.9h5.9c2.6,0,4,1.1,4,3.1v0.1c0.1,1.2-0.8,2.3-2,2.5c1.4,0.1,2.5,1.4,2.4,2.8c0,0,0,0,0,0v0.1
		c0,2.2-1.4,3.3-4.2,3.3h-6.1L455.5,277.3z M460.9,272.2c1.3,0,1.8-0.5,1.8-1.5v-0.1c0-1-0.6-1.4-1.8-1.4h-1.6v3L460.9,272.2z
		 M461.1,277.3c1.3,0,1.9-0.6,1.9-1.7v0c0-1.1-0.6-1.6-2.1-1.6h-1.7v3.3H461.1z"/>
	<path d="M466.4,279.3v-2h1l3.3-10h3.4l3.3,10h1v2h-4.9v-2h1.1l-0.5-1.5h-4l-0.5,1.5h1.1v2H466.4z M472.1,269.4l-1.5,4.7h2.9
		L472.1,269.4z"/>
	<path d="M484.6,279.4c-3.9,0-6-2.4-6-6v-0.1c0-3.6,2.3-6.1,5.6-6.1c1.8,0,2.9,0.6,3.4,1.6v-1.4h2.1v4.1h-2.5
		c-0.2-1.3-1.3-2.3-2.7-2.2c-1.9,0-3.1,1.5-3.1,4v0.1c0,2.5,1.1,3.9,3.1,3.9c1.4,0.1,2.6-0.9,2.7-2.3c0,0,0,0,0,0h2.6
		C489.6,277.9,487.5,279.4,484.6,279.4z"/>
	<path class="st3" d="M480.2,292.9h-2.7v-1.7h2.7v-2.9h1.8v2.9h2.7v1.6H482v2.9h-1.8L480.2,292.9z"/>
	<path class="st3" d="M486.1,294.3h2.2c0.1,0.8,0.8,1.3,1.6,1.2c0,0,0,0,0,0c1.4,0,2.1-1.1,2.2-3.3c-0.5,0.9-1.5,1.4-2.6,1.3
		c-1.8,0.1-3.4-1.2-3.6-3.1c0-0.1,0-0.3,0-0.4c0-2.2,1.6-3.7,4.1-3.7c3,0,4.4,2,4.4,5.1v0.5c0,3.5-1.6,5.5-4.5,5.5
		C487.7,297.4,486.3,296.3,486.1,294.3z M491.9,290.1c0.1-1-0.6-1.9-1.6-2c-0.1,0-0.2,0-0.2,0c-1.1,0-1.9,0.8-2,1.9
		c0,1.1,0.8,1.9,1.9,2C491,292,491.9,291.2,491.9,290.1z"/>
	<path class="st3" d="M495.4,297.8c0.7-0.1,1.1-0.3,1.1-0.8c-0.8,0-1.2-0.5-1.2-1.1c0-0.7,0.6-1.2,1.2-1.2c0,0,0,0,0,0
		c0.8,0,1.4,0.6,1.4,1.3c0,0.1,0,0.1,0,0.2v0.3c0,1.6-1,2.3-2.6,2.3V297.8z"/>
	<path class="st3" d="M499.1,294.2c0-1.2,0.8-2.3,2-2.7c-0.9-0.3-1.6-1.2-1.5-2.2c0-1.8,1.8-2.9,3.8-2.9s3.8,1.1,3.8,2.9
		c0,1-0.6,1.9-1.6,2.2c1.2,0.3,2,1.4,2,2.6c0,2.1-1.8,3.3-4.2,3.3S499.1,296.3,499.1,294.2z M505.1,294c0-0.9-0.7-1.6-1.5-1.6
		c-0.1,0-0.2,0-0.2,0c-0.9-0.1-1.7,0.6-1.8,1.5c-0.1,0.9,0.6,1.7,1.5,1.8c0.1,0,0.2,0,0.4,0c0.9,0.1,1.7-0.6,1.7-1.5
		C505.1,294.1,505.1,294,505.1,294L505.1,294z M504.9,289.4c0.1-0.8-0.6-1.6-1.4-1.6c-0.8-0.1-1.6,0.6-1.6,1.4
		c-0.1,0.8,0.6,1.6,1.4,1.6c0,0,0.1,0,0.1,0c0.8,0.1,1.4-0.5,1.5-1.3C504.8,289.5,504.9,289.5,504.9,289.4L504.9,289.4z"/>
	<path class="st3" d="M508.4,289c0-1.5,1.2-2.6,2.6-2.6c0,0,0.1,0,0.1,0c1.5,0,2.6,1.3,2.6,2.7c0,1.5-1.3,2.6-2.7,2.6
		C509.5,291.6,508.3,290.5,508.4,289z M516.9,286.5h1.3l-7.1,10.8h-1.4L516.9,286.5z M512.1,289c0-0.8-0.4-1.3-1-1.3s-1,0.5-1,1.3
		s0.4,1.3,1,1.3S512.1,289.8,512.1,289L512.1,289z M514.3,294.8c0-1.5,1.2-2.6,2.6-2.6c0,0,0.1,0,0.1,0c1.4-0.1,2.6,1,2.7,2.5
		c0,0,0,0.1,0,0.1c0,1.4-1.1,2.6-2.5,2.7c-0.1,0-0.1,0-0.2,0c-1.4,0.1-2.6-1-2.7-2.5C514.3,294.9,514.3,294.8,514.3,294.8
		L514.3,294.8z M518,294.8c0-0.8-0.4-1.3-1-1.3s-1,0.5-1,1.3s0.4,1.3,1,1.3S518,295.5,518,294.8L518,294.8z"/>
	<path class="st3" d="M208,157.1h3.8v1.7H208V157.1z"/>
	<path class="st3" d="M213.1,159h2.2c0,0.8,0.7,1.5,1.5,1.5c0.1,0,0.1,0,0.2,0c1.1,0,1.7-0.8,1.7-1.9c0.1-0.9-0.5-1.7-1.4-1.8
		c-0.1,0-0.2,0-0.3,0c-0.8-0.1-1.5,0.3-2.1,0.9h-1.3l0.1-6.1h6.8v2.6h-2v-0.9h-3l-0.1,2.9c0.6-0.7,1.5-1.1,2.4-1
		c1.8-0.1,3.2,1.3,3.3,3.1c0,0.2,0,0.3,0,0.4c0,2.3-1.6,3.8-4.1,3.8C214.4,162.3,213.2,160.9,213.1,159z"/>
	<path class="st3" d="M226.8,162.3c-3.2,0-4.4-2.2-4.4-5.1v-0.3c0-3.6,2-5.7,4.6-5.7c2.1,0,3.5,1,3.7,3h-2.3
		c-0.1-0.7-0.7-1.2-1.4-1.1c0,0,0,0,0,0c-1.3,0-2.2,1.2-2.2,3.4c0.5-0.9,1.5-1.4,2.6-1.3c1.8-0.1,3.4,1.3,3.5,3.1c0,0.1,0,0.2,0,0.3
		C231,160.8,229.4,162.3,226.8,162.3z M228.6,158.7c0-1-0.8-1.8-1.8-1.9c-1,0-1.8,0.8-1.9,1.8c-0.1,1,0.6,1.9,1.6,2
		c0.1,0,0.2,0,0.2,0c1,0,1.8-0.8,1.8-1.7C228.6,158.8,228.6,158.7,228.6,158.7L228.6,158.7z"/>
	<path class="st3" d="M232.1,162.8c0.7-0.1,1.1-0.3,1.1-0.8c-0.8,0-1.2-0.5-1.2-1.2c0-0.7,0.6-1.2,1.2-1.2c0,0,0,0,0.1,0
		c0.7,0,1.4,0.6,1.4,1.3c0,0.1,0,0.1,0,0.2v0.2c0,1.6-1,2.3-2.6,2.3L232.1,162.8z"/>
	<path class="st3" d="M236.3,162.2v-1.7h1.9v-6.6l-2.1,1.4v-2.1l2.4-1.7h2.1v9h1.8v1.7L236.3,162.2z"/>
	<path class="st3" d="M242.9,153.9c0-1.5,1.2-2.6,2.6-2.6c0,0,0.1,0,0.1,0c1.5,0,2.6,1.3,2.5,2.7c0,1.5-1.3,2.6-2.7,2.5
		C244,156.5,242.9,155.4,242.9,153.9z M251.4,151.4h1.4l-7.1,10.7h-1.4L251.4,151.4z M246.6,153.9c0-0.8-0.4-1.3-1-1.3
		s-1.1,0.5-1.1,1.3s0.4,1.3,1.1,1.3S246.6,154.8,246.6,153.9L246.6,153.9z M248.8,159.7c0-1.5,1.2-2.6,2.6-2.6c0,0,0.1,0,0.1,0
		c1.5,0,2.6,1.2,2.6,2.7c0,1.5-1.2,2.6-2.7,2.6C249.9,162.3,248.8,161.1,248.8,159.7z M252.5,159.7c0-0.8-0.4-1.3-1-1.3
		s-1,0.5-1,1.3s0.4,1.3,1,1.3S252.5,160.5,252.5,159.7L252.5,159.7z"/>
	<path class="st3" d="M477.5,107.7h3.8v1.7h-3.8V107.7z"/>
	<path class="st3" d="M482.7,109.4h2.2c0,1,0.8,1.8,1.8,1.8c0.1,0,0.1,0,0.2,0c1.2,0,1.8-0.6,1.8-1.5s-0.6-1.6-1.7-1.6H486v-1.6h0.8
		c1.1,0,1.6-0.5,1.6-1.4s-0.5-1.3-1.5-1.3c-0.9-0.1-1.7,0.6-1.8,1.5c0,0,0,0,0,0.1H483c0.1-2,1.5-3.4,4-3.4s3.7,1.2,3.7,2.9
		c0,1.1-0.7,2.1-1.8,2.3c1.2,0.2,2.1,1.3,2.1,2.5c0,2-1.5,3.3-4.2,3.3S482.8,111.5,482.7,109.4z"/>
	<path class="st3" d="M492.5,112.8V111h1.9v-6.6l-2.1,1.4v-2.1l2.4-1.7h2.1v9h1.8v1.7L492.5,112.8z"/>
	<path class="st3" d="M500.2,113.4c0.7-0.1,1.1-0.3,1.1-0.8c-0.8,0-1.2-0.5-1.2-1.1c0-0.7,0.6-1.2,1.2-1.2c0,0,0,0,0,0
		c0.7,0,1.4,0.6,1.4,1.3c0,0.1,0,0.1,0,0.2v0.3c0,1.6-1,2.3-2.6,2.3L500.2,113.4z"/>
	<path class="st3" d="M507.9,112.9c-3.2,0-4.4-2.2-4.4-5.1v-0.3c0-3.6,2-5.6,4.6-5.6c2.1,0,3.5,1,3.7,3h-2.3
		c-0.1-0.7-0.7-1.2-1.4-1.1c0,0,0,0,0,0c-1.3,0-2.2,1.2-2.2,3.4c0.6-0.9,1.6-1.4,2.6-1.3c1.8-0.1,3.4,1.3,3.5,3.1c0,0.1,0,0.2,0,0.3
		C512.1,111.4,510.5,112.9,507.9,112.9z M509.7,109.3c0.1-1-0.6-1.8-1.6-1.9c-0.1,0-0.1,0-0.2,0c-1,0-1.8,0.7-1.8,1.7
		c0,0,0,0.1,0,0.1c-0.1,1,0.6,1.9,1.6,2c0.1,0,0.2,0,0.3,0c1,0,1.8-0.7,1.8-1.7C509.7,109.4,509.7,109.3,509.7,109.3z"/>
	<path class="st3" d="M513.1,104.6c0-1.5,1.2-2.6,2.6-2.6c0,0,0.1,0,0.1,0c1.5,0,2.6,1.3,2.5,2.7c0,1.5-1.3,2.6-2.7,2.5
		C514.2,107.1,513.1,106,513.1,104.6z M521.6,102h1.4l-7.1,10.7h-1.3L521.6,102z M516.8,104.5c0-0.8-0.4-1.3-1-1.3s-1,0.5-1,1.3
		s0.4,1.3,1,1.3S516.8,105.4,516.8,104.5L516.8,104.5z M519,110.3c0-1.5,1.2-2.6,2.6-2.6c0,0,0.1,0,0.1,0c1.4-0.1,2.6,1,2.7,2.5
		c0,0,0,0.1,0,0.1c0,1.4-1.1,2.7-2.5,2.7c-0.1,0-0.1,0-0.2,0c-1.4,0.1-2.6-1-2.7-2.5C519,110.4,519,110.3,519,110.3z M522.7,110.3
		c0-0.8-0.4-1.3-1-1.3s-1,0.5-1,1.3s0.4,1.3,1,1.3S522.7,111.1,522.7,110.3z"/>
	<path class="st3" d="M213.1,349.5h3.8v1.8h-3.8V349.5z"/>
	<path class="st3" d="M224.2,351.6h1.9v3H218v-1.3l3.8-3.5c1.3-1.2,1.7-1.9,1.7-2.8c0.1-0.7-0.4-1.3-1.1-1.4c-0.1,0-0.2,0-0.2,0
		c-0.9,0-1.5,0.6-1.7,2h-2.2c-0.1-2,1.5-3.8,3.6-3.8c0.1,0,0.3,0,0.4,0c2.4,0,3.7,1.2,3.7,3.1c0,1.5-0.9,2.6-2.2,3.8l-2.6,2.3h3.1
		L224.2,351.6z"/>
	<path class="st3" d="M230.9,354.6v-1.7h1.2v-1.1h-5.1v-1.2l4.5-6.7h3v6.3h1.4v1.6h-1.4v1.1h1.1v1.7L230.9,354.6z M232.2,350.1v-4.6
		l-3,4.6H232.2z"/>
	<path class="st3" d="M237.3,355.3c0.7-0.1,1.1-0.3,1.1-0.8c-0.8,0-1.2-0.5-1.2-1.2c0-0.7,0.6-1.2,1.2-1.2c0,0,0,0,0.1,0
		c0.7,0,1.4,0.5,1.4,1.3c0,0.1,0,0.1,0,0.2v0.2c0,1.6-1,2.3-2.6,2.3L237.3,355.3z"/>
	<path class="st3" d="M240.9,351.3h2.2c0,1,0.8,1.8,1.8,1.8c0.1,0,0.2,0,0.2,0c1.2,0,1.8-0.6,1.8-1.5s-0.6-1.6-1.7-1.6h-0.9v-1.7
		h0.7c1.1,0,1.6-0.5,1.6-1.4c0-0.7-0.5-1.3-1.2-1.4c-0.1,0-0.2,0-0.3,0c-0.9-0.1-1.7,0.6-1.8,1.5c0,0,0,0,0,0.1h-2.1
		c0.1-2,1.5-3.4,4-3.4s3.7,1.2,3.7,2.9c0,1.1-0.7,2.1-1.8,2.3c1.2,0.2,2.1,1.3,2.1,2.5c0,2-1.6,3.3-4.2,3.3S241,353.4,240.9,351.3z"
		/>
	<path class="st3" d="M250.3,346.4c0-1.4,1.2-2.6,2.6-2.6c0,0,0.1,0,0.1,0c1.5,0,2.6,1.3,2.5,2.7c0,1.5-1.3,2.6-2.7,2.5
		C251.4,349,250.3,347.8,250.3,346.4z M258.9,343.9h1.4l-7.1,10.7h-1.4L258.9,343.9z M254,346.4c0-0.8-0.4-1.3-1-1.3
		s-1.1,0.5-1.1,1.3s0.4,1.3,1.1,1.3S254,347.2,254,346.4z M256.2,352.1c0-1.5,1.2-2.6,2.6-2.6c0,0,0.1,0,0.1,0
		c1.5,0,2.6,1.2,2.6,2.7c0,1.5-1.2,2.6-2.7,2.6C257.3,354.7,256.2,353.6,256.2,352.1z M259.9,352.1c0-0.8-0.4-1.3-1-1.3
		s-1,0.5-1,1.3s0.4,1.3,1,1.3S259.9,352.9,259.9,352.1L259.9,352.1z"/>
</g>
</svg>
