<?xml version="1.0" encoding="utf-8"?>
<!-- Generator: Adobe Illustrator 24.0.3, SVG Export Plug-In . SVG Version: 6.00 Build 0)  -->
<svg version="1.1" id="Calque_1" xmlns="http://www.w3.org/2000/svg" xmlns:xlink="http://www.w3.org/1999/xlink" x="0px" y="0px"
	 viewBox="0 0 600 480.2" style="enable-background:new 0 0 600 480.2;" xml:space="preserve">
<style type="text/css">
	.st0{fill:none;stroke:#C6C6C6;stroke-width:0.5;stroke-miterlimit:10;}
	.st1{fill:#E3234A;}
	.st2{fill:none;stroke:#231F20;stroke-width:2;stroke-miterlimit:10;}
	.st3{fill:none;stroke:#231F20;stroke-width:0.5;stroke-miterlimit:10;stroke-dasharray:5,2;}
	.st4{fill:#FFFFFF;}
</style>
<title>LIB-2020-05-07-inscription-pole-emploi</title>
<g id="HABILLAGE">
	<line class="st0" x1="36.8" y1="424.9" x2="589" y2="424.9"/>
	<line class="st0" x1="36.8" y1="378.5" x2="589" y2="378.5"/>
	<line class="st0" x1="36.8" y1="332.1" x2="589" y2="332.1"/>
	<line class="st0" x1="36.8" y1="285.7" x2="589" y2="285.7"/>
	<line class="st0" x1="36.8" y1="239.3" x2="589" y2="239.3"/>
	<line class="st0" x1="36.8" y1="192.9" x2="589" y2="192.9"/>
	<line class="st0" x1="36.8" y1="146.5" x2="589" y2="146.5"/>
	<line class="st0" x1="36.8" y1="100.1" x2="589" y2="100.1"/>
	<line class="st0" x1="36.8" y1="53.6" x2="589" y2="53.6"/>
	<line class="st0" x1="36.8" y1="7.2" x2="589" y2="7.2"/>
	<path d="M9.8,378.5h2.4v0.9H9.8V378.5z"/>
	<path d="M13.2,379.9h0.9c0,0.8,0.7,1.5,1.5,1.5c0.1,0,0.1,0,0.2,0c0.9,0,1.7-0.7,1.7-1.6c0-0.1,0-0.2,0-0.3
		c0.1-0.9-0.5-1.7-1.4-1.8c-0.1,0-0.1,0-0.2,0c-0.7-0.1-1.4,0.2-1.9,0.8h-0.4v-4.3h4.4v1.6h-0.9v-0.8h-2.7v2.5
		c0.4-0.4,1-0.6,1.6-0.5c1.3,0,2.4,1,2.4,2.3c0,0.1,0,0.2,0,0.3c0.1,1.4-1.1,2.6-2.5,2.7c-0.1,0-0.2,0-0.2,0c-1.3,0.2-2.4-0.7-2.6-2
		C13.3,380,13.3,379.9,13.2,379.9z"/>
	<path d="M19.4,376c0-1,0.8-1.9,1.8-1.9c0,0,0,0,0,0c1,0,1.9,0.8,1.9,1.8c0,1-0.8,1.9-1.8,1.9C20.3,377.8,19.4,377,19.4,376
		C19.4,376,19.4,376,19.4,376z M22.2,376c0-0.7-0.4-1.2-1-1.2s-1,0.4-1,1.2s0.4,1.1,1,1.1S22.1,376.7,22.2,376L22.2,376z
		 M25.3,374.2h0.8l-4.8,7.9h-0.8L25.3,374.2z M23.6,380.3c0-1,0.8-1.9,1.8-1.9c0,0,0,0,0,0c1,0,1.9,0.8,1.9,1.8c0,1-0.8,1.9-1.8,1.9
		C24.5,382.1,23.7,381.3,23.6,380.3C23.6,380.3,23.6,380.3,23.6,380.3z M26.4,380.3c0-0.7-0.4-1.2-1-1.2s-1,0.4-1,1.2s0.4,1.1,1,1.1
		S26.4,381,26.4,380.3L26.4,380.3z"/>
	<path d="M12.4,331.9v-0.4c0-2.3,1.2-3.8,3.1-3.8s3.1,1.5,3.1,3.8v0.4c0,2.3-1.1,3.8-3,3.8S12.4,334.2,12.4,331.9z M17.6,331.9v-0.5
		c0-1.8-0.8-3-2.1-3s-2.1,1.1-2.1,3v0.4c0,2,0.8,3,2.1,3S17.6,333.8,17.6,331.9L17.6,331.9z"/>
	<path d="M19.4,329.5c0-1,0.8-1.9,1.8-1.9c0,0,0,0,0,0c1,0,1.9,0.8,1.9,1.8c0,1-0.8,1.9-1.8,1.9C20.3,331.4,19.4,330.6,19.4,329.5
		C19.4,329.6,19.4,329.5,19.4,329.5z M22.2,329.5c0-0.7-0.4-1.1-1-1.1s-1,0.4-1,1.2s0.4,1.1,1,1.1S22.1,330.2,22.2,329.5L22.2,329.5
		z M25.3,327.7h0.8l-4.8,7.9h-0.8L25.3,327.7z M23.6,333.9c0-1,0.8-1.9,1.8-1.9c0,0,0,0,0,0c1,0,1.9,0.8,1.9,1.8
		c0,1-0.8,1.9-1.8,1.9C24.5,335.7,23.7,334.9,23.6,333.9C23.6,333.9,23.6,333.9,23.6,333.9z M26.4,333.9c0-0.7-0.4-1.1-1-1.1
		s-1,0.4-1,1.2s0.4,1.1,1,1.1S26.4,334.6,26.4,333.9L26.4,333.9z"/>
	<path d="M13.2,287.1h0.9c0,0.8,0.7,1.5,1.5,1.5c0.1,0,0.1,0,0.2,0c0.9,0,1.7-0.7,1.7-1.6c0-0.1,0-0.2,0-0.3
		c0.1-0.9-0.5-1.7-1.4-1.8c-0.1,0-0.1,0-0.2,0c-0.7-0.1-1.4,0.2-1.9,0.8h-0.4v-4.3h4.4v1.6h-0.9v-0.8h-2.7v2.5
		c0.5-0.4,1-0.6,1.6-0.5c1.3,0,2.4,1,2.4,2.3c0,0.1,0,0.2,0,0.3c0.1,1.4-1.1,2.6-2.5,2.7c-0.1,0-0.2,0-0.2,0c-1.3,0.2-2.4-0.7-2.6-2
		C13.3,287.2,13.3,287.1,13.2,287.1z"/>
	<path d="M19.4,283.1c0-1,0.8-1.9,1.8-1.9c0,0,0,0,0,0c1,0,1.9,0.8,1.9,1.8c0,1-0.8,1.9-1.8,1.9C20.3,285,19.4,284.2,19.4,283.1
		C19.4,283.1,19.4,283.1,19.4,283.1z M22.2,283.1c0-0.7-0.4-1.1-1-1.1s-1,0.4-1,1.1s0.4,1.1,1,1.1S22.1,283.8,22.2,283.1L22.2,283.1
		z M25.3,281.3h0.8l-4.8,7.9h-0.8L25.3,281.3z M23.6,287.4c0-1,0.8-1.9,1.8-1.9c0,0,0,0,0,0c1,0,1.9,0.8,1.9,1.8
		c0,1-0.8,1.9-1.8,1.9C24.5,289.3,23.7,288.4,23.6,287.4C23.6,287.4,23.6,287.4,23.6,287.4z M26.4,287.4c0-0.7-0.4-1.1-1-1.1
		s-1,0.4-1,1.1s0.4,1.1,1,1.1S26.4,288.2,26.4,287.4z"/>
	<path d="M7.6,242.8V242h1.6v-6.2l-1.8,1.3v-0.9l1.8-1.3h0.9v7.1h1.6v0.7L7.6,242.8z"/>
	<path d="M12.4,239.1v-0.4c0-2.3,1.2-3.8,3.1-3.8s3.1,1.5,3.1,3.8v0.4c0,2.3-1.1,3.8-3,3.8S12.4,241.4,12.4,239.1z M17.6,239.1v-0.4
		c0-1.8-0.8-3-2.1-3s-2.1,1.1-2.1,3v0.4c0,2,0.8,3,2.1,3S17.6,241,17.6,239.1L17.6,239.1z"/>
	<path d="M19.4,236.7c0-1,0.8-1.9,1.8-1.9c0,0,0,0,0,0c1,0,1.9,0.8,1.9,1.8c0,1-0.8,1.9-1.8,1.9S19.4,237.8,19.4,236.7
		C19.4,236.7,19.4,236.7,19.4,236.7z M22.2,236.7c0-0.7-0.4-1.1-1-1.1s-1,0.4-1,1.1s0.4,1.1,1,1.1S22.1,237.4,22.2,236.7L22.2,236.7
		z M25.3,234.9h0.8l-4.8,7.9h-0.8L25.3,234.9z M23.6,241c0-1,0.8-1.9,1.8-1.9c0,0,0,0,0,0c1,0,1.9,0.8,1.9,1.8c0,1-0.8,1.9-1.8,1.9
		S23.7,242.1,23.6,241C23.6,241.1,23.6,241,23.6,241z M26.4,241c0-0.7-0.4-1.1-1-1.1s-1,0.4-1,1.1s0.4,1.1,1,1.1
		S26.4,241.7,26.4,241L26.4,241z"/>
	<path d="M8.6,196.4v-0.8h1.6v-6.2l-1.8,1.3v-0.9l1.8-1.3h0.9v7.1h1.6v0.8H8.6z"/>
	<path d="M13.2,194.2h0.9c0,0.8,0.7,1.5,1.5,1.5c0.1,0,0.1,0,0.2,0c0.9,0,1.7-0.7,1.7-1.6c0-0.1,0-0.2,0-0.3
		c0.1-0.9-0.5-1.7-1.4-1.8c-0.1,0-0.1,0-0.2,0c-0.7-0.1-1.4,0.2-1.9,0.8h-0.4v-4.3h4.4v1.6h-0.9v-0.8h-2.7v2.5
		c0.4-0.4,1-0.6,1.6-0.5c1.3,0,2.4,1,2.4,2.3c0,0.1,0,0.2,0,0.3c0.1,1.4-1.1,2.6-2.5,2.7c-0.1,0-0.1,0-0.2,0c-1.3,0.2-2.4-0.7-2.6-2
		C13.3,194.4,13.3,194.3,13.2,194.2z"/>
	<path d="M19.4,190.3c0-1,0.7-1.9,1.8-1.9c0,0,0,0,0,0c1,0,1.9,0.8,1.9,1.8c0,1-0.8,1.9-1.8,1.9C20.3,192.1,19.4,191.3,19.4,190.3
		C19.4,190.3,19.4,190.3,19.4,190.3L19.4,190.3z M22.2,190.3c0-0.7-0.4-1.1-1-1.1s-1,0.4-1,1.2s0.4,1.1,1,1.1S22.1,191,22.2,190.3
		L22.2,190.3z M25.3,188.5h0.8l-4.8,7.9h-0.8L25.3,188.5z M23.6,194.6c0-1,0.8-1.9,1.8-1.9c0,0,0,0,0,0c1,0,1.9,0.8,1.9,1.8
		c0,1-0.8,1.9-1.8,1.9S23.7,195.7,23.6,194.6C23.6,194.7,23.6,194.7,23.6,194.6z M26.4,194.6c0-0.7-0.4-1.1-1-1.1s-1,0.4-1,1.2
		s0.4,1.1,1,1.1S26.4,195.3,26.4,194.6L26.4,194.6z"/>
	<path d="M10.5,147.9h0.9v2H6v-0.4l3.1-3.1c0.7-0.6,1.1-1.4,1.1-2.3c0.1-0.7-0.4-1.3-1.2-1.4c-0.1,0-0.2,0-0.2,0
		c-0.9,0-1.5,0.5-1.7,1.8H6.2c0-1.4,1-2.5,2.4-2.5c0,0,0.1,0,0.1,0c1.2-0.1,2.2,0.7,2.4,1.9c0,0.1,0,0.2,0,0.3
		c-0.1,1.1-0.7,2.2-1.6,2.9l-2.2,2.1h3.1V147.9z"/>
	<path d="M12.4,146.2v-0.4c0-2.3,1.2-3.8,3.1-3.8s3.1,1.6,3.1,3.8v0.4c0,2.3-1.1,3.8-3,3.8S12.4,148.5,12.4,146.2z M17.6,146.2v-0.4
		c0-1.8-0.8-3-2.1-3s-2.1,1.1-2.1,3v0.4c0,2,0.8,3,2.1,3S17.6,148.2,17.6,146.2L17.6,146.2z"/>
	<path d="M19.4,143.9c0-1,0.8-1.9,1.8-1.9c0,0,0,0,0,0c1,0,1.9,0.8,1.9,1.8c0,1-0.8,1.9-1.8,1.9C20.3,145.8,19.4,145,19.4,143.9
		C19.4,143.9,19.4,143.9,19.4,143.9z M22.2,143.9c0-0.7-0.4-1.1-1-1.1s-1,0.4-1,1.2s0.4,1.1,1,1.1S22.1,144.6,22.2,143.9L22.2,143.9
		z M25.3,142.1h0.8l-4.8,7.9h-0.8L25.3,142.1z M23.6,148.2c0-1,0.8-1.9,1.8-1.9c0,0,0,0,0,0c1,0,1.9,0.8,1.9,1.8
		c0,1-0.8,1.9-1.8,1.9C24.5,150.1,23.7,149.3,23.6,148.2C23.6,148.2,23.6,148.2,23.6,148.2z M26.4,148.2c0-0.7-0.4-1.1-1-1.1
		s-1,0.4-1,1.2s0.4,1.1,1,1.1S26.4,148.9,26.4,148.2L26.4,148.2z"/>
	<path d="M11.4,101.5h0.9v2H6.9v-0.4L10,100c0.7-0.6,1.1-1.4,1.1-2.3c0.1-0.7-0.4-1.3-1.1-1.4c-0.1,0-0.2,0-0.3,0
		c-0.9,0-1.5,0.5-1.6,1.8H7.2c0-1.4,1-2.5,2.4-2.5c0,0,0.1,0,0.1,0c1.2-0.1,2.2,0.7,2.3,1.9c0,0.1,0,0.2,0,0.3
		c-0.1,1.1-0.7,2.2-1.6,2.9l-2.2,2.1h3.1V101.5z"/>
	<path d="M13.2,101.4h0.9c0,0.8,0.7,1.5,1.5,1.5c0.1,0,0.1,0,0.2,0c0.9,0,1.7-0.7,1.7-1.6c0-0.1,0-0.2,0-0.3
		c0.1-0.9-0.5-1.7-1.4-1.8c-0.1,0-0.1,0-0.2,0c-0.7-0.1-1.4,0.2-1.9,0.8h-0.4v-4.3h4.4v1.6h-0.9v-0.8h-2.7v2.5
		c0.5-0.4,1-0.6,1.6-0.5c1.3,0,2.4,1,2.4,2.3c0,0.1,0,0.2,0,0.3c0.1,1.4-1.1,2.6-2.5,2.7c-0.1,0-0.2,0-0.2,0c-1.3,0.2-2.4-0.7-2.6-2
		C13.3,101.5,13.3,101.5,13.2,101.4z"/>
	<path d="M19.4,97.5c0-1,0.8-1.8,1.8-1.8c1,0,1.8,0.8,1.8,1.8c0,1-0.8,1.8-1.8,1.8C20.2,99.3,19.4,98.5,19.4,97.5z M22.1,97.5
		c0-0.7-0.4-1.1-1-1.1s-1,0.4-1,1.2s0.4,1.1,1,1.1S22.1,98.2,22.1,97.5L22.1,97.5z M25.3,95.7h0.8l-4.8,7.9h-0.8L25.3,95.7z
		 M23.6,101.8c0-1,0.8-1.9,1.8-1.9c0,0,0,0,0,0c1,0,1.9,0.8,1.9,1.8c0,1-0.8,1.9-1.8,1.9C24.5,103.7,23.7,102.9,23.6,101.8
		C23.6,101.8,23.6,101.8,23.6,101.8z M26.4,101.8c0-0.7-0.4-1.1-1-1.1s-1,0.4-1,1.1s0.4,1.1,1,1.1S26.4,102.5,26.4,101.8L26.4,101.8
		z"/>
	<path d="M5.8,54.8h0.9c0,0.9,0.8,1.7,1.7,1.7c0.1,0,0.1,0,0.2,0c1.2,0,1.8-0.6,1.8-1.5s-0.6-1.6-1.7-1.6H8.1v-0.8h0.6
		c1,0,1.5-0.5,1.5-1.3c0-0.7-0.5-1.3-1.2-1.3c-0.1,0-0.1,0-0.2,0c-0.9-0.1-1.7,0.6-1.7,1.5H6.1c0.1-1.3,1.2-2.3,2.6-2.3
		c1.2-0.1,2.2,0.8,2.3,2c0,0,0,0.1,0,0.1c0,0.8-0.5,1.5-1.2,1.7c0.9,0.2,1.6,1,1.5,2c0,1.4-1.2,2.3-2.8,2.3
		c-1.4,0.1-2.6-0.9-2.7-2.3C5.8,54.9,5.8,54.9,5.8,54.8z"/>
	<path d="M12.4,53.4v-0.4c0-2.3,1.2-3.8,3.1-3.8s3.1,1.6,3.1,3.8v0.5c0,2.3-1.1,3.8-3,3.8S12.4,55.7,12.4,53.4z M17.6,53.4v-0.4
		c0-1.8-0.8-3-2.1-3s-2.1,1.1-2.1,3v0.4c0,2,0.8,3,2.1,3S17.6,55.4,17.6,53.4z"/>
	<path d="M19.4,51.1c0-1,0.8-1.9,1.8-1.9c0,0,0,0,0,0c1,0,1.9,0.8,1.9,1.8c0,1-0.8,1.9-1.8,1.9C20.3,53,19.4,52.1,19.4,51.1
		C19.4,51.1,19.4,51.1,19.4,51.1z M22.2,51.1c0-0.7-0.4-1.1-1-1.1s-1,0.4-1,1.1s0.4,1.1,1,1.1S22.1,51.8,22.2,51.1L22.2,51.1z
		 M25.3,49.3h0.8l-4.8,7.9h-0.8L25.3,49.3z M23.6,55.4c0-1,0.8-1.9,1.8-1.9c0,0,0,0,0,0c1,0,1.9,0.8,1.9,1.8c0,1-0.8,1.9-1.8,1.9
		C24.5,57.3,23.7,56.4,23.6,55.4C23.6,55.4,23.6,55.4,23.6,55.4z M26.4,55.4c0-0.7-0.4-1.1-1-1.1s-1,0.4-1,1.1s0.4,1.1,1,1.1
		S26.4,56.1,26.4,55.4z"/>
	<path d="M6.7,8.4h0.9c0,0.9,0.8,1.7,1.7,1.7c0.1,0,0.1,0,0.2,0c1.2,0,1.8-0.6,1.8-1.5S10.8,7,9.6,7H9.1V6.2h0.6
		c1,0,1.5-0.5,1.5-1.3c0-0.7-0.5-1.3-1.2-1.3c-0.1,0-0.1,0-0.2,0C8.7,3.5,8,4.1,7.9,5H7.1c0.1-1.3,1.2-2.4,2.6-2.3c0,0,0,0,0,0
		c1.2-0.1,2.2,0.8,2.4,2c0,0,0,0.1,0,0.1c0,0.8-0.5,1.5-1.2,1.7c0.9,0.2,1.6,1,1.5,2c0,1.4-1.2,2.3-2.8,2.3C8.1,11,6.9,10,6.8,8.6
		C6.7,8.5,6.7,8.5,6.7,8.4z"/>
	<path d="M13.2,8.6h0.9c0,0.8,0.7,1.5,1.5,1.5c0.1,0,0.1,0,0.2,0c0.9,0,1.7-0.7,1.7-1.6c0-0.1,0-0.2,0-0.3c0.1-0.9-0.5-1.7-1.4-1.8
		c-0.1,0-0.1,0-0.2,0c-0.7-0.1-1.4,0.2-1.9,0.8h-0.4V2.9h4.4v1.6h-0.9V3.7h-2.7v2.5c0.4-0.4,1-0.6,1.6-0.5c1.3,0,2.4,1,2.4,2.3
		c0,0.1,0,0.2,0,0.3c0.1,1.4-1.1,2.6-2.5,2.7c-0.1,0-0.2,0-0.2,0c-1.3,0.2-2.4-0.7-2.6-2C13.3,8.8,13.3,8.7,13.2,8.6z"/>
	<path d="M19.4,4.7c0-1,0.8-1.9,1.8-1.9c0,0,0,0,0,0c1,0,1.9,0.8,1.9,1.8c0,1-0.8,1.9-1.8,1.9C20.3,6.5,19.4,5.7,19.4,4.7
		C19.4,4.7,19.4,4.7,19.4,4.7z M22.2,4.7c0-0.7-0.4-1.1-1-1.1s-1,0.4-1,1.2s0.4,1.1,1,1.1S22.1,5.4,22.2,4.7L22.2,4.7z M25.3,2.9
		h0.8l-4.8,7.9h-0.8L25.3,2.9z M23.6,9c0-1,0.8-1.9,1.8-1.9c0,0,0,0,0,0c1,0,1.9,0.8,1.9,1.8c0,1-0.8,1.9-1.8,1.9
		C24.5,10.9,23.7,10.1,23.6,9C23.6,9,23.6,9,23.6,9z M26.4,9c0-0.7-0.4-1.1-1-1.1s-1,0.4-1,1.2s0.4,1.1,1,1.1S26.4,9.7,26.4,9
		L26.4,9z"/>
	<g id="Calque_5">
		<polygon class="st1" points="36.8,332.1 49.4,308.9 62.1,332.1 		"/>
		<polygon class="st1" points="71.9,332.1 84.6,328.4 97.2,332.1 		"/>
		<polygon class="st1" points="107.1,332.1 119.7,276.4 132.4,332.1 		"/>
		<polygon class="st1" points="142.2,332.1 154.9,347.9 167.6,332.1 		"/>
		<polygon class="st1" points="177.4,332.1 190.1,252.3 202.7,332.1 		"/>
		<polygon class="st1" points="212.6,332.1 225.2,252.3 237.9,332.1 		"/>
		<polygon class="st1" points="247.8,332.1 260.4,316.3 273.1,332.1 		"/>
		<polygon class="st1" points="282.9,332.1 295.6,428.6 308.2,332.1 		"/>
		<polygon class="st1" points="318.1,332.1 330.7,238.3 343.4,332.1 		"/>
		<polygon class="st1" points="353.2,332.1 365.9,250.4 378.6,332.1 		"/>
		<polygon class="st1" points="388.4,332.1 401.1,40.6 413.7,332.1 		"/>
		<polygon class="st1" points="423.6,332.1 436.2,256.9 448.9,332.1 		"/>
		<polygon class="st1" points="458.8,332.1 471.4,255.1 484.1,332.1 		"/>
		<path class="st1" d="M519.2,331.1h-3v1h3l-0.5,0.3l0.5,0.8l0.5-0.4l-0.5-0.8l0,0V331.1L519.2,331.1z M514.2,331.1h-3v1h3V331.1z
			 M509.2,331.1h-3v1h3V331.1z M504.2,331.1h-3v1h3V331.1z M499.2,331.1h-3v1h3V331.1z M494.2,331.1h-3.6l2.8,1.8l2.2,1.5l0.5-0.8
			l-2.2-1.5l0,0l0,0h0.3L494.2,331.1L494.2,331.1z M497.8,334.7l-0.5,0.8l2.5,1.7l0.5-0.8L497.8,334.7z M502,337.4l-0.5,0.8l2.5,1.7
			l0.5-0.8L502,337.4z M508.7,339l-1.9,1.2l0,0l0,0h-0.1l-0.1,0.1l-0.4-0.3l-0.5,0.8l0.4,0.3l0.5,0.4l0.5-0.4l2.1-1.4l-0.5-0.8
			L508.7,339z M512.8,336.3l-2.5,1.6l0.5,0.8l2.5-1.7L512.8,336.3z M517,333.5l-2.5,1.7l0.5,0.8l2.5-1.7L517,333.5z"/>
		<path class="st1" d="M553.7,331.1h-3v1h3V331.1z M548.7,331.1h-3v1h3V331.1z M543.7,331.1h-3v1h3V331.1z M538.7,331.1h-3v1h3
			V331.1z M533.7,331.1h-3v1h3V331.1z M529.3,332.5l-1,0.3l0.9,2.9l1-0.3L529.3,332.5L529.3,332.5z M530.8,337.3l-1,0.3l0.9,2.9
			l1-0.3l-0.8-2.7l0,0L530.8,337.3L530.8,337.3z M532.2,342l-1,0.3l0.9,2.9l1-0.3l0,0l0,0l0,0l0,0C533,344.5,532.2,342.1,532.2,342
			L532.2,342z M533.7,346.8l-1,0.3l0.9,2.9l1-0.3l-0.5-1.6l0,0L533.7,346.8L533.7,346.8z M535.2,351.6l-1,0.3l0.9,2.9l1-0.3
			l-0.7-2.2l0,0L535.2,351.6L535.2,351.6z M536.7,356.4l-1,0.3l0.9,2.9l1-0.3l-0.5-1.7l0,0L536.7,356.4L536.7,356.4z M538.1,361.1
			l-1,0.3l0.9,2.9l1-0.3l-0.6-2l0,0v-0.1l0,0l0,0l0,0L538.1,361.1L538.1,361.1z M539.6,365.9l-1,0.3l0.9,2.9l1-0.3L539.6,365.9
			L539.6,365.9z M541.1,370.7l-1,0.3l0.7,2.1l1,3.2l0.9-3.2l0.2-0.8l-1-0.3l-0.2,0.7l0,0l0,0l0,0l0,0l0,0l0,0l0,0l0,0l0,0l0,0l0,0
			L541.1,370.7L541.1,370.7z M543.4,367.2l-0.4,1.4l0,0l-0.4,1.5l1,0.3l0.8-2.9L543.4,367.2L543.4,367.2z M544.8,362.4l-0.4,1.2l0,0
			v0.1l0,0l0,0l0,0l0,0l0,0l-0.4,1.4l1,0.3l0.8-2.9l-1-0.3L544.8,362.4z M546.2,357.6l-0.8,2.9l1,0.3l0.8-2.9L546.2,357.6z
			 M547.6,352.8l-0.8,2.9l1,0.3l0.8-2.9L547.6,352.8z M549,348l-0.8,2.9l1,0.3l0.8-2.9L549,348z M550.5,343.2l-0.8,2.9l1,0.3
			l0.8-2.9L550.5,343.2z M551.9,338.4l-0.8,2.9l1,0.3l0.8-2.9L551.9,338.4z M553.3,333.6l-0.8,2.9l1,0.3l0.8-2.9L553.3,333.6z"/>
		<path class="st1" d="M589,331.1h-3v1h3l0,0l0,0l0,0l0,0c-0.1,0.5-0.3,2.8-0.3,2.8l1,0.1l0.3-2.9l-1-0.1l0,0v-1L589,331.1z
			 M584,331.1h-3v1h3V331.1z M579,331.1h-3v1h3V331.1z M574,331.1h-3v1h3V331.1z M569,331.1h-3v1h3V331.1z M564,331.1h-1.5l0.1,1.1
			l0.3,2.6l1-0.1l-0.3-2.6h0.4V331.1z M564.2,336.7l-1,0.1l0.3,3l1-0.1L564.2,336.7L564.2,336.7z M564.7,341.7l-1,0.1l0.3,3l1-0.1
			L564.7,341.7z M565.3,346.7l-1,0.1l0.3,3l1-0.1L565.3,346.7z M565.8,351.7l-1,0.1l0.3,3l1-0.1L565.8,351.7z M566.4,356.7l-1,0.1
			l0.3,3l1-0.1L566.4,356.7L566.4,356.7z M567,361.7l-1,0.1l0.3,3l1-0.1L567,361.7L567,361.7z M567.5,366.7l-1,0.1l0.3,3l1-0.1
			L567.5,366.7L567.5,366.7z M568.1,371.7l-1,0.1l0.3,3l1-0.1L568.1,371.7L568.1,371.7z M568.6,376.7l-1,0.1l0.3,3l1-0.1
			L568.6,376.7L568.6,376.7z M569.2,381.7l-1,0.1l0.3,3l1-0.1L569.2,381.7L569.2,381.7z M569.8,386.7l-1,0.1l0.3,3l1-0.1
			L569.8,386.7L569.8,386.7z M570.3,391.7l-1,0.1l0.3,3l1-0.1L570.3,391.7L570.3,391.7z M570.9,396.7l-1,0.1l0.3,3l1-0.1
			L570.9,396.7L570.9,396.7z M571.4,401.7l-1,0.1l0.3,3l1-0.1L571.4,401.7L571.4,401.7z M572,406.7l-1,0.1l0.3,3l1-0.1L572,406.7
			L572,406.7z M572.6,411.7l-1,0.1l0.3,3l1-0.1L572.6,411.7L572.6,411.7z M573.1,416.7l-1,0.1l0.3,3l1-0.1L573.1,416.7L573.1,416.7z
			 M573.7,421.7l-1,0.1l0.3,3l1-0.1L573.7,421.7L573.7,421.7z M574.2,426.7l-1,0.1l0.3,3l1-0.1L574.2,426.7L574.2,426.7z
			 M574.8,431.7l-1,0.1l0.3,3l1-0.1L574.8,431.7L574.8,431.7z M575.4,436.7l-1,0.1l0.3,3l1-0.1L575.4,436.7L575.4,436.7z
			 M575.9,441.7l-1,0.1l0.3,3l1-0.1L575.9,441.7L575.9,441.7z M576.5,446.7l-1,0.1l0.2,1.7l1,9.1l1-9.1l0.1-1.3l-1-0.1l-0.1,1.2l0,0
			l0,0l0,0l0,0l0,0l-0.2-1.7L576.5,446.7z M577.3,442.1l-0.3,3l1,0.1l0.3-3L577.3,442.1L577.3,442.1z M577.9,437.1l-0.3,3l1,0.1
			l0.3-3L577.9,437.1L577.9,437.1z M578.4,432.1l-0.3,3l1,0.1l0.3-3L578.4,432.1z M578.9,427.1l-0.2,2.1l0,0v0.1l0,0l0,0l0,0v0.2
			l0,0v0.5l1,0.1l0.3-3l-1-0.1L578.9,427.1z M579.5,422.1l-0.3,3l1,0.1l0.3-3L579.5,422.1z M580,417.1l-0.2,1.4l0,0l-0.2,1.5l1,0.1
			l0.3-3L580,417.1L580,417.1z M580.5,412.1l-0.3,3l1,0.1l0.3-3L580.5,412.1L580.5,412.1z M581.1,407.1l-0.1,0.6l0,0l0,0l0,0l0,0
			l0,0l0,0l0,0l0,0l0,0l-0.2,2.2l1,0.1l0.3-3l-1-0.1L581.1,407.1z M581.6,402.1l-0.3,3l1,0.1l0.3-3L581.6,402.1L581.6,402.1z
			 M582.1,397.1l-0.3,3l1,0.1l0.3-3L582.1,397.1L582.1,397.1z M582.6,392.1l-0.3,3l1,0.1l0.3-3L582.6,392.1L582.6,392.1z
			 M583.2,387.1l-0.3,3l1,0.1l0.3-3L583.2,387.1L583.2,387.1z M583.7,382.1l-0.3,3l1,0.1l0.3-3L583.7,382.1L583.7,382.1z
			 M584.2,377.1l-0.3,3l1,0.1l0.3-3L584.2,377.1L584.2,377.1z M584.8,372.1l-0.1,1.3l0,0l0,0l0,0c-0.1,0.8-0.2,1.6-0.2,1.6l1,0.1
			l0.3-3L584.8,372.1L584.8,372.1z M585.3,367.1l-0.3,3l1,0.1l0.3-3L585.3,367.1L585.3,367.1z M585.8,362.1c0,0,0,0.3-0.1,0.8l0,0
			l0,0l0,0v0.1l0,0l-0.2,1.9l1,0.1l0.3-3l-1-0.1L585.8,362.1z M586.4,357.1l-0.3,3l1,0.1l0.3-3L586.4,357.1L586.4,357.1z
			 M586.9,352.1l-0.2,1.6l0,0l-0.1,1.4l1,0.1l0.3-3L586.9,352.1L586.9,352.1z M587.4,347.1l-0.3,3l1,0.1l0.3-3L587.4,347.1
			L587.4,347.1z M588,342.1L588,342.1L588,342.1L588,342.1L588,342.1L588,342.1L588,342.1L588,342.1l-0.3,2.7l1,0.1l0.3-3l-1-0.1
			L588,342.1z M588.5,337.1l-0.3,3l1,0.1l0.3-3L588.5,337.1z"/>
	</g>
	<line class="st2" x1="590" y1="332.1" x2="36.8" y2="332.1"/>
	<path d="M38.5,348c-1.8,0-3.2-1.3-3.2-3.7v-0.1c0-2.4,1.4-3.8,3.2-3.8c1-0.1,1.9,0.4,2.3,1.3v-2.9H40v-1.5h2.9v9.2h0.8v1.4h-2.8
		v-1.2C40.4,347.5,39.5,348,38.5,348z M40.9,344.2v-0.1c0-1.5-0.7-2.2-1.8-2.2s-1.8,0.8-1.8,2.3v0.1c0,1.5,0.7,2.2,1.7,2.2
		S40.9,345.7,40.9,344.2z"/>
	<path d="M47.3,348c-1.4,0-2.4-0.8-2.4-2.8V342h-0.8v-1.5h2.8v4.4c0,1,0.4,1.5,1.2,1.5c0.8,0,1.4-0.6,1.5-1.4c0-0.1,0-0.1,0-0.2V342
		h-0.8v-1.5h2.8v5.9h0.8v1.4h-2.8v-1.2C49.2,347.5,48.3,348.1,47.3,348z"/>
	<path d="M55.8,344.9h2.1c0,0.8,0.6,1.4,1.4,1.4c0.1,0,0.1,0,0.2,0c1,0,1.6-0.7,1.6-1.8c0.1-0.8-0.5-1.6-1.3-1.7c-0.1,0-0.2,0-0.3,0
		c-0.7,0-1.4,0.2-1.9,0.8h-1.2l0.1-5.8h6.4v2.5H61v-0.8h-2.9v2.7c0.6-0.6,1.4-1,2.2-0.9c1.7,0,3,1.3,3.1,2.9c0,0.1,0,0.2,0,0.4
		c0,2.2-1.5,3.5-3.8,3.5C57.1,348,55.9,346.7,55.8,344.9z"/>
	<path d="M34.4,362c-1.3,0-2.4-0.6-2.4-2.2c0-1.8,1.6-2.4,3.8-2.4h0.8v-0.3c0-0.9-0.3-1.3-1.2-1.3c-0.5-0.1-1.1,0.2-1.2,0.8
		c0,0.1,0,0.2,0,0.2h-1.9c0.1-1.8,1.5-2.5,3.2-2.5s3.1,0.7,3.1,2.7v3.3h0.8v1.4h-2.7v-1C36.1,361.6,35.3,362.1,34.4,362z
		 M36.5,359.3v-0.6h-0.8c-1.2,0-1.8,0.3-1.8,1c0,0.5,0.3,0.9,1,0.9S36.5,360.1,36.5,359.3z"/>
	<path d="M42.8,362c-1.4,0-2.4-0.8-2.4-2.8V356h-0.8v-1.5h2.8v4.4c0,1,0.4,1.5,1.2,1.5c0.8,0,1.4-0.6,1.5-1.4c0-0.1,0-0.1,0-0.2V356
		h-0.8v-1.5h2.8v5.9H48v1.4h-2.9v-1.2C44.7,361.5,43.8,362.1,42.8,362z"/>
	<path d="M51.6,361.9v-1.6h1.8v-6.1l-2,1.3v-2l2.2-1.6h2v8.4h1.7v1.6H51.6z"/>
	<path d="M58.4,361.9v-1.6h1.8v-6.1l-1.9,1.3v-2l2.2-1.6h2v8.4h1.7v1.6H58.4z"/>
	<path d="M33.8,378.5V377c0.7,0,1-0.4,1-1v-6H34v-1.5h2.8v7.5C36.8,377.5,36.1,378.5,33.8,378.5z M34.6,366.4c0-0.6,0.5-1.2,1.1-1.2
		c0.6,0,1.2,0.5,1.2,1.1c0,0.6-0.5,1.2-1.1,1.2c0,0,0,0,0,0C35.1,367.5,34.6,367.1,34.6,366.4C34.6,366.4,34.6,366.4,34.6,366.4z"/>
	<path d="M40.4,376c-1.3,0-2.4-0.6-2.4-2.2c0-1.8,1.6-2.4,3.8-2.4h0.8v-0.3c0-0.9-0.3-1.3-1.2-1.3c-0.5-0.1-1.1,0.2-1.2,0.8
		c0,0.1,0,0.1,0,0.2h-1.9c0.1-1.8,1.5-2.5,3.2-2.5s3,0.7,3,2.7v3.3h0.8v1.4h-2.7v-1C42.2,375.6,41.3,376.1,40.4,376z M42.6,373.3
		v-0.6h-0.8c-1.2,0-1.8,0.3-1.8,1c0,0.5,0.3,0.9,1,0.9C41.9,374.6,42.6,374.1,42.6,373.3z"/>
	<path d="M45.9,375.9v-1.5h0.8V370h-0.8v-1.5h2.8v1.2c0.5-0.9,1.4-1.4,2.3-1.3c1.4,0,2.4,0.8,2.4,2.8v3.2h0.8v1.4h-3.6v-1.4h0.8v-3
		c0-1-0.4-1.4-1.2-1.4c-0.8,0-1.5,0.6-1.5,1.4c0,0.1,0,0.1,0,0.2v2.8h0.8v1.4L45.9,375.9z"/>
	<path d="M61.7,370l-2.1,5.8h-2.3l-2.2-5.8h-0.8v-1.5H58v1.5h-0.8l1.4,4l1.3-4H59v-1.5h3.4v1.5H61.7z"/>
	<path d="M61.9,374.8c0-0.7,0.6-1.2,1.2-1.2c0,0,0,0,0,0c0.7,0,1.2,0.6,1.2,1.2c0,0.7-0.6,1.2-1.2,1.2
		C62.4,376,61.9,375.4,61.9,374.8C61.9,374.8,61.9,374.8,61.9,374.8z"/>
	<path d="M561.9,299c-1.8,0-3.2-1.3-3.2-3.7v-0.1c0-2.4,1.4-3.8,3.2-3.8c0.9-0.1,1.9,0.4,2.3,1.3v-2.9h-0.8v-1.5h2.9v9.2h0.8v1.4
		h-2.8v-1.2C563.8,298.5,562.9,299,561.9,299z M564.3,295.3v-0.1c0-1.5-0.6-2.2-1.8-2.2s-1.8,0.8-1.8,2.3v0.1c0,1.5,0.7,2.2,1.7,2.2
		S564.3,296.7,564.3,295.3L564.3,295.3z"/>
	<path d="M570.7,299.1c-1.4,0-2.4-0.8-2.4-2.8v-3.2h-0.8v-1.5h2.8v4.4c0,1,0.4,1.4,1.2,1.4c0.8,0,1.4-0.6,1.5-1.4c0-0.1,0-0.1,0-0.2
		v-2.7h-0.8v-1.5h2.8v5.9h0.8v1.4H573v-1.2C572.6,298.5,571.7,299.1,570.7,299.1z"/>
	<path d="M579.5,298.9v-1.6h1.8v-6.2l-2,1.3v-1.9l2.2-1.6h2v8.4h1.7v1.6L579.5,298.9z"/>
	<path d="M585.9,296.2h2.1c0.1,0.7,0.7,1.2,1.5,1.1c0,0,0,0,0,0c1.3,0,2-1.1,2-3.1c-0.5,0.8-1.4,1.3-2.4,1.2
		c-1.7,0.1-3.2-1.2-3.3-2.9c0-0.1,0-0.3,0-0.4c0-2.1,1.5-3.5,3.9-3.5c2.8,0,4.1,1.9,4.1,4.8v0.5c0,3.3-1.5,5.1-4.2,5.1
		C587.4,299,586.1,298,585.9,296.2z M591.4,292.2c0.1-0.9-0.6-1.8-1.5-1.9c-0.1,0-0.1,0-0.2,0c-1,0-1.8,0.7-1.8,1.7
		c0,1,0.7,1.8,1.7,1.8C590.5,293.9,591.3,293.1,591.4,292.2z"/>
	<path d="M561,313c-1.3,0-2.4-0.6-2.4-2.2c0-1.8,1.6-2.4,3.8-2.4h0.8v-0.3c0-0.9-0.3-1.4-1.2-1.4c-0.6-0.1-1.1,0.3-1.2,0.9
		c0,0,0,0.1,0,0.1h-1.9c0.1-1.8,1.5-2.5,3.2-2.5s3,0.7,3,2.7v3.3h0.8v1.4h-2.7v-1C562.7,312.6,561.9,313.1,561,313z M563.2,310.3
		v-0.6h-0.8c-1.2,0-1.8,0.3-1.8,1c0,0.5,0.3,0.9,1,0.9C562.5,311.6,563.1,311.2,563.2,310.3L563.2,310.3z"/>
	<path d="M569.4,313.1c-1.4,0-2.4-0.8-2.4-2.8v-3.2h-0.8v-1.5h2.8v4.4c0,1,0.4,1.4,1.2,1.4c0.8,0,1.4-0.6,1.5-1.4c0-0.1,0-0.1,0-0.2
		v-2.7h-0.8v-1.5h2.8v5.9h0.8v1.4h-2.8v-1.2C571.3,312.5,570.4,313.1,569.4,313.1z"/>
	<path d="M583.7,310h1.8v2.9h-7.5v-1.2l3.5-3.3c1.2-1.1,1.6-1.8,1.6-2.6c0.1-0.7-0.4-1.2-1.1-1.3c-0.1,0-0.1,0-0.2,0
		c-0.9,0-1.4,0.5-1.6,1.8h-2.1c-0.1-1.9,1.4-3.5,3.3-3.6c0.1,0,0.3,0,0.4,0c2.2,0,3.5,1.2,3.5,2.9c0,1.4-0.8,2.4-2.1,3.5l-2.4,2.2
		h2.9L583.7,310z"/>
	<path d="M586.4,309.9h2.1c0,0.8,0.6,1.4,1.4,1.4c0.1,0,0.1,0,0.2,0c1,0,1.6-0.7,1.6-1.8c0.1-0.8-0.5-1.6-1.3-1.7
		c-0.1,0-0.2,0-0.3,0c-0.7-0.1-1.4,0.2-1.9,0.8h-1.2l0.1-5.8h6.4v2.5h-1.8v-0.8h-2.8l-0.1,2.7c0.6-0.6,1.4-0.9,2.2-0.9
		c1.7,0,3,1.3,3.1,2.9c0,0.1,0,0.2,0,0.4c0,2.1-1.5,3.5-3.8,3.5C587.7,313,586.5,311.7,586.4,309.9z"/>
	<path d="M563.9,327c-1.3,0-2.4-0.6-2.4-2.2c0-1.8,1.6-2.4,3.8-2.4h0.8v-0.3c0-0.9-0.3-1.4-1.2-1.4c-0.6-0.1-1.1,0.3-1.2,0.9
		c0,0,0,0.1,0,0.1h-1.9c0.1-1.8,1.5-2.5,3.2-2.5s3,0.7,3,2.7v3.3h0.8v1.4H566v-1C565.6,326.6,564.8,327.1,563.9,327z M566,324.3
		v-0.6h-0.8c-1.2,0-1.8,0.3-1.8,1c0,0.5,0.3,0.9,1,0.9C565.4,325.6,566,325.2,566,324.3L566,324.3z"/>
	<path d="M576.2,321.1l-2.1,5.8h-2.3l-2.2-5.8h-0.8v-1.5h3.7v1.5h-0.8l1.4,4l1.3-4h-0.8v-1.5h3.4v1.5H576.2z"/>
	<path d="M577.5,326.9v-1.4h0.8v-4.4h-0.8v-1.5h2.8v1.5c0.4-1,1.4-1.7,2.5-1.6v1.9c-1.6-0.1-2.5,0.5-2.5,1.8v2.2h0.9v1.4
		L577.5,326.9z"/>
	<path d="M583.5,326.9v-1.4h0.8v-4.4h-0.8v-1.5h2.8v5.9h0.8v1.4H583.5z M584.1,317.5c0-0.7,0.5-1.2,1.1-1.2c0.7,0,1.2,0.5,1.2,1.1
		c0,0.7-0.5,1.2-1.1,1.2c0,0,0,0,0,0C584.7,318.6,584.2,318.1,584.1,317.5C584.1,317.5,584.1,317.5,584.1,317.5z"/>
	<path d="M587.7,326.9v-1.4h0.8v-7.7h-0.8v-1.5h2.8v9.2h0.8v1.4H587.7z"/>
	<line class="st3" x1="384.1" y1="428.4" x2="384.1" y2="0"/>
	<rect x="377.8" y="23.2" class="st4" width="12.7" height="13.4"/>
	<path d="M560.6,471v-1.9h2.6v1.9H560.6z"/>
	<path d="M565,479.1v-13.8l-1.7,0.7v-2.5l3.4-1.5h0.8v17.1H565z"/>
	<path d="M569,476.8c3.5-9,3.5-9,3.5-10.1v-0.7c0-1.4-0.2-1.7-0.5-1.7s-0.5,0.3-0.5,1.7v1.1H569v-1.7c0-2.8,0.7-3.6,3-3.6
		s3,0.8,3,3.6v0.7c0,1.5-0.1,1.6-3.4,10.4h3.4v2.5h-6V476.8z"/>
	<path d="M576.6,480.2l0.7-1h-0.7v-2.3h2.4v2.3l-0.7,1H576.6z"/>
	<path d="M580.4,475.7v-1.8h2.5v1.1c0,1.4,0.1,1.7,0.5,1.7s0.5-0.3,0.5-1.7v-3.3c0-1.4-0.1-1.7-0.5-1.7s-0.5,0.3-0.5,1.7h-2.1V462
		h5.4v2.5h-3.3v6.6c0-2.8,0.5-3.6,1.7-3.6s1.8,0.8,1.8,3.6v4.6c0,2.8-0.7,3.6-3,3.6S580.4,478.4,580.4,475.7z"/>
	<path d="M587.9,467.1V464c0-1.7,0.4-2.1,1.7-2.1s1.7,0.5,1.7,2.1v3.1c0,1.7-0.4,2.1-1.7,2.1S587.9,468.8,587.9,467.1z M594.4,462
		l-5.6,17.1h-0.7l5.6-17.1H594.4z M589.8,467.3v-3.4c0-0.5-0.1-0.6-0.2-0.6s-0.2,0.2-0.2,0.5v3.6c0,0.4,0.1,0.5,0.2,0.5
		S589.8,467.8,589.8,467.3z M591.2,477v-3.1c0-1.7,0.4-2.1,1.7-2.1s1.7,0.5,1.7,2.1v3.1c0,1.7-0.4,2.1-1.7,2.1
		S591.2,478.7,591.2,477z M593.1,477.2v-3.4c0-0.5-0.1-0.6-0.2-0.6s-0.2,0.1-0.2,0.5v3.5c0,0.4,0.1,0.5,0.2,0.5
		S593.2,477.6,593.1,477.2L593.1,477.2z"/>
	<path d="M384.8,29.9v2.6h-1v-2.6h-2.5v-1h2.5v-2.6h1v2.6h2.5v1H384.8z"/>
	<path d="M387.6,34.2v-1.8h2.5v1.1c0,1.4,0.2,1.7,0.5,1.7s0.6-0.3,0.6-1.8v-1.9c0-1.4-0.1-1.7-0.5-1.7h-1.7v-2.5h1.5
		c0.4,0,0.5-0.3,0.5-1.7v-1c0-1.4-0.1-1.7-0.5-1.7s-0.5,0.3-0.5,1.7v1.1h-2.5V24c0-2.8,0.7-3.6,3-3.6s3,0.8,3,3.6v2.3
		c0,1.2-0.4,1.8-1.6,2c1.3,0.2,1.7,1,1.7,2.6v3.3c0,2.8-0.7,3.6-3.1,3.6S387.6,37,387.6,34.2z"/>
	<path d="M396.7,37.6V23.8l-1.7,0.7V22l3.4-1.5h0.8v17.1L396.7,37.6z"/>
	<path d="M400.8,38.7l0.7-1.1h-0.7v-2.3h2.4v2.3l-0.7,1.1L400.8,38.7z"/>
	<path d="M409.2,34.1v3.5h-2.5v-3.5h-3.3v-1.5l1.6-12.1h4.2v11.1h0.5v2.5H409.2z M406.7,31.6v-8.6l-0.9,8.6H406.7z"/>
	<path d="M411,25.7v-3.1c0-1.7,0.4-2.1,1.7-2.1s1.7,0.5,1.7,2.1v3.1c0,1.7-0.4,2.1-1.7,2.1S411,27.3,411,25.7z M417.5,20.5
		l-5.6,17.1h-0.7l5.6-17.1L417.5,20.5z M412.9,25.8v-3.4c0-0.5-0.1-0.6-0.2-0.6s-0.2,0.2-0.2,0.5v3.5c0,0.4,0.1,0.5,0.2,0.5
		S412.9,26.3,412.9,25.8L412.9,25.8z M414.4,35.5v-3.1c0-1.7,0.4-2.1,1.7-2.1s1.7,0.5,1.7,2.1v3.1c0,1.7-0.4,2.1-1.7,2.1
		S414.3,37.2,414.4,35.5L414.4,35.5z M416.3,35.7v-3.4c0-0.5-0.1-0.6-0.2-0.6s-0.2,0.1-0.2,0.5v3.5c0,0.4,0.1,0.5,0.2,0.5
		S416.3,36.1,416.3,35.7L416.3,35.7z"/>
</g>
<g id="_Calque_">
	<path d="M4,425.2h2.3v0.8H4V425.2z"/>
	<path d="M7.6,428.6v-0.8h1.6v-6.2L7.4,423v-0.9l1.8-1.3h0.9v7.1h1.6v0.8H7.6z"/>
	<path d="M12.4,424.9v-0.4c0-2.3,1.2-3.8,3.1-3.8s3.1,1.5,3.1,3.8v0.4c0,2.3-1.1,3.8-3,3.8S12.4,427.2,12.4,424.9z M17.6,424.9v-0.4
		c0-1.8-0.8-3-2.1-3s-2.1,1.1-2.1,3v0.4c0,2,0.8,3,2.1,3S17.6,426.9,17.6,424.9L17.6,424.9z"/>
	<path d="M19.4,422.6c0-1,0.8-1.9,1.8-1.9c0,0,0,0,0,0c1,0,1.9,0.8,1.9,1.8c0,1-0.8,1.9-1.8,1.9C20.3,424.4,19.4,423.6,19.4,422.6
		C19.4,422.6,19.4,422.6,19.4,422.6z M22.2,422.6c0-0.7-0.4-1.2-1-1.2s-1,0.4-1,1.2s0.4,1.1,1,1.1S22.1,423.3,22.2,422.6L22.2,422.6
		z M25.3,420.8h0.8l-4.8,7.9h-0.8L25.3,420.8z M23.6,426.9c0-1,0.8-1.9,1.8-1.9c0,0,0,0,0,0c1,0,1.9,0.8,1.9,1.8
		c0,1-0.8,1.9-1.8,1.9C24.5,428.8,23.7,427.9,23.6,426.9C23.6,426.9,23.6,426.9,23.6,426.9z M26.4,426.9c0-0.7-0.4-1.1-1-1.1
		s-1,0.4-1,1.2s0.4,1.1,1,1.1S26.4,427.6,26.4,426.9L26.4,426.9z"/>
</g>
<g id="Calque_1_1_">
	<rect x="333.9" y="364.6" class="st4" width="103.1" height="31.5"/>
	<path d="M368.6,368.6h3.2c0.6,0,1.2,0.1,1.7,0.3c0.5,0.2,0.9,0.5,1.3,0.9c0.4,0.4,0.7,0.9,0.8,1.4c0.4,1.2,0.4,2.4,0,3.6
		c-0.2,0.5-0.5,1-0.8,1.4c-0.4,0.4-0.8,0.7-1.3,0.9c-0.5,0.2-1.1,0.3-1.7,0.3h-3.2V368.6z M371.8,376.3c0.4,0,0.8-0.1,1.1-0.2
		c0.3-0.1,0.6-0.4,0.9-0.7c0.2-0.3,0.4-0.6,0.6-1c0.3-0.9,0.3-1.8,0-2.7c-0.1-0.4-0.3-0.7-0.6-1c-0.5-0.6-1.2-0.9-2-0.9H370v6.5
		L371.8,376.3z"/>
	<path d="M383.2,375.3c0,0.3-0.1,0.6-0.2,0.9c-0.1,0.3-0.3,0.5-0.6,0.7c-0.3,0.2-0.5,0.4-0.9,0.5c-0.4,0.1-0.8,0.2-1.1,0.2
		c-0.5,0-0.9-0.1-1.4-0.2c-0.4-0.1-0.7-0.4-0.9-0.7c-0.3-0.3-0.4-0.7-0.5-1c-0.1-0.4-0.2-0.9-0.2-1.4c0-0.5,0.1-0.9,0.2-1.4
		c0.1-0.4,0.3-0.7,0.6-1c0.3-0.3,0.6-0.5,0.9-0.7c0.8-0.3,1.8-0.3,2.6,0c0.3,0.1,0.6,0.4,0.9,0.7c0.2,0.3,0.4,0.7,0.5,1
		c0.1,0.5,0.2,0.9,0.1,1.4v0.2h-4.5c0,0.6,0.1,1.1,0.5,1.6c0.3,0.3,0.7,0.5,1.2,0.5c0.4,0,0.8-0.1,1.1-0.3c0.3-0.2,0.5-0.6,0.5-1
		L383.2,375.3z M382,373.6c0-0.4-0.1-0.9-0.4-1.2c-0.3-0.3-0.7-0.5-1.1-0.5c-0.4,0-0.8,0.1-1.1,0.4c-0.3,0.3-0.5,0.8-0.5,1.3H382z
		 M381.1,368.6h1.6l-1.8,1.7h-1L381.1,368.6z"/>
	<path d="M385,368.6h1.3v3.5l0,0c0.2-0.3,0.5-0.6,0.8-0.8c0.4-0.2,0.8-0.3,1.3-0.3c0.4,0,0.8,0.1,1.2,0.2c0.3,0.2,0.6,0.4,0.9,0.7
		c0.2,0.3,0.4,0.7,0.5,1c0.1,0.4,0.2,0.9,0.2,1.3c0,0.5-0.1,0.9-0.2,1.3c-0.1,0.4-0.3,0.7-0.5,1.1c-0.2,0.3-0.5,0.5-0.9,0.7
		c-0.4,0.2-0.8,0.2-1.2,0.2c-0.4,0-0.9-0.1-1.2-0.3c-0.3-0.2-0.6-0.5-0.8-0.8l0,0v1H385V368.6z M388,376.6c0.5,0,1-0.2,1.3-0.6
		c0.6-1.1,0.6-2.4,0-3.5c-0.3-0.4-0.8-0.6-1.3-0.6c-0.5,0-1,0.2-1.3,0.6c-0.3,0.5-0.4,1.1-0.4,1.7c0,0.6,0.1,1.2,0.4,1.7
		C387,376.4,387.5,376.7,388,376.6L388,376.6z"/>
	<path d="M392.8,371h1.3v3.9c0,0.4,0.1,0.8,0.3,1.2c0.2,0.3,0.6,0.4,0.9,0.4c0.4,0,0.9-0.1,1.2-0.5c0.3-0.4,0.5-0.8,0.4-1.3V371h1.3
		v6.4h-1.3v-1l0,0c-0.2,0.3-0.5,0.6-0.8,0.8c-0.4,0.2-0.8,0.3-1.2,0.3c-0.6,0.1-1.2-0.2-1.6-0.6c-0.3-0.5-0.5-1.1-0.5-1.7L392.8,371
		z"/>
	<path d="M400.3,372.1h-0.9V371h0.9v-1.7h1.3v1.6h1.5v1.1h-1.5v3.4c0,0.3,0.1,0.5,0.2,0.7c0.2,0.2,0.4,0.2,0.7,0.2h0.3h0.3v1.1
		l-0.4,0.1c-0.2,0-0.3,0-0.5,0c-0.5,0-1-0.1-1.5-0.5c-0.4-0.4-0.6-1-0.5-1.6L400.3,372.1z"/>
	<path d="M344.1,388.4L344.1,388.4c-0.2,0.3-0.5,0.6-0.8,0.8c-0.4,0.2-0.8,0.3-1.3,0.3c-0.4,0-0.8-0.1-1.2-0.2
		c-0.3-0.2-0.6-0.4-0.9-0.7c-0.2-0.3-0.4-0.6-0.5-1c-0.1-0.4-0.2-0.9-0.2-1.3c0-0.5,0.1-0.9,0.2-1.4c0.1-0.4,0.3-0.7,0.5-1.1
		c0.2-0.3,0.5-0.5,0.9-0.7c0.4-0.2,0.8-0.2,1.2-0.2c0.4,0,0.9,0.1,1.3,0.3c0.3,0.2,0.6,0.5,0.8,0.8l0,0v-3.5h1.3v8.9h-1.3V388.4z
		 M342.4,388.6c0.5,0,1-0.2,1.3-0.6c0.3-0.5,0.4-1.1,0.4-1.8c0-0.6-0.1-1.2-0.4-1.7c-0.3-0.4-0.8-0.7-1.3-0.6c-0.5,0-1,0.2-1.3,0.6
		c-0.4,0.5-0.5,1.1-0.5,1.8c0,0.6,0.1,1.2,0.5,1.7C341.4,388.4,341.9,388.6,342.4,388.6L342.4,388.6z"/>
	<path d="M347.5,383h1.3v3.9c0,0.4,0.1,0.8,0.3,1.2c0.2,0.3,0.6,0.4,0.9,0.4c0.4,0,0.9-0.2,1.2-0.5c0.3-0.4,0.5-0.8,0.4-1.3V383h1.3
		v6.4h-1.3v-1l0,0c-0.2,0.3-0.5,0.6-0.8,0.8c-0.4,0.2-0.8,0.3-1.2,0.3c-0.6,0.1-1.2-0.2-1.6-0.6c-0.3-0.5-0.5-1.1-0.5-1.7L347.5,383
		z"/>
	<path d="M363.9,387.1c0,0.7-0.3,1.4-0.8,1.9c-0.6,0.4-1.3,0.7-2,0.6c-0.5,0-0.9-0.1-1.3-0.2c-0.4-0.1-0.7-0.4-1-0.7
		c-0.3-0.3-0.4-0.6-0.6-1c-0.1-0.4-0.2-0.9-0.2-1.4c0-0.5,0.1-0.9,0.2-1.4c0.1-0.4,0.3-0.7,0.6-1c0.3-0.3,0.6-0.5,1-0.7
		c0.4-0.2,0.9-0.2,1.3-0.2c0.7,0,1.4,0.2,2,0.6c0.5,0.5,0.8,1.2,0.8,1.9h-1.3c0-0.4-0.2-0.8-0.5-1.1c-0.3-0.3-0.7-0.4-1.1-0.4
		c-0.5,0-1,0.2-1.3,0.6c-0.3,0.5-0.5,1.1-0.4,1.7c0,0.6,0.1,1.2,0.4,1.7c0.3,0.4,0.8,0.6,1.3,0.6c0.4,0,0.8-0.1,1.1-0.4
		c0.3-0.3,0.5-0.7,0.5-1.1L363.9,387.1z"/>
	<path d="M368.5,389.6c-0.5,0-0.9-0.1-1.3-0.2c-0.4-0.1-0.7-0.4-1-0.7c-0.3-0.3-0.5-0.7-0.6-1c-0.3-0.9-0.3-1.8,0-2.7
		c0.1-0.4,0.4-0.8,0.6-1.1c0.3-0.3,0.6-0.5,1-0.7c0.4-0.2,0.9-0.2,1.3-0.2c0.5,0,0.9,0.1,1.3,0.2c0.4,0.2,0.7,0.4,1,0.7
		c0.3,0.3,0.5,0.7,0.6,1.1c0.3,0.9,0.3,1.8,0,2.7c-0.1,0.4-0.4,0.7-0.6,1c-0.3,0.3-0.6,0.5-1,0.7
		C369.4,389.5,368.9,389.6,368.5,389.6z M368.5,388.6c0.5,0,1.1-0.2,1.4-0.6c0.7-1,0.7-2.4,0-3.4c-0.7-0.8-1.9-0.8-2.7-0.2
		c-0.1,0-0.1,0.1-0.2,0.2c-0.7,1-0.7,2.4,0,3.4C367.4,388.4,367.9,388.6,368.5,388.6L368.5,388.6z"/>
	<path d="M373.4,383h1.3v1l0,0c0.2-0.3,0.5-0.6,0.8-0.8c0.4-0.2,0.8-0.3,1.3-0.3c0.6-0.1,1.2,0.2,1.6,0.6c0.3,0.5,0.5,1.1,0.5,1.7
		v4.2h-1.3v-3.8c0-0.4-0.1-0.8-0.3-1.2c-0.2-0.3-0.6-0.5-1-0.4c-0.5,0-0.9,0.1-1.2,0.5c-0.3,0.4-0.5,0.8-0.5,1.3v3.7h-1.3L373.4,383
		z"/>
	<path d="M381.1,384.2h-0.9v-1.1h0.9v-0.6c0-0.6,0.1-1.1,0.5-1.5c0.4-0.3,0.9-0.5,1.4-0.5c0.1,0,0.3,0,0.4,0c0.1,0,0.3,0,0.4,0.1
		v1.1c-0.1,0-0.2,0-0.3,0h-0.3c-0.2,0-0.5,0-0.6,0.2c-0.2,0.2-0.2,0.4-0.2,0.7v0.6h1.4v1.1h-1.4v5.4h-1.3L381.1,384.2z"/>
	<path d="M385.7,381.9c-0.2,0-0.4-0.1-0.6-0.2c-0.2-0.2-0.2-0.4-0.2-0.6c0-0.2,0.1-0.4,0.2-0.6c0.2-0.2,0.4-0.3,0.6-0.2
		c0.2,0,0.4,0.1,0.6,0.2c0.3,0.3,0.3,0.8,0,1.2C386.1,381.8,385.9,381.9,385.7,381.9z M385.1,383h1.3v6.4h-1.3V383z"/>
	<path d="M388.4,383h1.3v1l0,0c0.2-0.3,0.5-0.6,0.8-0.8c0.4-0.2,0.8-0.3,1.3-0.3c0.6-0.1,1.2,0.2,1.6,0.6c0.3,0.5,0.5,1.1,0.5,1.7
		v4.2h-1.3v-3.8c0-0.4-0.1-0.8-0.3-1.2c-0.2-0.3-0.6-0.5-1-0.4c-0.5,0-0.9,0.1-1.2,0.5c-0.3,0.4-0.5,0.8-0.5,1.3v3.7h-1.2V383z"/>
	<path d="M401.4,387.3c0,0.3-0.1,0.6-0.2,0.9c-0.1,0.3-0.3,0.5-0.6,0.7c-0.3,0.2-0.5,0.4-0.9,0.5c-0.4,0.1-0.7,0.2-1.1,0.2
		c-0.5,0-0.9-0.1-1.4-0.2c-0.4-0.1-0.7-0.4-0.9-0.7c-0.3-0.3-0.4-0.7-0.5-1c-0.2-0.9-0.2-1.8,0-2.7c0.1-0.4,0.3-0.7,0.6-1
		c0.3-0.3,0.6-0.5,0.9-0.7c0.4-0.2,0.9-0.3,1.3-0.2c0.4,0,0.9,0.1,1.3,0.2c0.3,0.1,0.6,0.4,0.9,0.7c0.2,0.3,0.4,0.7,0.5,1
		c0.1,0.5,0.2,0.9,0.1,1.4v0.2h-4.5c0,0.6,0.1,1.1,0.5,1.6c0.3,0.3,0.7,0.5,1.2,0.5c0.4,0,0.8-0.1,1.1-0.3c0.3-0.2,0.5-0.6,0.5-1
		L401.4,387.3z M400.1,385.6c0-0.4-0.1-0.9-0.4-1.2c-0.3-0.3-0.7-0.5-1.1-0.5c-0.4,0-0.8,0.1-1.2,0.4c-0.3,0.3-0.5,0.8-0.5,1.3
		H400.1z"/>
	<path d="M403.2,383h1.3v1l0,0c0.2-0.3,0.4-0.6,0.7-0.8c0.3-0.2,0.7-0.3,1.1-0.3c0.4,0,0.8,0.1,1.2,0.3c0.3,0.2,0.5,0.5,0.6,0.9l0,0
		c0.2-0.4,0.5-0.7,0.8-0.9c0.4-0.2,0.8-0.3,1.2-0.3c0.6-0.1,1.1,0.2,1.5,0.6c0.4,0.5,0.5,1.1,0.5,1.7v4.2h-1.3v-3.8
		c0-0.4-0.1-0.8-0.3-1.2c-0.2-0.3-0.5-0.4-0.9-0.4c-0.4,0-0.8,0.1-1.1,0.4c-0.3,0.4-0.4,0.8-0.4,1.3v3.8H407v-3.8
		c0-0.4-0.1-0.8-0.2-1.2c-0.2-0.3-0.5-0.4-0.9-0.4c-0.4,0-0.8,0.1-1.1,0.5c-0.3,0.4-0.4,0.8-0.4,1.3v3.7h-1.3L403.2,383z"/>
	<path d="M419.7,387.3c0,0.3-0.1,0.6-0.2,0.9c-0.1,0.3-0.3,0.5-0.6,0.7c-0.3,0.2-0.5,0.4-0.9,0.5c-0.4,0.1-0.7,0.2-1.1,0.2
		c-0.5,0-0.9-0.1-1.4-0.2c-0.4-0.1-0.7-0.4-0.9-0.7c-0.3-0.3-0.4-0.7-0.5-1c-0.1-0.4-0.2-0.9-0.2-1.4c0-0.5,0.1-0.9,0.2-1.4
		c0.1-0.4,0.3-0.7,0.6-1c0.3-0.3,0.6-0.5,0.9-0.7c0.8-0.3,1.8-0.3,2.6,0c0.3,0.1,0.6,0.4,0.9,0.7c0.2,0.3,0.4,0.7,0.5,1
		c0.1,0.5,0.2,0.9,0.2,1.4v0.2h-4.5c0,0.6,0.1,1.1,0.5,1.6c0.3,0.4,0.7,0.5,1.2,0.5c0.4,0,0.8-0.1,1.1-0.3c0.3-0.2,0.5-0.6,0.5-1
		L419.7,387.3z M418.4,385.6c0-0.4-0.1-0.9-0.4-1.2c-0.3-0.3-0.7-0.5-1.1-0.5c-0.4,0-0.8,0.1-1.1,0.4c-0.3,0.3-0.5,0.8-0.5,1.3
		L418.4,385.6z"/>
	<path d="M421.5,383h1.3v1l0,0c0.2-0.3,0.5-0.6,0.8-0.8c0.4-0.2,0.8-0.3,1.3-0.3c0.6-0.1,1.2,0.2,1.6,0.6c0.3,0.5,0.5,1.1,0.5,1.7
		v4.2h-1.3v-3.8c0-0.4-0.1-0.8-0.3-1.2c-0.2-0.3-0.6-0.5-1-0.4c-0.5,0-0.9,0.1-1.2,0.5c-0.3,0.4-0.5,0.8-0.5,1.3v3.7h-1.3L421.5,383
		z"/>
	<path d="M429.1,384.1h-0.9V383h0.9v-1.7h1.3v1.6h1.5v1.1h-1.5v3.4c0,0.3,0.1,0.5,0.2,0.7c0.2,0.2,0.4,0.2,0.7,0.2h0.3h0.3v1.1
		l-0.4,0.1c-0.2,0-0.3,0-0.5,0c-0.5,0-1-0.1-1.4-0.5c-0.4-0.4-0.6-1-0.5-1.6V384.1z"/>
</g>
</svg>
