<?xml version="1.0" encoding="utf-8"?>
<!-- Generator: Adobe Illustrator 24.0.3, SVG Export Plug-In . SVG Version: 6.00 Build 0)  -->
<svg version="1.1" id="Calque_1" xmlns="http://www.w3.org/2000/svg" xmlns:xlink="http://www.w3.org/1999/xlink" x="0px" y="0px"
	 viewBox="0 0 600 481.7" style="enable-background:new 0 0 600 481.7;" xml:space="preserve">
<style type="text/css">
	.st0{fill:#FFFFFF;}
	.st1{fill:#C0C0C0;}
	.st2{fill:#E3234A;}
	.st3{fill:none;stroke:#000000;stroke-width:2;stroke-miterlimit:10;}
	.st4{fill:none;stroke:#FFFFFF;stroke-width:0.5;stroke-miterlimit:10;}
	.st5{fill:none;stroke:#000000;stroke-width:0.5;stroke-miterlimit:10;stroke-dasharray:5,2;}
</style>
<g id="FOND">
	<rect id="Fond_blanc" y="-77.8" class="st0" width="600" height="600"/>
</g>
<g id="Calque_1_1_">
	<g>
		<path d="M53.6,481.5v-1.6h1.8v-6.2l-2,1.3v-2l2.2-1.6h2v8.4h1.7v1.6L53.6,481.5z"/>
		<path d="M59.9,474.8L59.9,474.8c-0.1-1.2,0.8-2.2,2-2.3c0.1,0,0.1,0,0.2,0c1.1,0,2,0.8,2.1,1.9c0,0.1,0,0.2,0,0.3v0.3h-3.1
			c0,0.7,0.4,1.1,1.1,1.1s0.8-0.2,0.9-0.6h1.1c-0.1,0.9-0.9,1.4-2,1.4c-1.1,0.1-2.1-0.7-2.3-1.9C59.9,475,59.9,474.9,59.9,474.8z
			 M63,474.3c0-0.6-0.4-0.9-0.9-0.9c-0.5,0-1,0.4-1,0.9H63z"/>
		<path d="M64.6,476.9V476h0.5v-2.5h-0.5v-0.9h1.7v0.9c0.2-0.6,0.8-1,1.5-0.9v1.1c-0.9,0-1.5,0.3-1.5,1.1v1.3h0.5v0.8H64.6z"/>
		<path d="M70.9,484.2v-1.5c0.7,0,1-0.4,1-1v-6h-0.8v-1.5h2.8v7.5C73.9,483.2,73.2,484.2,70.9,484.2z M71.7,472.1
			c0-0.6,0.5-1.2,1.1-1.2c0.6,0,1.2,0.5,1.2,1.1c0,0.6-0.5,1.2-1.1,1.2c0,0,0,0,0,0C72.2,473.3,71.7,472.8,71.7,472.1
			C71.7,472.2,71.7,472.1,71.7,472.1L71.7,472.1z"/>
		<path d="M77.5,481.7c-1.2,0.2-2.3-0.6-2.4-1.8c0-0.1,0-0.2,0-0.4c0-1.8,1.6-2.3,3.8-2.3h0.8v-0.3c0-0.9-0.3-1.3-1.2-1.3
			c-0.6-0.1-1.1,0.3-1.2,0.9c0,0,0,0.1,0,0.1h-1.9c0.1-1.8,1.5-2.5,3.2-2.5s3,0.7,3,2.7v3.3h0.8v1.4h-2.7v-1
			C79.3,481.3,78.4,481.7,77.5,481.7z M79.7,479v-0.6h-0.8c-1.2,0-1.8,0.3-1.8,1c0,0.5,0.3,0.9,1,0.9C79,480.3,79.7,479.8,79.7,479z
			"/>
		<path d="M83,481.5v-1.4h0.8v-4.4H83v-1.5h2.8v1.2c0.4-0.9,1.3-1.4,2.3-1.4c1.4,0,2.4,0.8,2.4,2.8v3.3h0.8v1.4h-3.6v-1.4h0.8v-3
			c0-1-0.4-1.4-1.2-1.4c-0.8,0-1.5,0.6-1.5,1.4c0,0.1,0,0.1,0,0.2v2.8h0.8v1.4L83,481.5z"/>
		<path d="M98.8,475.7l-2.1,5.8h-2.3l-2.2-5.8h-0.8v-1.5h3.7v1.5h-0.8l1.4,4l1.3-4h-0.8v-1.5h3.4v1.5L98.8,475.7z"/>
		<path d="M100,481.5v-1.4h0.8v-4.4H100v-1.5h2.8v5.9h0.8v1.4L100,481.5z M100.6,472.1c0-0.7,0.5-1.2,1.1-1.2s1.2,0.5,1.2,1.1
			c0,0.7-0.5,1.2-1.1,1.2c0,0,0,0,0,0C101.1,473.2,100.6,472.7,100.6,472.1L100.6,472.1L100.6,472.1z"/>
		<path d="M104.3,478v-0.1c-0.1-2,1.5-3.7,3.5-3.8c0.1,0,0.2,0,0.3,0c1.9-0.1,3.5,1.3,3.6,3.2c0,0.2,0,0.4,0,0.6v0.6h-5.3
			c0.1,1.2,0.7,1.9,1.8,1.9c0.9,0,1.4-0.4,1.5-1h1.9c-0.2,1.6-1.5,2.5-3.5,2.5c-2,0.1-3.7-1.3-3.8-3.3
			C104.3,478.3,104.3,478.1,104.3,478z M109.7,477.1c0.1-0.8-0.6-1.5-1.4-1.6c-0.1,0-0.1,0-0.2,0c-0.9,0-1.6,0.7-1.7,1.6H109.7z"/>
		<path d="M112.4,481.5v-1.4h0.8v-4.4h-0.8v-1.5h2.8v1.5c0.4-1,1.4-1.7,2.5-1.6v1.9c-1.6-0.1-2.5,0.4-2.5,1.8v2.2h0.9v1.4
			L112.4,481.5z"/>
	</g>
	<g>
		<path d="M542.5,478.4h2c0,0.9,0.7,1.6,1.6,1.6c0.1,0,0.1,0,0.2,0c1.1,0,1.7-0.5,1.7-1.4s-0.5-1.5-1.6-1.5h-0.8v-1.5h0.7
			c1,0,1.5-0.5,1.5-1.3s-0.5-1.2-1.4-1.2c-0.9-0.1-1.6,0.6-1.7,1.5c0,0,0,0,0,0h-2c0.1-1.8,1.4-3.2,3.7-3.2s3.5,1.2,3.5,2.7
			c0,1-0.7,1.9-1.7,2.2c1.2,0.2,2,1.2,2,2.3c0,1.9-1.4,3.1-3.9,3.1S542.6,480.4,542.5,478.4z"/>
		<path d="M551.4,476.8v-0.5c0-3.1,1.8-4.9,4.4-4.9s4.4,1.8,4.4,4.9v0.5c0,3.1-1.7,5-4.4,5S551.4,479.8,551.4,476.8z M557.9,476.8
			v-0.5c0-2-0.7-3.2-2.1-3.2s-2.1,1.1-2.1,3.2v0.5c0,2.1,0.7,3.2,2.1,3.2S557.9,478.8,557.9,476.8L557.9,476.8z"/>
		<path d="M566.3,481.7c-1.2,0.2-2.3-0.6-2.4-1.8c0-0.1,0-0.2,0-0.4c0-1.8,1.6-2.3,3.8-2.3h0.8v-0.3c0-0.9-0.3-1.3-1.2-1.3
			c-0.6-0.1-1.1,0.3-1.2,0.9c0,0,0,0.1,0,0.1h-1.9c0.1-1.8,1.5-2.5,3.2-2.5s3.1,0.7,3.1,2.7v3.3h0.8v1.4h-2.7v-1
			C568.1,481.3,567.2,481.7,566.3,481.7z M568.5,479v-0.6h-0.8c-1.2,0-1.8,0.3-1.8,1c0,0.5,0.3,0.9,1,0.9
			C567.8,480.3,568.5,479.8,568.5,479z"/>
		<path d="M578.6,475.7l-2.1,5.8h-2.3l-2.2-5.8h-0.8v-1.5h3.8v1.5h-0.8l1.4,4l1.3-4H576v-1.5h3.4v1.5L578.6,475.7z"/>
		<path d="M579.9,481.5v-1.4h0.8v-4.4h-0.8v-1.5h2.8v1.5c0.4-1,1.4-1.7,2.5-1.6v1.9c-1.6-0.1-2.5,0.4-2.5,1.8v2.2h0.9v1.4
			L579.9,481.5z"/>
		<path d="M586,481.5v-1.4h0.8v-4.4H586v-1.5h2.8v5.9h0.8v1.4L586,481.5z M586.6,472.1c0-0.7,0.5-1.2,1.1-1.2s1.2,0.5,1.2,1.1
			s-0.5,1.2-1.1,1.2c0,0,0,0,0,0C587.1,473.3,586.6,472.8,586.6,472.1C586.5,472.2,586.5,472.1,586.6,472.1L586.6,472.1z"/>
		<path d="M590.2,481.5v-1.4h0.8v-7.7h-0.8v-1.5h2.9v9.2h0.8v1.4H590.2z"/>
	</g>
	<path d="M33.8,463.9v-0.4c0-2.3,1.2-3.8,3.1-3.8s3.1,1.6,3.1,3.8v0.4c0,2.3-1.1,3.8-3,3.8S33.8,466.2,33.8,463.9z M39,463.9v-0.4
		c0-1.8-0.8-3-2.1-3s-2.1,1.1-2.1,3v0.4c0,2,0.8,3,2.1,3S39,465.8,39,463.9L39,463.9z"/>
	<g>
		<path d="M21.8,410.1v-0.8h1.6v-6.2l-1.8,1.3v-0.9l1.8-1.3h0.9v7.1h1.5v0.8L21.8,410.1z"/>
		<path d="M26.6,406.4V406c0-2.3,1.2-3.8,3.1-3.8s3.1,1.6,3.1,3.8v0.4c0,2.3-1.1,3.8-3,3.8S26.6,408.7,26.6,406.4z M31.8,406.4V406
			c0-1.8-0.8-3-2.1-3s-2.1,1.1-2.1,3v0.4c0,2,0.8,3,2.1,3S31.8,408.4,31.8,406.4L31.8,406.4z"/>
		<path d="M33.8,406.4V406c0-2.3,1.2-3.8,3.1-3.8s3.1,1.6,3.1,3.8v0.4c0,2.3-1.1,3.8-3,3.8S33.8,408.7,33.8,406.4z M39,406.4V406
			c0-1.8-0.8-3-2.1-3s-2.1,1.1-2.1,3v0.4c0,2,0.8,3,2.1,3S39,408.4,39,406.4L39,406.4z"/>
	</g>
	<g>
		<path d="M24.7,350.6h0.9v2h-5.4v-0.4l3-3c0.7-0.6,1.1-1.4,1.1-2.3c0.1-0.7-0.4-1.3-1.2-1.4c-0.1,0-0.2,0-0.2,0
			c-0.9,0-1.5,0.5-1.6,1.8h-0.9c0-1.4,1-2.5,2.4-2.5c0.1,0,0.1,0,0.2,0c1.2-0.1,2.2,0.7,2.4,1.9c0,0.1,0,0.2,0,0.3
			c-0.1,1.1-0.7,2.2-1.6,2.9l-2.1,2.1h3.1L24.7,350.6z"/>
		<path d="M26.6,349v-0.4c0-2.3,1.2-3.8,3.1-3.8s3.1,1.5,3.1,3.8v0.4c0,2.3-1.1,3.8-3,3.8S26.6,351.3,26.6,349z M31.8,349v-0.4
			c0-1.8-0.8-3-2.1-3s-2.1,1.1-2.1,3v0.4c0,2,0.8,3,2.1,3S31.8,350.9,31.8,349L31.8,349z"/>
		<path d="M33.8,349v-0.4c0-2.3,1.2-3.8,3.1-3.8s3.1,1.5,3.1,3.8v0.4c0,2.3-1.1,3.8-3,3.8S33.8,351.3,33.8,349z M39,349v-0.4
			c0-1.8-0.8-3-2.1-3s-2.1,1.1-2.1,3v0.4c0,2,0.8,3,2.1,3S39,350.9,39,349L39,349z"/>
	</g>
	<g>
		<path d="M19.9,292.9h0.9c0,0.9,0.8,1.7,1.8,1.7c0,0,0.1,0,0.1,0c1.2,0,1.8-0.6,1.8-1.5s-0.5-1.5-1.7-1.5h-0.6v-0.8h0.5
			c1,0,1.5-0.5,1.5-1.3c0-0.7-0.5-1.3-1.2-1.3c-0.1,0-0.1,0-0.2,0c-0.9-0.1-1.7,0.6-1.7,1.5h-0.8c0.1-1.3,1.2-2.4,2.6-2.3
			c1.2-0.1,2.2,0.8,2.4,1.9c0,0,0,0.1,0,0.1c0,0.8-0.5,1.5-1.2,1.7c0.9,0.2,1.6,1,1.5,2c0,1.4-1.2,2.3-2.8,2.3
			c-1.4,0.1-2.6-0.9-2.7-2.3C19.9,293,19.9,293,19.9,292.9z"/>
		<path d="M26.6,291.5v-0.4c0-2.3,1.2-3.8,3.1-3.8s3.1,1.5,3.1,3.8v0.4c0,2.3-1.1,3.8-3,3.8S26.6,293.8,26.6,291.5z M31.8,291.5
			v-0.4c0-1.8-0.8-3-2.1-3s-2.1,1.1-2.1,3v0.4c0,2,0.8,3,2.1,3S31.8,293.5,31.8,291.5L31.8,291.5z"/>
		<path d="M33.8,291.5v-0.4c0-2.3,1.2-3.8,3.1-3.8s3.1,1.5,3.1,3.8v0.4c0,2.3-1.1,3.8-3,3.8S33.8,293.8,33.8,291.5z M39,291.5v-0.4
			c0-1.8-0.8-3-2.1-3s-2.1,1.1-2.1,3v0.4c0,2,0.8,3,2.1,3S39,293.5,39,291.5L39,291.5z"/>
	</g>
	<g>
		<path d="M22.5,237.8V237h1.1v-1.1h-4v-0.4l3.6-5.6h1.3v5.3h1.1v0.7h-1.1v1.1h1v0.8L22.5,237.8z M23.6,235.2v-4.5l-2.9,4.6
			L23.6,235.2z"/>
		<path d="M26.6,234.1v-0.4c0-2.3,1.2-3.8,3.1-3.8s3.1,1.5,3.1,3.8v0.4c0,2.3-1.1,3.8-3,3.8S26.6,236.4,26.6,234.1z M31.8,234.1
			v-0.4c0-1.8-0.8-3-2.1-3s-2.1,1.1-2.1,3v0.4c0,2,0.8,3,2.1,3S31.8,236,31.8,234.1L31.8,234.1z"/>
		<path d="M33.8,234.1v-0.4c0-2.3,1.2-3.8,3.1-3.8s3.1,1.6,3.1,3.8v0.4c0,2.3-1.1,3.8-3,3.8S33.8,236.4,33.8,234.1z M39,234.1v-0.4
			c0-1.8-0.8-3-2.1-3s-2.1,1.1-2.1,3v0.4c0,2,0.8,3,2.1,3S39,236,39,234.1L39,234.1z"/>
	</g>
	<g>
		<path d="M20.2,178.2h0.9c0,0.8,0.7,1.5,1.5,1.5c0.1,0,0.1,0,0.2,0c0.9,0,1.7-0.7,1.7-1.6c0-0.1,0-0.2,0-0.3
			c0.1-0.9-0.5-1.7-1.4-1.8c-0.1,0-0.1,0-0.2,0c-0.7-0.1-1.4,0.2-1.9,0.8h-0.4v-4.3h4.4v1.6h-0.9v-0.8h-2.7v2.5
			c1.1-0.9,2.7-0.7,3.5,0.4c0.4,0.5,0.5,1,0.5,1.6c0.1,1.4-1.1,2.6-2.5,2.7c-0.1,0-0.2,0-0.2,0c-1.3,0.2-2.4-0.8-2.6-2
			C20.3,178.3,20.3,178.2,20.2,178.2z"/>
		<path d="M26.6,176.6v-0.4c0-2.3,1.2-3.8,3.1-3.8s3.1,1.6,3.1,3.8v0.4c0,2.3-1.1,3.8-3,3.8S26.6,178.9,26.6,176.6z M31.8,176.6
			v-0.4c0-1.8-0.8-3-2.1-3s-2.1,1.1-2.1,3v0.4c0,2,0.8,3,2.1,3S31.8,178.6,31.8,176.6L31.8,176.6z"/>
		<path d="M33.8,176.6v-0.4c0-2.3,1.2-3.8,3.1-3.8s3.1,1.5,3.1,3.8v0.4c0,2.3-1.1,3.8-3,3.8S33.8,178.9,33.8,176.6z M39,176.6v-0.4
			c0-1.8-0.8-3-2.1-3s-2.1,1.1-2.1,3v0.4c0,2,0.8,3,2.1,3S39,178.6,39,176.6L39,176.6z"/>
	</g>
	<g>
		<path d="M22.9,123c-2.1,0-2.8-1.6-2.8-3.6v-0.2c0-2.8,1.3-4.3,3.1-4.3c1.2-0.1,2.2,0.8,2.3,1.9h-0.9c-0.1-0.7-0.8-1.2-1.5-1.1
			c0,0,0,0,0,0c-1.2,0-2,1.1-2.1,3.1c0.4-0.7,1.2-1.1,2-1.1c1.4-0.1,2.5,1,2.6,2.4c0,0.1,0,0.1,0,0.2c0.1,1.4-1,2.6-2.4,2.6
			C23,123,22.9,123,22.9,123z M24.6,120.4c0.1-1-0.6-1.9-1.6-2s-1.9,0.6-2,1.6c0,0.1,0,0.2,0,0.2c-0.1,1,0.5,1.8,1.5,2
			c0.1,0,0.2,0,0.3,0c0.9,0,1.7-0.7,1.7-1.6C24.6,120.5,24.6,120.5,24.6,120.4z"/>
		<path d="M26.6,119.2v-0.4c0-2.3,1.2-3.8,3.1-3.8s3.1,1.6,3.1,3.8v0.5c0,2.3-1.1,3.8-3,3.8S26.6,121.4,26.6,119.2z M31.8,119.2
			v-0.4c0-1.8-0.8-3-2.1-3s-2.1,1.1-2.1,3v0.4c0,2,0.8,3,2.1,3S31.8,121.1,31.8,119.2L31.8,119.2z"/>
		<path d="M33.8,119.2v-0.4c0-2.3,1.2-3.8,3.1-3.8s3.1,1.6,3.1,3.8v0.5c0,2.3-1.1,3.8-3,3.8S33.8,121.4,33.8,119.2z M39,119.2v-0.4
			c0-1.8-0.8-3-2.1-3s-2.1,1.1-2.1,3v0.4c0,2,0.8,3,2.1,3S39,121.1,39,119.2L39,119.2z"/>
	</g>
	<g>
		<path d="M21.5,59.5h-0.9v-2H26v0.3l-2.9,7.5h-1l2.7-7.1h-3.4V59.5z"/>
		<path d="M26.6,61.7v-0.4c0-2.3,1.2-3.8,3.1-3.8s3.1,1.6,3.1,3.8v0.4c0,2.3-1.1,3.8-3,3.8S26.6,64,26.6,61.7z M31.8,61.7v-0.5
			c0-1.8-0.8-3-2.1-3s-2.1,1.1-2.1,3v0.4c0,2,0.8,3,2.1,3S31.8,63.7,31.8,61.7L31.8,61.7z"/>
		<path d="M33.8,61.7v-0.4c0-2.3,1.2-3.8,3.1-3.8S40,59,40,61.2v0.4c0,2.3-1.1,3.8-3,3.8S33.8,64,33.8,61.7z M39,61.7v-0.5
			c0-1.8-0.8-3-2.1-3s-2.1,1.1-2.1,3v0.4c0,2,0.8,3,2.1,3S39,63.7,39,61.7L39,61.7z"/>
	</g>
	<g>
		<path d="M20.2,5.7c0-0.9,0.6-1.7,1.5-2c-0.7-0.2-1.2-0.9-1.2-1.7c0.1-1.2,1.2-2.1,2.4-2c1.2-0.1,2.3,0.8,2.4,2
			c0,0.8-0.5,1.4-1.2,1.7c0.9,0.3,1.5,1.1,1.5,2c-0.1,1.4-1.2,2.4-2.6,2.3c0,0,0,0-0.1,0c-1.4,0.2-2.6-0.8-2.8-2.2
			C20.2,5.8,20.2,5.8,20.2,5.7z M24.7,5.7c0-0.9-0.7-1.6-1.5-1.6c-0.1,0-0.1,0-0.2,0c-0.9-0.1-1.6,0.6-1.7,1.5
			c-0.1,0.9,0.6,1.6,1.5,1.7c0.1,0,0.2,0,0.3,0c0.9,0.1,1.6-0.6,1.7-1.5C24.7,5.8,24.7,5.7,24.7,5.7z M24.4,2c0-0.7-0.6-1.3-1.4-1.3
			c0,0,0,0,0,0c-0.7-0.1-1.4,0.5-1.4,1.2c0,0,0,0.1,0,0.1c0,0.7,0.6,1.3,1.4,1.3c0,0,0,0,0.1,0c0.7,0.1,1.3-0.4,1.4-1.1
			C24.4,2.1,24.4,2.1,24.4,2z"/>
		<path d="M26.6,4.3V3.8c0-2.3,1.2-3.8,3.1-3.8s3.1,1.6,3.1,3.8v0.4c0,2.3-1.1,3.8-3,3.8S26.6,6.5,26.6,4.3z M31.8,4.3V3.8
			c0-1.8-0.8-3-2.1-3s-2.1,1.1-2.1,3v0.4c0,2,0.8,3,2.1,3S31.8,6.2,31.8,4.3L31.8,4.3z"/>
		<path d="M33.8,4.3V3.8C33.8,1.5,35,0,36.9,0S40,1.6,40,3.8v0.4C40,6.5,38.9,8,37,8S33.8,6.5,33.8,4.3z M39,4.2V3.8
			c0-1.8-0.8-3-2.1-3s-2.1,1.1-2.1,3v0.4c0,2,0.8,3,2.1,3S39,6.2,39,4.2z"/>
	</g>
	<polygon class="st1" points="591.2,464.3 52.5,464.3 52.5,85.7 57,92.6 61.5,53.5 66,61.5 70.5,23.6 75,29.9 79.5,102.3 84,98.9 
		88.4,69 92.9,28.8 97.4,109.8 101.9,98.9 106.4,97.1 110.9,103.5 115.4,108.6 119.9,81.6 124.4,52.9 128.9,138.5 133.3,114.9 
		137.8,106.3 142.3,140.2 146.8,121.3 151.3,83.4 155.8,60.9 160.3,171.8 164.8,93.7 169.3,71.3 173.8,102.3 178.2,102.3 
		182.7,116.1 187.2,69.6 191.7,113.8 196.2,63.2 200.7,66.7 205.2,96.6 209.7,94.3 214.1,73 218.6,61.5 223.1,108.6 227.6,78.2 
		232.1,73 236.6,86.8 241.1,81.6 245.6,63.2 250.1,75.9 254.6,120.1 259,46 263.5,55.2 268,81.1 272.5,84.5 277,66.1 281.5,34 
		286,90.8 290.5,32.8 295,58.1 299.5,91.4 303.9,91.4 308.4,65.5 312.9,49.5 317.4,106.9 321.9,132.2 326.4,145.4 330.9,167.8 
		335.4,162.6 339.9,156.9 344.3,144.8 348.8,193.1 353.3,148.9 357.8,169 362.3,187.9 366.8,186.8 371.3,183.9 375.8,168.4 
		380.3,229.9 384.8,223 389.2,278.7 393.7,307.4 398.2,323.5 402.7,340.2 407.2,342.5 411.7,374.6 416.2,372.3 420.7,414.3 
		425.1,423.5 429.6,423.5 434.1,428.6 438.6,429.2 443.1,433.8 447.6,444.2 452.1,448.2 456.6,447 461.1,447.6 465.5,451 470,448.2 
		474.5,451.6 479,449.3 483.5,454.5 488,449.9 492.5,449.3 497,451 501.5,451 506,451 510.5,449.3 514.9,456.2 519.4,451 
		523.9,452.8 528.4,451.6 532.9,452.2 537.4,450.5 541.9,449.9 546.4,452.8 550.8,452.2 555.3,449.3 559.8,451.6 564.3,451 
		568.8,449.9 573.3,449.9 577.8,453.3 582.3,449.3 586.8,449.9 591.2,448.8 	"/>
	<polygon class="st2" points="591.2,464.3 52.5,464.3 52.5,196.5 57,200 61.5,185.6 66,174.1 70.5,159.2 75,162.1 79.5,208.6 
		84,216.1 88.4,186.2 92.9,163.2 97.4,209.8 101.9,203.4 106.4,214.4 110.9,209.8 115.4,212 119.9,193.7 124.4,178.2 128.9,223.5 
		133.3,209.8 137.8,217.8 142.3,225.8 146.8,225.3 151.3,192.5 155.8,183.9 160.3,243.6 164.8,208 169.3,190.2 173.8,208.6 
		178.2,211.5 182.7,216.6 187.2,196 191.7,215.5 196.2,184.5 200.7,186.2 205.2,206.9 209.7,206.9 214.1,193.7 218.6,185.6 
		223.1,211.5 227.6,198.3 232.1,193.7 236.6,192.5 241.1,194.8 245.6,186.2 250.1,194.8 254.6,223 259,171.8 263.5,176.4 268,188.5 
		272.5,197.1 277,181.6 281.5,163.2 286,198.8 290.5,162.1 295,176.4 299.5,190.2 303.9,190.2 308.4,176.4 312.9,171.3 317.4,198.3 
		321.9,220.7 326.4,233.3 330.9,248.8 335.4,247.7 339.9,240.2 344.3,234.5 348.8,260.3 353.3,235.6 357.8,255.7 362.3,271.8 
		366.8,273.5 371.3,267.8 375.8,258 380.3,285 384.8,286.7 389.2,322.9 393.7,347.6 398.2,355.7 402.7,368.9 407.2,367.2 
		411.7,391.3 416.2,390.1 420.7,426.9 425.1,432.1 429.6,430.9 434.1,433.2 438.6,435.5 443.1,439.6 447.6,447 452.1,449.3 
		456.6,449.3 461.1,447.6 465.5,451 470,448.2 474.5,451.6 479,449.3 483.5,454.5 488,449.9 492.5,449.3 497,451 501.5,451 506,451 
		510.5,449.3 514.9,456.2 519.4,451 523.9,452.8 528.4,451.6 532.9,452.2 537.4,450.5 541.9,449.9 546.4,452.8 550.8,452.2 
		555.3,449.3 559.8,451.6 564.3,451 568.8,449.9 573.3,449.9 577.8,453.3 582.3,449.3 586.8,449.9 591.2,448.8 	"/>
	<line class="st3" x1="52.5" y1="464.3" x2="591.3" y2="464.3"/>
	<line class="st4" x1="50.3" y1="349.4" x2="591.3" y2="349.4"/>
	<line class="st4" x1="50.3" y1="291.9" x2="591.3" y2="291.9"/>
	<line class="st4" x1="50.3" y1="234.5" x2="591.3" y2="234.5"/>
	<line class="st4" x1="50.3" y1="177" x2="591.3" y2="177"/>
	<line class="st4" x1="50.3" y1="119.6" x2="591.3" y2="119.6"/>
	<line class="st4" x1="50.3" y1="62.1" x2="591.3" y2="62.1"/>
	<line class="st4" x1="50.3" y1="4.6" x2="591.3" y2="4.6"/>
	<line class="st4" x1="50.3" y1="406.8" x2="591.3" y2="406.8"/>
	<line class="st5" x1="394.1" y1="106.8" x2="394.1" y2="483.7"/>
	<g>
		<path d="M377.2,78.9h3.2c0.6,0,1.2,0.1,1.7,0.3c0.5,0.2,0.9,0.5,1.3,0.9c0.4,0.4,0.7,0.9,0.9,1.4c0.2,0.6,0.3,1.2,0.3,1.8
			c0,0.6-0.1,1.2-0.3,1.8c-0.2,0.5-0.5,1-0.9,1.4c-0.4,0.4-0.8,0.7-1.3,0.9c-0.5,0.2-1.1,0.3-1.7,0.3h-3.2V78.9z M380.4,86.6
			c0.4,0,0.8-0.1,1.1-0.2c0.3-0.2,0.6-0.4,0.9-0.7c0.2-0.3,0.4-0.6,0.6-1c0.1-0.4,0.2-0.9,0.2-1.4c0-0.5-0.1-0.9-0.2-1.3
			c-0.1-0.4-0.3-0.7-0.6-1c-0.2-0.3-0.5-0.5-0.9-0.7c-0.3-0.2-0.7-0.2-1.1-0.2h-1.9v6.6L380.4,86.6z"/>
		<path d="M391.8,85.6c0,0.3-0.1,0.6-0.2,0.9c-0.1,0.3-0.3,0.5-0.6,0.7c-0.3,0.2-0.5,0.4-0.9,0.5c-0.4,0.1-0.7,0.2-1.1,0.2
			c-0.5,0-0.9-0.1-1.4-0.2c-0.4-0.1-0.7-0.4-0.9-0.7c-0.3-0.3-0.4-0.7-0.5-1.1c-0.1-0.4-0.2-0.9-0.2-1.4c0-0.5,0.1-0.9,0.2-1.4
			c0.1-0.4,0.3-0.7,0.6-1.1c0.3-0.3,0.6-0.5,0.9-0.7c0.4-0.2,0.8-0.3,1.3-0.2c0.4,0,0.9,0.1,1.3,0.2c0.3,0.1,0.6,0.4,0.9,0.7
			c0.2,0.3,0.4,0.6,0.5,1c0.1,0.5,0.2,0.9,0.2,1.4v0.2h-4.5c0,0.6,0.1,1.1,0.5,1.6c0.3,0.4,0.7,0.5,1.2,0.5c0.4,0,0.8-0.1,1.1-0.3
			c0.3-0.2,0.5-0.6,0.5-0.9L391.8,85.6z M390.6,83.9c0-0.4-0.2-0.9-0.4-1.2c-0.3-0.3-0.7-0.5-1.2-0.5c-0.4,0-0.8,0.1-1.1,0.4
			c-0.3,0.3-0.5,0.8-0.5,1.3L390.6,83.9z M389.7,78.9h1.6l-1.8,1.7h-1L389.7,78.9z"/>
		<path d="M393.6,78.9h1.3v3.5l0,0c0.2-0.3,0.5-0.6,0.8-0.8c0.4-0.2,0.8-0.3,1.3-0.3c0.4,0,0.8,0.1,1.2,0.3c0.3,0.2,0.6,0.4,0.9,0.7
			c0.2,0.3,0.4,0.7,0.5,1.1c0.2,0.9,0.2,1.8,0,2.7c-0.1,0.4-0.3,0.7-0.5,1.1c-0.2,0.3-0.5,0.5-0.9,0.7c-0.4,0.2-0.8,0.2-1.2,0.2
			c-0.4,0-0.9-0.1-1.3-0.3c-0.3-0.2-0.6-0.5-0.8-0.8l0,0v1h-1.3V78.9z M396.6,86.9c0.5,0,1-0.2,1.3-0.6c0.6-1.1,0.6-2.4,0-3.5
			c-0.3-0.4-0.8-0.6-1.3-0.6c-0.5,0-1,0.2-1.3,0.6c-0.3,0.5-0.5,1.1-0.4,1.7c0,0.6,0.1,1.2,0.4,1.7
			C395.6,86.7,396.1,86.9,396.6,86.9L396.6,86.9z"/>
		<path d="M401.4,81.3h1.3v3.9c0,0.4,0.1,0.8,0.3,1.2c0.2,0.3,0.6,0.4,0.9,0.4c0.4,0,0.9-0.2,1.2-0.5c0.3-0.4,0.5-0.8,0.4-1.3v-3.7
			h1.3v6.4h-1.3v-1l0,0c-0.2,0.3-0.5,0.6-0.8,0.8c-0.4,0.2-0.8,0.3-1.2,0.3c-0.6,0.1-1.2-0.2-1.6-0.6c-0.3-0.5-0.5-1.1-0.5-1.7
			L401.4,81.3z"/>
		<path d="M408.9,82.4H408v-1.1h0.9v-1.6h1.3v1.6h1.5v1.1h-1.5v3.4c0,0.3,0.1,0.5,0.2,0.7c0.2,0.2,0.4,0.2,0.7,0.2h0.3h0.3v1.1
			l-0.4,0.1c-0.1,0-0.3,0-0.5,0c-0.5,0-1-0.1-1.5-0.5c-0.4-0.4-0.6-1-0.5-1.6L408.9,82.4z"/>
		<path d="M352.7,98.7L352.7,98.7c-0.2,0.3-0.5,0.6-0.8,0.8c-0.4,0.2-0.8,0.3-1.3,0.3c-0.4,0-0.8-0.1-1.2-0.2
			c-0.3-0.2-0.6-0.4-0.9-0.7c-0.2-0.3-0.4-0.7-0.5-1.1c-0.1-0.4-0.2-0.9-0.2-1.3c0-0.5,0.1-0.9,0.2-1.4c0.1-0.4,0.3-0.7,0.5-1.1
			c0.2-0.3,0.5-0.5,0.9-0.7c0.4-0.2,0.8-0.3,1.2-0.2c0.4,0,0.9,0.1,1.3,0.3c0.3,0.2,0.6,0.5,0.8,0.8l0,0v-3.5h1.3v8.9h-1.3
			L352.7,98.7z M351,98.9c0.5,0,1-0.2,1.3-0.6c0.3-0.5,0.5-1.1,0.4-1.8c0-0.6-0.1-1.2-0.4-1.7c-0.3-0.4-0.8-0.7-1.3-0.6
			c-0.5,0-1,0.2-1.3,0.6c-0.4,0.5-0.5,1.1-0.5,1.8c0,0.6,0.1,1.2,0.5,1.7C350,98.7,350.5,98.9,351,98.9L351,98.9z"/>
		<path d="M356.1,93.3h1.3v3.9c0,0.4,0.1,0.8,0.3,1.2c0.2,0.3,0.6,0.4,0.9,0.4c0.4,0,0.9-0.2,1.2-0.5c0.3-0.4,0.5-0.8,0.4-1.3v-3.7
			h1.3v6.4h-1.3v-1l0,0c-0.2,0.3-0.5,0.6-0.8,0.8c-0.4,0.2-0.8,0.3-1.2,0.3c-0.6,0.1-1.2-0.2-1.6-0.6c-0.3-0.5-0.5-1.1-0.5-1.7
			L356.1,93.3z"/>
		<path d="M372.5,97.4c0,0.7-0.3,1.4-0.8,1.9c-0.6,0.4-1.3,0.7-2,0.6c-0.5,0-0.9-0.1-1.3-0.2c-0.4-0.1-0.7-0.4-1-0.7
			c-0.3-0.3-0.4-0.7-0.6-1.1c-0.1-0.4-0.2-0.9-0.2-1.4c0-0.5,0.1-0.9,0.2-1.4c0.1-0.4,0.3-0.7,0.6-1.1c0.3-0.3,0.6-0.5,0.9-0.7
			c0.4-0.2,0.9-0.2,1.3-0.2c0.7,0,1.4,0.2,2,0.6c0.5,0.5,0.8,1.2,0.8,1.9h-1.3c0-0.4-0.2-0.8-0.5-1.1c-0.3-0.3-0.7-0.4-1.1-0.4
			c-0.5,0-1,0.2-1.3,0.6c-0.3,0.5-0.5,1.1-0.5,1.7c0,0.6,0.1,1.2,0.4,1.7c0.6,0.7,1.6,0.8,2.4,0.2c0.3-0.3,0.4-0.7,0.5-1.1
			L372.5,97.4z"/>
		<path d="M377.1,99.9c-0.5,0-0.9-0.1-1.3-0.2c-0.4-0.2-0.7-0.4-1-0.7c-0.3-0.3-0.5-0.7-0.6-1.1c-0.2-0.4-0.2-0.9-0.2-1.4
			c0-0.5,0.1-0.9,0.2-1.4c0.1-0.4,0.4-0.8,0.6-1.1c0.3-0.3,0.6-0.5,1-0.7c0.4-0.2,0.9-0.2,1.3-0.2c0.5,0,0.9,0.1,1.3,0.2
			c0.8,0.3,1.4,0.9,1.7,1.7c0.2,0.4,0.2,0.9,0.2,1.4c0,0.5-0.1,0.9-0.2,1.4c-0.1,0.4-0.4,0.8-0.6,1.1c-0.3,0.3-0.6,0.5-1,0.7
			C378,99.8,377.6,99.9,377.1,99.9z M377.1,98.9c0.5,0,1.1-0.2,1.4-0.6c0.4-0.5,0.5-1.1,0.5-1.7c0-0.6-0.1-1.2-0.5-1.7
			c-0.7-0.8-1.9-0.8-2.6-0.2c-0.1,0.1-0.1,0.1-0.2,0.2c-0.4,0.5-0.5,1.1-0.5,1.7c0,0.6,0.1,1.2,0.5,1.7
			C376,98.7,376.6,98.9,377.1,98.9z"/>
		<path d="M382,93.3h1.3v1l0,0c0.2-0.3,0.5-0.6,0.8-0.8c0.4-0.2,0.8-0.3,1.3-0.3c0.6-0.1,1.2,0.2,1.6,0.6c0.3,0.5,0.5,1.1,0.5,1.7
			v4.2h-1.3v-3.8c0-0.4-0.1-0.8-0.3-1.2c-0.2-0.3-0.6-0.4-1-0.4c-0.5,0-0.9,0.1-1.2,0.5c-0.3,0.4-0.5,0.8-0.5,1.3v3.7H382V93.3z"/>
		<path d="M389.7,94.4h-0.9v-1.1h0.9v-0.6c-0.1-0.6,0.1-1.1,0.5-1.6c0.4-0.3,0.9-0.5,1.4-0.5c0.1,0,0.3,0,0.4,0c0.1,0,0.3,0,0.4,0.1
			v1.1c-0.1,0-0.2,0-0.3-0.1h-0.3c-0.2,0-0.5,0-0.6,0.2c-0.2,0.2-0.2,0.4-0.2,0.7v0.6h1.4v1.1H391v5.4h-1.3V94.4z"/>
		<path d="M394.3,92.2c-0.2,0-0.4-0.1-0.6-0.2c-0.2-0.2-0.2-0.4-0.2-0.6c0-0.2,0.1-0.4,0.2-0.6c0.2-0.2,0.4-0.3,0.6-0.2
			c0.2,0,0.4,0.1,0.6,0.2c0.2,0.2,0.2,0.4,0.2,0.6c0,0.2-0.1,0.4-0.2,0.6C394.8,92.1,394.5,92.2,394.3,92.2z M393.7,93.3h1.3v6.4
			h-1.3L393.7,93.3z"/>
		<path d="M397,93.3h1.3v1l0,0c0.2-0.3,0.5-0.6,0.8-0.8c0.4-0.2,0.8-0.3,1.3-0.3c0.6-0.1,1.2,0.2,1.6,0.6c0.3,0.5,0.5,1.1,0.5,1.7
			v4.2h-1.3v-3.8c0-0.4-0.1-0.8-0.3-1.2c-0.2-0.3-0.6-0.4-1-0.4c-0.5,0-0.9,0.1-1.2,0.5c-0.3,0.4-0.5,0.8-0.5,1.3v3.7H397V93.3z"/>
		<path d="M410,97.6c0,0.3-0.1,0.6-0.2,0.9c-0.1,0.3-0.3,0.5-0.6,0.7c-0.3,0.2-0.5,0.4-0.9,0.5c-0.4,0.1-0.7,0.2-1.1,0.2
			c-0.5,0-0.9-0.1-1.4-0.2c-0.4-0.1-0.7-0.4-0.9-0.7c-0.3-0.3-0.4-0.7-0.5-1.1c-0.1-0.4-0.2-0.9-0.2-1.4c0-0.5,0.1-0.9,0.2-1.4
			c0.1-0.4,0.3-0.7,0.6-1.1c0.3-0.3,0.6-0.5,0.9-0.7c0.8-0.3,1.8-0.3,2.6,0c0.3,0.1,0.6,0.4,0.9,0.7c0.2,0.3,0.4,0.6,0.5,1
			c0.1,0.5,0.2,0.9,0.2,1.4v0.2h-4.5c0,0.6,0.1,1.1,0.5,1.6c0.3,0.4,0.7,0.5,1.2,0.5c0.4,0,0.8-0.1,1.1-0.3c0.3-0.2,0.5-0.6,0.5-0.9
			L410,97.6z M408.7,95.9c0-0.4-0.1-0.9-0.4-1.2c-0.3-0.3-0.7-0.5-1.1-0.5c-0.4,0-0.8,0.1-1.1,0.4c-0.3,0.3-0.5,0.8-0.5,1.3H408.7z"
			/>
		<path d="M411.8,93.3h1.3v1l0,0c0.2-0.3,0.4-0.6,0.7-0.8c0.4-0.2,0.8-0.3,1.2-0.3c0.4,0,0.8,0.1,1.2,0.3c0.3,0.2,0.5,0.5,0.6,0.9
			l0,0c0.2-0.4,0.5-0.7,0.8-0.9c0.4-0.2,0.8-0.3,1.2-0.3c0.6-0.1,1.1,0.2,1.5,0.6c0.4,0.5,0.5,1.1,0.5,1.7v4.2h-1.3v-3.8
			c0-0.4-0.1-0.8-0.3-1.2c-0.2-0.3-0.5-0.4-0.9-0.4c-0.4,0-0.8,0.1-1.1,0.4c-0.3,0.4-0.4,0.8-0.4,1.3v3.8h-1.3v-3.8
			c0-0.4-0.1-0.8-0.2-1.2c-0.2-0.3-0.5-0.4-0.9-0.4c-0.4,0-0.8,0.1-1.1,0.5c-0.3,0.4-0.4,0.8-0.4,1.3v3.7h-1.3V93.3z"/>
		<path d="M428.3,97.6c0,0.3-0.1,0.6-0.2,0.9c-0.1,0.3-0.3,0.5-0.6,0.7c-0.3,0.2-0.5,0.4-0.9,0.5c-0.4,0.1-0.7,0.2-1.1,0.2
			c-0.5,0-0.9-0.1-1.4-0.2c-0.4-0.1-0.7-0.4-0.9-0.7c-0.3-0.3-0.4-0.7-0.5-1.1c-0.1-0.4-0.2-0.9-0.2-1.4c0-0.5,0.1-0.9,0.2-1.4
			c0.1-0.4,0.3-0.7,0.6-1.1c0.3-0.3,0.6-0.5,0.9-0.7c0.8-0.3,1.8-0.3,2.6,0c0.3,0.1,0.6,0.4,0.9,0.7c0.2,0.3,0.4,0.6,0.5,1
			c0.1,0.5,0.2,0.9,0.1,1.4v0.2h-4.5c0,0.6,0.1,1.1,0.5,1.6c0.3,0.3,0.7,0.5,1.2,0.5c0.4,0,0.8-0.1,1.1-0.3c0.3-0.2,0.5-0.6,0.5-0.9
			L428.3,97.6z M427,95.9c0-0.4-0.1-0.9-0.4-1.2c-0.3-0.3-0.7-0.5-1.1-0.5c-0.4,0-0.8,0.1-1.2,0.4c-0.3,0.3-0.5,0.8-0.5,1.3H427z"/>
		<path d="M430.1,93.3h1.3v1l0,0c0.2-0.3,0.5-0.6,0.8-0.8c0.4-0.2,0.8-0.3,1.3-0.3c0.6-0.1,1.2,0.2,1.6,0.6c0.3,0.5,0.5,1.1,0.5,1.7
			v4.2h-1.3v-3.8c0-0.4-0.1-0.8-0.3-1.2c-0.2-0.3-0.6-0.4-1-0.4c-0.5,0-0.9,0.1-1.2,0.5c-0.3,0.4-0.5,0.8-0.5,1.3v3.7H430
			L430.1,93.3z"/>
		<path d="M437.7,94.4h-0.9v-1.1h0.9v-1.6h1.3v1.6h1.5v1.1H439v3.4c0,0.3,0.1,0.5,0.2,0.7c0.2,0.2,0.4,0.2,0.7,0.2h0.3h0.3v1.1
			l-0.4,0.1c-0.2,0-0.3,0-0.5,0c-1,0.1-1.9-0.5-2-1.5c0-0.2,0-0.3,0-0.5V94.4z"/>
	</g>
	<g>
		<path class="st0" d="M152.5,318.2c0-3,1.2-4.5,4.3-4.5s4.3,1.3,4.3,4.2v2.1h-2.7v-1.9c0-1.5-0.5-2-1.6-2s-1.6,0.5-1.6,2.3v5.3
			c0,1.8,0.5,2.3,1.6,2.3s1.6-0.5,1.6-2v-2.1h2.7v2.4c0,3.1-1.3,4.3-4.3,4.3s-4.3-1.2-4.3-4.5V318.2z"/>
		<path class="st0" d="M168.1,322.2h-2.9v6.3h-2.7v-14.7h2.7v5.7h2.9v-5.7h2.7v14.7h-2.7V322.2z"/>
		<path class="st0" d="M177.4,324.9h-2.3l-0.5,3.6H172l2.1-14.7h4.2l2.1,14.7h-2.6L177.4,324.9z M176.2,316.3l-0.9,6.4h1.7
			L176.2,316.3z"/>
		<path class="st0" d="M181.7,328.4v-14.7h3.9c2.9,0,3.7,0.9,3.7,3.5v2c0.2,1.1-0.3,2.2-1.3,2.8l1.5,6.3h-2.8l-1.3-5.9h-1.1v5.9
			L181.7,328.4z M184.4,316.2v4h1.2c0.8,0,1.1-0.2,1.1-1.3v-1.4c0-1.1-0.3-1.3-1.1-1.3L184.4,316.2z"/>
		<path class="st0" d="M190.8,313.8h2.7v12.1h3.9v2.6h-6.6L190.8,313.8z"/>
		<path class="st0" d="M198.8,313.8h6.6v2.6h-3.9v3.3h3.7v2.4h-3.7v3.8h3.9v2.6h-6.6V313.8z"/>
		<path class="st0" d="M214.9,325c0,2.5-1.3,3.5-4.2,3.5s-4.2-1-4.2-3.8v-1.6h2.7v1.4c0,1.3,0.5,1.7,1.6,1.7s1.5-0.3,1.5-1.3v-1.3
			c0-0.8-0.3-1-2.1-1.4c-2.7-0.7-3.6-1.3-3.6-3.5v-1.5c0-2.5,1.3-3.5,4.2-3.5s4.2,1.2,4.2,3.8v1.6h-2.7v-1.4c0-1.1-0.5-1.6-1.6-1.6
			s-1.5,0.4-1.5,1.3v1.2c0,0.8,0.3,1,2.2,1.4c2.6,0.6,3.5,1.3,3.5,3.5V325z"/>
		<path class="st0" d="M216,321.9v-2h3.1v2H216z"/>
		<path class="st0" d="M220.4,313.8h4c3.2,0,4.3,1.3,4.3,4.6v5.5c0,3.3-1.1,4.6-4.3,4.6h-4V313.8z M223.1,316.2v9.7h1.3
			c1.1,0,1.7-0.5,1.7-2.5v-4.9c0-1.9-0.5-2.4-1.7-2.4H223.1z"/>
		<path class="st0" d="M230.2,313.8h6.6v2.6h-3.9v3.3h3.8v2.4h-3.8v3.8h3.9v2.6h-6.6V313.8z"/>
		<path class="st0" d="M238,321.9v-2h3.1v2H238z"/>
		<path class="st0" d="M242.4,324v-5.9c0-3,1.2-4.4,4.3-4.4s4.3,1.3,4.3,4v1.9h-2.7v-1.6c0-1.2-0.5-1.7-1.6-1.7s-1.6,0.5-1.6,2.3
			v5.3c0,1.8,0.5,2.3,1.6,2.3c0.9,0,1.6-0.3,1.6-1.8v-1.5h-1.7v-2.1h4.4v7.7h-1l-0.5-2c-0.3,1.3-1.2,2.1-3.1,2.1
			C243.6,328.5,242.4,327.3,242.4,324z"/>
		<path class="st0" d="M257.6,324.9h-2.3l-0.5,3.6h-2.6l2.1-14.7h4.2l2.1,14.7h-2.6L257.6,324.9z M256.5,316.3l-0.9,6.4h1.7
			L256.5,316.3z"/>
		<path class="st0" d="M261.5,323.8v-10h2.7v9.7c0,2,0.4,2.6,1.4,2.6s1.4-0.6,1.4-2.6v-9.7h2.7v10c0,3.5-1,4.7-4.1,4.7
			S261.5,327.4,261.5,323.8z"/>
		<path class="st0" d="M271.1,313.8h2.7v12.1h3.9v2.6h-6.6V313.8z"/>
		<path class="st0" d="M279.1,313.8h2.7v12.1h3.9v2.6h-6.6V313.8z"/>
		<path class="st0" d="M287,313.8h6.6v2.6h-3.9v3.3h3.7v2.4h-3.7v3.8h3.9v2.6H287V313.8z"/>
	</g>
	<g>
		<path class="st0" d="M211.2,155.9c-3,0-4.3-1.5-4.3-4.5v-5.9c0-3,1.3-4.5,4.3-4.5s4.3,1.5,4.3,4.5v5.9
			C215.6,154.5,214.2,155.9,211.2,155.9z M211.2,143.6c-1.1,0-1.7,0.5-1.7,2.3v5.3c0,1.8,0.5,2.3,1.7,2.3s1.7-0.5,1.7-2.3v-5.3
			C212.9,144.1,212.4,143.6,211.2,143.6z"/>
		<path class="st0" d="M217,155.9v-14.7h3.9c2.9,0,3.7,0.9,3.7,3.5v2c0,1.3-0.3,2.3-1.3,2.9l1.5,6.3h-2.8l-1.3-5.9h-1.1v5.9H217z
			 M219.7,143.6v4h1.2c0.8,0,1.1-0.2,1.1-1.3v-1.4c0-1.1-0.3-1.3-1.1-1.3L219.7,143.6z"/>
		<path class="st0" d="M226.1,141.2h2.7v12.1h3.9v2.6H226L226.1,141.2z"/>
		<path class="st0" d="M234,155.9v-5.1l-2.8-9.6h2.6l1.5,5.6l1.5-5.6h2.6l-2.8,9.6v5.1L234,155.9z"/>
	</g>
</g>
</svg>
