<?xml version="1.0" encoding="utf-8"?>
<!-- Generator: Adobe Illustrator 24.0.3, SVG Export Plug-In . SVG Version: 6.00 Build 0)  -->
<svg version="1.1" id="Calque_1" xmlns="http://www.w3.org/2000/svg" xmlns:xlink="http://www.w3.org/1999/xlink" x="0px" y="0px"
	 viewBox="0 0 600 537.7" style="enable-background:new 0 0 600 537.7;" xml:space="preserve">
<style type="text/css">
	.st0{fill:#FFFFFF;}
	.st1{fill:none;stroke:#000000;stroke-miterlimit:10;}
	.st2{fill:none;stroke:#231F20;stroke-width:0.5;stroke-miterlimit:10;stroke-dasharray:5,2;}
	.st3{fill:none;stroke:#C6C6C6;stroke-width:0.5;stroke-miterlimit:10;}
	.st4{fill:none;}
	.st5{fill:#E3234A;}
	.st6{fill:none;stroke:#231F20;stroke-width:2;stroke-miterlimit:10;}
</style>
<g id="FOND">
	<rect class="st0" width="600" height="576"/>
</g>
<g id="CHARTE">
	<g>
		<line class="st1" x1="339.7" y1="31.3" x2="339.7" y2="55.1"/>
		<polygon points="335.6,51.8 336.4,51.1 339.7,54.7 343.1,51.1 343.8,51.8 339.7,56.2 		"/>
	</g>
</g>
<line class="st2" x1="71.6" y1="517.6" x2="71.6" y2="63"/>
<g>
	<line class="st3" x1="67.4" y1="91.1" x2="567.8" y2="91.1"/>
	<line class="st3" x1="66.5" y1="162.6" x2="566.9" y2="162.6"/>
	<line class="st3" x1="66.1" y1="232.9" x2="566.5" y2="232.9"/>
	<line class="st3" x1="66.9" y1="304.4" x2="567.3" y2="304.4"/>
	<line class="st3" x1="66.1" y1="446.2" x2="566.5" y2="446.2"/>
	<line class="st3" x1="66.1" y1="375.8" x2="566.5" y2="375.8"/>
</g>
<g>
	<line class="st1" x1="66.5" y1="517.6" x2="564.5" y2="517.6"/>
	<g>
		<path d="M52,522.7v-0.4c0-2.3,1.2-3.8,3.1-3.8s3.1,1.5,3.1,3.8v0.4c0,2.3-1.1,3.8-3,3.8S52,525,52,522.7z M57.2,522.7v-0.4
			c0-1.8-0.8-3-2.1-3s-2.1,1.1-2.1,3v0.4c0,2,0.8,3,2.1,3S57.2,524.6,57.2,522.7L57.2,522.7z"/>
		<g>
			<path d="M31.1,453.1H32c0,0.8,0.7,1.5,1.5,1.5c0.1,0,0.1,0,0.2,0c0.9,0,1.7-0.7,1.7-1.6c0-0.1,0-0.2,0-0.3
				c0.1-0.9-0.5-1.7-1.4-1.8c-0.1,0-0.1,0-0.2,0c-0.7-0.1-1.4,0.2-1.9,0.8h-0.4v-4.3H36v1.6h-0.9v-0.8h-2.7v2.5
				c0.4-0.4,1-0.6,1.6-0.5c1.3,0,2.4,1,2.4,2.3c0,0.1,0,0.2,0,0.3c0.1,1.4-1.1,2.6-2.5,2.7c-0.1,0-0.2,0-0.2,0
				c-1.3,0.2-2.4-0.7-2.6-2C31.2,453.3,31.2,453.2,31.1,453.1z"/>
			<path d="M37.5,451.5v-0.4c0-2.3,1.2-3.8,3.1-3.8s3.1,1.5,3.1,3.8v0.4c0,2.3-1.1,3.8-3,3.8S37.5,453.8,37.5,451.5z M42.7,451.5
				v-0.4c0-1.8-0.8-3-2.1-3s-2.1,1.1-2.1,3v0.4c0,2,0.8,3,2.1,3S42.7,453.5,42.7,451.5L42.7,451.5z"/>
			<path d="M44.7,451.5v-0.4c0-2.3,1.2-3.8,3.1-3.8s3.1,1.5,3.1,3.8v0.4c0,2.3-1.1,3.8-3,3.8S44.7,453.8,44.7,451.5z M49.9,451.5
				v-0.4c0-1.8-0.8-3-2.1-3s-2.1,1.1-2.1,3v0.4c0,2,0.8,3,2.1,3S49.9,453.5,49.9,451.5L49.9,451.5z"/>
			<path d="M52,451.5v-0.4c0-2.3,1.2-3.8,3.1-3.8s3.1,1.5,3.1,3.8v0.4c0,2.3-1.1,3.8-3,3.8S52,453.8,52,451.5z M57.2,451.5v-0.4
				c0-1.8-0.8-3-2.1-3s-2.1,1.1-2.1,3v0.4c0,2,0.8,3,2.1,3S57.2,453.5,57.2,451.5L57.2,451.5z"/>
		</g>
		<g>
			<path d="M25.4,384.1v-0.7H27v-6.2l-1.8,1.3v-0.9l1.8-1.3h0.9v7.1h1.5v0.7H25.4z"/>
			<path d="M30.2,380.4V380c0-2.3,1.2-3.8,3.1-3.8s3.1,1.5,3.1,3.8v0.4c0,2.3-1.1,3.8-3,3.8S30.2,382.7,30.2,380.4z M35.4,380.4V380
				c0-1.8-0.8-3-2.1-3s-2.1,1.1-2.1,3v0.4c0,2,0.8,3,2.1,3C34.6,383.4,35.4,382.4,35.4,380.4L35.4,380.4z"/>
			<path d="M37.5,380.4V380c0-2.3,1.2-3.8,3.1-3.8s3.1,1.5,3.1,3.8v0.4c0,2.3-1.1,3.8-3,3.8S37.5,382.7,37.5,380.4z M42.7,380.4V380
				c0-1.8-0.8-3-2.1-3s-2.1,1.1-2.1,3v0.4c0,2,0.8,3,2.1,3S42.7,382.4,42.7,380.4L42.7,380.4z"/>
			<path d="M44.7,380.4V380c0-2.3,1.2-3.8,3.1-3.8s3.1,1.5,3.1,3.8v0.4c0,2.3-1.1,3.8-3,3.8S44.7,382.7,44.7,380.4z M49.9,380.4V380
				c0-1.8-0.8-3-2.1-3s-2.1,1.1-2.1,3v0.4c0,2,0.8,3,2.1,3S49.9,382.4,49.9,380.4L49.9,380.4z"/>
			<path d="M52,380.4V380c0-2.3,1.2-3.8,3.1-3.8s3.1,1.5,3.1,3.8v0.4c0,2.3-1.1,3.8-3,3.8S52,382.7,52,380.4z M57.2,380.4V380
				c0-1.8-0.8-3-2.1-3s-2.1,1-2.1,3v0.4c0,2,0.8,3,2.1,3S57.2,382.4,57.2,380.4L57.2,380.4z"/>
		</g>
		<g>
			<path d="M26.5,313v-0.8h1.6V306l-1.8,1.3v-0.9l1.8-1.3H29v7.1h1.5v0.8H26.5z"/>
			<path d="M31.1,310.8H32c0,0.8,0.7,1.5,1.5,1.5c0.1,0,0.1,0,0.2,0c0.9,0,1.7-0.7,1.7-1.6c0-0.1,0-0.2,0-0.3
				c0.1-0.9-0.5-1.7-1.4-1.8c-0.1,0-0.1,0-0.2,0c-0.7-0.1-1.4,0.2-1.9,0.8h-0.4v-4.3H36v1.6h-0.9v-0.8h-2.7v2.5
				c1.1-0.9,2.7-0.7,3.5,0.4c0.4,0.5,0.5,1,0.5,1.6c0.1,1.4-1.1,2.6-2.5,2.7c-0.1,0-0.2,0-0.2,0c-1.3,0.2-2.4-0.7-2.6-2
				C31.2,311,31.2,310.9,31.1,310.8z"/>
			<path d="M37.5,309.2v-0.4c0-2.3,1.2-3.8,3.1-3.8s3.1,1.5,3.1,3.8v0.4c0,2.3-1.1,3.8-3,3.8S37.5,311.5,37.5,309.2z M42.7,309.2
				v-0.4c0-1.8-0.8-3-2.1-3s-2.1,1.1-2.1,3v0.4c0,2,0.8,3,2.1,3S42.7,311.2,42.7,309.2L42.7,309.2z"/>
			<path d="M44.7,309.2v-0.4c0-2.3,1.2-3.8,3.1-3.8s3.1,1.5,3.1,3.8v0.4c0,2.3-1.1,3.8-3,3.8S44.7,311.5,44.7,309.2z M49.9,309.2
				v-0.4c0-1.8-0.8-3-2.1-3s-2.1,1.1-2.1,3v0.4c0,2,0.8,3,2.1,3S49.9,311.2,49.9,309.2L49.9,309.2z"/>
			<path d="M52,309.2v-0.4c0-2.3,1.2-3.8,3.1-3.8s3.1,1.5,3.1,3.8v0.4c0,2.3-1.1,3.8-3,3.8S52,311.5,52,309.2z M57.2,309.2v-0.4
				c0-1.8-0.8-3-2.1-3s-2.1,1.1-2.1,3v0.4c0,2,0.8,3,2.2,3S57.2,311.2,57.2,309.2L57.2,309.2z"/>
		</g>
		<g>
			<path d="M28.3,239.8h0.9v2h-5.4v-0.4l3-3.1c0.7-0.6,1.1-1.4,1.2-2.3c0.1-0.7-0.4-1.3-1.2-1.4c-0.1,0-0.2,0-0.2,0
				c-0.9,0-1.5,0.5-1.6,1.8h-1c0-1.4,1-2.5,2.4-2.5h0.1c1.2-0.2,2.3,0.6,2.4,1.8c0,0.1,0,0.3,0,0.4c-0.1,1.1-0.7,2.2-1.6,2.9
				l-2.1,2.1h3.1L28.3,239.8z"/>
			<path d="M30.2,238.1v-0.4c0-2.3,1.2-3.8,3.1-3.8s3.1,1.6,3.1,3.8v0.4c0,2.3-1.1,3.8-3,3.8S30.2,240.4,30.2,238.1z M35.4,238.1
				v-0.4c0-1.8-0.8-3-2.1-3s-2.1,1.1-2.1,3v0.4c0,2,0.8,3,2.1,3C34.6,241.1,35.4,240.1,35.4,238.1L35.4,238.1z"/>
			<path d="M37.5,238.1v-0.4c0-2.3,1.2-3.8,3.1-3.8s3.1,1.6,3.1,3.8v0.4c0,2.3-1.1,3.8-3,3.8S37.5,240.4,37.5,238.1z M42.7,238.1
				v-0.4c0-1.8-0.8-3-2.1-3s-2.1,1.1-2.1,3v0.4c0,2,0.8,3,2.1,3S42.7,240.1,42.7,238.1L42.7,238.1z"/>
			<path d="M44.7,238.1v-0.4c0-2.3,1.2-3.8,3.1-3.8s3.1,1.6,3.1,3.8v0.4c0,2.3-1.1,3.8-3,3.8S44.7,240.4,44.7,238.1z M49.9,238.1
				v-0.4c0-1.8-0.8-3-2.1-3s-2.1,1.1-2.1,3v0.4c0,2,0.8,3,2.1,3S49.9,240.1,49.9,238.1L49.9,238.1z"/>
			<path d="M52,238.1v-0.4c0-2.3,1.2-3.8,3.1-3.8s3.1,1.6,3.1,3.8v0.4c0,2.3-1.1,3.8-3,3.8S52,240.4,52,238.1z M57.2,238.1v-0.4
				c0-1.8-0.8-3-2.1-3s-2.1,1.1-2.1,3v0.4c0,2,0.8,3,2.1,3S57.2,240.1,57.2,238.1L57.2,238.1z"/>
		</g>
		<g>
			<path d="M29.3,168.6h0.9v2h-5.4v-0.4l3-3.1c0.7-0.6,1.1-1.4,1.1-2.3c0.1-0.7-0.4-1.3-1.1-1.4c-0.1,0-0.2,0-0.3,0
				c-0.9,0-1.5,0.5-1.6,1.8H25c0-1.4,1.1-2.5,2.4-2.5h0.1c1.2-0.1,2.2,0.7,2.4,1.9c0,0.1,0,0.2,0,0.3c-0.1,1.1-0.7,2.2-1.6,2.9
				l-2.2,2.1h3.1L29.3,168.6z"/>
			<path d="M31.1,168.6H32c0,0.8,0.7,1.5,1.5,1.5c0.1,0,0.1,0,0.2,0c0.9,0,1.7-0.7,1.7-1.6c0-0.1,0-0.2,0-0.3
				c0.1-0.9-0.5-1.7-1.4-1.8c-0.1,0-0.1,0-0.2,0c-0.7-0.1-1.4,0.2-1.9,0.8h-0.4v-4.3H36v1.6h-0.9v-0.8h-2.7v2.5
				c0.4-0.4,1-0.6,1.6-0.5c1.3,0,2.4,1,2.4,2.3c0,0.1,0,0.2,0,0.3c0.1,1.4-1.1,2.6-2.5,2.7c-0.1,0-0.2,0-0.2,0
				c-1.3,0.2-2.4-0.7-2.6-2C31.2,168.7,31.2,168.6,31.1,168.6z"/>
			<path d="M37.5,167v-0.4c0-2.3,1.2-3.8,3.1-3.8s3.1,1.6,3.1,3.8v0.5c0,2.3-1.1,3.8-3,3.8S37.5,169.3,37.5,167z M42.7,167v-0.4
				c0-1.8-0.8-3-2.1-3s-2.1,1.1-2.1,3v0.4c0,2,0.8,3,2.1,3S42.7,168.9,42.7,167L42.7,167z"/>
			<path d="M44.7,167v-0.4c0-2.3,1.2-3.8,3.1-3.8s3.1,1.6,3.1,3.8v0.5c0,2.3-1.1,3.8-3,3.8S44.7,169.3,44.7,167z M49.9,167v-0.4
				c0-1.8-0.8-3-2.1-3s-2.1,1.1-2.1,3v0.4c0,2,0.8,3,2.1,3S49.9,168.9,49.9,167L49.9,167z"/>
			<path d="M52,167v-0.4c0-2.3,1.2-3.8,3.1-3.8s3.1,1.6,3.1,3.8v0.5c0,2.3-1.1,3.8-3,3.8S52,169.3,52,167z M57.2,167v-0.4
				c0-1.8-0.8-3-2.1-3s-2.1,1.1-2.1,3v0.4c0,2,0.8,3,2.1,3S57.2,168.9,57.2,167L57.2,167z"/>
		</g>
		<g>
			<path d="M23.5,97.2h0.9c0,0.9,0.8,1.7,1.8,1.7h0.1c1.2,0,1.8-0.6,1.8-1.5s-0.5-1.5-1.7-1.5h-0.6V95h0.5c1,0,1.5-0.5,1.5-1.3
				c0-0.7-0.5-1.3-1.2-1.3c-0.1,0-0.1,0-0.2,0c-0.9-0.1-1.7,0.6-1.7,1.5h-0.8c0.1-1.3,1.2-2.3,2.6-2.3c1.2-0.1,2.2,0.8,2.4,1.9v0.1
				c0,0.8-0.5,1.5-1.2,1.7c0.9,0.2,1.6,1,1.5,2c0,1.4-1.2,2.3-2.8,2.3c-1.4,0.1-2.6-0.9-2.7-2.3C23.5,97.3,23.5,97.3,23.5,97.2z"/>
			<path d="M30.2,95.8v-0.4c0-2.3,1.2-3.8,3.1-3.8s3.1,1.6,3.1,3.8v0.4c0,2.3-1.1,3.8-3,3.8S30.2,98.1,30.2,95.8z M35.4,95.8v-0.4
				c0-1.8-0.8-3-2.1-3s-2.1,1.1-2.1,3v0.4c0,2,0.8,3,2.1,3C34.6,98.8,35.4,97.8,35.4,95.8L35.4,95.8z"/>
			<path d="M37.5,95.8v-0.4c0-2.3,1.2-3.8,3.1-3.8s3.1,1.6,3.1,3.8v0.4c0,2.3-1.1,3.8-3,3.8S37.5,98.1,37.5,95.8z M42.7,95.8v-0.4
				c0-1.8-0.8-3-2.1-3s-2.1,1.1-2.1,3v0.4c0,2,0.8,3,2.1,3S42.7,97.8,42.7,95.8L42.7,95.8z"/>
			<path d="M44.7,95.8v-0.4c0-2.3,1.2-3.8,3.1-3.8s3.1,1.6,3.1,3.8v0.4c0,2.3-1.1,3.8-3,3.8S44.7,98.1,44.7,95.8z M49.9,95.8v-0.4
				c0-1.8-0.8-3-2.1-3s-2.1,1.1-2.1,3v0.4c0,2,0.8,3,2.1,3S49.9,97.8,49.9,95.8L49.9,95.8z"/>
			<path d="M52,95.8v-0.4c0-2.3,1.2-3.8,3.1-3.8s3.1,1.6,3.1,3.8v0.4c0,2.3-1.1,3.8-3,3.8S52,98.1,52,95.8z M57.2,95.8v-0.4
				c0-1.8-0.8-3-2.1-3s-2.1,1.1-2.1,3v0.4c0,2,0.8,3,2.1,3S57.2,97.8,57.2,95.8L57.2,95.8z"/>
		</g>
	</g>
	<g>
		<rect x="599.6" y="19.6" class="st4" width="62.2" height="49.8"/>
		<g>
			<rect x="67.4" y="480.9" class="st5" width="7.8" height="36.7"/>
			<rect x="77" y="466" class="st5" width="7.8" height="51.6"/>
			<rect x="86.6" y="454.2" class="st5" width="7.8" height="63.5"/>
			<rect x="96.1" y="443.3" class="st5" width="7.8" height="74.4"/>
			<rect x="105.7" y="429.8" class="st5" width="7.8" height="87.8"/>
			<rect x="115.3" y="414.6" class="st5" width="7.8" height="103"/>
			<rect x="124.9" y="394.2" class="st5" width="7.8" height="123.4"/>
			<rect x="134.4" y="372.9" class="st5" width="7.8" height="144.8"/>
			<rect x="144" y="353.5" class="st5" width="7.8" height="164.2"/>
			<rect x="153.6" y="319.8" class="st5" width="7.8" height="197.8"/>
			<rect x="163.2" y="293.8" class="st5" width="7.8" height="223.8"/>
			<rect x="172.8" y="266.9" class="st5" width="7.8" height="250.7"/>
			<rect x="182.3" y="242.3" class="st5" width="7.8" height="275.4"/>
			<rect x="191.9" y="218.7" class="st5" width="7.8" height="298.9"/>
			<rect x="201.5" y="193.8" class="st5" width="7.8" height="323.8"/>
			<rect x="211.1" y="167.1" class="st5" width="7.8" height="350.6"/>
			<rect x="220.6" y="144.2" class="st5" width="7.8" height="373.4"/>
			<rect x="230.2" y="127.3" class="st5" width="7.8" height="390.3"/>
			<rect x="239.8" y="117.2" class="st5" width="7.8" height="400.4"/>
			<rect x="249.4" y="106.6" class="st5" width="7.8" height="411.1"/>
			<rect x="258.9" y="94.7" class="st5" width="7.8" height="422.9"/>
			<rect x="268.5" y="90.4" class="st5" width="7.8" height="427.2"/>
			<rect x="278.1" y="85.4" class="st5" width="7.8" height="432.2"/>
			<rect x="287.7" y="79.9" class="st5" width="7.8" height="437.8"/>
			<rect x="297.2" y="72.8" class="st5" width="7.8" height="444.9"/>
			<rect x="306.8" y="72" class="st5" width="7.8" height="445.6"/>
			<rect x="316.4" y="64.8" class="st5" width="7.8" height="452.8"/>
			<rect x="326" y="60.7" class="st5" width="7.8" height="456.9"/>
			<rect x="335.6" y="58.2" class="st5" width="7.8" height="459.5"/>
			<rect x="345.1" y="65.5" class="st5" width="7.8" height="452.2"/>
			<rect x="354.7" y="72.2" class="st5" width="7.8" height="445.4"/>
			<rect x="364.3" y="73.8" class="st5" width="7.8" height="443.8"/>
			<rect x="373.9" y="81.7" class="st5" width="7.8" height="436"/>
			<rect x="383.4" y="82.1" class="st5" width="7.8" height="435.5"/>
			<rect x="393" y="82.5" class="st5" width="7.8" height="435.2"/>
			<rect x="402.6" y="89.3" class="st5" width="7.8" height="428.4"/>
			<rect x="412.2" y="94.5" class="st5" width="7.8" height="423.2"/>
			<rect x="421.8" y="101.9" class="st5" width="7.8" height="415.7"/>
			<rect x="431.3" y="109.9" class="st5" width="7.8" height="407.8"/>
			<rect x="440.9" y="116.1" class="st5" width="7.8" height="401.6"/>
			<rect x="450.5" y="116.2" class="st5" width="7.8" height="401.5"/>
			<rect x="460.1" y="118.4" class="st5" width="7.8" height="399.2"/>
			<rect x="469.6" y="126.6" class="st5" width="7.8" height="391.1"/>
			<rect x="479.2" y="135.8" class="st5" width="7.8" height="381.8"/>
			<rect x="488.8" y="143.7" class="st5" width="7.8" height="374"/>
			<rect x="498.4" y="149.3" class="st5" width="7.8" height="368.3"/>
			<rect x="507.9" y="150.1" class="st5" width="7.8" height="367.5"/>
			<rect x="517.5" y="150.3" class="st5" width="7.8" height="367.3"/>
			<rect x="527.1" y="154.1" class="st5" width="7.8" height="363.5"/>
			<rect x="536.7" y="165.1" class="st5" width="7.8" height="352.5"/>
			<rect x="546.2" y="176.4" class="st5" width="7.8" height="341.2"/>
			<rect x="555.8" y="187.4" class="st5" width="7.8" height="330.2"/>
		</g>
	</g>
</g>
<g>
	<path d="M67,537.7v-1.6h1.8v-6.2l-2,1.3v-2l2.2-1.6h2v8.4h1.7v1.6L67,537.7z"/>
	<path d="M74.9,530.8h-1.8v-3.1h7.3v1.2l-3.3,8.9h-2.3l3.2-8.4h-3.1C74.9,529.4,74.9,530.8,74.9,530.8z"/>
	<path d="M83.8,537.7v-1.5h0.8v-4.4h-0.8v-1.5h2.8v1.2c0.4-0.9,1.3-1.4,2.2-1.4c0.9,0,1.7,0.5,2,1.4c0.5-0.9,1.4-1.4,2.4-1.4
		c1.3,0,2.4,0.9,2.4,2.8v3.2h0.8v1.5h-3.6v-1.5h0.8V533c0-0.9-0.4-1.4-1.1-1.4c-0.8,0-1.4,0.6-1.4,1.3c0,0.1,0,0.1,0,0.2v2.9h0.8
		v1.5h-3.6V536h0.8v-3.1c0-0.9-0.4-1.4-1.1-1.4c-0.8,0-1.4,0.6-1.4,1.4c0,0.1,0,0.1,0,0.2v2.9h0.8v1.5L83.8,537.7z"/>
	<path d="M99.5,537.8c-1.3,0-2.4-0.6-2.4-2.2c0-1.8,1.6-2.4,3.8-2.4h0.8V533c0-0.9-0.3-1.3-1.2-1.3c-0.6-0.1-1.1,0.3-1.2,0.9v0.1
		h-1.9c0.1-1.8,1.5-2.5,3.2-2.5s3,0.7,3,2.7v3.3h0.8v1.5h-2.7v-1C101.3,537.4,100.4,537.9,99.5,537.8z M101.7,535.1v-0.6h-0.8
		c-1.2,0-1.8,0.3-1.8,1c0,0.5,0.3,0.9,1,0.9C101,536.4,101.7,536,101.7,535.1L101.7,535.1z"/>
	<path d="M105,537.7v-1.5h0.8v-4.4H105v-1.5h2.8v1.5c0.4-1,1.4-1.7,2.5-1.6v1.9c-1.6-0.1-2.5,0.5-2.5,1.8v2.2h0.9v1.5L105,537.7z"/>
	<path d="M112.5,536.9v0.8H111v-2.4h1.5c0.1,0.8,0.8,1.3,1.6,1.3c0.8,0,1.2-0.3,1.2-0.9s-0.5-0.8-1.5-0.9c-2-0.3-2.7-1-2.7-2.3
		c0-1.2,1-2.2,2.2-2.2c0.1,0,0.2,0,0.3,0c1.2,0,1.7,0.4,1.9,0.9v-0.7h1.4v2.2h-1.4c-0.2-0.7-0.8-1.1-1.5-1.1c-0.6,0-1,0.2-1,0.8
		s0.3,0.7,1.4,0.9c1.8,0.2,2.8,0.8,2.8,2.3s-1,2.4-2.7,2.4C113.7,537.9,112.9,537.6,112.5,536.9z"/>
</g>
<g>
	<path d="M532.9,530.8h-1.8v-3.1h7.4v1.2l-3.3,8.9h-2.3l3.2-8.4H533v1.4H532.9z"/>
	<path d="M541.9,537.7v-1.5h0.8v-4.4h-0.8v-1.5h2.8v1.2c0.4-0.9,1.3-1.4,2.2-1.4s1.7,0.5,2,1.4c0.5-0.9,1.4-1.4,2.4-1.4
		c1.3,0,2.4,0.9,2.4,2.8v3.2h0.8v1.5h-3.6v-1.5h0.8V533c0-0.9-0.4-1.4-1.1-1.4c-0.8,0-1.4,0.6-1.4,1.4c0,0.1,0,0.1,0,0.2v2.9h0.8
		v1.5h-3.5v-1.5h0.8V533c0-0.9-0.4-1.4-1.1-1.4c-0.8,0-1.4,0.6-1.4,1.4c0,0.1,0,0.1,0,0.2v2.9h0.8v1.5L541.9,537.7z"/>
	<path d="M557.5,537.8c-1.3,0-2.4-0.6-2.4-2.2c0-1.8,1.6-2.4,3.8-2.4h0.8V533c0-0.9-0.3-1.3-1.2-1.3c-0.6-0.1-1.1,0.3-1.2,0.9v0.1
		h-1.9c0.1-1.8,1.5-2.5,3.2-2.5s3,0.7,3,2.7v3.3h0.8v1.5h-2.7v-1C559.2,537.4,558.4,537.9,557.5,537.8z M559.7,535.1v-0.6h-0.8
		c-1.2,0-1.8,0.3-1.8,1c0,0.5,0.3,0.9,1,0.9S559.7,536,559.7,535.1L559.7,535.1z"/>
	<path d="M563,537.7v-1.5h0.8v-4.4H563v-1.5h2.8v5.9h0.8v1.5H563z M563.6,528.2c0-0.7,0.5-1.2,1.1-1.2s1.2,0.5,1.2,1.1
		c0,0.7-0.5,1.2-1.1,1.2c0,0,0,0-0.1,0C564.1,529.4,563.6,528.9,563.6,528.2C563.6,528.3,563.6,528.3,563.6,528.2L563.6,528.2z"/>
</g>
<line class="st6" x1="67.4" y1="517.6" x2="563.5" y2="517.6"/>
<g>
	<path d="M319.8,22.8V21h2.5v1.1c0,1.4,0.2,1.7,0.5,1.7s0.6-0.3,0.6-1.8v-1.9c0-1.4-0.1-1.7-0.5-1.7h-1.7v-2.5h1.5
		c0.4,0,0.5-0.3,0.5-1.7v-1c0-1.4-0.1-1.7-0.5-1.7s-0.5,0.3-0.5,1.7v1.1h-2.5v-1.8c0-2.8,0.7-3.6,3-3.6s3,0.8,3,3.6v2.3
		c0,1.2-0.4,1.8-1.6,2c1.3,0.2,1.7,1,1.7,2.6v3.3c0,2.8-0.7,3.6-3.1,3.6S319.8,25.5,319.8,22.8z"/>
	<path d="M327.3,23.9c3.5-9,3.5-9,3.5-10.1v-0.6c0-1.4-0.1-1.7-0.5-1.7s-0.5,0.3-0.5,1.7v1.1h-2.5v-1.7c0-2.8,0.7-3.6,3-3.6
		s3,0.8,3,3.6v0.7c0,1.4-0.1,1.6-3.4,10.4h3.4v2.5h-6V23.9z"/>
	<path d="M338.6,23.9c3.5-9,3.5-9,3.5-10.1v-0.6c0-1.4-0.1-1.7-0.5-1.7s-0.5,0.3-0.5,1.7v1.1h-2.5v-1.7c0-2.8,0.7-3.6,3-3.6
		s3,0.8,3,3.6v0.7c0,1.4-0.1,1.6-3.4,10.4h3.4v2.5h-6V23.9z"/>
	<path d="M346.1,22.8v-1.3h2.5v0.7c0,1.4,0.1,1.7,0.5,1.7s0.5-0.3,0.5-1.7V17c0,2.8-0.5,3.6-1.7,3.6s-1.8-0.8-1.8-3.6v-4.3
		c0-2.8,0.7-3.6,3-3.6s3,0.8,3,3.6v10.2c0,2.8-0.7,3.6-3,3.6S346.1,25.5,346.1,22.8z M349.7,16.3v-3.1c0-1.4-0.1-1.7-0.5-1.7
		s-0.5,0.3-0.5,1.7v3.1c0,1.4,0.1,1.7,0.5,1.7S349.7,17.7,349.7,16.3z"/>
	<path d="M353.6,23.9c3.5-9,3.5-9,3.5-10.1v-0.6c0-1.4-0.1-1.7-0.5-1.7s-0.5,0.3-0.5,1.7v1.1h-2.5v-1.7c0-2.8,0.7-3.6,3-3.6
		s3,0.8,3,3.6v0.7c0,1.4-0.1,1.6-3.4,10.4h3.4v2.5h-6V23.9z"/>
</g>
<g>
	<path d="M539.5,149.4c3.5-9,3.5-9,3.5-10.1v-0.6c0-1.4-0.2-1.7-0.5-1.7s-0.5,0.3-0.5,1.7v1.1h-2.5v-1.7c0-2.8,0.7-3.6,3-3.6
		s3,0.8,3,3.6v0.7c0,1.4-0.1,1.6-3.4,10.4h3.4v2.5h-6V149.4z"/>
	<path d="M547,148.2v-1.7h2.5v1.1c0,1.4,0.2,1.7,0.5,1.7s0.6-0.3,0.6-1.8v-1.9c0-1.4-0.2-1.7-0.5-1.7h-1.7v-2.5h1.5
		c0.4,0,0.5-0.3,0.5-1.7v-1c0-1.4-0.1-1.7-0.5-1.7s-0.5,0.3-0.5,1.7v1.1H547V138c0-2.8,0.7-3.6,3-3.6s3,0.8,3,3.6v2.3
		c0,1.2-0.4,1.8-1.6,2c1.3,0.2,1.7,1,1.7,2.6v3.3c0,2.8-0.7,3.6-3.1,3.6S547,151,547,148.2z"/>
	<path d="M558.4,149.4c3.5-9,3.5-9,3.5-10.1v-0.6c0-1.4-0.2-1.7-0.5-1.7s-0.5,0.3-0.5,1.7v1.1h-2.5v-1.7c0-2.8,0.7-3.6,3-3.6
		s3,0.8,3,3.6v0.7c0,1.4-0.1,1.6-3.4,10.4h3.4v2.5h-6V149.4z"/>
	<path d="M569,151.8c-2.3,0-3-0.8-3-3.6V138c0-2.8,0.7-3.6,3-3.6s3,0.8,3,3.6v10.2C572,151,571.4,151.8,569,151.8z M569,137
		c-0.3,0-0.5,0.3-0.5,1.7v8.9c0,1.4,0.2,1.7,0.5,1.7s0.5-0.3,0.5-1.7v-8.9C569.5,137.3,569.4,137,569,137z"/>
	<path d="M573.4,148.2v-2.7c0-1.8,0.5-2.8,2-3.1c-1.2-0.2-2.1-1.3-1.9-2.6V138c0-2.8,0.7-3.6,3-3.6s3,0.8,3,3.6v1.8
		c0.2,1.2-0.7,2.4-1.9,2.6c1.5,0.3,2,1.3,2,3.1v2.7c0,2.8-0.7,3.6-3.2,3.6S573.4,151,573.4,148.2z M576,145.6v1.9
		c0,1.5,0.2,1.8,0.7,1.8s0.7-0.3,0.7-1.8v-1.9c0-1.4-0.3-1.7-0.7-1.7S576,144.2,576,145.6L576,145.6z M577.1,139.7v-1
		c0-1.4-0.2-1.7-0.5-1.7s-0.5,0.3-0.5,1.7v1c0,1.4,0.2,1.7,0.5,1.7S577.1,141.1,577.1,139.7L577.1,139.7z"/>
</g>
<g>
	<line class="st1" x1="559.6" y1="156.9" x2="559.6" y2="180.7"/>
	<polygon points="555.5,177.4 556.2,176.7 559.6,180.3 562.9,176.7 563.7,177.4 559.6,181.8 	"/>
</g>
<g id="Calque_1_1_">
	<g>
		<rect x="20" y="40.5" class="st0" width="103.1" height="31.5"/>
		<path d="M54.7,44.5H58c0.6,0,1.2,0.1,1.7,0.3s1,0.5,1.3,0.9c0.4,0.4,0.7,0.9,0.8,1.4c0.4,1.2,0.4,2.4,0,3.6
			c-0.2,0.5-0.5,1-0.9,1.4s-0.8,0.7-1.3,0.9s-1.1,0.3-1.7,0.3h-3.3v-8.8H54.7z M58,52.2c0.4,0,0.8-0.1,1.1-0.2
			c0.3-0.1,0.7-0.4,0.9-0.7s0.4-0.6,0.6-1c0.1-0.4,0.2-0.9,0.2-1.3c0-0.5-0.1-0.9-0.2-1.3c-0.1-0.4-0.3-0.7-0.6-1
			c-0.2-0.3-0.5-0.5-0.9-0.7s-0.7-0.3-1.1-0.3h-1.9v6.5H58z"/>
		<path d="M69.4,51.2c0,0.3-0.1,0.6-0.2,0.9c-0.1,0.3-0.3,0.5-0.6,0.7c-0.3,0.2-0.5,0.4-0.9,0.5s-0.7,0.2-1.1,0.2
			c-0.5,0-0.9-0.1-1.4-0.2c-0.4-0.1-0.7-0.4-0.9-0.7c-0.2-0.3-0.4-0.6-0.5-1c-0.2-0.9-0.2-1.8,0-2.7c0.1-0.4,0.3-0.7,0.6-1
			c0.3-0.3,0.6-0.5,0.9-0.7c0.4-0.2,0.9-0.3,1.3-0.2c0.4,0,0.9,0.1,1.3,0.2c0.3,0.1,0.6,0.4,0.9,0.7c0.2,0.3,0.4,0.6,0.5,1
			c0.1,0.5,0.2,0.9,0.2,1.4v0.2H65c0,0.6,0.1,1.1,0.5,1.6c0.3,0.3,0.7,0.5,1.2,0.5c0.4,0,0.8-0.1,1.1-0.3c0.3-0.2,0.5-0.6,0.5-1
			L69.4,51.2z M68.1,49.5c0-0.4-0.1-0.9-0.4-1.2s-0.7-0.5-1.1-0.5s-0.8,0.1-1.2,0.4c-0.3,0.3-0.5,0.8-0.5,1.3H68.1z M67.3,44.5h1.6
			L67,46.2h-1L67.3,44.5z"/>
		<path d="M71.2,44.5h1.3V48l0,0c0.4-0.7,1.2-1.2,2.1-1.1c0.4,0,0.8,0.1,1.2,0.2c0.3,0.2,0.6,0.4,0.8,0.7c0.2,0.3,0.4,0.6,0.5,1
			s0.2,0.9,0.2,1.3c0,0.5-0.1,0.9-0.2,1.3c-0.1,0.4-0.3,0.7-0.5,1.1c-0.2,0.3-0.5,0.5-0.9,0.7s-0.8,0.2-1.2,0.2
			c-0.4,0-0.9-0.1-1.2-0.3c-0.3-0.2-0.6-0.5-0.8-0.8l0,0v1h-1.3V44.5z M74.2,52.5c0.5,0,1-0.2,1.3-0.6c0.6-1.1,0.6-2.4,0-3.5
			c-0.3-0.4-0.8-0.6-1.3-0.6s-1,0.2-1.3,0.6c-0.3,0.5-0.4,1.1-0.4,1.7c0,0.6,0.1,1.2,0.4,1.7C73.2,52.3,73.7,52.5,74.2,52.5
			L74.2,52.5z"/>
		<path d="M79,46.9h1.3v3.9c0,0.4,0,0.8,0.2,1.2c0.2,0.3,0.6,0.4,0.9,0.4c0.4,0,0.9-0.2,1.2-0.5c0.3-0.4,0.5-0.8,0.4-1.3v-3.7h1.3
			v6.4H83v-1l0,0c-0.2,0.3-0.5,0.6-0.8,0.8c-0.4,0.2-0.8,0.3-1.2,0.3c-0.6,0.1-1.2-0.2-1.6-0.6c-0.3-0.5-0.5-1.1-0.5-1.8L79,46.9
			L79,46.9z"/>
		<path d="M86.4,48h-0.9v-1.1h0.9v-1.6h1.3V47h1.5v1h-1.5v3.4c0,0.3,0.1,0.5,0.2,0.7c0.2,0.2,0.4,0.2,0.7,0.2h0.3h0.3v1.1l-0.4,0.1
			c-0.2,0-0.3,0-0.5,0c-0.5,0-1-0.2-1.4-0.5c-0.4-0.4-0.6-1-0.5-1.6V48z"/>
		<path d="M30.3,64.3L30.3,64.3c-0.2,0.3-0.5,0.6-0.8,0.8c-0.4,0.2-0.8,0.3-1.3,0.3c-0.4,0-0.8-0.1-1.2-0.2
			c-0.3-0.2-0.6-0.4-0.9-0.7c-0.2-0.3-0.4-0.6-0.5-1s-0.2-0.9-0.2-1.3c0-0.5,0.1-0.9,0.2-1.4c0.1-0.4,0.3-0.7,0.5-1.1
			c0.2-0.3,0.5-0.5,0.9-0.7s0.8-0.2,1.2-0.2c0.4,0,0.9,0.1,1.3,0.3c0.3,0.2,0.6,0.5,0.8,0.8l0,0v-3.5h1.3v8.9h-1.3V64.3z M28.6,64.5
			c0.5,0,1-0.2,1.3-0.6c0.3-0.5,0.4-1.1,0.4-1.8c0-0.6-0.1-1.2-0.4-1.7c-0.3-0.4-0.8-0.7-1.3-0.6c-0.5,0-1,0.2-1.3,0.6
			c-0.4,0.5-0.5,1.1-0.5,1.8c0,0.6,0.1,1.2,0.5,1.7C27.6,64.3,28.1,64.5,28.6,64.5z"/>
		<path d="M33.6,58.9h1.3v3.9c0,0.4,0.1,0.8,0.3,1.2c0.2,0.3,0.6,0.4,0.9,0.4c0.4,0,0.9-0.1,1.2-0.5c0.3-0.4,0.5-0.8,0.4-1.3v-3.7
			H39v6.4h-1.3v-1l0,0c-0.2,0.3-0.5,0.6-0.8,0.8c-0.4,0.2-0.8,0.3-1.2,0.3c-0.6,0.1-1.2-0.2-1.6-0.6c-0.3-0.5-0.5-1.1-0.5-1.7
			L33.6,58.9z"/>
		<path d="M50,63c0,0.7-0.3,1.4-0.8,1.8c-0.6,0.4-1.3,0.7-2,0.6c-0.5,0-0.9-0.1-1.3-0.2c-0.4-0.1-0.7-0.4-1-0.7
			c-0.3-0.3-0.4-0.7-0.6-1c-0.1-0.4-0.2-0.9-0.2-1.3c0-0.5,0.1-0.9,0.2-1.4c0.1-0.4,0.3-0.7,0.6-1s0.6-0.5,1-0.7s0.9-0.3,1.3-0.2
			c0.7,0,1.4,0.2,2,0.6c0.5,0.5,0.8,1.2,0.8,1.9h-1.3c0-0.4-0.2-0.8-0.5-1.1s-0.7-0.4-1.1-0.4c-0.5,0-1,0.2-1.3,0.6
			c-0.3,0.5-0.5,1.1-0.4,1.7c0,0.6,0.1,1.2,0.5,1.7c0.6,0.7,1.6,0.8,2.3,0.2c0.3-0.3,0.4-0.7,0.4-1.1C48.6,63,50,63,50,63z"/>
		<path d="M54.7,65.5c-0.5,0-0.9-0.1-1.3-0.2c-0.4-0.1-0.7-0.4-1-0.7s-0.5-0.6-0.6-1c-0.3-0.9-0.3-1.8,0-2.7
			c0.1-0.4,0.4-0.8,0.6-1.1c0.3-0.3,0.6-0.5,1-0.7s0.9-0.2,1.3-0.2c0.5,0,0.9,0.1,1.3,0.2c0.4,0.1,0.7,0.4,1,0.7s0.5,0.7,0.7,1.1
			c0.3,0.9,0.3,1.8,0,2.7c-0.2,0.4-0.4,0.7-0.7,1s-0.6,0.5-1,0.7C55.6,65.4,55.1,65.5,54.7,65.5z M54.7,64.5c0.5,0,1.1-0.2,1.4-0.6
			c0.7-1,0.7-2.4,0-3.4c-0.7-0.8-1.9-0.8-2.7-0.2c-0.1,0-0.1,0.1-0.2,0.2c-0.7,1-0.7,2.4,0,3.4C53.6,64.3,54.1,64.5,54.7,64.5
			L54.7,64.5z"/>
		<path d="M59.5,58.9h1.3v1l0,0c0.2-0.3,0.5-0.6,0.8-0.8c0.4-0.2,0.8-0.3,1.3-0.3c0.6-0.1,1.2,0.2,1.6,0.6c0.3,0.5,0.5,1.1,0.5,1.7
			v4.2h-1.2v-3.9c0-0.4-0.1-0.8-0.3-1.2c-0.2-0.3-0.6-0.5-1-0.4c-0.5,0-0.9,0.1-1.2,0.5s-0.5,0.8-0.5,1.3v3.7h-1.2L59.5,58.9
			L59.5,58.9z"/>
		<path d="M67.3,60h-0.8v-1h0.8v-0.6c-0.1-0.6,0.1-1.1,0.5-1.6c0.4-0.3,0.9-0.5,1.4-0.5c0.1,0,0.3,0,0.4,0s0.3,0,0.4,0.1v1.1
			c-0.1,0-0.2,0-0.3,0h-0.3c-0.4-0.1-0.8,0.2-0.9,0.6c0,0.1,0,0.2,0,0.3V59H70v1h-1.5v5.4h-1.3V60H67.3z"/>
		<path d="M71.9,57.8c-0.2,0-0.4-0.1-0.6-0.2c-0.1-0.2-0.2-0.4-0.2-0.6c0-0.2,0.1-0.4,0.2-0.6c0.3-0.3,0.8-0.3,1.2,0
			c0.2,0.2,0.2,0.4,0.2,0.6c0,0.2-0.1,0.4-0.2,0.6C72.3,57.7,72.1,57.8,71.9,57.8z M71.2,58.9h1.3v6.4h-1.3V58.9z"/>
		<path d="M74.6,58.9h1.3v1l0,0c0.4-0.8,1.3-1.2,2.1-1.1c0.6-0.1,1.2,0.2,1.6,0.6c0.3,0.5,0.5,1.1,0.5,1.7v4.2h-1.3v-3.9
			c0-0.4-0.1-0.8-0.3-1.2c-0.2-0.3-0.6-0.5-1-0.4c-0.5,0-0.9,0.1-1.2,0.5c-0.3,0.4-0.5,0.8-0.4,1.3v3.7h-1.3
			C74.6,65.3,74.6,58.9,74.6,58.9z"/>
		<path d="M87.5,63.2c0,0.3-0.1,0.6-0.2,0.9c-0.1,0.3-0.3,0.5-0.6,0.7c-0.3,0.2-0.5,0.4-0.9,0.5s-0.7,0.2-1.1,0.2
			c-0.5,0-0.9-0.1-1.4-0.2c-0.4-0.1-0.7-0.4-0.9-0.7c-0.2-0.3-0.4-0.6-0.6-1c-0.1-0.4-0.2-0.9-0.2-1.4s0.1-0.9,0.2-1.4
			c0.1-0.4,0.3-0.7,0.6-1c0.3-0.3,0.6-0.5,0.9-0.7c0.8-0.3,1.8-0.3,2.6,0c0.3,0.2,0.6,0.4,0.9,0.7c0.2,0.3,0.4,0.6,0.5,1
			c0.1,0.5,0.2,0.9,0.2,1.4v0.2H83c0,0.6,0.1,1.1,0.5,1.6c0.3,0.4,0.7,0.5,1.2,0.5c0.4,0,0.8-0.1,1.1-0.3c0.3-0.2,0.5-0.6,0.5-1
			H87.5z M86.3,61.5c0-0.4-0.1-0.9-0.4-1.2s-0.7-0.5-1.1-0.5s-0.8,0.1-1.2,0.4c-0.3,0.3-0.5,0.8-0.5,1.3H86.3z"/>
		<path d="M89.3,58.9h1.3v1l0,0c0.2-0.3,0.4-0.6,0.7-0.8c0.3-0.2,0.7-0.3,1.2-0.3c0.4,0,0.8,0.1,1.2,0.3c0.3,0.2,0.5,0.5,0.7,0.9
			l0,0c0.2-0.4,0.5-0.7,0.8-0.9c0.4-0.2,0.8-0.3,1.2-0.3c0.6-0.1,1.1,0.2,1.5,0.6c0.4,0.5,0.5,1.1,0.5,1.7v4.2h-1.2v-3.8
			c0-0.4-0.1-0.8-0.3-1.2c-0.2-0.3-0.5-0.4-0.8-0.4c-0.4,0-0.8,0.1-1.1,0.4c-0.3,0.4-0.4,0.8-0.4,1.3v3.8h-1.3v-3.8
			c0-0.4-0.1-0.8-0.2-1.2c-0.2-0.3-0.5-0.4-0.9-0.4s-0.8,0.1-1.1,0.5c-0.3,0.4-0.4,0.8-0.4,1.3v3.7h-1.3L89.3,58.9L89.3,58.9z"/>
		<path d="M105.8,63.2c0,0.3-0.1,0.6-0.2,0.9c-0.1,0.3-0.3,0.5-0.6,0.7c-0.3,0.2-0.5,0.4-0.8,0.5c-0.4,0.1-0.8,0.2-1.1,0.2
			c-0.5,0-0.9-0.1-1.3-0.2c-0.4-0.1-0.7-0.4-0.9-0.7c-0.2-0.3-0.4-0.6-0.5-1c-0.1-0.4-0.2-0.9-0.2-1.4s0.1-0.9,0.2-1.4
			c0.1-0.4,0.3-0.7,0.6-1c0.3-0.3,0.6-0.5,0.9-0.7c0.8-0.3,1.8-0.3,2.6,0c0.3,0.1,0.6,0.4,0.9,0.7c0.2,0.3,0.4,0.6,0.5,1
			c0.1,0.5,0.2,0.9,0.2,1.4v0.2h-4.5c0,0.6,0.1,1.1,0.5,1.6c0.3,0.3,0.7,0.5,1.2,0.5c0.4,0,0.8-0.1,1.1-0.3c0.3-0.2,0.5-0.6,0.5-1
			H105.8z M104.6,61.5c0-0.4-0.1-0.9-0.4-1.2s-0.7-0.5-1.1-0.5s-0.8,0.1-1.2,0.4c-0.3,0.3-0.5,0.8-0.5,1.3H104.6z"/>
		<path d="M107.7,58.9h1.3v1l0,0c0.4-0.8,1.2-1.2,2.1-1.1c0.6-0.1,1.2,0.2,1.6,0.6c0.3,0.5,0.5,1.1,0.5,1.7v4.2h-1.3v-3.8
			c0-0.4-0.1-0.8-0.3-1.2c-0.2-0.3-0.6-0.5-1-0.4c-0.5,0-0.9,0.1-1.2,0.5c-0.3,0.4-0.5,0.8-0.5,1.3v3.7h-1.3L107.7,58.9z"/>
		<path d="M115.2,60h-0.9v-1.1h0.9v-1.6h1.3V59h1.5v1h-1.5v3.4c0,0.3,0.1,0.5,0.2,0.7c0.2,0.2,0.4,0.2,0.7,0.2h0.3h0.3v1.1l-0.4,0.1
			c-0.1,0-0.3,0-0.4,0c-0.5,0-1-0.1-1.4-0.5s-0.6-1-0.5-1.6L115.2,60z"/>
	</g>
</g>
</svg>
